<?xml version="1.0" encoding="utf-8"?>
<!-- Generator: Adobe Illustrator 15.0.0, SVG Export Plug-In . SVG Version: 6.00 Build 0)  -->
<!DOCTYPE svg PUBLIC "-//W3C//DTD SVG 1.1//EN" "http://www.w3.org/Graphics/SVG/1.1/DTD/svg11.dtd">
<svg version="1.1" id="Layer_1" xmlns="http://www.w3.org/2000/svg" xmlns:xlink="http://www.w3.org/1999/xlink" x="0px" y="0px"
	 width="800px" height="100px" viewBox="0 0 800 100" enable-background="new 0 0 800 100" xml:space="preserve">
<rect x="270.757" y="34.867" fill="#F1F2F2" width="282.993" height="38.775"/>
<g>
	<g>
		
			<linearGradient id="SVGID_1_" gradientUnits="userSpaceOnUse" x1="297.2358" y1="-163.1875" x2="296.5556" y2="-233.2555" gradientTransform="matrix(1 0 0 -1 -20.96 -146.6602)">
			<stop  offset="0" style="stop-color:#9BDAEF"/>
			<stop  offset="1" style="stop-color:#00B6CE"/>
		</linearGradient>
		<path fill="url(#SVGID_1_)" d="M293.321,78.154c0.149,0.767-0.3,1.146-1.349,1.146h-10.228c-0.975,0-1.537-0.381-1.686-1.146
			l-0.899-8.84h-6.969l-0.899,8.84c-0.151,0.767-0.713,1.146-1.686,1.146h-10.228c-1.05,0-1.5-0.381-1.349-1.146l8.43-55.008
			c0.149-0.764,0.748-1.146,1.798-1.146h14.836c1.048,0,1.647,0.382,1.798,1.146L293.321,78.154z M278.26,60.146l-2.136-22.185
			h-0.899l-2.136,22.185H278.26z"/>
		
			<linearGradient id="SVGID_2_" gradientUnits="userSpaceOnUse" x1="347.6289" y1="-163.6758" x2="346.9487" y2="-233.7437" gradientTransform="matrix(1 0 0 -1 -20.96 -146.6602)">
			<stop  offset="0" style="stop-color:#9BDAEF"/>
			<stop  offset="1" style="stop-color:#00B6CE"/>
		</linearGradient>
		<path fill="url(#SVGID_2_)" d="M356.149,31.332L344.01,78.154c-0.151,0.767-0.75,1.146-1.798,1.146h-9.891
			c-1.05,0-1.649-0.381-1.798-1.146l-3.934-17.107h-0.113l-3.934,17.107c-0.151,0.767-0.75,1.146-1.798,1.146h-9.891
			c-1.05,0-1.649-0.381-1.798-1.146l-12.139-46.822c-0.151-0.764,0.298-1.146,1.349-1.146h12.139c0.973,0,1.535,0.382,1.686,1.146
			L316.023,59h0.45l4.271-27.668c0.149-0.764,0.711-1.146,1.686-1.146h8.205c0.973,0,1.535,0.382,1.686,1.146L336.592,59h0.45
			l3.934-27.668c0.149-0.764,0.711-1.146,1.686-1.146H354.8C355.849,30.186,356.298,30.568,356.149,31.332z"/>
		
			<linearGradient id="SVGID_3_" gradientUnits="userSpaceOnUse" x1="397.5322" y1="-164.1611" x2="396.852" y2="-234.2295" gradientTransform="matrix(1 0 0 -1 -20.96 -146.6602)">
			<stop  offset="0" style="stop-color:#9BDAEF"/>
			<stop  offset="1" style="stop-color:#00B6CE"/>
		</linearGradient>
		<path fill="url(#SVGID_3_)" d="M389.979,70.87v7.284c0,0.767-0.525,1.146-1.573,1.146h-24.39c-1.05,0-1.574-0.381-1.574-1.146
			V31.332c0-0.764,0.523-1.146,1.574-1.146h24.39c1.048,0,1.573,0.382,1.573,1.146v7.286c0,0.765-0.525,1.146-1.573,1.146h-12.813
			v9.332h11.127c1.048,0,1.574,0.383,1.574,1.146v7.285c0,0.765-0.525,1.146-1.574,1.146h-11.127v11.052h12.813
			C389.455,69.725,389.979,70.105,389.979,70.87z"/>
		
			<linearGradient id="SVGID_4_" gradientUnits="userSpaceOnUse" x1="434.3369" y1="-164.5181" x2="433.6567" y2="-234.5867" gradientTransform="matrix(1 0 0 -1 -20.96 -146.6602)">
			<stop  offset="0" style="stop-color:#9BDAEF"/>
			<stop  offset="1" style="stop-color:#00B6CE"/>
		</linearGradient>
		<path fill="url(#SVGID_4_)" d="M420.663,30.432c1.724,0.546,3.221,1.283,4.496,2.21c1.272,0.929,2.284,2.02,3.034,3.274
			c0.748,1.256,1.123,2.593,1.123,4.011v3.11c0,0.765-0.486,1.256-1.461,1.474l-10.228,1.965c-0.976,0.219-1.461-0.054-1.461-0.819
			v-5.321c0-0.545-0.265-1.009-0.787-1.392c-0.524-0.381-1.163-0.573-1.911-0.573h-0.898c-0.75,0-1.387,0.192-1.911,0.573
			c-0.525,0.382-0.787,0.847-0.787,1.392v4.994c0.073,0.601,0.226,1.119,0.448,1.555c0.226,0.438,0.637,0.874,1.236,1.31
			l14.725,8.022c1.197,0.766,1.967,1.542,2.304,2.333c0.338,0.791,0.58,1.679,0.729,2.66v8.351c0,1.42-0.375,2.756-1.123,4.01
			c-0.75,1.258-1.762,2.349-3.034,3.275c-1.275,0.928-2.773,1.666-4.496,2.211c-1.726,0.543-3.56,0.817-5.507,0.817h-4.271
			c-1.949,0-3.785-0.274-5.507-0.817c-1.726-0.545-3.224-1.283-4.496-2.211c-1.275-0.928-2.287-2.019-3.035-3.275
			c-0.75-1.254-1.124-2.59-1.124-4.01v-4.584c0-0.765,0.486-1.256,1.461-1.475l10.228-1.965c0.973-0.217,1.461,0.056,1.461,0.818
			v6.795c0,0.545,0.261,1.011,0.787,1.392c0.523,0.383,1.16,0.573,1.91,0.573h0.899c0.748,0,1.386-0.19,1.911-0.573
			c0.523-0.381,0.787-0.847,0.787-1.392v-5.075c-0.076-0.709-0.227-1.337-0.45-1.884c-0.225-0.545-0.674-1.035-1.349-1.474
			l-14.499-8.104c-1.124-0.765-1.93-1.527-2.417-2.292c-0.488-0.764-0.73-1.773-0.73-3.029v-7.367c0-1.418,0.374-2.755,1.124-4.011
			c0.749-1.255,1.76-2.346,3.035-3.274c1.272-0.927,2.771-1.664,4.496-2.21c1.724-0.545,3.558-0.819,5.507-0.819h4.271
			C417.104,29.613,418.938,29.887,420.663,30.432z"/>
		
			<linearGradient id="SVGID_5_" gradientUnits="userSpaceOnUse" x1="474.2334" y1="-164.9063" x2="473.5532" y2="-234.9735" gradientTransform="matrix(1 0 0 -1 -20.96 -146.6602)">
			<stop  offset="0" style="stop-color:#9BDAEF"/>
			<stop  offset="1" style="stop-color:#00B6CE"/>
		</linearGradient>
		<path fill="url(#SVGID_5_)" d="M469.216,69.561c0,1.42-0.375,2.756-1.123,4.01c-0.75,1.258-1.762,2.349-3.034,3.275
			c-1.275,0.928-2.773,1.665-4.496,2.211c-1.726,0.543-3.561,0.817-5.508,0.817h-4.271c-1.949,0-3.784-0.274-5.509-0.817
			c-1.724-0.546-3.221-1.283-4.494-2.211c-1.275-0.928-2.287-2.019-3.035-3.275c-0.75-1.254-1.124-2.59-1.124-4.01V39.927
			c0-1.418,0.374-2.755,1.124-4.011c0.748-1.255,1.76-2.346,3.035-3.274c1.273-0.927,2.771-1.664,4.494-2.21
			c1.725-0.545,3.56-0.819,5.509-0.819h4.271c1.947,0,3.782,0.274,5.508,0.819c1.723,0.546,3.221,1.283,4.496,2.21
			c1.272,0.929,2.284,2.02,3.034,3.274c0.748,1.256,1.123,2.593,1.123,4.011V69.561z M456.066,40.336
			c0-0.545-0.264-1.009-0.787-1.392c-0.524-0.381-1.162-0.573-1.91-0.573h-0.898c-0.75,0-1.388,0.192-1.91,0.573
			c-0.525,0.382-0.787,0.847-0.787,1.392V69.15c0,0.545,0.262,1.011,0.787,1.392c0.522,0.383,1.16,0.573,1.91,0.573h0.898
			c0.748,0,1.386-0.19,1.91-0.573c0.523-0.381,0.787-0.847,0.787-1.392V40.336z"/>
		
			<linearGradient id="SVGID_6_" gradientUnits="userSpaceOnUse" x1="521.4355" y1="-165.3633" x2="520.7554" y2="-235.4318" gradientTransform="matrix(1 0 0 -1 -20.96 -146.6602)">
			<stop  offset="0" style="stop-color:#9BDAEF"/>
			<stop  offset="1" style="stop-color:#00B6CE"/>
		</linearGradient>
		<path fill="url(#SVGID_6_)" d="M522.042,31.332v46.822c0,0.767-0.524,1.146-1.574,1.146h-10.79c-1.05,0-1.572-0.381-1.572-1.146
			V56.38l-7.418,19.481c-0.151,0.274-0.338,0.41-0.563,0.41s-0.412-0.136-0.562-0.41l-7.418-19.481v21.774
			c0,0.766-0.525,1.146-1.574,1.146h-10.789c-1.051,0-1.574-0.381-1.574-1.146V31.332c0-0.764,0.523-1.146,1.574-1.146h9.553
			c0.45,0,0.844,0.123,1.182,0.368c0.336,0.245,0.578,0.505,0.729,0.778l8.879,25.212l8.88-25.212
			c0.148-0.272,0.395-0.532,0.73-0.778c0.336-0.246,0.729-0.368,1.18-0.368h9.554C521.516,30.186,522.042,30.568,522.042,31.332z"/>
		
			<linearGradient id="SVGID_7_" gradientUnits="userSpaceOnUse" x1="567.2305" y1="-165.8076" x2="566.5502" y2="-235.876" gradientTransform="matrix(1 0 0 -1 -20.96 -146.6602)">
			<stop  offset="0" style="stop-color:#9BDAEF"/>
			<stop  offset="1" style="stop-color:#00B6CE"/>
		</linearGradient>
		<path fill="url(#SVGID_7_)" d="M559.693,70.87v7.284c0,0.767-0.524,1.146-1.572,1.146H533.73c-1.051,0-1.573-0.381-1.573-1.146
			V31.332c0-0.764,0.522-1.146,1.573-1.146h24.391c1.048,0,1.572,0.382,1.572,1.146v7.286c0,0.765-0.524,1.146-1.572,1.146h-12.813
			v9.332h11.127c1.049,0,1.574,0.383,1.574,1.146v7.285c0,0.765-0.525,1.146-1.574,1.146h-11.127v11.052h12.813
			C559.168,69.725,559.693,70.105,559.693,70.87z"/>
	</g>
	<g>
		<path fill="none" stroke="#F1F2F2" stroke-width="4" d="M293.321,78.154c0.149,0.767-0.3,1.146-1.349,1.146h-10.228
			c-0.975,0-1.537-0.381-1.686-1.146l-0.899-8.84h-6.969l-0.899,8.84c-0.151,0.767-0.713,1.146-1.686,1.146h-10.228
			c-1.05,0-1.5-0.381-1.349-1.146l8.43-55.008c0.149-0.764,0.748-1.146,1.798-1.146h14.836c1.048,0,1.647,0.382,1.798,1.146
			L293.321,78.154z M278.26,60.146l-2.136-22.185h-0.899l-2.136,22.185H278.26z"/>
		<path fill="none" stroke="#F1F2F2" stroke-width="4" d="M356.149,31.332L344.01,78.154c-0.151,0.767-0.75,1.146-1.798,1.146
			h-9.891c-1.05,0-1.649-0.381-1.798-1.146l-3.934-17.107h-0.113l-3.934,17.107c-0.151,0.767-0.75,1.146-1.798,1.146h-9.891
			c-1.05,0-1.649-0.381-1.798-1.146l-12.139-46.822c-0.151-0.764,0.298-1.146,1.349-1.146h12.139c0.973,0,1.535,0.382,1.686,1.146
			L316.023,59h0.45l4.271-27.668c0.149-0.764,0.711-1.146,1.686-1.146h8.205c0.973,0,1.535,0.382,1.686,1.146L336.592,59h0.45
			l3.934-27.668c0.149-0.764,0.711-1.146,1.686-1.146H354.8C355.849,30.186,356.298,30.568,356.149,31.332z"/>
		<path fill="none" stroke="#F1F2F2" stroke-width="4" d="M389.979,70.87v7.284c0,0.767-0.525,1.146-1.573,1.146h-24.39
			c-1.05,0-1.574-0.381-1.574-1.146V31.332c0-0.764,0.523-1.146,1.574-1.146h24.39c1.048,0,1.573,0.382,1.573,1.146v7.286
			c0,0.765-0.525,1.146-1.573,1.146h-12.813v9.332h11.127c1.048,0,1.574,0.383,1.574,1.146v7.285c0,0.765-0.525,1.146-1.574,1.146
			h-11.127v11.052h12.813C389.455,69.725,389.979,70.105,389.979,70.87z"/>
		<path fill="none" stroke="#F1F2F2" stroke-width="4" d="M420.663,30.432c1.724,0.546,3.221,1.283,4.496,2.21
			c1.272,0.929,2.284,2.02,3.034,3.274c0.748,1.256,1.123,2.593,1.123,4.011v3.11c0,0.765-0.486,1.256-1.461,1.474l-10.228,1.965
			c-0.976,0.219-1.461-0.054-1.461-0.819v-5.321c0-0.545-0.265-1.009-0.787-1.392c-0.524-0.381-1.163-0.573-1.911-0.573h-0.898
			c-0.75,0-1.387,0.192-1.911,0.573c-0.525,0.382-0.787,0.847-0.787,1.392v4.994c0.073,0.601,0.226,1.119,0.448,1.555
			c0.226,0.438,0.637,0.874,1.236,1.31l14.725,8.022c1.197,0.766,1.967,1.542,2.304,2.333c0.338,0.791,0.58,1.679,0.729,2.66v8.351
			c0,1.42-0.375,2.756-1.123,4.01c-0.75,1.258-1.762,2.349-3.034,3.275c-1.275,0.928-2.773,1.666-4.496,2.211
			c-1.726,0.543-3.56,0.817-5.507,0.817h-4.271c-1.949,0-3.785-0.274-5.507-0.817c-1.726-0.545-3.224-1.283-4.496-2.211
			c-1.275-0.928-2.287-2.019-3.035-3.275c-0.75-1.254-1.124-2.59-1.124-4.01v-4.584c0-0.765,0.486-1.256,1.461-1.475l10.228-1.965
			c0.973-0.217,1.461,0.056,1.461,0.818v6.795c0,0.545,0.261,1.011,0.787,1.392c0.523,0.383,1.16,0.573,1.91,0.573h0.899
			c0.748,0,1.386-0.19,1.911-0.573c0.523-0.381,0.787-0.847,0.787-1.392v-5.075c-0.076-0.709-0.227-1.337-0.45-1.884
			c-0.225-0.545-0.674-1.035-1.349-1.474l-14.499-8.104c-1.124-0.765-1.93-1.527-2.417-2.292c-0.488-0.764-0.73-1.773-0.73-3.029
			v-7.367c0-1.418,0.374-2.755,1.124-4.011c0.749-1.255,1.76-2.346,3.035-3.274c1.272-0.927,2.771-1.664,4.496-2.21
			c1.724-0.545,3.558-0.819,5.507-0.819h4.271C417.104,29.613,418.938,29.887,420.663,30.432z"/>
		<path fill="none" stroke="#F1F2F2" stroke-width="4" d="M469.216,69.561c0,1.42-0.375,2.756-1.123,4.01
			c-0.75,1.258-1.762,2.349-3.034,3.275c-1.275,0.928-2.773,1.665-4.496,2.211c-1.726,0.543-3.561,0.817-5.508,0.817h-4.271
			c-1.949,0-3.784-0.274-5.509-0.817c-1.724-0.546-3.221-1.283-4.494-2.211c-1.275-0.928-2.287-2.019-3.035-3.275
			c-0.75-1.254-1.124-2.59-1.124-4.01V39.927c0-1.418,0.374-2.755,1.124-4.011c0.748-1.255,1.76-2.346,3.035-3.274
			c1.273-0.927,2.771-1.664,4.494-2.21c1.725-0.545,3.56-0.819,5.509-0.819h4.271c1.947,0,3.782,0.274,5.508,0.819
			c1.723,0.546,3.221,1.283,4.496,2.21c1.272,0.929,2.284,2.02,3.034,3.274c0.748,1.256,1.123,2.593,1.123,4.011V69.561z
			 M456.066,40.336c0-0.545-0.264-1.009-0.787-1.392c-0.524-0.381-1.162-0.573-1.91-0.573h-0.898c-0.75,0-1.388,0.192-1.91,0.573
			c-0.525,0.382-0.787,0.847-0.787,1.392V69.15c0,0.545,0.262,1.011,0.787,1.392c0.522,0.383,1.16,0.573,1.91,0.573h0.898
			c0.748,0,1.386-0.19,1.91-0.573c0.523-0.381,0.787-0.847,0.787-1.392V40.336z"/>
		<path fill="none" stroke="#F1F2F2" stroke-width="4" d="M522.042,31.332v46.822c0,0.767-0.524,1.146-1.574,1.146h-10.79
			c-1.05,0-1.572-0.381-1.572-1.146V56.38l-7.418,19.481c-0.151,0.274-0.338,0.41-0.563,0.41s-0.412-0.136-0.562-0.41l-7.418-19.481
			v21.774c0,0.766-0.525,1.146-1.574,1.146h-10.789c-1.051,0-1.574-0.381-1.574-1.146V31.332c0-0.764,0.523-1.146,1.574-1.146h9.553
			c0.45,0,0.844,0.123,1.182,0.368c0.336,0.245,0.578,0.505,0.729,0.778l8.879,25.212l8.88-25.212
			c0.148-0.272,0.395-0.532,0.73-0.778c0.336-0.246,0.729-0.368,1.18-0.368h9.554C521.516,30.186,522.042,30.568,522.042,31.332z"/>
		<path fill="none" stroke="#F1F2F2" stroke-width="4" d="M559.693,70.87v7.284c0,0.767-0.524,1.146-1.572,1.146H533.73
			c-1.051,0-1.573-0.381-1.573-1.146V31.332c0-0.764,0.522-1.146,1.573-1.146h24.391c1.048,0,1.572,0.382,1.572,1.146v7.286
			c0,0.765-0.524,1.146-1.572,1.146h-12.813v9.332h11.127c1.049,0,1.574,0.383,1.574,1.146v7.285c0,0.765-0.525,1.146-1.574,1.146
			h-11.127v11.052h12.813C559.168,69.725,559.693,70.105,559.693,70.87z"/>
	</g>
</g>
</svg>
