<?xml version="1.0" encoding="utf-8"?>
<!-- Generator: Adobe Illustrator 15.0.0, SVG Export Plug-In . SVG Version: 6.00 Build 0)  -->
<!DOCTYPE svg PUBLIC "-//W3C//DTD SVG 1.1//EN" "http://www.w3.org/Graphics/SVG/1.1/DTD/svg11.dtd">
<svg version="1.1" id="Layer_1" xmlns="http://www.w3.org/2000/svg" xmlns:xlink="http://www.w3.org/1999/xlink" x="0px" y="0px"
	 width="288px" height="288px" viewBox="0 0 288 288" enable-background="new 0 0 288 288" xml:space="preserve">
<circle fill="none" stroke="#603913" stroke-width="8" stroke-miterlimit="10" cx="143.773" cy="146.132" r="82.536"/>
<circle fill="none" stroke="#603913" stroke-width="6" stroke-miterlimit="10" cx="144.721" cy="144.572" r="36.85"/>
<circle fill="#603913" stroke="#603913" stroke-miterlimit="10" cx="144.721" cy="144.572" r="9.509"/>
<line fill="none" stroke="#603913" stroke-width="3" stroke-miterlimit="10" x1="122.711" y1="59.399" x2="164.863" y2="232.121"/>
<line fill="none" stroke="#603913" stroke-width="3" stroke-miterlimit="10" x1="57.238" y1="167.145" x2="230.009" y2="124.982"/>
<line fill="none" stroke="#603913" stroke-width="3" stroke-miterlimit="10" x1="67.553" y1="100.149" x2="220.577" y2="193.137"/>
<line fill="none" stroke="#603913" stroke-width="3" stroke-miterlimit="10" x1="95.108" y1="221.386" x2="187.611" y2="69.158"/>
<linearGradient id="SVGID_1_" gradientUnits="userSpaceOnUse" x1="257.8311" y1="-33.8428" x2="291.4414" y2="-33.8428" gradientTransform="matrix(1 0 0 -1 -153.6602 12.04)">
	<stop  offset="0" style="stop-color:#FFFCD5"/>
	<stop  offset="0.0828" style="stop-color:#FFF6C3"/>
	<stop  offset="0.3219" style="stop-color:#FFEC92"/>
	<stop  offset="0.5417" style="stop-color:#FFE669"/>
	<stop  offset="0.735" style="stop-color:#FFE143"/>
	<stop  offset="0.8944" style="stop-color:#FFDE26"/>
	<stop  offset="1" style="stop-color:#FFDE17"/>
</linearGradient>
<path fill="url(#SVGID_1_)" stroke="#FBB040" stroke-width="2" stroke-miterlimit="10" d="M111.377,32.586
	c9.029,0.028,15.383-5.473,21.09,3.851c1.941,3.324,4.766,7.824,5.208,12.089c0.735,5.883-2.382,7.119-7.706,9.09
	c-6.618,2.207-20.236,6.356-24.943-1.144c-2.824-4.5,1.91-20.737,6.086-23.502"/>
<linearGradient id="SVGID_2_" gradientUnits="userSpaceOnUse" x1="331.1836" y1="-46.0234" x2="365.415" y2="-46.0234" gradientTransform="matrix(1 0 0 -1 -153.6602 12.04)">
	<stop  offset="0" style="stop-color:#F7941E"/>
	<stop  offset="1" style="stop-color:#F15A29"/>
</linearGradient>
<path fill="url(#SVGID_2_)" stroke="#ED1C24" stroke-width="2" stroke-miterlimit="10" d="M198.509,41.618
	c6.628,6.135,15.026,6.387,12.914,17.114c-0.821,3.761-1.789,8.985-4.353,12.421c-3.441,4.829-6.572,3.627-11.825,1.474
	c-6.365-2.857-19.196-9.024-17.582-17.731c0.969-5.223,15.446-13.967,20.392-13.176"/>
<linearGradient id="SVGID_3_" gradientUnits="userSpaceOnUse" x1="382.1621" y1="-109.9434" x2="412.7754" y2="-109.9434" gradientTransform="matrix(1 0 0 -1 -153.6602 12.04)">
	<stop  offset="0" style="stop-color:#8A77B7"/>
	<stop  offset="0.0062" style="stop-color:#8A77B6"/>
	<stop  offset="0.3266" style="stop-color:#8E5AA5"/>
	<stop  offset="0.6105" style="stop-color:#904199"/>
	<stop  offset="0.8446" style="stop-color:#912E92"/>
	<stop  offset="1" style="stop-color:#92278F"/>
</linearGradient>
<path fill="url(#SVGID_3_)" stroke="#662D91" stroke-width="2" stroke-miterlimit="10" d="M256.346,110.758
	c0.79,8.995,6.844,14.824-1.925,21.353c-3.135,2.235-7.36,5.455-11.567,6.282c-5.791,1.266-7.306-1.726-9.75-6.851
	c-2.797-6.392-8.164-19.578-1.119-24.946c4.226-3.22,20.824,0.024,23.957,3.932"/>
<linearGradient id="SVGID_4_" gradientUnits="userSpaceOnUse" x1="369.7627" y1="-186.417" x2="402.5859" y2="-186.417" gradientTransform="matrix(1 0 0 -1 -153.6602 12.04)">
	<stop  offset="0" style="stop-color:#00AEEF"/>
	<stop  offset="1" style="stop-color:#1C75BC"/>
</linearGradient>
<path fill="url(#SVGID_4_)" stroke="#2E3192" stroke-width="2" stroke-miterlimit="10" d="M248.926,202.045
	c-6.004,6.747-6.095,15.146-16.859,13.245c-3.775-0.749-9.019-1.615-12.504-4.11c-4.895-3.347-3.754-6.5-1.701-11.794
	c2.731-6.42,8.646-19.368,17.385-17.924c5.24,0.866,14.266,15.172,13.57,20.131"/>
<linearGradient id="SVGID_5_" gradientUnits="userSpaceOnUse" x1="304.25" y1="-233.6738" x2="337.6973" y2="-233.6738" gradientTransform="matrix(1 0 0 -1 -153.6602 12.04)">
	<stop  offset="0" style="stop-color:#F594A2"/>
	<stop  offset="1" style="stop-color:#EC008C"/>
</linearGradient>
<path fill="url(#SVGID_5_)" stroke="#DA1C5C" stroke-width="2" stroke-miterlimit="10" d="M178.184,258.427
	c-9.011,0.605-14.961,6.54-21.309-2.36c-2.171-3.18-5.305-7.471-6.044-11.693c-1.146-5.816,1.877-7.27,7.049-9.609
	c6.448-2.664,19.742-7.759,24.963-0.607c3.136,4.291-0.45,20.82-4.422,23.873"/>
<linearGradient id="SVGID_6_" gradientUnits="userSpaceOnUse" x1="182.1602" y1="-158.8862" x2="211.7852" y2="-158.8862" gradientTransform="matrix(1 0 0 -1 -153.6602 12.04)">
	<stop  offset="0" style="stop-color:#00AEEF"/>
	<stop  offset="1" style="stop-color:#1C75BC"/>
</linearGradient>
<path fill="url(#SVGID_6_)" stroke="#2B3990" stroke-width="2" stroke-miterlimit="10" d="M29.894,180.239
	c0.167-9.029-5.236-15.468,4.173-21.029c3.354-1.892,7.896-4.646,12.167-5.022c5.894-0.646,7.083,2.489,8.972,7.844
	c2.104,6.652,6.046,20.332-1.526,24.925c-4.542,2.756-20.706-2.226-23.407-6.444"/>
<linearGradient id="SVGID_7_" gradientUnits="userSpaceOnUse" x1="192.877" y1="-83.1621" x2="225.7119" y2="-83.1621" gradientTransform="matrix(1 0 0 -1 -153.6602 12.04)">
	<stop  offset="0" style="stop-color:#7DC242"/>
	<stop  offset="1" style="stop-color:#009444"/>
</linearGradient>
<path fill="url(#SVGID_7_)" stroke="#009444" stroke-width="2" stroke-miterlimit="10" d="M39.217,91.569
	c6.025-6.727,6.141-15.129,16.899-13.192c3.774,0.759,9.015,1.643,12.491,4.148c4.885,3.362,3.735,6.512,1.668,11.8
	c-2.753,6.411-8.709,19.341-17.441,17.87c-5.238-0.882-14.219-15.214-13.507-20.173"/>
<linearGradient id="SVGID_8_" gradientUnits="userSpaceOnUse" x1="224.0146" y1="-219.1055" x2="258.2266" y2="-219.1055" gradientTransform="matrix(1 0 0 -1 -153.6602 12.04)">
	<stop  offset="0" style="stop-color:#F04E23"/>
	<stop  offset="1" style="stop-color:#B02A30"/>
</linearGradient>
<path fill="url(#SVGID_8_)" stroke="#BE1E2D" stroke-width="2" stroke-miterlimit="10" d="M81.866,247.617
	c-5.824-6.901-14.128-8.184-10.716-18.569c1.277-3.63,2.88-8.696,5.845-11.794c4.008-4.369,6.967-2.792,11.915-0.012
	c5.967,3.617,17.944,11.313,15.274,19.756c-1.602,5.064-17.043,11.967-21.855,10.575"/>
</svg>
