<?xml version="1.0" encoding="utf-8"?>
<!-- Generator: Adobe Illustrator 15.0.0, SVG Export Plug-In . SVG Version: 6.00 Build 0)  -->
<!DOCTYPE svg PUBLIC "-//W3C//DTD SVG 1.1//EN" "http://www.w3.org/Graphics/SVG/1.1/DTD/svg11.dtd">
<svg version="1.1" id="Layer_1" xmlns="http://www.w3.org/2000/svg" xmlns:xlink="http://www.w3.org/1999/xlink" x="0px" y="0px"
	 width="1280px" height="700px" viewBox="0 0 1280 700" enable-background="new 0 0 1280 700" xml:space="preserve">
<linearGradient id="SVGID_1_" gradientUnits="userSpaceOnUse" x1="234.0732" y1="82.5527" x2="1542.0059" y2="82.5527" gradientTransform="matrix(1 0 0 1 -249.1602 70.4395)">
	<stop  offset="0.0424" style="stop-color:#D4E3F5"/>
	<stop  offset="0.3274" style="stop-color:#9BCAED"/>
	<stop  offset="0.6049" style="stop-color:#68B8E6"/>
	<stop  offset="0.8173" style="stop-color:#3FAEE3"/>
	<stop  offset="0.9394" style="stop-color:#27AAE1"/>
</linearGradient>
<rect x="-15.087" y="-161.992" fill="url(#SVGID_1_)" width="1307.933" height="629.969"/>
<linearGradient id="SVGID_2_" gradientUnits="userSpaceOnUse" x1="242.1602" y1="428" x2="1538.6309" y2="428" gradientTransform="matrix(1 0 0 1 -249.1602 70.4395)">
	<stop  offset="0.2303" style="stop-color:#8DC63F"/>
	<stop  offset="0.7636" style="stop-color:#00A14B"/>
</linearGradient>
<path fill="url(#SVGID_2_)" stroke="#1C6030" stroke-width="5" d="M1289.471,355.434c0,0-140.274-73.939-339.854-75.063
	c-283.028-8.776-602.543,40.442-602.543,40.442S88.118,256.595-7,274.594l4.929,447.875l1284.125,3L1289.471,355.434z"/>
<linearGradient id="SVGID_3_" gradientUnits="userSpaceOnUse" x1="615.7637" y1="-208.3037" x2="1823.3975" y2="-208.3037" gradientTransform="matrix(1 0 0 -1 -566.2803 312.4199)">
	<stop  offset="0" style="stop-color:#FECA16"/>
	<stop  offset="0.9636" style="stop-color:#FFF2BA"/>
</linearGradient>
<path fill="url(#SVGID_3_)" stroke="#FAA722" stroke-width="5" d="M99.618,513.083c-13.5,34.498,44.998,79.496,44.998,79.496
	s-37.498,64.497,31.499,76.496c68.997,11.999,80.996-14.999,187.491-1.5c106.493,13.499,269.983,28.498,358.479,10.499
	s395.979,28.499,428.979-7.499s158.991-19.499,80.995-124.494c-77.995-104.995-211.486-104.995-211.486-104.995
	s-193.49-22.499-191.99-38.998s-161.908-13.583-200.99-11.999c-110.995,4.5-256.487-25.499-256.487-25.499
	s-139.493-16.498-190.491-5.999C129.617,369.09,41.121,378.09,50.12,414.088s46.498,34.499,49.498,61.497
	S99.618,513.083,99.618,513.083z"/>
<path fill="none" stroke="#BA8758" stroke-width="2" stroke-miterlimit="10" d="M456.647,218.411
	c-27.715,0-50.173,20.931-50.173,46.75c0,25.819,22.458,46.75,50.169,46.75c27.698,0,50.174-20.931,50.174-46.75
	C506.817,239.342,484.347,218.411,456.647,218.411z M456.767,308.271c-25.364,0-45.93-19.163-45.93-42.8
	c0-23.641,20.563-42.801,45.93-42.801c25.36,0,45.921,19.16,45.921,42.801C502.688,289.111,482.127,308.271,456.767,308.271z"/>
<linearGradient id="SVGID_4_" gradientUnits="userSpaceOnUse" x1="766.0977" y1="232.2178" x2="792.0342" y2="232.2178" gradientTransform="matrix(1 0 0 1 -249.1602 70.4395)">
	<stop  offset="0.2061" style="stop-color:#F9ED32"/>
	<stop  offset="0.6061" style="stop-color:#F7941E"/>
	<stop  offset="0.9091" style="stop-color:#F7941E"/>
</linearGradient>
<polygon fill="url(#SVGID_4_)" stroke="#F47929" stroke-width="4" stroke-miterlimit="10" points="542.874,335.049 535.813,270.104 
	524.098,282.329 516.938,335.211 "/>
<linearGradient id="SVGID_5_" gradientUnits="userSpaceOnUse" x1="823.4766" y1="212.0581" x2="837.6816" y2="212.0581" gradientTransform="matrix(1 0 0 1 -249.1602 70.4395)">
	<stop  offset="0.3273" style="stop-color:#F9ED32"/>
	<stop  offset="0.6667" style="stop-color:#F7941E"/>
</linearGradient>
<polygon fill="url(#SVGID_5_)" stroke="#F47929" stroke-width="4" stroke-miterlimit="10" points="588.521,317.023 584.267,247.784 
	577.54,249.772 574.316,317.211 "/>
<path fill="none" stroke="#BA8758" stroke-width="2" stroke-miterlimit="10" d="M143.167,72.241c-35.16,0-63.66,26.57-63.66,59.34
	c0,32.771,28.5,59.33,63.66,59.33c35.17,0,63.67-26.561,63.67-59.33S178.337,72.241,143.167,72.241z M142.667,185.892
	c-32.18,0-58.28-24.319-58.28-54.311c0-30,26.1-54.32,58.28-54.32c32.19,0,58.28,24.32,58.28,54.32
	C200.947,161.57,174.857,185.892,142.667,185.892z"/>
<linearGradient id="SVGID_6_" gradientUnits="userSpaceOnUse" x1="415.0859" y1="188.7637" x2="440.9692" y2="188.7637" gradientTransform="matrix(1 0 0 1 -249.1602 70.4395)">
	<stop  offset="0.1879" style="stop-color:#F9ED32"/>
	<stop  offset="0.6606" style="stop-color:#F7941E"/>
</linearGradient>
<polygon fill="url(#SVGID_6_)" stroke="#F47929" stroke-width="4" stroke-miterlimit="10" points="191.809,326.063 183.798,197.355 
	171.799,191.99 165.926,326.416 "/>
<linearGradient id="SVGID_7_" gradientUnits="userSpaceOnUse" x1="475.564" y1="211.0166" x2="501.4473" y2="211.0166" gradientTransform="matrix(1 0 0 1 -249.1602 70.4395)">
	<stop  offset="0.1879" style="stop-color:#F9ED32"/>
	<stop  offset="0.6606" style="stop-color:#F7941E"/>
</linearGradient>
<polygon fill="url(#SVGID_7_)" stroke="#F47929" stroke-width="4" stroke-miterlimit="10" points="252.287,329.188 244.277,239.441 
	232.277,233.486 226.404,329.427 "/>
<linearGradient id="SVGID_8_" gradientUnits="userSpaceOnUse" x1="543.1211" y1="220.3984" x2="569.0049" y2="220.3984" gradientTransform="matrix(1 0 0 1 -249.1602 70.4395)">
	<stop  offset="0.1879" style="stop-color:#F9ED32"/>
	<stop  offset="0.6606" style="stop-color:#F7941E"/>
</linearGradient>
<polygon fill="url(#SVGID_8_)" stroke="#F47929" stroke-width="4" stroke-miterlimit="10" points="319.845,331.339 312.092,252.133 
	299.835,250.118 293.961,331.558 "/>
<linearGradient id="SVGID_9_" gradientUnits="userSpaceOnUse" x1="610.8721" y1="232.0625" x2="636.0977" y2="232.0625" gradientTransform="matrix(1 0 0 1 -249.1602 70.4395)">
	<stop  offset="0.2424" style="stop-color:#F9ED32"/>
	<stop  offset="0.703" style="stop-color:#F7941E"/>
</linearGradient>
<polygon fill="url(#SVGID_9_)" stroke="#F47929" stroke-width="4" stroke-miterlimit="10" points="380.469,285.038 386.938,332.209 
	361.712,331.584 366.887,272.795 "/>
<linearGradient id="SVGID_10_" gradientUnits="userSpaceOnUse" x1="350.6772" y1="190.5713" x2="376.5601" y2="190.5713" gradientTransform="matrix(1 0 0 1 -249.1602 70.4395)">
	<stop  offset="0.1879" style="stop-color:#F9ED32"/>
	<stop  offset="0.6606" style="stop-color:#F7941E"/>
</linearGradient>
<polygon fill="url(#SVGID_10_)" stroke="#F47929" stroke-width="4" stroke-miterlimit="10" points="127.4,326.203 118.813,195.48 
	106.814,200.271 101.517,326.541 "/>
<linearGradient id="SVGID_11_" gradientUnits="userSpaceOnUse" x1="285.6514" y1="207.3271" x2="311.5342" y2="207.3271" gradientTransform="matrix(1 0 0 1 -249.1602 70.4395)">
	<stop  offset="0.1879" style="stop-color:#F9ED32"/>
	<stop  offset="0.6606" style="stop-color:#F7941E"/>
</linearGradient>
<polygon fill="url(#SVGID_11_)" stroke="#F47929" stroke-width="4" stroke-miterlimit="10" points="62.374,326.3 53.787,228.986 
	41.787,233.963 36.491,326.548 "/>
<linearGradient id="SVGID_12_" gradientUnits="userSpaceOnUse" x1="674.8721" y1="251.4883" x2="692.0977" y2="251.4883" gradientTransform="matrix(1 0 0 1 -249.1602 70.4395)">
	<stop  offset="0.2424" style="stop-color:#F9ED32"/>
	<stop  offset="0.703" style="stop-color:#F7941E"/>
</linearGradient>
<polygon fill="url(#SVGID_12_)" stroke="#F47929" stroke-width="4" stroke-miterlimit="10" points="438.521,314.707 
	442.938,334.209 425.712,333.951 429.246,309.646 "/>
<linearGradient id="SVGID_13_" gradientUnits="userSpaceOnUse" x1="870.8408" y1="206.6748" x2="879.0479" y2="206.6748" gradientTransform="matrix(1 0 0 1 -249.1602 70.4395)">
	<stop  offset="0.3273" style="stop-color:#F9ED32"/>
	<stop  offset="0.6667" style="stop-color:#F7941E"/>
</linearGradient>
<polygon fill="url(#SVGID_13_)" stroke="#F47929" stroke-width="4" stroke-miterlimit="10" points="629.888,298.216 627.43,259.475 
	622.586,255.901 621.681,298.328 "/>
<linearGradient id="SVGID_14_" gradientUnits="userSpaceOnUse" x1="3921.5625" y1="252.5625" x2="3939.7881" y2="252.5625" gradientTransform="matrix(-1 0 0 1 4416.5 70.4395)">
	<stop  offset="0.2424" style="stop-color:#F9ED32"/>
	<stop  offset="0.703" style="stop-color:#F7941E"/>
</linearGradient>
<polygon fill="url(#SVGID_14_)" stroke="#F47929" stroke-width="4" stroke-miterlimit="10" points="481.385,315.825 
	476.712,335.209 494.938,334.952 491.198,310.795 "/>
<path fill="none" stroke="#BA8758" stroke-width="2" stroke-miterlimit="10" d="M647.166,269.901
	c-20.865-19.501-31.04-24.917-43.665-25.592c-15.156-0.811-33.872,2.416-46.971,8.926c-9.998,4.968-18.002,12.199-25.271,19.998
	c-8.229,8.833-16.07,17.992-26.438,25.048c-15.896,10.811-45.563,12.091-45.563,12.091c-10.409,0.01-20.841-0.785-31.012-2.82
	c-26.105-5.223-44.178-20.083-62.379-36.698c-18.812-17.172-51.657-26.24-78.216-26.77l-2.065-0.016
	c-77.099-1.389-55.056-54.832-129.961-55.586C53.85,187.458,84.382,239.741-11.03,244.866l2.12,2.732
	c25.542-0.457,52.323-7.435,70.414-22.282c17.504-14.365,34.885-27.216,59.992-31.73c9.782-1.76,19.814-2.447,29.824-2.438
	c0,0,30.299,2.672,43.818,10.454c10.158,5.851,17.516,14.021,25.431,21.657c6.989,6.743,14.688,12.997,24.302,17.292
	c12.776,5.709,27.504,7.601,41.967,7.722c98.736,6.065,71.212,66.364,176.896,65.182c76.402-0.856,48.479-61.634,141.938-65.052
	c3.834-0.141,6,1.25,12.5,5c16.274,9.39,37.5,34.5,37.5,34.5l6.5-1C662.166,286.901,651.844,274.273,647.166,269.901z"/>
<linearGradient id="SVGID_15_" gradientUnits="userSpaceOnUse" x1="1092.6221" y1="340.4775" x2="1157.3516" y2="340.4775" gradientTransform="matrix(1 0 0 1 -249.1602 70.4395)">
	<stop  offset="0.1152" style="stop-color:#ED1C24"/>
	<stop  offset="0.3758" style="stop-color:#CA2131"/>
</linearGradient>
<polyline fill="url(#SVGID_15_)" stroke="#B62634" stroke-width="5" stroke-miterlimit="10" points="844.938,451.648 
	908.191,445.085 844.944,371.795 843.462,370.186 "/>
<linearGradient id="SVGID_16_" gradientUnits="userSpaceOnUse" x1="995.9219" y1="337.1201" x2="1086.4131" y2="337.1201" gradientTransform="matrix(1 0 0 1 -249.1602 70.4395)">
	<stop  offset="0.3576" style="stop-color:#ED1C24"/>
	<stop  offset="0.6121" style="stop-color:#CA2131"/>
</linearGradient>
<polygon fill="url(#SVGID_16_)" stroke="#B62634" stroke-width="5" stroke-miterlimit="10" points="746.762,423.811 
	837.253,369.939 792.847,445.18 "/>
<linearGradient id="SVGID_17_" gradientUnits="userSpaceOnUse" x1="1092.4805" y1="271.9629" x2="1115.5977" y2="271.9629" gradientTransform="matrix(1 0 0 1 -249.1602 70.4395)">
	<stop  offset="0.2545" style="stop-color:#ED1C24"/>
	<stop  offset="0.5939" style="stop-color:#CA2131"/>
</linearGradient>
<path fill="url(#SVGID_17_)" stroke="#B62634" stroke-width="5" stroke-miterlimit="10" d="M843.32,339.118
	c0.078,2.311,0.232,4.622,0.39,6.925c0.079,0.969-0.39,2.832,0.937,2.608c0.709-0.223,1.49-1.34,2.272-1.639
	c2.427-0.817,4.151,0.224,6.421,0.82c1.646,0.446,3.682,0.668,5.483,0.446c5.715-0.599,7.829-7.522,7.597-12.143
	c-2.976,1.869-7.283,6.259-11.042,3.873c-1.802-1.116-2.742-2.606-4.854-3.203c-1.409-0.373-3.839-0.67-5.325-0.222
	c-1.485,0.527-1.877,1.423-1.877,2.762"/>
<linearGradient id="SVGID_18_" gradientUnits="userSpaceOnUse" x1="993.5596" y1="386.8926" x2="1042.0723" y2="386.8926" gradientTransform="matrix(1 0 0 1 -249.1602 70.4395)">
	<stop  offset="0.4727" style="stop-color:#ED1C24"/>
	<stop  offset="0.7273" style="stop-color:#CA2131"/>
</linearGradient>
<polygon fill="url(#SVGID_18_)" stroke="#B62634" stroke-width="5" stroke-miterlimit="10" points="792.912,447.04 745.144,426.456 
	744.399,465.498 792.912,488.208 "/>
<linearGradient id="SVGID_19_" gradientUnits="userSpaceOnUse" x1="1094.0977" y1="399.4229" x2="1157.7227" y2="399.4229" gradientTransform="matrix(1 0 0 1 -249.1602 70.4395)">
	<stop  offset="0.1636" style="stop-color:#ED1C24"/>
	<stop  offset="0.4606" style="stop-color:#CA2131"/>
</linearGradient>
<polygon fill="url(#SVGID_19_)" stroke="#B62634" stroke-width="5" stroke-miterlimit="10" points="908.191,445.085 908.563,488.74 
	847.265,494.64 844.938,451.648 "/>
<polygon fill="none" stroke="#616264" stroke-width="5" stroke-miterlimit="10" points="950.358,425.926 951.477,469.222 
	908.563,488.74 908.191,441.894 "/>
<linearGradient id="SVGID_20_" gradientUnits="userSpaceOnUse" x1="1042.0723" y1="363.4209" x2="1092.8955" y2="363.4209" gradientTransform="matrix(1 0 0 1 -249.1602 70.4395)">
	<stop  offset="0.3636" style="stop-color:#FFFFFF"/>
	<stop  offset="0.7818" style="stop-color:#E0E1E2"/>
</linearGradient>
<polyline fill="url(#SVGID_20_)" stroke="#A38C7F" stroke-width="5" stroke-miterlimit="10" points="843.735,452.262 
	792.912,447.04 840.563,371.166 842.804,452.083 792.912,447.04 792.912,488.208 843.434,496.555 842.804,452.083 "/>
<linearGradient id="SVGID_21_" gradientUnits="userSpaceOnUse" x1="1157.3516" y1="386.8936" x2="1200.6367" y2="386.8936" gradientTransform="matrix(1 0 0 1 -249.1602 70.4395)">
	<stop  offset="0.2909" style="stop-color:#FFFFFF"/>
	<stop  offset="0.7818" style="stop-color:#E0E1E2"/>
</linearGradient>
<polygon fill="url(#SVGID_21_)" stroke="#A38C7F" stroke-width="5" stroke-miterlimit="10" points="908.563,488.74 908.191,441.894 
	950.358,425.926 951.477,469.222 "/>
<linearGradient id="SVGID_22_" gradientUnits="userSpaceOnUse" x1="1098.1533" y1="335.2134" x2="1197.2813" y2="335.2134" gradientTransform="matrix(1 0 0 1 -249.1602 70.4395)">
	<stop  offset="0.2909" style="stop-color:#FFFFFF"/>
	<stop  offset="0.7818" style="stop-color:#E0E1E2"/>
</linearGradient>
<polygon fill="url(#SVGID_22_)" stroke="#A38C7F" stroke-width="5" stroke-miterlimit="10" points="848.993,369.412 
	908.191,441.894 948.121,422.729 "/>
<line fill="none" stroke="#616264" stroke-width="5" stroke-miterlimit="10" x1="844.112" y1="344.303" x2="844.112" y2="363.466"/>
<linearGradient id="SVGID_23_" gradientUnits="userSpaceOnUse" x1="866.6387" y1="362.4766" x2="940.4102" y2="362.4766" gradientTransform="matrix(1 0 0 1 -249.1602 70.4395)">
	<stop  offset="0.0424" style="stop-color:#B5C2D2"/>
	<stop  offset="0.3274" style="stop-color:#86AECC"/>
	<stop  offset="0.6049" style="stop-color:#5A9EC6"/>
	<stop  offset="0.8173" style="stop-color:#3796C3"/>
	<stop  offset="0.9394" style="stop-color:#2493C2"/>
</linearGradient>
<polyline fill="url(#SVGID_23_)" stroke="#1C75BC" stroke-width="5" stroke-miterlimit="10" points="619.162,480.764 
	691.25,474.233 619.17,386.9 617.479,385.067 "/>
<linearGradient id="SVGID_24_" gradientUnits="userSpaceOnUse" x1="757.4453" y1="362.0381" x2="860.5762" y2="362.0381" gradientTransform="matrix(1 0 0 1 -249.1602 70.4395)">
	<stop  offset="0.0424" style="stop-color:#B5C2D2"/>
	<stop  offset="0.3274" style="stop-color:#86AECC"/>
	<stop  offset="0.6049" style="stop-color:#5A9EC6"/>
	<stop  offset="0.8173" style="stop-color:#3796C3"/>
	<stop  offset="0.9394" style="stop-color:#2493C2"/>
</linearGradient>
<polygon fill="url(#SVGID_24_)" stroke="#1C75BC" stroke-width="5" stroke-miterlimit="10" points="508.285,450.998 
	611.416,389.605 560.807,475.35 "/>
<path fill="#1C75BC" stroke="#1C75BC" stroke-width="5" stroke-miterlimit="10" d="M618.328,354.479
	c0.089,2.638,0.268,5.263,0.45,7.895c0.088,1.108-0.45,3.229,1.067,2.974c0.805-0.258,1.697-1.532,2.588-1.865
	c2.766-0.941,4.73,0.254,7.316,0.933c1.876,0.516,4.196,0.764,6.249,0.516c6.514-0.686,8.923-8.582,8.658-13.837
	c-3.394,2.123-8.303,7.126-12.587,4.413c-2.051-1.274-3.124-2.973-5.533-3.653c-1.606-0.424-4.372-0.758-6.069-0.254
	c-1.693,0.596-2.14,1.606-2.14,3.139"/>
<linearGradient id="SVGID_25_" gradientUnits="userSpaceOnUse" x1="754.7529" y1="418.7627" x2="810.041" y2="418.7627" gradientTransform="matrix(1 0 0 1 -249.1602 70.4395)">
	<stop  offset="0.0424" style="stop-color:#B5C2D2"/>
	<stop  offset="0.3274" style="stop-color:#86AECC"/>
	<stop  offset="0.6049" style="stop-color:#5A9EC6"/>
	<stop  offset="0.8173" style="stop-color:#3796C3"/>
	<stop  offset="0.9394" style="stop-color:#2493C2"/>
</linearGradient>
<polygon fill="url(#SVGID_25_)" stroke="#1C75BC" stroke-width="5" stroke-miterlimit="10" points="560.881,477.475 
	506.444,454.014 505.593,498.507 560.881,524.391 "/>
<linearGradient id="SVGID_26_" gradientUnits="userSpaceOnUse" x1="870.2832" y1="433.5186" x2="941.8428" y2="433.5186" gradientTransform="matrix(1 0 0 1 -249.1602 70.4395)">
	<stop  offset="0.0424" style="stop-color:#B5C2D2"/>
	<stop  offset="0.3274" style="stop-color:#86AECC"/>
	<stop  offset="0.6049" style="stop-color:#5A9EC6"/>
	<stop  offset="0.8173" style="stop-color:#3796C3"/>
	<stop  offset="0.9394" style="stop-color:#2493C2"/>
</linearGradient>
<polygon fill="url(#SVGID_26_)" stroke="#1C75BC" stroke-width="5" stroke-miterlimit="10" points="692.26,474.293 692.683,524.997 
	621.869,533.623 621.123,481.774 "/>
<polygon fill="none" stroke="#616264" stroke-width="5" stroke-miterlimit="10" points="740.315,453.406 741.593,502.752 
	692.683,524.997 692.26,471.606 "/>
<linearGradient id="SVGID_27_" gradientUnits="userSpaceOnUse" x1="810.041" y1="392.0137" x2="867.9629" y2="392.0137" gradientTransform="matrix(1 0 0 1 -249.1602 70.4395)">
	<stop  offset="0.3636" style="stop-color:#FFFFFF"/>
	<stop  offset="0.7818" style="stop-color:#E0E1E2"/>
</linearGradient>
<polyline fill="url(#SVGID_27_)" stroke="#A38C7F" stroke-width="5" stroke-miterlimit="10" points="618.802,483.423 
	560.881,477.475 615.188,391.005 617.737,483.22 560.881,477.475 560.881,524.391 618.46,533.901 617.737,483.22 "/>
<linearGradient id="SVGID_28_" gradientUnits="userSpaceOnUse" x1="941.4199" y1="418.7617" x2="990.7529" y2="418.7617" gradientTransform="matrix(1 0 0 1 -249.1602 70.4395)">
	<stop  offset="0.2909" style="stop-color:#FFFFFF"/>
	<stop  offset="0.7818" style="stop-color:#E0E1E2"/>
</linearGradient>
<polygon fill="url(#SVGID_28_)" stroke="#A38C7F" stroke-width="5" stroke-miterlimit="10" points="692.683,524.997 692.26,471.606 
	740.315,453.406 741.593,502.752 "/>
<linearGradient id="SVGID_29_" gradientUnits="userSpaceOnUse" x1="875.8564" y1="360.8154" x2="986.9258" y2="360.8154" gradientTransform="matrix(1 0 0 1 -249.1602 70.4395)">
	<stop  offset="0.2909" style="stop-color:#FFFFFF"/>
	<stop  offset="0.7818" style="stop-color:#E0E1E2"/>
</linearGradient>
<polygon fill="url(#SVGID_29_)" stroke="#A38C7F" stroke-width="5" stroke-miterlimit="10" points="626.696,390.903 692.26,471.606 
	737.766,449.765 "/>
<line fill="none" stroke="#616264" stroke-width="5" stroke-miterlimit="10" x1="619.232" y1="360.385" x2="619.232" y2="383.179"/>
<linearGradient id="SVGID_30_" gradientUnits="userSpaceOnUse" x1="639.4404" y1="329.2529" x2="689.5576" y2="329.2529" gradientTransform="matrix(1 0 0 1 -249.1602 70.4395)">
	<stop  offset="0.2303" style="stop-color:#8DC63F"/>
	<stop  offset="0.7636" style="stop-color:#00A14B"/>
</linearGradient>
<polyline fill="url(#SVGID_30_)" stroke="#009444" stroke-width="5" stroke-miterlimit="10" points="390.28,432.328 
	440.397,427.126 391.285,367.057 391.833,432.167 "/>
<linearGradient id="SVGID_31_" gradientUnits="userSpaceOnUse" x1="561.6553" y1="326.9551" x2="633.3535" y2="326.9551" gradientTransform="matrix(1 0 0 1 -249.1602 70.4395)">
	<stop  offset="0.2303" style="stop-color:#8DC63F"/>
	<stop  offset="0.7636" style="stop-color:#00A14B"/>
</linearGradient>
<polygon fill="url(#SVGID_31_)" stroke="#009444" stroke-width="5" stroke-miterlimit="10" points="312.495,410.271 
	384.193,367.589 348.007,427.2 "/>
<path fill="#009444" stroke="#009444" stroke-width="5" stroke-miterlimit="10" d="M388.999,340.168
	c0.062,1.83,0.186,3.658,0.311,5.486c0.063,0.769-0.311,2.242,0.743,2.063c0.563-0.178,1.181-1.063,1.8-1.299
	c1.925-0.646,3.288,0.178,5.091,0.648c1.303,0.354,2.915,0.526,4.344,0.354c4.528-0.475,6.203-5.961,6.019-9.618
	c-2.355,1.479-5.771,4.955-8.75,3.068c-1.426-0.888-2.171-2.065-3.847-2.538c-1.116-0.295-3.04-0.53-4.22-0.178
	c-1.179,0.412-1.487,1.121-1.487,2.185"/>
<linearGradient id="SVGID_32_" gradientUnits="userSpaceOnUse" x1="559.7832" y1="366.3916" x2="598.2188" y2="366.3916" gradientTransform="matrix(1 0 0 1 -249.1602 70.4395)">
	<stop  offset="0.2303" style="stop-color:#8DC63F"/>
	<stop  offset="0.7636" style="stop-color:#00A14B"/>
</linearGradient>
<polygon fill="url(#SVGID_32_)" stroke="#009444" stroke-width="5" stroke-miterlimit="10" points="349.059,428.677 
	311.213,412.368 310.623,443.3 349.059,461.294 "/>
<linearGradient id="SVGID_33_" gradientUnits="userSpaceOnUse" x1="639.4404" y1="376.3184" x2="689.8506" y2="376.3184" gradientTransform="matrix(1 0 0 1 -249.1602 70.4395)">
	<stop  offset="0.2303" style="stop-color:#8DC63F"/>
	<stop  offset="0.7636" style="stop-color:#00A14B"/>
</linearGradient>
<polygon fill="url(#SVGID_33_)" stroke="#009444" stroke-width="5" stroke-miterlimit="10" points="440.397,427.126 440.69,461.717 
	392.123,466.39 390.28,432.328 "/>
<polygon fill="none" stroke="#616264" stroke-width="5" stroke-miterlimit="10" points="473.807,411.945 474.693,446.251 
	440.69,461.717 440.397,424.6 "/>
<linearGradient id="SVGID_34_" gradientUnits="userSpaceOnUse" x1="601.2188" y1="348.7939" x2="636.4883" y2="348.7939" gradientTransform="matrix(1 0 0 1 -249.1602 70.4395)">
	<stop  offset="0.3636" style="stop-color:#FFFFFF"/>
	<stop  offset="0.7818" style="stop-color:#E0E1E2"/>
</linearGradient>
<polyline fill="url(#SVGID_34_)" stroke="#A38C7F" stroke-width="5" stroke-miterlimit="10" points="387.328,432.813 
	353.059,427.677 386.814,372.561 386.587,432.672 352.059,427.677 352.059,461.294 387.089,465.906 386.587,433.672 "/>
<linearGradient id="SVGID_35_" gradientUnits="userSpaceOnUse" x1="689.5576" y1="366.3916" x2="723.8535" y2="366.3916" gradientTransform="matrix(1 0 0 1 -249.1602 70.4395)">
	<stop  offset="0.2909" style="stop-color:#FFFFFF"/>
	<stop  offset="0.7818" style="stop-color:#E0E1E2"/>
</linearGradient>
<polygon fill="url(#SVGID_35_)" stroke="#A38C7F" stroke-width="5" stroke-miterlimit="10" points="440.69,461.717 440.397,424.6 
	473.807,411.945 474.693,446.251 "/>
<linearGradient id="SVGID_36_" gradientUnits="userSpaceOnUse" x1="648.6533" y1="327.4458" x2="721.1934" y2="327.4458" gradientTransform="matrix(1 0 0 1 -249.1602 70.4395)">
	<stop  offset="0.2909" style="stop-color:#FFFFFF"/>
	<stop  offset="0.7818" style="stop-color:#E0E1E2"/>
</linearGradient>
<polygon fill="url(#SVGID_36_)" stroke="#A38C7F" stroke-width="5" stroke-miterlimit="10" points="399.493,371.171 440.397,424.6 
	472.033,409.415 "/>
<line fill="none" stroke="#616264" stroke-width="5" stroke-miterlimit="10" x1="389.626" y1="349.275" x2="389.626" y2="364.46"/>
<linearGradient id="SVGID_37_" gradientUnits="userSpaceOnUse" x1="452.3022" y1="345.1382" x2="505.856" y2="345.1382" gradientTransform="matrix(1 0 0 1 -249.1602 70.4395)">
	<stop  offset="0.1152" style="stop-color:#ED1C24"/>
	<stop  offset="0.3758" style="stop-color:#BE1E2D"/>
</linearGradient>
<polyline fill="url(#SVGID_37_)" stroke="#B62634" stroke-width="5" stroke-miterlimit="10" points="203.142,451.868 
	256.696,443.973 203.147,379.287 204.775,449.95 "/>
<linearGradient id="SVGID_38_" gradientUnits="userSpaceOnUse" x1="359.9888" y1="342.1543" x2="443.3647" y2="342.1543" gradientTransform="matrix(1 0 0 1 -249.1602 70.4395)">
	<stop  offset="0.3576" style="stop-color:#ED1C24"/>
	<stop  offset="0.6121" style="stop-color:#CA2131"/>
</linearGradient>
<polygon fill="url(#SVGID_38_)" stroke="#B62634" stroke-width="5" stroke-miterlimit="10" points="110.829,425.944 
	194.205,379.345 149.287,445.843 "/>
<linearGradient id="SVGID_39_" gradientUnits="userSpaceOnUse" x1="449.9048" y1="279.6982" x2="471.4341" y2="279.6982" gradientTransform="matrix(1 0 0 1 -249.1602 70.4395)">
	<stop  offset="0.2545" style="stop-color:#ED1C24"/>
	<stop  offset="0.5939" style="stop-color:#CA2131"/>
</linearGradient>
<path fill="url(#SVGID_39_)" stroke="#B62634" stroke-width="5" stroke-miterlimit="10" d="M200.745,347.079
	c0.072,2.15,0.218,4.3,0.363,6.447c0.073,0.904-0.363,2.637,0.874,2.43c0.658-0.205,1.387-1.248,2.115-1.525
	c2.261-0.762,3.866,0.206,5.98,0.761c1.532,0.42,3.427,0.623,5.105,0.42c5.322-0.555,7.291-7.004,7.076-11.307
	c-2.771,1.733-6.782,5.822-10.282,3.605c-1.678-1.041-2.553-2.428-4.521-2.983c-1.313-0.348-3.574-0.623-4.959-0.208
	c-1.385,0.489-1.749,1.318-1.749,2.571"/>
<linearGradient id="SVGID_40_" gradientUnits="userSpaceOnUse" x1="357.7881" y1="385.8301" x2="398.5078" y2="385.8301" gradientTransform="matrix(1 0 0 1 -249.1602 70.4395)">
	<stop  offset="0.4727" style="stop-color:#ED1C24"/>
	<stop  offset="0.7273" style="stop-color:#CA2131"/>
</linearGradient>
<polygon fill="url(#SVGID_40_)" stroke="#B62634" stroke-width="5" stroke-miterlimit="10" points="149.348,447.578 
	109.323,428.409 108.628,464.764 149.348,484.13 "/>
<linearGradient id="SVGID_41_" gradientUnits="userSpaceOnUse" x1="454.085" y1="398.3887" x2="506.7471" y2="398.3887" gradientTransform="matrix(1 0 0 1 -249.1602 70.4395)">
	<stop  offset="0.1636" style="stop-color:#ED1C24"/>
	<stop  offset="0.4606" style="stop-color:#CA2131"/>
</linearGradient>
<polygon fill="url(#SVGID_41_)" stroke="#B62634" stroke-width="5" stroke-miterlimit="10" points="257.587,445.755 
	257.042,486.409 205.308,491.901 204.925,451.868 "/>
<polygon fill="none" stroke="#616264" stroke-width="5" stroke-miterlimit="10" points="300.418,427.914 301.461,468.233 
	261.499,486.409 261.152,442.785 "/>
<linearGradient id="SVGID_42_" gradientUnits="userSpaceOnUse" x1="402.9639" y1="365.7549" x2="450.0112" y2="365.7549" gradientTransform="matrix(1 0 0 1 -249.1602 70.4395)">
	<stop  offset="0.3636" style="stop-color:#FFFFFF"/>
	<stop  offset="0.7818" style="stop-color:#E0E1E2"/>
</linearGradient>
<polyline fill="url(#SVGID_42_)" stroke="#A38C7F" stroke-width="5" stroke-miterlimit="10" points="200.24,448.871 
	155.586,443.121 199.068,380.487 200.262,452.273 153.804,447.578 153.804,485.913 200.851,491.901 200.262,447.816 "/>
<linearGradient id="SVGID_43_" gradientUnits="userSpaceOnUse" x1="510.3125" y1="386.7227" x2="550.6216" y2="386.7227" gradientTransform="matrix(1 0 0 1 -249.1602 70.4395)">
	<stop  offset="0.2909" style="stop-color:#FFFFFF"/>
	<stop  offset="0.7818" style="stop-color:#E0E1E2"/>
</linearGradient>
<polygon fill="url(#SVGID_43_)" stroke="#A38C7F" stroke-width="5" stroke-miterlimit="10" points="261.499,486.409 
	261.152,442.785 300.418,427.914 301.461,468.233 "/>
<linearGradient id="SVGID_44_" gradientUnits="userSpaceOnUse" x1="458.7529" y1="340.8257" x2="547.4946" y2="340.8257" gradientTransform="matrix(1 0 0 1 -249.1602 70.4395)">
	<stop  offset="0.2909" style="stop-color:#FFFFFF"/>
	<stop  offset="0.7818" style="stop-color:#E0E1E2"/>
</linearGradient>
<polygon fill="url(#SVGID_44_)" stroke="#A38C7F" stroke-width="5" stroke-miterlimit="10" points="209.593,379.745 
	261.152,442.785 298.334,424.938 "/>
<line fill="none" stroke="#616264" stroke-width="5" stroke-miterlimit="10" x1="201.482" y1="357.254" x2="201.482" y2="375.099"/>
<linearGradient id="SVGID_45_" gradientUnits="userSpaceOnUse" x1="616.8848" y1="440.6543" x2="712.3555" y2="440.6543" gradientTransform="matrix(1 0 0 1 -249.1602 70.4395)">
	<stop  offset="0.1212" style="stop-color:#FFF200"/>
	<stop  offset="0.4" style="stop-color:#FBB040"/>
</linearGradient>
<polyline fill="url(#SVGID_45_)" stroke="#F7941E" stroke-width="5" stroke-miterlimit="10" points="370.902,571.169 
	463.195,561.486 367.725,451.019 371.902,571.169 "/>
<linearGradient id="SVGID_46_" gradientUnits="userSpaceOnUse" x1="474.2666" y1="435.7012" x2="607.7305" y2="435.7012" gradientTransform="matrix(1 0 0 1 -249.1602 70.4395)">
	<stop  offset="0.1152" style="stop-color:#FFF200"/>
	<stop  offset="0.5212" style="stop-color:#FBB040"/>
</linearGradient>
<polygon fill="url(#SVGID_46_)" stroke="#F7941E" stroke-width="5" stroke-miterlimit="10" points="225.106,530.108 358.57,451.657 
	289.076,560.623 "/>
<path fill="#F9ED32" stroke="#F7941E" stroke-width="5" stroke-miterlimit="10" d="M366.518,405.195
	c0.115,3.404,0.35,6.812,0.576,10.217c0.115,1.428-0.576,4.175,1.388,3.847c1.04-0.331,2.194-1.978,3.353-2.419
	c3.582-1.207,6.123,0.331,9.471,1.211c2.431,0.659,5.433,0.987,8.086,0.659c8.435-0.883,11.547-11.099,11.203-17.905
	c-4.389,2.746-10.742,9.229-16.283,5.713c-2.653-1.646-4.045-3.847-7.157-4.726c-2.08-0.549-5.66-0.987-7.854-0.328
	c-2.195,0.771-2.771,2.087-2.771,4.063"/>
<linearGradient id="SVGID_47_" gradientUnits="userSpaceOnUse" x1="470.7813" y1="508.1113" x2="537.332" y2="508.1113" gradientTransform="matrix(1 0 0 1 -249.1602 70.4395)">
	<stop  offset="0.3576" style="stop-color:#FFF200"/>
	<stop  offset="0.6121" style="stop-color:#FBB040"/>
</linearGradient>
<polygon fill="url(#SVGID_47_)" stroke="#F7941E" stroke-width="5" stroke-miterlimit="10" points="288.172,564.372 222.72,534.013 
	221.621,591.591 288.172,623.088 "/>
<linearGradient id="SVGID_48_" gradientUnits="userSpaceOnUse" x1="621.0625" y1="529.0898" x2="707.9043" y2="529.0898" gradientTransform="matrix(1 0 0 1 -249.1602 70.4395)">
	<stop  offset="0.0667" style="stop-color:#FFF200"/>
	<stop  offset="0.4242" style="stop-color:#FBB040"/>
</linearGradient>
<polygon fill="url(#SVGID_48_)" stroke="#F7941E" stroke-width="5" stroke-miterlimit="10" points="458.195,561.486 
	458.744,627.874 372.332,637.573 371.902,571.169 "/>
<polygon fill="none" stroke="#616264" stroke-width="5" stroke-miterlimit="10" points="525.387,533.227 527.037,597.086 
	463.744,625.874 463.195,556.781 "/>
<linearGradient id="SVGID_49_" gradientUnits="userSpaceOnUse" x1="542.332" y1="474.9912" x2="617.2891" y2="474.9912" gradientTransform="matrix(1 0 0 1 -249.1602 70.4395)">
	<stop  offset="0.3636" style="stop-color:#FFFFFF"/>
	<stop  offset="0.7818" style="stop-color:#E0E1E2"/>
</linearGradient>
<polyline fill="url(#SVGID_49_)" stroke="#A38C7F" stroke-width="5" stroke-miterlimit="10" points="368.129,571.067 
	294.172,561.372 363.451,453.466 366.754,574.809 293.172,565.372 293.172,625.088 367.688,637.396 366.754,574.809 "/>
<linearGradient id="SVGID_50_" gradientUnits="userSpaceOnUse" x1="712.3555" y1="509.1113" x2="776.1973" y2="509.1113" gradientTransform="matrix(1 0 0 1 -249.1602 70.4395)">
	<stop  offset="0.2909" style="stop-color:#FFFFFF"/>
	<stop  offset="0.7818" style="stop-color:#E0E1E2"/>
</linearGradient>
<polygon fill="url(#SVGID_50_)" stroke="#A38C7F" stroke-width="5" stroke-miterlimit="10" points="463.744,625.874 
	463.195,556.781 525.387,533.227 527.037,597.086 "/>
<linearGradient id="SVGID_51_" gradientUnits="userSpaceOnUse" x1="625.0449" y1="432.3906" x2="771.2461" y2="432.3906" gradientTransform="matrix(1 0 0 1 -249.1602 70.4395)">
	<stop  offset="0.2909" style="stop-color:#FFFFFF"/>
	<stop  offset="0.7818" style="stop-color:#E0E1E2"/>
</linearGradient>
<polygon fill="url(#SVGID_51_)" stroke="#A38C7F" stroke-width="5" stroke-miterlimit="10" points="375.885,452.88 461.195,552.781 
	522.086,529.515 "/>
<line fill="none" stroke="#616264" stroke-width="5" stroke-miterlimit="10" x1="367.688" y1="417.843" x2="367.688" y2="446.109"/>
<g>
	
		<linearGradient id="SVGID_52_" gradientUnits="userSpaceOnUse" x1="618.8848" y1="300.0142" x2="747.75" y2="300.0142" gradientTransform="matrix(0.6791 0.0404 -0.0175 0.9991 571.6554 -30.7929)">
		<stop  offset="0.2061" style="stop-color:#F9ED32"/>
		<stop  offset="0.5697" style="stop-color:#F7941E"/>
	</linearGradient>
	<path fill="url(#SVGID_52_)" d="M1072.178,414.746l-43.344-249.987l-44.219,247.653c29.787,17.92,56.805,22.701,86.744,3.668"/>
	<g>
		<path fill="#F47929" d="M1075.074,413.973c-7.762-44.779-15.521-89.56-23.291-134.337c-6.685-38.551-13.367-77.104-20.053-115.652
			c-0.474-2.728-5.451-1.15-5.834,0.99c-8.015,44.875-16.025,89.75-24.037,134.625c-6.729,37.675-13.455,75.353-20.183,113.029
			c-0.102,0.547,0.232,1.188,0.707,1.474c14.185,8.43,29.467,15.196,46.129,16.229c16.093,1.004,31.285-4.518,44.771-12.904
			c3.33-2.069-1.453-4.188-3.854-2.69c-13.313,8.282-27.949,12.659-43.664,10.934c-6.89-0.758-13.547-2.828-19.979-5.34
			c-3.674-1.439-7.236-3.156-10.736-4.971c-0.848-0.437-7.271-4.449-7.492-3.205c0.785-4.396,1.567-8.797,2.354-13.189
			c4.502-25.213,9.006-50.424,13.509-75.635c9.265-51.896,18.526-103.78,27.796-155.675c0.187-1.033,0.365-2.068,0.555-3.104
			c-1.944,0.33-3.892,0.659-5.836,0.988c7.765,44.777,15.528,89.56,23.293,134.339c6.685,38.551,13.367,77.103,20.052,115.647
			C1069.752,418.246,1075.561,416.768,1075.074,413.973L1075.074,413.973z"/>
	</g>
</g>
<linearGradient id="SVGID_53_" gradientUnits="userSpaceOnUse" x1="1014.0078" y1="-172.1895" x2="1106.8643" y2="-172.1895" gradientTransform="matrix(1 0 0 -1 -222.6602 355.04)">
	<stop  offset="0" style="stop-color:#F7B3D1"/>
	<stop  offset="0.1167" style="stop-color:#EBA0C7"/>
	<stop  offset="0.3706" style="stop-color:#D67DB5"/>
	<stop  offset="0.6099" style="stop-color:#C664A8"/>
	<stop  offset="0.8264" style="stop-color:#BC54A0"/>
	<stop  offset="1" style="stop-color:#B94F9D"/>
</linearGradient>
<polyline fill="url(#SVGID_53_)" stroke="#A53794" stroke-width="5" stroke-miterlimit="10" points="794.438,581.62 
	884.204,572.854 791.348,472.839 795.412,581.62 "/>
<linearGradient id="SVGID_54_" gradientUnits="userSpaceOnUse" x1="901.7949" y1="452.3066" x2="1031.6045" y2="452.3066" gradientTransform="matrix(1 0 0 1 -249.1602 70.4395)">
	<stop  offset="0" style="stop-color:#F7B3D1"/>
	<stop  offset="0.1167" style="stop-color:#EBA0C7"/>
	<stop  offset="0.3706" style="stop-color:#D67DB5"/>
	<stop  offset="0.6099" style="stop-color:#C664A8"/>
	<stop  offset="0.8264" style="stop-color:#BC54A0"/>
	<stop  offset="1" style="stop-color:#B94F9D"/>
</linearGradient>
<polygon fill="url(#SVGID_54_)" stroke="#A53794" stroke-width="5" stroke-miterlimit="10" points="652.635,544.445 
	782.444,473.418 714.854,572.074 "/>
<linearGradient id="SVGID_55_" gradientUnits="userSpaceOnUse" x1="898.4053" y1="517.8633" x2="963.1357" y2="517.8633" gradientTransform="matrix(1 0 0 1 -249.1602 70.4395)">
	<stop  offset="0" style="stop-color:#F7B3D1"/>
	<stop  offset="0.1167" style="stop-color:#EBA0C7"/>
	<stop  offset="0.3706" style="stop-color:#D67DB5"/>
	<stop  offset="0.6099" style="stop-color:#C664A8"/>
	<stop  offset="0.8264" style="stop-color:#BC54A0"/>
	<stop  offset="1" style="stop-color:#B94F9D"/>
</linearGradient>
<polygon fill="url(#SVGID_55_)" stroke="#A53794" stroke-width="5" stroke-miterlimit="10" points="713.976,575.467 
	650.314,547.979 649.245,600.11 713.976,628.627 "/>
<linearGradient id="SVGID_56_" gradientUnits="userSpaceOnUse" x1="1044.5723" y1="536.8584" x2="1129.0342" y2="536.8584" gradientTransform="matrix(1 0 0 1 -249.1602 70.4395)">
	<stop  offset="0" style="stop-color:#F7B3D1"/>
	<stop  offset="0.1167" style="stop-color:#EBA0C7"/>
	<stop  offset="0.3706" style="stop-color:#D67DB5"/>
	<stop  offset="0.6099" style="stop-color:#C664A8"/>
	<stop  offset="0.8264" style="stop-color:#BC54A0"/>
	<stop  offset="1" style="stop-color:#B94F9D"/>
</linearGradient>
<polygon fill="url(#SVGID_56_)" stroke="#A53794" stroke-width="5" stroke-miterlimit="10" points="879.341,572.854 879.874,632.96 
	795.83,641.741 795.412,581.62 "/>
<polygon fill="none" stroke="#616264" stroke-width="5" stroke-miterlimit="10" points="944.693,547.271 946.298,605.087 
	884.738,631.149 884.204,568.595 "/>
<linearGradient id="SVGID_57_" gradientUnits="userSpaceOnUse" x1="967.9971" y1="487.8789" x2="1040.9023" y2="487.8789" gradientTransform="matrix(1 0 0 1 -249.1602 70.4395)">
	<stop  offset="0.3636" style="stop-color:#FFFFFF"/>
	<stop  offset="0.7818" style="stop-color:#E0E1E2"/>
</linearGradient>
<polyline fill="url(#SVGID_57_)" stroke="#A38C7F" stroke-width="5" stroke-miterlimit="10" points="791.742,581.528 
	719.811,572.75 787.191,475.056 790.405,584.917 718.837,576.372 718.837,630.438 791.311,641.582 790.405,584.917 "/>
<linearGradient id="SVGID_58_" gradientUnits="userSpaceOnUse" x1="1010.8887" y1="-79.8047" x2="1044.0557" y2="-79.8047" gradientTransform="matrix(1 0 0 -1 -222.6602 355.04)">
	<stop  offset="0" style="stop-color:#F7B3D1"/>
	<stop  offset="0.1167" style="stop-color:#EBA0C7"/>
	<stop  offset="0.3706" style="stop-color:#D67DB5"/>
	<stop  offset="0.6099" style="stop-color:#C664A8"/>
	<stop  offset="0.8264" style="stop-color:#BC54A0"/>
	<stop  offset="1" style="stop-color:#B94F9D"/>
</linearGradient>
<path fill="url(#SVGID_58_)" stroke="#A53794" stroke-width="5" stroke-miterlimit="10" d="M788.229,430.452
	c0.11,3.085,0.338,6.169,0.561,9.252c0.11,1.292-0.561,3.778,1.348,3.482c1.013-0.301,2.138-1.79,3.262-2.19
	c3.482-1.093,5.953,0.3,9.212,1.097c2.361,0.599,5.281,0.894,7.864,0.599c8.2-0.801,11.23-10.051,10.896-16.213
	c-4.271,2.485-10.447,8.356-15.836,5.175c-2.584-1.492-3.937-3.483-6.965-4.28c-2.023-0.497-5.504-0.895-7.64-0.296
	c-2.136,0.697-2.694,1.888-2.694,3.678"/>
<line fill="none" stroke="#616264" stroke-width="5" stroke-miterlimit="10" x1="791.311" y1="444.166" x2="791.311" y2="469.759"/>
<linearGradient id="SVGID_59_" gradientUnits="userSpaceOnUse" x1="1317.8096" y1="436.8184" x2="1396.0332" y2="436.8184" gradientTransform="matrix(1 0 0 1 -249.1602 70.4395)">
	<stop  offset="0.2303" style="stop-color:#8DC63F"/>
	<stop  offset="0.7636" style="stop-color:#00A14B"/>
</linearGradient>
<polyline fill="url(#SVGID_59_)" stroke="#3C924B" stroke-width="5" stroke-miterlimit="10" points="1068.649,559.911 
	1146.873,548.672 1070.656,454.604 1070.974,557.181 "/>
<linearGradient id="SVGID_60_" gradientUnits="userSpaceOnUse" x1="1186.4199" y1="433.5703" x2="1305.0889" y2="433.5703" gradientTransform="matrix(1 0 0 1 -249.1602 70.4395)">
	<stop  offset="0.2303" style="stop-color:#8DC63F"/>
	<stop  offset="0.7636" style="stop-color:#00A14B"/>
</linearGradient>
<polygon fill="url(#SVGID_60_)" stroke="#3C924B" stroke-width="5" stroke-miterlimit="10" points="937.26,523.013 
	1055.929,456.687 991.998,551.333 "/>
<linearGradient id="SVGID_61_" gradientUnits="userSpaceOnUse" x1="1183.2861" y1="495.7363" x2="1241.2441" y2="495.7363" gradientTransform="matrix(1 0 0 1 -249.1602 70.4395)">
	<stop  offset="0.2303" style="stop-color:#8DC63F"/>
	<stop  offset="0.7636" style="stop-color:#00A14B"/>
</linearGradient>
<polygon fill="url(#SVGID_61_)" stroke="#3C924B" stroke-width="5" stroke-miterlimit="10" points="992.084,553.803 
	935.118,526.521 934.126,578.264 992.084,605.831 "/>
<linearGradient id="SVGID_62_" gradientUnits="userSpaceOnUse" x1="1320.3467" y1="512.6113" x2="1395.5283" y2="512.6113" gradientTransform="matrix(1 0 0 1 -249.1602 70.4395)">
	<stop  offset="0.2303" style="stop-color:#8DC63F"/>
	<stop  offset="0.7636" style="stop-color:#00A14B"/>
</linearGradient>
<polygon fill="url(#SVGID_62_)" stroke="#3C924B" stroke-width="5" stroke-miterlimit="10" points="1146.143,549.209 
	1146.368,609.074 1071.731,616.892 1071.187,559.911 "/>
<linearGradient id="SVGID_63_" gradientUnits="userSpaceOnUse" x1="1244.1602" y1="462.3125" x2="1318.0488" y2="462.3125" gradientTransform="matrix(1 0 0 1 -249.1602 70.4395)">
	<stop  offset="0.3636" style="stop-color:#FFFFFF"/>
	<stop  offset="0.7818" style="stop-color:#E0E1E2"/>
</linearGradient>
<polyline fill="url(#SVGID_63_)" stroke="#A38C7F" stroke-width="5" stroke-miterlimit="10" points="1067.5,559.5 998.5,550 
	1066.92,448.111 1067.5,559.5 997,551.5 995,607.5 1068.889,617.392 1068.051,561.985 "/>
<linearGradient id="SVGID_64_" gradientUnits="userSpaceOnUse" x1="1326.9922" y1="431.6797" x2="1453.2979" y2="431.6797" gradientTransform="matrix(1 0 0 1 -249.1602 70.4395)">
	<stop  offset="0.2909" style="stop-color:#FFFFFF"/>
	<stop  offset="0.7818" style="stop-color:#E0E1E2"/>
</linearGradient>
<polygon fill="url(#SVGID_64_)" stroke="#A38C7F" stroke-width="5" stroke-miterlimit="10" points="1077.832,457.257 
	1151.217,546.982 1204.138,521.58 "/>
<linearGradient id="SVGID_65_" gradientUnits="userSpaceOnUse" x1="1399.7363" y1="496.2715" x2="1455.624" y2="496.2715" gradientTransform="matrix(1 0 0 1 -249.1602 70.4395)">
	<stop  offset="0.2909" style="stop-color:#FFFFFF"/>
	<stop  offset="0.7818" style="stop-color:#E0E1E2"/>
</linearGradient>
<polygon fill="url(#SVGID_65_)" stroke="#A38C7F" stroke-width="5" stroke-miterlimit="10" points="1151.069,608.338 
	1150.576,548.249 1206.464,525.083 1205.948,579.469 "/>
<line fill="none" stroke="#616264" stroke-width="5" stroke-miterlimit="10" x1="1066.92" y1="422.712" x2="1066.92" y2="448.111"/>
<linearGradient id="SVGID_66_" gradientUnits="userSpaceOnUse" x1="1313.9531" y1="342.2388" x2="1344.5928" y2="342.2388" gradientTransform="matrix(1 0 0 1 -249.1602 70.4395)">
	<stop  offset="0.2303" style="stop-color:#8DC63F"/>
	<stop  offset="0.7636" style="stop-color:#00A14B"/>
</linearGradient>
<path fill="url(#SVGID_66_)" stroke="#3C924B" stroke-width="5" stroke-miterlimit="10" d="M1064.793,408.323
	c0.098,3.061,0.306,6.12,0.512,9.174c0.104,1.29-0.512,3.754,1.243,3.461c0.936-0.295,1.975-1.777,3.011-2.171
	c3.218-1.085,5.503,0.29,8.511,1.083c2.181,0.595,4.879,0.887,7.268,0.595c7.581-0.788,10.383-9.966,10.072-16.091
	c-3.944,2.468-9.653,8.288-14.637,5.132c-2.388-1.482-3.632-3.454-6.435-4.245c-1.868-0.495-5.087-0.887-7.058-0.297
	c-1.973,0.693-2.487,1.878-2.487,3.657"/>
<linearGradient id="SVGID_67_" gradientUnits="userSpaceOnUse" x1="1048.4453" y1="449.3096" x2="1190.6436" y2="449.3096" gradientTransform="matrix(1 0 0 1 -249.1602 70.4395)">
	<stop  offset="0.2909" style="stop-color:#FFFFFF"/>
	<stop  offset="0.7818" style="stop-color:#E0E1E2"/>
</linearGradient>
<polygon fill="url(#SVGID_67_)" stroke="#A38C7F" stroke-width="5" stroke-miterlimit="10" points="799.285,474.524 882.26,564.974 
	941.483,543.907 "/>
<linearGradient id="SVGID_68_" gradientUnits="userSpaceOnUse" x1="1133.3643" y1="518.7705" x2="1195.458" y2="518.7705" gradientTransform="matrix(1 0 0 1 -249.1602 70.4395)">
	<stop  offset="0.2909" style="stop-color:#FFFFFF"/>
	<stop  offset="0.7818" style="stop-color:#E0E1E2"/>
</linearGradient>
<polygon fill="url(#SVGID_68_)" stroke="#A38C7F" stroke-width="5" stroke-miterlimit="10" points="884.738,631.149 
	884.204,568.595 944.693,547.271 946.298,605.087 "/>
</svg>
