<?xml version="1.0" encoding="utf-8"?>
<!-- Generator: Adobe Illustrator 15.0.0, SVG Export Plug-In  -->
<!DOCTYPE svg PUBLIC "-//W3C//DTD SVG 1.1//EN" "http://www.w3.org/Graphics/SVG/1.1/DTD/svg11.dtd" [
	<!ENTITY ns_flows "http://ns.adobe.com/Flows/1.0/">
]>
<svg version="1.1"
	 xmlns="http://www.w3.org/2000/svg" xmlns:xlink="http://www.w3.org/1999/xlink" xmlns:a="http://ns.adobe.com/AdobeSVGViewerExtensions/3.0/"
	 x="0px" y="0px" width="288px" height="288px" viewBox="0 0 288 288" enable-background="new 0 0 288 288" xml:space="preserve">
<defs>
</defs>
<rect display="none" fill="#FFFFFF" width="288" height="288"/>
<linearGradient id="SVGID_1_" gradientUnits="userSpaceOnUse" x1="342.2178" y1="546.207" x2="342.5464" y2="520.2496" gradientTransform="matrix(1 0 0 1 -307.3203 -480.9199)">
	<stop  offset="0" style="stop-color:#010101"/>
	<stop  offset="0.0851" style="stop-color:#220D0D"/>
	<stop  offset="0.2206" style="stop-color:#3D1312"/>
	<stop  offset="0.3893" style="stop-color:#600C0D"/>
	<stop  offset="0.5848" style="stop-color:#861619"/>
	<stop  offset="0.7998" style="stop-color:#B72025"/>
	<stop  offset="1" style="stop-color:#EC2227"/>
</linearGradient>
<ellipse fill="url(#SVGID_1_)" cx="35.077" cy="51.076" rx="35.076" ry="15.361"/>
<linearGradient id="SVGID_2_" gradientUnits="userSpaceOnUse" x1="341.75" y1="546.3721" x2="342.0276" y2="524.4402" gradientTransform="matrix(1 0 0 1 -307.3203 -480.9199)">
	<stop  offset="0" style="stop-color:#010101"/>
	<stop  offset="0.1326" style="stop-color:#1E0D0D"/>
	<stop  offset="0.322" style="stop-color:#381312"/>
	<stop  offset="0.5456" style="stop-color:#54100F"/>
	<stop  offset="0.7933" style="stop-color:#761113"/>
	<stop  offset="1" style="stop-color:#941A1D"/>
</linearGradient>
<path fill="url(#SVGID_2_)" d="M68.346,53.623c0,7.168-16.262,12.814-32.63,12.814c-16.368,0-34.894-6.304-34.894-13.471
	c0-7.168,18.526-12.486,34.894-12.486C52.084,40.479,68.346,46.455,68.346,53.623z"/>
<radialGradient id="SVGID_3_" cx="348.3213" cy="515.4209" r="45.2769" gradientTransform="matrix(1 0 0 1 -307.3203 -480.9199)" gradientUnits="userSpaceOnUse">
	<stop  offset="0.0121" style="stop-color:#424143"/>
	<stop  offset="0.0848" style="stop-color:#6E6F72"/>
	<stop  offset="0.1143" style="stop-color:#636467"/>
	<stop  offset="0.2099" style="stop-color:#454647"/>
	<stop  offset="0.3144" style="stop-color:#2B2B2D"/>
	<stop  offset="0.4295" style="stop-color:#181819"/>
	<stop  offset="0.5607" style="stop-color:#0C0C0D"/>
	<stop  offset="0.7217" style="stop-color:#030303"/>
	<stop  offset="1" style="stop-color:#010101"/>
</radialGradient>
<circle fill="url(#SVGID_3_)" cx="34.751" cy="41.107" r="20.75"/>
<linearGradient id="SVGID_4_" gradientUnits="userSpaceOnUse" x1="366.252" y1="483.0449" x2="353.2874" y2="498.3832" gradientTransform="matrix(1 0 0 1 -307.3203 -480.9199)">
	<stop  offset="0" style="stop-color:#F15B2B"/>
	<stop  offset="1" style="stop-color:#FCEE23"/>
</linearGradient>
<polygon fill="url(#SVGID_4_)" points="50.969,10.61 53.393,2.5 51.438,10.735 53.751,8.75 51.78,11.078 60.016,9.123 
	51.906,11.546 55.251,12.625 51.78,12.015 57.592,18.169 51.438,12.357 52.376,16.5 50.969,12.483 48.545,20.593 50.501,12.357 
	47.876,15 50.158,12.015 41.923,13.97 50.033,11.546 47.626,10.5 50.158,11.078 44.347,4.924 50.501,10.735 49.876,7.25 "/>
<linearGradient id="SVGID_5_" gradientUnits="userSpaceOnUse" x1="364.748" y1="492.2529" x2="346.9973" y2="513.2537" gradientTransform="matrix(1 0 0 1 -307.3203 -480.9199)">
	<stop  offset="0" style="stop-color:#BDBEC0"/>
	<stop  offset="0.1317" style="stop-color:#B3B5B6"/>
	<stop  offset="0.3702" style="stop-color:#999B9D"/>
	<stop  offset="0.6854" style="stop-color:#737577"/>
	<stop  offset="1" style="stop-color:#424143"/>
</linearGradient>
<path fill="url(#SVGID_5_)" d="M43.24,35.34c0,0,8.646-5.08,8.671-8.434c0.024-3.354-6.786-4.746-6.088-8.43
	c0.698-3.684,4.403-5.782,4.403-5.782l-0.441-0.897c0,0-6.288,3.644-5.529,6.892c0.759,3.248,4.097,5.508,4.635,8.308
	c0.539,2.799-6.978,6.21-6.978,6.21s-2.003-1.245-0.347,1.563C43.224,37.576,43.24,35.34,43.24,35.34z"/>
<linearGradient id="SVGID_6_" gradientUnits="userSpaceOnUse" x1="558.0654" y1="762.209" x2="558.394" y2="736.2502" gradientTransform="matrix(1 0 0 1 -307.3203 -480.9199)">
	<stop  offset="0" style="stop-color:#010101"/>
	<stop  offset="0.0851" style="stop-color:#220D0D"/>
	<stop  offset="0.2206" style="stop-color:#3D1312"/>
	<stop  offset="0.3893" style="stop-color:#600C0D"/>
	<stop  offset="0.5848" style="stop-color:#861619"/>
	<stop  offset="0.7998" style="stop-color:#B72025"/>
	<stop  offset="1" style="stop-color:#EC2227"/>
</linearGradient>
<ellipse fill="url(#SVGID_6_)" cx="250.925" cy="267.076" rx="35.076" ry="15.361"/>
<linearGradient id="SVGID_7_" gradientUnits="userSpaceOnUse" x1="557.5967" y1="762.3721" x2="557.8743" y2="740.4398" gradientTransform="matrix(1 0 0 1 -307.3203 -480.9199)">
	<stop  offset="0" style="stop-color:#010101"/>
	<stop  offset="0.1326" style="stop-color:#1E0D0D"/>
	<stop  offset="0.322" style="stop-color:#381312"/>
	<stop  offset="0.5456" style="stop-color:#54100F"/>
	<stop  offset="0.7933" style="stop-color:#761113"/>
	<stop  offset="1" style="stop-color:#941A1D"/>
</linearGradient>
<path fill="url(#SVGID_7_)" d="M284.192,269.623c0,7.168-16.262,12.814-32.629,12.814s-34.896-6.307-34.896-13.474
	c0-7.169,18.524-12.485,34.896-12.485C267.933,256.479,284.192,262.455,284.192,269.623z"/>
<radialGradient id="SVGID_8_" cx="564.1689" cy="731.4209" r="45.2769" gradientTransform="matrix(1 0 0 1 -307.3203 -480.9199)" gradientUnits="userSpaceOnUse">
	<stop  offset="0.0121" style="stop-color:#424143"/>
	<stop  offset="0.0848" style="stop-color:#6E6F72"/>
	<stop  offset="0.1143" style="stop-color:#636467"/>
	<stop  offset="0.2099" style="stop-color:#454647"/>
	<stop  offset="0.3144" style="stop-color:#2B2B2D"/>
	<stop  offset="0.4295" style="stop-color:#181819"/>
	<stop  offset="0.5607" style="stop-color:#0C0C0D"/>
	<stop  offset="0.7217" style="stop-color:#030303"/>
	<stop  offset="1" style="stop-color:#010101"/>
</radialGradient>
<circle fill="url(#SVGID_8_)" cx="250.599" cy="257.107" r="20.75"/>
<linearGradient id="SVGID_9_" gradientUnits="userSpaceOnUse" x1="582.0996" y1="699.0439" x2="569.1347" y2="714.3824" gradientTransform="matrix(1 0 0 1 -307.3203 -480.9199)">
	<stop  offset="0" style="stop-color:#F15B2B"/>
	<stop  offset="1" style="stop-color:#FCEE23"/>
</linearGradient>
<polygon fill="url(#SVGID_9_)" points="266.817,226.609 269.241,218.5 267.285,226.734 269.599,224.75 267.628,227.078 
	275.862,225.123 267.753,227.547 271.099,228.625 267.628,228.016 273.438,234.169 267.285,228.357 268.224,232.5 266.817,228.482 
	264.394,236.593 266.349,228.357 263.724,231 266.006,228.016 257.771,229.971 265.88,227.547 263.474,226.5 266.006,227.078 
	260.194,220.924 266.349,226.734 265.724,223.25 "/>
<linearGradient id="SVGID_10_" gradientUnits="userSpaceOnUse" x1="580.5947" y1="708.2529" x2="562.8444" y2="729.2533" gradientTransform="matrix(1 0 0 1 -307.3203 -480.9199)">
	<stop  offset="0" style="stop-color:#BDBEC0"/>
	<stop  offset="0.1317" style="stop-color:#B3B5B6"/>
	<stop  offset="0.3702" style="stop-color:#999B9D"/>
	<stop  offset="0.6854" style="stop-color:#737577"/>
	<stop  offset="1" style="stop-color:#424143"/>
</linearGradient>
<path fill="url(#SVGID_10_)" d="M259.088,251.34c0,0,8.646-5.08,8.671-8.434c0.024-3.354-6.785-4.746-6.088-8.432
	s4.402-5.781,4.402-5.781l-0.44-0.896c0,0-6.288,3.643-5.528,6.891c0.758,3.248,4.098,5.511,4.637,8.311
	c0.537,2.799-6.979,6.209-6.979,6.209s-2.004-1.244-0.348,1.563S259.088,251.34,259.088,251.34z"/>
<linearGradient id="SVGID_11_" gradientUnits="userSpaceOnUse" x1="342.2158" y1="618.3701" x2="342.5443" y2="592.4151" gradientTransform="matrix(1 0 0 1 -307.3203 -480.9199)">
	<stop  offset="0" style="stop-color:#010101"/>
	<stop  offset="0.0851" style="stop-color:#220D0D"/>
	<stop  offset="0.2206" style="stop-color:#3D1312"/>
	<stop  offset="0.3893" style="stop-color:#600C0D"/>
	<stop  offset="0.5848" style="stop-color:#861619"/>
	<stop  offset="0.7998" style="stop-color:#B72025"/>
	<stop  offset="1" style="stop-color:#EC2227"/>
</linearGradient>
<path fill="url(#SVGID_11_)" d="M70.151,123.24c0,2.87-1.81,5.57-4.95,7.86c-0.04,0.04-0.08,0.07-0.13,0.1
	c-2.09,1.51-4.75,2.85-7.86,3.95c-5.6,2-12.64,3.26-20.33,3.43c-0.48,0.01-0.97,0.02-1.46,0.02h-0.34c-6.97,0-13.47-0.89-18.93-2.43
	c-9.71-2.72-16.15-7.49-16.15-12.93c0-8.48,15.7-15.36,35.08-15.36c5.84,0,11.35,0.63,16.19,1.74c0.26,0.05,0.51,0.11,0.76,0.17
	C62.841,112.41,70.151,117.45,70.151,123.24z"/>
<linearGradient id="SVGID_12_" gradientUnits="userSpaceOnUse" x1="341.7471" y1="618.5352" x2="342.0246" y2="596.6096" gradientTransform="matrix(1 0 0 1 -307.3203 -480.9199)">
	<stop  offset="0" style="stop-color:#010101"/>
	<stop  offset="0.1326" style="stop-color:#1E0D0D"/>
	<stop  offset="0.322" style="stop-color:#381312"/>
	<stop  offset="0.5456" style="stop-color:#54100F"/>
	<stop  offset="0.7933" style="stop-color:#761113"/>
	<stop  offset="1" style="stop-color:#941A1D"/>
</linearGradient>
<path fill="url(#SVGID_12_)" d="M68.341,125.79c0,1.91-1.15,3.7-3.14,5.31c-0.04,0.04-0.08,0.07-0.13,0.1
	c-1.93,1.54-4.64,2.9-7.85,4.02c-5.69,2-12.96,3.25-20.34,3.36c-0.39,0.02-0.78,0.02-1.17,0.02h-0.29
	c-6.52-0.03-13.36-1.06-19.23-2.73c-8.79-2.5-15.37-6.47-15.37-10.74c0-7.16,18.53-12.48,34.89-12.48c3.81,0,7.62,0.32,11.21,0.91
	c0.57,0.09,1.13,0.19,1.69,0.3C59.671,115.96,68.341,120.55,68.341,125.79z"/>
<radialGradient id="SVGID_13_" cx="350.1914" cy="605.8477" r="28.9832" gradientTransform="matrix(1 0 0 1 -307.3203 -480.9199)" gradientUnits="userSpaceOnUse">
	<stop  offset="0.0121" style="stop-color:#424143"/>
	<stop  offset="0.0848" style="stop-color:#6E6F72"/>
	<stop  offset="0.1143" style="stop-color:#636467"/>
	<stop  offset="0.2099" style="stop-color:#454647"/>
	<stop  offset="0.3144" style="stop-color:#2B2B2D"/>
	<stop  offset="0.4295" style="stop-color:#181819"/>
	<stop  offset="0.5607" style="stop-color:#0C0C0D"/>
	<stop  offset="0.7217" style="stop-color:#030303"/>
	<stop  offset="1" style="stop-color:#010101"/>
</radialGradient>
<path fill="url(#SVGID_13_)" d="M57.221,135.22c-5.69,2-12.96,3.25-20.34,3.36c-0.39,0.02-0.78,0.02-1.17,0.02h-0.63
	c-6.97,0-13.47-0.89-18.93-2.43c0-0.1,0.02-0.2,0.04-0.3c1.33-10.17,10.03-18.01,20.56-18.01c5.17,0,9.9,1.89,13.53,5.03
	c1.12,0.96,2.14,2.04,3.03,3.22c1.97,2.6,3.34,5.68,3.9,9.04C57.221,135.17,57.221,135.19,57.221,135.22z"/>
<linearGradient id="SVGID_14_" gradientUnits="userSpaceOnUse" x1="368.252" y1="573.5459" x2="355.2881" y2="588.8833" gradientTransform="matrix(1 0 0 1 -307.3203 -480.9199)">
	<stop  offset="0" style="stop-color:#F15B2B"/>
	<stop  offset="1" style="stop-color:#FCEE23"/>
</linearGradient>
<polygon fill="url(#SVGID_14_)" points="52.969,101.11 55.393,93 53.438,101.235 55.751,99.25 53.78,101.578 62.016,99.623 
	53.906,102.046 57.251,103.125 53.78,102.515 59.592,108.669 53.438,102.857 54.376,107 52.969,102.983 50.545,111.093 
	52.501,102.857 49.876,105.5 52.158,102.515 43.923,104.47 52.033,102.046 49.626,101 52.158,101.578 46.347,95.424 52.501,101.235 
	51.876,97.75 "/>
<linearGradient id="SVGID_15_" gradientUnits="userSpaceOnUse" x1="366.748" y1="582.7529" x2="348.9973" y2="603.7537" gradientTransform="matrix(1 0 0 1 -307.3203 -480.9199)">
	<stop  offset="0" style="stop-color:#BDBEC0"/>
	<stop  offset="0.1317" style="stop-color:#B3B5B6"/>
	<stop  offset="0.3702" style="stop-color:#999B9D"/>
	<stop  offset="0.6854" style="stop-color:#737577"/>
	<stop  offset="1" style="stop-color:#424143"/>
</linearGradient>
<path fill="url(#SVGID_15_)" d="M45.24,125.84c0,0,8.646-5.08,8.671-8.434c0.024-3.354-6.786-4.746-6.088-8.43
	c0.698-3.684,4.403-5.782,4.403-5.782l-0.441-0.897c0,0-6.288,3.644-5.529,6.892c0.759,3.248,4.097,5.508,4.635,8.308
	c0.539,2.799-6.978,6.21-6.978,6.21s-2.003-1.245-0.347,1.563C45.224,128.076,45.24,125.84,45.24,125.84z"/>
<linearGradient id="SVGID_16_" gradientUnits="userSpaceOnUse" x1="558.0664" y1="690.3682" x2="558.395" y2="664.4148" gradientTransform="matrix(1 0 0 1 -307.3203 -480.9199)">
	<stop  offset="0" style="stop-color:#010101"/>
	<stop  offset="0.0851" style="stop-color:#220D0D"/>
	<stop  offset="0.2206" style="stop-color:#3D1312"/>
	<stop  offset="0.3893" style="stop-color:#600C0D"/>
	<stop  offset="0.5848" style="stop-color:#861619"/>
	<stop  offset="0.7998" style="stop-color:#B72025"/>
	<stop  offset="1" style="stop-color:#EC2227"/>
</linearGradient>
<path fill="url(#SVGID_16_)" d="M286.001,195.24c0,2.869-1.811,5.57-4.95,7.859c-0.04,0.041-0.079,0.068-0.13,0.101
	c-2.09,1.51-4.75,2.85-7.859,3.95c-5.602,2-12.641,3.26-20.33,3.43c-0.479,0.01-0.971,0.02-1.461,0.02h-0.34
	c-6.971,0-13.471-0.89-18.93-2.43c-9.711-2.72-16.15-7.49-16.15-12.93c0-8.48,15.7-15.36,35.08-15.36c5.84,0,11.35,0.63,16.189,1.74
	c0.26,0.05,0.51,0.11,0.76,0.17C278.69,184.41,286.001,189.45,286.001,195.24z"/>
<linearGradient id="SVGID_17_" gradientUnits="userSpaceOnUse" x1="557.5947" y1="690.5342" x2="557.8723" y2="668.6093" gradientTransform="matrix(1 0 0 1 -307.3203 -480.9199)">
	<stop  offset="0" style="stop-color:#010101"/>
	<stop  offset="0.1326" style="stop-color:#1E0D0D"/>
	<stop  offset="0.322" style="stop-color:#381312"/>
	<stop  offset="0.5456" style="stop-color:#54100F"/>
	<stop  offset="0.7933" style="stop-color:#761113"/>
	<stop  offset="1" style="stop-color:#941A1D"/>
</linearGradient>
<path fill="url(#SVGID_17_)" d="M284.19,197.79c0,1.91-1.15,3.7-3.142,5.31c-0.04,0.041-0.08,0.07-0.13,0.103
	c-1.932,1.54-4.643,2.897-7.852,4.021c-5.689,2-12.961,3.25-20.34,3.358c-0.391,0.021-0.781,0.021-1.17,0.021h-0.291
	c-6.52-0.028-13.357-1.061-19.229-2.729c-8.789-2.5-15.369-6.471-15.369-10.74c0-7.158,18.527-12.479,34.891-12.479
	c3.811,0,7.621,0.32,11.211,0.91c0.568,0.09,1.129,0.188,1.688,0.299C275.521,187.96,284.19,192.55,284.19,197.79z"/>
<radialGradient id="SVGID_18_" cx="566.042" cy="677.8477" r="28.982" gradientTransform="matrix(1 0 0 1 -307.3203 -480.9199)" gradientUnits="userSpaceOnUse">
	<stop  offset="0.0121" style="stop-color:#424143"/>
	<stop  offset="0.0848" style="stop-color:#6E6F72"/>
	<stop  offset="0.1143" style="stop-color:#636467"/>
	<stop  offset="0.2099" style="stop-color:#454647"/>
	<stop  offset="0.3144" style="stop-color:#2B2B2D"/>
	<stop  offset="0.4295" style="stop-color:#181819"/>
	<stop  offset="0.5607" style="stop-color:#0C0C0D"/>
	<stop  offset="0.7217" style="stop-color:#030303"/>
	<stop  offset="1" style="stop-color:#010101"/>
</radialGradient>
<path fill="url(#SVGID_18_)" d="M273.071,207.221c-5.691,2-12.961,3.25-20.342,3.359c-0.391,0.02-0.779,0.02-1.17,0.02h-0.629
	c-6.973,0-13.473-0.89-18.932-2.43c0-0.1,0.021-0.199,0.039-0.3c1.33-10.17,10.029-18.011,20.563-18.011
	c5.17,0,9.898,1.891,13.527,5.031c1.121,0.959,2.143,2.039,3.031,3.219c1.969,2.601,3.34,5.681,3.898,9.041
	C273.071,207.17,273.071,207.189,273.071,207.221z"/>
<linearGradient id="SVGID_19_" gradientUnits="userSpaceOnUse" x1="584.1025" y1="645.5459" x2="571.137" y2="660.8855" gradientTransform="matrix(1 0 0 1 -307.3203 -480.9199)">
	<stop  offset="0" style="stop-color:#F15B2B"/>
	<stop  offset="1" style="stop-color:#FCEE23"/>
</linearGradient>
<polygon fill="url(#SVGID_19_)" points="268.819,173.109 271.243,165 269.287,173.234 271.601,171.25 269.63,173.578 
	277.865,171.623 269.755,174.047 273.101,175.125 269.63,174.516 275.44,180.669 269.287,174.857 270.226,179 268.819,174.982 
	266.396,183.093 268.351,174.857 265.726,177.5 268.008,174.516 259.772,176.471 267.882,174.047 265.476,173 268.008,173.578 
	262.196,167.424 268.351,173.234 267.726,169.75 "/>
<linearGradient id="SVGID_20_" gradientUnits="userSpaceOnUse" x1="582.5957" y1="654.7529" x2="564.8453" y2="675.7534" gradientTransform="matrix(1 0 0 1 -307.3203 -480.9199)">
	<stop  offset="0" style="stop-color:#BDBEC0"/>
	<stop  offset="0.1317" style="stop-color:#B3B5B6"/>
	<stop  offset="0.3702" style="stop-color:#999B9D"/>
	<stop  offset="0.6854" style="stop-color:#737577"/>
	<stop  offset="1" style="stop-color:#424143"/>
</linearGradient>
<path fill="url(#SVGID_20_)" d="M261.09,197.84c0,0,8.646-5.08,8.671-8.434c0.024-3.354-6.785-4.746-6.088-8.432
	s4.402-5.781,4.402-5.781l-0.44-0.896c0,0-6.288,3.643-5.528,6.891c0.758,3.248,4.098,5.511,4.637,8.311
	c0.537,2.799-6.979,6.209-6.979,6.209s-2.004-1.244-0.348,1.563S261.09,197.84,261.09,197.84z"/>
<linearGradient id="SVGID_21_" gradientUnits="userSpaceOnUse" x1="414.3018" y1="618.1689" x2="414.6304" y2="592.2053" gradientTransform="matrix(1 0 0 1 -307.3203 -480.9199)">
	<stop  offset="0" style="stop-color:#010101"/>
	<stop  offset="0.0851" style="stop-color:#220D0D"/>
	<stop  offset="0.2206" style="stop-color:#3D1312"/>
	<stop  offset="0.3893" style="stop-color:#600C0D"/>
	<stop  offset="0.5848" style="stop-color:#861619"/>
	<stop  offset="0.7998" style="stop-color:#B72025"/>
	<stop  offset="1" style="stop-color:#EC2227"/>
</linearGradient>
<path fill="url(#SVGID_21_)" d="M142.241,123.03c0,2.92-1.86,5.65-5.08,7.97c-0.02,0.01-0.04,0.03-0.061,0.04
	c-3.09,2.21-7.41,4.05-12.56,5.34c-0.86,0.22-1.75,0.42-2.66,0.6c-0.01,0.01-0.02,0.01-0.04,0.01c-3.95,0.8-8.3,1.29-12.88,1.39
	c-0.38,0.02-0.77,0.02-1.16,0.02h-0.64c-4.56,0-8.93-0.38-12.93-1.08c-12.97-2.25-22.15-7.8-22.15-14.29
	c0-8.48,15.71-15.36,35.08-15.36C126.53,107.67,142.241,114.55,142.241,123.03z"/>
<linearGradient id="SVGID_22_" gradientUnits="userSpaceOnUse" x1="413.832" y1="618.3359" x2="414.1097" y2="596.4019" gradientTransform="matrix(1 0 0 1 -307.3203 -480.9199)">
	<stop  offset="0" style="stop-color:#010101"/>
	<stop  offset="0.1326" style="stop-color:#1E0D0D"/>
	<stop  offset="0.322" style="stop-color:#381312"/>
	<stop  offset="0.5456" style="stop-color:#54100F"/>
	<stop  offset="0.7933" style="stop-color:#761113"/>
	<stop  offset="1" style="stop-color:#941A1D"/>
</linearGradient>
<path fill="url(#SVGID_22_)" d="M140.431,125.58c0,1.94-1.199,3.78-3.27,5.42c-0.02,0.01-0.04,0.03-0.061,0.04
	c-2.83,2.23-7.279,4.09-12.529,5.38c-0.86,0.22-1.74,0.41-2.65,0.59c-0.02,0.01-0.04,0.01-0.06,0.01c-4.04,0.82-8.45,1.3-12.9,1.36
	c-0.38,0.02-0.77,0.02-1.16,0.02h-0.3c-4.33-0.02-8.81-0.48-13.05-1.28c-11.69-2.2-21.55-6.97-21.55-12.19
	c0-7.17,18.53-12.49,34.9-12.49C124.171,112.44,140.431,118.41,140.431,125.58z"/>
<radialGradient id="SVGID_23_" cx="423.8193" cy="620.4209" r="13.9375" gradientTransform="matrix(1 0 0 1 -307.3203 -480.9199)" gradientUnits="userSpaceOnUse">
	<stop  offset="0.0121" style="stop-color:#424143"/>
	<stop  offset="0.0848" style="stop-color:#6E6F72"/>
	<stop  offset="0.1143" style="stop-color:#636467"/>
	<stop  offset="0.2099" style="stop-color:#454647"/>
	<stop  offset="0.3144" style="stop-color:#2B2B2D"/>
	<stop  offset="0.4295" style="stop-color:#181819"/>
	<stop  offset="0.5607" style="stop-color:#0C0C0D"/>
	<stop  offset="0.7217" style="stop-color:#030303"/>
	<stop  offset="1" style="stop-color:#010101"/>
</radialGradient>
<path fill="url(#SVGID_23_)" d="M121.921,137.01c-0.02,0.01-0.04,0.01-0.06,0.01c-4.04,0.82-8.45,1.3-12.9,1.36
	c-0.38,0.02-0.77,0.02-1.16,0.02h-0.64c-4.56,0-8.93-0.38-12.93-1.08c0.07-0.07,0.14-0.14,0.22-0.2c3.66-3.27,8.5-5.26,13.8-5.26
	c5.17,0,9.9,1.89,13.53,5.03c0.04,0.02,0.07,0.05,0.1,0.09C121.901,136.98,121.911,136.99,121.921,137.01z"/>
<linearGradient id="SVGID_24_" gradientUnits="userSpaceOnUse" x1="439.752" y1="594.5449" x2="426.7864" y2="609.8845" gradientTransform="matrix(1 0 0 1 -307.3203 -480.9199)">
	<stop  offset="0" style="stop-color:#F15B2B"/>
	<stop  offset="1" style="stop-color:#FCEE23"/>
</linearGradient>
<polygon fill="url(#SVGID_24_)" points="124.469,122.11 126.894,114 124.938,122.235 127.251,120.25 125.28,122.578 
	133.517,120.623 125.405,123.046 128.751,124.125 125.28,123.515 131.092,129.669 124.938,123.857 125.876,128 124.469,123.983 
	122.045,132.093 124.001,123.857 121.376,126.5 123.658,123.515 115.423,125.47 123.533,123.046 121.126,122 123.658,122.578 
	117.847,116.424 124.001,122.235 123.376,118.75 "/>
<linearGradient id="SVGID_25_" gradientUnits="userSpaceOnUse" x1="435.4971" y1="604.959" x2="426.7799" y2="615.2722" gradientTransform="matrix(1 0 0 1 -307.3203 -480.9199)">
	<stop  offset="0" style="stop-color:#BDBEC0"/>
	<stop  offset="0.1317" style="stop-color:#B3B5B6"/>
	<stop  offset="0.3702" style="stop-color:#999B9D"/>
	<stop  offset="0.6854" style="stop-color:#737577"/>
	<stop  offset="1" style="stop-color:#424143"/>
</linearGradient>
<path fill="url(#SVGID_25_)" d="M124.571,136.42c-0.86,0.22-1.74,0.41-2.65,0.59c-0.02,0.01-0.04,0.01-0.06,0.01
	c-0.01-0.01-0.02-0.02-0.02-0.03c-0.02-0.03-0.04-0.06-0.06-0.1c-1.15-2.12-3.42-4.09-4.02-6.7c-0.76-3.25,5.52-6.89,5.52-6.89
	l0.451,0.89c0,0-3.71,2.1-4.411,5.79c-0.54,2.85,3.41,4.32,5.22,6.4C124.551,136.4,124.562,136.41,124.571,136.42z"/>
<linearGradient id="SVGID_26_" gradientUnits="userSpaceOnUse" x1="486.3008" y1="690.1699" x2="486.6295" y2="664.2055" gradientTransform="matrix(1 0 0 1 -307.3203 -480.9199)">
	<stop  offset="0" style="stop-color:#010101"/>
	<stop  offset="0.0851" style="stop-color:#220D0D"/>
	<stop  offset="0.2206" style="stop-color:#3D1312"/>
	<stop  offset="0.3893" style="stop-color:#600C0D"/>
	<stop  offset="0.5848" style="stop-color:#861619"/>
	<stop  offset="0.7998" style="stop-color:#B72025"/>
	<stop  offset="1" style="stop-color:#EC2227"/>
</linearGradient>
<path fill="url(#SVGID_26_)" d="M214.241,195.029c0,2.921-1.86,5.65-5.08,7.971c-0.02,0.01-0.04,0.029-0.061,0.04
	c-3.092,2.21-7.41,4.05-12.562,5.34c-0.858,0.22-1.75,0.42-2.66,0.601c-0.01,0.012-0.021,0.012-0.04,0.012
	c-3.947,0.8-8.3,1.287-12.88,1.39c-0.38,0.021-0.771,0.021-1.16,0.021h-0.64c-4.563,0-8.932-0.381-12.932-1.079
	c-12.971-2.25-22.148-7.802-22.148-14.291c0-8.479,15.71-15.359,35.08-15.359C198.53,179.67,214.241,186.55,214.241,195.029z"/>
<linearGradient id="SVGID_27_" gradientUnits="userSpaceOnUse" x1="485.832" y1="690.333" x2="486.1097" y2="668.4017" gradientTransform="matrix(1 0 0 1 -307.3203 -480.9199)">
	<stop  offset="0" style="stop-color:#010101"/>
	<stop  offset="0.1326" style="stop-color:#1E0D0D"/>
	<stop  offset="0.322" style="stop-color:#381312"/>
	<stop  offset="0.5456" style="stop-color:#54100F"/>
	<stop  offset="0.7933" style="stop-color:#761113"/>
	<stop  offset="1" style="stop-color:#941A1D"/>
</linearGradient>
<path fill="url(#SVGID_27_)" d="M212.431,197.58c0,1.939-1.199,3.779-3.27,5.42c-0.02,0.01-0.04,0.029-0.061,0.04
	c-2.83,2.229-7.279,4.09-12.529,5.38c-0.86,0.221-1.74,0.41-2.65,0.59c-0.02,0.01-0.04,0.01-0.061,0.01
	c-4.039,0.82-8.449,1.301-12.899,1.36c-0.38,0.021-0.771,0.021-1.16,0.021h-0.3c-4.33-0.021-8.811-0.479-13.05-1.278
	c-11.69-2.2-21.55-6.972-21.55-12.188c0-7.172,18.527-12.49,34.897-12.49S212.431,190.41,212.431,197.58z"/>
<radialGradient id="SVGID_28_" cx="495.8193" cy="692.4199" r="13.9397" gradientTransform="matrix(1 0 0 1 -307.3203 -480.9199)" gradientUnits="userSpaceOnUse">
	<stop  offset="0.0121" style="stop-color:#424143"/>
	<stop  offset="0.0848" style="stop-color:#6E6F72"/>
	<stop  offset="0.1143" style="stop-color:#636467"/>
	<stop  offset="0.2099" style="stop-color:#454647"/>
	<stop  offset="0.3144" style="stop-color:#2B2B2D"/>
	<stop  offset="0.4295" style="stop-color:#181819"/>
	<stop  offset="0.5607" style="stop-color:#0C0C0D"/>
	<stop  offset="0.7217" style="stop-color:#030303"/>
	<stop  offset="1" style="stop-color:#010101"/>
</radialGradient>
<path fill="url(#SVGID_28_)" d="M193.921,209.01c-0.02,0.01-0.04,0.01-0.061,0.01c-4.039,0.82-8.449,1.301-12.899,1.36
	c-0.38,0.021-0.771,0.021-1.16,0.021h-0.64c-4.561,0-8.93-0.381-12.93-1.08c0.067-0.068,0.14-0.141,0.22-0.198
	c3.659-3.271,8.5-5.263,13.8-5.263c5.17,0,9.9,1.893,13.529,5.031c0.041,0.021,0.07,0.049,0.101,0.09
	C193.901,208.98,193.911,208.99,193.921,209.01z"/>
<linearGradient id="SVGID_29_" gradientUnits="userSpaceOnUse" x1="511.752" y1="666.5459" x2="498.7875" y2="681.884" gradientTransform="matrix(1 0 0 1 -307.3203 -480.9199)">
	<stop  offset="0" style="stop-color:#F15B2B"/>
	<stop  offset="1" style="stop-color:#FCEE23"/>
</linearGradient>
<polygon fill="url(#SVGID_29_)" points="196.47,194.109 198.894,186 196.938,194.234 199.251,192.25 197.28,194.578 
	205.517,192.623 197.405,195.047 200.751,196.125 197.28,195.516 203.092,201.669 196.938,195.857 197.876,200 196.47,195.982 
	194.046,204.093 196.001,195.857 193.376,198.5 195.658,195.516 187.423,197.471 195.532,195.047 193.126,194 195.658,194.578 
	189.847,188.424 196.001,194.234 195.376,190.75 "/>
<linearGradient id="SVGID_30_" gradientUnits="userSpaceOnUse" x1="507.4961" y1="676.958" x2="498.7807" y2="687.2692" gradientTransform="matrix(1 0 0 1 -307.3203 -480.9199)">
	<stop  offset="0" style="stop-color:#BDBEC0"/>
	<stop  offset="0.1317" style="stop-color:#B3B5B6"/>
	<stop  offset="0.3702" style="stop-color:#999B9D"/>
	<stop  offset="0.6854" style="stop-color:#737577"/>
	<stop  offset="1" style="stop-color:#424143"/>
</linearGradient>
<path fill="url(#SVGID_30_)" d="M196.571,208.42c-0.86,0.221-1.74,0.41-2.65,0.59c-0.02,0.01-0.04,0.01-0.061,0.01
	c-0.01-0.01-0.021-0.02-0.021-0.027c-0.021-0.03-0.04-0.063-0.063-0.102c-1.147-2.121-3.42-4.091-4.02-6.701
	c-0.76-3.25,5.52-6.89,5.52-6.89l0.451,0.89c0,0-3.711,2.103-4.41,5.791c-0.541,2.852,3.41,4.319,5.222,6.399
	C196.551,208.4,196.562,208.41,196.571,208.42z"/>
<linearGradient id="SVGID_31_" gradientUnits="userSpaceOnUse" x1="486.4258" y1="618.1689" x2="486.7544" y2="592.2057" gradientTransform="matrix(1 0 0 1 -307.3203 -480.9199)">
	<stop  offset="0" style="stop-color:#010101"/>
	<stop  offset="0.0851" style="stop-color:#220D0D"/>
	<stop  offset="0.2206" style="stop-color:#3D1312"/>
	<stop  offset="0.3893" style="stop-color:#600C0D"/>
	<stop  offset="0.5848" style="stop-color:#861619"/>
	<stop  offset="0.7998" style="stop-color:#B72025"/>
	<stop  offset="1" style="stop-color:#EC2227"/>
</linearGradient>
<path fill="url(#SVGID_31_)" d="M214.366,123.03c0,2.87-1.811,5.57-4.95,7.87c-0.04,0.03-0.08,0.06-0.13,0.1
	c-1.221,0.88-2.631,1.7-4.21,2.45c-2.05,0.97-4.4,1.84-6.979,2.55c-0.07,0.03-0.141,0.05-0.221,0.07c-0.68,0.18-1.38,0.36-2.1,0.53
	c-4.42,1.03-9.393,1.66-14.683,1.78c-0.39,0.02-0.778,0.02-1.17,0.02h-0.64c-0.682,0-1.36-0.01-2.04-0.03
	c-6.07-0.15-11.729-0.98-16.58-2.31c-0.649-0.18-1.29-0.37-1.91-0.57c-0.04-0.01-0.069-0.02-0.108-0.03
	c-3.039-0.97-5.699-2.15-7.881-3.48c-4.131-2.52-6.561-5.62-6.561-8.95c0-8.48,15.71-15.36,35.08-15.36
	C198.653,107.67,214.366,114.55,214.366,123.03z"/>
<linearGradient id="SVGID_32_" gradientUnits="userSpaceOnUse" x1="485.9551" y1="618.3301" x2="486.2327" y2="596.4" gradientTransform="matrix(1 0 0 1 -307.3203 -480.9199)">
	<stop  offset="0" style="stop-color:#010101"/>
	<stop  offset="0.1326" style="stop-color:#1E0D0D"/>
	<stop  offset="0.322" style="stop-color:#381312"/>
	<stop  offset="0.5456" style="stop-color:#54100F"/>
	<stop  offset="0.7933" style="stop-color:#761113"/>
	<stop  offset="1" style="stop-color:#941A1D"/>
</linearGradient>
<path fill="url(#SVGID_32_)" d="M212.551,125.58c0,1.91-1.14,3.7-3.13,5.32c-0.04,0.03-0.09,0.06-0.13,0.1
	c-1.16,0.91-2.58,1.77-4.24,2.54c-1.188,0.57-2.489,1.09-3.89,1.58c-0.061,0.02-0.12,0.04-0.18,0.06c-0.91,0.31-1.86,0.6-2.842,0.87
	c-0.091,0.02-0.181,0.05-0.271,0.07c-0.67,0.18-1.36,0.35-2.052,0.52c-0.318,0.07-0.629,0.14-0.959,0.21
	c-0.062,0.01-0.121,0.03-0.182,0.03c-1.09,0.24-2.21,0.45-3.359,0.62c-0.51,0.09-1.021,0.16-1.551,0.23
	c-2.81,0.39-5.738,0.61-8.68,0.65c-0.38,0.02-0.77,0.02-1.17,0.02c-0.16,0-0.311,0-0.471-0.01c-0.739,0-1.459-0.01-2.199-0.05
	c-5.58-0.22-11.29-1.13-16.301-2.52c-0.659-0.18-1.319-0.37-1.949-0.57c-0.13-0.04-0.26-0.08-0.391-0.13
	c-3-0.95-5.689-2.08-7.859-3.33c-3.54-2.04-5.721-4.4-5.721-6.86c0-7.17,18.521-12.49,34.891-12.49S212.551,118.41,212.551,125.58z"
	/>
<linearGradient id="SVGID_33_" gradientUnits="userSpaceOnUse" x1="511.7529" y1="602.0459" x2="498.7895" y2="617.383" gradientTransform="matrix(1 0 0 1 -307.3203 -480.9199)">
	<stop  offset="0" style="stop-color:#F15B2B"/>
	<stop  offset="1" style="stop-color:#FCEE23"/>
</linearGradient>
<polygon fill="url(#SVGID_33_)" points="196.47,129.61 198.894,121.5 196.938,129.735 199.251,127.75 197.28,130.078 
	205.517,128.123 197.405,130.546 200.751,131.625 197.28,131.015 203.092,137.169 196.938,131.357 197.876,135.5 196.47,131.483 
	194.046,139.593 196.001,131.357 193.376,134 195.658,131.015 187.423,132.97 195.532,130.546 193.126,129.5 195.658,130.078 
	189.847,123.924 196.001,129.735 195.376,126.25 "/>
<linearGradient id="SVGID_34_" gradientUnits="userSpaceOnUse" x1="504.0107" y1="610.2695" x2="497.2401" y2="618.2798" gradientTransform="matrix(1 0 0 1 -307.3203 -480.9199)">
	<stop  offset="0" style="stop-color:#BDBEC0"/>
	<stop  offset="0.1317" style="stop-color:#B3B5B6"/>
	<stop  offset="0.3702" style="stop-color:#999B9D"/>
	<stop  offset="0.6854" style="stop-color:#737577"/>
	<stop  offset="1" style="stop-color:#424143"/>
</linearGradient>
<path fill="url(#SVGID_34_)" d="M195.722,131.69c0,0-0.051,0.03-0.131,0.08c-0.199,0.13-0.63,0.41-1.148,0.85
	c-1.142,0.94-2.682,2.59-3.121,4.84c0,0.01,0,0.01,0,0.02c0,0.01,0,0.01,0,0.02c-0.51,0.09-1.021,0.16-1.551,0.23
	c0-0.01-0.01-0.03-0.01-0.04c-0.59-2.54,3.11-5.32,4.76-6.41c0.461-0.31,0.763-0.48,0.763-0.48l0.13,0.27l0.08,0.16l0.21,0.43
	L195.722,131.69z"/>
<linearGradient id="SVGID_35_" gradientUnits="userSpaceOnUse" x1="414.4258" y1="690.1699" x2="414.7544" y2="664.2059" gradientTransform="matrix(1 0 0 1 -307.3203 -480.9199)">
	<stop  offset="0" style="stop-color:#010101"/>
	<stop  offset="0.0851" style="stop-color:#220D0D"/>
	<stop  offset="0.2206" style="stop-color:#3D1312"/>
	<stop  offset="0.3893" style="stop-color:#600C0D"/>
	<stop  offset="0.5848" style="stop-color:#861619"/>
	<stop  offset="0.7998" style="stop-color:#B72025"/>
	<stop  offset="1" style="stop-color:#EC2227"/>
</linearGradient>
<path fill="url(#SVGID_35_)" d="M142.366,195.029c0,2.871-1.811,5.57-4.95,7.871c-0.04,0.029-0.08,0.06-0.13,0.1
	c-1.221,0.88-2.631,1.7-4.21,2.45c-2.05,0.97-4.4,1.84-6.979,2.55c-0.07,0.029-0.141,0.05-0.221,0.07
	c-0.68,0.18-1.38,0.359-2.1,0.529c-4.42,1.028-9.392,1.658-14.682,1.778c-0.39,0.021-0.779,0.021-1.17,0.021h-0.64
	c-0.68,0-1.36-0.01-2.04-0.029c-6.07-0.148-11.73-0.979-16.58-2.311c-0.65-0.182-1.29-0.371-1.91-0.569
	c-0.04-0.011-0.07-0.021-0.11-0.03c-3.039-0.97-5.699-2.148-7.88-3.479c-4.13-2.521-6.56-5.621-6.56-8.95
	c0-8.479,15.71-15.359,35.08-15.359S142.366,186.55,142.366,195.029z"/>
<linearGradient id="SVGID_36_" gradientUnits="userSpaceOnUse" x1="413.9561" y1="690.332" x2="414.2337" y2="668.4006" gradientTransform="matrix(1 0 0 1 -307.3203 -480.9199)">
	<stop  offset="0" style="stop-color:#010101"/>
	<stop  offset="0.1326" style="stop-color:#1E0D0D"/>
	<stop  offset="0.322" style="stop-color:#381312"/>
	<stop  offset="0.5456" style="stop-color:#54100F"/>
	<stop  offset="0.7933" style="stop-color:#761113"/>
	<stop  offset="1" style="stop-color:#941A1D"/>
</linearGradient>
<path fill="url(#SVGID_36_)" d="M140.551,197.58c0,1.91-1.14,3.699-3.13,5.32c-0.04,0.029-0.09,0.06-0.13,0.1
	c-1.16,0.91-2.58,1.77-4.24,2.54c-1.188,0.569-2.489,1.09-3.89,1.58c-0.061,0.021-0.12,0.04-0.18,0.06
	c-0.91,0.313-1.86,0.602-2.842,0.87c-0.09,0.021-0.18,0.05-0.27,0.07c-0.67,0.18-1.36,0.351-2.051,0.521
	c-0.319,0.069-0.629,0.141-0.959,0.209c-0.061,0.01-0.12,0.03-0.181,0.03c-1.09,0.24-2.21,0.45-3.359,0.62
	c-0.511,0.09-1.021,0.16-1.551,0.23c-2.81,0.39-5.739,0.607-8.68,0.647c-0.38,0.021-0.77,0.021-1.17,0.021c-0.16,0-0.31,0-0.47-0.01
	c-0.74,0-1.46-0.012-2.2-0.052c-5.58-0.22-11.29-1.13-16.3-2.521c-0.66-0.181-1.32-0.369-1.95-0.569c-0.13-0.04-0.26-0.08-0.39-0.13
	c-3-0.95-5.69-2.08-7.86-3.33c-3.54-2.04-5.72-4.398-5.72-6.859c0-7.171,18.52-12.49,34.89-12.49S140.551,190.41,140.551,197.58z"/>
<linearGradient id="SVGID_37_" gradientUnits="userSpaceOnUse" x1="439.752" y1="674.0459" x2="426.7885" y2="689.383" gradientTransform="matrix(1 0 0 1 -307.3203 -480.9199)">
	<stop  offset="0" style="stop-color:#F15B2B"/>
	<stop  offset="1" style="stop-color:#FCEE23"/>
</linearGradient>
<polygon fill="url(#SVGID_37_)" points="124.47,201.609 126.894,193.5 124.938,201.734 127.251,199.75 125.28,202.078 
	133.517,200.123 125.405,202.547 128.751,203.625 125.28,203.016 131.092,209.169 124.938,203.357 125.876,207.5 124.47,203.482 
	122.046,211.593 124.001,203.357 121.376,206 123.658,203.016 115.423,204.971 123.532,202.547 121.126,201.5 123.658,202.078 
	117.847,195.924 124.001,201.734 123.376,198.25 "/>
<linearGradient id="SVGID_38_" gradientUnits="userSpaceOnUse" x1="432.0117" y1="682.2705" x2="425.2413" y2="690.2805" gradientTransform="matrix(1 0 0 1 -307.3203 -480.9199)">
	<stop  offset="0" style="stop-color:#BDBEC0"/>
	<stop  offset="0.1317" style="stop-color:#B3B5B6"/>
	<stop  offset="0.3702" style="stop-color:#999B9D"/>
	<stop  offset="0.6854" style="stop-color:#737577"/>
	<stop  offset="1" style="stop-color:#424143"/>
</linearGradient>
<path fill="url(#SVGID_38_)" d="M123.722,203.689c0,0-0.051,0.031-0.131,0.08c-0.2,0.131-0.63,0.41-1.149,0.851
	c-1.141,0.94-2.681,2.59-3.12,4.84c0,0.011,0,0.011,0,0.021c0,0.012,0,0.012,0,0.021c-0.511,0.09-1.021,0.16-1.551,0.229
	c0-0.01-0.01-0.028-0.01-0.041c-0.59-2.539,3.11-5.317,4.76-6.41c0.461-0.309,0.761-0.479,0.761-0.479l0.13,0.271l0.08,0.16
	l0.21,0.43L123.722,203.689z"/>
<linearGradient id="SVGID_39_" gradientUnits="userSpaceOnUse" x1="558.4355" y1="618.002" x2="558.7642" y2="592.0396" gradientTransform="matrix(1 0 0 1 -307.3203 -480.9199)">
	<stop  offset="0" style="stop-color:#010101"/>
	<stop  offset="0.0851" style="stop-color:#220D0D"/>
	<stop  offset="0.2206" style="stop-color:#3D1312"/>
	<stop  offset="0.3893" style="stop-color:#600C0D"/>
	<stop  offset="0.5848" style="stop-color:#861619"/>
	<stop  offset="0.7998" style="stop-color:#B72025"/>
	<stop  offset="1" style="stop-color:#EC2227"/>
</linearGradient>
<path fill="url(#SVGID_39_)" d="M286.376,122.863c0,2.87-1.811,5.57-4.95,7.87c-0.04,0.03-0.079,0.06-0.13,0.1
	c-1.22,0.88-2.63,1.7-4.21,2.45c-2.05,0.97-4.399,1.84-6.979,2.55c-0.068,0.03-0.141,0.05-0.221,0.07c-0.68,0.18-1.38,0.36-2.1,0.53
	c-4.42,1.03-9.391,1.66-14.682,1.78c-0.391,0.02-0.778,0.02-1.17,0.02h-0.641c-0.682,0-1.359-0.01-2.04-0.03
	c-6.069-0.15-11.729-0.98-16.58-2.31c-0.649-0.18-1.29-0.37-1.909-0.57c-0.039-0.01-0.07-0.021-0.109-0.03
	c-3.039-0.97-5.699-2.15-7.881-3.48c-4.129-2.52-6.561-5.62-6.561-8.95c0-8.48,15.71-15.36,35.08-15.36
	S286.376,114.383,286.376,122.863z"/>
<linearGradient id="SVGID_40_" gradientUnits="userSpaceOnUse" x1="557.9658" y1="618.165" x2="558.2434" y2="596.2344" gradientTransform="matrix(1 0 0 1 -307.3203 -480.9199)">
	<stop  offset="0" style="stop-color:#010101"/>
	<stop  offset="0.1326" style="stop-color:#1E0D0D"/>
	<stop  offset="0.322" style="stop-color:#381312"/>
	<stop  offset="0.5456" style="stop-color:#54100F"/>
	<stop  offset="0.7933" style="stop-color:#761113"/>
	<stop  offset="1" style="stop-color:#941A1D"/>
</linearGradient>
<path fill="url(#SVGID_40_)" d="M284.565,125.413c0,1.91-1.149,3.7-3.142,5.32c-0.04,0.03-0.08,0.06-0.13,0.1
	c-1.148,0.91-2.58,1.77-4.229,2.54c-2.012,0.96-4.352,1.8-6.91,2.51c-0.09,0.02-0.18,0.05-0.279,0.07
	c-0.67,0.18-1.352,0.35-2.05,0.52c-4.53,1.04-9.591,1.67-14.722,1.74c-0.391,0.02-0.778,0.02-1.17,0.02c-0.16,0-0.318,0-0.479-0.01
	c-0.729,0-1.46-0.01-2.188-0.05c-5.592-0.22-11.291-1.13-16.312-2.52c-0.66-0.18-1.312-0.37-1.95-0.57
	c-0.13-0.04-0.26-0.08-0.39-0.13c-3-0.95-5.683-2.08-7.853-3.33c-3.539-2.04-5.729-4.4-5.729-6.86c0-7.17,18.529-12.49,34.898-12.49
	C268.306,112.273,284.565,118.243,284.565,125.413z"/>
<linearGradient id="SVGID_41_" gradientUnits="userSpaceOnUse" x1="342.2207" y1="690.0039" x2="342.5493" y2="664.0396" gradientTransform="matrix(1 0 0 1 -307.3203 -480.9199)">
	<stop  offset="0" style="stop-color:#010101"/>
	<stop  offset="0.0851" style="stop-color:#220D0D"/>
	<stop  offset="0.2206" style="stop-color:#3D1312"/>
	<stop  offset="0.3893" style="stop-color:#600C0D"/>
	<stop  offset="0.5848" style="stop-color:#861619"/>
	<stop  offset="0.7998" style="stop-color:#B72025"/>
	<stop  offset="1" style="stop-color:#EC2227"/>
</linearGradient>
<path fill="url(#SVGID_41_)" d="M70.161,194.863c0,2.869-1.811,5.57-4.95,7.869c-0.04,0.031-0.08,0.061-0.13,0.101
	c-1.22,0.88-2.63,1.7-4.21,2.45c-2.05,0.97-4.4,1.84-6.98,2.55c-0.069,0.03-0.14,0.05-0.22,0.069c-0.68,0.181-1.38,0.361-2.1,0.531
	c-4.42,1.027-9.391,1.657-14.681,1.777c-0.39,0.021-0.779,0.021-1.17,0.021h-0.64c-0.68,0-1.36-0.01-2.04-0.029
	c-6.07-0.15-11.73-0.98-16.58-2.311c-0.65-0.182-1.29-0.369-1.91-0.569c-0.04-0.011-0.07-0.021-0.11-0.03
	c-3.039-0.97-5.699-2.15-7.88-3.48c-4.13-2.52-6.56-5.619-6.56-8.947c0-8.48,15.71-15.36,35.08-15.36S70.161,186.383,70.161,194.863
	z"/>
<linearGradient id="SVGID_42_" gradientUnits="userSpaceOnUse" x1="341.7529" y1="690.1611" x2="342.0304" y2="668.2321" gradientTransform="matrix(1 0 0 1 -307.3203 -480.9199)">
	<stop  offset="0" style="stop-color:#010101"/>
	<stop  offset="0.1326" style="stop-color:#1E0D0D"/>
	<stop  offset="0.322" style="stop-color:#381312"/>
	<stop  offset="0.5456" style="stop-color:#54100F"/>
	<stop  offset="0.7933" style="stop-color:#761113"/>
	<stop  offset="1" style="stop-color:#941A1D"/>
</linearGradient>
<path fill="url(#SVGID_42_)" d="M68.351,197.413c0,1.91-1.149,3.7-3.14,5.319c-0.04,0.031-0.08,0.061-0.13,0.101
	c-1.15,0.91-2.58,1.771-4.23,2.54c-2.01,0.96-4.35,1.8-6.91,2.51c-0.09,0.02-0.18,0.051-0.279,0.07c-0.67,0.18-1.351,0.35-2.05,0.52
	c-4.53,1.041-9.591,1.67-14.721,1.74c-0.39,0.02-0.779,0.02-1.17,0.02c-0.16,0-0.319,0-0.479-0.01c-0.73,0-1.46-0.01-2.19-0.05
	c-5.59-0.22-11.29-1.13-16.31-2.521c-0.66-0.18-1.311-0.369-1.95-0.569c-0.13-0.04-0.26-0.08-0.39-0.13
	c-3-0.95-5.681-2.08-7.851-3.33c-3.54-2.04-5.729-4.4-5.729-6.859c0-7.171,18.529-12.49,34.899-12.49
	C52.091,184.273,68.351,190.243,68.351,197.413z"/>
<linearGradient id="SVGID_43_" gradientUnits="userSpaceOnUse" x1="414.4717" y1="545.709" x2="414.8003" y2="519.7446" gradientTransform="matrix(1 0 0 1 -307.3203 -480.9199)">
	<stop  offset="0" style="stop-color:#010101"/>
	<stop  offset="0.0851" style="stop-color:#220D0D"/>
	<stop  offset="0.2206" style="stop-color:#3D1312"/>
	<stop  offset="0.3893" style="stop-color:#600C0D"/>
	<stop  offset="0.5848" style="stop-color:#861619"/>
	<stop  offset="0.7998" style="stop-color:#B72025"/>
	<stop  offset="1" style="stop-color:#EC2227"/>
</linearGradient>
<path fill="url(#SVGID_43_)" d="M142.411,50.58c0,2.92-1.86,5.64-5.08,7.96c-0.02,0.01-0.04,0.03-0.061,0.04
	c-4.89,3.5-12.89,6.08-22.319,6.99c-1.88,0.19-3.83,0.31-5.81,0.35c-0.49,0.01-0.97,0.02-1.46,0.02h-0.35
	c-2.23,0-4.4-0.09-6.51-0.27c-16.26-1.33-28.57-7.58-28.57-15.09c0-5.52,6.64-10.36,16.62-13.07c5.36-1.46,11.68-2.3,18.46-2.3
	c7.19,0,13.86,0.95,19.42,2.57C136.19,40.53,142.411,45.24,142.411,50.58z"/>
<linearGradient id="SVGID_44_" gradientUnits="userSpaceOnUse" x1="414.002" y1="545.875" x2="414.2796" y2="523.9407" gradientTransform="matrix(1 0 0 1 -307.3203 -480.9199)">
	<stop  offset="0" style="stop-color:#010101"/>
	<stop  offset="0.1326" style="stop-color:#1E0D0D"/>
	<stop  offset="0.322" style="stop-color:#381312"/>
	<stop  offset="0.5456" style="stop-color:#54100F"/>
	<stop  offset="0.7933" style="stop-color:#761113"/>
	<stop  offset="1" style="stop-color:#941A1D"/>
</linearGradient>
<path fill="url(#SVGID_44_)" d="M140.601,53.12c0,1.94-1.199,3.78-3.27,5.42c-0.02,0.01-0.04,0.03-0.061,0.04
	c-4.49,3.53-13.029,6.14-22.379,7.02c-0.01,0-0.02,0.01-0.02,0.01c-1.88,0.18-3.8,0.29-5.73,0.31c-0.39,0.02-0.78,0.02-1.17,0.02
	h-0.29c-2.41-0.01-4.86-0.16-7.28-0.42c-14.02-1.53-27.33-6.98-27.33-13.05c0-4.09,6.02-7.57,14.22-9.8
	c6.19-1.71,13.63-2.69,20.68-2.69c7.27,0,14.5,1.18,20.309,3.11C135.571,45.52,140.601,49.14,140.601,53.12z"/>
<radialGradient id="SVGID_45_" cx="421.3213" cy="520.1084" r="44.4952" gradientTransform="matrix(1 0 0 1 -307.3203 -480.9199)" gradientUnits="userSpaceOnUse">
	<stop  offset="0.0121" style="stop-color:#424143"/>
	<stop  offset="0.0848" style="stop-color:#6E6F72"/>
	<stop  offset="0.1143" style="stop-color:#636467"/>
	<stop  offset="0.2099" style="stop-color:#454647"/>
	<stop  offset="0.3144" style="stop-color:#2B2B2D"/>
	<stop  offset="0.4295" style="stop-color:#181819"/>
	<stop  offset="0.5607" style="stop-color:#0C0C0D"/>
	<stop  offset="0.7217" style="stop-color:#030303"/>
	<stop  offset="1" style="stop-color:#010101"/>
</radialGradient>
<path fill="url(#SVGID_45_)" d="M128.501,46.11c0,8.93-5.64,16.54-13.55,19.46c-0.02,0.02-0.04,0.02-0.06,0.03
	c-0.01,0-0.02,0.01-0.02,0.01c-1.88,0.18-3.8,0.29-5.73,0.31c-0.39,0.02-0.78,0.02-1.17,0.02h-0.64c-2.23,0-4.4-0.09-6.51-0.27
	c-0.14-0.04-0.28-0.09-0.42-0.15c-7.83-2.96-13.4-10.54-13.4-19.41c0-1.17,0.1-2.32,0.29-3.44c0.3-1.81,0.83-3.54,1.58-5.16
	c3.26-7.17,10.49-12.15,18.88-12.15c8.5,0,15.8,5.11,19,12.42c0.74,1.67,1.26,3.45,1.529,5.31
	C128.431,44.07,128.501,45.08,128.501,46.11z"/>
<linearGradient id="SVGID_46_" gradientUnits="userSpaceOnUse" x1="252.3096" y1="555.7734" x2="239.3452" y2="571.1115" gradientTransform="matrix(0.9504 -0.3112 0.3112 0.9504 -284.1451 -444.5773)">
	<stop  offset="0" style="stop-color:#F15B2B"/>
	<stop  offset="1" style="stop-color:#FCEE23"/>
</linearGradient>
<polygon fill="url(#SVGID_46_)" points="123.678,15.656 123.458,7.195 124.162,15.63 125.743,13.023 124.594,15.849 131.813,11.428 
	124.858,16.255 128.374,16.239 124.886,16.739 132.324,20.779 124.667,17.171 126.849,20.816 124.261,17.437 124.481,25.898 
	123.776,17.463 122.104,20.791 123.344,17.244 116.126,21.665 123.079,16.838 120.466,16.592 123.053,16.354 115.615,12.313 
	123.272,15.921 121.593,12.804 "/>
<linearGradient id="SVGID_47_" gradientUnits="userSpaceOnUse" x1="437.7471" y1="497.252" x2="419.9962" y2="518.2528" gradientTransform="matrix(1 0 0 1 -307.3203 -480.9199)">
	<stop  offset="0" style="stop-color:#BDBEC0"/>
	<stop  offset="0.1317" style="stop-color:#B3B5B6"/>
	<stop  offset="0.3702" style="stop-color:#999B9D"/>
	<stop  offset="0.6854" style="stop-color:#737577"/>
	<stop  offset="1" style="stop-color:#424143"/>
</linearGradient>
<path fill="url(#SVGID_47_)" d="M116.24,40.34c0,0,8.646-5.08,8.671-8.434c0.023-3.354-6.786-4.746-6.088-8.43
	c0.698-3.684,4.403-5.782,4.403-5.782l-0.441-0.897c0,0-6.288,3.644-5.529,6.892c0.759,3.248,4.097,5.508,4.635,8.308
	c0.539,2.799-6.978,6.21-6.978,6.21s-2.003-1.245-0.347,1.563C116.224,42.576,116.24,40.34,116.24,40.34z"/>
<linearGradient id="SVGID_48_" gradientUnits="userSpaceOnUse" x1="486.4707" y1="761.708" x2="486.7993" y2="735.746" gradientTransform="matrix(1 0 0 1 -307.3203 -480.9199)">
	<stop  offset="0" style="stop-color:#010101"/>
	<stop  offset="0.0851" style="stop-color:#220D0D"/>
	<stop  offset="0.2206" style="stop-color:#3D1312"/>
	<stop  offset="0.3893" style="stop-color:#600C0D"/>
	<stop  offset="0.5848" style="stop-color:#861619"/>
	<stop  offset="0.7998" style="stop-color:#B72025"/>
	<stop  offset="1" style="stop-color:#EC2227"/>
</linearGradient>
<path fill="url(#SVGID_48_)" d="M214.411,266.58c0,2.92-1.86,5.641-5.08,7.96c-0.02,0.01-0.04,0.03-0.061,0.04
	c-4.892,3.5-12.892,6.08-22.319,6.99c-1.88,0.188-3.83,0.31-5.81,0.35c-0.49,0.01-0.973,0.02-1.461,0.02h-0.352
	c-2.229,0-4.398-0.09-6.512-0.27c-16.26-1.33-28.568-7.58-28.568-15.09c0-5.52,6.643-10.359,16.62-13.07
	c5.358-1.46,11.68-2.3,18.46-2.3c7.188,0,13.857,0.95,19.42,2.569C208.19,256.529,214.411,261.24,214.411,266.58z"/>
<linearGradient id="SVGID_49_" gradientUnits="userSpaceOnUse" x1="486.002" y1="761.875" x2="486.2797" y2="739.9418" gradientTransform="matrix(1 0 0 1 -307.3203 -480.9199)">
	<stop  offset="0" style="stop-color:#010101"/>
	<stop  offset="0.1326" style="stop-color:#1E0D0D"/>
	<stop  offset="0.322" style="stop-color:#381312"/>
	<stop  offset="0.5456" style="stop-color:#54100F"/>
	<stop  offset="0.7933" style="stop-color:#761113"/>
	<stop  offset="1" style="stop-color:#941A1D"/>
</linearGradient>
<path fill="url(#SVGID_49_)" d="M212.601,269.12c0,1.94-1.199,3.78-3.27,5.42c-0.02,0.01-0.04,0.03-0.061,0.04
	c-4.49,3.529-13.029,6.141-22.379,7.02c-0.013,0-0.021,0.01-0.021,0.01c-1.881,0.183-3.801,0.291-5.729,0.313
	c-0.393,0.021-0.781,0.021-1.17,0.021h-0.291c-2.41-0.01-4.859-0.16-7.279-0.42c-14.021-1.529-27.33-6.979-27.33-13.049
	c0-4.093,6.02-7.57,14.22-9.803c6.19-1.71,13.63-2.688,20.681-2.688c7.271,0,14.5,1.18,20.309,3.107
	C207.571,261.52,212.601,265.141,212.601,269.12z"/>
<radialGradient id="SVGID_50_" cx="493.3213" cy="736.1084" r="44.4931" gradientTransform="matrix(1 0 0 1 -307.3203 -480.9199)" gradientUnits="userSpaceOnUse">
	<stop  offset="0.0121" style="stop-color:#424143"/>
	<stop  offset="0.0848" style="stop-color:#6E6F72"/>
	<stop  offset="0.1143" style="stop-color:#636467"/>
	<stop  offset="0.2099" style="stop-color:#454647"/>
	<stop  offset="0.3144" style="stop-color:#2B2B2D"/>
	<stop  offset="0.4295" style="stop-color:#181819"/>
	<stop  offset="0.5607" style="stop-color:#0C0C0D"/>
	<stop  offset="0.7217" style="stop-color:#030303"/>
	<stop  offset="1" style="stop-color:#010101"/>
</radialGradient>
<path fill="url(#SVGID_50_)" d="M200.501,262.109c0,8.931-5.641,16.541-13.55,19.461c-0.021,0.02-0.04,0.02-0.06,0.029
	c-0.013,0-0.021,0.01-0.021,0.01c-1.881,0.181-3.801,0.291-5.729,0.311c-0.393,0.02-0.781,0.02-1.17,0.02h-0.643
	c-2.229,0-4.398-0.09-6.512-0.27c-0.141-0.04-0.278-0.09-0.42-0.15c-7.83-2.959-13.398-10.539-13.398-19.41
	c0-1.17,0.102-2.317,0.29-3.438c0.3-1.813,0.83-3.54,1.58-5.158c3.26-7.172,10.487-12.15,18.88-12.15c8.5,0,15.8,5.111,19,12.42
	c0.74,1.671,1.26,3.451,1.527,5.311C200.431,260.07,200.501,261.08,200.501,262.109z"/>
<linearGradient id="SVGID_51_" gradientUnits="userSpaceOnUse" x1="253.5137" y1="783.4482" x2="240.5493" y2="798.7864" gradientTransform="matrix(0.9504 -0.3112 0.3112 0.9504 -284.1451 -444.5773)">
	<stop  offset="0" style="stop-color:#F15B2B"/>
	<stop  offset="1" style="stop-color:#FCEE23"/>
</linearGradient>
<polygon fill="url(#SVGID_51_)" points="195.678,231.656 195.458,223.195 196.162,231.63 197.743,229.023 196.595,231.85 
	203.813,227.428 196.858,232.255 200.374,232.239 196.886,232.739 204.323,236.779 196.667,233.172 198.849,236.816 
	196.261,233.438 196.481,241.898 195.776,233.463 194.104,236.791 195.345,233.244 188.126,237.665 195.079,232.838 
	192.466,232.592 195.053,232.354 187.614,228.313 195.272,231.922 193.593,228.805 "/>
<linearGradient id="SVGID_52_" gradientUnits="userSpaceOnUse" x1="509.7471" y1="713.252" x2="491.9973" y2="734.2515" gradientTransform="matrix(1 0 0 1 -307.3203 -480.9199)">
	<stop  offset="0" style="stop-color:#BDBEC0"/>
	<stop  offset="0.1317" style="stop-color:#B3B5B6"/>
	<stop  offset="0.3702" style="stop-color:#999B9D"/>
	<stop  offset="0.6854" style="stop-color:#737577"/>
	<stop  offset="1" style="stop-color:#424143"/>
</linearGradient>
<path fill="url(#SVGID_52_)" d="M188.239,256.34c0,0,8.646-5.08,8.672-8.434c0.023-3.354-6.785-4.746-6.088-8.432
	s4.402-5.781,4.402-5.781l-0.44-0.896c0,0-6.288,3.643-5.528,6.891c0.758,3.248,4.096,5.511,4.635,8.311
	c0.539,2.799-6.978,6.209-6.978,6.209s-2.003-1.244-0.347,1.563S188.239,256.34,188.239,256.34z"/>
<linearGradient id="SVGID_53_" gradientUnits="userSpaceOnUse" x1="558.3164" y1="546.3789" x2="558.6449" y2="520.4237" gradientTransform="matrix(1 0 0 1 -307.3203 -480.9199)">
	<stop  offset="0" style="stop-color:#010101"/>
	<stop  offset="0.0851" style="stop-color:#220D0D"/>
	<stop  offset="0.2206" style="stop-color:#3D1312"/>
	<stop  offset="0.3893" style="stop-color:#600C0D"/>
	<stop  offset="0.5848" style="stop-color:#861619"/>
	<stop  offset="0.7998" style="stop-color:#B72025"/>
	<stop  offset="1" style="stop-color:#EC2227"/>
</linearGradient>
<path fill="url(#SVGID_53_)" d="M286.251,51.25c0,2.92-1.859,5.65-5.08,7.97c-0.029,0.021-0.061,0.05-0.1,0.07
	c-2.15,1.53-4.9,2.88-8.11,3.99c-5.54,1.93-12.45,3.14-19.979,3.31c-0.488,0.01-0.971,0.02-1.461,0.02h-0.35
	c-7.25,0-13.99-0.96-19.58-2.61c-9.34-2.76-15.49-7.44-15.49-12.75c0-8.48,15.7-15.36,35.07-15.36S286.251,42.77,286.251,51.25z"/>
<linearGradient id="SVGID_54_" gradientUnits="userSpaceOnUse" x1="557.8467" y1="546.5449" x2="558.1242" y2="524.6189" gradientTransform="matrix(1 0 0 1 -307.3203 -480.9199)">
	<stop  offset="0" style="stop-color:#010101"/>
	<stop  offset="0.1326" style="stop-color:#1E0D0D"/>
	<stop  offset="0.322" style="stop-color:#381312"/>
	<stop  offset="0.5456" style="stop-color:#54100F"/>
	<stop  offset="0.7933" style="stop-color:#761113"/>
	<stop  offset="1" style="stop-color:#941A1D"/>
</linearGradient>
<path fill="url(#SVGID_54_)" d="M284.44,53.8c0,1.94-1.199,3.78-3.271,5.42c-0.029,0.021-0.061,0.05-0.102,0.07
	c-2,1.56-4.801,2.94-8.108,4.06c-5.63,1.93-12.75,3.13-19.979,3.24c-0.392,0.02-0.779,0.02-1.172,0.02h-0.289
	c-6.789-0.03-13.931-1.13-19.949-2.94c-8.42-2.51-14.649-6.37-14.649-10.53c0-7.17,18.53-12.48,34.892-12.48
	C268.181,40.66,284.44,46.63,284.44,53.8z"/>
<radialGradient id="SVGID_55_" cx="565.8213" cy="530.8848" r="32.2805" gradientTransform="matrix(1 0 0 1 -307.3203 -480.9199)" gradientUnits="userSpaceOnUse">
	<stop  offset="0.0121" style="stop-color:#424143"/>
	<stop  offset="0.0848" style="stop-color:#6E6F72"/>
	<stop  offset="0.1143" style="stop-color:#636467"/>
	<stop  offset="0.2099" style="stop-color:#454647"/>
	<stop  offset="0.3144" style="stop-color:#2B2B2D"/>
	<stop  offset="0.4295" style="stop-color:#181819"/>
	<stop  offset="0.5607" style="stop-color:#0C0C0D"/>
	<stop  offset="0.7217" style="stop-color:#030303"/>
	<stop  offset="1" style="stop-color:#010101"/>
</radialGradient>
<path fill="url(#SVGID_55_)" d="M273.001,62.11c0,0.39-0.01,0.78-0.04,1.17c0.011,0.02,0.011,0.05,0,0.07
	c-5.63,1.93-12.75,3.13-19.979,3.24c-0.391,0.02-0.778,0.02-1.17,0.02h-0.641c-7.25,0-13.99-0.96-19.58-2.61
	c-0.01-0.11-0.02-0.22-0.02-0.33c-0.051-0.51-0.07-1.03-0.07-1.56c0-11.46,9.29-20.75,20.75-20.75S273.001,50.65,273.001,62.11z"/>
<linearGradient id="SVGID_56_" gradientUnits="userSpaceOnUse" x1="871.0195" y1="148.1299" x2="858.0547" y2="163.4684" gradientTransform="matrix(0.7368 0.6761 -0.6761 0.7368 -260.9011 -673.0507)">
	<stop  offset="0" style="stop-color:#F15B2B"/>
	<stop  offset="1" style="stop-color:#FCEE23"/>
</linearGradient>
<polygon fill="url(#SVGID_56_)" points="269.103,25.857 276.372,21.521 269.362,26.266 272.41,26.367 269.384,26.75 276.772,30.877 
	269.159,27.179 270.896,30.236 268.75,27.44 268.871,35.904 268.267,27.46 266.155,31.147 267.836,27.237 260.565,31.573 
	267.576,26.827 263.854,26.999 267.556,26.343 260.166,22.216 267.778,25.913 266.714,23.515 268.188,25.653 268.067,17.189 
	268.673,25.632 270.569,22.642 "/>
<linearGradient id="SVGID_57_" gradientUnits="userSpaceOnUse" x1="582.2471" y1="507.2539" x2="564.4962" y2="528.2549" gradientTransform="matrix(1 0 0 1 -307.3203 -480.9199)">
	<stop  offset="0" style="stop-color:#BDBEC0"/>
	<stop  offset="0.1317" style="stop-color:#B3B5B6"/>
	<stop  offset="0.3702" style="stop-color:#999B9D"/>
	<stop  offset="0.6854" style="stop-color:#737577"/>
	<stop  offset="1" style="stop-color:#424143"/>
</linearGradient>
<path fill="url(#SVGID_57_)" d="M260.74,50.34c0,0,8.646-5.08,8.671-8.434c0.023-3.354-6.785-4.746-6.088-8.43
	s4.402-5.782,4.402-5.782l-0.44-0.897c0,0-6.288,3.644-5.528,6.892c0.758,3.248,4.096,5.508,4.635,8.308
	c0.539,2.799-6.978,6.21-6.978,6.21s-2.003-1.245-0.347,1.563C260.724,52.576,260.74,50.34,260.74,50.34z"/>
<linearGradient id="SVGID_58_" gradientUnits="userSpaceOnUse" x1="342.2168" y1="762.3789" x2="342.5453" y2="736.4243" gradientTransform="matrix(1 0 0 1 -307.3203 -480.9199)">
	<stop  offset="0" style="stop-color:#010101"/>
	<stop  offset="0.0851" style="stop-color:#220D0D"/>
	<stop  offset="0.2206" style="stop-color:#3D1312"/>
	<stop  offset="0.3893" style="stop-color:#600C0D"/>
	<stop  offset="0.5848" style="stop-color:#861619"/>
	<stop  offset="0.7998" style="stop-color:#B72025"/>
	<stop  offset="1" style="stop-color:#EC2227"/>
</linearGradient>
<path fill="url(#SVGID_58_)" d="M70.151,267.25c0,2.92-1.86,5.65-5.08,7.971c-0.03,0.021-0.06,0.049-0.1,0.069
	c-2.15,1.53-4.9,2.88-8.11,3.989c-5.54,1.931-12.45,3.141-19.979,3.311c-0.49,0.01-0.971,0.02-1.461,0.02h-0.35
	c-7.25,0-13.99-0.959-19.58-2.607c-9.34-2.762-15.49-7.441-15.49-12.752c0-8.48,15.7-15.359,35.07-15.359
	C54.441,251.891,70.151,258.77,70.151,267.25z"/>
<linearGradient id="SVGID_59_" gradientUnits="userSpaceOnUse" x1="341.749" y1="762.5439" x2="342.0265" y2="740.6196" gradientTransform="matrix(1 0 0 1 -307.3203 -480.9199)">
	<stop  offset="0" style="stop-color:#010101"/>
	<stop  offset="0.1326" style="stop-color:#1E0D0D"/>
	<stop  offset="0.322" style="stop-color:#381312"/>
	<stop  offset="0.5456" style="stop-color:#54100F"/>
	<stop  offset="0.7933" style="stop-color:#761113"/>
	<stop  offset="1" style="stop-color:#941A1D"/>
</linearGradient>
<path fill="url(#SVGID_59_)" d="M68.342,269.8c0,1.94-1.2,3.78-3.271,5.421c-0.03,0.021-0.06,0.049-0.1,0.069
	c-2,1.56-4.801,2.94-8.11,4.06c-5.63,1.93-12.75,3.131-19.979,3.24c-0.391,0.02-0.78,0.02-1.171,0.02h-0.29
	c-6.789-0.027-13.93-1.129-19.949-2.938c-8.42-2.51-14.65-6.37-14.65-10.527c0-7.17,18.53-12.48,34.89-12.48
	C52.081,256.66,68.342,262.63,68.342,269.8z"/>
<radialGradient id="SVGID_60_" cx="349.7207" cy="746.8848" r="32.2819" gradientTransform="matrix(1 0 0 1 -307.3203 -480.9199)" gradientUnits="userSpaceOnUse">
	<stop  offset="0.0121" style="stop-color:#424143"/>
	<stop  offset="0.0848" style="stop-color:#6E6F72"/>
	<stop  offset="0.1143" style="stop-color:#636467"/>
	<stop  offset="0.2099" style="stop-color:#454647"/>
	<stop  offset="0.3144" style="stop-color:#2B2B2D"/>
	<stop  offset="0.4295" style="stop-color:#181819"/>
	<stop  offset="0.5607" style="stop-color:#0C0C0D"/>
	<stop  offset="0.7217" style="stop-color:#030303"/>
	<stop  offset="1" style="stop-color:#010101"/>
</radialGradient>
<path fill="url(#SVGID_60_)" d="M56.901,278.109c0,0.391-0.01,0.781-0.04,1.17c0.01,0.021,0.01,0.051,0,0.07
	c-5.63,1.93-12.75,3.131-19.979,3.238c-0.391,0.021-0.78,0.021-1.171,0.021h-0.64c-7.25,0-13.99-0.959-19.58-2.609
	c-0.01-0.109-0.02-0.221-0.02-0.33c-0.051-0.51-0.07-1.029-0.07-1.561c0-11.459,9.29-20.75,20.75-20.75
	S56.901,266.65,56.901,278.109z"/>
<linearGradient id="SVGID_61_" gradientUnits="userSpaceOnUse" x1="857.8418" y1="453.3799" x2="844.8768" y2="468.7187" gradientTransform="matrix(0.7368 0.6761 -0.6761 0.7368 -260.9011 -673.0507)">
	<stop  offset="0" style="stop-color:#F15B2B"/>
	<stop  offset="1" style="stop-color:#FCEE23"/>
</linearGradient>
<polygon fill="url(#SVGID_61_)" points="53.003,241.857 60.272,237.521 53.264,242.266 56.311,242.367 53.284,242.75 
	60.673,246.877 53.06,243.18 54.795,246.236 52.65,243.439 52.772,251.904 52.166,243.461 50.057,247.146 51.736,243.236 
	44.467,247.572 51.477,242.827 47.756,242.999 51.456,242.343 44.066,238.216 51.68,241.912 50.614,239.516 52.089,241.652 
	51.968,233.189 52.573,241.633 54.47,238.643 "/>
<linearGradient id="SVGID_62_" gradientUnits="userSpaceOnUse" x1="366.1484" y1="723.2549" x2="348.398" y2="744.2554" gradientTransform="matrix(1 0 0 1 -307.3203 -480.9199)">
	<stop  offset="0" style="stop-color:#BDBEC0"/>
	<stop  offset="0.1317" style="stop-color:#B3B5B6"/>
	<stop  offset="0.3702" style="stop-color:#999B9D"/>
	<stop  offset="0.6854" style="stop-color:#737577"/>
	<stop  offset="1" style="stop-color:#424143"/>
</linearGradient>
<path fill="url(#SVGID_62_)" d="M44.641,266.34c0,0,8.646-5.08,8.671-8.434c0.024-3.354-6.785-4.746-6.088-8.432
	c0.697-3.686,4.402-5.781,4.402-5.781l-0.44-0.896c0,0-6.288,3.643-5.528,6.891c0.758,3.248,4.096,5.511,4.635,8.311
	c0.539,2.799-6.978,6.209-6.978,6.209s-2.003-1.244-0.347,1.563C44.624,268.576,44.641,266.34,44.641,266.34z"/>
<linearGradient id="SVGID_63_" gradientUnits="userSpaceOnUse" x1="486.4268" y1="545.6289" x2="486.7553" y2="519.6737" gradientTransform="matrix(1 0 0 1 -307.3203 -480.9199)">
	<stop  offset="0" style="stop-color:#010101"/>
	<stop  offset="0.0851" style="stop-color:#220D0D"/>
	<stop  offset="0.2206" style="stop-color:#3D1312"/>
	<stop  offset="0.3893" style="stop-color:#600C0D"/>
	<stop  offset="0.5848" style="stop-color:#861619"/>
	<stop  offset="0.7998" style="stop-color:#B72025"/>
	<stop  offset="1" style="stop-color:#EC2227"/>
</linearGradient>
<path fill="url(#SVGID_63_)" d="M214.36,50.5c0,2.92-1.852,5.64-5.069,7.96c-0.011,0.01-0.03,0.02-0.04,0.03
	c-2.79,2-6.59,3.7-11.09,4.96c-4.98,1.39-10.811,2.25-17.07,2.39c-0.49,0.01-0.97,0.02-1.46,0.02h-0.351
	c-5.829,0-11.319-0.62-16.159-1.73c-11.24-2.55-18.91-7.69-18.91-13.63c0-6.78,10.03-12.53,23.95-14.57
	c3.49-0.51,7.229-0.79,11.119-0.79c4.99,0,9.74,0.46,14.041,1.29C205.711,38.79,214.36,44.2,214.36,50.5z"/>
<linearGradient id="SVGID_64_" gradientUnits="userSpaceOnUse" x1="485.959" y1="545.7959" x2="486.2365" y2="523.8703" gradientTransform="matrix(1 0 0 1 -307.3203 -480.9199)">
	<stop  offset="0" style="stop-color:#010101"/>
	<stop  offset="0.1326" style="stop-color:#1E0D0D"/>
	<stop  offset="0.322" style="stop-color:#381312"/>
	<stop  offset="0.5456" style="stop-color:#54100F"/>
	<stop  offset="0.7933" style="stop-color:#761113"/>
	<stop  offset="1" style="stop-color:#941A1D"/>
</linearGradient>
<path fill="url(#SVGID_64_)" d="M212.551,53.05c0,1.94-1.188,3.77-3.26,5.41c-0.011,0.01-0.03,0.02-0.04,0.03
	c-2.57,2.03-6.49,3.75-11.13,5.02c-5.08,1.4-11.021,2.24-17.03,2.33c-0.39,0.02-0.779,0.02-1.17,0.02h-0.29
	c-5.61-0.03-11.47-0.79-16.729-2.08c-10.01-2.42-17.868-6.72-17.868-11.39c0-4.65,7.81-8.52,17.76-10.67
	c5.38-1.15,11.392-1.81,17.13-1.81c6.551,0,13.092,0.96,18.57,2.56C206.711,44.88,212.551,48.75,212.551,53.05z"/>
<radialGradient id="SVGID_65_" cx="493.9912" cy="524.4053" r="38.9865" gradientTransform="matrix(1 0 0 1 -307.3203 -480.9199)" gradientUnits="userSpaceOnUse">
	<stop  offset="0.0121" style="stop-color:#424143"/>
	<stop  offset="0.0848" style="stop-color:#6E6F72"/>
	<stop  offset="0.1143" style="stop-color:#636467"/>
	<stop  offset="0.2099" style="stop-color:#454647"/>
	<stop  offset="0.3144" style="stop-color:#2B2B2D"/>
	<stop  offset="0.4295" style="stop-color:#181819"/>
	<stop  offset="0.5607" style="stop-color:#0C0C0D"/>
	<stop  offset="0.7217" style="stop-color:#030303"/>
	<stop  offset="1" style="stop-color:#010101"/>
</radialGradient>
<path fill="url(#SVGID_65_)" d="M201.171,52.67c0,3.95-1.1,7.64-3.01,10.78c-0.021,0.02-0.03,0.04-0.04,0.06
	c-5.08,1.4-11.021,2.24-17.03,2.33c-0.39,0.02-0.779,0.02-1.17,0.02h-0.641c-5.829,0-11.319-0.62-16.159-1.73
	c-0.08-0.11-0.149-0.23-0.22-0.35c-2.051-3.21-3.23-7.021-3.23-11.11c0-4.02,1.141-7.77,3.12-10.95c1.41-2.26,3.229-4.22,5.37-5.79
	c3.43-2.52,7.67-4.01,12.26-4.01c4.88,0,9.359,1.68,12.9,4.51c2.09,1.65,3.85,3.7,5.17,6.04
	C200.201,45.48,201.171,48.96,201.171,52.67z"/>
<linearGradient id="SVGID_66_" gradientUnits="userSpaceOnUse" x1="201.5234" y1="571.3076" x2="188.5586" y2="586.6462" gradientTransform="matrix(0.8692 -0.4944 0.4944 0.8692 -258.7173 -388.9517)">
	<stop  offset="0" style="stop-color:#F15B2B"/>
	<stop  offset="1" style="stop-color:#FCEE23"/>
</linearGradient>
<polygon fill="url(#SVGID_66_)" points="196.177,19.295 194.272,11.048 196.647,19.173 197.676,16.303 197.112,19.301 
	203.306,13.53 197.454,19.646 200.896,18.93 197.576,20.115 205.671,22.591 197.448,20.583 200.313,23.72 197.103,20.924 
	199.006,29.171 196.634,21.046 195.659,24.641 196.167,20.917 189.976,26.689 195.826,20.572 193.217,20.853 195.704,20.104 
	187.608,17.627 195.832,19.636 193.565,16.916 "/>
<linearGradient id="SVGID_67_" gradientUnits="userSpaceOnUse" x1="510.4189" y1="500.8164" x2="492.6682" y2="521.8173" gradientTransform="matrix(1 0 0 1 -307.3203 -480.9199)">
	<stop  offset="0" style="stop-color:#BDBEC0"/>
	<stop  offset="0.1317" style="stop-color:#B3B5B6"/>
	<stop  offset="0.3702" style="stop-color:#999B9D"/>
	<stop  offset="0.6854" style="stop-color:#737577"/>
	<stop  offset="1" style="stop-color:#424143"/>
</linearGradient>
<path fill="url(#SVGID_67_)" d="M188.911,43.903c0,0,8.646-5.08,8.671-8.434c0.024-3.354-6.786-4.746-6.088-8.43
	s4.403-5.782,4.403-5.782l-0.441-0.897c0,0-6.287,3.644-5.529,6.892c0.76,3.248,4.098,5.508,4.637,8.308
	c0.537,2.799-6.979,6.21-6.979,6.21s-2.004-1.245-0.348,1.563C188.896,46.139,188.911,43.903,188.911,43.903z"/>
<linearGradient id="SVGID_68_" gradientUnits="userSpaceOnUse" x1="414.4268" y1="761.6289" x2="414.7552" y2="735.6756" gradientTransform="matrix(1 0 0 1 -307.3203 -480.9199)">
	<stop  offset="0" style="stop-color:#010101"/>
	<stop  offset="0.0851" style="stop-color:#220D0D"/>
	<stop  offset="0.2206" style="stop-color:#3D1312"/>
	<stop  offset="0.3893" style="stop-color:#600C0D"/>
	<stop  offset="0.5848" style="stop-color:#861619"/>
	<stop  offset="0.7998" style="stop-color:#B72025"/>
	<stop  offset="1" style="stop-color:#EC2227"/>
</linearGradient>
<path fill="url(#SVGID_68_)" d="M142.36,266.5c0,2.92-1.851,5.641-5.069,7.96c-0.011,0.011-0.03,0.021-0.04,0.03
	c-2.79,2-6.59,3.699-11.09,4.96c-4.98,1.39-10.811,2.25-17.07,2.39c-0.49,0.01-0.97,0.02-1.46,0.02h-0.35
	c-5.83,0-11.32-0.617-16.16-1.729c-11.24-2.55-18.91-7.689-18.91-13.63c0-6.778,10.03-12.528,23.95-14.569
	c3.49-0.511,7.229-0.789,11.12-0.789c4.989,0,9.739,0.459,14.04,1.289C133.711,254.79,142.36,260.2,142.36,266.5z"/>
<linearGradient id="SVGID_69_" gradientUnits="userSpaceOnUse" x1="413.958" y1="761.793" x2="414.2356" y2="739.8678" gradientTransform="matrix(1 0 0 1 -307.3203 -480.9199)">
	<stop  offset="0" style="stop-color:#010101"/>
	<stop  offset="0.1326" style="stop-color:#1E0D0D"/>
	<stop  offset="0.322" style="stop-color:#381312"/>
	<stop  offset="0.5456" style="stop-color:#54100F"/>
	<stop  offset="0.7933" style="stop-color:#761113"/>
	<stop  offset="1" style="stop-color:#941A1D"/>
</linearGradient>
<path fill="url(#SVGID_69_)" d="M140.551,269.05c0,1.94-1.188,3.771-3.26,5.41c-0.011,0.011-0.03,0.021-0.04,0.03
	c-2.57,2.029-6.49,3.75-11.13,5.02c-5.08,1.4-11.021,2.24-17.03,2.33c-0.39,0.02-0.78,0.02-1.17,0.02h-0.29
	c-5.61-0.027-11.47-0.789-16.729-2.08c-10.011-2.42-17.87-6.719-17.87-11.389c0-4.648,7.81-8.521,17.76-10.67
	c5.38-1.15,11.39-1.811,17.13-1.811c6.55,0,13.09,0.96,18.57,2.561C134.711,260.88,140.551,264.75,140.551,269.05z"/>
<radialGradient id="SVGID_70_" cx="421.9912" cy="740.4053" r="38.9847" gradientTransform="matrix(1 0 0 1 -307.3203 -480.9199)" gradientUnits="userSpaceOnUse">
	<stop  offset="0.0121" style="stop-color:#424143"/>
	<stop  offset="0.0848" style="stop-color:#6E6F72"/>
	<stop  offset="0.1143" style="stop-color:#636467"/>
	<stop  offset="0.2099" style="stop-color:#454647"/>
	<stop  offset="0.3144" style="stop-color:#2B2B2D"/>
	<stop  offset="0.4295" style="stop-color:#181819"/>
	<stop  offset="0.5607" style="stop-color:#0C0C0D"/>
	<stop  offset="0.7217" style="stop-color:#030303"/>
	<stop  offset="1" style="stop-color:#010101"/>
</radialGradient>
<path fill="url(#SVGID_70_)" d="M129.171,268.67c0,3.95-1.1,7.641-3.01,10.78c-0.021,0.021-0.03,0.04-0.04,0.06
	c-5.08,1.4-11.021,2.24-17.03,2.33c-0.39,0.02-0.78,0.02-1.17,0.02h-0.64c-5.83,0-11.32-0.617-16.16-1.729
	c-0.08-0.109-0.15-0.229-0.22-0.352c-2.051-3.209-3.23-7.021-3.23-11.108c0-4.021,1.14-7.771,3.12-10.948
	c1.41-2.262,3.229-4.222,5.37-5.791c3.43-2.521,7.67-4.011,12.26-4.011c4.88,0,9.36,1.681,12.9,4.511
	c2.09,1.649,3.85,3.699,5.17,6.041C128.201,261.48,129.171,264.96,129.171,268.67z"/>
<linearGradient id="SVGID_71_" gradientUnits="userSpaceOnUse" x1="32.1465" y1="723.46" x2="19.1815" y2="738.7988" gradientTransform="matrix(0.8692 -0.4944 0.4944 0.8692 -258.7173 -388.9517)">
	<stop  offset="0" style="stop-color:#F15B2B"/>
	<stop  offset="1" style="stop-color:#FCEE23"/>
</linearGradient>
<polygon fill="url(#SVGID_71_)" points="124.177,235.295 122.273,227.048 124.647,235.173 125.676,232.303 125.112,235.301 
	131.306,229.529 125.454,235.646 128.896,234.93 125.576,236.115 133.671,238.592 125.448,236.583 128.313,239.721 125.103,236.924 
	127.006,245.172 124.634,237.046 123.659,240.641 124.167,236.918 117.976,242.689 123.826,236.572 121.217,236.854 
	123.704,236.104 115.609,233.627 123.832,235.636 121.565,232.916 "/>
<linearGradient id="SVGID_72_" gradientUnits="userSpaceOnUse" x1="438.417" y1="716.8164" x2="420.6672" y2="737.8162" gradientTransform="matrix(1 0 0 1 -307.3203 -480.9199)">
	<stop  offset="0" style="stop-color:#BDBEC0"/>
	<stop  offset="0.1317" style="stop-color:#B3B5B6"/>
	<stop  offset="0.3702" style="stop-color:#999B9D"/>
	<stop  offset="0.6854" style="stop-color:#737577"/>
	<stop  offset="1" style="stop-color:#424143"/>
</linearGradient>
<path fill="url(#SVGID_72_)" d="M116.911,259.902c0,0,8.646-5.08,8.671-8.436c0.024-3.354-6.786-4.744-6.088-8.43
	c0.698-3.686,4.403-5.782,4.403-5.782l-0.441-0.896c0,0-6.287,3.644-5.529,6.892c0.76,3.248,4.098,5.509,4.636,8.308
	s-6.978,6.211-6.978,6.211s-2.004-1.246-0.347,1.563C116.895,262.139,116.911,259.902,116.911,259.902z"/>
</svg>
