<?xml version="1.0" encoding="utf-8"?>
<!-- Generator: Adobe Illustrator 15.0.0, SVG Export Plug-In  -->
<!DOCTYPE svg PUBLIC "-//W3C//DTD SVG 1.1//EN" "http://www.w3.org/Graphics/SVG/1.1/DTD/svg11.dtd" [
	<!ENTITY ns_flows "http://ns.adobe.com/Flows/1.0/">
]>
<svg version="1.1"
	 xmlns="http://www.w3.org/2000/svg" xmlns:xlink="http://www.w3.org/1999/xlink" xmlns:a="http://ns.adobe.com/AdobeSVGViewerExtensions/3.0/"
	 x="0px" y="0px" width="600px" height="100px" viewBox="-7.876 -1.689 600 100" enable-background="new -7.876 -1.689 600 100"
	 xml:space="preserve">
<defs>
</defs>
<path fill="#9B3D97" stroke="#001A4B" stroke-width="5" stroke-miterlimit="10" d="M164.949,4.292c0,0-146.159-5.981-155.145,3.912
	C-2.594,21.856,2.21,91.026,13.638,93.411c15.486,3.232,150.06-0.512,150.06-0.512c153.809-3.129,154.05-1.002,218.918-1.439
	c59.258-0.399,177.758,6.851,195.326-0.378c11.156-4.59,9.596-81.298,0.833-84.049c-21.651-6.797-179.904-0.786-204.829-0.786
	C349.021,6.248,164.949,4.292,164.949,4.292z"/>
<path fill="#772283" d="M23.124,56.441c-8.046,3.563-5,21.076,4,25.76s196.931-1.261,256-2.342c64-1.17,263,16.393,272,3.514
	c9-12.881,28-12.881-13-22.248s-235.021-4.616-262-5.855C229.124,52.928,60.124,40.048,23.124,56.441z"/>
<path fill="#9484BE" d="M22.229,22.005c0,0,197.99,5.27,260.987,5.27s283.485,5.268,277.486-7.026
	c-5.999-12.293-260.986-7.025-275.986-5.268C269.716,16.736,23.729,0.929,22.229,22.005z"/>
</svg>
