<?xml version="1.0" encoding="utf-8"?>
<!-- Generator: Adobe Illustrator 15.0.0, SVG Export Plug-In . SVG Version: 6.00 Build 0)  -->
<!DOCTYPE svg PUBLIC "-//W3C//DTD SVG 1.1//EN" "http://www.w3.org/Graphics/SVG/1.1/DTD/svg11.dtd">
<svg version="1.1" id="Layer_1" xmlns="http://www.w3.org/2000/svg" xmlns:xlink="http://www.w3.org/1999/xlink" x="0px" y="0px"
	 width="800px" height="480px" viewBox="0 0 800 480" enable-background="new 0 0 800 480" xml:space="preserve">
<linearGradient id="SVGID_1_" gradientUnits="userSpaceOnUse" x1="1538.6309" y1="832.0098" x2="1537.8114" y2="983.6514" gradientTransform="matrix(1 0 0 1 -1113.5605 -837.1602)">
	<stop  offset="0" style="stop-color:#D9DDFF"/>
	<stop  offset="0.9956" style="stop-color:#73D0FF"/>
</linearGradient>
<rect x="0.5" y="0.5" fill="url(#SVGID_1_)" stroke="#000000" stroke-miterlimit="10" width="848.361" height="132.785"/>
<linearGradient id="SVGID_2_" gradientUnits="userSpaceOnUse" x1="1524.9346" y1="948.2568" x2="1527.3937" y2="1328.5859" gradientTransform="matrix(1 0 0 1 -1113.5605 -837.1602)">
	<stop  offset="0.0044" style="stop-color:#74C044"/>
	<stop  offset="0.1834" style="stop-color:#76BC41"/>
	<stop  offset="0.4065" style="stop-color:#7CB63B"/>
	<stop  offset="0.6531" style="stop-color:#82AC32"/>
	<stop  offset="0.9148" style="stop-color:#839B23"/>
	<stop  offset="1" style="stop-color:#82951D"/>
</linearGradient>
<rect x="-5" y="114.893" fill="url(#SVGID_2_)" width="835.246" height="378.688"/>
<linearGradient id="SVGID_3_" gradientUnits="userSpaceOnUse" x1="1137.2363" y1="960.8164" x2="1138.0618" y2="1063.6018" gradientTransform="matrix(1 0 0 1 -1113.5605 -837.1602)">
	<stop  offset="0" style="stop-color:#7FC242"/>
	<stop  offset="0.3526" style="stop-color:#69B745"/>
	<stop  offset="1" style="stop-color:#1AA249"/>
</linearGradient>
<path display="none" fill="url(#SVGID_3_)" d="M28.705,225.684c0,0-2.459-23.771-9.836-42.623S7.393,151.094,7.393,151.094
	s22.131,32.787,24.59,43.443c2.459,10.656-7.377-57.377-10.656-67.213c-3.279-9.836,13.115,22.951,13.115,22.951l6.557,75.41"/>
<linearGradient id="SVGID_4_" gradientUnits="userSpaceOnUse" x1="2678.9287" y1="1028.749" x2="2679.7542" y2="1131.5334" gradientTransform="matrix(-1 0 0 1 2749.1875 -837.1602)">
	<stop  offset="0" style="stop-color:#7FC242"/>
	<stop  offset="0.3526" style="stop-color:#69B745"/>
	<stop  offset="1" style="stop-color:#1AA249"/>
</linearGradient>
<path display="none" fill="url(#SVGID_4_)" d="M65.23,293.619c0,0,2.459-23.77,9.836-42.623
	c7.377-18.853,11.475-31.967,11.475-31.967s-22.131,32.788-24.59,43.444c-2.459,10.654,7.377-57.375,10.656-67.214
	c3.278-9.836-13.115,22.951-13.115,22.951l-6.557,75.41"/>
<linearGradient id="SVGID_5_" gradientUnits="userSpaceOnUse" x1="1846.0732" y1="994.0107" x2="1846.8987" y2="1096.7975" gradientTransform="matrix(1 0 0 1 -1113.5605 -837.1602)">
	<stop  offset="0" style="stop-color:#7FC242"/>
	<stop  offset="0.3526" style="stop-color:#69B745"/>
	<stop  offset="1" style="stop-color:#1AA249"/>
</linearGradient>
<path display="none" fill="url(#SVGID_5_)" d="M737.541,258.88c0,0-2.459-23.77-9.836-42.623
	c-7.377-18.852-11.475-31.967-11.475-31.967s22.131,32.787,24.59,43.443c2.459,10.655-7.377-57.378-10.656-67.214
	c-3.277-9.836,13.115,22.951,13.115,22.951l6.557,75.41"/>
<linearGradient id="SVGID_6_" gradientUnits="userSpaceOnUse" x1="1975.4727" y1="1006.3066" x2="1976.2981" y2="1109.092" gradientTransform="matrix(-1 0 0 1 2749.1875 -837.1602)">
	<stop  offset="0" style="stop-color:#7FC242"/>
	<stop  offset="0.3526" style="stop-color:#69B745"/>
	<stop  offset="1" style="stop-color:#1AA249"/>
</linearGradient>
<path display="none" fill="url(#SVGID_6_)" d="M768.689,271.176c0,0,2.459-23.77,9.836-42.624
	C785.902,209.7,790,196.585,790,196.585s-22.131,32.787-24.59,43.443s7.377-57.378,10.656-67.214
	c3.273-9.836-13.115,22.951-13.115,22.951l-6.562,75.41"/>
<linearGradient id="SVGID_7_" gradientUnits="userSpaceOnUse" x1="1145.5791" y1="-402.834" x2="1146.6879" y2="-264.7565" gradientTransform="matrix(1 0 0 -1 -1092.6006 -297.5)">
	<stop  offset="0" style="stop-color:#108000"/>
	<stop  offset="1" style="stop-color:#00FF27"/>
</linearGradient>
<path display="none" fill="url(#SVGID_7_)" d="M20.5,97.141c21,17,36-10,36-10s8,16,31,5s10-33,10-33s31,5,38-15s-23-36-23-36
	s12-27-16-36s-32,14-32,14s-1-20-26-18s-24,23-24,23s-28-10-32,10s15,32,15,32s-29,3-27,16s25,14,25,14s-15,13-5,24
	S20.5,97.141,20.5,97.141z"/>
<linearGradient id="SVGID_8_" gradientUnits="userSpaceOnUse" x1="1249.5791" y1="-412.1919" x2="1250.6877" y2="-274.1165" gradientTransform="matrix(1 0 0 -1 -1092.6006 -297.5)">
	<stop  offset="0" style="stop-color:#108000"/>
	<stop  offset="1" style="stop-color:#00B927"/>
</linearGradient>
<path display="none" fill="url(#SVGID_8_)" d="M124.5,106.5c21,17,36-10,36-10s8,16,31,5s10-33,10-33s31,5,38-15s-23-36-23-36
	s12-27-16-36s-32,14-32,14s-1-20-26-18s-24,23-24,23s-28-10-32,10s15,32,15,32s-29,3-27,16s25,14,25,14s-15,13-5,24
	S124.5,106.5,124.5,106.5z"/>
<linearGradient id="SVGID_9_" gradientUnits="userSpaceOnUse" x1="1749.5791" y1="-391.1943" x2="1750.688" y2="-253.118" gradientTransform="matrix(1 0 0 -1 -1092.6006 -297.5)">
	<stop  offset="0" style="stop-color:#108000"/>
	<stop  offset="1" style="stop-color:#00B927"/>
</linearGradient>
<path display="none" fill="url(#SVGID_9_)" d="M624.5,85.5c21,17,36-10,36-10s8,16,31,5s10-33,10-33s31,5,38-15s-23-36-23-36
	s12-27-16-36s-32,14-32,14s-1-20-26-18s-24,23-24,23s-28-10-32,10s15,32,15,32s-29,3-27,16s25,14,25,14s-15,13-5,24
	S624.5,85.5,624.5,85.5z"/>
<linearGradient id="SVGID_10_" gradientUnits="userSpaceOnUse" x1="1365.5791" y1="-397.1938" x2="1366.688" y2="-259.1154" gradientTransform="matrix(1 0 0 -1 -1092.6006 -297.5)">
	<stop  offset="0" style="stop-color:#104F00"/>
	<stop  offset="1" style="stop-color:#00B927"/>
</linearGradient>
<path display="none" fill="url(#SVGID_10_)" d="M240.5,91.5c21,17,36-10,36-10s8,16,31,5s10-33,10-33s31,5,38-15s-23-36-23-36
	s12-27-16-36s-32,14-32,14s-1-20-26-18s-24,23-24,23s-28-10-32,10s15,32,15,32s-29,3-27,16s25,14,25,14s-15,13-5,24
	S240.5,91.5,240.5,91.5z"/>
<linearGradient id="SVGID_11_" gradientUnits="userSpaceOnUse" x1="1531.5791" y1="-373.1958" x2="1532.688" y2="-235.1173" gradientTransform="matrix(1 0 0 -1 -1092.6006 -297.5)">
	<stop  offset="0" style="stop-color:#104F00"/>
	<stop  offset="1" style="stop-color:#00FF27"/>
</linearGradient>
<path display="none" fill="url(#SVGID_11_)" d="M406.5,67.5c21,17,36-10,36-10s8,16,31,5s10-33,10-33s31,5,38-15s-23-36-23-36
	s12-27-16-36s-32,14-32,14s-1-20-26-18s-24,23-24,23s-28-10-32,10s15,32,15,32s-29,3-27,16s25,14,25,14s-15,13-5,24
	S406.5,67.5,406.5,67.5z"/>
<linearGradient id="SVGID_12_" gradientUnits="userSpaceOnUse" x1="1871.5801" y1="-394.1924" x2="1872.689" y2="-256.1154" gradientTransform="matrix(1 0 0 -1 -1092.6006 -297.5)">
	<stop  offset="0" style="stop-color:#104F00"/>
	<stop  offset="1" style="stop-color:#00B927"/>
</linearGradient>
<path display="none" fill="url(#SVGID_12_)" d="M746.5,88.5c21,17,36-10,36-10s8,16,31,5s10-33,10-33s31,5,38-15s-23-36-23-36
	s12-27-16-36s-32,14-32,14s-1-20-26-18s-24,23-24,23s-28-10-32,10s15,32,15,32s-29,3-27,16s25,14,25,14s-15,13-5,24
	S746.5,88.5,746.5,88.5z"/>
<linearGradient id="SVGID_13_" gradientUnits="userSpaceOnUse" x1="1870.7773" y1="-438.0215" x2="1871.6409" y2="-330.4875" gradientTransform="matrix(1 0 0 -1 -1092.6006 -297.5)">
	<stop  offset="0" style="stop-color:#A24400"/>
	<stop  offset="1" style="stop-color:#D08400"/>
</linearGradient>
<path display="none" fill="url(#SVGID_13_)" d="M761.5,33.5c0,0,5,32,14,31s21-22,21-22s-15,50-14,57s4,36,4,36l-25,3c0,0,7-43,7-56
	"/>
<linearGradient id="SVGID_14_" gradientUnits="userSpaceOnUse" x1="2541.5742" y1="-440.0234" x2="2542.4377" y2="-332.4875" gradientTransform="matrix(-1 0 0 -1 3210.3984 -297.5)">
	<stop  offset="0" style="stop-color:#A24400"/>
	<stop  offset="1" style="stop-color:#D08400"/>
</linearGradient>
<path display="none" fill="url(#SVGID_14_)" d="M685.5,35.5c0,0-5,32-14,31s-21-22-21-22s15,50,14,57s-4,36-4,36l25,3c0,0-7-43-7-56
	"/>
<linearGradient id="SVGID_15_" gradientUnits="userSpaceOnUse" x1="1134.7764" y1="-436.1484" x2="1135.7156" y2="-319.1979" gradientTransform="matrix(1 0 0 -1 -1092.6006 -297.5)">
	<stop  offset="0" style="stop-color:#A24400"/>
	<stop  offset="1" style="stop-color:#D08400"/>
</linearGradient>
<path display="none" fill="url(#SVGID_15_)" d="M17.5,34.5c0,0,10,40,23,39s14-51,14-51s1,17,5,22s14-6,14-6s-25,45-23,61s2,36,2,36
	l-22,1c0,0,3-27,1-43s-19-60-19-60L17.5,34.5z"/>
<linearGradient id="SVGID_16_" gradientUnits="userSpaceOnUse" x1="1510.665" y1="1234.9863" x2="1511.5403" y2="1329.547" gradientTransform="matrix(1 0 0 1 -1113.5605 -837.1602)">
	<stop  offset="0.2606" style="stop-color:#820D12"/>
	<stop  offset="0.9636" style="stop-color:#F47B60"/>
</linearGradient>
<polygon fill="url(#SVGID_16_)" points="734.368,409.012 60.033,407.516 75.033,485.365 457.746,485.365 457.746,485.273 
	717.368,486.86 "/>
<linearGradient id="SVGID_17_" gradientUnits="userSpaceOnUse" x1="1507.749" y1="845.5938" x2="1511.0648" y2="1258.474" gradientTransform="matrix(1 0 0 1 -1113.5605 -837.1602)">
	<stop  offset="0" style="stop-color:#ED1C24"/>
	<stop  offset="0.0914" style="stop-color:#EF3A2D"/>
	<stop  offset="0.2789" style="stop-color:#F26A50"/>
	<stop  offset="0.2978" style="stop-color:#F36F54"/>
	<stop  offset="0.3911" style="stop-color:#F37257"/>
	<stop  offset="0.4933" style="stop-color:#F3755A"/>
	<stop  offset="0.5867" style="stop-color:#F3785D"/>
	<stop  offset="0.6889" style="stop-color:#F47B60"/>
	<stop  offset="0.9212" style="stop-color:#ED1C24"/>
	<stop  offset="1" style="stop-color:#A90F14"/>
</linearGradient>
<path fill="url(#SVGID_17_)" d="M765.059,354.078c-16.471-44.338-53.563-98.32-64.946-128.689
	c-20.569-54.852-10.737-79.508-16.479-113.115c-1.59-9.312-4.764-16.411-15.572-34.426c-12.296-20.492-10.572-48.732-22.439-57.071
	c-7.108-4.995-166.428-3.164-252.694-1.796c-87.813-1.639-237.251-3.693-244.131,1.14c-11.868,8.339-10.149,36.58-22.445,57.071
	c-10.81,18.016-13.984,25.115-15.574,34.426c-5.738,33.607,4.094,58.263-16.475,113.115
	c-11.389,30.371-48.482,84.352-64.951,128.689c-11.979,32.249,0.083,61.777,0.083,61.777s112.01-3.655,149.354-3.696
	c54.31-0.06,162.906,3.804,217.212,4.442c15.368,0.181,61.479,0.125,61.479,0.125l-0.001-0.313c0,0,102.05-2.97,136.063-2.959
	c42.857,0.019,171.438,3.056,171.438,3.056S777.036,386.326,765.059,354.078z"/>
<linearGradient id="SVGID_18_" gradientUnits="userSpaceOnUse" x1="1209.3809" y1="1038.9307" x2="1818.3949" y2="1038.111" gradientTransform="matrix(1 0 0 1 -1113.5605 -837.1602)">
	<stop  offset="0" style="stop-color:#B91319"/>
	<stop  offset="0.0914" style="stop-color:#BB2C21"/>
	<stop  offset="0.2789" style="stop-color:#C2553F"/>
	<stop  offset="0.2978" style="stop-color:#C25843"/>
	<stop  offset="0.7091" style="stop-color:#CB6750"/>
	<stop  offset="0.9455" style="stop-color:#AF1116"/>
</linearGradient>
<path fill="url(#SVGID_18_)" d="M698.369,360.635l-67.656-189.848l14.761-55.234L618.98,39.585l-92.65,15.832l-53.278-0.819
	l-29.508,4.918L350.099,48.04l-73.771,4.918L175.423,38.929l-26.494,75.968l14.76,55.234L96.032,359.979
	c0,0,73.723-3.722,98.322-3.963c49.188-0.479,147.53,7.787,196.721,8.074c41.804,0.244,63.282-3.977,63.282-3.977l0.001-0.067
	c0,0,85.938-5.793,114.586-5.724C601.302,354.4,698.369,360.635,698.369,360.635z"/>
<linearGradient id="SVGID_19_" gradientUnits="userSpaceOnUse" x1="2425.96" y1="1207.0742" x2="2512.5215" y2="871.446" gradientTransform="matrix(-1 0 0 1 3121.8594 -837.1602)">
	<stop  offset="0" style="stop-color:#B91319"/>
	<stop  offset="0.0911" style="stop-color:#C72F24"/>
	<stop  offset="0.2782" style="stop-color:#EC684E"/>
	<stop  offset="0.297" style="stop-color:#F36F54"/>
	<stop  offset="0.6061" style="stop-color:#BA141A"/>
	<stop  offset="0.7758" style="stop-color:#F36F54"/>
	<stop  offset="0.9636" style="stop-color:#C52921"/>
</linearGradient>
<path fill="url(#SVGID_19_)" d="M618.418,39.322c0,0,19.591,22.302,27.787,61.95c8.197,39.648-13.938,30.562-5.737,80.947
	c5.122,31.484,36.892,97.49,54.655,139.426c10.668,25.18,11.738,38.987,11.738,38.987l-29.41-1.178
	c0,0-21.791-85.568-32.524-115.287c-7.347-20.337-18.027-60.297-15.568-85.077c2.459-24.78,13.982-17.554,5.459-46.777
	c-3.36-11.515-22.218-29.734-22.218-29.734L618.418,39.322z"/>
<linearGradient id="SVGID_20_" gradientUnits="userSpaceOnUse" x1="1212.0625" y1="1206.4199" x2="1298.6237" y2="870.7922" gradientTransform="matrix(1 0 0 1 -1113.5605 -837.1602)">
	<stop  offset="0" style="stop-color:#B31217"/>
	<stop  offset="0.0911" style="stop-color:#C22E23"/>
	<stop  offset="0.2782" style="stop-color:#EC684E"/>
	<stop  offset="0.297" style="stop-color:#F36F54"/>
	<stop  offset="0.6061" style="stop-color:#B11116"/>
	<stop  offset="0.7636" style="stop-color:#F36F54"/>
	<stop  offset="0.903" style="stop-color:#A81E17"/>
</linearGradient>
<path fill="url(#SVGID_20_)" d="M175.984,38.667c0,0-19.59,22.302-27.787,61.95c-8.197,39.648,13.935,30.562,5.738,80.947
	c-5.122,31.484-36.887,97.489-54.656,139.426c-10.667,25.175-11.738,38.984-11.738,38.984l29.41-1.181
	c0,0,21.79-85.563,32.524-115.28c7.346-20.343,18.033-60.303,15.574-85.083c-2.459-24.78-13.988-17.554-5.459-46.777
	c3.361-11.515,22.213-29.734,22.213-29.734L175.984,38.667z"/>
<linearGradient id="SVGID_21_" gradientUnits="userSpaceOnUse" x1="1306.8838" y1="899.0186" x2="1724.4795" y2="901.4611" gradientTransform="matrix(1 0 0 1 -1113.5605 -837.1602)">
	<stop  offset="0" style="stop-color:#9C0A0E"/>
	<stop  offset="0.0744" style="stop-color:#A52419"/>
	<stop  offset="0.2271" style="stop-color:#BE533D"/>
	<stop  offset="0.2424" style="stop-color:#C05742"/>
	<stop  offset="0.5576" style="stop-color:#890203"/>
	<stop  offset="0.7939" style="stop-color:#BE5741"/>
	<stop  offset="1" style="stop-color:#861206"/>
</linearGradient>
<path fill="url(#SVGID_21_)" d="M620.927,39.584c0,0-63.53,5.071-84.763,5.176c-36.112,0.179-108.151-6.959-144.263-7.377
	c-30.969-0.358-104.502,4.875-123.771,4.918c-21.524,0.048-92.656-3.373-92.656-3.373l6,44.001c0,0,65.583,3.958,87.475,4.133
	c30.546,0.244,91.584-3.782,122.131-3.814c36.695-0.039,110.028,6.643,146.722,6.223c18.809-0.215,75.122-5.886,75.122-5.886
	L620.927,39.584z"/>
<linearGradient id="SVGID_22_" gradientUnits="userSpaceOnUse" x1="1720.8857" y1="-772.6479" x2="1721.2969" y2="-728.2296" gradientTransform="matrix(1 0 0 -1 -1092.6006 -297.5)">
	<stop  offset="0.0364" style="stop-color:#979797"/>
	<stop  offset="0.9576" style="stop-color:#414141"/>
</linearGradient>
<polygon fill="url(#SVGID_22_)" points="680.5,471.5 567.5,471.5 570.5,432.5 689.5,432.5 "/>
<linearGradient id="SVGID_23_" gradientUnits="userSpaceOnUse" x1="1720.5166" y1="-755.0566" x2="1720.6064" y2="-745.3514" gradientTransform="matrix(1 0 0 -1 -1092.6006 -297.5)">
	<stop  offset="0.0424" style="stop-color:#414141"/>
	<stop  offset="0.9636" style="stop-color:#060606"/>
</linearGradient>
<polygon fill="url(#SVGID_23_)" points="666.5,456.5 586.5,456.5 586.5,448.5 669.5,448.5 "/>
<linearGradient id="SVGID_24_" gradientUnits="userSpaceOnUse" x1="905.0635" y1="-334.582" x2="905.1361" y2="-326.7513" gradientTransform="matrix(1 0 0 -1 -1092.6006 -297.5)">
	<stop  offset="0.0364" style="stop-color:#060606"/>
	<stop  offset="0.9576" style="stop-color:#414141"/>
</linearGradient>
<rect x="-191.5" y="29.5" fill="url(#SVGID_24_)" width="8" height="7"/>
<linearGradient id="SVGID_25_" gradientUnits="userSpaceOnUse" x1="1412.5313" y1="-792.5347" x2="1413.1364" y2="-727.1498" gradientTransform="matrix(1 0 0 -1 -1092.6006 -297.5)">
	<stop  offset="0.0424" style="stop-color:#5CBAFF"/>
	<stop  offset="0.9636" style="stop-color:#2500D0"/>
</linearGradient>
<polygon fill="url(#SVGID_25_)" points="544.5,433.5 96.5,433.5 104.5,488.5 539.5,488.5 "/>
<linearGradient id="SVGID_26_" gradientUnits="userSpaceOnUse" x1="1519.7432" y1="-788.1636" x2="1520.2108" y2="-737.6268" gradientTransform="matrix(1 0 0 -1 -1092.6006 -297.5)">
	<stop  offset="0.0424" style="stop-color:#FFF017"/>
	<stop  offset="0.9636" style="stop-color:#FFCA1F"/>
</linearGradient>
<path fill="url(#SVGID_26_)" d="M356.5,486.5c-2-3-19-38-19-38l61,22l29-29l-8,30l73-26l-35,29l60-19l-45,27L356.5,486.5z"/>
<linearGradient id="SVGID_27_" gradientUnits="userSpaceOnUse" x1="916.1006" y1="-429" x2="916.1006" y2="-429" gradientTransform="matrix(1 0 0 -1 -1092.6006 -297.5)">
	<stop  offset="0.0424" style="stop-color:#FFF017"/>
	<stop  offset="0.9636" style="stop-color:#FFCA1F"/>
</linearGradient>
<path fill="url(#SVGID_27_)" d="M-176.5,131.5"/>
<linearGradient id="SVGID_28_" gradientUnits="userSpaceOnUse" x1="1349.3232" y1="-787.8916" x2="1349.801" y2="-736.2689" gradientTransform="matrix(1 0 0 -1 -1092.6006 -297.5)">
	<stop  offset="0.0424" style="stop-color:#D000AA"/>
	<stop  offset="0.9636" style="stop-color:#FF2EBF"/>
</linearGradient>
<path fill="url(#SVGID_28_)" d="M155.691,485.5c-3.199,0-35.191-31-35.191-31l34.125,17l-17.063-30l31.992,27l14.93-29v31l65.051-27
	l-21.328,25l97.043-24l-73.582,31l139.699-29l-86.379,29l88.512-9l-61.852,21L155.691,485.5z"/>
<linearGradient id="SVGID_29_" gradientUnits="userSpaceOnUse" x1="1632.5117" y1="557.9326" x2="1632.9294" y2="609.9456" gradientTransform="matrix(-1 0 0 1 1693.3516 -360.9199)">
	<stop  offset="0" style="stop-color:#7FC142"/>
	<stop  offset="0.2494" style="stop-color:#6ABA43"/>
	<stop  offset="0.7609" style="stop-color:#35AA47"/>
	<stop  offset="1" style="stop-color:#1AA149"/>
</linearGradient>
<path fill="url(#SVGID_29_)" d="M58.295,248.641c0,0,1.244-12.025,4.977-21.566c3.733-9.54,5.807-16.175,5.807-16.175
	s-11.198,16.591-12.443,21.984c-1.244,5.391,3.733-29.036,5.393-34.013c1.66-4.977-6.637,11.614-6.637,11.614l-3.317,38.161"/>
<linearGradient id="SVGID_30_" gradientUnits="userSpaceOnUse" x1="471.3301" y1="559.2832" x2="471.5898" y2="591.6226" gradientTransform="matrix(1 0 0 1 -445.3203 -360.9199)">
	<stop  offset="0" style="stop-color:#7FC142"/>
	<stop  offset="0.2494" style="stop-color:#6ABA43"/>
	<stop  offset="0.7609" style="stop-color:#35AA47"/>
	<stop  offset="1" style="stop-color:#1AA149"/>
</linearGradient>
<path fill="url(#SVGID_30_)" d="M27.917,230.455c0,0-0.952-7.477-3.806-13.406c-2.854-5.93-4.439-10.054-4.439-10.054
	s8.563,10.313,9.514,13.663c0.951,3.352-2.854-18.046-4.123-21.139c-1.269-3.093,5.074,7.218,5.074,7.218l2.537,23.718"/>
<linearGradient id="SVGID_31_" gradientUnits="userSpaceOnUse" x1="464.5625" y1="641.5713" x2="465.0565" y2="703.0685" gradientTransform="matrix(1 0 0 1 -445.3203 -360.9199)">
	<stop  offset="0" style="stop-color:#7FC142"/>
	<stop  offset="0.2494" style="stop-color:#6ABA43"/>
	<stop  offset="0.7609" style="stop-color:#35AA47"/>
	<stop  offset="1" style="stop-color:#1AA149"/>
</linearGradient>
<path fill="url(#SVGID_31_)" d="M22.25,341.697c0,0-1.471-14.223-5.885-25.502c-4.414-11.279-6.866-19.127-6.866-19.127
	s13.241,19.617,14.713,25.992c1.472,6.377-4.414-34.33-6.375-40.216c-1.962-5.886,7.847,13.731,7.847,13.731l3.923,45.117"/>
<linearGradient id="SVGID_32_" gradientUnits="userSpaceOnUse" x1="502.4971" y1="583.6055" x2="511.4131" y2="583.6055" gradientTransform="matrix(0.9732 -0.2301 0.2301 0.9732 -535.4169 -333.9135)">
	<stop  offset="0" style="stop-color:#262261"/>
	<stop  offset="1" style="stop-color:#262261"/>
</linearGradient>
<polygon fill="url(#SVGID_32_)" points="95.954,114.051 95.721,112.707 89.916,119.295 88.777,122.09 90.867,121.416 "/>
<linearGradient id="SVGID_33_" gradientUnits="userSpaceOnUse" x1="459.0039" y1="446.0811" x2="549.4688" y2="446.0811" gradientTransform="matrix(1 0 0 1 -445.3203 -360.9199)">
	<stop  offset="0" style="stop-color:#8BC53F"/>
	<stop  offset="0.02" style="stop-color:#81C13F"/>
	<stop  offset="0.0952" style="stop-color:#5EB541"/>
	<stop  offset="0.1785" style="stop-color:#41AA42"/>
	<stop  offset="0.2703" style="stop-color:#29A243"/>
	<stop  offset="0.3741" style="stop-color:#179B44"/>
	<stop  offset="0.4971" style="stop-color:#0A9645"/>
	<stop  offset="0.6574" style="stop-color:#029445"/>
	<stop  offset="0.9956" style="stop-color:#009345"/>
</linearGradient>
<path fill="url(#SVGID_33_)" d="M13.683,83.218l43.465-1.414l47,3.181c-24.816,3.111-24.578,3.533-45.586,3.533
	C40.186,88.519,13.683,83.218,13.683,83.218z"/>
<linearGradient id="SVGID_34_" gradientUnits="userSpaceOnUse" x1="455.4707" y1="415.1621" x2="549.4688" y2="415.1621" gradientTransform="matrix(1 0 0 1 -445.3203 -360.9199)">
	<stop  offset="0" style="stop-color:#8BC53F"/>
	<stop  offset="0.559" style="stop-color:#3FAA42"/>
	<stop  offset="0.9956" style="stop-color:#009345"/>
</linearGradient>
<path fill="url(#SVGID_34_)" d="M58.563,23.497c0,0-14.839,25.696-21.203,33.218c-7.774,9.188-27.21,21.203-27.21,21.203
	l0.353,5.301l48.766-1.414l44.88,3.181l-0.707-8.481c0,0-16.962-8.835-25.443-17.316C67.453,48.643,58.563,23.497,58.563,23.497z"/>
<linearGradient id="SVGID_35_" gradientUnits="userSpaceOnUse" x1="490.2773" y1="410.1699" x2="514.3955" y2="410.1699" gradientTransform="matrix(1 0 0 1 -445.3203 -360.9199)">
	<stop  offset="0" style="stop-color:#F9EC31"/>
	<stop  offset="0.0525" style="stop-color:#F9E42F"/>
	<stop  offset="0.3253" style="stop-color:#F8C128"/>
	<stop  offset="0.5815" style="stop-color:#F7A722"/>
	<stop  offset="0.8123" style="stop-color:#F6971F"/>
	<stop  offset="0.9956" style="stop-color:#F6921E"/>
</linearGradient>
<polygon fill="url(#SVGID_35_)" points="58.563,23.232 44.957,75.001 58.475,75.267 69.075,75.001 "/>
<linearGradient id="SVGID_36_" gradientUnits="userSpaceOnUse" x1="467.75" y1="411.2295" x2="504.1475" y2="411.2295" gradientTransform="matrix(1 0 0 1 -445.3203 -360.9199)">
	<stop  offset="0" style="stop-color:#F9EC31"/>
	<stop  offset="0.0525" style="stop-color:#F9E42F"/>
	<stop  offset="0.3253" style="stop-color:#F8C128"/>
	<stop  offset="0.5815" style="stop-color:#F7A722"/>
	<stop  offset="0.8123" style="stop-color:#F6971F"/>
	<stop  offset="0.9956" style="stop-color:#F6921E"/>
</linearGradient>
<polygon fill="url(#SVGID_36_)" points="58.827,23.762 32.765,75.797 22.429,76.857 38.861,55.655 "/>
<linearGradient id="SVGID_37_" gradientUnits="userSpaceOnUse" x1="-3.8545" y1="411.0977" x2="29.5386" y2="411.0977" gradientTransform="matrix(-1 0 0 1 88.0137 -360.9199)">
	<stop  offset="0" style="stop-color:#F9EC31"/>
	<stop  offset="0.0525" style="stop-color:#F9E42F"/>
	<stop  offset="0.3253" style="stop-color:#F8C128"/>
	<stop  offset="0.5815" style="stop-color:#F7A722"/>
	<stop  offset="0.8123" style="stop-color:#F6971F"/>
	<stop  offset="0.9956" style="stop-color:#F6921E"/>
</linearGradient>
<polygon fill="url(#SVGID_37_)" points="58.475,23.497 78.086,75.532 91.868,76.857 76.761,55.655 "/>
<linearGradient id="SVGID_38_" gradientUnits="userSpaceOnUse" x1="452.0508" y1="514.2832" x2="551.7656" y2="514.2832" gradientTransform="matrix(1 0 0 1 -445.3203 -360.9199)">
	<stop  offset="0" style="stop-color:#F9EC31"/>
	<stop  offset="0.0525" style="stop-color:#F9E42F"/>
	<stop  offset="0.3253" style="stop-color:#F8C128"/>
	<stop  offset="0.5815" style="stop-color:#F7A722"/>
	<stop  offset="0.8123" style="stop-color:#F6971F"/>
	<stop  offset="0.9956" style="stop-color:#F6921E"/>
</linearGradient>
<path fill="url(#SVGID_38_)" d="M6.731,145.052l0.061,8.136c0,0,15.107,8.746,50.091,8.48c36.313-0.274,49.563-7.95,49.563-7.95
	l-0.266-7.95c0,0-28.623,8.48-49.031,7.95C31.929,153.063,6.731,145.052,6.731,145.052z"/>
<linearGradient id="SVGID_39_" gradientUnits="userSpaceOnUse" x1="-201.644" y1="379.3926" x2="-192.7266" y2="379.3926" gradientTransform="matrix(-0.9599 -0.2802 -0.2802 0.9599 -54.5186 -305.7159)">
	<stop  offset="0" style="stop-color:#262261"/>
	<stop  offset="1" style="stop-color:#262261"/>
</linearGradient>
<polygon fill="url(#SVGID_39_)" points="24.962,110.191 25.266,108.86 30.721,115.739 31.715,118.591 29.661,117.811 "/>
<linearGradient id="SVGID_40_" gradientUnits="userSpaceOnUse" x1="507.9492" y1="464.499" x2="524" y2="464.499" gradientTransform="matrix(1 0 0 1 -445.3203 -360.9199)">
	<stop  offset="0" style="stop-color:#262261"/>
	<stop  offset="1" style="stop-color:#262261"/>
</linearGradient>
<polygon fill="url(#SVGID_40_)" points="78.532,99.25 78.68,96.799 65.783,105.936 62.629,110.359 66.57,110.047 "/>
<linearGradient id="SVGID_41_" gradientUnits="userSpaceOnUse" x1="451.582" y1="506.6836" x2="551.5" y2="506.6836" gradientTransform="matrix(1 0 0 1 -445.3203 -360.9199)">
	<stop  offset="0" style="stop-color:#F6921E"/>
	<stop  offset="1" style="stop-color:#EE4036"/>
</linearGradient>
<path fill="url(#SVGID_41_)" d="M6.262,144.441c0,0,0.113,0.228,0.469,0.61c1.954,2.101,11.208,8.886,49.092,8.666
	c45.587-0.265,50.356-9.011,50.356-9.011s-7.156-6.626-50.092-6.892C11.295,137.539,6.262,144.441,6.262,144.441z"/>
<linearGradient id="SVGID_42_" gradientUnits="userSpaceOnUse" x1="485.1045" y1="592.0967" x2="518.8008" y2="592.0967" gradientTransform="matrix(0.9732 -0.2301 0.2301 0.9732 -535.4169 -333.9135)">
	<stop  offset="0" style="stop-color:#00ADEE"/>
	<stop  offset="0.0986" style="stop-color:#1296DD"/>
	<stop  offset="0.2843" style="stop-color:#3070C1"/>
	<stop  offset="0.4695" style="stop-color:#4753AC"/>
	<stop  offset="0.652" style="stop-color:#583E9C"/>
	<stop  offset="0.8304" style="stop-color:#623193"/>
	<stop  offset="1" style="stop-color:#652D90"/>
</linearGradient>
<path fill="url(#SVGID_42_)" d="M104.258,117.477c-0.178-0.754-3.012-0.711-3.012-0.711l-3.516-2.17l-1.756-2.746l-0.63,2.678
	c0,0-3.08,5.473-4.747,6.652c-1.947,1.379-9.17,2.643-9.17,2.643l-2.352,0.082l-1.813,1.693c0,0-3.632,1.755-4.213,2.893
	c-0.34,0.664-0.156,2.273,0.074,2.984c0.217,0.674,1.045,1.869,1.235,2.552c0.22,0.792,0.144,3.284,0.144,3.284
	s2.237-1.383,2.489-2.17c0.307-0.951-0.899-2.891-0.919-3.89c-0.021-1.015,1.408-3.804,1.408-3.804s-0.029,2.36,0.166,3.115
	c0.178,0.686,0.709,2.078,1.236,2.553c0.285,0.257,1.409,0.613,1.409,0.613s-0.562,1.469-0.808,1.93
	c-0.705,1.316-3.311,4.973-3.311,4.973l2.023,2.209l3.807-5.883l1.722-3.408l0.217-2.422c0,0,0.549,1.43,0.966,1.674
	c1.18,0.688,4.219,0.613,5.463,0.051c1.041-0.473,3.488-2.958,3.488-2.958s0.357,1.64,0.816,1.854
	c0.803,0.381,2.654-0.742,3.512-0.514c1.137,0.305,3.693,2.92,3.693,2.92l1.428,2.03l2.736-1.12c0,0-1.256-2.891-1.967-3.643
	c-0.857-0.91-4.256-2.627-4.256-2.627s-1.189-1.846-1.234-2.553c-0.063-0.961,0.959-2.872,0.682-3.795
	c-0.154-0.513-1.088-1.177-1.473-1.549c-0.308-0.299-1.102-1.318-1.102-1.318l3.197,0.824c0,0,2.434,0.039,3.063-0.408
	c0.637-0.45,1.414-2.779,1.414-2.779"/>
<linearGradient id="SVGID_43_" gradientUnits="userSpaceOnUse" x1="-219.0474" y1="387.8867" x2="-185.3447" y2="387.8867" gradientTransform="matrix(-0.9599 -0.2802 -0.2802 0.9599 -54.5186 -305.7159)">
	<stop  offset="0" style="stop-color:#754C28"/>
	<stop  offset="0.3304" style="stop-color:#724A27"/>
	<stop  offset="0.5602" style="stop-color:#694424"/>
	<stop  offset="0.7595" style="stop-color:#5A391F"/>
	<stop  offset="0.9403" style="stop-color:#442917"/>
	<stop  offset="1" style="stop-color:#3B2314"/>
</linearGradient>
<path fill="url(#SVGID_43_)" d="M16.492,113.183c0.216-0.743,3.045-0.554,3.045-0.554l3.622-1.986l1.895-2.65l0.491,2.707
	c0,0,2.793,5.624,4.397,6.889c1.874,1.477,9.021,3.113,9.021,3.113l2.343,0.203l1.722,1.785c0,0,3.537,1.94,4.059,3.105
	c0.305,0.683,0.039,2.281-0.229,2.979c-0.252,0.661-1.141,1.813-1.365,2.482c-0.26,0.782-0.315,3.273-0.315,3.273
	s-2.162-1.497-2.373-2.295c-0.256-0.966,1.048-2.84,1.12-3.838c0.073-1.011-1.21-3.871-1.21-3.871s-0.094,2.358-0.328,3.103
	c-0.213,0.677-0.816,2.038-1.366,2.485c-0.299,0.24-1.439,0.541-1.439,0.541s0.484,1.496,0.707,1.967
	c0.636,1.353,3.048,5.14,3.048,5.14l-2.134,2.101l-3.497-6.071l-1.543-3.493l-0.091-2.43c0,0-0.623,1.398-1.051,1.62
	c-1.214,0.626-4.246,0.395-5.459-0.231c-1.014-0.527-3.329-3.135-3.329-3.135s-0.443,1.619-0.912,1.811
	c-0.821,0.337-2.613-0.879-3.48-0.695c-1.151,0.246-3.84,2.725-3.84,2.725l-1.531,1.954l-2.675-1.261c0,0,1.404-2.82,2.153-3.535
	c0.903-0.863,4.385-2.404,4.385-2.404s1.284-1.779,1.365-2.483c0.112-0.958-0.809-2.917-0.484-3.827
	c0.18-0.503,1.148-1.118,1.55-1.47c0.323-0.282,1.168-1.26,1.168-1.26l-3.234,0.657c0,0-2.432-0.088-3.04-0.565
	c-0.612-0.483-1.268-2.85-1.268-2.85"/>
<line fill="none" stroke="#2B388F" stroke-width="2" stroke-miterlimit="10" x1="30.102" y1="82.689" x2="30.102" y2="140.996"/>
<line fill="none" stroke="#2B388F" stroke-width="2" stroke-miterlimit="10" x1="89.386" y1="83.926" x2="89.386" y2="143.678"/>
<linearGradient id="SVGID_44_" gradientUnits="userSpaceOnUse" x1="969.4551" y1="383.5234" x2="984.8301" y2="383.5234" gradientTransform="matrix(-1 0 0 1 1093.2461 -360.9199)">
	<stop  offset="0" style="stop-color:#F4909F"/>
	<stop  offset="0.9956" style="stop-color:#EB008B"/>
</linearGradient>
<path fill="url(#SVGID_44_)" d="M114.166,16.1l-5.75,9.875c0,0,4.023,2.251,5.5,2.625c2.396,0.606,9.875,0.5,9.875,0.5L114.166,16.1
	z"/>
<linearGradient id="SVGID_45_" gradientUnits="userSpaceOnUse" x1="978.9551" y1="396.707" x2="994.8301" y2="396.707" gradientTransform="matrix(-1 0 0 1 1093.2461 -360.9199)">
	<stop  offset="0" style="stop-color:#37B34A"/>
	<stop  offset="0.9956" style="stop-color:#006838"/>
</linearGradient>
<path fill="url(#SVGID_45_)" d="M106.541,28.475l-8.125,9.375c0,0,6.398,2.751,7.875,3.125c2.396,0.606,8,2.125,8,2.125
	L106.541,28.475z"/>
<linearGradient id="SVGID_46_" gradientUnits="userSpaceOnUse" x1="990.8301" y1="409.832" x2="1008.2051" y2="409.832" gradientTransform="matrix(-1 0 0 1 1093.2461 -360.9199)">
	<stop  offset="0" style="stop-color:#37B34A"/>
	<stop  offset="0.9956" style="stop-color:#FFF100"/>
</linearGradient>
<path fill="url(#SVGID_46_)" d="M94.666,41.6l-9.625,8.5c0,0,6.273,4.876,7.75,5.25c2.396,0.606,9.625,0.875,9.625,0.875
	s-3.535-5.352-3.928-7.412C97.541,43.85,94.666,41.6,94.666,41.6z"/>
<linearGradient id="SVGID_47_" gradientUnits="userSpaceOnUse" x1="1006.2051" y1="422.332" x2="1025.3301" y2="422.332" gradientTransform="matrix(-1 0 0 1 1093.2461 -360.9199)">
	<stop  offset="0" style="stop-color:#EE4036"/>
	<stop  offset="0.9956" style="stop-color:#BE1E2D"/>
</linearGradient>
<path fill="url(#SVGID_47_)" d="M81.166,53.1l-13.25,8.75c0,0,3.125,3.625,8,5.625c2.287,0.938,11.125,2.25,11.125,2.25
	s-0.33-1.643-0.713-2.016C79.541,61.1,81.166,53.1,81.166,53.1z"/>
<linearGradient id="SVGID_48_" gradientUnits="userSpaceOnUse" x1="1080.8105" y1="456.957" x2="1093.2461" y2="456.957" gradientTransform="matrix(-1 0 0 1 1093.2461 -360.9199)">
	<stop  offset="0" style="stop-color:#F9EC31"/>
	<stop  offset="0.9956" style="stop-color:#FAAF40"/>
</linearGradient>
<path fill="url(#SVGID_48_)" d="M12.436,87.474L0,91.336c0,0,2.117,11.332,9.922,12.363c2.592,0.342,2.381,0.9,2.381,0.9
	L12.436,87.474z"/>
<linearGradient id="SVGID_49_" gradientUnits="userSpaceOnUse" x1="480.7227" y1="473.2949" x2="525.25" y2="473.2949" gradientTransform="matrix(1 0 0 1 -445.3203 -360.9199)">
	<stop  offset="0" style="stop-color:#F05A28"/>
	<stop  offset="1" style="stop-color:#F07BAF"/>
</linearGradient>
<path fill="url(#SVGID_49_)" d="M35.403,75.268h44.526c0,0-11.464,19.722-13.252,27.033c-2.645,10.816-1.06,44.527-1.06,44.527
	s-5.857,2.555-7.951,2.65c-2.313,0.104-9.012-2.121-9.012-2.121s0.884-34.06-1.59-45.057C45.449,95.121,35.403,75.268,35.403,75.268
	z"/>
<linearGradient id="SVGID_50_" gradientUnits="userSpaceOnUse" x1="477.1846" y1="478.2793" x2="537.8428" y2="478.2793" gradientTransform="matrix(1 0.0017 -0.0017 1 -444.7128 -360.9859)">
	<stop  offset="0" style="stop-color:#9E1F63"/>
	<stop  offset="0.3325" style="stop-color:#9B2065"/>
	<stop  offset="0.5638" style="stop-color:#92226C"/>
	<stop  offset="0.7643" style="stop-color:#832679"/>
	<stop  offset="0.9463" style="stop-color:#6D2B8A"/>
	<stop  offset="1" style="stop-color:#652D90"/>
</linearGradient>
<path fill="url(#SVGID_50_)" d="M92.028,108.035c0.003-1.391-4.978-2.5-4.978-2.5l-5.248-5.265l-1.928-5.54l-2.223,4.424
	c0,0-7.675,8.297-11.086,9.668c-3.986,1.6-17.16,0.801-17.16,0.801l-4.149-0.838l-3.879,2.208c0,0-7.091,1.556-8.583,3.304
	c-0.872,1.023-1.225,3.916-1.118,5.257c0.102,1.271,1.053,3.708,1.1,4.983c0.053,1.479-1.118,5.809-1.118,5.809
	s4.495-1.486,5.265-2.756c0.933-1.539-0.37-5.438,0.012-7.196c0.386-1.784,4.052-6.072,4.052-6.072s-1.033,4.12-1.008,5.523
	c0.025,1.278,0.375,3.935,1.099,4.983c0.394,0.57,2.21,1.664,2.21,1.664s-1.595,2.338-2.219,3.04c-1.784,2.011-7.87,7.33-7.87,7.33
	l2.621,4.708l9.117-8.71l4.438-5.249l1.391-4.148c0,0,0.365,2.731,0.994,3.328c1.777,1.699,7.129,2.838,9.543,2.37
	c2.02-0.392,7.34-3.724,7.34-3.724s-0.056,3.022,0.656,3.592c1.246,0.998,4.959-0.196,6.363,0.564
	c1.863,1.007,5.247,6.652,5.247,6.652l1.653,4.152l5.26-0.822c0,0-0.996-5.583-1.925-7.197c-1.122-1.95-6.354-6.375-6.354-6.375
	s-1.314-3.727-1.098-4.984c0.293-1.71,2.878-4.627,2.779-6.36c-0.057-0.961-1.416-2.514-1.932-3.323
	c-0.415-0.654-1.38-2.77-1.38-2.77l5.253,2.775c0,0,4.242,1.083,5.535,0.564c1.301-0.523,3.635-4.277,3.635-4.277"/>
<line fill="none" stroke="#2B388F" stroke-width="2" stroke-miterlimit="10" x1="57.136" y1="81.805" x2="57.136" y2="151.598"/>
<linearGradient id="SVGID_51_" gradientUnits="userSpaceOnUse" x1="455.4688" y1="440.5088" x2="549.4688" y2="440.5088" gradientTransform="matrix(1 0 0 1 -445.3203 -360.9199)">
	<stop  offset="0" style="stop-color:#F9EC31"/>
	<stop  offset="0.0525" style="stop-color:#F9E42F"/>
	<stop  offset="0.3253" style="stop-color:#F8C128"/>
	<stop  offset="0.5815" style="stop-color:#F7A722"/>
	<stop  offset="0.8123" style="stop-color:#F6971F"/>
	<stop  offset="0.9956" style="stop-color:#F6921E"/>
</linearGradient>
<path fill="url(#SVGID_51_)" d="M10.149,77.652l0.353,5.301l47.177-1.59l46.469,2.828l-0.089-6.273c0,0-33.13-3.18-48.501-2.916
	C44.188,75.198,10.149,77.652,10.149,77.652z"/>
<linearGradient id="SVGID_52_" gradientUnits="userSpaceOnUse" x1="1050.0791" y1="446.3945" x2="1067.0791" y2="446.3945" gradientTransform="matrix(-1 0 0 1 1093.2461 -360.9199)">
	<stop  offset="0" style="stop-color:#26A9E0"/>
	<stop  offset="0.9956" style="stop-color:#262261"/>
</linearGradient>
<path fill="url(#SVGID_52_)" d="M38.792,76.725L26.167,82.1c0,0,7.875,5,12.375,7.125c2.235,1.057,4.625,5,4.625,5L38.792,76.725z"
	/>
<path fill="none" stroke="#F6921E" stroke-miterlimit="10" d="M120.938,2.167c0,0-8.857,51.442-117.366,87.71"/>
<linearGradient id="SVGID_53_" gradientUnits="userSpaceOnUse" x1="1023.9551" y1="433.707" x2="1043.5801" y2="433.707" gradientTransform="matrix(-1 0 0 1 1093.2461 -360.9199)">
	<stop  offset="0" style="stop-color:#F6921E"/>
	<stop  offset="0.9956" style="stop-color:#F05A28"/>
</linearGradient>
<path fill="url(#SVGID_53_)" d="M61.541,65.475L49.666,71.85c0,0,7.875,5,11.625,6.125c2.367,0.71,8,2.125,8,2.125
	s-0.154-0.406-0.262-0.494C62.416,74.225,61.541,65.475,61.541,65.475z"/>
<linearGradient id="SVGID_54_" gradientUnits="userSpaceOnUse" x1="1192.6133" y1="400.75" x2="1192.3088" y2="457.0804" gradientTransform="matrix(1 0 0 1 -445.3203 -360.9199)">
	<stop  offset="0" style="stop-color:#4400A2"/>
	<stop  offset="1" style="stop-color:#2EF2FF"/>
</linearGradient>
<polygon fill="url(#SVGID_54_)" points="782.581,41.27 696.188,87.223 692.473,89.199 800.474,92.394 801.752,57.246 "/>
<line fill="none" stroke="#231F20" stroke-miterlimit="10" x1="782.579" y1="42.548" x2="783.857" y2="12.512"/>
<ellipse fill="#231F20" stroke="#231F20" stroke-miterlimit="10" cx="783.857" cy="12.512" rx="1.798" ry="1.678"/>
<linearGradient id="SVGID_55_" gradientUnits="userSpaceOnUse" x1="1229.8164" y1="384.0137" x2="1253.1445" y2="384.0137" gradientTransform="matrix(1 0 0 1 -445.3203 -360.9199)">
	<stop  offset="0" style="stop-color:#EC1C24"/>
	<stop  offset="0.0891" style="stop-color:#EE3130"/>
	<stop  offset="0.272" style="stop-color:#F1664F"/>
	<stop  offset="0.2978" style="stop-color:#F26E54"/>
	<stop  offset="0.3911" style="stop-color:#F27257"/>
	<stop  offset="0.4933" style="stop-color:#F2755A"/>
	<stop  offset="0.5867" style="stop-color:#F2785D"/>
	<stop  offset="0.6889" style="stop-color:#F37B60"/>
	<stop  offset="1" style="stop-color:#EC1C24"/>
</linearGradient>
<path fill="url(#SVGID_55_)" d="M784.818,16.346l-0.322,10.225c0,0,5.853,2.954,7.99,3.195c2.567,0.291,8.01-0.261,10.223-1.598
	c1.646-0.995,5.115-5.752,5.115-5.752s-9.204,1.08-12.145,0.32C792.629,21.949,784.818,16.346,784.818,16.346z"/>
<linearGradient id="SVGID_56_" gradientUnits="userSpaceOnUse" x1="1202.7988" y1="400.8232" x2="1202.499" y2="456.3106" gradientTransform="matrix(1 0 0 1 -445.3203 -360.9199)">
	<stop  offset="0" style="stop-color:#EC1C24"/>
	<stop  offset="0.0891" style="stop-color:#EE3130"/>
	<stop  offset="0.272" style="stop-color:#F1664F"/>
	<stop  offset="0.2978" style="stop-color:#F26E54"/>
	<stop  offset="0.3911" style="stop-color:#F27257"/>
	<stop  offset="0.4933" style="stop-color:#F2755A"/>
	<stop  offset="0.5867" style="stop-color:#F2785D"/>
	<stop  offset="0.6889" style="stop-color:#F37B60"/>
	<stop  offset="1" style="stop-color:#EC1C24"/>
</linearGradient>
<polygon fill="url(#SVGID_56_)" points="782.581,41.27 732.096,90.478 764.688,91.437 "/>
<linearGradient id="SVGID_57_" gradientUnits="userSpaceOnUse" x1="17.0938" y1="401.8193" x2="16.7897" y2="458.0833" gradientTransform="matrix(-1 0 0 1 815.3477 -360.9199)">
	<stop  offset="0" style="stop-color:#EC1C24"/>
	<stop  offset="0.0891" style="stop-color:#EE3130"/>
	<stop  offset="0.272" style="stop-color:#F1664F"/>
	<stop  offset="0.2978" style="stop-color:#F26E54"/>
	<stop  offset="0.3911" style="stop-color:#F27257"/>
	<stop  offset="0.4933" style="stop-color:#F2755A"/>
	<stop  offset="0.5867" style="stop-color:#F2785D"/>
	<stop  offset="0.6889" style="stop-color:#F37B60"/>
	<stop  offset="1" style="stop-color:#EC1C24"/>
</linearGradient>
<polygon fill="url(#SVGID_57_)" points="783.22,42.229 813.576,93.033 786.735,91.757 "/>
<linearGradient id="SVGID_58_" gradientUnits="userSpaceOnUse" x1="1198.3516" y1="451.6924" x2="1198.0468" y2="508.1096" gradientTransform="matrix(1 0 0 1 -445.3203 -360.9199)">
	<stop  offset="0" style="stop-color:#FFB9DF"/>
	<stop  offset="0.9956" style="stop-color:#B900AE"/>
</linearGradient>
<path fill="url(#SVGID_58_)" d="M692.973,91.699c0,0,0.527,32.341,0,37.202c-1.417,13.065,89.487,19.529,115.194,9.114
	c12-4.861-2.667-43.295-2.667-43.295L692.973,91.699z"/>
<linearGradient id="SVGID_59_" gradientUnits="userSpaceOnUse" x1="1137.1543" y1="458.1113" x2="1261.7734" y2="458.1113" gradientTransform="matrix(1 0 0 1 -445.3203 -360.9199)">
	<stop  offset="0" style="stop-color:#EC1C24"/>
	<stop  offset="0.0891" style="stop-color:#EE3130"/>
	<stop  offset="0.272" style="stop-color:#F1664F"/>
	<stop  offset="0.2978" style="stop-color:#F26E54"/>
	<stop  offset="0.3911" style="stop-color:#F27257"/>
	<stop  offset="0.4933" style="stop-color:#F2755A"/>
	<stop  offset="0.5867" style="stop-color:#F2785D"/>
	<stop  offset="0.6889" style="stop-color:#F37B60"/>
	<stop  offset="1" style="stop-color:#EC1C24"/>
</linearGradient>
<path fill="url(#SVGID_59_)" d="M813.576,93.033l-121.104-3.834l-0.638,7.669c0,0,4.567,3.558,6.39,3.517
	c1.686-0.039,5.752-3.517,5.752-3.517s5.618,5.218,7.988,5.113c2.218-0.098,7.028-5.432,7.028-5.432s5.064,5.338,7.351,5.432
	c1.97,0.08,6.71-4.155,6.71-4.155s5.411,4.646,7.67,4.793c1.926,0.128,7.027-3.193,7.027-3.193s6.975,4.887,9.586,4.473
	c1.617-0.256,4.794-4.473,4.794-4.473s9.33,5.81,12.781,5.432c2.051-0.225,6.71-4.793,6.71-4.793s7.405,4.918,10.225,4.793
	c2.217-0.1,7.669-4.473,7.669-4.473s6.17,5.016,8.627,4.793c1.753-0.16,5.436-4.475,5.436-4.475l2.876,2.875L813.576,93.033z"/>
<path fill="none" stroke="#F6921E" stroke-miterlimit="10" d="M665.206,0c0,0,9.741,56.421,129.077,96.199"/>
<linearGradient id="SVGID_60_" gradientUnits="userSpaceOnUse" x1="1101.0898" y1="378.3281" x2="1119.8115" y2="378.3281" gradientTransform="matrix(1 0 0 1 -445.3203 -360.9199)">
	<stop  offset="0" style="stop-color:#F4909F"/>
	<stop  offset="0.9956" style="stop-color:#EB008B"/>
</linearGradient>
<path fill="url(#SVGID_60_)" d="M667.489,9.488l7.002,12.025c0,0-4.899,2.741-6.698,3.196c-2.918,0.739-12.023,0.609-12.023,0.609
	L667.489,9.488z"/>
<linearGradient id="SVGID_61_" gradientUnits="userSpaceOnUse" x1="1112.6572" y1="394.3809" x2="1131.9883" y2="394.3809" gradientTransform="matrix(1 0 0 1 -445.3203 -360.9199)">
	<stop  offset="0" style="stop-color:#37B34A"/>
	<stop  offset="0.9956" style="stop-color:#006838"/>
</linearGradient>
<path fill="url(#SVGID_61_)" d="M676.774,24.557l9.894,11.416c0,0-7.791,3.35-9.59,3.805c-2.918,0.738-9.741,2.587-9.741,2.587
	L676.774,24.557z"/>
<linearGradient id="SVGID_62_" gradientUnits="userSpaceOnUse" x1="1127.1162" y1="410.3633" x2="1148.2754" y2="410.3633" gradientTransform="matrix(1 0 0 1 -445.3203 -360.9199)">
	<stop  offset="0" style="stop-color:#37B34A"/>
	<stop  offset="0.9956" style="stop-color:#FFF100"/>
</linearGradient>
<path fill="url(#SVGID_62_)" d="M691.234,40.54l11.721,10.35c0,0-7.64,5.938-9.438,6.393c-2.918,0.739-11.721,1.065-11.721,1.065
	s4.305-6.517,4.783-9.025C687.733,43.279,691.234,40.54,691.234,40.54z"/>
<linearGradient id="SVGID_63_" gradientUnits="userSpaceOnUse" x1="1145.8398" y1="425.5859" x2="1169.1279" y2="425.5859" gradientTransform="matrix(1 0 0 1 -445.3203 -360.9199)">
	<stop  offset="0" style="stop-color:#EE4036"/>
	<stop  offset="0.9956" style="stop-color:#BE1E2D"/>
</linearGradient>
<path fill="url(#SVGID_63_)" d="M707.674,54.543l16.134,10.655c0,0-3.805,4.415-9.739,6.85c-2.785,1.143-13.549,2.74-13.549,2.74
	s0.401-2,0.868-2.454C709.652,64.285,707.674,54.543,707.674,54.543z"/>
<linearGradient id="SVGID_64_" gradientUnits="userSpaceOnUse" x1="1167.4541" y1="439.4355" x2="1191.3516" y2="439.4355" gradientTransform="matrix(1 0 0 1 -445.3203 -360.9199)">
	<stop  offset="0" style="stop-color:#F6921E"/>
	<stop  offset="0.9956" style="stop-color:#F05A28"/>
</linearGradient>
<path fill="url(#SVGID_64_)" d="M731.571,69.612l14.46,7.762c0,0-9.59,6.089-14.156,7.459c-2.882,0.865-9.741,2.588-9.741,2.588
	s0.188-0.494,0.318-0.602C730.506,80.267,731.571,69.612,731.571,69.612z"/>
<linearGradient id="SVGID_65_" gradientUnits="userSpaceOnUse" x1="1199.2666" y1="454.8867" x2="1219.9678" y2="454.8867" gradientTransform="matrix(1 0 0 1 -445.3203 -360.9199)">
	<stop  offset="0" style="stop-color:#26A9E0"/>
	<stop  offset="0.9956" style="stop-color:#262261"/>
</linearGradient>
<path fill="url(#SVGID_65_)" d="M759.273,83.312l15.374,6.545c0,0-9.592,6.088-15.069,8.676c-2.722,1.285-5.632,6.088-5.632,6.088
	L759.273,83.312z"/>
<linearGradient id="SVGID_66_" gradientUnits="userSpaceOnUse" x1="1229.4053" y1="464.3984" x2="1243.7129" y2="464.3984" gradientTransform="matrix(1 0 0 1 -445.3203 -360.9199)">
	<stop  offset="0" style="stop-color:#F9EC31"/>
	<stop  offset="0.9956" style="stop-color:#FAAF40"/>
</linearGradient>
<path fill="url(#SVGID_66_)" d="M784.085,93.357l14.308,4.566c0,0-2.436,13.395-11.416,14.613c-2.98,0.404-2.738,1.064-2.738,1.064
	L784.085,93.357z"/>
<linearGradient id="SVGID_67_" gradientUnits="userSpaceOnUse" x1="1209.8691" y1="484.9873" x2="1210.0712" y2="510.1543" gradientTransform="matrix(1 0 0 1 -445.3203 -360.9199)">
	<stop  offset="0" style="stop-color:#7FC142"/>
	<stop  offset="0.2494" style="stop-color:#6ABA43"/>
	<stop  offset="0.7609" style="stop-color:#35AA47"/>
	<stop  offset="1" style="stop-color:#1AA149"/>
</linearGradient>
<path fill="url(#SVGID_67_)" d="M766.033,149.042c0,0-0.74-5.817-2.961-10.433c-2.224-4.615-3.455-7.824-3.455-7.824
	s6.663,8.025,7.401,10.633c0.74,2.608-2.221-14.045-3.206-16.451c-0.987-2.408,3.946,5.617,3.946,5.617l1.977,18.458"/>
<linearGradient id="SVGID_68_" gradientUnits="userSpaceOnUse" x1="1175.0889" y1="486.4824" x2="1175.291" y2="511.65" gradientTransform="matrix(1 0 0 1 -445.3203 -360.9199)">
	<stop  offset="0" style="stop-color:#7FC142"/>
	<stop  offset="0.2494" style="stop-color:#6ABA43"/>
	<stop  offset="0.7609" style="stop-color:#35AA47"/>
	<stop  offset="1" style="stop-color:#1AA149"/>
</linearGradient>
<path fill="url(#SVGID_68_)" d="M731.252,150.537c0,0-0.74-5.817-2.961-10.432c-2.221-4.615-3.455-7.825-3.455-7.825
	s6.664,8.025,7.404,10.634c0.74,2.607-2.223-14.045-3.209-16.452c-0.986-2.407,3.949,5.617,3.949,5.617l1.975,18.458"/>
<linearGradient id="SVGID_69_" gradientUnits="userSpaceOnUse" x1="1224.5605" y1="667.666" x2="1225.2131" y2="748.9123" gradientTransform="matrix(1 0 0 1 -445.3203 -360.9199)">
	<stop  offset="0" style="stop-color:#7FC142"/>
	<stop  offset="0.2494" style="stop-color:#6ABA43"/>
	<stop  offset="0.7609" style="stop-color:#35AA47"/>
	<stop  offset="1" style="stop-color:#1AA149"/>
</linearGradient>
<path fill="url(#SVGID_69_)" d="M783.212,387.395c0,0-1.944-18.789-7.774-33.689c-5.829-14.9-9.068-25.27-9.068-25.27
	s17.493,25.916,19.437,34.34c1.943,8.422-5.831-45.354-8.423-53.129c-2.592-7.772,10.366,18.143,10.366,18.143l5.183,59.605"/>
<linearGradient id="SVGID_70_" gradientUnits="userSpaceOnUse" x1="1184.207" y1="570.4199" x2="1184.5879" y2="617.8331" gradientTransform="matrix(1 0 0 1 -445.3203 -360.9199)">
	<stop  offset="0" style="stop-color:#7FC142"/>
	<stop  offset="0.2494" style="stop-color:#6ABA43"/>
	<stop  offset="0.7609" style="stop-color:#35AA47"/>
	<stop  offset="1" style="stop-color:#1AA149"/>
</linearGradient>
<path fill="url(#SVGID_70_)" d="M741.684,256.549c0,0-1.396-10.96-5.58-19.653c-4.184-8.693-6.509-14.74-6.509-14.74
	s12.556,15.118,13.948,20.031c1.396,4.912-4.185-26.458-6.044-30.994c-1.86-4.535,7.438,10.582,7.438,10.582l3.72,34.772"/>
<linearGradient id="SVGID_71_" gradientUnits="userSpaceOnUse" x1="913.4766" y1="560.3613" x2="913.7955" y2="600.0651" gradientTransform="matrix(-1 0 0 1 1693.3516 -360.9199)">
	<stop  offset="0" style="stop-color:#7FC142"/>
	<stop  offset="0.2494" style="stop-color:#6ABA43"/>
	<stop  offset="0.7609" style="stop-color:#35AA47"/>
	<stop  offset="1" style="stop-color:#1AA149"/>
</linearGradient>
<path fill="url(#SVGID_71_)" d="M777.932,238.852c0,0,0.949-9.182,3.801-16.464c2.85-7.282,4.433-12.348,4.433-12.348
	s-8.549,12.665-9.499,16.781c-0.949,4.116,2.85-22.164,4.116-25.963c1.267-3.8-5.065,8.866-5.065,8.866l-2.533,29.128"/>
</svg>
