<?xml version="1.0" encoding="utf-8"?>
<!-- Generator: Adobe Illustrator 15.0.0, SVG Export Plug-In . SVG Version: 6.00 Build 0)  -->
<!DOCTYPE svg PUBLIC "-//W3C//DTD SVG 1.1//EN" "http://www.w3.org/Graphics/SVG/1.1/DTD/svg11.dtd">
<svg version="1.1" id="Layer_1" xmlns="http://www.w3.org/2000/svg" xmlns:xlink="http://www.w3.org/1999/xlink" x="0px" y="0px"
	 width="150px" height="150px" viewBox="0 0 150 150" enable-background="new 0 0 150 150" xml:space="preserve">
<path fill="#EF4237" stroke="#3C2517" stroke-width="10" stroke-miterlimit="10" d="M43.833,5.144c0,0-34.119-2.152-37.388,10.209
	C3.717,35.118,5.338,108.037,7.322,119.02c3.334,19.721,35.281,14.862,35.281,14.862s89.663,10.515,93.85-9.651
	c1.736-13.176,2.195-106.657,0.191-110.521c-4.957-9.549-41.168-7.701-46.873-7.701C84.068,6.008,43.833,5.144,43.833,5.144z"/>
<path fill="#BE202E" d="M18.294,88.786c-1.597,3.591-0.992,21.237,0.795,25.958c1.787,4.719,35.837,7.518,47.568,6.43
	c12.71-1.179,55.504,7.729,57.291-5.251c1.786-12.979,5.56-12.979-2.582-22.416c-8.144-9.44-46.675-4.651-52.033-5.899
	C59.206,85.247,25.643,72.269,18.294,88.786z"/>
<path fill="#F79981" d="M23,35.626c8.647,10.467,32.814,7.402,45.8,7.402c12.986,0,58.44,7.402,57.202-9.869
	c-1.236-17.271-53.8-9.869-56.892-7.401C66.018,28.225,4.144,12.801,23,35.626z"/>
<g>
	
		<linearGradient id="SVGID_1_" gradientUnits="userSpaceOnUse" x1="391.7959" y1="-772.1191" x2="481.584" y2="-772.1191" gradientTransform="matrix(0.9994 0.0328 0.0328 -0.9994 -338.7638 -723.9774)">
		<stop  offset="0" style="stop-color:#FFF200"/>
		<stop  offset="0.4283" style="stop-color:#FFEF00"/>
		<stop  offset="0.5826" style="stop-color:#FFE900"/>
		<stop  offset="0.6926" style="stop-color:#FFE100"/>
		<stop  offset="0.7815" style="stop-color:#FFD500"/>
		<stop  offset="0.8576" style="stop-color:#FFC50B"/>
		<stop  offset="0.925" style="stop-color:#FCB116"/>
		<stop  offset="0.9845" style="stop-color:#F89A1C"/>
		<stop  offset="1" style="stop-color:#F7941E"/>
	</linearGradient>
	<polygon fill="url(#SVGID_1_)" points="73.738,19.328 86.683,47.876 117.536,53.398 94.391,74.529 98.671,105.58 71.418,90.099 
		43.213,103.767 49.521,73.063 27.802,50.459 58.953,46.971 	"/>
	
		<linearGradient id="SVGID_2_" gradientUnits="userSpaceOnUse" x1="-1310.6641" y1="231.8066" x2="-1285.3713" y2="220.0027" gradientTransform="matrix(-0.9727 -0.2319 -0.2319 0.9727 -1137.2024 -478.1865)">
		<stop  offset="0" style="stop-color:#EF4136;stop-opacity:0.59"/>
		<stop  offset="1" style="stop-color:#FFF200"/>
	</linearGradient>
	<polygon fill="url(#SVGID_2_)" points="72.242,65.959 86.41,47.832 73.742,19.163 	"/>
	
		<linearGradient id="SVGID_3_" gradientUnits="userSpaceOnUse" x1="87.6777" y1="-1055.4473" x2="105.329" y2="-1049.1764" gradientTransform="matrix(0.9138 -0.4063 -0.4063 -0.9138 -446.6673 -876.1914)">
		<stop  offset="0" style="stop-color:#FFF200"/>
		<stop  offset="1" style="stop-color:#EF4136;stop-opacity:0.59"/>
	</linearGradient>
	<polygon fill="url(#SVGID_3_)" points="58.757,46.856 73.742,19.163 72.162,65.87 	"/>
	
		<linearGradient id="SVGID_4_" gradientUnits="userSpaceOnUse" x1="-117.8848" y1="796.0146" x2="-92.5898" y2="784.2096" gradientTransform="matrix(-0.514 0.8578 0.8578 0.514 -682.2914 -257.5147)">
		<stop  offset="0" style="stop-color:#EF4136;stop-opacity:0.59"/>
		<stop  offset="1" style="stop-color:#FFF200"/>
	</linearGradient>
	<polygon fill="url(#SVGID_4_)" points="71.646,66.087 58.627,47.122 27.472,50.576 	"/>
	
		<linearGradient id="SVGID_5_" gradientUnits="userSpaceOnUse" x1="-1201.9556" y1="-779.8516" x2="-1184.3015" y2="-773.5797" gradientTransform="matrix(-0.1125 -0.9936 -0.9936 0.1125 -854.1304 -1034.9728)">
		<stop  offset="0" style="stop-color:#FFF200;stop-opacity:0.57"/>
		<stop  offset="1" style="stop-color:#EF4136;stop-opacity:0.59"/>
	</linearGradient>
	<polygon fill="url(#SVGID_5_)" points="49.374,73.2 27.472,50.576 71.542,66.14 	"/>
	
		<linearGradient id="SVGID_6_" gradientUnits="userSpaceOnUse" x1="804.3184" y1="-194.2827" x2="829.6093" y2="-206.086" gradientTransform="matrix(0.6653 0.7465 0.7465 -0.6653 -336.6095 -657.6551)">
		<stop  offset="0" style="stop-color:#EF4136;stop-opacity:0.59"/>
		<stop  offset="1" style="stop-color:#FFF200"/>
	</linearGradient>
	<polygon fill="url(#SVGID_6_)" points="71.475,66.627 49.49,73.393 43.482,104.155 	"/>
	
		<linearGradient id="SVGID_7_" gradientUnits="userSpaceOnUse" x1="-1334.0049" y1="567.0371" x2="-1316.3535" y2="573.3079" gradientTransform="matrix(-0.9819 -0.1893 -0.1893 0.9819 -1130.4939 -726.0615)">
		<stop  offset="0" style="stop-color:#FFF200;stop-opacity:0.57"/>
		<stop  offset="1" style="stop-color:#F15A29;stop-opacity:0.59"/>
	</linearGradient>
	<polygon fill="url(#SVGID_7_)" points="71.615,90.008 43.482,104.155 71.492,66.744 	"/>
	
		<linearGradient id="SVGID_8_" gradientUnits="userSpaceOnUse" x1="155.7988" y1="-1361.3203" x2="181.0872" y2="-1373.1222" gradientTransform="matrix(0.9188 -0.3947 -0.3947 -0.9188 -608.926 -1103.4464)">
		<stop  offset="0" style="stop-color:#EF4136;stop-opacity:0.59"/>
		<stop  offset="1" style="stop-color:#FFF200"/>
	</linearGradient>
	<polygon fill="url(#SVGID_8_)" points="72.116,67.056 71.568,90.053 98.848,105.49 	"/>
	
		<linearGradient id="SVGID_9_" gradientUnits="userSpaceOnUse" x1="-109.957" y1="1100.6182" x2="-92.3053" y2="1106.8893" gradientTransform="matrix(-0.4904 0.8715 0.8715 0.4904 -925.0658 -372.1318)">
		<stop  offset="0" style="stop-color:#FFF200;stop-opacity:0.58"/>
		<stop  offset="1" style="stop-color:#EF4136;stop-opacity:0.59"/>
	</linearGradient>
	<polygon fill="url(#SVGID_9_)" points="94.336,74.321 98.848,105.49 72.23,67.079 	"/>
	
		<linearGradient id="SVGID_10_" gradientUnits="userSpaceOnUse" x1="-1161.6563" y1="-1110.3047" x2="-1136.3699" y2="-1122.1056" gradientTransform="matrix(-0.0901 -0.9959 -0.9959 0.0901 -1120.2346 -983.821)">
		<stop  offset="0" style="stop-color:#EF4136;stop-opacity:0.59"/>
		<stop  offset="1" style="stop-color:#FFF200"/>
	</linearGradient>
	<polygon fill="url(#SVGID_10_)" points="72.505,66.652 94.199,74.308 117.339,53.17 	"/>
	
		<linearGradient id="SVGID_11_" gradientUnits="userSpaceOnUse" x1="783.3838" y1="100.4258" x2="801.0396" y2="106.698" gradientTransform="matrix(0.6763 0.7366 0.7366 -0.6763 -521.84 -456.1469)">
		<stop  offset="0" style="stop-color:#FFF200;stop-opacity:0.57"/>
		<stop  offset="1" style="stop-color:#EF4136;stop-opacity:0.59"/>
	</linearGradient>
	<polygon fill="url(#SVGID_11_)" points="86.314,47.785 117.339,53.17 72.562,66.553 	"/>
</g>
</svg>
