<?xml version="1.0" encoding="utf-8"?>
<!-- Generator: Adobe Illustrator 15.0.0, SVG Export Plug-In . SVG Version: 6.00 Build 0)  -->
<!DOCTYPE svg PUBLIC "-//W3C//DTD SVG 1.1//EN" "http://www.w3.org/Graphics/SVG/1.1/DTD/svg11.dtd">
<svg version="1.1" id="Layer_1" xmlns="http://www.w3.org/2000/svg" xmlns:xlink="http://www.w3.org/1999/xlink" x="0px" y="0px"
	 width="150px" height="150px" viewBox="0 0 150 150" enable-background="new 0 0 150 150" xml:space="preserve">
<path fill="#EF4237" stroke="#3C2517" stroke-width="10" stroke-miterlimit="10" d="M43.833,5.144c0,0-34.119-2.152-37.388,10.209
	C3.717,35.118,5.338,108.037,7.322,119.02c3.334,19.721,35.281,14.862,35.281,14.862s89.663,10.515,93.85-9.651
	c1.736-13.176,2.195-106.657,0.191-110.521c-4.957-9.549-41.168-7.701-46.873-7.701C84.068,6.008,43.833,5.144,43.833,5.144z"/>
<path fill="#BE202E" d="M18.294,88.786c-1.597,3.591-0.992,21.237,0.795,25.958c1.787,4.719,35.837,7.518,47.568,6.43
	c12.71-1.179,55.504,7.729,57.291-5.251c1.786-12.979,5.56-12.979-2.582-22.416c-8.144-9.44-46.675-4.651-52.033-5.899
	C59.206,85.247,25.643,72.269,18.294,88.786z"/>
<path fill="#F79981" d="M23,35.626c8.647,10.467,32.814,7.402,45.8,7.402c12.986,0,58.44,7.402,57.202-9.869
	c-1.236-17.271-53.8-9.869-56.892-7.401C66.018,28.225,4.144,12.801,23,35.626z"/>
<path fill="#FAED32" stroke="#000000" stroke-miterlimit="10" d="M102.975,103.409L96.12,86.953c0,0-6.623,3.729-14.596,5.599
	l-0.293-41.348c6.765,1.63,12.144,4.21,12.144,4.21l7.542-15.771c0,0-8.787-3.387-19.804-4.805l-0.124-17.53l-13.698,0.715
	l0.214,16.379c-14.447,1.179-28.382,8.523-29.669,31.981c-1.516,27.646,14.223,37.039,30.604,39.464l0.224,17.158l13.083,0.688
	l-0.124-17.18C93.421,106.095,102.975,103.409,102.975,103.409z M54.293,67.756c0.191-12.037,6.185-16.545,13.419-17.584
	l0.562,42.884C60.415,91.289,54.024,84.71,54.293,67.756z"/>
</svg>
