<?xml version="1.0" encoding="utf-8"?>
<!-- Generator: Adobe Illustrator 15.0.0, SVG Export Plug-In . SVG Version: 6.00 Build 0)  -->
<!DOCTYPE svg PUBLIC "-//W3C//DTD SVG 1.1//EN" "http://www.w3.org/Graphics/SVG/1.1/DTD/svg11.dtd">
<svg version="1.1" id="Layer_1" xmlns="http://www.w3.org/2000/svg" xmlns:xlink="http://www.w3.org/1999/xlink" x="0px" y="0px"
	 width="150px" height="150px" viewBox="0 0 150 150" enable-background="new 0 0 150 150" xml:space="preserve">
<path fill="#EF4237" stroke="#3C2517" stroke-width="10" stroke-miterlimit="10" d="M43.833,5.144c0,0-34.119-2.152-37.388,10.209
	C3.717,35.118,5.338,108.037,7.322,119.02c3.334,19.721,35.281,14.862,35.281,14.862s89.663,10.515,93.85-9.651
	c1.736-13.176,2.195-106.657,0.191-110.521c-4.957-9.549-41.168-7.701-46.873-7.701C84.068,6.008,43.833,5.144,43.833,5.144z"/>
<path fill="#BE202E" d="M18.294,88.786c-1.597,3.591-0.992,21.237,0.795,25.958c1.787,4.719,35.837,7.518,47.568,6.43
	c12.71-1.179,55.504,7.729,57.291-5.251c1.786-12.979,5.56-12.979-2.582-22.416c-8.144-9.44-46.675-4.651-52.033-5.899
	C59.206,85.247,25.643,72.269,18.294,88.786z"/>
<path fill="#F79981" d="M23,35.626c8.647,10.467,32.814,7.402,45.8,7.402c12.986,0,58.44,7.402,57.202-9.869
	c-1.236-17.271-53.8-9.869-56.892-7.401C66.018,28.225,4.144,12.801,23,35.626z"/>
<linearGradient id="SVGID_1_" gradientUnits="userSpaceOnUse" x1="45.5273" y1="70.1294" x2="98.6895" y2="70.1294">
	<stop  offset="0.0044" style="stop-color:#74C044"/>
	<stop  offset="0.1834" style="stop-color:#76BC41"/>
	<stop  offset="0.4065" style="stop-color:#7CB63B"/>
	<stop  offset="0.6531" style="stop-color:#82AC32"/>
	<stop  offset="0.9148" style="stop-color:#839B23"/>
	<stop  offset="1" style="stop-color:#82951D"/>
</linearGradient>
<path fill="url(#SVGID_1_)" stroke="#231F20" stroke-miterlimit="10" d="M96.429,48.784c0,0-1.44-10.216-5.854-14.636
	c-4.877-4.879-14.636-6.343-14.636-6.343v-4.388L67.4,23.66l-0.243,4.633c0,0-19.169,1.944-20.491,22.442
	c-0.975,15.122,20.005,21.954,20.005,21.954l0.973,24.881c0,0-10.245,1.463-10.245-12.687c0-2.99-11.708-0.486-11.708-0.486
	s-3.416,19.513,20.98,24.393c1.916,0.383,1.218,7.807,1.218,7.807l9.268,0.245c0,0,0.258-4.394,0.246-6.589
	c-0.034-5.849,16.282,3.391,20.976-23.417c3.419-19.515-22.439-24.88-22.439-24.88L75.453,42.44c0,0,6.34,2.927,7.804,8.781
	C84.068,54.472,96.429,48.784,96.429,48.784z"/>
<path fill="#EF4237" stroke="#3C2517" stroke-miterlimit="10" d="M67.4,41.005l0.243,19.999c0,0-7.804-5.854-7.804-10.731
	C59.84,44.398,67.4,41.005,67.4,41.005z"/>
<path fill="#EF4237" stroke="#3C2517" stroke-miterlimit="10" d="M77.646,77.349l-0.243,19.998c0,0,7.804-5.854,7.804-10.731
	C85.206,80.741,77.646,77.349,77.646,77.349z"/>
</svg>
