<?xml version="1.0" encoding="utf-8"?>
<!-- Generator: Adobe Illustrator 15.0.0, SVG Export Plug-In . SVG Version: 6.00 Build 0)  -->
<!DOCTYPE svg PUBLIC "-//W3C//DTD SVG 1.1//EN" "http://www.w3.org/Graphics/SVG/1.1/DTD/svg11.dtd">
<svg version="1.1" id="Layer_1" xmlns="http://www.w3.org/2000/svg" xmlns:xlink="http://www.w3.org/1999/xlink" x="0px" y="0px"
	 width="150px" height="150px" viewBox="0 0 150 150" enable-background="new 0 0 150 150" xml:space="preserve">
<path fill="#EF4237" stroke="#3C2517" stroke-width="10" stroke-miterlimit="10" d="M43.833,5.144c0,0-34.119-2.152-37.388,10.209
	C3.717,35.118,5.338,108.037,7.322,119.02c3.334,19.721,35.281,14.862,35.281,14.862s89.663,10.515,93.85-9.651
	c1.736-13.176,2.195-106.657,0.191-110.521c-4.957-9.549-41.168-7.701-46.873-7.701C84.068,6.008,43.833,5.144,43.833,5.144z"/>
<path fill="#BE202E" d="M18.294,88.786c-1.597,3.591-0.992,21.237,0.795,25.958c1.787,4.719,35.837,7.518,47.568,6.43
	c12.71-1.179,55.504,7.729,57.291-5.251c1.786-12.979,5.56-12.979-2.582-22.416c-8.144-9.44-46.675-4.651-52.033-5.899
	C59.206,85.247,25.643,72.269,18.294,88.786z"/>
<path fill="#F79981" d="M23,35.626c8.647,10.467,32.814,7.402,45.8,7.402c12.986,0,58.44,7.402,57.202-9.869
	c-1.236-17.271-53.8-9.869-56.892-7.401C66.018,28.225,4.144,12.801,23,35.626z"/>
<linearGradient id="SVGID_1_" gradientUnits="userSpaceOnUse" x1="789.6201" y1="886.3965" x2="900.7637" y2="886.3965" gradientTransform="matrix(1 0.0017 -0.0017 1 -771.219 -817.7908)">
	<stop  offset="0.2667" style="stop-color:#FF9F45"/>
	<stop  offset="1" style="stop-color:#FFF345"/>
</linearGradient>
<path fill="url(#SVGID_1_)" d="M127.505,51.495c0.007-2.548-9.119-4.581-9.119-4.581l-9.614-9.648l-3.532-10.149l-4.078,8.105
	c0,0-14.061,15.202-20.313,17.714c-7.299,2.931-31.439,1.467-31.439,1.467l-7.603-1.535L34.7,56.917c0,0-12.99,2.849-15.725,6.051
	c-1.6,1.875-2.246,7.176-2.049,9.635c0.188,2.329,1.931,6.794,2.017,9.129c0.1,2.709-2.048,10.643-2.048,10.643
	s8.236-2.724,9.649-5.05c1.708-2.82-0.678-9.963,0.021-13.184c0.708-3.267,7.424-11.125,7.424-11.125s-1.892,7.551-1.848,10.121
	c0.044,2.34,0.688,7.21,2.014,9.129c0.724,1.044,4.051,3.048,4.051,3.048s-2.924,4.285-4.067,5.572
	c-3.269,3.682-14.42,13.428-14.42,13.428l4.803,8.628l16.704-15.961l8.131-9.615l2.551-7.602c0,0,0.667,5.003,1.82,6.098
	c3.255,3.114,13.062,5.2,17.485,4.345c3.703-0.719,13.449-6.824,13.449-6.824s-0.101,5.533,1.202,6.582
	c2.283,1.827,9.086-0.359,11.659,1.031c3.414,1.844,9.616,12.187,9.616,12.187l3.025,7.605l9.638-1.503
	c0,0-1.824-10.231-3.529-13.187c-2.055-3.574-11.644-11.681-11.644-11.681s-2.406-6.829-2.011-9.13
	c0.537-3.135,5.271-8.479,5.092-11.651c-0.104-1.761-2.595-4.609-3.538-6.091c-0.764-1.197-2.531-5.074-2.531-5.074l9.627,5.083
	c0,0,7.773,1.982,10.143,1.032c2.383-0.958,6.659-7.835,6.659-7.835L127.505,51.495z"/>
</svg>
