<?xml version="1.0" encoding="utf-8"?>
<!-- Generator: Adobe Illustrator 15.0.0, SVG Export Plug-In . SVG Version: 6.00 Build 0)  -->
<!DOCTYPE svg PUBLIC "-//W3C//DTD SVG 1.1//EN" "http://www.w3.org/Graphics/SVG/1.1/DTD/svg11.dtd">
<svg version="1.1" id="Layer_1" xmlns="http://www.w3.org/2000/svg" xmlns:xlink="http://www.w3.org/1999/xlink" x="0px" y="0px"
	 width="100px" height="400px" viewBox="0 0 100 400" enable-background="new 0 0 100 400" xml:space="preserve">
<linearGradient id="SVGID_1_" gradientUnits="userSpaceOnUse" x1="288.5674" y1="169.2715" x2="289.7558" y2="-211.0031" gradientTransform="matrix(1 0 0 -1 -247.6602 180.04)">
	<stop  offset="0" style="stop-color:#FFFFFF"/>
	<stop  offset="1" style="stop-color:#6D2671"/>
</linearGradient>
<path fill="url(#SVGID_1_)" d="M83,394.109c0,3.528-2.688,6.391-6,6.391H6c-3.313,0-6-2.862-6-6.391V6.391C0,2.862,2.687,0,6,0h71
	c3.313,0,6,2.862,6,6.391V394.109z"/>
<g>
	
		<linearGradient id="SVGID_2_" gradientUnits="userSpaceOnUse" x1="289.1455" y1="130.2056" x2="290.1757" y2="-199.4543" gradientTransform="matrix(1 0 0 -1 -247.6602 180.04)">
		<stop  offset="0" style="stop-color:#42270F"/>
		<stop  offset="1" style="stop-color:#B76EAD"/>
	</linearGradient>
	<path fill="url(#SVGID_2_)" d="M75,377.066c0,5.858-4.5,10.651-10,10.651H19c-5.5,0-10-4.793-10-10.651V51.127
		c0-5.858,4.5-10.651,10-10.651h46c5.5,0,10,4.793,10,10.651V377.066z"/>
</g>
<linearGradient id="SVGID_3_" gradientUnits="userSpaceOnUse" x1="262.1025" y1="177.5786" x2="261.0374" y2="138.1707" gradientTransform="matrix(1 0 0 -1 -247.6602 180.04)">
	<stop  offset="0" style="stop-color:#EE3324"/>
	<stop  offset="0.0312" style="stop-color:#EF432A"/>
	<stop  offset="0.1408" style="stop-color:#F26B49"/>
	<stop  offset="0.2451" style="stop-color:#F58565"/>
	<stop  offset="0.3411" style="stop-color:#F7977A"/>
	<stop  offset="0.426" style="stop-color:#F8A287"/>
	<stop  offset="0.4909" style="stop-color:#F8A68C"/>
	<stop  offset="0.5717" style="stop-color:#F5997D"/>
	<stop  offset="0.7327" style="stop-color:#EF775A"/>
	<stop  offset="0.9569" style="stop-color:#E6342B"/>
	<stop  offset="1" style="stop-color:#E41E25"/>
</linearGradient>
<path fill="url(#SVGID_3_)" d="M16.363,8.706c0.552,0.256,1.031,0.601,1.44,1.035c0.408,0.436,0.731,0.946,0.972,1.534
	c0.24,0.589,0.36,1.214,0.36,1.879v3.067c0,0.358-0.157,0.589-0.468,0.69l-3.276,0.537c-0.312,0.103-0.468-0.025-0.468-0.383v-3.72
	c0-0.255-0.084-0.473-0.252-0.652c-0.168-0.178-0.372-0.268-0.612-0.268h-0.288c-0.24,0-0.444,0.089-0.612,0.268
	c-0.168,0.179-0.252,0.397-0.252,0.652v17.332c0,0.256,0.083,0.474,0.252,0.652c0.167,0.179,0.372,0.269,0.612,0.269h0.288
	c0.24,0,0.444-0.088,0.612-0.269c0.168-0.178,0.252-0.396,0.252-0.652v-5.368c0-0.358,0.156-0.485,0.468-0.383l3.276,0.46
	c0.312,0.103,0.468,0.333,0.468,0.69v4.793c0,0.666-0.121,1.291-0.36,1.879c-0.24,0.587-0.564,1.099-0.972,1.534
	c-0.409,0.436-0.888,0.78-1.44,1.036c-0.553,0.255-1.141,0.383-1.764,0.383H13.23c-0.625,0-1.212-0.128-1.764-0.383
	c-0.553-0.256-1.032-0.6-1.44-1.036c-0.408-0.435-0.732-0.946-0.972-1.534c-0.24-0.588-0.36-1.214-0.36-1.879V13.154
	c0-0.665,0.12-1.29,0.36-1.879c0.24-0.588,0.563-1.098,0.972-1.534c0.408-0.435,0.888-0.779,1.44-1.035
	c0.552-0.255,1.139-0.383,1.764-0.383h1.368C15.222,8.322,15.81,8.451,16.363,8.706z"/>
<linearGradient id="SVGID_4_" gradientUnits="userSpaceOnUse" x1="274.874" y1="177.2124" x2="273.809" y2="137.8059" gradientTransform="matrix(1 0 0 -1 -247.6602 180.04)">
	<stop  offset="0" style="stop-color:#EE3324"/>
	<stop  offset="0.0312" style="stop-color:#EF432A"/>
	<stop  offset="0.1408" style="stop-color:#F26B49"/>
	<stop  offset="0.2451" style="stop-color:#F58565"/>
	<stop  offset="0.3411" style="stop-color:#F7977A"/>
	<stop  offset="0.426" style="stop-color:#F8A287"/>
	<stop  offset="0.4909" style="stop-color:#F8A68C"/>
	<stop  offset="0.5717" style="stop-color:#F5997D"/>
	<stop  offset="0.7327" style="stop-color:#EF775A"/>
	<stop  offset="0.9569" style="stop-color:#E6342B"/>
	<stop  offset="1" style="stop-color:#E41E25"/>
</linearGradient>
<path fill="url(#SVGID_4_)" d="M31.915,30.869c0,0.666-0.121,1.291-0.36,1.879c-0.24,0.587-0.564,1.099-0.972,1.534
	c-0.409,0.436-0.888,0.78-1.44,1.036c-0.553,0.255-1.141,0.383-1.764,0.383H26.01c-0.625,0-1.212-0.128-1.764-0.383
	c-0.553-0.256-1.032-0.6-1.44-1.036c-0.408-0.435-0.732-0.946-0.972-1.534c-0.24-0.588-0.36-1.214-0.36-1.879V13.154
	c0-0.665,0.12-1.29,0.36-1.879c0.24-0.588,0.563-1.098,0.972-1.534c0.408-0.435,0.888-0.779,1.44-1.035
	c0.552-0.255,1.139-0.383,1.764-0.383h1.368c0.624,0,1.211,0.129,1.764,0.383c0.552,0.256,1.031,0.601,1.44,1.035
	c0.408,0.436,0.731,0.946,0.972,1.534c0.24,0.589,0.36,1.214,0.36,1.879L31.915,30.869L31.915,30.869z M27.702,13.345
	c0-0.255-0.084-0.473-0.252-0.652c-0.168-0.178-0.372-0.268-0.612-0.268H26.55c-0.24,0-0.444,0.089-0.612,0.268
	c-0.168,0.179-0.252,0.397-0.252,0.652v17.332c0,0.256,0.083,0.474,0.252,0.652c0.167,0.179,0.372,0.269,0.612,0.269h0.288
	c0.24,0,0.444-0.088,0.612-0.269c0.168-0.178,0.252-0.396,0.252-0.652V13.345z"/>
<linearGradient id="SVGID_5_" gradientUnits="userSpaceOnUse" x1="289.9805" y1="176.7651" x2="288.9162" y2="137.3866" gradientTransform="matrix(1 0 0 -1 -247.6602 180.04)">
	<stop  offset="0" style="stop-color:#EE3324"/>
	<stop  offset="0.0312" style="stop-color:#EF432A"/>
	<stop  offset="0.1408" style="stop-color:#F26B49"/>
	<stop  offset="0.2451" style="stop-color:#F58565"/>
	<stop  offset="0.3411" style="stop-color:#F7977A"/>
	<stop  offset="0.426" style="stop-color:#F8A287"/>
	<stop  offset="0.4909" style="stop-color:#F8A68C"/>
	<stop  offset="0.5717" style="stop-color:#F5997D"/>
	<stop  offset="0.7327" style="stop-color:#EF775A"/>
	<stop  offset="0.9569" style="stop-color:#E6342B"/>
	<stop  offset="1" style="stop-color:#E41E25"/>
</linearGradient>
<path fill="url(#SVGID_5_)" d="M48.834,9.127v25.769c0,0.358-0.168,0.537-0.504,0.537h-3.456c-0.337,0-0.505-0.178-0.505-0.537
	V22.778l-2.375,9.893c-0.048,0.128-0.108,0.192-0.18,0.192s-0.132-0.064-0.18-0.192l-2.376-9.893v12.117
	c0,0.358-0.168,0.537-0.504,0.537h-3.456c-0.336,0-0.504-0.178-0.504-0.537V9.127c0-0.357,0.167-0.537,0.504-0.537h3.06
	c0.144,0,0.27,0.058,0.378,0.173S38.922,9,38.97,9.127l2.844,13.728l2.844-13.728C44.705,9,44.783,8.878,44.891,8.763
	s0.234-0.173,0.378-0.173h3.061C48.666,8.59,48.834,8.77,48.834,9.127z"/>
<linearGradient id="SVGID_6_" gradientUnits="userSpaceOnUse" x1="305.3926" y1="176.3306" x2="304.3278" y2="136.9349" gradientTransform="matrix(1 0 0 -1 -247.6602 180.04)">
	<stop  offset="0" style="stop-color:#EE3324"/>
	<stop  offset="0.0312" style="stop-color:#EF432A"/>
	<stop  offset="0.1408" style="stop-color:#F26B49"/>
	<stop  offset="0.2451" style="stop-color:#F58565"/>
	<stop  offset="0.3411" style="stop-color:#F7977A"/>
	<stop  offset="0.426" style="stop-color:#F8A287"/>
	<stop  offset="0.4909" style="stop-color:#F8A68C"/>
	<stop  offset="0.5717" style="stop-color:#F5997D"/>
	<stop  offset="0.7327" style="stop-color:#EF775A"/>
	<stop  offset="0.9569" style="stop-color:#E6342B"/>
	<stop  offset="1" style="stop-color:#E41E25"/>
</linearGradient>
<path fill="url(#SVGID_6_)" d="M61.506,22.05c0.336,0.358,0.588,0.78,0.756,1.266c0.168,0.485,0.252,1.022,0.252,1.61v5.675
	c0,0.666-0.119,1.291-0.359,1.879c-0.24,0.588-0.563,1.099-0.973,1.534c-0.408,0.435-0.889,0.78-1.439,1.036
	c-0.553,0.255-1.141,0.383-1.764,0.383h-5.399c-0.337,0-0.504-0.178-0.504-0.537V9.127c0-0.357,0.167-0.537,0.504-0.537h5.399
	c0.623,0,1.211,0.129,1.764,0.383c0.552,0.256,1.031,0.602,1.439,1.036c0.408,0.436,0.731,0.946,0.973,1.534
	c0.24,0.589,0.359,1.215,0.359,1.879v3.834c0,1.176-0.337,2.16-1.008,2.953c-0.359,0.409-0.792,0.741-1.296,0.997
	C60.736,21.412,61.169,21.692,61.506,22.05z M58.302,13.614c0-0.256-0.085-0.474-0.252-0.652c-0.168-0.178-0.373-0.269-0.612-0.269
	h-1.151v6.519h1.151c0.239,0,0.444-0.089,0.612-0.269c0.167-0.178,0.252-0.396,0.252-0.652V13.614z M58.302,24.313
	c0-0.256-0.085-0.473-0.252-0.652c-0.168-0.179-0.373-0.268-0.612-0.268h-1.151v7.938h1.151c0.239,0,0.444-0.089,0.612-0.269
	c0.167-0.178,0.252-0.396,0.252-0.652V24.313z"/>
<linearGradient id="SVGID_7_" gradientUnits="userSpaceOnUse" x1="318.2188" y1="175.9634" x2="317.1537" y2="136.5569" gradientTransform="matrix(1 0 0 -1 -247.6602 180.04)">
	<stop  offset="0" style="stop-color:#EE3324"/>
	<stop  offset="0.0312" style="stop-color:#EF432A"/>
	<stop  offset="0.1408" style="stop-color:#F26B49"/>
	<stop  offset="0.2451" style="stop-color:#F58565"/>
	<stop  offset="0.3411" style="stop-color:#F7977A"/>
	<stop  offset="0.426" style="stop-color:#F8A287"/>
	<stop  offset="0.4909" style="stop-color:#F8A68C"/>
	<stop  offset="0.5717" style="stop-color:#F5997D"/>
	<stop  offset="0.7327" style="stop-color:#EF775A"/>
	<stop  offset="0.9569" style="stop-color:#E6342B"/>
	<stop  offset="1" style="stop-color:#E41E25"/>
</linearGradient>
<path fill="url(#SVGID_7_)" d="M75.294,30.869c0,0.666-0.12,1.291-0.36,1.879c-0.24,0.587-0.563,1.099-0.972,1.534
	c-0.407,0.436-0.889,0.78-1.44,1.036c-0.551,0.255-1.14,0.383-1.764,0.383h-1.367c-0.625,0-1.213-0.128-1.765-0.383
	c-0.553-0.256-1.032-0.6-1.44-1.036c-0.408-0.435-0.731-0.946-0.972-1.534c-0.239-0.588-0.36-1.214-0.36-1.879V13.154
	c0-0.665,0.121-1.29,0.36-1.879c0.239-0.588,0.563-1.098,0.972-1.534c0.408-0.435,0.889-0.779,1.44-1.035
	c0.552-0.255,1.14-0.383,1.765-0.383h1.367c0.624,0,1.213,0.129,1.764,0.383c0.553,0.255,1.033,0.601,1.44,1.035
	c0.407,0.436,0.731,0.946,0.972,1.534c0.24,0.589,0.36,1.214,0.36,1.879V30.869z M71.082,13.345c0-0.255-0.085-0.473-0.252-0.652
	c-0.169-0.178-0.373-0.268-0.612-0.268H69.93c-0.24,0-0.443,0.089-0.611,0.268c-0.168,0.179-0.252,0.397-0.252,0.652v17.332
	c0,0.256,0.084,0.474,0.252,0.652c0.168,0.179,0.371,0.269,0.611,0.269h0.288c0.239,0,0.443-0.088,0.612-0.269
	c0.167-0.178,0.252-0.396,0.252-0.652V13.345z"/>
<linearGradient id="SVGID_8_" gradientUnits="userSpaceOnUse" x1="259.8105" y1="-20.5518" x2="319.4219" y2="-20.5518" gradientTransform="matrix(1 0 0 -1 -247.6602 180.04)">
	<stop  offset="0" style="stop-color:#EE3324"/>
	<stop  offset="0.0617" style="stop-color:#F1603E"/>
	<stop  offset="0.1472" style="stop-color:#F58B69"/>
	<stop  offset="0.2299" style="stop-color:#F9AC91"/>
	<stop  offset="0.3077" style="stop-color:#FBC8B4"/>
	<stop  offset="0.3793" style="stop-color:#FDDDD0"/>
	<stop  offset="0.4426" style="stop-color:#FEE9E1"/>
	<stop  offset="0.4909" style="stop-color:#FEEDE8"/>
	<stop  offset="0.5449" style="stop-color:#FCDFD4"/>
	<stop  offset="0.6525" style="stop-color:#F7BAA6"/>
	<stop  offset="0.8037" style="stop-color:#EF8367"/>
	<stop  offset="0.9913" style="stop-color:#E52627"/>
	<stop  offset="1" style="stop-color:#E41E25"/>
</linearGradient>
<path display="none" fill="url(#SVGID_8_)" d="M71.762,354.628c0,3.252-4.203,5.89-9.389,5.89H21.539
	c-5.185,0-9.389-2.638-9.389-5.89V46.556c0-3.252,4.204-5.89,9.389-5.89h40.834c5.186,0,9.389,2.637,9.389,5.89V354.628z"/>
</svg>
