<?xml version="1.0" encoding="utf-8"?>
<!-- Generator: Adobe Illustrator 15.0.0, SVG Export Plug-In  -->
<!DOCTYPE svg PUBLIC "-//W3C//DTD SVG 1.1//EN" "http://www.w3.org/Graphics/SVG/1.1/DTD/svg11.dtd" [
	<!ENTITY ns_flows "http://ns.adobe.com/Flows/1.0/">
]>
<svg version="1.1"
	 xmlns="http://www.w3.org/2000/svg" xmlns:xlink="http://www.w3.org/1999/xlink" xmlns:a="http://ns.adobe.com/AdobeSVGViewerExtensions/3.0/"
	 x="0px" y="0px" width="167px" height="166px" viewBox="0 0 167 166" enable-background="new 0 0 167 166" xml:space="preserve">
<defs>
</defs>
<polygon fill="#726658" stroke="#000000" stroke-miterlimit="10" points="84.44,0.607 92.501,6.171 101.543,2.405 108.271,9.523 
	117.899,7.72 123,16.081 132.793,16.318 136.044,25.558 145.573,27.826 146.832,37.539 155.682,41.739 154.893,51.502 
	162.677,57.45 159.875,66.836 166.252,74.271 161.561,82.871 166.252,91.468 159.875,98.904 162.677,108.291 154.893,114.238 
	155.682,124.001 146.832,128.201 145.573,137.913 136.044,140.182 132.793,149.421 123,149.658 117.899,158.021 108.271,156.215 
	101.543,163.334 92.501,159.567 84.44,165.132 76.378,159.567 67.337,163.334 60.608,156.215 50.98,158.021 45.879,149.658 
	36.087,149.421 32.836,140.182 23.307,137.913 22.048,128.201 13.198,124.001 13.986,114.238 6.204,108.291 9.004,98.904 
	2.628,91.468 7.319,82.871 2.628,74.271 9.004,66.836 6.204,57.45 13.986,51.502 13.198,41.739 22.048,37.539 23.307,27.826 
	32.836,25.558 36.087,16.318 45.879,16.081 50.98,7.72 60.608,9.523 67.337,2.405 76.378,6.171 "/>
<radialGradient id="SVGID_1_" cx="80.166" cy="81.3667" r="79.7813" gradientUnits="userSpaceOnUse">
	<stop  offset="0.3635" style="stop-color:#FFFFFF"/>
	<stop  offset="0.7604" style="stop-color:#F05439"/>
	<stop  offset="1" style="stop-color:#ED2C26"/>
</radialGradient>
<polygon fill="url(#SVGID_1_)" stroke="#000000" stroke-miterlimit="10" points="80.166,1.367 88.005,6.777 96.798,3.115 
	103.341,10.038 112.705,8.283 117.666,16.415 127.189,16.646 130.351,25.631 139.617,27.836 140.841,37.283 149.449,41.367 
	148.681,50.861 156.251,56.646 153.527,65.773 159.728,73.004 155.166,81.367 159.728,89.728 153.527,96.96 156.251,106.087 
	148.681,111.873 149.449,121.367 140.841,125.451 139.617,134.896 130.351,137.103 127.189,146.087 117.666,146.318 
	112.705,154.451 103.341,152.695 96.798,159.619 88.005,155.955 80.166,161.367 72.326,155.955 63.533,159.619 56.989,152.695 
	47.626,154.451 42.666,146.318 33.143,146.087 29.981,137.103 20.714,134.896 19.489,125.451 10.883,121.367 11.649,111.873 
	4.081,106.087 6.805,96.96 0.604,89.728 5.166,81.367 0.604,73.004 6.805,65.773 4.081,56.646 11.649,50.861 10.883,41.367 
	19.489,37.283 20.714,27.836 29.981,25.631 33.143,16.646 42.666,16.415 47.626,8.283 56.989,10.038 63.533,3.115 72.326,6.777 "/>
<linearGradient id="SVGID_2_" gradientUnits="userSpaceOnUse" x1="49.9468" y1="61.2349" x2="109.6724" y2="61.2349">
	<stop  offset="0.0259" style="stop-color:#F7941E"/>
	<stop  offset="0.4508" style="stop-color:#F9ED32"/>
	<stop  offset="0.5096" style="stop-color:#F8E231"/>
	<stop  offset="0.6162" style="stop-color:#F6CD2E"/>
	<stop  offset="0.7585" style="stop-color:#F3A82A"/>
	<stop  offset="0.9292" style="stop-color:#F17824"/>
	<stop  offset="1" style="stop-color:#F15F22"/>
</linearGradient>
<path fill="url(#SVGID_2_)" stroke="#000000" stroke-miterlimit="10" d="M51.154,39.296c-2.414,4.208-0.462,18.398-0.462,18.398
	s0.443,14.21,2.309,18.474c0.969,2.214,6.235,7.39,6.235,7.39s12.929,5.643,20.015,5.543c7.415-0.104,13.469-1.617,19.473-5.197
	c3.852-2.296,5.728-5.033,6.929-7.273c2.307-4.304,3.29-14.287,3.465-19.168c0.174-4.859,1.497-13.978-0.694-17.781
	c-1.314-2.285-6.092-3.231-6.092-3.231s-19.573-3.115-22.081-3.083c-3.004,0.04-20.113,1.888-22.419,2.833
	C55.87,37.003,52.208,37.458,51.154,39.296z"/>
<linearGradient id="SVGID_3_" gradientUnits="userSpaceOnUse" x1="62.6201" y1="104.4292" x2="96.2593" y2="104.4292">
	<stop  offset="0.0259" style="stop-color:#F7941E"/>
	<stop  offset="0.4508" style="stop-color:#F9ED32"/>
	<stop  offset="0.4853" style="stop-color:#F8E331"/>
	<stop  offset="0.5479" style="stop-color:#F7CD2C"/>
	<stop  offset="0.6313" style="stop-color:#F4A927"/>
	<stop  offset="0.7297" style="stop-color:#F47920"/>
</linearGradient>
<path fill="url(#SVGID_3_)" stroke="#000000" stroke-miterlimit="10" d="M86.499,88.701c0,0-5.581,0.408-7.248,0.4
	c-1.618-0.008-6.419-0.566-6.419-0.566s1.797,15.01-0.513,19.011c-1.218,2.11-9.699,7.466-9.699,7.466s8.005,5.371,17.637,5.311
	c10.245-0.064,16.002-5.848,16.002-5.848s-7.609-4.161-9.085-6.467C84.683,104.111,86.499,88.701,86.499,88.701z"/>
<linearGradient id="SVGID_4_" gradientUnits="userSpaceOnUse" x1="51.8647" y1="124.9097" x2="107.6655" y2="124.9097">
	<stop  offset="0.083" style="stop-color:#F7941E"/>
	<stop  offset="0.4508" style="stop-color:#F9ED32"/>
	<stop  offset="0.499" style="stop-color:#F8E231"/>
	<stop  offset="0.5863" style="stop-color:#F5CC2D"/>
	<stop  offset="0.7028" style="stop-color:#F2A728"/>
	<stop  offset="0.8426" style="stop-color:#EF7622"/>
	<stop  offset="0.8775" style="stop-color:#EF6821"/>
</linearGradient>
<path fill="url(#SVGID_4_)" stroke="#000000" stroke-miterlimit="10" d="M95.748,114.285c0,0-4.538,5.612-15.5,5.666
	c-10.433,0.051-15.98-4.784-16.833-5.416c0,0-11.612,3.969-11.55,10.365c0.05,5.135,8.633,10.635,28.633,10.635
	c20.927,0,27.25-6.084,27.167-10.834C107.572,119.449,95.748,114.285,95.748,114.285z"/>
<linearGradient id="SVGID_5_" gradientUnits="userSpaceOnUse" x1="65.8296" y1="47.5752" x2="67.1145" y2="84.8385">
	<stop  offset="0.2383" style="stop-color:#FFFFFF"/>
	<stop  offset="0.7461" style="stop-color:#FFFFFF;stop-opacity:0.36"/>
</linearGradient>
<path opacity="0.58" fill="url(#SVGID_5_)" d="M74.165,46.201c0,0-10.001-0.101-12.083-0.75c-1.713-0.535-5.125-1.063-5.125-1.063
	s1.338,10.515,1.875,18.188c0.323,4.617,1.333,9.542,2,12.875c0.806,4.032,5.204,8.869,6.333,10.25
	c1.5,1.834,8.833,2.667,8.833,2.667s-2.013-11.351-2.167-15.833C73.485,62.489,74.165,46.201,74.165,46.201z"/>
<linearGradient id="SVGID_6_" gradientUnits="userSpaceOnUse" x1="44.4478" y1="17.1685" x2="45.9682" y2="91.6692">
	<stop  offset="0.0259" style="stop-color:#F7941E"/>
	<stop  offset="0.2882" style="stop-color:#F9ED32"/>
	<stop  offset="0.3979" style="stop-color:#F8D82C"/>
	<stop  offset="0.586" style="stop-color:#F7BB25"/>
	<stop  offset="0.7558" style="stop-color:#F7A520"/>
	<stop  offset="0.8995" style="stop-color:#F7981E"/>
	<stop  offset="1" style="stop-color:#F7941E"/>
</linearGradient>
<path fill="url(#SVGID_6_)" stroke="#000000" stroke-miterlimit="10" d="M47.211,75.707c-0.69-0.507-4.231-2.484-6.333-5.667
	c-1.906-2.887-2.406-6.922-2.667-8.833c-0.5-3.667-1.431-11.546,3.333-12.5c3.333-0.667,5.791,4.374,6.5,5.167
	c0.832,0.931,2.12,4.494,2.12,4.494l-1-14c0,0-4.582-2.473-6.852-2.627c-10.269-0.7-10.902,11.826-11.083,14.78
	c-0.244,3.961,1.933,12.146,3.694,15.703c3.954,7.984,12.47,10.381,15.315,11.662c3.306,1.488,4.639,2.655,1.386,4.503
	c-2.591,1.472,0.654,3.644,0,2.771c-1.039-1.386,0.243,3.446,6.087-1.619c2.5-2.167,2.204-2.715,2.167-4.5
	c-0.053-2.55-6-5.833-6-5.833S48.314,76.517,47.211,75.707z"/>
<linearGradient id="SVGID_7_" gradientUnits="userSpaceOnUse" x1="68.4082" y1="103.9175" x2="80.2417" y2="104.4175">
	<stop  offset="0.2749" style="stop-color:#FFFFFF;stop-opacity:0.75"/>
	<stop  offset="1" style="stop-color:#FFFFFF;stop-opacity:0.39"/>
</linearGradient>
<path opacity="0.68" fill="url(#SVGID_7_)" d="M77.082,89.451l-3.5-0.25c0,0,0.354,10.992,0.25,14.666
	c-0.083,2.918-1.833,4.918-1.833,4.918l-7.667,5.832c0,0,4.065,2.699,5.333,3.084c1.482,0.449,7,1.5,7,1.5l0.75-12.78L77.082,89.451
	z"/>
<linearGradient id="SVGID_8_" gradientUnits="userSpaceOnUse" x1="53.7485" y1="122.9888" x2="78.583" y2="126.3224">
	<stop  offset="0.3258" style="stop-color:#FFFFFF"/>
	<stop  offset="0.8173" style="stop-color:#FFFFFF;stop-opacity:0.33"/>
</linearGradient>
<path opacity="0.66" fill="url(#SVGID_8_)" d="M63.332,115.201c0,0,3,2.25,5.583,3.25c2.714,1.051,7.833,1.916,7.833,1.916
	l-1.508,14.369c0,0-12.075-0.702-17.075-3.368c-6.545-3.489-5.667-7.417-5.667-7.417s1.949-3.798,3.333-4.916
	C57.155,117.965,63.332,115.201,63.332,115.201z"/>
<linearGradient id="SVGID_9_" gradientUnits="userSpaceOnUse" x1="58.2485" y1="39.7588" x2="100.8833" y2="39.7588">
	<stop  offset="0.0933" style="stop-color:#C35623"/>
	<stop  offset="0.2619" style="stop-color:#D27B27"/>
	<stop  offset="0.4673" style="stop-color:#E4A42C"/>
	<stop  offset="0.6212" style="stop-color:#F2C130"/>
	<stop  offset="0.7047" style="stop-color:#F8CD31"/>
	<stop  offset="0.7797" style="stop-color:#F0BA2E"/>
	<stop  offset="0.9366" style="stop-color:#DF8D28"/>
	<stop  offset="1" style="stop-color:#D87B26"/>
</linearGradient>
<path fill="url(#SVGID_9_)" stroke="#8B5E3C" stroke-miterlimit="10" d="M108.21,40.259c0.134,3.441-12.824,5.659-28.644,5.659
	c-15.819,0-28.485-2.218-28.644-5.659c-0.176-3.82,12.824-6.66,28.644-6.66C95.386,33.599,108.082,36.951,108.21,40.259z"/>
<linearGradient id="SVGID_10_" gradientUnits="userSpaceOnUse" x1="113.5581" y1="13.7002" x2="113.5581" y2="91.7017">
	<stop  offset="0.0259" style="stop-color:#F7941E"/>
	<stop  offset="0.3526" style="stop-color:#F9ED32"/>
	<stop  offset="0.4999" style="stop-color:#F8CD29"/>
	<stop  offset="0.6458" style="stop-color:#F7B423"/>
	<stop  offset="0.7816" style="stop-color:#F7A220"/>
	<stop  offset="0.9037" style="stop-color:#F7971E"/>
	<stop  offset="1" style="stop-color:#F7941E"/>
</linearGradient>
<path fill="url(#SVGID_10_)" stroke="#000000" stroke-miterlimit="10" d="M111.907,75.957c0.69-0.507,4.231-2.484,6.333-5.667
	c1.906-2.887,2.406-6.922,2.667-8.833c0.5-3.667,1.431-11.546-3.333-12.5c-3.334-0.667-5.791,4.374-6.5,5.167
	c-0.832,0.931-2.121,4.494-2.121,4.494l1-14c0,0,4.582-2.473,6.852-2.627c10.27-0.7,10.902,11.826,11.084,14.78
	c0.244,3.961-1.933,12.146-3.693,15.703c-3.955,7.984-12.471,10.381-15.315,11.662c-3.306,1.488-4.64,2.655-1.386,4.503
	c2.592,1.472-0.654,3.644,0,2.771c1.039-1.386-0.242,3.446-6.087-1.619c-2.5-2.167-2.204-2.715-2.167-4.5
	c0.054-2.55,6-5.833,6-5.833S110.804,76.767,111.907,75.957z"/>
</svg>
