<?xml version="1.0" encoding="utf-8"?>
<!-- Generator: Adobe Illustrator 15.0.0, SVG Export Plug-In  -->
<!DOCTYPE svg PUBLIC "-//W3C//DTD SVG 1.1//EN" "http://www.w3.org/Graphics/SVG/1.1/DTD/svg11.dtd" [
	<!ENTITY ns_flows "http://ns.adobe.com/Flows/1.0/">
]>
<svg version="1.1"
	 xmlns="http://www.w3.org/2000/svg" xmlns:xlink="http://www.w3.org/1999/xlink" xmlns:a="http://ns.adobe.com/AdobeSVGViewerExtensions/3.0/"
	 x="0px" y="0px" width="288px" height="432px" viewBox="0.5 0.5 288 432" enable-background="new 0.5 0.5 288 432"
	 xml:space="preserve">
<defs>
</defs>
<rect x="0.5" y="0.5" display="none" fill="#98CA3C" stroke="#000000" stroke-miterlimit="10" width="288" height="432"/>
<path fill="#EE2A7B" stroke="#BE1E2D" d="M18.607,29.992c1.856,1.683,4.304,2.705,6.988,2.705c2.683,0,5.131-1.022,6.989-2.705
	c1.438-1.303,2.521-3.004,3.083-4.933c0.285-0.962,0.433-1.983,0.433-3.041c0-1.037-0.145-2.039-0.415-2.989
	c-0.559-1.948-1.648-3.669-3.104-4.987c-1.856-1.681-4.304-2.703-6.987-2.703c-2.684,0-5.132,1.022-6.988,2.703
	c-1.453,1.317-2.545,3.039-3.103,4.987c-0.27,0.95-0.416,1.952-0.416,2.989c0,1.058,0.151,2.079,0.433,3.041
	C16.084,26.988,17.167,28.689,18.607,29.992z"/>
<path fill="none" stroke="#BE1E2D" stroke-width="3" d="M33.613,14.392c3.015-2.658,5.583,0,5.583,0"/>
<path fill="#EE2A7B" d="M40.045,30.582c1.857,1.683,4.303,2.706,6.988,2.706c2.683,0,5.131-1.022,6.988-2.706
	c1.438-1.303,2.521-3.004,3.084-4.933c0.282-0.962,0.432-1.983,0.432-3.041c0-1.036-0.143-2.038-0.416-2.987
	c-0.556-1.951-1.646-3.672-3.103-4.988c-1.855-1.681-4.303-2.704-6.986-2.704c-2.685,0-5.131,1.023-6.988,2.704
	c-1.452,1.316-2.544,3.038-3.102,4.988c-0.271,0.949-0.416,1.951-0.416,2.987c0,1.058,0.15,2.079,0.432,3.041
	C37.523,27.578,38.605,29.279,40.045,30.582z"/>
<path fill="none" stroke="#FFFFFF" d="M54.845,17.216c3.104,5.6-0.706,14.061-7.099,14.061c-5.111,0-9.257-4.154-9.257-9.279
	c0-4.1,3.315-7.423,7.405-7.423c3.271,0,7.653,2.568,7.653,5.848c0,2.625-1.802,7.963-6.543,7.454
	c-4.166-0.446-6.051-4.023-6.25-6.111c-0.297-3.131,2.977-5.517,5.503-5.069c2.784,0.493,4.595,1.643,4.762,4.324
	c0.146,2.386-1.937,3.936-3.571,4.026c-2.678,0.147-3.308-2.06-3.423-3.43c-0.146-1.789,1.044-2.384,2.084-2.237
	c1.472,0.211,2.172,1.095,2.229,1.641c0.152,1.342-1.178,1.911-1.484,1.342c-0.168-0.31-0.796-0.856-0.796-1.207"/>
<path fill="none" stroke="#BE1E2D" stroke-width="3" d="M40.12,30.755c1.855,1.683,4.301,2.705,6.987,2.705
	c2.684,0,5.131-1.022,6.988-2.705c1.438-1.304,2.521-3.004,3.083-4.934c0.286-0.962,0.433-1.983,0.433-3.041
	c0-1.037-0.145-2.039-0.415-2.987c-0.558-1.949-1.649-3.671-3.102-4.988c-1.857-1.681-4.304-2.703-6.988-2.703
	c-2.686,0-5.132,1.022-6.987,2.703c-1.454,1.317-2.545,3.039-3.103,4.988c-0.271,0.949-0.415,1.95-0.415,2.987
	c0,1.058,0.151,2.079,0.433,3.041C37.598,27.75,38.679,29.451,40.12,30.755z"/>
<path fill="none" stroke="#FFFFFF" d="M17.852,16.773c-3.104,5.601,0.707,14.061,7.099,14.061c5.113,0,9.258-4.155,9.258-9.281
	c0-4.098-3.315-7.42-7.408-7.42c-3.271,0-7.652,2.568-7.652,5.847c0,2.625,1.803,7.963,6.544,7.454
	c4.166-0.446,6.05-4.023,6.249-6.112c0.298-3.13-2.976-5.516-5.504-5.069c-2.783,0.493-4.592,1.642-4.759,4.323
	c-0.148,2.387,1.936,3.936,3.57,4.027c2.677,0.146,3.307-2.06,3.421-3.431c0.149-1.789-1.042-2.383-2.084-2.237
	c-1.47,0.212-2.17,1.096-2.229,1.641c-0.15,1.343,1.179,1.911,1.486,1.343c0.168-0.31,0.796-0.856,0.796-1.207"/>
<path fill="none" stroke="#BE1E2D" stroke-width="3" d="M18.681,30.165c1.856,1.683,4.304,2.705,6.988,2.705
	c2.683,0,5.131-1.022,6.989-2.705c1.438-1.303,2.521-3.004,3.084-4.934c0.284-0.962,0.433-1.983,0.433-3.042
	c0-1.037-0.145-2.039-0.417-2.986c-0.557-1.95-1.648-3.672-3.103-4.988c-1.855-1.682-4.303-2.704-6.986-2.704
	c-2.684,0-5.132,1.022-6.988,2.704c-1.452,1.316-2.544,3.038-3.102,4.988c-0.271,0.948-0.417,1.95-0.417,2.986
	c0,1.059,0.152,2.079,0.433,3.042C16.158,27.16,17.242,28.861,18.681,30.165z"/>
<path fill="#EE2A7B" stroke="#BE1E2D" d="M91.252,26.881c1.856,1.683,4.304,2.705,6.988,2.705c2.683,0,5.131-1.022,6.989-2.705
	c1.438-1.303,2.521-3.004,3.083-4.933c0.285-0.962,0.433-1.983,0.433-3.041c0-1.037-0.145-2.039-0.415-2.989
	c-0.559-1.948-1.648-3.669-3.104-4.987c-1.856-1.681-4.304-2.703-6.987-2.703c-2.684,0-5.132,1.022-6.988,2.703
	c-1.453,1.317-2.545,3.039-3.103,4.987c-0.27,0.95-0.416,1.952-0.416,2.989c0,1.058,0.151,2.079,0.433,3.041
	C88.729,23.876,89.813,25.578,91.252,26.881z"/>
<path fill="none" stroke="#BE1E2D" stroke-width="3" d="M106.258,11.28c3.015-2.658,5.583,0,5.583,0"/>
<path fill="#EE2A7B" d="M112.69,27.471c1.857,1.683,4.303,2.706,6.988,2.706c2.683,0,5.131-1.022,6.988-2.706
	c1.438-1.303,2.521-3.004,3.084-4.933c0.282-0.962,0.432-1.983,0.432-3.041c0-1.036-0.143-2.038-0.416-2.987
	c-0.556-1.951-1.646-3.672-3.103-4.988c-1.855-1.681-4.303-2.704-6.986-2.704c-2.685,0-5.131,1.023-6.988,2.704
	c-1.452,1.316-2.544,3.038-3.102,4.988c-0.271,0.949-0.416,1.951-0.416,2.987c0,1.058,0.15,2.079,0.432,3.041
	C110.168,24.467,111.25,26.168,112.69,27.471z"/>
<path fill="none" stroke="#FFFFFF" d="M127.49,14.104c3.104,5.6-0.706,14.061-7.099,14.061c-5.111,0-9.257-4.154-9.257-9.279
	c0-4.1,3.315-7.423,7.405-7.423c3.271,0,7.653,2.568,7.653,5.848c0,2.625-1.802,7.963-6.543,7.454
	c-4.166-0.446-6.051-4.023-6.25-6.111c-0.297-3.131,2.977-5.517,5.503-5.069c2.784,0.493,4.595,1.643,4.762,4.324
	c0.146,2.386-1.937,3.936-3.571,4.026c-2.678,0.147-3.308-2.06-3.423-3.43c-0.146-1.789,1.044-2.384,2.084-2.237
	c1.472,0.211,2.172,1.095,2.229,1.641c0.152,1.342-1.178,1.911-1.484,1.342c-0.168-0.31-0.796-0.856-0.796-1.207"/>
<path fill="none" stroke="#BE1E2D" stroke-width="3" d="M112.765,27.644c1.855,1.683,4.301,2.705,6.987,2.705
	c2.684,0,5.131-1.022,6.988-2.705c1.438-1.304,2.521-3.004,3.083-4.934c0.286-0.962,0.433-1.983,0.433-3.041
	c0-1.037-0.145-2.039-0.415-2.987c-0.558-1.949-1.649-3.671-3.102-4.988c-1.857-1.681-4.304-2.703-6.988-2.703
	c-2.686,0-5.132,1.022-6.987,2.703c-1.454,1.317-2.545,3.039-3.103,4.988c-0.271,0.949-0.415,1.95-0.415,2.987
	c0,1.058,0.151,2.079,0.433,3.041C110.243,24.639,111.324,26.34,112.765,27.644z"/>
<path fill="none" stroke="#FFFFFF" d="M90.497,13.662c-3.104,5.601,0.707,14.061,7.099,14.061c5.113,0,9.258-4.155,9.258-9.281
	c0-4.098-3.315-7.42-7.408-7.42c-3.271,0-7.652,2.568-7.652,5.847c0,2.625,1.803,7.963,6.544,7.454
	c4.166-0.446,6.05-4.023,6.249-6.112c0.298-3.13-2.976-5.516-5.504-5.069c-2.783,0.493-4.592,1.642-4.759,4.323
	c-0.148,2.387,1.936,3.936,3.57,4.027c2.677,0.146,3.307-2.06,3.421-3.431c0.149-1.789-1.042-2.383-2.084-2.237
	c-1.47,0.212-2.17,1.096-2.229,1.641c-0.15,1.343,1.179,1.911,1.486,1.343c0.168-0.31,0.796-0.856,0.796-1.207"/>
<path fill="none" stroke="#BE1E2D" stroke-width="3" d="M91.326,27.053c1.856,1.683,4.304,2.705,6.988,2.705
	c2.683,0,5.131-1.022,6.989-2.705c1.438-1.303,2.521-3.004,3.084-4.934c0.284-0.962,0.433-1.983,0.433-3.042
	c0-1.037-0.145-2.039-0.417-2.986c-0.557-1.95-1.648-3.672-3.103-4.988c-1.855-1.682-4.303-2.704-6.986-2.704
	c-2.684,0-5.132,1.022-6.988,2.704c-1.452,1.316-2.544,3.038-3.102,4.988c-0.271,0.948-0.417,1.95-0.417,2.986
	c0,1.059,0.152,2.079,0.433,3.042C88.803,24.049,89.887,25.75,91.326,27.053z"/>
<path fill="#EE2A7B" stroke="#BE1E2D" d="M163.67,31.862c1.855,1.683,4.304,2.705,6.988,2.705c2.682,0,5.131-1.022,6.988-2.705
	c1.438-1.303,2.521-3.004,3.083-4.933c0.285-0.962,0.433-1.983,0.433-3.041c0-1.037-0.145-2.039-0.414-2.989
	c-0.559-1.948-1.648-3.669-3.104-4.987c-1.855-1.681-4.305-2.703-6.986-2.703c-2.685,0-5.133,1.022-6.988,2.703
	c-1.453,1.317-2.545,3.039-3.104,4.987c-0.27,0.95-0.415,1.952-0.415,2.989c0,1.058,0.151,2.079,0.433,3.041
	C161.146,28.857,162.23,30.559,163.67,31.862z"/>
<path fill="none" stroke="#BE1E2D" stroke-width="3" d="M178.676,16.261c3.014-2.658,5.582,0,5.582,0"/>
<path fill="#EE2A7B" d="M185.107,32.452c1.857,1.683,4.304,2.706,6.988,2.706c2.684,0,5.131-1.022,6.988-2.706
	c1.438-1.303,2.521-3.004,3.085-4.933c0.282-0.962,0.432-1.983,0.432-3.041c0-1.036-0.143-2.038-0.416-2.987
	c-0.556-1.951-1.646-3.672-3.103-4.988c-1.855-1.681-4.303-2.704-6.986-2.704c-2.685,0-5.131,1.023-6.988,2.704
	c-1.451,1.316-2.544,3.038-3.102,4.988c-0.271,0.949-0.416,1.951-0.416,2.987c0,1.058,0.15,2.079,0.433,3.041
	C182.586,29.448,183.668,31.149,185.107,32.452z"/>
<path fill="none" stroke="#FFFFFF" d="M199.907,19.085c3.104,5.6-0.706,14.061-7.099,14.061c-5.111,0-9.258-4.154-9.258-9.279
	c0-4.1,3.315-7.423,7.406-7.423c3.271,0,7.652,2.568,7.652,5.848c0,2.625-1.803,7.963-6.543,7.454
	c-4.166-0.446-6.051-4.023-6.25-6.111c-0.297-3.131,2.977-5.517,5.504-5.069c2.783,0.493,4.594,1.643,4.762,4.324
	c0.146,2.386-1.938,3.936-3.57,4.026c-2.679,0.147-3.309-2.06-3.424-3.43c-0.146-1.789,1.045-2.384,2.084-2.237
	c1.473,0.211,2.172,1.095,2.229,1.641c0.151,1.342-1.179,1.911-1.483,1.342c-0.168-0.31-0.797-0.856-0.797-1.207"/>
<path fill="none" stroke="#BE1E2D" stroke-width="3" d="M185.183,32.625c1.854,1.683,4.302,2.705,6.987,2.705
	c2.684,0,5.131-1.022,6.988-2.705c1.438-1.304,2.521-3.004,3.084-4.934c0.285-0.962,0.433-1.983,0.433-3.041
	c0-1.037-0.145-2.039-0.415-2.987c-0.559-1.949-1.648-3.671-3.102-4.988c-1.857-1.681-4.305-2.703-6.988-2.703
	c-2.686,0-5.133,1.022-6.987,2.703c-1.454,1.317-2.545,3.039-3.103,4.988c-0.271,0.949-0.416,1.95-0.416,2.987
	c0,1.058,0.151,2.079,0.434,3.041C182.66,29.62,183.742,31.321,185.183,32.625z"/>
<path fill="none" stroke="#FFFFFF" d="M162.914,18.643c-3.104,5.601,0.707,14.061,7.1,14.061c5.112,0,9.258-4.155,9.258-9.281
	c0-4.098-3.316-7.42-7.408-7.42c-3.271,0-7.652,2.568-7.652,5.847c0,2.625,1.803,7.963,6.545,7.454
	c4.166-0.446,6.05-4.023,6.248-6.112c0.299-3.13-2.976-5.516-5.504-5.069c-2.783,0.493-4.592,1.642-4.76,4.323
	c-0.147,2.387,1.936,3.936,3.57,4.027c2.678,0.146,3.307-2.06,3.422-3.431c0.148-1.789-1.043-2.383-2.084-2.237
	c-1.471,0.212-2.171,1.096-2.229,1.641c-0.15,1.343,1.179,1.911,1.485,1.343c0.168-0.31,0.797-0.856,0.797-1.207"/>
<path fill="none" stroke="#BE1E2D" stroke-width="3" d="M163.744,32.034c1.855,1.683,4.304,2.705,6.988,2.705
	c2.683,0,5.131-1.022,6.988-2.705c1.438-1.303,2.521-3.004,3.084-4.934c0.283-0.962,0.433-1.983,0.433-3.042
	c0-1.037-0.146-2.039-0.417-2.986c-0.557-1.95-1.647-3.672-3.102-4.988c-1.855-1.682-4.304-2.704-6.986-2.704
	c-2.685,0-5.133,1.022-6.988,2.704c-1.453,1.316-2.545,3.038-3.103,4.988c-0.271,0.948-0.417,1.95-0.417,2.986
	c0,1.059,0.152,2.079,0.434,3.042C161.221,29.03,162.305,30.731,163.744,32.034z"/>
<path fill="#EE2A7B" stroke="#BE1E2D" d="M234.85,41.539c1.855,1.683,4.303,2.705,6.987,2.705c2.683,0,5.131-1.022,6.989-2.705
	c1.438-1.303,2.521-3.004,3.082-4.933c0.285-0.962,0.434-1.983,0.434-3.041c0-1.037-0.145-2.039-0.414-2.989
	c-0.56-1.948-1.648-3.669-3.104-4.987c-1.856-1.681-4.305-2.703-6.987-2.703c-2.685,0-5.132,1.022-6.987,2.703
	c-1.453,1.317-2.545,3.039-3.104,4.987c-0.27,0.95-0.416,1.952-0.416,2.989c0,1.058,0.151,2.079,0.434,3.041
	C232.326,38.535,233.409,40.236,234.85,41.539z"/>
<path fill="none" stroke="#BE1E2D" stroke-width="3" d="M249.854,25.938c3.015-2.658,5.583,0,5.583,0"/>
<path fill="#EE2A7B" d="M256.287,42.129c1.857,1.683,4.303,2.706,6.988,2.706c2.684,0,5.131-1.022,6.988-2.706
	c1.438-1.303,2.521-3.004,3.084-4.933c0.283-0.962,0.432-1.983,0.432-3.041c0-1.036-0.143-2.038-0.416-2.987
	c-0.555-1.951-1.646-3.672-3.102-4.988c-1.855-1.681-4.303-2.704-6.986-2.704c-2.686,0-5.131,1.023-6.988,2.704
	c-1.452,1.316-2.545,3.038-3.102,4.988c-0.271,0.949-0.416,1.951-0.416,2.987c0,1.058,0.15,2.079,0.432,3.041
	C253.765,39.125,254.848,40.826,256.287,42.129z"/>
<path fill="none" stroke="#FFFFFF" d="M271.086,28.763c3.104,5.6-0.705,14.061-7.098,14.061c-5.112,0-9.258-4.154-9.258-9.279
	c0-4.1,3.314-7.423,7.406-7.423c3.271,0,7.652,2.568,7.652,5.848c0,2.625-1.803,7.963-6.543,7.454
	c-4.166-0.446-6.051-4.023-6.25-6.111c-0.297-3.131,2.977-5.517,5.504-5.069c2.783,0.493,4.594,1.643,4.762,4.324
	c0.146,2.386-1.938,3.936-3.57,4.026c-2.68,0.147-3.309-2.06-3.424-3.43c-0.146-1.789,1.045-2.384,2.084-2.237
	c1.473,0.211,2.172,1.095,2.229,1.641c0.152,1.342-1.178,1.911-1.482,1.342c-0.168-0.31-0.797-0.856-0.797-1.207"/>
<path fill="none" stroke="#BE1E2D" stroke-width="3" d="M256.361,42.302c1.855,1.683,4.302,2.705,6.988,2.705
	c2.684,0,5.131-1.022,6.988-2.705c1.438-1.304,2.52-3.004,3.084-4.934c0.285-0.962,0.432-1.983,0.432-3.041
	c0-1.037-0.145-2.039-0.414-2.987c-0.559-1.949-1.648-3.671-3.102-4.988c-1.857-1.681-4.305-2.703-6.988-2.703
	c-2.687,0-5.133,1.022-6.988,2.703c-1.453,1.317-2.545,3.039-3.103,4.988c-0.271,0.949-0.415,1.95-0.415,2.987
	c0,1.058,0.15,2.079,0.434,3.041C253.84,39.297,254.921,40.998,256.361,42.302z"/>
<path fill="none" stroke="#FFFFFF" d="M234.094,28.32c-3.104,5.601,0.707,14.061,7.099,14.061c5.112,0,9.258-4.155,9.258-9.281
	c0-4.098-3.315-7.42-7.407-7.42c-3.271,0-7.652,2.568-7.652,5.847c0,2.625,1.803,7.963,6.544,7.454
	c4.166-0.446,6.05-4.023,6.249-6.112c0.298-3.13-2.977-5.516-5.504-5.069c-2.783,0.493-4.592,1.642-4.76,4.323
	c-0.148,2.387,1.936,3.936,3.57,4.027c2.677,0.146,3.307-2.06,3.421-3.431c0.149-1.789-1.042-2.383-2.084-2.237
	c-1.47,0.212-2.171,1.096-2.229,1.641c-0.15,1.343,1.18,1.911,1.486,1.343c0.168-0.31,0.796-0.856,0.796-1.207"/>
<path fill="none" stroke="#BE1E2D" stroke-width="3" d="M234.923,41.711c1.856,1.683,4.304,2.705,6.988,2.705
	c2.683,0,5.131-1.022,6.989-2.705c1.438-1.303,2.52-3.004,3.084-4.934c0.283-0.962,0.432-1.983,0.432-3.042
	c0-1.037-0.145-2.039-0.416-2.986c-0.557-1.95-1.648-3.672-3.103-4.988c-1.855-1.682-4.304-2.704-6.986-2.704
	c-2.685,0-5.132,1.022-6.988,2.704c-1.452,1.316-2.544,3.038-3.103,4.988c-0.271,0.948-0.416,1.95-0.416,2.986
	c0,1.059,0.152,2.079,0.434,3.042C232.4,38.707,233.483,40.408,234.923,41.711z"/>
<path fill="#EE2A7B" stroke="#BE1E2D" d="M18.091,119.411c1.856,1.683,4.304,2.705,6.988,2.705c2.683,0,5.131-1.022,6.989-2.705
	c1.438-1.303,2.521-3.004,3.083-4.933c0.285-0.962,0.433-1.983,0.433-3.041c0-1.037-0.145-2.039-0.415-2.989
	c-0.559-1.948-1.648-3.669-3.104-4.987c-1.856-1.681-4.304-2.703-6.987-2.703c-2.684,0-5.132,1.022-6.988,2.703
	c-1.453,1.317-2.545,3.039-3.103,4.987c-0.27,0.95-0.416,1.952-0.416,2.989c0,1.058,0.151,2.079,0.433,3.041
	C15.568,116.407,16.651,118.108,18.091,119.411z"/>
<path fill="none" stroke="#BE1E2D" stroke-width="3" d="M33.096,103.811c3.015-2.658,5.583,0,5.583,0"/>
<path fill="#EE2A7B" d="M39.529,120.001c1.857,1.683,4.303,2.706,6.988,2.706c2.684,0,5.131-1.022,6.988-2.706
	c1.438-1.303,2.521-3.004,3.085-4.933c0.282-0.962,0.432-1.983,0.432-3.041c0-1.036-0.143-2.038-0.416-2.987
	c-0.556-1.951-1.646-3.672-3.103-4.988c-1.855-1.681-4.303-2.704-6.986-2.704c-2.685,0-5.131,1.023-6.988,2.704
	c-1.452,1.316-2.544,3.038-3.102,4.988c-0.271,0.949-0.416,1.951-0.416,2.987c0,1.058,0.15,2.079,0.432,3.041
	C37.006,116.997,38.089,118.698,39.529,120.001z"/>
<path fill="none" stroke="#FFFFFF" d="M54.328,106.635c3.104,5.6-0.706,14.061-7.099,14.061c-5.112,0-9.257-4.154-9.257-9.279
	c0-4.1,3.315-7.423,7.406-7.423c3.271,0,7.652,2.568,7.652,5.848c0,2.625-1.803,7.963-6.543,7.454
	c-4.166-0.446-6.051-4.023-6.25-6.111c-0.297-3.131,2.977-5.517,5.503-5.069c2.783,0.493,4.594,1.643,4.762,4.324
	c0.146,2.386-1.938,3.936-3.57,4.026c-2.679,0.147-3.308-2.06-3.423-3.43c-0.146-1.789,1.044-2.384,2.083-2.237
	c1.473,0.211,2.172,1.095,2.229,1.641c0.151,1.342-1.179,1.911-1.483,1.342c-0.168-0.31-0.797-0.856-0.797-1.207"/>
<path fill="none" stroke="#BE1E2D" stroke-width="3" d="M39.604,120.174c1.855,1.683,4.301,2.705,6.987,2.705
	c2.684,0,5.131-1.022,6.988-2.705c1.438-1.304,2.521-3.004,3.084-4.934c0.285-0.962,0.433-1.983,0.433-3.041
	c0-1.037-0.145-2.039-0.415-2.987c-0.559-1.949-1.648-3.671-3.102-4.988c-1.857-1.681-4.305-2.703-6.988-2.703
	c-2.686,0-5.132,1.022-6.987,2.703c-1.454,1.317-2.545,3.039-3.103,4.988c-0.271,0.949-0.415,1.95-0.415,2.987
	c0,1.058,0.151,2.079,0.433,3.041C37.081,117.169,38.163,118.87,39.604,120.174z"/>
<path fill="none" stroke="#FFFFFF" d="M17.335,106.192c-3.104,5.601,0.707,14.061,7.099,14.061c5.113,0,9.258-4.155,9.258-9.281
	c0-4.098-3.315-7.42-7.408-7.42c-3.271,0-7.652,2.568-7.652,5.847c0,2.625,1.803,7.963,6.544,7.454
	c4.166-0.446,6.05-4.023,6.249-6.112c0.298-3.13-2.976-5.516-5.504-5.069c-2.783,0.493-4.592,1.642-4.759,4.323
	c-0.148,2.387,1.936,3.936,3.57,4.027c2.677,0.146,3.307-2.06,3.421-3.431c0.149-1.789-1.042-2.383-2.084-2.237
	c-1.47,0.212-2.17,1.096-2.229,1.641c-0.15,1.343,1.179,1.911,1.486,1.343c0.168-0.31,0.796-0.856,0.796-1.207"/>
<path fill="none" stroke="#BE1E2D" stroke-width="3" d="M18.165,119.583c1.856,1.683,4.304,2.705,6.988,2.705
	c2.683,0,5.131-1.022,6.989-2.705c1.438-1.303,2.521-3.004,3.084-4.934c0.284-0.962,0.433-1.983,0.433-3.042
	c0-1.037-0.145-2.039-0.417-2.986c-0.557-1.95-1.648-3.672-3.103-4.988c-1.855-1.682-4.303-2.704-6.986-2.704
	c-2.684,0-5.132,1.022-6.988,2.704c-1.452,1.316-2.544,3.038-3.102,4.988c-0.271,0.948-0.417,1.95-0.417,2.986
	c0,1.059,0.152,2.079,0.433,3.042C15.642,116.579,16.725,118.28,18.165,119.583z"/>
<path fill="#EE2A7B" stroke="#BE1E2D" d="M88.857,129.992c1.856,1.684,4.304,2.705,6.988,2.705c2.683,0,5.131-1.021,6.989-2.705
	c1.438-1.303,2.521-3.004,3.083-4.934c0.285-0.962,0.433-1.983,0.433-3.041c0-1.037-0.145-2.039-0.415-2.989
	c-0.559-1.948-1.648-3.669-3.104-4.987c-1.856-1.681-4.304-2.703-6.987-2.703c-2.684,0-5.132,1.022-6.988,2.703
	c-1.453,1.317-2.545,3.039-3.103,4.987c-0.27,0.95-0.416,1.952-0.416,2.989c0,1.058,0.151,2.079,0.433,3.041
	C86.334,126.988,87.417,128.689,88.857,129.992z"/>
<path fill="none" stroke="#BE1E2D" stroke-width="3" d="M103.863,114.392c3.015-2.658,5.583,0,5.583,0"/>
<path fill="#EE2A7B" d="M110.295,130.582c1.857,1.684,4.303,2.705,6.988,2.705c2.684,0,5.131-1.021,6.988-2.705
	c1.438-1.303,2.521-3.004,3.085-4.934c0.282-0.961,0.432-1.983,0.432-3.041c0-1.036-0.143-2.038-0.416-2.987
	c-0.556-1.951-1.646-3.672-3.103-4.988c-1.855-1.681-4.303-2.704-6.986-2.704c-2.685,0-5.131,1.023-6.988,2.704
	c-1.452,1.316-2.544,3.038-3.102,4.988c-0.271,0.949-0.416,1.951-0.416,2.987c0,1.058,0.15,2.08,0.432,3.041
	C107.773,127.578,108.855,129.279,110.295,130.582z"/>
<path fill="none" stroke="#FFFFFF" d="M125.095,117.216c3.104,5.6-0.706,14.061-7.099,14.061c-5.112,0-9.257-4.154-9.257-9.279
	c0-4.1,3.315-7.423,7.406-7.423c3.271,0,7.652,2.568,7.652,5.848c0,2.625-1.803,7.963-6.543,7.454
	c-4.166-0.446-6.051-4.023-6.25-6.111c-0.297-3.131,2.977-5.517,5.503-5.069c2.783,0.493,4.594,1.643,4.762,4.324
	c0.146,2.386-1.938,3.936-3.57,4.026c-2.679,0.147-3.308-2.06-3.423-3.43c-0.146-1.789,1.044-2.384,2.083-2.237
	c1.473,0.211,2.172,1.095,2.229,1.641c0.151,1.342-1.179,1.911-1.483,1.342c-0.168-0.31-0.797-0.856-0.797-1.207"/>
<path fill="none" stroke="#BE1E2D" stroke-width="3" d="M110.37,130.755c1.855,1.683,4.301,2.705,6.987,2.705
	c2.684,0,5.131-1.022,6.988-2.705c1.438-1.304,2.521-3.005,3.084-4.934c0.285-0.962,0.433-1.983,0.433-3.041
	c0-1.037-0.145-2.039-0.415-2.987c-0.559-1.949-1.648-3.671-3.102-4.988c-1.857-1.681-4.305-2.703-6.988-2.703
	c-2.686,0-5.132,1.022-6.987,2.703c-1.454,1.317-2.545,3.039-3.103,4.988c-0.271,0.949-0.415,1.95-0.415,2.987
	c0,1.058,0.151,2.079,0.433,3.041C107.848,127.75,108.929,129.451,110.37,130.755z"/>
<path fill="none" stroke="#FFFFFF" d="M88.102,116.773c-3.104,5.601,0.707,14.061,7.099,14.061c5.113,0,9.258-4.154,9.258-9.281
	c0-4.098-3.315-7.42-7.408-7.42c-3.271,0-7.652,2.568-7.652,5.847c0,2.625,1.803,7.963,6.544,7.454
	c4.166-0.445,6.05-4.023,6.249-6.111c0.298-3.13-2.976-5.516-5.504-5.069c-2.783,0.493-4.592,1.642-4.759,4.323
	c-0.148,2.387,1.936,3.936,3.57,4.027c2.677,0.146,3.307-2.06,3.421-3.431c0.149-1.789-1.042-2.383-2.084-2.237
	c-1.47,0.212-2.17,1.096-2.229,1.641c-0.15,1.343,1.179,1.911,1.486,1.343c0.168-0.31,0.796-0.856,0.796-1.207"/>
<path fill="none" stroke="#BE1E2D" stroke-width="3" d="M88.931,130.164c1.856,1.684,4.304,2.705,6.988,2.705
	c2.683,0,5.131-1.021,6.989-2.705c1.438-1.303,2.521-3.004,3.084-4.934c0.284-0.962,0.433-1.982,0.433-3.041
	c0-1.037-0.145-2.039-0.417-2.986c-0.557-1.95-1.648-3.672-3.103-4.988c-1.855-1.682-4.303-2.704-6.986-2.704
	c-2.684,0-5.132,1.022-6.988,2.704c-1.452,1.316-2.544,3.038-3.102,4.988c-0.271,0.948-0.417,1.95-0.417,2.986
	c0,1.059,0.152,2.079,0.433,3.041C86.408,127.16,87.492,128.861,88.931,130.164z"/>
<linearGradient id="SVGID_1_" gradientUnits="userSpaceOnUse" x1="157.875" y1="136.2002" x2="157.875" y2="137.3901">
	<stop  offset="0.0242" style="stop-color:#FEFBE8"/>
	<stop  offset="0.0421" style="stop-color:#FEFBE5"/>
	<stop  offset="0.371" style="stop-color:#FCF6B9"/>
	<stop  offset="0.6517" style="stop-color:#FBF397"/>
	<stop  offset="0.8703" style="stop-color:#FBF183"/>
	<stop  offset="1" style="stop-color:#FAF17A"/>
</linearGradient>
<path fill="url(#SVGID_1_)" stroke="#BE1E2D" d="M158.1,137.39c-0.18-0.38-0.33-0.78-0.449-1.19c0,0,0.01,0.01,0.02,0.01
	C157.79,136.62,157.93,137.01,158.1,137.39z"/>
<path fill="#EE2A7B" stroke="#BE1E2D" d="M178.16,132.95c0,1.05-0.15,2.07-0.44,3.04c-0.37,1.29-0.979,2.47-1.77,3.5
	c-0.01,0.02-0.03,0.04-0.05,0.06c-0.91-0.04-1.811-0.1-2.69-0.18c-1.5-0.12-2.97-0.28-4.4-0.49c-1.6-0.23-3.13-0.51-4.609-0.84
	c-0.01,0-0.03-0.01-0.04-0.01c-0.96-0.2-1.891-0.42-2.8-0.67c-0.061-0.02-0.13-0.03-0.19-0.05c-0.41-0.11-0.82-0.23-1.21-0.35
	c-0.01-0.01-0.01-0.01-0.02-0.01c-0.23-0.07-0.46-0.14-0.69-0.21c-0.03,0.01-0.05,0.04-0.08,0.09c-0.01-0.04-0.03-0.08-0.03-0.12
	c-0.5-0.16-0.989-0.33-1.47-0.5c-0.01,0-0.02-0.01-0.02-0.01c-0.03-0.07-0.051-0.14-0.07-0.21c-0.01-0.05-0.03-0.1-0.04-0.15
	c-0.25-0.92-0.39-1.89-0.39-2.89c0-1.04,0.14-2.04,0.409-2.99c0.32-1.1,0.801-2.12,1.431-3.04c0.47-0.72,1.04-1.37,1.68-1.95
	c1.85-1.68,4.3-2.7,6.98-2.7c2.689,0,5.13,1.02,6.989,2.7c1.101,0.99,1.98,2.2,2.58,3.57c0.011,0.02,0.021,0.03,0.021,0.05
	c0.04,0.07,0.069,0.15,0.09,0.22c0.06,0.13,0.12,0.27,0.17,0.41c0.09,0.24,0.17,0.49,0.24,0.74c0.029,0.1,0.05,0.2,0.08,0.3
	C178.04,131.12,178.16,132.02,178.16,132.95z"/>
<path fill="none" stroke="#BE1E2D" stroke-width="3" d="M175.671,125.319c3.015-2.658,5.583,0,5.583,0"/>
<path fill="#EE2A7B" d="M199.6,133.54c0,1.05-0.149,2.08-0.439,3.04c-0.061,0.19-0.12,0.38-0.18,0.56
	c-0.011,0.03-0.021,0.05-0.021,0.07c-0.11,0.03-0.21,0.06-0.32,0.09c-0.069,0.02-0.14,0.04-0.21,0.05
	c-0.02,0.01-0.04,0.02-0.06,0.02c-0.48,0.13-0.97,0.25-1.46,0.37c-0.09,0.02-0.18,0.05-0.28,0.07c-0.1,0.03-0.2,0.05-0.31,0.08
	c-0.54,0.12-1.08,0.24-1.63,0.35c-0.03,0.01-0.061,0.02-0.091,0.02c-0.529,0.11-1.06,0.21-1.59,0.3c-1.13,0.2-2.279,0.37-3.46,0.51
	c-0.37,0.05-0.74,0.09-1.12,0.13c0,0-0.01,0.01-0.02,0c-0.34,0.05-0.69,0.08-1.04,0.11c-0.38,0.04-0.76,0.07-1.14,0.09
	c-0.061,0.01-0.12,0.01-0.181,0.01c-0.27,0.02-0.54,0.03-0.81,0.05c-0.101,0.01-0.2,0.01-0.3,0.02c-0.16,0.01-0.33,0.03-0.49,0.04
	c-0.16,0.02-0.33,0.02-0.49,0.03c-0.19,0.01-0.39,0.02-0.58,0.02c-0.01,0-0.01,0-0.02,0h-0.011c-0.02,0.01-0.05,0.01-0.069,0.01
	c-0.101,0.01-0.2,0.01-0.29,0.01c-0.471,0.02-0.931,0.03-1.4,0.04c-0.359,0.02-0.729,0.02-1.109,0.02c-0.23-0.32-0.431-0.66-0.62-1
	c-0.11-0.21-0.21-0.41-0.301-0.62c-0.01-0.01-0.01-0.02-0.01-0.04c-0.08-0.16-0.149-0.32-0.21-0.49c0-0.01-0.01-0.02-0.01-0.04
	c-0.12-0.29-0.22-0.58-0.311-0.88c-0.18-0.6-0.3-1.23-0.359-1.87c-0.01-0.01-0.01-0.02,0-0.03c0-0.38-0.021-0.77-0.07-1.14v-0.05
	c0-0.01,0-0.01,0-0.02c0.01-1.02,0.15-1.99,0.41-2.92c0.13-0.46,0.29-0.91,0.49-1.34c0.6-1.4,1.5-2.64,2.609-3.65
	c0.801-0.72,1.7-1.31,2.69-1.75c0.21-0.11,0.43-0.2,0.65-0.29c1.14-0.43,2.369-0.66,3.649-0.66c0.45,0,0.891,0.03,1.33,0.08
	c0.01,0,0.021,0.01,0.03,0.01c0.47,0.06,0.93,0.15,1.38,0.28c1.6,0.43,3.05,1.24,4.25,2.33c0.55,0.5,1.05,1.06,1.479,1.66
	c0.431,0.6,0.801,1.24,1.101,1.91c0.01,0.02,0.02,0.03,0.02,0.05c0.2,0.44,0.36,0.9,0.5,1.37C199.45,131.5,199.6,132.5,199.6,133.54
	z"/>
<path fill="none" stroke="#FFFFFF" d="M188.12,132.08c0,0.35,0.63,0.9,0.79,1.21c0.24,0.45,1.13,0.19,1.399-0.6
	c0.091-0.21,0.12-0.46,0.091-0.74c-0.011-0.12-0.061-0.26-0.141-0.41h-0.01c-0.04-0.09-0.1-0.18-0.17-0.27
	c-0.34-0.42-0.97-0.83-1.91-0.96c-0.34-0.05-0.7-0.02-1.02,0.11c-0.66,0.26-1.16,0.92-1.07,2.12c0.12,1.37,0.75,3.58,3.43,3.43
	c0.96-0.05,2.08-0.61,2.8-1.55c0.341-0.42,0.591-0.93,0.7-1.5c0.061-0.31,0.09-0.63,0.07-0.97c-0.05-0.92-0.311-1.66-0.73-2.25
	c-0.79-1.14-2.199-1.75-4.029-2.08c-1.59-0.28-3.48,0.56-4.58,2c-0.66,0.85-1.04,1.91-0.931,3.07c0.08,0.85,0.44,1.95,1.131,2.98
	c0.659,1.02,1.64,1.97,2.96,2.55c0.64,0.29,1.359,0.5,2.159,0.58c2.45,0.26,4.12-1.04,5.16-2.72c0.36-0.58,0.641-1.21,0.86-1.83
	c0.36-1.06,0.53-2.1,0.53-2.9c0-1.05-0.45-2.02-1.16-2.86c-1.521-1.8-4.271-2.99-6.5-2.99c-2.79,0-5.21,1.54-6.47,3.82h-0.011
	c-0.58,1.06-0.92,2.29-0.92,3.6c0,2.61,1.07,4.97,2.8,6.65"/>
<path fill="none" stroke="#FFFFFF" d="M196.63,137.81c0.01-0.02,0.021-0.03,0.03-0.05c0.29-0.53,0.54-1.09,0.74-1.67v-0.01
	c0.899-2.57,0.84-5.52-0.5-7.94"/>
<path fill="none" stroke="#BE1E2D" stroke-width="3" d="M199.67,133.71c0,1.06-0.15,2.08-0.43,3.04c-0.03,0.12-0.07,0.23-0.11,0.34
	h-0.01c0,0.03,0,0.05-0.021,0.07c-0.05,0.02-0.09,0.04-0.14,0.05c-0.11,0.03-0.21,0.06-0.32,0.09c-0.069,0.02-0.14,0.04-0.21,0.05
	c-0.02,0.01-0.04,0.02-0.06,0.02c-0.48,0.13-0.97,0.25-1.46,0.37c-0.09,0.02-0.18,0.05-0.28,0.07c-0.1,0.03-0.2,0.05-0.31,0.08
	c-0.54,0.12-1.08,0.24-1.63,0.35c-0.03,0.01-0.061,0.02-0.091,0.02c-0.529,0.11-1.06,0.21-1.59,0.3c-1.13,0.2-2.279,0.37-3.46,0.51
	c-0.37,0.05-0.74,0.09-1.12,0.13c0,0-0.01,0.01-0.02,0c-0.34,0.05-0.69,0.08-1.04,0.11c-0.38,0.04-0.76,0.07-1.14,0.09
	c-0.061,0.01-0.12,0.01-0.181,0.01c-0.27,0.02-0.54,0.03-0.81,0.05c-0.101,0.01-0.2,0.01-0.3,0.02c-0.16,0.01-0.33,0.03-0.49,0.04
	c-0.16,0.02-0.33,0.02-0.49,0.03c-0.19,0.01-0.39,0.02-0.58,0.02c-0.01,0-0.01,0-0.02,0h-0.011c-0.02,0.01-0.05,0.01-0.069,0.01
	c-0.101,0.01-0.2,0.01-0.29,0.01c-0.471,0.02-0.931,0.03-1.4,0.04c-0.359,0.02-0.729,0.02-1.109,0.02h-0.04
	c-0.21-0.32-0.41-0.65-0.58-1c-0.11-0.21-0.21-0.41-0.301-0.62c-0.01-0.01-0.01-0.02-0.01-0.04c-0.08-0.16-0.149-0.32-0.21-0.49
	c0-0.01-0.01-0.02-0.01-0.04c-0.09-0.23-0.17-0.47-0.24-0.71c-0.28-0.96-0.43-1.98-0.43-3.04c0-1.04,0.14-2.04,0.42-2.99
	c0.15-0.52,0.33-1.02,0.55-1.51c0.61-1.33,1.48-2.51,2.55-3.48c0.34-0.31,0.71-0.6,1.09-0.86c0.011-0.01,0.021-0.02,0.03-0.02
	c0.07-0.05,0.13-0.1,0.2-0.14c1.63-1.06,3.58-1.68,5.67-1.68c0.98,0,1.93,0.14,2.83,0.39c0.31,0.09,0.61,0.19,0.91,0.31
	c0.02,0.01,0.04,0.02,0.06,0.03c1.181,0.45,2.261,1.13,3.181,1.97c0.5,0.46,0.96,0.96,1.369,1.5c0.44,0.59,0.83,1.23,1.141,1.9
	c0.01,0.02,0.02,0.03,0.02,0.05c0.24,0.49,0.431,1.01,0.58,1.54C199.53,131.67,199.67,132.67,199.67,133.71z"/>
<path fill="none" stroke="#FFFFFF" d="M168.7,131.64c0,0.35-0.63,0.9-0.8,1.21c-0.21,0.38-0.87,0.25-1.24-0.28
	c-0.141-0.19-0.23-0.44-0.25-0.74c-0.01-0.1-0.01-0.21,0-0.33c0.02-0.17,0.1-0.37,0.26-0.58c0.32-0.45,0.96-0.91,1.97-1.06
	c0.591-0.08,1.221,0.07,1.63,0.53c0.33,0.36,0.53,0.92,0.461,1.71c-0.12,1.37-0.75,3.58-3.421,3.43
	c-0.869-0.05-1.869-0.51-2.579-1.29c-0.311-0.33-0.561-0.71-0.73-1.14c-0.2-0.47-0.3-1.01-0.26-1.6c0.05-0.86,0.27-1.57,0.64-2.14
	c0.79-1.21,2.23-1.85,4.12-2.18c1.75-0.31,3.86,0.74,4.9,2.47c0.449,0.75,0.689,1.64,0.6,2.6c-0.09,0.92-0.51,2.14-1.31,3.25
	c-0.71,0.98-1.721,1.88-3.061,2.4c-0.57,0.23-1.189,0.39-1.88,0.46c-0.19,0.02-0.38,0.03-0.56,0.03
	c-0.771,0.01-1.45-0.14-2.061-0.42c-0.979-0.43-1.76-1.18-2.35-2.05c-0.32-0.47-0.59-0.98-0.8-1.49
	c-0.53-1.26-0.771-2.57-0.771-3.52c0-0.99,0.4-1.92,1.05-2.73c1.5-1.87,4.32-3.12,6.601-3.12c2.979,0,5.54,1.76,6.72,4.29
	c0.439,0.95,0.689,2.01,0.689,3.13c0,2.69-1.14,5.1-2.949,6.79c-0.04,0.04-0.07,0.07-0.11,0.1"/>
<path fill="none" stroke="#FFFFFF" d="M159.96,136.96c-0.06-0.12-0.12-0.24-0.17-0.37c-0.04-0.09-0.08-0.18-0.12-0.27
	c-0.229-0.55-0.42-1.11-0.56-1.69c-0.021-0.1-0.051-0.21-0.07-0.31c-0.47-2.22-0.24-4.61,0.87-6.62"/>
<path fill="none" stroke="#BE1E2D" stroke-width="3" d="M178.23,133.12c0,1.06-0.15,2.08-0.431,3.04c-0.35,1.22-0.92,2.35-1.64,3.34
	c-0.021,0.02-0.04,0.04-0.05,0.06c-0.07,0-0.141,0-0.21-0.01c-0.91-0.04-1.811-0.1-2.69-0.18c-1.5-0.12-2.97-0.28-4.4-0.49
	c-1.6-0.23-3.13-0.51-4.609-0.84c-0.01,0-0.03-0.01-0.04-0.01c-0.96-0.2-1.891-0.42-2.8-0.67c-0.061-0.02-0.13-0.03-0.19-0.05
	c-0.41-0.11-0.82-0.23-1.21-0.35c-0.01-0.01-0.01-0.01-0.02-0.01c-0.23-0.07-0.46-0.14-0.69-0.21c-0.03,0.01-0.05,0.04-0.08,0.09
	c-0.01-0.04-0.03-0.08-0.03-0.12c-0.5-0.16-0.989-0.33-1.47-0.5c-0.01-0.02-0.01-0.03-0.02-0.05c-0.03-0.1-0.061-0.2-0.08-0.31
	c-0.23-0.87-0.351-1.78-0.351-2.73c0-1.04,0.15-2.04,0.42-2.99c0.33-1.15,0.841-2.22,1.511-3.17c0.46-0.67,0.989-1.28,1.59-1.82
	c1.859-1.68,4.3-2.7,6.99-2.7c2.68,0,5.13,1.02,6.979,2.7c1.05,0.95,1.91,2.1,2.51,3.4c0.011,0.02,0.021,0.03,0.021,0.05
	c0.04,0.07,0.069,0.15,0.09,0.22c0.01,0.01,0.02,0.02,0.02,0.03c0.021,0.04,0.03,0.07,0.051,0.11c0.04,0.09,0.08,0.18,0.109,0.27
	c0.12,0.3,0.221,0.6,0.311,0.91c0.06,0.22,0.12,0.44,0.16,0.66c0.01,0.02,0.01,0.04,0.02,0.06
	C178.15,131.58,178.23,132.34,178.23,133.12z"/>
<path fill="#EE2A7B" stroke="#BE1E2D" d="M107.1,205.92c0,0.01,0,0.01,0,0.021c0,0.01,0,0.01,0,0.02v0.06
	c0,0.23-0.01,0.45-0.03,0.681v0.12c0,0.01,0,0.029-0.01,0.05c0,0,0,0.01,0,0.02c-0.01,0.17-0.02,0.33-0.05,0.5
	c0,0.011,0,0.011,0,0.021c-0.07,0.57-0.18,1.12-0.34,1.649c-0.1,0.33-0.21,0.65-0.34,0.96c-0.03,0.11-0.08,0.211-0.13,0.311
	c-0.01,0.05-0.03,0.09-0.05,0.13c0,0.01,0,0.01-0.01,0.01c-0.12,0.28-0.26,0.55-0.42,0.82v0.01c-0.05,0.09-0.1,0.181-0.16,0.271
	c-0.02,0.05-0.05,0.1-0.08,0.14c0,0.01-0.01,0.021-0.02,0.03c-0.02,0.04-0.04,0.08-0.07,0.109c-0.01,0.021-0.01,0.03-0.02,0.04
	c-0.86-0.029-1.71-0.069-2.54-0.12c-1.79-0.109-3.53-0.27-5.21-0.5c-0.29,0.07-0.61,0.131-0.93,0.16
	c-1.43,0.15-2.59-0.22-3.51-0.899c-0.33-0.07-0.66-0.141-0.99-0.21c-0.01,0-0.03-0.011-0.04-0.011c-0.96-0.199-1.89-0.42-2.8-0.67
	c-0.06-0.02-0.13-0.029-0.19-0.05c-0.18-0.05-0.36-0.1-0.53-0.149c-0.24-0.061-0.47-0.141-0.7-0.21l-0.69-0.211
	c-0.03,0.011-0.05,0.04-0.08,0.091c-0.01-0.04-0.03-0.08-0.03-0.12c-0.22-0.07-0.44-0.141-0.65-0.221
	c0.03,0.16,0.07,0.311,0.12,0.461c0.14,0.479,0.31,0.939,0.51,1.38c-0.24-0.49-0.43-1.011-0.59-1.551c-0.03-0.1-0.06-0.199-0.08-0.3
	c-0.02-0.06-0.03-0.109-0.04-0.17v-0.01c-0.02-0.061-0.04-0.12-0.05-0.18c-0.01-0.051-0.02-0.11-0.04-0.16
	c-0.14-0.71-0.22-1.46-0.22-2.221c0-1.039,0.14-2.039,0.41-2.989c0.36-1.261,0.94-2.42,1.71-3.44c0.02-0.04,0.05-0.08,0.09-0.12
	c0.39-0.52,0.83-0.989,1.31-1.43c0.51-0.46,1.07-0.88,1.66-1.21c0.01-0.01,0.02-0.01,0.03-0.021c0.61-0.38,1.26-0.68,1.94-0.92
	c0,0,0.01,0,0.02-0.01c0.2-0.06,0.4-0.12,0.61-0.18c0.01,0,0.01,0,0.01,0c0.21-0.061,0.43-0.11,0.65-0.15
	c0.67-0.14,1.36-0.21,2.07-0.21c1.27,0,2.49,0.23,3.62,0.65c0.51,0.189,1,0.41,1.46,0.68c0.03,0.021,0.05,0.03,0.08,0.05
	c0.01,0,0.01,0.011,0.01,0.011c0.01,0.01,0.02,0.01,0.03,0.02c0.36,0.19,0.7,0.43,1.03,0.67c0.26,0.2,0.51,0.4,0.75,0.62
	c0.96,0.87,1.76,1.91,2.34,3.07c0.04,0.08,0.07,0.149,0.11,0.229c0.04,0.05,0.06,0.101,0.08,0.15c0.05,0.1,0.09,0.189,0.13,0.29
	c0.08,0.18,0.15,0.35,0.22,0.529c0.08,0.24,0.16,0.48,0.23,0.721c0.19,0.68,0.32,1.39,0.37,2.12
	C107.09,205.4,107.1,205.66,107.1,205.92z"/>
<path fill="none" stroke="#BE1E2D" stroke-width="3" d="M104.613,198.392c3.015-2.658,5.583,0,5.583,0"/>
<path fill="#EE2A7B" d="M128.54,206.61c0,0.779-0.08,1.529-0.23,2.26c-0.01,0.02-0.01,0.05-0.01,0.07
	c-0.02,0.029-0.02,0.06-0.03,0.09c0,0.02-0.01,0.05-0.02,0.069c-0.07,0.03-0.14,0.051-0.21,0.07c-0.28,0.09-0.57,0.17-0.87,0.25
	c-0.18,0.061-0.36,0.11-0.54,0.16c-0.07,0.02-0.14,0.04-0.21,0.05c-0.02,0.01-0.04,0.021-0.06,0.021c-0.07,0.02-0.14,0.04-0.21,0.05
	h-0.01c-0.09,0.03-0.18,0.06-0.28,0.08c-0.32,0.08-0.64,0.16-0.96,0.239c-0.19,0.051-0.39,0.101-0.59,0.15
	c-0.54,0.12-1.08,0.24-1.63,0.35c-0.03,0.011-0.06,0.021-0.09,0.021c-0.23,0.05-0.46,0.09-0.69,0.13c-0.98,0.87-2.27,1.39-3.9,1.21
	c-0.6-0.07-1.16-0.2-1.67-0.39c-0.32,0.04-0.64,0.069-0.97,0.1c-0.38,0.04-0.76,0.07-1.14,0.09c-0.06,0.011-0.12,0.011-0.18,0.011
	c-0.27,0.02-0.54,0.029-0.81,0.05c-0.1,0.01-0.2,0.01-0.3,0.02c-0.16,0.01-0.33,0.03-0.49,0.04c-0.16,0.021-0.33,0.021-0.49,0.03
	c-0.13,0.01-0.26,0.01-0.39,0.01h-0.01c-0.06,0.01-0.12,0.01-0.18,0.01c-0.03,0.011-0.07,0.011-0.1,0.011
	c-0.1,0.01-0.2,0.01-0.29,0.01c-0.47,0.02-0.93,0.03-1.4,0.04c-0.22,0.01-0.43,0.02-0.66,0.01c-0.03-0.05-0.06-0.1-0.09-0.15
	c-0.01-0.02-0.02-0.039-0.03-0.05c-0.03-0.04-0.05-0.09-0.06-0.13c-0.07-0.13-0.14-0.26-0.19-0.39c-0.24-0.49-0.43-1.01-0.59-1.55
	c-0.28-0.96-0.43-1.98-0.43-3.04c0-1.04,0.14-2.04,0.41-2.99c0.21-0.72,0.49-1.42,0.84-2.07c0.02-0.05,0.05-0.09,0.08-0.14
	c0.57-1.05,1.31-1.99,2.19-2.78c1.85-1.68,4.3-2.7,6.98-2.7c1.25,0,2.43,0.221,3.53,0.62c0.14,0.05,0.29,0.101,0.43,0.16
	c0.02,0.01,0.03,0.01,0.05,0.021c0.18,0.079,0.36,0.149,0.53,0.239c0.01,0,0.01,0.011,0.02,0.011c0.89,0.43,1.7,0.989,2.43,1.649
	c0.24,0.22,0.47,0.44,0.68,0.68c0.04,0.04,0.08,0.08,0.11,0.12c0.62,0.681,1.14,1.44,1.55,2.271c0.11,0.21,0.21,0.43,0.31,0.64
	c0,0.01,0.01,0.021,0.01,0.03c0.17,0.399,0.32,0.82,0.44,1.25C128.4,204.57,128.54,205.57,128.54,206.61z"/>
<path fill="none" stroke="#FFFFFF" d="M117.06,205.15c0,0.35,0.63,0.899,0.8,1.21c0.23,0.439,1.09,0.199,1.38-0.57
	c0.02-0.04,0.04-0.08,0.04-0.13c0.07-0.19,0.09-0.4,0.06-0.641c-0.03-0.3-0.26-0.699-0.69-1.029c-0.01-0.01-0.01-0.01-0.02-0.01
	c-0.18-0.141-0.39-0.271-0.65-0.36c-0.04-0.03-0.08-0.04-0.13-0.05c-0.19-0.08-0.39-0.13-0.61-0.16c0,0-0.01-0.01-0.02-0.01
	c-0.03-0.011-0.07-0.011-0.11-0.021c-1.04-0.149-2.23,0.45-2.08,2.24c0.11,1.36,0.74,3.57,3.42,3.42c0.95-0.05,2.06-0.6,2.79-1.53
	c0.03-0.029,0.05-0.06,0.07-0.09c0.34-0.46,0.59-1.01,0.68-1.63c0.01-0.05,0.02-0.1,0.02-0.15c0.02-0.199,0.02-0.399,0.01-0.62
	c-0.09-1.43-0.65-2.42-1.57-3.109c-0.03-0.03-0.07-0.05-0.1-0.08c-0.8-0.561-1.85-0.91-3.09-1.13c-1.33-0.24-2.87,0.31-3.98,1.35
	c-0.05,0.04-0.1,0.08-0.14,0.13c-0.93,0.91-1.52,2.17-1.39,3.58c0.06,0.58,0.24,1.271,0.57,1.971c0.48,1.05,1.27,2.14,2.42,2.949
	c0,0,0,0,0.01,0c0.28,0.2,0.59,0.38,0.92,0.54c0.09,0.05,0.19,0.09,0.29,0.13c0.02,0.011,0.04,0.021,0.06,0.021
	c0.08,0.04,0.17,0.08,0.25,0.1h0.01c0.02,0.021,0.03,0.021,0.05,0.021"/>
<path fill="none" stroke="#FFFFFF" d="M121.9,210.67c0.02-0.02,0.04-0.03,0.05-0.05c0.01,0,0.01,0,0.01,0
	c0.05-0.05,0.1-0.09,0.14-0.14c0.03-0.021,0.05-0.04,0.07-0.061c0.06-0.07,0.13-0.13,0.19-0.2c0.3-0.319,0.56-0.68,0.79-1.05
	c0.02-0.03,0.04-0.07,0.06-0.1c0.35-0.59,0.63-1.21,0.84-1.83c0.01-0.04,0.03-0.09,0.04-0.13c0.32-0.99,0.46-1.95,0.46-2.69
	c0-1.41-0.81-2.7-2-3.7c-0.04-0.02-0.08-0.06-0.11-0.09c-1.57-1.27-3.73-2.06-5.55-2.06c-2.46,0-4.64,1.21-5.97,3.06
	c-0.04,0.04-0.07,0.09-0.09,0.13c-0.85,1.2-1.34,2.66-1.34,4.24c0,2.07,0.67,3.98,1.82,5.52c0.03,0.051,0.07,0.11,0.12,0.16
	c0,0.011,0.02,0.021,0.02,0.021c0.03,0.05,0.07,0.1,0.1,0.14"/>
<path fill="none" stroke="#FFFFFF" d="M126.15,209.7c0-0.01,0.01-0.03,0.01-0.05h0.01c0.01-0.03,0.02-0.07,0.04-0.11
	c0-0.01,0.01-0.03,0.02-0.05c0.03-0.08,0.06-0.16,0.08-0.24c0.02-0.04,0.03-0.08,0.05-0.12c0.04-0.13,0.08-0.25,0.12-0.38
	c0.01-0.02,0.01-0.03,0.01-0.05c0.05-0.15,0.09-0.311,0.13-0.46c0.59-2.34,0.4-4.891-0.78-7.021"/>
<path fill="none" stroke="#BE1E2D" stroke-width="3" d="M128.61,206.78c0,0.7-0.06,1.37-0.19,2.029c0,0.011,0,0.021-0.01,0.03
	c0,0.021,0,0.05-0.01,0.07c0,0.03-0.01,0.05-0.01,0.08c-0.01,0.02-0.01,0.05-0.02,0.069c-0.04,0.021-0.08,0.03-0.12,0.04
	c-0.07,0.03-0.14,0.051-0.21,0.07c-0.28,0.09-0.57,0.17-0.87,0.25c-0.18,0.061-0.36,0.11-0.54,0.16c-0.07,0.02-0.14,0.04-0.21,0.05
	c-0.02,0.01-0.04,0.021-0.06,0.021c-0.07,0.02-0.14,0.04-0.21,0.05h-0.01c-0.09,0.03-0.18,0.06-0.28,0.08
	c-0.32,0.08-0.64,0.16-0.96,0.239c-0.19,0.051-0.39,0.101-0.59,0.15c-0.54,0.12-1.08,0.24-1.63,0.35
	c-0.03,0.011-0.06,0.021-0.09,0.021c-0.23,0.05-0.46,0.09-0.69,0.13c-0.98,0.87-2.27,1.39-3.9,1.21c-0.6-0.07-1.16-0.2-1.67-0.39
	c-0.32,0.04-0.64,0.069-0.97,0.1c-0.38,0.04-0.76,0.07-1.14,0.09c-0.06,0.011-0.12,0.011-0.18,0.011
	c-0.27,0.02-0.54,0.029-0.81,0.05c-0.1,0.01-0.2,0.01-0.3,0.02c-0.16,0.01-0.33,0.03-0.49,0.04c-0.16,0.021-0.33,0.021-0.49,0.03
	c-0.13,0.01-0.26,0.01-0.39,0.01h-0.01c-0.06,0.01-0.12,0.01-0.18,0.01c-0.03,0.011-0.07,0.011-0.1,0.011
	c-0.1,0.01-0.2,0.01-0.29,0.01c-0.47,0.02-0.93,0.03-1.4,0.04c-0.22,0.01-0.43,0.02-0.66,0.01c0,0-0.01,0.01-0.02,0
	c-0.03-0.05-0.05-0.1-0.07-0.15h-0.01c-0.01-0.02-0.02-0.029-0.02-0.05c-0.03-0.04-0.05-0.09-0.06-0.13
	c-0.07-0.13-0.14-0.26-0.19-0.39c-0.2-0.44-0.37-0.9-0.51-1.38c-0.29-0.96-0.44-1.98-0.44-3.04c0-1.04,0.15-2.04,0.42-2.99
	c0.23-0.78,0.54-1.53,0.92-2.23c0.03-0.05,0.06-0.1,0.09-0.14c0.55-0.979,1.26-1.87,2.09-2.62c1.86-1.68,4.3-2.7,6.99-2.7
	c1.36,0,2.65,0.261,3.84,0.74c0.16,0.061,0.32,0.13,0.48,0.21c0.01,0,0.01,0.01,0.01,0.01c0.01,0,0.02,0.011,0.03,0.021
	c0.14,0.05,0.27,0.11,0.41,0.189h0.01c0.8,0.41,1.54,0.931,2.21,1.53c0.18,0.17,0.36,0.34,0.54,0.521c0.04,0.05,0.08,0.09,0.11,0.13
	c0.63,0.67,1.17,1.43,1.61,2.25c0.11,0.21,0.21,0.43,0.31,0.64c0,0.01,0.01,0.021,0.01,0.03c0.21,0.46,0.38,0.93,0.52,1.42
	C128.47,204.74,128.61,205.74,128.61,206.78z"/>
<path fill="none" stroke="#FFFFFF" d="M97.64,204.71c0,0.35-0.63,0.9-0.8,1.21c-0.3,0.57-1.63,0-1.48-1.34
	c0.02-0.16,0.09-0.35,0.23-0.55c0.01-0.021,0.03-0.05,0.05-0.08c0.34-0.431,0.97-0.87,1.95-1.01c1.04-0.15,2.23,0.439,2.08,2.229
	c-0.06,0.67-0.24,1.55-0.72,2.25c-0.32,0.45-0.76,0.83-1.38,1.03c-0.37,0.12-0.81,0.18-1.32,0.149c-1.2-0.069-2.64-0.92-3.26-2.31
	c-0.02-0.03-0.04-0.07-0.05-0.11c-0.15-0.37-0.25-0.77-0.26-1.199c-0.01-0.04-0.01-0.091-0.01-0.131c0-0.09,0-0.18,0.01-0.27
	c0.06-0.93,0.31-1.68,0.74-2.271c0.02-0.04,0.04-0.069,0.08-0.1c0.8-1.07,2.17-1.64,3.94-1.96c1.39-0.24,3.01,0.37,4.13,1.5
	c0.05,0.04,0.09,0.08,0.13,0.13c0.84,0.9,1.37,2.101,1.24,3.44c-0.1,1.01-0.58,2.35-1.52,3.52c-0.69,0.88-1.63,1.66-2.85,2.13
	c-0.06,0.03-0.11,0.05-0.17,0.07c-0.02,0.01-0.03,0.01-0.05,0.01c-0.08,0.04-0.16,0.07-0.25,0.09c-0.03,0.011-0.06,0.021-0.09,0.021
	c-0.12,0.05-0.25,0.08-0.39,0.109"/>
<path fill="none" stroke="#FFFFFF" d="M93.18,210.53c-0.09-0.061-0.18-0.13-0.26-0.2c-0.07-0.05-0.14-0.11-0.2-0.17
	c-0.01-0.01-0.03-0.03-0.04-0.04c-0.06-0.05-0.11-0.101-0.16-0.16c-0.6-0.59-1.06-1.3-1.42-2.05c-0.02-0.03-0.03-0.07-0.04-0.101
	c-0.23-0.489-0.42-0.989-0.55-1.479c-0.02-0.04-0.03-0.08-0.04-0.12c-0.22-0.82-0.32-1.6-0.32-2.229c0-1.08,0.47-2.07,1.22-2.931
	c0.03-0.04,0.06-0.069,0.09-0.1c1.55-1.7,4.19-2.82,6.34-2.82c2.57,0,4.83,1.311,6.16,3.311c0.04,0.04,0.07,0.09,0.09,0.14
	c0.74,1.15,1.16,2.51,1.16,3.97c0,2.25-0.8,4.311-2.12,5.92c-0.04,0.03-0.06,0.061-0.08,0.09c-0.02,0.021-0.04,0.04-0.06,0.061
	c-0.02,0.02-0.04,0.05-0.05,0.07c-0.03,0.029-0.05,0.05-0.07,0.079"/>
<path fill="none" stroke="#FFFFFF" d="M88.63,209.44c-0.03-0.061-0.05-0.12-0.07-0.181c-0.03-0.05-0.04-0.1-0.06-0.14
	c-0.01-0.021-0.01-0.03-0.01-0.04c-0.03-0.061-0.05-0.12-0.07-0.17c-0.09-0.25-0.18-0.5-0.25-0.76c-0.01-0.04-0.02-0.08-0.03-0.12
	c-0.66-2.4-0.51-5.05,0.71-7.261"/>
<path fill="none" stroke="#BE1E2D" stroke-width="3" d="M107.17,206.19c0,0.229-0.01,0.449-0.03,0.68c0.01,0.03,0.01,0.07,0,0.11
	c-0.01,0.159-0.02,0.3-0.05,0.46v0.04c0,0.029,0,0.05-0.01,0.079c0,0.091-0.01,0.171-0.03,0.261v0.01
	c-0.07,0.479-0.17,0.939-0.31,1.4c-0.16,0.539-0.36,1.069-0.6,1.569c-0.04,0.101-0.09,0.2-0.14,0.29c-0.03,0.07-0.06,0.141-0.1,0.21
	c0,0-0.01,0.01-0.01,0.021c-0.08,0.13-0.15,0.27-0.23,0.399c-0.01,0.011-0.01,0.021-0.02,0.03c-0.02,0.04-0.04,0.08-0.07,0.11
	c0,0.01-0.01,0.02-0.02,0.029h-0.18c-0.86-0.029-1.71-0.069-2.54-0.12c-1.79-0.109-3.53-0.27-5.21-0.5
	c-0.29,0.07-0.61,0.131-0.93,0.16c-1.43,0.15-2.59-0.22-3.51-0.899c-0.33-0.07-0.66-0.141-0.99-0.21c-0.01,0-0.03-0.011-0.04-0.011
	c-0.96-0.199-1.89-0.42-2.8-0.67c-0.06-0.02-0.13-0.029-0.19-0.05c-0.18-0.05-0.36-0.1-0.53-0.149c-0.24-0.061-0.47-0.141-0.7-0.21
	l-0.69-0.211c-0.03,0.011-0.05,0.04-0.08,0.091c-0.01-0.04-0.03-0.08-0.03-0.12c-0.22-0.07-0.44-0.141-0.65-0.221
	c-0.02-0.06-0.03-0.109-0.04-0.17c-0.02-0.06-0.04-0.119-0.05-0.18c-0.01-0.05-0.02-0.11-0.03-0.16c-0.13-0.67-0.2-1.359-0.2-2.069
	c0-1.04,0.15-2.04,0.42-2.99c0.37-1.3,0.98-2.5,1.79-3.55c0.02-0.04,0.05-0.08,0.09-0.12c0.37-0.471,0.78-0.92,1.22-1.32
	c0.25-0.229,0.51-0.44,0.78-0.64c0.01,0,0.01-0.011,0.01-0.011c0.47-0.34,0.96-0.649,1.47-0.909h0.01
	c0.19-0.101,0.37-0.19,0.56-0.271l0.36-0.149c1.18-0.461,2.46-0.721,3.8-0.721c1.74,0,3.39,0.431,4.84,1.2
	c0.01,0,0.02,0.01,0.03,0.021c0.33,0.17,0.65,0.359,0.95,0.569c0.01,0,0.01,0.01,0.01,0.01s0.01,0,0.01,0.011
	c0.27,0.17,0.52,0.359,0.77,0.569c0.01,0,0.02,0.011,0.02,0.011c0.13,0.1,0.24,0.21,0.36,0.31c0.91,0.82,1.67,1.81,2.26,2.9
	c0.04,0.08,0.07,0.149,0.11,0.229c0.03,0.05,0.05,0.101,0.07,0.15c0.05,0.1,0.1,0.189,0.14,0.29c0.08,0.18,0.15,0.35,0.22,0.529
	c0.11,0.29,0.21,0.591,0.3,0.891c0.15,0.53,0.26,1.08,0.33,1.64c0,0.01,0,0.01,0,0.021c0.02,0.18,0.04,0.37,0.05,0.56
	c0,0.01,0.01,0.021,0,0.04v0.01c0.02,0.181,0.03,0.36,0.02,0.55c0,0.021,0.01,0.03,0,0.051
	C107.17,206.11,107.17,206.15,107.17,206.19z"/>
<path fill="#EE2A7B" stroke="#BE1E2D" d="M161.498,201.864c1.855,1.684,4.304,2.705,6.988,2.705c2.682,0,5.131-1.021,6.988-2.705
	c1.438-1.303,2.521-3.004,3.083-4.934c0.285-0.962,0.433-1.982,0.433-3.041c0-1.037-0.145-2.038-0.414-2.988
	c-0.559-1.947-1.648-3.67-3.104-4.986c-1.855-1.682-4.305-2.703-6.986-2.703c-2.685,0-5.133,1.021-6.988,2.703
	c-1.453,1.316-2.545,3.039-3.104,4.986c-0.27,0.95-0.415,1.951-0.415,2.988c0,1.059,0.151,2.079,0.433,3.041
	C158.975,198.86,160.059,200.562,161.498,201.864z"/>
<path fill="none" stroke="#BE1E2D" stroke-width="3" d="M176.504,186.264c3.014-2.658,5.582,0,5.582,0"/>
<path fill="#EE2A7B" d="M182.936,202.454c1.857,1.684,4.304,2.705,6.988,2.705c2.684,0,5.131-1.021,6.988-2.705
	c1.438-1.303,2.521-3.004,3.085-4.934c0.282-0.961,0.432-1.982,0.432-3.041c0-1.035-0.143-2.037-0.416-2.986
	c-0.556-1.951-1.646-3.672-3.103-4.988c-1.855-1.681-4.303-2.703-6.986-2.703c-2.685,0-5.131,1.022-6.988,2.703
	c-1.451,1.316-2.544,3.037-3.102,4.988c-0.271,0.949-0.416,1.951-0.416,2.986c0,1.059,0.15,2.08,0.433,3.041
	C180.414,199.45,181.496,201.151,182.936,202.454z"/>
<path fill="none" stroke="#FFFFFF" d="M197.735,189.088c3.104,5.601-0.706,14.061-7.099,14.061c-5.111,0-9.258-4.154-9.258-9.279
	c0-4.101,3.315-7.423,7.406-7.423c3.271,0,7.652,2.568,7.652,5.848c0,2.625-1.803,7.964-6.543,7.454
	c-4.166-0.446-6.051-4.023-6.25-6.111c-0.297-3.131,2.977-5.517,5.504-5.069c2.783,0.492,4.594,1.643,4.762,4.324
	c0.146,2.386-1.938,3.936-3.57,4.025c-2.679,0.147-3.309-2.061-3.424-3.43c-0.146-1.789,1.045-2.385,2.084-2.237
	c1.473,0.212,2.172,1.095,2.229,1.642c0.151,1.342-1.179,1.91-1.483,1.342c-0.168-0.311-0.797-0.856-0.797-1.207"/>
<path fill="none" stroke="#BE1E2D" stroke-width="3" d="M183.011,202.627c1.854,1.683,4.302,2.705,6.987,2.705
	c2.684,0,5.131-1.022,6.988-2.705c1.438-1.304,2.521-3.005,3.084-4.934c0.285-0.962,0.433-1.983,0.433-3.041
	c0-1.037-0.145-2.038-0.415-2.987c-0.559-1.949-1.648-3.672-3.102-4.988c-1.857-1.681-4.305-2.703-6.988-2.703
	c-2.686,0-5.133,1.022-6.987,2.703c-1.454,1.316-2.545,3.039-3.103,4.988c-0.271,0.949-0.416,1.95-0.416,2.987
	c0,1.058,0.151,2.079,0.434,3.041C180.488,199.622,181.57,201.323,183.011,202.627z"/>
<path fill="none" stroke="#FFFFFF" d="M160.742,188.646c-3.104,5.601,0.707,14.061,7.1,14.061c5.112,0,9.258-4.154,9.258-9.281
	c0-4.098-3.316-7.42-7.408-7.42c-3.271,0-7.652,2.568-7.652,5.848c0,2.625,1.803,7.963,6.545,7.453
	c4.166-0.445,6.05-4.023,6.248-6.111c0.299-3.131-2.976-5.516-5.504-5.068c-2.783,0.492-4.592,1.641-4.76,4.322
	c-0.147,2.387,1.936,3.936,3.57,4.027c2.678,0.146,3.307-2.061,3.422-3.431c0.148-1.789-1.043-2.384-2.084-2.237
	c-1.471,0.212-2.171,1.096-2.229,1.641c-0.15,1.344,1.179,1.911,1.485,1.344c0.168-0.311,0.797-0.856,0.797-1.207"/>
<path fill="none" stroke="#BE1E2D" stroke-width="3" d="M161.572,202.036c1.855,1.684,4.304,2.705,6.988,2.705
	c2.683,0,5.131-1.021,6.988-2.705c1.438-1.303,2.521-3.004,3.084-4.934c0.283-0.962,0.433-1.982,0.433-3.041
	c0-1.037-0.146-2.039-0.417-2.986c-0.557-1.949-1.647-3.672-3.102-4.988c-1.855-1.682-4.304-2.703-6.986-2.703
	c-2.685,0-5.133,1.021-6.988,2.703c-1.453,1.316-2.545,3.039-3.103,4.988c-0.271,0.947-0.417,1.949-0.417,2.986
	c0,1.059,0.152,2.079,0.434,3.041C159.049,199.032,160.133,200.733,161.572,202.036z"/>
<path fill="#EE2A7B" stroke="#BE1E2D" d="M233.854,191.978c1.855,1.684,4.303,2.705,6.987,2.705c2.683,0,5.131-1.021,6.989-2.705
	c1.438-1.303,2.521-3.004,3.082-4.934c0.285-0.962,0.434-1.982,0.434-3.041c0-1.037-0.145-2.038-0.414-2.988
	c-0.56-1.947-1.648-3.67-3.104-4.986c-1.856-1.682-4.305-2.703-6.987-2.703c-2.685,0-5.132,1.021-6.987,2.703
	c-1.453,1.316-2.545,3.039-3.104,4.986c-0.27,0.95-0.416,1.951-0.416,2.988c0,1.059,0.151,2.079,0.434,3.041
	C231.33,188.974,232.413,190.675,233.854,191.978z"/>
<path fill="none" stroke="#BE1E2D" stroke-width="3" d="M248.858,176.377c3.015-2.658,5.583,0,5.583,0"/>
<path fill="#EE2A7B" d="M255.291,192.567c1.857,1.684,4.303,2.705,6.988,2.705c2.684,0,5.131-1.021,6.988-2.705
	c1.438-1.303,2.521-3.004,3.084-4.934c0.283-0.961,0.432-1.982,0.432-3.041c0-1.035-0.143-2.037-0.416-2.986
	c-0.555-1.951-1.646-3.672-3.102-4.988c-1.855-1.681-4.303-2.703-6.986-2.703c-2.686,0-5.131,1.022-6.988,2.703
	c-1.452,1.316-2.545,3.037-3.102,4.988c-0.271,0.949-0.416,1.951-0.416,2.986c0,1.059,0.15,2.08,0.432,3.041
	C252.769,189.563,253.852,191.265,255.291,192.567z"/>
<path fill="none" stroke="#FFFFFF" d="M270.09,179.201c3.104,5.601-0.705,14.061-7.098,14.061c-5.112,0-9.258-4.154-9.258-9.279
	c0-4.101,3.314-7.423,7.406-7.423c3.271,0,7.652,2.568,7.652,5.848c0,2.625-1.803,7.964-6.543,7.454
	c-4.166-0.446-6.051-4.023-6.25-6.111c-0.297-3.131,2.977-5.517,5.504-5.069c2.783,0.492,4.594,1.643,4.762,4.324
	c0.146,2.386-1.938,3.936-3.57,4.025c-2.68,0.147-3.309-2.061-3.424-3.43c-0.146-1.789,1.045-2.385,2.084-2.237
	c1.473,0.212,2.172,1.095,2.229,1.642c0.152,1.342-1.178,1.91-1.482,1.342c-0.168-0.311-0.797-0.856-0.797-1.207"/>
<path fill="none" stroke="#BE1E2D" stroke-width="3" d="M255.365,192.74c1.855,1.683,4.302,2.705,6.988,2.705
	c2.684,0,5.131-1.022,6.988-2.705c1.438-1.304,2.52-3.005,3.084-4.934c0.285-0.962,0.432-1.983,0.432-3.041
	c0-1.037-0.145-2.038-0.414-2.987c-0.559-1.949-1.648-3.672-3.102-4.988c-1.857-1.681-4.305-2.703-6.988-2.703
	c-2.687,0-5.133,1.022-6.988,2.703c-1.453,1.316-2.545,3.039-3.103,4.988c-0.271,0.949-0.415,1.95-0.415,2.987
	c0,1.058,0.15,2.079,0.434,3.041C252.844,189.735,253.925,191.437,255.365,192.74z"/>
<path fill="none" stroke="#FFFFFF" d="M233.098,178.759c-3.104,5.601,0.707,14.061,7.099,14.061c5.112,0,9.258-4.154,9.258-9.281
	c0-4.098-3.315-7.42-7.407-7.42c-3.271,0-7.652,2.568-7.652,5.848c0,2.625,1.803,7.963,6.544,7.453
	c4.166-0.445,6.05-4.023,6.249-6.111c0.298-3.131-2.977-5.516-5.504-5.068c-2.783,0.492-4.592,1.641-4.76,4.322
	c-0.148,2.387,1.936,3.936,3.57,4.027c2.677,0.146,3.307-2.061,3.421-3.431c0.149-1.789-1.042-2.384-2.084-2.237
	c-1.47,0.212-2.171,1.096-2.229,1.641c-0.15,1.344,1.18,1.911,1.486,1.344c0.168-0.311,0.796-0.856,0.796-1.207"/>
<path fill="none" stroke="#BE1E2D" stroke-width="3" d="M233.927,192.149c1.856,1.684,4.304,2.705,6.988,2.705
	c2.683,0,5.131-1.021,6.989-2.705c1.438-1.303,2.52-3.004,3.084-4.934c0.283-0.962,0.432-1.982,0.432-3.041
	c0-1.037-0.145-2.039-0.416-2.986c-0.557-1.949-1.648-3.672-3.103-4.988c-1.855-1.682-4.304-2.703-6.986-2.703
	c-2.685,0-5.132,1.021-6.988,2.703c-1.452,1.316-2.544,3.039-3.103,4.988c-0.271,0.947-0.416,1.949-0.416,2.986
	c0,1.059,0.152,2.079,0.434,3.041C231.404,189.146,232.487,190.847,233.927,192.149z"/>
<path fill="#EE2A7B" stroke="#BE1E2D" d="M18.996,257.359c1.856,1.684,4.304,2.705,6.988,2.705c2.683,0,5.131-1.021,6.989-2.705
	c1.438-1.303,2.521-3.004,3.083-4.934c0.285-0.962,0.433-1.982,0.433-3.041c0-1.037-0.145-2.038-0.415-2.988
	c-0.559-1.947-1.648-3.67-3.104-4.986c-1.856-1.682-4.304-2.703-6.987-2.703c-2.684,0-5.132,1.021-6.988,2.703
	c-1.453,1.316-2.545,3.039-3.103,4.986c-0.27,0.95-0.416,1.951-0.416,2.988c0,1.059,0.151,2.079,0.433,3.041
	C16.473,254.355,17.556,256.057,18.996,257.359z"/>
<path fill="none" stroke="#BE1E2D" stroke-width="3" d="M34.001,241.759c3.015-2.658,5.583,0,5.583,0"/>
<path fill="#EE2A7B" d="M40.434,257.949c1.857,1.684,4.303,2.705,6.988,2.705c2.684,0,5.131-1.021,6.988-2.705
	c1.438-1.303,2.521-3.004,3.085-4.934c0.282-0.961,0.432-1.982,0.432-3.041c0-1.035-0.143-2.037-0.416-2.986
	c-0.556-1.951-1.646-3.672-3.103-4.988c-1.855-1.681-4.303-2.703-6.986-2.703c-2.685,0-5.131,1.022-6.988,2.703
	c-1.452,1.316-2.544,3.037-3.102,4.988c-0.271,0.949-0.416,1.951-0.416,2.986c0,1.059,0.15,2.08,0.432,3.041
	C37.912,254.945,38.994,256.646,40.434,257.949z"/>
<path fill="none" stroke="#FFFFFF" d="M55.233,244.583c3.104,5.601-0.706,14.061-7.099,14.061c-5.112,0-9.257-4.154-9.257-9.279
	c0-4.101,3.315-7.423,7.406-7.423c3.271,0,7.652,2.568,7.652,5.848c0,2.625-1.803,7.964-6.543,7.454
	c-4.166-0.446-6.051-4.023-6.25-6.111c-0.297-3.131,2.977-5.517,5.503-5.069c2.783,0.492,4.594,1.643,4.762,4.324
	c0.146,2.386-1.938,3.936-3.57,4.025c-2.679,0.147-3.308-2.061-3.423-3.43c-0.146-1.789,1.044-2.385,2.083-2.237
	c1.473,0.212,2.172,1.095,2.229,1.642c0.151,1.342-1.179,1.91-1.483,1.342c-0.168-0.311-0.797-0.856-0.797-1.207"/>
<path fill="none" stroke="#BE1E2D" stroke-width="3" d="M40.509,258.122c1.855,1.683,4.301,2.705,6.987,2.705
	c2.684,0,5.131-1.022,6.988-2.705c1.438-1.304,2.521-3.005,3.084-4.934c0.285-0.962,0.433-1.983,0.433-3.041
	c0-1.037-0.145-2.038-0.415-2.987c-0.559-1.949-1.648-3.672-3.102-4.988c-1.857-1.681-4.305-2.703-6.988-2.703
	c-2.686,0-5.132,1.022-6.987,2.703c-1.454,1.316-2.545,3.039-3.103,4.988c-0.271,0.949-0.415,1.95-0.415,2.987
	c0,1.058,0.151,2.079,0.433,3.041C37.986,255.117,39.068,256.818,40.509,258.122z"/>
<path fill="none" stroke="#FFFFFF" d="M18.241,244.141c-3.104,5.601,0.707,14.061,7.099,14.061c5.113,0,9.258-4.154,9.258-9.281
	c0-4.098-3.315-7.42-7.408-7.42c-3.271,0-7.652,2.568-7.652,5.848c0,2.625,1.803,7.963,6.544,7.453
	c4.166-0.445,6.05-4.023,6.249-6.111c0.298-3.131-2.976-5.516-5.504-5.068c-2.783,0.492-4.592,1.641-4.759,4.322
	c-0.148,2.387,1.936,3.936,3.57,4.027c2.677,0.146,3.307-2.061,3.421-3.431c0.149-1.789-1.042-2.384-2.084-2.237
	c-1.47,0.212-2.17,1.096-2.229,1.641c-0.15,1.344,1.179,1.911,1.486,1.344c0.168-0.311,0.796-0.856,0.796-1.207"/>
<path fill="none" stroke="#BE1E2D" stroke-width="3" d="M19.07,257.531c1.856,1.684,4.304,2.705,6.988,2.705
	c2.683,0,5.131-1.021,6.989-2.705c1.438-1.303,2.521-3.004,3.084-4.934c0.284-0.962,0.433-1.982,0.433-3.041
	c0-1.037-0.145-2.039-0.417-2.986c-0.557-1.949-1.648-3.672-3.103-4.988c-1.855-1.682-4.303-2.703-6.986-2.703
	c-2.684,0-5.132,1.021-6.988,2.703c-1.452,1.316-2.544,3.039-3.102,4.988c-0.271,0.947-0.417,1.949-0.417,2.986
	c0,1.059,0.152,2.079,0.433,3.041C16.547,254.527,17.63,256.229,19.07,257.531z"/>
<path fill="#EE2A7B" stroke="#BE1E2D" d="M90.666,248.42c1.856,1.684,4.304,2.705,6.988,2.705c2.683,0,5.131-1.021,6.989-2.705
	c1.438-1.303,2.521-3.004,3.083-4.934c0.285-0.962,0.433-1.982,0.433-3.041c0-1.037-0.145-2.038-0.415-2.988
	c-0.559-1.947-1.648-3.67-3.104-4.986c-1.856-1.682-4.304-2.703-6.987-2.703c-2.684,0-5.132,1.021-6.988,2.703
	c-1.453,1.316-2.545,3.039-3.103,4.986c-0.27,0.95-0.416,1.951-0.416,2.988c0,1.059,0.151,2.079,0.433,3.041
	C88.143,245.416,89.226,247.117,90.666,248.42z"/>
<path fill="none" stroke="#BE1E2D" stroke-width="3" d="M105.671,232.819c3.015-2.658,5.583,0,5.583,0"/>
<path fill="#EE2A7B" d="M112.104,249.01c1.857,1.684,4.303,2.705,6.988,2.705c2.684,0,5.131-1.021,6.988-2.705
	c1.438-1.303,2.521-3.004,3.085-4.934c0.282-0.961,0.432-1.982,0.432-3.041c0-1.035-0.143-2.037-0.416-2.986
	c-0.556-1.951-1.646-3.672-3.103-4.988c-1.855-1.681-4.303-2.703-6.986-2.703c-2.685,0-5.131,1.022-6.988,2.703
	c-1.452,1.316-2.544,3.037-3.102,4.988c-0.271,0.949-0.416,1.951-0.416,2.986c0,1.059,0.15,2.08,0.432,3.041
	C109.581,246.006,110.664,247.707,112.104,249.01z"/>
<path fill="none" stroke="#FFFFFF" d="M126.903,235.644c3.104,5.601-0.706,14.061-7.099,14.061c-5.112,0-9.257-4.154-9.257-9.279
	c0-4.101,3.315-7.423,7.406-7.423c3.271,0,7.652,2.568,7.652,5.848c0,2.625-1.803,7.964-6.543,7.454
	c-4.166-0.446-6.051-4.023-6.25-6.111c-0.297-3.131,2.977-5.517,5.503-5.069c2.783,0.492,4.594,1.643,4.762,4.324
	c0.146,2.386-1.938,3.936-3.57,4.025c-2.679,0.147-3.308-2.061-3.423-3.43c-0.146-1.789,1.044-2.385,2.083-2.237
	c1.473,0.212,2.172,1.095,2.229,1.642c0.151,1.342-1.179,1.91-1.483,1.342c-0.168-0.311-0.797-0.856-0.797-1.207"/>
<path fill="none" stroke="#BE1E2D" stroke-width="3" d="M112.178,249.183c1.855,1.683,4.301,2.705,6.987,2.705
	c2.684,0,5.131-1.022,6.988-2.705c1.438-1.304,2.521-3.005,3.084-4.934c0.285-0.962,0.433-1.983,0.433-3.041
	c0-1.037-0.145-2.038-0.415-2.987c-0.559-1.949-1.648-3.672-3.102-4.988c-1.857-1.681-4.305-2.703-6.988-2.703
	c-2.686,0-5.132,1.022-6.987,2.703c-1.454,1.316-2.545,3.039-3.103,4.988c-0.271,0.949-0.415,1.95-0.415,2.987
	c0,1.058,0.151,2.079,0.433,3.041C109.656,246.178,110.737,247.879,112.178,249.183z"/>
<path fill="none" stroke="#FFFFFF" d="M89.91,235.201c-3.104,5.601,0.707,14.061,7.099,14.061c5.113,0,9.258-4.154,9.258-9.281
	c0-4.098-3.315-7.42-7.408-7.42c-3.271,0-7.652,2.568-7.652,5.848c0,2.625,1.803,7.963,6.544,7.453
	c4.166-0.445,6.05-4.023,6.249-6.111c0.298-3.131-2.976-5.516-5.504-5.068c-2.783,0.492-4.592,1.641-4.759,4.322
	c-0.148,2.387,1.936,3.936,3.57,4.027c2.677,0.146,3.307-2.061,3.421-3.431c0.149-1.789-1.042-2.384-2.084-2.237
	c-1.47,0.212-2.17,1.096-2.229,1.641c-0.15,1.344,1.179,1.911,1.486,1.344c0.168-0.311,0.796-0.856,0.796-1.207"/>
<path fill="none" stroke="#BE1E2D" stroke-width="3" d="M90.739,248.592c1.856,1.684,4.304,2.705,6.988,2.705
	c2.683,0,5.131-1.021,6.989-2.705c1.438-1.303,2.521-3.004,3.084-4.934c0.284-0.962,0.433-1.982,0.433-3.041
	c0-1.037-0.145-2.039-0.417-2.986c-0.557-1.949-1.648-3.672-3.103-4.988c-1.855-1.682-4.303-2.703-6.986-2.703
	c-2.684,0-5.132,1.021-6.988,2.703c-1.452,1.316-2.544,3.039-3.102,4.988c-0.271,0.947-0.417,1.949-0.417,2.986
	c0,1.059,0.152,2.079,0.433,3.041C88.216,245.588,89.3,247.289,90.739,248.592z"/>
<path fill="#EE2A7B" stroke="#BE1E2D" d="M163.107,242.992c1.855,1.684,4.304,2.705,6.988,2.705c2.682,0,5.131-1.021,6.988-2.705
	c1.438-1.303,2.521-3.004,3.083-4.934c0.285-0.962,0.433-1.982,0.433-3.041c0-1.037-0.145-2.038-0.414-2.988
	c-0.559-1.947-1.648-3.67-3.104-4.986c-1.855-1.682-4.305-2.703-6.986-2.703c-2.685,0-5.133,1.021-6.988,2.703
	c-1.453,1.316-2.545,3.039-3.104,4.986c-0.27,0.95-0.415,1.951-0.415,2.988c0,1.059,0.151,2.079,0.433,3.041
	C160.584,239.988,161.668,241.689,163.107,242.992z"/>
<path fill="none" stroke="#BE1E2D" stroke-width="3" d="M178.113,227.392c3.014-2.658,5.582,0,5.582,0"/>
<path fill="#EE2A7B" d="M184.545,243.582c1.857,1.684,4.304,2.705,6.988,2.705c2.684,0,5.131-1.021,6.988-2.705
	c1.438-1.303,2.521-3.004,3.085-4.934c0.282-0.961,0.432-1.982,0.432-3.041c0-1.035-0.143-2.037-0.416-2.986
	c-0.556-1.951-1.646-3.672-3.103-4.988c-1.855-1.681-4.303-2.703-6.986-2.703c-2.685,0-5.131,1.022-6.988,2.703
	c-1.451,1.316-2.544,3.037-3.102,4.988c-0.271,0.949-0.416,1.951-0.416,2.986c0,1.059,0.15,2.08,0.433,3.041
	C182.023,240.578,183.105,242.279,184.545,243.582z"/>
<path fill="none" stroke="#FFFFFF" d="M199.345,230.216c3.104,5.601-0.706,14.061-7.099,14.061c-5.111,0-9.258-4.154-9.258-9.279
	c0-4.101,3.315-7.423,7.406-7.423c3.271,0,7.652,2.568,7.652,5.848c0,2.625-1.803,7.964-6.543,7.454
	c-4.166-0.446-6.051-4.023-6.25-6.111c-0.297-3.131,2.977-5.517,5.504-5.069c2.783,0.492,4.594,1.643,4.762,4.324
	c0.146,2.386-1.938,3.936-3.57,4.025c-2.679,0.147-3.309-2.061-3.424-3.43c-0.146-1.789,1.045-2.385,2.084-2.237
	c1.473,0.212,2.172,1.095,2.229,1.642c0.151,1.342-1.179,1.91-1.483,1.342c-0.168-0.311-0.797-0.856-0.797-1.207"/>
<path fill="none" stroke="#BE1E2D" stroke-width="3" d="M184.62,243.755c1.854,1.683,4.302,2.705,6.987,2.705
	c2.684,0,5.131-1.022,6.988-2.705c1.438-1.304,2.521-3.005,3.084-4.934c0.285-0.962,0.433-1.983,0.433-3.041
	c0-1.037-0.145-2.038-0.415-2.987c-0.559-1.949-1.648-3.672-3.102-4.988c-1.857-1.681-4.305-2.703-6.988-2.703
	c-2.686,0-5.133,1.022-6.987,2.703c-1.454,1.316-2.545,3.039-3.103,4.988c-0.271,0.949-0.416,1.95-0.416,2.987
	c0,1.058,0.151,2.079,0.434,3.041C182.098,240.75,183.18,242.451,184.62,243.755z"/>
<path fill="none" stroke="#FFFFFF" d="M162.352,229.773c-3.104,5.601,0.707,14.061,7.1,14.061c5.112,0,9.258-4.154,9.258-9.281
	c0-4.098-3.316-7.42-7.408-7.42c-3.271,0-7.652,2.568-7.652,5.848c0,2.625,1.803,7.963,6.545,7.453
	c4.166-0.445,6.05-4.023,6.248-6.111c0.299-3.131-2.976-5.516-5.504-5.068c-2.783,0.492-4.592,1.641-4.76,4.322
	c-0.147,2.387,1.936,3.936,3.57,4.027c2.678,0.146,3.307-2.061,3.422-3.431c0.148-1.789-1.043-2.384-2.084-2.237
	c-1.471,0.212-2.171,1.096-2.229,1.641c-0.15,1.344,1.179,1.911,1.485,1.344c0.168-0.311,0.797-0.856,0.797-1.207"/>
<path fill="none" stroke="#BE1E2D" stroke-width="3" d="M163.182,243.164c1.855,1.684,4.304,2.705,6.988,2.705
	c2.683,0,5.131-1.021,6.988-2.705c1.438-1.303,2.521-3.004,3.084-4.934c0.283-0.962,0.433-1.982,0.433-3.041
	c0-1.037-0.146-2.039-0.417-2.986c-0.557-1.949-1.647-3.672-3.102-4.988c-1.855-1.682-4.304-2.703-6.986-2.703
	c-2.685,0-5.133,1.021-6.988,2.703c-1.453,1.316-2.545,3.039-3.103,4.988c-0.271,0.947-0.417,1.949-0.417,2.986
	c0,1.059,0.152,2.079,0.434,3.041C160.658,240.16,161.742,241.861,163.182,243.164z"/>
<path fill="#EE2A7B" stroke="#BE1E2D" d="M235.082,246.627c1.855,1.684,4.303,2.705,6.987,2.705c2.683,0,5.131-1.021,6.989-2.705
	c1.438-1.303,2.521-3.004,3.082-4.934c0.285-0.962,0.434-1.982,0.434-3.041c0-1.037-0.145-2.038-0.414-2.988
	c-0.56-1.947-1.648-3.67-3.104-4.986c-1.856-1.682-4.305-2.703-6.987-2.703c-2.685,0-5.132,1.021-6.987,2.703
	c-1.453,1.316-2.545,3.039-3.104,4.986c-0.27,0.95-0.416,1.951-0.416,2.988c0,1.059,0.151,2.079,0.434,3.041
	C232.559,243.623,233.642,245.324,235.082,246.627z"/>
<path fill="none" stroke="#BE1E2D" stroke-width="3" d="M250.087,231.026c3.015-2.658,5.583,0,5.583,0"/>
<path fill="#EE2A7B" d="M256.52,247.217c1.857,1.684,4.303,2.705,6.988,2.705c2.684,0,5.131-1.021,6.988-2.705
	c1.438-1.303,2.521-3.004,3.084-4.934c0.283-0.961,0.432-1.982,0.432-3.041c0-1.035-0.143-2.037-0.416-2.986
	c-0.555-1.951-1.646-3.672-3.102-4.988c-1.855-1.681-4.303-2.703-6.986-2.703c-2.686,0-5.131,1.022-6.988,2.703
	c-1.452,1.316-2.545,3.037-3.102,4.988c-0.271,0.949-0.416,1.951-0.416,2.986c0,1.059,0.15,2.08,0.432,3.041
	C253.997,244.213,255.08,245.914,256.52,247.217z"/>
<path fill="none" stroke="#FFFFFF" d="M271.318,233.851c3.104,5.601-0.705,14.061-7.098,14.061c-5.112,0-9.258-4.154-9.258-9.279
	c0-4.101,3.314-7.423,7.406-7.423c3.271,0,7.652,2.568,7.652,5.848c0,2.625-1.803,7.964-6.543,7.454
	c-4.166-0.446-6.051-4.023-6.25-6.111c-0.297-3.131,2.977-5.517,5.504-5.069c2.783,0.492,4.594,1.643,4.762,4.324
	c0.146,2.386-1.938,3.936-3.57,4.025c-2.68,0.147-3.309-2.061-3.424-3.43c-0.146-1.789,1.045-2.385,2.084-2.237
	c1.473,0.212,2.172,1.095,2.229,1.642c0.152,1.342-1.178,1.91-1.482,1.342c-0.168-0.311-0.797-0.856-0.797-1.207"/>
<path fill="none" stroke="#BE1E2D" stroke-width="3" d="M256.594,247.39c1.855,1.683,4.302,2.705,6.988,2.705
	c2.684,0,5.131-1.022,6.988-2.705c1.438-1.304,2.52-3.005,3.084-4.934c0.285-0.962,0.432-1.983,0.432-3.041
	c0-1.037-0.145-2.038-0.414-2.987c-0.559-1.949-1.648-3.672-3.102-4.988c-1.857-1.681-4.305-2.703-6.988-2.703
	c-2.687,0-5.133,1.022-6.988,2.703c-1.453,1.316-2.545,3.039-3.103,4.988c-0.271,0.949-0.415,1.95-0.415,2.987
	c0,1.058,0.15,2.079,0.434,3.041C254.072,244.385,255.153,246.086,256.594,247.39z"/>
<path fill="none" stroke="#FFFFFF" d="M234.326,233.408c-3.104,5.601,0.707,14.061,7.099,14.061c5.112,0,9.258-4.154,9.258-9.281
	c0-4.098-3.315-7.42-7.407-7.42c-3.271,0-7.652,2.568-7.652,5.848c0,2.625,1.803,7.963,6.544,7.453
	c4.166-0.445,6.05-4.023,6.249-6.111c0.298-3.131-2.977-5.516-5.504-5.068c-2.783,0.492-4.592,1.641-4.76,4.322
	c-0.148,2.387,1.936,3.936,3.57,4.027c2.677,0.146,3.307-2.061,3.421-3.431c0.149-1.789-1.042-2.384-2.084-2.237
	c-1.47,0.212-2.171,1.096-2.229,1.641c-0.15,1.344,1.18,1.911,1.486,1.344c0.168-0.311,0.796-0.856,0.796-1.207"/>
<path fill="none" stroke="#BE1E2D" stroke-width="3" d="M235.155,246.799c1.856,1.684,4.304,2.705,6.988,2.705
	c2.683,0,5.131-1.021,6.989-2.705c1.438-1.303,2.52-3.004,3.084-4.934c0.283-0.962,0.432-1.982,0.432-3.041
	c0-1.037-0.145-2.039-0.416-2.986c-0.557-1.949-1.648-3.672-3.103-4.988c-1.855-1.682-4.304-2.703-6.986-2.703
	c-2.685,0-5.132,1.021-6.988,2.703c-1.452,1.316-2.544,3.039-3.103,4.988c-0.271,0.947-0.416,1.949-0.416,2.986
	c0,1.059,0.152,2.079,0.434,3.041C232.633,243.795,233.716,245.496,235.155,246.799z"/>
<path fill="#EE2A7B" stroke="#BE1E2D" d="M18.353,319.978c1.856,1.684,4.304,2.705,6.988,2.705c2.683,0,5.131-1.021,6.989-2.705
	c1.438-1.303,2.521-3.004,3.083-4.934c0.285-0.962,0.433-1.982,0.433-3.041c0-1.037-0.145-2.038-0.415-2.988
	c-0.559-1.947-1.648-3.67-3.104-4.986c-1.856-1.682-4.304-2.703-6.987-2.703c-2.684,0-5.132,1.021-6.988,2.703
	c-1.453,1.316-2.545,3.039-3.103,4.986c-0.27,0.95-0.416,1.951-0.416,2.988c0,1.059,0.151,2.079,0.433,3.041
	C15.83,316.974,16.913,318.675,18.353,319.978z"/>
<path fill="none" stroke="#BE1E2D" stroke-width="3" d="M33.358,304.377c3.015-2.658,5.583,0,5.583,0"/>
<path fill="#EE2A7B" d="M39.791,320.567c1.857,1.684,4.303,2.705,6.988,2.705c2.684,0,5.131-1.021,6.988-2.705
	c1.438-1.303,2.521-3.004,3.085-4.934c0.282-0.961,0.432-1.982,0.432-3.041c0-1.035-0.143-2.037-0.416-2.986
	c-0.556-1.951-1.646-3.672-3.103-4.988c-1.855-1.681-4.303-2.703-6.986-2.703c-2.685,0-5.131,1.022-6.988,2.703
	c-1.452,1.316-2.544,3.037-3.102,4.988c-0.271,0.949-0.416,1.951-0.416,2.986c0,1.059,0.15,2.08,0.432,3.041
	C37.269,317.563,38.351,319.265,39.791,320.567z"/>
<path fill="none" stroke="#FFFFFF" d="M54.59,307.201c3.104,5.601-0.706,14.061-7.099,14.061c-5.112,0-9.257-4.154-9.257-9.279
	c0-4.101,3.315-7.423,7.406-7.423c3.271,0,7.652,2.568,7.652,5.848c0,2.625-1.803,7.964-6.543,7.454
	c-4.166-0.446-6.051-4.023-6.25-6.111c-0.297-3.131,2.977-5.517,5.503-5.069c2.783,0.492,4.594,1.643,4.762,4.324
	c0.146,2.386-1.938,3.936-3.57,4.025c-2.679,0.147-3.308-2.061-3.423-3.43c-0.146-1.789,1.044-2.385,2.083-2.237
	c1.473,0.212,2.172,1.095,2.229,1.642c0.151,1.342-1.179,1.91-1.483,1.342c-0.168-0.311-0.797-0.856-0.797-1.207"/>
<path fill="none" stroke="#BE1E2D" stroke-width="3" d="M39.866,320.74c1.855,1.683,4.301,2.705,6.987,2.705
	c2.684,0,5.131-1.022,6.988-2.705c1.438-1.304,2.521-3.005,3.084-4.934c0.285-0.962,0.433-1.983,0.433-3.041
	c0-1.037-0.145-2.038-0.415-2.987c-0.559-1.949-1.648-3.672-3.102-4.988c-1.857-1.681-4.305-2.703-6.988-2.703
	c-2.686,0-5.132,1.022-6.987,2.703c-1.454,1.316-2.545,3.039-3.103,4.988c-0.271,0.949-0.415,1.95-0.415,2.987
	c0,1.058,0.151,2.079,0.433,3.041C37.343,317.735,38.425,319.437,39.866,320.74z"/>
<path fill="none" stroke="#FFFFFF" d="M17.598,306.759c-3.104,5.601,0.707,14.061,7.099,14.061c5.113,0,9.258-4.154,9.258-9.281
	c0-4.098-3.315-7.42-7.408-7.42c-3.271,0-7.652,2.568-7.652,5.848c0,2.625,1.803,7.963,6.544,7.453
	c4.166-0.445,6.05-4.023,6.249-6.111c0.298-3.131-2.976-5.516-5.504-5.068c-2.783,0.492-4.592,1.641-4.759,4.322
	c-0.148,2.387,1.936,3.936,3.57,4.027c2.677,0.146,3.307-2.061,3.421-3.431c0.149-1.789-1.042-2.384-2.084-2.237
	c-1.47,0.212-2.17,1.096-2.229,1.641c-0.15,1.344,1.179,1.911,1.486,1.344c0.168-0.311,0.796-0.856,0.796-1.207"/>
<path fill="none" stroke="#BE1E2D" stroke-width="3" d="M18.427,320.149c1.856,1.684,4.304,2.705,6.988,2.705
	c2.683,0,5.131-1.021,6.989-2.705c1.438-1.303,2.521-3.004,3.084-4.934c0.284-0.962,0.433-1.982,0.433-3.041
	c0-1.037-0.145-2.039-0.417-2.986c-0.557-1.949-1.648-3.672-3.103-4.988c-1.855-1.682-4.303-2.703-6.986-2.703
	c-2.684,0-5.132,1.021-6.988,2.703c-1.452,1.316-2.544,3.039-3.102,4.988c-0.271,0.947-0.417,1.949-0.417,2.986
	c0,1.059,0.152,2.079,0.433,3.041C15.904,317.146,16.987,318.847,18.427,320.149z"/>
<path fill="#EE2A7B" stroke="#BE1E2D" d="M90.619,320.349c1.856,1.377,4.304,2.211,6.988,2.211c2.683,0,5.131-0.834,6.989-2.211
	c1.438-1.066,2.521-2.458,3.083-4.036c0.285-0.787,0.433-1.621,0.433-2.487c0-0.848-0.145-1.666-0.415-2.443
	c-0.559-1.594-1.648-3.002-3.104-4.078c-1.856-1.376-4.304-2.211-6.987-2.211c-2.684,0-5.132,0.835-6.988,2.211
	c-1.453,1.076-2.545,2.484-3.103,4.078c-0.27,0.777-0.416,1.596-0.416,2.443c0,0.866,0.151,1.7,0.433,2.487
	C88.096,317.891,89.179,319.282,90.619,320.349z"/>
<path fill="none" stroke="#BE1E2D" stroke-width="3" d="M105.624,307.589c3.015-2.175,5.583,0,5.583,0"/>
<path fill="#EE2A7B" d="M112.057,320.83c1.857,1.377,4.303,2.212,6.988,2.212c2.684,0,5.131-0.835,6.988-2.212
	c1.438-1.065,2.521-2.457,3.085-4.034c0.282-0.787,0.432-1.622,0.432-2.488c0-0.847-0.143-1.665-0.416-2.441
	c-0.556-1.597-1.646-3.004-3.103-4.079c-1.855-1.377-4.303-2.212-6.986-2.212c-2.685,0-5.131,0.835-6.988,2.212
	c-1.452,1.075-2.544,2.482-3.102,4.079c-0.271,0.776-0.416,1.595-0.416,2.441c0,0.866,0.15,1.701,0.432,2.488
	C109.534,318.373,110.617,319.765,112.057,320.83z"/>
<path fill="none" stroke="#FFFFFF" d="M126.856,309.898c3.104,4.58-0.706,11.5-7.099,11.5c-5.112,0-9.257-3.398-9.257-7.59
	c0-3.354,3.315-6.071,7.406-6.071c3.271,0,7.652,2.102,7.652,4.783c0,2.146-1.803,6.514-6.543,6.096
	c-4.166-0.365-6.051-3.29-6.25-4.998c-0.297-2.561,2.977-4.511,5.503-4.146c2.783,0.402,4.594,1.344,4.762,3.537
	c0.146,1.95-1.938,3.219-3.57,3.292c-2.679,0.12-3.308-1.686-3.423-2.806c-0.146-1.463,1.044-1.95,2.083-1.83
	c1.473,0.174,2.172,0.896,2.229,1.344c0.151,1.098-1.179,1.562-1.483,1.098c-0.168-0.255-0.797-0.701-0.797-0.987"/>
<path fill="none" stroke="#BE1E2D" stroke-width="3" d="M112.131,320.971c1.855,1.377,4.301,2.213,6.987,2.213
	c2.684,0,5.131-0.836,6.988-2.213c1.438-1.065,2.521-2.457,3.084-4.033c0.285-0.788,0.433-1.623,0.433-2.488
	c0-0.849-0.145-1.666-0.415-2.442c-0.559-1.595-1.648-3.004-3.102-4.08c-1.857-1.376-4.305-2.211-6.988-2.211
	c-2.686,0-5.132,0.835-6.987,2.211c-1.454,1.076-2.545,2.485-3.103,4.08c-0.271,0.776-0.415,1.594-0.415,2.442
	c0,0.865,0.151,1.7,0.433,2.488C109.609,318.514,110.69,319.905,112.131,320.971z"/>
<path fill="none" stroke="#FFFFFF" d="M89.863,309.536c-3.104,4.58,0.707,11.501,7.099,11.501c5.113,0,9.258-3.398,9.258-7.592
	c0-3.351-3.315-6.068-7.408-6.068c-3.271,0-7.652,2.101-7.652,4.782c0,2.146,1.803,6.513,6.544,6.096
	c4.166-0.364,6.05-3.291,6.249-4.998c0.298-2.561-2.976-4.511-5.504-4.145c-2.783,0.401-4.592,1.342-4.759,3.534
	c-0.148,1.952,1.936,3.219,3.57,3.294c2.677,0.119,3.307-1.686,3.421-2.806c0.149-1.463-1.042-1.95-2.084-1.831
	c-1.47,0.175-2.17,0.897-2.229,1.343c-0.15,1.1,1.179,1.563,1.486,1.1c0.168-0.254,0.796-0.701,0.796-0.987"/>
<path fill="none" stroke="#BE1E2D" stroke-width="3" d="M90.692,320.488c1.856,1.377,4.304,2.212,6.988,2.212
	c2.683,0,5.131-0.835,6.989-2.212c1.438-1.065,2.521-2.457,3.084-4.035c0.284-0.787,0.433-1.621,0.433-2.487
	c0-0.848-0.145-1.667-0.417-2.441c-0.557-1.596-1.648-3.004-3.103-4.08c-1.855-1.376-4.303-2.211-6.986-2.211
	c-2.684,0-5.132,0.835-6.988,2.211c-1.452,1.076-2.544,2.484-3.102,4.08c-0.271,0.774-0.417,1.594-0.417,2.441
	c0,0.866,0.152,1.7,0.433,2.487C88.169,318.031,89.253,319.423,90.692,320.488z"/>
<path fill="#EE2A7B" stroke="#BE1E2D" d="M162.248,331.156c1.856,1.146,4.305,1.839,6.988,1.839c2.683,0,5.131-0.693,6.988-1.839
	c1.438-0.887,2.521-2.044,3.084-3.355c0.285-0.654,0.433-1.348,0.433-2.068c0-0.705-0.145-1.385-0.415-2.031
	c-0.559-1.325-1.648-2.496-3.104-3.392c-1.855-1.144-4.304-1.838-6.986-1.838c-2.684,0-5.132,0.694-6.988,1.838
	c-1.453,0.896-2.545,2.066-3.103,3.392c-0.271,0.646-0.415,1.326-0.415,2.031c0,0.721,0.15,1.414,0.432,2.068
	C159.726,329.112,160.809,330.27,162.248,331.156z"/>
<path fill="none" stroke="#BE1E2D" stroke-width="3" d="M177.254,320.547c3.015-1.808,5.582,0,5.582,0"/>
<path fill="#EE2A7B" d="M183.687,331.557c1.856,1.146,4.304,1.839,6.988,1.839c2.684,0,5.131-0.693,6.988-1.839
	c1.438-0.886,2.521-2.043,3.084-3.354c0.283-0.654,0.432-1.349,0.432-2.068c0-0.704-0.143-1.385-0.416-2.03
	c-0.555-1.327-1.646-2.498-3.102-3.392c-1.855-1.145-4.303-1.839-6.986-1.839c-2.685,0-5.132,0.694-6.988,1.839
	c-1.452,0.894-2.544,2.064-3.103,3.392c-0.271,0.646-0.415,1.326-0.415,2.03c0,0.72,0.15,1.414,0.433,2.068
	C181.164,329.514,182.246,330.671,183.687,331.557z"/>
<path fill="none" stroke="#FFFFFF" d="M198.485,322.468c3.104,3.808-0.705,9.562-7.098,9.562c-5.112,0-9.258-2.825-9.258-6.311
	c0-2.788,3.315-5.048,7.406-5.048c3.271,0,7.652,1.747,7.652,3.977c0,1.785-1.803,5.416-6.543,5.068
	c-4.167-0.304-6.052-2.735-6.25-4.155c-0.298-2.129,2.977-3.751,5.504-3.447c2.783,0.335,4.594,1.117,4.762,2.941
	c0.146,1.621-1.938,2.676-3.57,2.737c-2.68,0.1-3.309-1.401-3.424-2.333c-0.146-1.217,1.045-1.622,2.084-1.521
	c1.473,0.145,2.172,0.744,2.229,1.117c0.152,0.912-1.178,1.298-1.482,0.912c-0.168-0.212-0.797-0.583-0.797-0.82"/>
<path fill="none" stroke="#BE1E2D" stroke-width="3" d="M183.762,331.674c1.854,1.145,4.301,1.84,6.987,1.84
	c2.684,0,5.131-0.695,6.988-1.84c1.438-0.886,2.52-2.043,3.084-3.354c0.285-0.655,0.432-1.35,0.432-2.069
	c0-0.705-0.145-1.385-0.414-2.03c-0.559-1.326-1.648-2.498-3.102-3.393c-1.857-1.145-4.305-1.839-6.988-1.839
	c-2.687,0-5.133,0.694-6.987,1.839c-1.454,0.895-2.545,2.066-3.104,3.393c-0.271,0.646-0.415,1.325-0.415,2.03
	c0,0.72,0.151,1.414,0.433,2.069C181.238,329.631,182.32,330.788,183.762,331.674z"/>
<path fill="none" stroke="#FFFFFF" d="M161.493,322.166c-3.104,3.809,0.706,9.563,7.099,9.563c5.113,0,9.258-2.825,9.258-6.312
	c0-2.786-3.315-5.046-7.408-5.046c-3.27,0-7.651,1.746-7.651,3.977c0,1.784,1.803,5.415,6.544,5.068
	c4.166-0.304,6.051-2.736,6.249-4.156c0.298-2.129-2.976-3.75-5.505-3.446c-2.782,0.334-4.592,1.116-4.759,2.938
	c-0.147,1.624,1.936,2.677,3.57,2.739c2.677,0.099,3.307-1.401,3.421-2.333c0.148-1.216-1.043-1.621-2.084-1.522
	c-1.471,0.146-2.17,0.746-2.229,1.116c-0.15,0.915,1.178,1.301,1.485,0.915c0.168-0.212,0.796-0.583,0.796-0.821"/>
<path fill="none" stroke="#BE1E2D" stroke-width="3" d="M162.322,331.272c1.856,1.146,4.305,1.839,6.988,1.839
	s5.131-0.693,6.988-1.839c1.438-0.886,2.521-2.043,3.084-3.354c0.284-0.655,0.434-1.349,0.434-2.068c0-0.705-0.146-1.387-0.417-2.03
	c-0.557-1.327-1.647-2.498-3.103-3.393c-1.855-1.144-4.303-1.838-6.986-1.838s-5.132,0.694-6.988,1.838
	c-1.452,0.895-2.545,2.065-3.102,3.393c-0.271,0.644-0.417,1.325-0.417,2.03c0,0.72,0.151,1.413,0.433,2.068
	C159.799,329.229,160.883,330.387,162.322,331.272z"/>
<path fill="#EE2A7B" stroke="#BE1E2D" d="M233.549,332.296c1.855,1.044,4.303,1.677,6.987,1.677c2.683,0,5.131-0.633,6.989-1.677
	c1.438-0.81,2.521-1.865,3.082-3.062c0.285-0.598,0.434-1.23,0.434-1.888c0-0.643-0.145-1.264-0.414-1.854
	c-0.56-1.209-1.648-2.277-3.104-3.094c-1.856-1.043-4.305-1.677-6.987-1.677c-2.685,0-5.132,0.634-6.987,1.677
	c-1.453,0.816-2.545,1.885-3.104,3.094c-0.27,0.59-0.416,1.211-0.416,1.854c0,0.657,0.151,1.29,0.434,1.888
	C231.025,330.431,232.108,331.486,233.549,332.296z"/>
<path fill="none" stroke="#BE1E2D" stroke-width="3" d="M248.554,322.616c3.015-1.649,5.583,0,5.583,0"/>
<path fill="#EE2A7B" d="M254.986,332.661c1.857,1.044,4.303,1.678,6.988,1.678c2.684,0,5.131-0.634,6.988-1.678
	c1.438-0.809,2.521-1.864,3.084-3.061c0.283-0.597,0.432-1.23,0.432-1.888c0-0.643-0.143-1.263-0.416-1.852
	c-0.555-1.212-1.646-2.279-3.102-3.095c-1.855-1.045-4.303-1.678-6.986-1.678c-2.686,0-5.131,0.633-6.988,1.678
	c-1.452,0.815-2.545,1.883-3.102,3.095c-0.271,0.589-0.416,1.209-0.416,1.852c0,0.657,0.15,1.291,0.432,1.888
	C252.464,330.797,253.547,331.853,254.986,332.661z"/>
<path fill="none" stroke="#FFFFFF" d="M269.785,324.368c3.104,3.475-0.705,8.724-7.098,8.724c-5.112,0-9.258-2.578-9.258-5.758
	c0-2.544,3.314-4.605,7.406-4.605c3.271,0,7.652,1.595,7.652,3.629c0,1.628-1.803,4.941-6.543,4.624
	c-4.166-0.277-6.051-2.496-6.25-3.791c-0.297-1.942,2.977-3.422,5.504-3.146c2.783,0.306,4.594,1.02,4.762,2.684
	c0.146,1.479-1.938,2.441-3.57,2.497c-2.68,0.091-3.309-1.278-3.424-2.128c-0.146-1.11,1.045-1.479,2.084-1.389
	c1.473,0.132,2.172,0.68,2.229,1.02c0.152,0.833-1.178,1.185-1.482,0.833c-0.168-0.193-0.797-0.532-0.797-0.749"/>
<path fill="none" stroke="#BE1E2D" stroke-width="3" d="M255.061,332.768c1.855,1.045,4.302,1.679,6.988,1.679
	c2.684,0,5.131-0.634,6.988-1.679c1.438-0.809,2.52-1.864,3.084-3.06c0.285-0.598,0.432-1.231,0.432-1.888
	c0-0.644-0.145-1.264-0.414-1.853c-0.559-1.21-1.648-2.279-3.102-3.096c-1.857-1.043-4.305-1.677-6.988-1.677
	c-2.687,0-5.133,0.634-6.988,1.677c-1.453,0.816-2.545,1.886-3.103,3.096c-0.271,0.589-0.415,1.209-0.415,1.853
	c0,0.656,0.15,1.29,0.434,1.888C252.539,330.903,253.62,331.959,255.061,332.768z"/>
<path fill="none" stroke="#FFFFFF" d="M232.793,324.094c-3.104,3.474,0.707,8.725,7.099,8.725c5.112,0,9.258-2.578,9.258-5.76
	c0-2.541-3.315-4.604-7.407-4.604c-3.271,0-7.652,1.594-7.652,3.628c0,1.629,1.803,4.94,6.544,4.624
	c4.166-0.276,6.05-2.496,6.249-3.791c0.298-1.942-2.977-3.422-5.504-3.145c-2.783,0.305-4.592,1.019-4.76,2.682
	c-0.148,1.48,1.936,2.441,3.57,2.498c2.677,0.091,3.307-1.278,3.421-2.128c0.149-1.109-1.042-1.479-2.084-1.389
	c-1.47,0.132-2.171,0.681-2.229,1.019c-0.15,0.834,1.18,1.186,1.486,0.834c0.168-0.192,0.796-0.532,0.796-0.749"/>
<path fill="none" stroke="#BE1E2D" stroke-width="3" d="M233.622,332.401c1.856,1.045,4.304,1.679,6.988,1.679
	c2.683,0,5.131-0.634,6.989-1.679c1.438-0.808,2.52-1.863,3.084-3.061c0.283-0.598,0.432-1.23,0.432-1.887
	c0-0.644-0.145-1.265-0.416-1.853c-0.557-1.21-1.648-2.278-3.103-3.095c-1.855-1.044-4.304-1.678-6.986-1.678
	c-2.685,0-5.132,0.634-6.988,1.678c-1.452,0.816-2.544,1.885-3.103,3.095c-0.271,0.588-0.416,1.209-0.416,1.853
	c0,0.656,0.152,1.289,0.434,1.887C231.1,330.538,232.183,331.594,233.622,332.401z"/>
<path fill="#EE2A7B" stroke="#BE1E2D" d="M18.166,408.29c1.855,0.923,4.303,1.482,6.987,1.482c2.683,0,5.131-0.56,6.989-1.482
	c1.438-0.716,2.521-1.649,3.082-2.707c0.285-0.528,0.434-1.088,0.434-1.669c0-0.568-0.145-1.117-0.414-1.64
	c-0.56-1.068-1.648-2.014-3.104-2.735c-1.856-0.922-4.305-1.482-6.987-1.482c-2.685,0-5.132,0.561-6.987,1.482
	c-1.453,0.722-2.545,1.667-3.104,2.735c-0.27,0.522-0.416,1.071-0.416,1.64c0,0.581,0.151,1.141,0.434,1.669
	C15.643,406.641,16.726,407.574,18.166,408.29z"/>
<path fill="none" stroke="#BE1E2D" stroke-width="3" d="M33.171,399.73c3.015-1.458,5.583,0,5.583,0"/>
<path fill="#EE2A7B" d="M39.604,408.613c1.857,0.923,4.303,1.483,6.988,1.483c2.684,0,5.131-0.561,6.988-1.483
	c1.438-0.715,2.521-1.648,3.084-2.707c0.283-0.527,0.432-1.088,0.432-1.669c0-0.568-0.143-1.116-0.416-1.637
	c-0.555-1.072-1.646-2.016-3.102-2.736c-1.855-0.924-4.303-1.483-6.986-1.483c-2.686,0-5.131,0.56-6.988,1.483
	c-1.452,0.721-2.545,1.664-3.102,2.736c-0.271,0.521-0.416,1.068-0.416,1.637c0,0.581,0.15,1.142,0.432,1.669
	C37.081,406.965,38.164,407.898,39.604,408.613z"/>
<path fill="none" stroke="#FFFFFF" d="M54.402,401.28c3.104,3.072-0.705,7.714-7.098,7.714c-5.112,0-9.258-2.28-9.258-5.092
	c0-2.249,3.314-4.072,7.406-4.072c3.271,0,7.652,1.41,7.652,3.209c0,1.439-1.803,4.369-6.543,4.089
	c-4.166-0.245-6.051-2.207-6.25-3.353c-0.297-1.717,2.977-3.025,5.504-2.781c2.783,0.271,4.594,0.901,4.762,2.373
	c0.146,1.309-1.938,2.159-3.57,2.208c-2.68,0.08-3.309-1.13-3.424-1.882c-0.146-0.981,1.045-1.308,2.084-1.228
	c1.473,0.116,2.172,0.601,2.229,0.901c0.152,0.736-1.178,1.048-1.482,0.736c-0.168-0.171-0.797-0.471-0.797-0.662"/>
<path fill="none" stroke="#BE1E2D" stroke-width="3" d="M39.678,408.707c1.855,0.924,4.302,1.484,6.988,1.484
	c2.684,0,5.131-0.561,6.988-1.484c1.438-0.715,2.52-1.648,3.084-2.705c0.285-0.528,0.432-1.089,0.432-1.669
	c0-0.569-0.145-1.118-0.414-1.639c-0.559-1.069-1.648-2.016-3.102-2.737c-1.857-0.922-4.305-1.482-6.988-1.482
	c-2.687,0-5.133,0.561-6.988,1.482c-1.453,0.722-2.545,1.668-3.103,2.737c-0.271,0.521-0.415,1.069-0.415,1.639
	c0,0.58,0.15,1.141,0.434,1.669C37.156,407.059,38.237,407.992,39.678,408.707z"/>
<path fill="none" stroke="#FFFFFF" d="M17.41,401.037c-3.104,3.072,0.707,7.715,7.099,7.715c5.112,0,9.258-2.279,9.258-5.093
	c0-2.247-3.315-4.07-7.407-4.07c-3.271,0-7.652,1.409-7.652,3.208c0,1.439,1.803,4.368,6.544,4.088
	c4.166-0.244,6.05-2.207,6.249-3.352c0.298-1.718-2.977-3.026-5.504-2.78c-2.783,0.269-4.592,0.9-4.76,2.371
	c-0.148,1.309,1.936,2.158,3.57,2.208c2.677,0.081,3.307-1.13,3.421-1.881c0.149-0.981-1.042-1.309-2.084-1.229
	c-1.47,0.117-2.171,0.603-2.229,0.901c-0.15,0.737,1.18,1.048,1.486,0.737c0.168-0.17,0.796-0.471,0.796-0.662"/>
<path fill="none" stroke="#BE1E2D" stroke-width="3" d="M18.239,408.383c1.856,0.925,4.304,1.484,6.988,1.484
	c2.683,0,5.131-0.56,6.989-1.484c1.438-0.714,2.52-1.647,3.084-2.706c0.283-0.528,0.432-1.088,0.432-1.668
	c0-0.569-0.145-1.118-0.416-1.638c-0.557-1.07-1.648-2.015-3.103-2.737c-1.855-0.923-4.304-1.483-6.986-1.483
	c-2.685,0-5.132,0.561-6.988,1.483c-1.452,0.723-2.544,1.667-3.103,2.737c-0.271,0.52-0.416,1.068-0.416,1.638
	c0,0.58,0.152,1.14,0.434,1.668C15.717,406.735,16.8,407.669,18.239,408.383z"/>
<path fill="#EE2A7B" stroke="#BE1E2D" d="M89.434,413.531c1.855,0.923,4.303,1.482,6.987,1.482c2.683,0,5.131-0.56,6.989-1.482
	c1.438-0.716,2.521-1.649,3.082-2.707c0.285-0.528,0.434-1.088,0.434-1.669c0-0.568-0.145-1.117-0.414-1.64
	c-0.56-1.068-1.648-2.014-3.104-2.735c-1.856-0.922-4.305-1.482-6.987-1.482c-2.685,0-5.132,0.561-6.987,1.482
	c-1.453,0.722-2.545,1.667-3.104,2.735c-0.27,0.522-0.416,1.071-0.416,1.64c0,0.581,0.151,1.141,0.434,1.669
	C86.91,411.882,87.993,412.815,89.434,413.531z"/>
<path fill="none" stroke="#BE1E2D" stroke-width="3" d="M104.438,404.972c3.015-1.458,5.583,0,5.583,0"/>
<path fill="#EE2A7B" d="M110.871,413.854c1.857,0.923,4.303,1.483,6.988,1.483c2.684,0,5.131-0.561,6.988-1.483
	c1.438-0.715,2.521-1.648,3.084-2.707c0.283-0.527,0.432-1.088,0.432-1.669c0-0.568-0.143-1.116-0.416-1.637
	c-0.555-1.072-1.646-2.016-3.102-2.736c-1.855-0.924-4.303-1.483-6.986-1.483c-2.686,0-5.131,0.56-6.988,1.483
	c-1.452,0.721-2.545,1.664-3.102,2.736c-0.271,0.521-0.416,1.068-0.416,1.637c0,0.581,0.15,1.142,0.432,1.669
	C108.349,412.206,109.432,413.14,110.871,413.854z"/>
<path fill="none" stroke="#FFFFFF" d="M125.67,406.521c3.104,3.072-0.705,7.714-7.098,7.714c-5.112,0-9.258-2.28-9.258-5.092
	c0-2.249,3.314-4.072,7.406-4.072c3.271,0,7.652,1.41,7.652,3.209c0,1.439-1.803,4.369-6.543,4.089
	c-4.166-0.245-6.051-2.207-6.25-3.353c-0.297-1.717,2.977-3.025,5.504-2.781c2.783,0.271,4.594,0.901,4.762,2.373
	c0.146,1.309-1.938,2.159-3.57,2.208c-2.68,0.08-3.309-1.13-3.424-1.882c-0.146-0.981,1.045-1.308,2.084-1.228
	c1.473,0.116,2.172,0.601,2.229,0.901c0.152,0.736-1.178,1.048-1.482,0.736c-0.168-0.171-0.797-0.471-0.797-0.662"/>
<path fill="none" stroke="#BE1E2D" stroke-width="3" d="M110.945,413.948c1.855,0.924,4.302,1.484,6.988,1.484
	c2.684,0,5.131-0.561,6.988-1.484c1.438-0.715,2.52-1.648,3.084-2.705c0.285-0.528,0.432-1.089,0.432-1.669
	c0-0.569-0.145-1.118-0.414-1.639c-0.559-1.069-1.648-2.016-3.102-2.737c-1.857-0.922-4.305-1.482-6.988-1.482
	c-2.687,0-5.133,0.561-6.988,1.482c-1.453,0.722-2.545,1.668-3.103,2.737c-0.271,0.521-0.415,1.069-0.415,1.639
	c0,0.58,0.15,1.141,0.434,1.669C108.424,412.3,109.505,413.233,110.945,413.948z"/>
<path fill="none" stroke="#FFFFFF" d="M88.678,406.278c-3.104,3.072,0.707,7.715,7.099,7.715c5.112,0,9.258-2.279,9.258-5.093
	c0-2.247-3.315-4.07-7.407-4.07c-3.271,0-7.652,1.409-7.652,3.208c0,1.439,1.803,4.368,6.544,4.088
	c4.166-0.244,6.05-2.207,6.249-3.352c0.298-1.718-2.977-3.026-5.504-2.78c-2.783,0.269-4.592,0.9-4.76,2.371
	c-0.148,1.309,1.936,2.158,3.57,2.208c2.677,0.081,3.307-1.13,3.421-1.881c0.149-0.981-1.042-1.309-2.084-1.229
	c-1.47,0.117-2.171,0.603-2.229,0.901c-0.15,0.737,1.18,1.048,1.486,0.737c0.168-0.17,0.796-0.471,0.796-0.662"/>
<path fill="none" stroke="#BE1E2D" stroke-width="3" d="M89.507,413.624c1.856,0.925,4.304,1.484,6.988,1.484
	c2.683,0,5.131-0.56,6.989-1.484c1.438-0.714,2.52-1.647,3.084-2.706c0.283-0.528,0.432-1.088,0.432-1.668
	c0-0.569-0.145-1.118-0.416-1.638c-0.557-1.07-1.648-2.015-3.103-2.737c-1.855-0.923-4.304-1.483-6.986-1.483
	c-2.685,0-5.132,0.561-6.988,1.483c-1.452,0.723-2.544,1.667-3.103,2.737c-0.271,0.52-0.416,1.068-0.416,1.638
	c0,0.58,0.152,1.14,0.434,1.668C86.984,411.977,88.067,412.91,89.507,413.624z"/>
<path fill="#EE2A7B" stroke="#BE1E2D" d="M162.354,424.265c1.855,0.923,4.303,1.482,6.987,1.482c2.683,0,5.131-0.56,6.989-1.482
	c1.438-0.716,2.521-1.649,3.082-2.707c0.285-0.528,0.434-1.088,0.434-1.669c0-0.568-0.145-1.117-0.414-1.64
	c-0.56-1.068-1.648-2.014-3.104-2.735c-1.856-0.922-4.305-1.482-6.987-1.482c-2.685,0-5.132,0.561-6.987,1.482
	c-1.453,0.722-2.545,1.667-3.104,2.735c-0.27,0.522-0.416,1.071-0.416,1.64c0,0.581,0.151,1.141,0.434,1.669
	C159.83,422.615,160.913,423.549,162.354,424.265z"/>
<path fill="none" stroke="#BE1E2D" stroke-width="3" d="M177.358,415.705c3.015-1.458,5.583,0,5.583,0"/>
<path fill="#EE2A7B" d="M183.791,424.588c1.857,0.923,4.303,1.483,6.988,1.483c2.684,0,5.131-0.561,6.988-1.483
	c1.438-0.715,2.521-1.648,3.084-2.707c0.283-0.527,0.432-1.088,0.432-1.669c0-0.568-0.143-1.116-0.416-1.637
	c-0.555-1.072-1.646-2.016-3.102-2.736c-1.855-0.924-4.303-1.483-6.986-1.483c-2.686,0-5.131,0.56-6.988,1.483
	c-1.452,0.721-2.545,1.664-3.102,2.736c-0.271,0.521-0.416,1.068-0.416,1.637c0,0.581,0.15,1.142,0.432,1.669
	C181.269,422.939,182.352,423.873,183.791,424.588z"/>
<path fill="none" stroke="#FFFFFF" d="M198.59,417.255c3.104,3.072-0.705,7.714-7.098,7.714c-5.112,0-9.258-2.28-9.258-5.092
	c0-2.249,3.314-4.072,7.406-4.072c3.271,0,7.652,1.41,7.652,3.209c0,1.439-1.803,4.369-6.543,4.089
	c-4.166-0.245-6.051-2.207-6.25-3.353c-0.297-1.717,2.977-3.025,5.504-2.781c2.783,0.271,4.594,0.901,4.762,2.373
	c0.146,1.309-1.938,2.159-3.57,2.208c-2.68,0.08-3.309-1.13-3.424-1.882c-0.146-0.981,1.045-1.308,2.084-1.228
	c1.473,0.116,2.172,0.601,2.229,0.901c0.152,0.736-1.178,1.048-1.482,0.736c-0.168-0.171-0.797-0.471-0.797-0.662"/>
<path fill="none" stroke="#BE1E2D" stroke-width="3" d="M183.865,424.682c1.855,0.924,4.302,1.484,6.988,1.484
	c2.684,0,5.131-0.561,6.988-1.484c1.438-0.715,2.52-1.648,3.084-2.705c0.285-0.528,0.432-1.089,0.432-1.669
	c0-0.569-0.145-1.118-0.414-1.639c-0.559-1.069-1.648-2.016-3.102-2.737c-1.857-0.922-4.305-1.482-6.988-1.482
	c-2.687,0-5.133,0.561-6.988,1.482c-1.453,0.722-2.545,1.668-3.103,2.737c-0.271,0.521-0.415,1.069-0.415,1.639
	c0,0.58,0.15,1.141,0.434,1.669C181.344,423.033,182.425,423.967,183.865,424.682z"/>
<path fill="none" stroke="#FFFFFF" d="M161.598,417.012c-3.104,3.072,0.707,7.715,7.099,7.715c5.112,0,9.258-2.279,9.258-5.093
	c0-2.247-3.315-4.07-7.407-4.07c-3.271,0-7.652,1.409-7.652,3.208c0,1.439,1.803,4.368,6.544,4.088
	c4.166-0.244,6.05-2.207,6.249-3.352c0.298-1.718-2.977-3.026-5.504-2.78c-2.783,0.269-4.592,0.9-4.76,2.371
	c-0.148,1.309,1.936,2.158,3.57,2.208c2.677,0.081,3.307-1.13,3.421-1.881c0.149-0.981-1.042-1.309-2.084-1.229
	c-1.47,0.117-2.171,0.603-2.229,0.901c-0.15,0.737,1.18,1.048,1.486,0.737c0.168-0.17,0.796-0.471,0.796-0.662"/>
<path fill="none" stroke="#BE1E2D" stroke-width="3" d="M162.427,424.357c1.856,0.925,4.304,1.484,6.988,1.484
	c2.683,0,5.131-0.56,6.989-1.484c1.438-0.714,2.52-1.647,3.084-2.706c0.283-0.528,0.432-1.088,0.432-1.668
	c0-0.569-0.145-1.118-0.416-1.638c-0.557-1.07-1.648-2.015-3.103-2.737c-1.855-0.923-4.304-1.483-6.986-1.483
	c-2.685,0-5.132,0.561-6.988,1.483c-1.452,0.723-2.544,1.667-3.103,2.737c-0.271,0.52-0.416,1.068-0.416,1.638
	c0,0.58,0.152,1.14,0.434,1.668C159.904,422.71,160.987,423.644,162.427,424.357z"/>
</svg>
