<?xml version="1.0" encoding="utf-8"?>
<!-- Generator: Adobe Illustrator 15.0.0, SVG Export Plug-In  -->
<!DOCTYPE svg PUBLIC "-//W3C//DTD SVG 1.1//EN" "http://www.w3.org/Graphics/SVG/1.1/DTD/svg11.dtd" [
	<!ENTITY ns_flows "http://ns.adobe.com/Flows/1.0/">
]>
<svg version="1.1"
	 xmlns="http://www.w3.org/2000/svg" xmlns:xlink="http://www.w3.org/1999/xlink" xmlns:a="http://ns.adobe.com/AdobeSVGViewerExtensions/3.0/"
	 x="0px" y="0px" width="288px" height="432px" viewBox="0 0 288 432" enable-background="new 0 0 288 432" xml:space="preserve">
<defs>
</defs>
<path fill="none" stroke="#010101" stroke-width="2" d="M30.875,12.774c2.361-0.874,1.91-1.175,5.5-1.25c3-0.063,5.5,1.5,5.5,1.5"/>
<linearGradient id="SVGID_1_" gradientUnits="userSpaceOnUse" x1="-520.9048" y1="-149.3237" x2="-521.1062" y2="-177.6651" gradientTransform="matrix(-1 0 0 -1 -472.2969 -139.8799)">
	<stop  offset="0.3273" style="stop-color:#010101"/>
	<stop  offset="0.6751" style="stop-color:#2F3030"/>
	<stop  offset="1" style="stop-color:#434244"/>
</linearGradient>
<path fill="url(#SVGID_1_)" d="M59.089,13.55c5.369,8.26-1.744,29.346-13.939,22.559c-4.792-2.596-8.135-7.619-8.629-13.349
	c-0.397-4.594,2.202-10.962,7.976-12.205C50.155,9.339,54.037,10.043,59.089,13.55"/>
<linearGradient id="SVGID_2_" gradientUnits="userSpaceOnUse" x1="373.3906" y1="-149.4639" x2="373.1921" y2="-177.4103" gradientTransform="matrix(1 0 0 -1 -348.9805 -139.8799)">
	<stop  offset="0.3273" style="stop-color:#010101"/>
	<stop  offset="0.6751" style="stop-color:#2F3030"/>
	<stop  offset="1" style="stop-color:#434244"/>
</linearGradient>
<path fill="url(#SVGID_2_)" d="M14.082,13.627c-5.332,8.146,1.731,28.944,13.844,22.25c4.76-2.56,8.199-6.979,8.437-13.192
	c0.174-4.545-2.596-11.026-7.788-12.011C22.951,9.492,19.1,10.167,14.082,13.627"/>
<linearGradient id="SVGID_3_" gradientUnits="userSpaceOnUse" x1="257.7305" y1="-201.1187" x2="257.0373" y2="-233.6989" gradientTransform="matrix(1.1098 -0.1896 -0.1666 -0.9749 -299.953 -139.5603)">
	<stop  offset="0.2909" style="stop-color:#3C2A29"/>
	<stop  offset="0.403" style="stop-color:#402E2E"/>
	<stop  offset="0.5668" style="stop-color:#483C3A"/>
	<stop  offset="0.7616" style="stop-color:#555050"/>
	<stop  offset="0.8424" style="stop-color:#5A5A5D"/>
</linearGradient>
<path fill="url(#SVGID_3_)" d="M21.406,10.457c-0.728,1.713-2.445,2.687-2.646,4.484c-0.445,2.373,1.042,5.116,1.919,7.262
	c0.875,2.144,1.945,4.434,0.258,6.486c-1.387,1.825-3.998,2.188-5.024,4.129c2.555,2.034,4.157,5.272,6.614,3.188
	c2.471-2.095,3.366-5.166,3.83-8.42c0.511-3.969-1.298-5.601-2.738-9.062c-2.005-4.776,1.52-5.024,3.722-8.047
	C25.183,9.786,23.61,10.436,21.406,10.457"/>
<linearGradient id="SVGID_4_" gradientUnits="userSpaceOnUse" x1="293.5078" y1="-221.3311" x2="292.8147" y2="-253.9107" gradientTransform="matrix(1.0648 -0.1819 -0.1627 -0.9525 -304.5335 -149.8234)">
	<stop  offset="0.2909" style="stop-color:#3C2A29"/>
	<stop  offset="0.403" style="stop-color:#402E2E"/>
	<stop  offset="0.5668" style="stop-color:#483C3A"/>
	<stop  offset="0.7616" style="stop-color:#555050"/>
	<stop  offset="0.8424" style="stop-color:#5A5A5D"/>
</linearGradient>
<path fill="url(#SVGID_4_)" d="M45.764,10.355c-0.693,1.67-2.339,2.616-2.527,4.371c-0.42,2.315,1.016,4.999,1.864,7.097
	c0.846,2.096,1.88,4.335,0.266,6.334c-1.326,1.778-3.832,2.125-4.812,4.018c2.458,1.994,4.006,5.161,6.359,3.133
	c2.365-2.039,3.216-5.034,3.651-8.211c0.479-3.875-1.262-5.473-2.655-8.858c-1.939-4.669,1.444-4.901,3.549-7.847
	C49.389,9.711,47.88,10.34,45.764,10.355"/>
<path fill="none" stroke="#010101" stroke-width="2" d="M247.18,226.446c2.361-0.873,1.91-1.176,5.5-1.25c3-0.063,5.5,1.5,5.5,1.5"
	/>
<linearGradient id="SVGID_5_" gradientUnits="userSpaceOnUse" x1="-737.2104" y1="-362.9971" x2="-737.4117" y2="-391.339" gradientTransform="matrix(-1 0 0 -1 -472.2969 -139.8799)">
	<stop  offset="0.3273" style="stop-color:#010101"/>
	<stop  offset="0.6751" style="stop-color:#2F3030"/>
	<stop  offset="1" style="stop-color:#434244"/>
</linearGradient>
<path fill="url(#SVGID_5_)" d="M275.395,227.224c5.369,8.26-1.744,29.346-13.938,22.559c-4.793-2.596-8.137-7.617-8.629-13.35
	c-0.396-4.595,2.201-10.962,7.979-12.203C266.459,223.012,270.342,223.715,275.395,227.224"/>
<linearGradient id="SVGID_6_" gradientUnits="userSpaceOnUse" x1="589.6963" y1="-363.1353" x2="589.4977" y2="-391.0817" gradientTransform="matrix(1 0 0 -1 -348.9805 -139.8799)">
	<stop  offset="0.3273" style="stop-color:#010101"/>
	<stop  offset="0.6751" style="stop-color:#2F3030"/>
	<stop  offset="1" style="stop-color:#434244"/>
</linearGradient>
<path fill="url(#SVGID_6_)" d="M230.387,227.299c-5.332,8.146,1.731,28.945,13.844,22.25c4.763-2.562,8.199-6.979,8.438-13.19
	c0.174-4.547-2.596-11.025-7.788-12.013C239.256,223.165,235.404,223.84,230.387,227.299"/>
<linearGradient id="SVGID_7_" gradientUnits="userSpaceOnUse" x1="415.1406" y1="-450.8989" x2="414.4474" y2="-483.4778" gradientTransform="matrix(1.1098 -0.1896 -0.1666 -0.9749 -299.953 -139.5603)">
	<stop  offset="0.2909" style="stop-color:#3C2A29"/>
	<stop  offset="0.403" style="stop-color:#402E2E"/>
	<stop  offset="0.5668" style="stop-color:#483C3A"/>
	<stop  offset="0.7616" style="stop-color:#555050"/>
	<stop  offset="0.8424" style="stop-color:#5A5A5D"/>
</linearGradient>
<path fill="url(#SVGID_7_)" d="M237.711,224.129c-0.729,1.713-2.445,2.688-2.646,4.483c-0.442,2.373,1.043,5.117,1.92,7.263
	c0.875,2.146,1.945,4.435,0.261,6.485c-1.39,1.824-3.998,2.188-5.022,4.129c2.555,2.035,4.155,5.271,6.612,3.188
	c2.474-2.096,3.365-5.166,3.83-8.422c0.51-3.969-1.301-5.602-2.738-9.063c-2.006-4.775,1.521-5.023,3.724-8.049
	C241.488,223.458,239.914,224.108,237.711,224.129"/>
<linearGradient id="SVGID_8_" gradientUnits="userSpaceOnUse" x1="457.585" y1="-476.9961" x2="456.892" y2="-509.5734" gradientTransform="matrix(1.0648 -0.1819 -0.1627 -0.9525 -304.5335 -149.8234)">
	<stop  offset="0.2909" style="stop-color:#3C2A29"/>
	<stop  offset="0.403" style="stop-color:#402E2E"/>
	<stop  offset="0.5668" style="stop-color:#483C3A"/>
	<stop  offset="0.7616" style="stop-color:#555050"/>
	<stop  offset="0.8424" style="stop-color:#5A5A5D"/>
</linearGradient>
<path fill="url(#SVGID_8_)" d="M262.068,224.028c-0.693,1.67-2.338,2.615-2.526,4.371c-0.42,2.313,1.017,4.998,1.864,7.096
	c0.846,2.098,1.88,4.336,0.266,6.334c-1.326,1.779-3.831,2.125-4.811,4.018c2.457,1.994,4.006,5.162,6.359,3.135
	c2.361-2.039,3.215-5.035,3.647-8.213c0.479-3.873-1.265-5.473-2.654-8.854c-1.938-4.668,1.444-4.9,3.552-7.849
	C265.693,223.383,264.186,224.012,262.068,224.028"/>
<path fill="none" stroke="#010101" stroke-width="2" d="M29.334,102.197c2.361-0.874,1.91-1.176,5.5-1.25c3-0.063,5.5,1.5,5.5,1.5"
	/>
<linearGradient id="SVGID_9_" gradientUnits="userSpaceOnUse" x1="-519.3643" y1="-238.7476" x2="-519.5657" y2="-267.089" gradientTransform="matrix(-1 0 0 -1 -472.2969 -139.8799)">
	<stop  offset="0.3273" style="stop-color:#010101"/>
	<stop  offset="0.6751" style="stop-color:#2F3030"/>
	<stop  offset="1" style="stop-color:#434244"/>
</linearGradient>
<path fill="url(#SVGID_9_)" d="M57.549,102.975c5.368,8.26-1.744,29.346-13.939,22.559c-4.793-2.596-8.135-7.619-8.629-13.35
	c-0.396-4.594,2.202-10.962,7.977-12.204C48.613,98.763,52.496,99.467,57.549,102.975"/>
<linearGradient id="SVGID_10_" gradientUnits="userSpaceOnUse" x1="371.8496" y1="-238.8877" x2="371.6511" y2="-266.8337" gradientTransform="matrix(1 0 0 -1 -348.9805 -139.8799)">
	<stop  offset="0.3273" style="stop-color:#010101"/>
	<stop  offset="0.6751" style="stop-color:#2F3030"/>
	<stop  offset="1" style="stop-color:#434244"/>
</linearGradient>
<path fill="url(#SVGID_10_)" d="M12.541,103.051c-5.332,8.146,1.731,28.944,13.844,22.25c4.76-2.561,8.199-6.979,8.437-13.192
	c0.174-4.546-2.596-11.026-7.788-12.011C21.41,98.916,17.559,99.591,12.541,103.051"/>
<linearGradient id="SVGID_11_" gradientUnits="userSpaceOnUse" x1="243.002" y1="-289.9771" x2="242.3089" y2="-322.556" gradientTransform="matrix(1.1098 -0.1896 -0.1666 -0.9749 -299.953 -139.5603)">
	<stop  offset="0.2909" style="stop-color:#3C2A29"/>
	<stop  offset="0.403" style="stop-color:#402E2E"/>
	<stop  offset="0.5668" style="stop-color:#483C3A"/>
	<stop  offset="0.7616" style="stop-color:#555050"/>
	<stop  offset="0.8424" style="stop-color:#5A5A5D"/>
</linearGradient>
<path fill="url(#SVGID_11_)" d="M19.865,99.881c-0.729,1.713-2.445,2.687-2.646,4.484c-0.445,2.373,1.043,5.116,1.92,7.262
	c0.875,2.145,1.945,4.434,0.258,6.486c-1.387,1.824-3.998,2.188-5.024,4.129c2.555,2.034,4.157,5.271,6.614,3.188
	c2.471-2.095,3.365-5.165,3.83-8.421c0.51-3.969-1.299-5.6-2.738-9.062c-2.006-4.776,1.52-5.024,3.721-8.048
	C23.643,99.209,22.068,99.859,19.865,99.881"/>
<linearGradient id="SVGID_12_" gradientUnits="userSpaceOnUse" x1="278.1641" y1="-312.2803" x2="277.4709" y2="-344.8593" gradientTransform="matrix(1.0648 -0.1819 -0.1627 -0.9525 -304.5335 -149.8234)">
	<stop  offset="0.2909" style="stop-color:#3C2A29"/>
	<stop  offset="0.403" style="stop-color:#402E2E"/>
	<stop  offset="0.5668" style="stop-color:#483C3A"/>
	<stop  offset="0.7616" style="stop-color:#555050"/>
	<stop  offset="0.8424" style="stop-color:#5A5A5D"/>
</linearGradient>
<path fill="url(#SVGID_12_)" d="M44.223,99.779c-0.693,1.67-2.338,2.615-2.526,4.371c-0.42,2.314,1.017,4.998,1.864,7.096
	c0.846,2.097,1.88,4.336,0.266,6.334c-1.326,1.779-3.831,2.125-4.811,4.018c2.458,1.994,4.006,5.161,6.359,3.134
	c2.364-2.038,3.215-5.034,3.65-8.212c0.479-3.874-1.262-5.473-2.654-8.857c-1.939-4.669,1.444-4.901,3.549-7.847
	C47.848,99.135,46.34,99.764,44.223,99.779"/>
<path fill="none" stroke="#010101" stroke-width="2" d="M245.471,173.381c2.361-0.873,1.91-1.174,5.5-1.25c3-0.063,5.5,1.5,5.5,1.5"
	/>
<linearGradient id="SVGID_13_" gradientUnits="userSpaceOnUse" x1="-735.5015" y1="-309.9302" x2="-735.7029" y2="-338.2732" gradientTransform="matrix(-1 0 0 -1 -472.2969 -139.8799)">
	<stop  offset="0.3273" style="stop-color:#010101"/>
	<stop  offset="0.6751" style="stop-color:#2F3030"/>
	<stop  offset="1" style="stop-color:#434244"/>
</linearGradient>
<path fill="url(#SVGID_13_)" d="M273.686,174.159c5.369,8.26-1.744,29.346-13.938,22.559c-4.793-2.596-8.137-7.619-8.629-13.35
	c-0.396-4.594,2.201-10.961,7.979-12.203C264.75,169.948,268.633,170.651,273.686,174.159"/>
<linearGradient id="SVGID_14_" gradientUnits="userSpaceOnUse" x1="587.9873" y1="-310.0732" x2="587.7888" y2="-338.0191" gradientTransform="matrix(1 0 0 -1 -348.9805 -139.8799)">
	<stop  offset="0.3273" style="stop-color:#010101"/>
	<stop  offset="0.6751" style="stop-color:#2F3030"/>
	<stop  offset="1" style="stop-color:#434244"/>
</linearGradient>
<path fill="url(#SVGID_14_)" d="M228.678,174.235c-5.332,8.146,1.731,28.945,13.844,22.25c4.763-2.561,8.199-6.979,8.438-13.191
	c0.174-4.547-2.597-11.025-7.788-12.012C237.547,170.1,233.695,170.776,228.678,174.235"/>
<linearGradient id="SVGID_15_" gradientUnits="userSpaceOnUse" x1="421.584" y1="-397.7241" x2="420.8908" y2="-430.3037" gradientTransform="matrix(1.1098 -0.1896 -0.1666 -0.9749 -299.953 -139.5603)">
	<stop  offset="0.2909" style="stop-color:#3C2A29"/>
	<stop  offset="0.403" style="stop-color:#402E2E"/>
	<stop  offset="0.5668" style="stop-color:#483C3A"/>
	<stop  offset="0.7616" style="stop-color:#555050"/>
	<stop  offset="0.8424" style="stop-color:#5A5A5D"/>
</linearGradient>
<path fill="url(#SVGID_15_)" d="M236.002,171.065c-0.729,1.713-2.445,2.688-2.646,4.484c-0.442,2.373,1.043,5.117,1.92,7.262
	c0.875,2.145,1.945,4.434,0.261,6.486c-1.39,1.824-3.998,2.188-5.022,4.129c2.555,2.035,4.155,5.271,6.612,3.189
	c2.474-2.096,3.363-5.166,3.83-8.422c0.51-3.969-1.302-5.6-2.738-9.061c-2.006-4.775,1.521-5.025,3.724-8.047
	C239.779,170.395,238.205,171.044,236.002,171.065"/>
<linearGradient id="SVGID_16_" gradientUnits="userSpaceOnUse" x1="464.2979" y1="-422.5659" x2="463.6047" y2="-455.1449" gradientTransform="matrix(1.0648 -0.1819 -0.1627 -0.9525 -304.5335 -149.8234)">
	<stop  offset="0.2909" style="stop-color:#3C2A29"/>
	<stop  offset="0.403" style="stop-color:#402E2E"/>
	<stop  offset="0.5668" style="stop-color:#483C3A"/>
	<stop  offset="0.7616" style="stop-color:#555050"/>
	<stop  offset="0.8424" style="stop-color:#5A5A5D"/>
</linearGradient>
<path fill="url(#SVGID_16_)" d="M260.359,170.963c-0.693,1.67-2.338,2.615-2.526,4.371c-0.42,2.314,1.017,4.998,1.864,7.096
	c0.846,2.098,1.88,4.336,0.266,6.334c-1.326,1.779-3.831,2.125-4.811,4.018c2.457,1.994,4.006,5.162,6.359,3.135
	c2.361-2.039,3.215-5.035,3.647-8.213c0.479-3.873-1.265-5.473-2.654-8.857c-1.938-4.668,1.444-4.9,3.552-7.846
	C263.984,170.319,262.477,170.948,260.359,170.963"/>
<path fill="none" stroke="#010101" stroke-width="2" d="M101.578,113.158c2.361-0.874,1.91-1.176,5.5-1.25c3-0.063,5.5,1.5,5.5,1.5"
	/>
<linearGradient id="SVGID_17_" gradientUnits="userSpaceOnUse" x1="-591.6089" y1="-249.708" x2="-591.8102" y2="-278.0514" gradientTransform="matrix(-1 0 0 -1 -472.2969 -139.8799)">
	<stop  offset="0.3273" style="stop-color:#010101"/>
	<stop  offset="0.6751" style="stop-color:#2F3030"/>
	<stop  offset="1" style="stop-color:#434244"/>
</linearGradient>
<path fill="url(#SVGID_17_)" d="M129.793,113.936c5.368,8.26-1.744,29.346-13.939,22.559c-4.793-2.596-8.135-7.619-8.629-13.35
	c-0.396-4.594,2.202-10.962,7.977-12.204C120.857,109.724,124.74,110.428,129.793,113.936"/>
<linearGradient id="SVGID_18_" gradientUnits="userSpaceOnUse" x1="444.0947" y1="-249.8486" x2="443.8961" y2="-277.7951" gradientTransform="matrix(1 0 0 -1 -348.9805 -139.8799)">
	<stop  offset="0.3273" style="stop-color:#010101"/>
	<stop  offset="0.6751" style="stop-color:#2F3030"/>
	<stop  offset="1" style="stop-color:#434244"/>
</linearGradient>
<path fill="url(#SVGID_18_)" d="M84.785,114.012c-5.332,8.146,1.731,28.944,13.844,22.25c4.76-2.561,8.199-6.979,8.437-13.192
	c0.174-4.546-2.596-11.026-7.788-12.011C93.654,109.877,89.803,110.552,84.785,114.012"/>
<linearGradient id="SVGID_19_" gradientUnits="userSpaceOnUse" x1="304.6113" y1="-313.2031" x2="303.9182" y2="-345.7803" gradientTransform="matrix(1.1098 -0.1896 -0.1666 -0.9749 -299.953 -139.5603)">
	<stop  offset="0.2909" style="stop-color:#3C2A29"/>
	<stop  offset="0.403" style="stop-color:#402E2E"/>
	<stop  offset="0.5668" style="stop-color:#483C3A"/>
	<stop  offset="0.7616" style="stop-color:#555050"/>
	<stop  offset="0.8424" style="stop-color:#5A5A5D"/>
</linearGradient>
<path fill="url(#SVGID_19_)" d="M92.109,110.842c-0.729,1.713-2.445,2.687-2.646,4.484c-0.445,2.373,1.043,5.116,1.92,7.262
	c0.875,2.145,1.945,4.434,0.258,6.486c-1.387,1.824-3.998,2.188-5.024,4.129c2.555,2.034,4.157,5.271,6.614,3.188
	c2.471-2.095,3.365-5.165,3.83-8.421c0.51-3.969-1.299-5.6-2.738-9.062c-2.006-4.776,1.52-5.024,3.721-8.048
	C95.887,110.17,94.313,110.82,92.109,110.842"/>
<linearGradient id="SVGID_20_" gradientUnits="userSpaceOnUse" x1="342.3799" y1="-336.0552" x2="341.6867" y2="-368.6317" gradientTransform="matrix(1.0648 -0.1819 -0.1627 -0.9525 -304.5335 -149.8234)">
	<stop  offset="0.2909" style="stop-color:#3C2A29"/>
	<stop  offset="0.403" style="stop-color:#402E2E"/>
	<stop  offset="0.5668" style="stop-color:#483C3A"/>
	<stop  offset="0.7616" style="stop-color:#555050"/>
	<stop  offset="0.8424" style="stop-color:#5A5A5D"/>
</linearGradient>
<path fill="url(#SVGID_20_)" d="M116.467,110.74c-0.693,1.67-2.338,2.615-2.526,4.371c-0.42,2.314,1.017,4.998,1.864,7.096
	c0.846,2.097,1.88,4.336,0.266,6.334c-1.326,1.779-3.831,2.125-4.811,4.018c2.458,1.994,4.006,5.161,6.359,3.134
	c2.364-2.038,3.215-5.034,3.65-8.212c0.479-3.874-1.262-5.473-2.654-8.857c-1.939-4.669,1.444-4.901,3.549-7.847
	C120.092,110.096,118.584,110.725,116.467,110.74"/>
<path fill="none" stroke="#010101" stroke-width="2" d="M173.244,182.836c2.361-0.873,1.91-1.176,5.5-1.25c3-0.063,5.5,1.5,5.5,1.5"
	/>
<linearGradient id="SVGID_21_" gradientUnits="userSpaceOnUse" x1="-663.2744" y1="-319.3857" x2="-663.476" y2="-347.729" gradientTransform="matrix(-1 0 0 -1 -472.2969 -139.8799)">
	<stop  offset="0.3273" style="stop-color:#010101"/>
	<stop  offset="0.6751" style="stop-color:#2F3030"/>
	<stop  offset="1" style="stop-color:#434244"/>
</linearGradient>
<path fill="url(#SVGID_21_)" d="M201.459,183.614c5.368,8.26-1.744,29.346-13.939,22.559c-4.793-2.596-8.135-7.619-8.629-13.35
	c-0.396-4.594,2.202-10.961,7.979-12.203C192.523,179.403,196.406,180.106,201.459,183.614"/>
<linearGradient id="SVGID_22_" gradientUnits="userSpaceOnUse" x1="515.7598" y1="-319.5273" x2="515.5612" y2="-347.4737" gradientTransform="matrix(1 0 0 -1 -348.9805 -139.8799)">
	<stop  offset="0.3273" style="stop-color:#010101"/>
	<stop  offset="0.6751" style="stop-color:#2F3030"/>
	<stop  offset="1" style="stop-color:#434244"/>
</linearGradient>
<path fill="url(#SVGID_22_)" d="M156.451,183.69c-5.332,8.146,1.73,28.945,13.844,22.25c4.76-2.561,8.199-6.979,8.438-13.191
	c0.176-4.547-2.596-11.027-7.789-12.012C165.32,179.555,161.469,180.231,156.451,183.69"/>
<linearGradient id="SVGID_23_" gradientUnits="userSpaceOnUse" x1="356.9336" y1="-394.8491" x2="356.2404" y2="-427.4287" gradientTransform="matrix(1.1098 -0.1896 -0.1666 -0.9749 -299.953 -139.5603)">
	<stop  offset="0.2909" style="stop-color:#3C2A29"/>
	<stop  offset="0.403" style="stop-color:#402E2E"/>
	<stop  offset="0.5668" style="stop-color:#483C3A"/>
	<stop  offset="0.7616" style="stop-color:#555050"/>
	<stop  offset="0.8424" style="stop-color:#5A5A5D"/>
</linearGradient>
<path fill="url(#SVGID_23_)" d="M163.775,180.52c-0.729,1.713-2.445,2.688-2.646,4.484c-0.445,2.373,1.043,5.117,1.92,7.262
	c0.875,2.145,1.945,4.434,0.258,6.486c-1.387,1.824-3.998,2.188-5.021,4.129c2.555,2.035,4.154,5.271,6.611,3.189
	c2.474-2.096,3.365-5.166,3.83-8.422c0.51-3.969-1.299-5.6-2.738-9.061c-2.006-4.777,1.521-5.025,3.724-8.049
	C167.553,179.848,165.979,180.499,163.775,180.52"/>
<linearGradient id="SVGID_24_" gradientUnits="userSpaceOnUse" x1="396.915" y1="-419.6226" x2="396.2218" y2="-452.2016" gradientTransform="matrix(1.0648 -0.1819 -0.1627 -0.9525 -304.5335 -149.8234)">
	<stop  offset="0.2909" style="stop-color:#3C2A29"/>
	<stop  offset="0.403" style="stop-color:#402E2E"/>
	<stop  offset="0.5668" style="stop-color:#483C3A"/>
	<stop  offset="0.7616" style="stop-color:#555050"/>
	<stop  offset="0.8424" style="stop-color:#5A5A5D"/>
</linearGradient>
<path fill="url(#SVGID_24_)" d="M188.133,180.419c-0.693,1.67-2.338,2.615-2.525,4.371c-0.42,2.314,1.019,4.998,1.863,7.096
	c0.846,2.098,1.881,4.336,0.266,6.334c-1.323,1.779-3.828,2.125-4.811,4.018c2.458,1.994,4.006,5.162,6.359,3.135
	c2.363-2.039,3.215-5.035,3.65-8.213c0.479-3.873-1.265-5.473-2.654-8.857c-1.939-4.668,1.443-4.9,3.549-7.846
	C191.758,179.774,190.25,180.403,188.133,180.419"/>
<path fill="none" stroke="#010101" stroke-width="2" d="M173.25,124.899c2.361-0.874,1.91-1.176,5.5-1.25c3-0.063,5.5,1.5,5.5,1.5"
	/>
<linearGradient id="SVGID_25_" gradientUnits="userSpaceOnUse" x1="540.126" y1="-261.6479" x2="539.9984" y2="-279.601" gradientTransform="matrix(1 0 0 -1 -348.9805 -139.8799)">
	<stop  offset="0.3273" style="stop-color:#010101"/>
	<stop  offset="0.6751" style="stop-color:#2F3030"/>
	<stop  offset="1" style="stop-color:#434244"/>
</linearGradient>
<path fill="url(#SVGID_25_)" d="M203.109,135.543c0,0.021-0.01,0.051-0.01,0.07c-1.383,0.54-2.883,1.02-4.461,1.46
	c-0.068,0.021-0.142,0.04-0.209,0.05c-0.021,0.01-0.041,0.021-0.063,0.021c-0.67,0.18-1.36,0.351-2.053,0.521
	c-1.067,0.25-2.18,0.469-3.311,0.67c-1.13,0.199-2.279,0.369-3.46,0.51c-0.37,0.05-0.739,0.09-1.12,0.13c0,0-0.01,0.01-0.02,0
	c-0.34,0.05-0.69,0.079-1.041,0.11c-0.379,0.039-0.76,0.069-1.139,0.09c-0.063,0.01-0.121,0.01-0.184,0.01
	c-0.527,0.061-1.063,0.09-1.602,0.109c-0.158,0.021-0.33,0.021-0.488,0.03c-0.188,0.011-0.393,0.021-0.58,0.021
	c-0.029,0.01-0.069,0.01-0.102,0.01c-0.102,0.01-0.199,0.01-0.291,0.01c-0.471,0.02-0.93,0.03-1.397,0.04
	c-0.38,0.021-0.771,0.021-1.17,0.021h-0.49v-0.01c-0.55-1.431-0.897-2.961-1.026-4.531c-0.16-1.819,0.158-3.93,0.947-5.889
	c0.699-1.691,1.762-3.271,3.199-4.451c1.063-0.879,2.34-1.539,3.818-1.859c5.66-1.221,9.539-0.52,14.592,2.99
	c0.22,0.34,0.42,0.699,0.59,1.08C203.2,129.164,203.5,132.344,203.109,135.543z"/>
<linearGradient id="SVGID_26_" gradientUnits="userSpaceOnUse" x1="515.7686" y1="-261.7974" x2="515.6434" y2="-279.4091" gradientTransform="matrix(1 0 0 -1 -348.9805 -139.8799)">
	<stop  offset="0.3273" style="stop-color:#010101"/>
	<stop  offset="0.6751" style="stop-color:#2F3030"/>
	<stop  offset="1" style="stop-color:#434244"/>
</linearGradient>
<path fill="url(#SVGID_26_)" d="M178.74,134.814c-0.061,1.649-0.352,3.17-0.84,4.56c0.01,0.01,0.01,0.01,0,0.021h-0.15
	c-3.109-0.08-6.109-0.33-8.939-0.74c-1.607-0.229-3.16-0.51-4.647-0.851c-1.03-0.209-2.021-0.449-2.99-0.719
	c-0.657-0.181-1.29-0.371-1.92-0.57c-0.028,0.01-0.05,0.039-0.08,0.09c-0.01-0.04-0.028-0.08-0.028-0.12
	c-1.568-0.5-3.029-1.06-4.392-1.66c-0.01-0.1-0.021-0.19-0.028-0.29v-0.01c-0.238-3.02,0.182-5.939,1.368-8.13
	c0.11-0.22,0.24-0.431,0.37-0.64c3.87-2.67,7.053-3.681,10.88-3.461c0.66,0.03,1.343,0.101,2.052,0.221
	c0.5,0.07,1.021,0.17,1.562,0.279c1.29,0.25,2.43,0.83,3.42,1.65c1.41,1.16,2.5,2.79,3.229,4.551
	C178.42,130.934,178.811,133.024,178.74,134.814z"/>
<linearGradient id="SVGID_27_" gradientUnits="userSpaceOnUse" x1="507.3066" y1="-284.7944" x2="507.3046" y2="-284.8918" gradientTransform="matrix(1 0 0 -1 -348.9805 -139.8799)">
	<stop  offset="0.2909" style="stop-color:#3C2A29"/>
	<stop  offset="0.403" style="stop-color:#402E2E"/>
	<stop  offset="0.5668" style="stop-color:#483C3A"/>
	<stop  offset="0.7616" style="stop-color:#555050"/>
	<stop  offset="0.8424" style="stop-color:#5A5A5D"/>
</linearGradient>
<path fill="url(#SVGID_27_)" d="M158.359,145.004c-0.021-0.021-0.051-0.041-0.069-0.061c0-0.01,0.01-0.01,0.01-0.02
	C158.32,144.953,158.34,144.983,158.359,145.004z"/>
<linearGradient id="SVGID_28_" gradientUnits="userSpaceOnUse" x1="514.4678" y1="-260.1899" x2="514.0349" y2="-280.5325" gradientTransform="matrix(1 0 0 -1 -348.9805 -139.8799)">
	<stop  offset="0.2909" style="stop-color:#3C2A29"/>
	<stop  offset="0.403" style="stop-color:#402E2E"/>
	<stop  offset="0.5668" style="stop-color:#483C3A"/>
	<stop  offset="0.7616" style="stop-color:#555050"/>
	<stop  offset="0.8424" style="stop-color:#5A5A5D"/>
</linearGradient>
<path fill="url(#SVGID_28_)" d="M169.71,122.604c-0.021,0.02-0.03,0.04-0.05,0.061c-0.021,0.039-0.051,0.069-0.08,0.1
	c-2.09,2.74-5.24,3.16-3.83,7.26c0.07,0.2,0.15,0.41,0.24,0.63c0.14,0.33,0.279,0.649,0.43,0.95c0.1,0.23,0.21,0.46,0.32,0.67
	c1.068,2.12,2.09,3.67,2.08,6.17c0,0.07,0,0.141-0.012,0.21c-1.608-0.229-3.158-0.51-4.648-0.851c0-0.1-0.021-0.189-0.04-0.289
	c-0.12-0.79-0.41-1.57-0.729-2.35c-0.107-0.281-0.229-0.561-0.341-0.841c-0.09-0.22-0.18-0.44-0.28-0.67
	c-0.828-1.92-1.908-4.19-1.688-6.239c0-0.031,0.01-0.051,0.01-0.08c0-0.011,0-0.021,0.012-0.031c0-0.079,0.021-0.159,0.028-0.239
	c0.21-1.79,1.921-2.771,2.65-4.479c1.317-0.011,2.43-0.25,3.56-0.291c0.65-0.02,1.32,0.021,2.051,0.221
	C169.5,122.533,169.6,122.573,169.71,122.604z"/>
<linearGradient id="SVGID_29_" gradientUnits="userSpaceOnUse" x1="538.7744" y1="-260.0454" x2="538.3282" y2="-281.0173" gradientTransform="matrix(1 0 0 -1 -348.9805 -139.8799)">
	<stop  offset="0.2909" style="stop-color:#3C2A29"/>
	<stop  offset="0.403" style="stop-color:#402E2E"/>
	<stop  offset="0.5668" style="stop-color:#483C3A"/>
	<stop  offset="0.7616" style="stop-color:#555050"/>
	<stop  offset="0.8424" style="stop-color:#5A5A5D"/>
</linearGradient>
<path fill="url(#SVGID_29_)" d="M192.02,133.943c0.621,1.301,1.063,2.58,0.99,4.35v0.041c-1.13,0.199-2.279,0.369-3.46,0.51
	c-0.37,0.05-0.739,0.09-1.12,0.13c0.012-0.011,0.012-0.021,0.012-0.03c0.479-1.63-0.301-3.359-0.961-5
	c-0.5-1.22-1.197-2.66-1.607-4.1c-0.29-1.021-0.432-2.041-0.262-2.99c0.188-1.721,1.771-2.66,2.479-4.27
	c0.021-0.031,0.03-0.061,0.052-0.09v-0.011h0.119c0.211-0.01,0.42-0.021,0.619-0.03h0.04c1.729-0.13,3.101-0.529,4.92,0.061
	c-0.271,0.38-0.569,0.71-0.868,1.021c-0.029,0.03-0.062,0.061-0.092,0.09c-2,1.99-4.25,2.73-2.59,6.74
	c0.05,0.131,0.109,0.26,0.16,0.391c0.13,0.279,0.25,0.549,0.38,0.81C191.24,132.434,191.66,133.193,192.02,133.943z"/>
<path fill="none" stroke="#010101" stroke-width="2" d="M101.085,196.844c2.361-0.875,1.91-1.176,5.5-1.25c3-0.063,5.5,1.5,5.5,1.5"
	/>
<linearGradient id="SVGID_30_" gradientUnits="userSpaceOnUse" x1="467.9639" y1="-333.5938" x2="467.8363" y2="-351.5461" gradientTransform="matrix(1 0 0 -1 -348.9805 -139.8799)">
	<stop  offset="0.3273" style="stop-color:#010101"/>
	<stop  offset="0.6751" style="stop-color:#2F3030"/>
	<stop  offset="1" style="stop-color:#434244"/>
</linearGradient>
<path fill="url(#SVGID_30_)" d="M130.945,207.489c0,0.02-0.011,0.051-0.011,0.071c-1.38,0.539-2.88,1.02-4.46,1.459
	c-0.069,0.021-0.14,0.041-0.21,0.051c-0.02,0.01-0.04,0.02-0.06,0.02c-0.67,0.18-1.36,0.352-2.05,0.521
	c-1.07,0.25-2.181,0.469-3.311,0.67c-1.13,0.199-2.279,0.369-3.46,0.51c-0.37,0.049-0.74,0.09-1.12,0.129c0,0-0.01,0.01-0.02,0
	c-0.34,0.051-0.69,0.08-1.04,0.111c-0.38,0.039-0.76,0.067-1.14,0.09c-0.061,0.01-0.12,0.01-0.181,0.01
	c-0.53,0.061-1.06,0.09-1.6,0.109c-0.16,0.02-0.33,0.02-0.49,0.029c-0.19,0.012-0.39,0.021-0.58,0.021
	c-0.03,0.01-0.07,0.01-0.1,0.01c-0.101,0.011-0.2,0.011-0.29,0.011c-0.471,0.02-0.931,0.028-1.4,0.038
	c-0.38,0.021-0.77,0.021-1.17,0.021h-0.49v-0.011c-0.55-1.432-0.899-2.961-1.029-4.53c-0.16-1.82,0.159-3.93,0.949-5.889
	c0.7-1.691,1.761-3.271,3.2-4.451c1.061-0.879,2.34-1.539,3.82-1.859c5.66-1.221,9.54-0.52,14.59,2.99
	c0.22,0.34,0.42,0.699,0.59,1.08C131.035,201.11,131.335,204.29,130.945,207.489z"/>
<linearGradient id="SVGID_31_" gradientUnits="userSpaceOnUse" x1="443.6016" y1="-333.7417" x2="443.4765" y2="-351.3536" gradientTransform="matrix(1 0 0 -1 -348.9805 -139.8799)">
	<stop  offset="0.3273" style="stop-color:#010101"/>
	<stop  offset="0.6751" style="stop-color:#2F3030"/>
	<stop  offset="1" style="stop-color:#434244"/>
</linearGradient>
<path fill="url(#SVGID_31_)" d="M106.575,206.758c-0.061,1.649-0.351,3.17-0.84,4.562c0.01,0.01,0.01,0.01,0,0.02h-0.15
	c-3.11-0.08-6.11-0.33-8.94-0.74c-1.609-0.229-3.159-0.51-4.649-0.85c-1.03-0.209-2.021-0.449-2.99-0.719
	c-0.66-0.182-1.29-0.371-1.92-0.57c-0.03,0.01-0.05,0.039-0.08,0.09c-0.01-0.041-0.03-0.08-0.03-0.121
	c-1.569-0.5-3.029-1.059-4.39-1.66c-0.01-0.1-0.02-0.189-0.03-0.289v-0.01c-0.239-3.02,0.181-5.939,1.37-8.131
	c0.11-0.219,0.24-0.43,0.37-0.639c3.87-2.67,7.05-3.682,10.88-3.461c0.66,0.029,1.34,0.1,2.05,0.221
	c0.5,0.07,1.021,0.17,1.561,0.279c1.29,0.25,2.43,0.83,3.42,1.65c1.41,1.16,2.5,2.789,3.229,4.551
	C106.255,202.879,106.645,204.969,106.575,206.758z"/>
<linearGradient id="SVGID_32_" gradientUnits="userSpaceOnUse" x1="442.3018" y1="-332.1372" x2="441.869" y2="-352.4785" gradientTransform="matrix(1 0 0 -1 -348.9805 -139.8799)">
	<stop  offset="0.2909" style="stop-color:#3C2A29"/>
	<stop  offset="0.403" style="stop-color:#402E2E"/>
	<stop  offset="0.5668" style="stop-color:#483C3A"/>
	<stop  offset="0.7616" style="stop-color:#555050"/>
	<stop  offset="0.8424" style="stop-color:#5A5A5D"/>
</linearGradient>
<path fill="url(#SVGID_32_)" d="M97.545,194.549c-0.02,0.02-0.03,0.039-0.05,0.061c-0.021,0.039-0.05,0.068-0.08,0.1
	c-2.09,2.74-5.24,3.16-3.83,7.26c0.07,0.199,0.15,0.41,0.24,0.629c0.14,0.33,0.279,0.65,0.43,0.951c0.1,0.23,0.21,0.459,0.32,0.67
	c1.069,2.119,2.09,3.67,2.08,6.17c0,0.07,0,0.141-0.011,0.209c-1.609-0.229-3.159-0.51-4.649-0.85c0-0.1-0.021-0.189-0.04-0.289
	c-0.12-0.791-0.41-1.57-0.73-2.35c-0.109-0.281-0.229-0.561-0.34-0.842c-0.09-0.219-0.18-0.439-0.28-0.67
	c-0.829-1.92-1.909-4.189-1.689-6.238c0-0.031,0.01-0.051,0.01-0.08c0-0.012,0-0.021,0.01-0.031c0-0.08,0.021-0.16,0.03-0.24
	c0.21-1.789,1.92-2.77,2.65-4.479c1.319-0.012,2.43-0.25,3.56-0.291c0.65-0.02,1.32,0.02,2.05,0.221
	C97.335,194.479,97.435,194.518,97.545,194.549z"/>
<linearGradient id="SVGID_33_" gradientUnits="userSpaceOnUse" x1="466.6074" y1="-331.9912" x2="466.1612" y2="-352.9644" gradientTransform="matrix(1 0 0 -1 -348.9805 -139.8799)">
	<stop  offset="0.2909" style="stop-color:#3C2A29"/>
	<stop  offset="0.403" style="stop-color:#402E2E"/>
	<stop  offset="0.5668" style="stop-color:#483C3A"/>
	<stop  offset="0.7616" style="stop-color:#555050"/>
	<stop  offset="0.8424" style="stop-color:#5A5A5D"/>
</linearGradient>
<path fill="url(#SVGID_33_)" d="M119.854,205.889c0.62,1.301,1.061,2.58,0.99,4.351v0.041c-1.13,0.199-2.279,0.369-3.46,0.51
	c-0.37,0.049-0.74,0.09-1.12,0.129c0.011-0.01,0.011-0.02,0.011-0.029c0.479-1.631-0.301-3.359-0.96-5c-0.5-1.221-1.2-2.66-1.61-4.1
	c-0.29-1.021-0.43-2.041-0.26-2.99c0.189-1.721,1.77-2.66,2.479-4.27c0.021-0.031,0.03-0.061,0.05-0.09v-0.012h0.12
	c0.21-0.01,0.42-0.02,0.62-0.029h0.04c1.73-0.131,3.1-0.529,4.92,0.061c-0.27,0.379-0.57,0.709-0.87,1.02
	c-0.029,0.029-0.06,0.061-0.09,0.09c-2,1.99-4.25,2.73-2.59,6.74c0.05,0.131,0.11,0.26,0.16,0.391c0.13,0.279,0.25,0.549,0.38,0.809
	C119.075,204.379,119.495,205.139,119.854,205.889z"/>
<path fill="none" stroke="#010101" stroke-width="2" d="M103.375,9.274c2.361-0.874,1.91-1.175,5.5-1.25c3-0.063,5.5,1.5,5.5,1.5"/>
<linearGradient id="SVGID_34_" gradientUnits="userSpaceOnUse" x1="-593.4043" y1="-145.8232" x2="-593.6057" y2="-174.1666" gradientTransform="matrix(-1 0 0 -1 -472.2969 -139.8799)">
	<stop  offset="0.3273" style="stop-color:#010101"/>
	<stop  offset="0.6751" style="stop-color:#2F3030"/>
	<stop  offset="1" style="stop-color:#434244"/>
</linearGradient>
<path fill="url(#SVGID_34_)" d="M131.589,10.05c5.369,8.26-1.744,29.346-13.939,22.559c-4.792-2.596-8.135-7.619-8.629-13.349
	c-0.397-4.594,2.202-10.962,7.976-12.205C122.655,5.839,126.537,6.543,131.589,10.05"/>
<linearGradient id="SVGID_35_" gradientUnits="userSpaceOnUse" x1="445.8906" y1="-145.9624" x2="445.6921" y2="-173.9093" gradientTransform="matrix(1 0 0 -1 -348.9805 -139.8799)">
	<stop  offset="0.3273" style="stop-color:#010101"/>
	<stop  offset="0.6751" style="stop-color:#2F3030"/>
	<stop  offset="1" style="stop-color:#434244"/>
</linearGradient>
<path fill="url(#SVGID_35_)" d="M86.582,10.127c-5.332,8.146,1.731,28.944,13.844,22.25c4.76-2.56,8.199-6.979,8.437-13.192
	c0.174-4.545-2.596-11.026-7.788-12.011C95.451,5.992,91.6,6.667,86.582,10.127"/>
<linearGradient id="SVGID_36_" gradientUnits="userSpaceOnUse" x1="321.7285" y1="-209.9771" x2="321.0353" y2="-242.5548" gradientTransform="matrix(1.1098 -0.1896 -0.1666 -0.9749 -299.953 -139.5603)">
	<stop  offset="0.2909" style="stop-color:#3C2A29"/>
	<stop  offset="0.403" style="stop-color:#402E2E"/>
	<stop  offset="0.5668" style="stop-color:#483C3A"/>
	<stop  offset="0.7616" style="stop-color:#555050"/>
	<stop  offset="0.8424" style="stop-color:#5A5A5D"/>
</linearGradient>
<path fill="url(#SVGID_36_)" d="M93.906,6.957c-0.728,1.713-2.445,2.687-2.646,4.484c-0.445,2.373,1.042,5.116,1.919,7.262
	c0.875,2.144,1.945,4.434,0.258,6.486c-1.387,1.825-3.998,2.188-5.024,4.129c2.555,2.034,4.157,5.272,6.614,3.188
	c2.471-2.095,3.366-5.166,3.83-8.42c0.511-3.969-1.298-5.601-2.738-9.062c-2.005-4.776,1.52-5.024,3.722-8.047
	C97.683,6.286,96.11,6.936,93.906,6.957"/>
<linearGradient id="SVGID_37_" gradientUnits="userSpaceOnUse" x1="360.2119" y1="-230.3975" x2="359.5187" y2="-262.9778" gradientTransform="matrix(1.0648 -0.1819 -0.1627 -0.9525 -304.5335 -149.8234)">
	<stop  offset="0.2909" style="stop-color:#3C2A29"/>
	<stop  offset="0.403" style="stop-color:#402E2E"/>
	<stop  offset="0.5668" style="stop-color:#483C3A"/>
	<stop  offset="0.7616" style="stop-color:#555050"/>
	<stop  offset="0.8424" style="stop-color:#5A5A5D"/>
</linearGradient>
<path fill="url(#SVGID_37_)" d="M118.264,6.855c-0.693,1.67-2.339,2.616-2.527,4.371c-0.42,2.315,1.016,4.999,1.864,7.097
	c0.846,2.096,1.88,4.335,0.266,6.334c-1.326,1.778-3.832,2.125-4.812,4.018c2.458,1.994,4.006,5.161,6.359,3.133
	c2.365-2.039,3.216-5.034,3.651-8.211c0.479-3.875-1.262-5.473-2.655-8.858c-1.939-4.669,1.444-4.901,3.549-7.847
	C121.889,6.211,120.38,6.84,118.264,6.855"/>
<path fill="none" stroke="#010101" stroke-width="2" d="M174.906,225.801c2.361-0.875,1.91-1.176,5.5-1.25c3-0.063,5.5,1.5,5.5,1.5"
	/>
<linearGradient id="SVGID_38_" gradientUnits="userSpaceOnUse" x1="-664.936" y1="-362.3506" x2="-665.1374" y2="-390.6915" gradientTransform="matrix(-1 0 0 -1 -472.2969 -139.8799)">
	<stop  offset="0.3273" style="stop-color:#010101"/>
	<stop  offset="0.6751" style="stop-color:#2F3030"/>
	<stop  offset="1" style="stop-color:#434244"/>
</linearGradient>
<path fill="url(#SVGID_38_)" d="M203.121,226.579c5.367,8.26-1.744,29.346-13.939,22.559c-4.793-2.596-8.135-7.619-8.629-13.35
	c-0.396-4.594,2.202-10.963,7.977-12.205C194.186,222.366,198.068,223.071,203.121,226.579"/>
<linearGradient id="SVGID_39_" gradientUnits="userSpaceOnUse" x1="517.4219" y1="-362.4907" x2="517.2233" y2="-390.4381" gradientTransform="matrix(1 0 0 -1 -348.9805 -139.8799)">
	<stop  offset="0.3273" style="stop-color:#010101"/>
	<stop  offset="0.6751" style="stop-color:#2F3030"/>
	<stop  offset="1" style="stop-color:#434244"/>
</linearGradient>
<path fill="url(#SVGID_39_)" d="M158.113,226.655c-5.332,8.146,1.729,28.943,13.844,22.25c4.76-2.563,8.199-6.979,8.438-13.193
	c0.174-4.545-2.597-11.025-7.789-12.01C166.982,222.521,163.131,223.194,158.113,226.655"/>
<linearGradient id="SVGID_40_" gradientUnits="userSpaceOnUse" x1="351.96" y1="-437.9507" x2="351.2668" y2="-470.5278" gradientTransform="matrix(1.1098 -0.1896 -0.1666 -0.9749 -299.953 -139.5603)">
	<stop  offset="0.2909" style="stop-color:#3C2A29"/>
	<stop  offset="0.403" style="stop-color:#402E2E"/>
	<stop  offset="0.5668" style="stop-color:#483C3A"/>
	<stop  offset="0.7616" style="stop-color:#555050"/>
	<stop  offset="0.8424" style="stop-color:#5A5A5D"/>
</linearGradient>
<path fill="url(#SVGID_40_)" d="M165.438,223.485c-0.729,1.713-2.442,2.686-2.646,4.481c-0.444,2.373,1.043,5.115,1.92,7.265
	c0.875,2.145,1.945,4.434,0.259,6.483c-1.388,1.824-3.998,2.188-5.025,4.129c2.558,2.033,4.158,5.271,6.615,3.188
	c2.473-2.094,3.364-5.163,3.83-8.42c0.51-3.969-1.3-5.602-2.738-9.063c-2.006-4.772,1.521-5.021,3.723-8.047
	C169.215,222.813,167.641,223.463,165.438,223.485"/>
<linearGradient id="SVGID_41_" gradientUnits="userSpaceOnUse" x1="391.7344" y1="-463.7397" x2="391.0415" y2="-496.3145" gradientTransform="matrix(1.0648 -0.1819 -0.1627 -0.9525 -304.5335 -149.8234)">
	<stop  offset="0.2909" style="stop-color:#3C2A29"/>
	<stop  offset="0.403" style="stop-color:#402E2E"/>
	<stop  offset="0.5668" style="stop-color:#483C3A"/>
	<stop  offset="0.7616" style="stop-color:#555050"/>
	<stop  offset="0.8424" style="stop-color:#5A5A5D"/>
</linearGradient>
<path fill="url(#SVGID_41_)" d="M189.795,223.383c-0.693,1.67-2.338,2.615-2.525,4.371c-0.42,2.313,1.019,4.998,1.863,7.097
	c0.846,2.096,1.881,4.336,0.266,6.334c-1.323,1.778-3.83,2.125-4.811,4.02c2.458,1.992,4.006,5.158,6.359,3.133
	c2.363-2.037,3.215-5.033,3.65-8.211c0.479-3.875-1.265-5.475-2.654-8.855c-1.939-4.67,1.441-4.902,3.549-7.85
	C193.42,222.739,191.912,223.368,189.795,223.383"/>
<path fill="none" stroke="#010101" stroke-width="2" d="M30.625,238.622c2.361-0.875,1.91-1.176,5.5-1.25c3-0.063,5.5,1.5,5.5,1.5"
	/>
<linearGradient id="SVGID_42_" gradientUnits="userSpaceOnUse" x1="-520.6563" y1="-375.1719" x2="-520.8577" y2="-403.5143" gradientTransform="matrix(-1 0 0 -1 -472.2969 -139.8799)">
	<stop  offset="0.3273" style="stop-color:#010101"/>
	<stop  offset="0.6751" style="stop-color:#2F3030"/>
	<stop  offset="1" style="stop-color:#434244"/>
</linearGradient>
<path fill="url(#SVGID_42_)" d="M58.84,239.399c5.368,8.26-1.744,29.346-13.939,22.559c-4.793-2.596-8.135-7.619-8.629-13.35
	c-0.396-4.597,2.202-10.963,7.977-12.205C49.904,235.187,53.787,235.892,58.84,239.399"/>
<linearGradient id="SVGID_43_" gradientUnits="userSpaceOnUse" x1="373.1406" y1="-375.3125" x2="372.9422" y2="-403.2584" gradientTransform="matrix(1 0 0 -1 -348.9805 -139.8799)">
	<stop  offset="0.3273" style="stop-color:#010101"/>
	<stop  offset="0.6751" style="stop-color:#2F3030"/>
	<stop  offset="1" style="stop-color:#434244"/>
</linearGradient>
<path fill="url(#SVGID_43_)" d="M13.832,239.476c-5.332,8.146,1.731,28.942,13.844,22.25c4.76-2.562,8.199-6.979,8.437-13.191
	c0.174-4.547-2.596-11.025-7.788-12.012C22.701,235.34,18.85,236.014,13.832,239.476"/>
<linearGradient id="SVGID_44_" gradientUnits="userSpaceOnUse" x1="223.7207" y1="-426.1567" x2="223.0276" y2="-458.7352" gradientTransform="matrix(1.1098 -0.1896 -0.1666 -0.9749 -299.953 -139.5603)">
	<stop  offset="0.2909" style="stop-color:#3C2A29"/>
	<stop  offset="0.403" style="stop-color:#402E2E"/>
	<stop  offset="0.5668" style="stop-color:#483C3A"/>
	<stop  offset="0.7616" style="stop-color:#555050"/>
	<stop  offset="0.8424" style="stop-color:#5A5A5D"/>
</linearGradient>
<path fill="url(#SVGID_44_)" d="M21.156,236.305c-0.729,1.714-2.445,2.688-2.646,4.484c-0.445,2.373,1.043,5.114,1.92,7.262
	c0.875,2.146,1.945,4.435,0.258,6.486c-1.387,1.823-3.998,2.188-5.024,4.129c2.555,2.032,4.157,5.271,6.614,3.188
	c2.471-2.097,3.365-5.164,3.83-8.42c0.51-3.972-1.299-5.603-2.738-9.063c-2.006-4.775,1.52-5.022,3.721-8.048
	C24.934,235.633,23.359,236.284,21.156,236.305"/>
<linearGradient id="SVGID_45_" gradientUnits="userSpaceOnUse" x1="258.0791" y1="-451.6689" x2="257.386" y2="-484.243" gradientTransform="matrix(1.0648 -0.1819 -0.1627 -0.9525 -304.5335 -149.8234)">
	<stop  offset="0.2909" style="stop-color:#3C2A29"/>
	<stop  offset="0.403" style="stop-color:#402E2E"/>
	<stop  offset="0.5668" style="stop-color:#483C3A"/>
	<stop  offset="0.7616" style="stop-color:#555050"/>
	<stop  offset="0.8424" style="stop-color:#5A5A5D"/>
</linearGradient>
<path fill="url(#SVGID_45_)" d="M45.514,236.204c-0.693,1.67-2.338,2.615-2.526,4.371c-0.42,2.313,1.017,4.998,1.864,7.096
	c0.846,2.096,1.88,4.336,0.266,6.334c-1.326,1.779-3.831,2.125-4.811,4.018c2.458,1.994,4.006,5.16,6.359,3.133
	c2.364-2.034,3.215-5.03,3.65-8.211c0.479-3.875-1.262-5.473-2.654-8.854c-1.939-4.67,1.444-4.899,3.549-7.851
	C49.139,235.56,47.631,236.188,45.514,236.204"/>
<path fill="none" stroke="#010101" stroke-width="2" d="M174.875,14.524c2.361-0.874,1.91-1.175,5.5-1.25c3-0.063,5.5,1.5,5.5,1.5"
	/>
<linearGradient id="SVGID_46_" gradientUnits="userSpaceOnUse" x1="-664.9053" y1="-151.0723" x2="-665.1067" y2="-179.4162" gradientTransform="matrix(-1 0 0 -1 -472.2969 -139.8799)">
	<stop  offset="0.3273" style="stop-color:#010101"/>
	<stop  offset="0.6751" style="stop-color:#2F3030"/>
	<stop  offset="1" style="stop-color:#434244"/>
</linearGradient>
<path fill="url(#SVGID_46_)" d="M203.09,15.3c5.368,8.26-1.744,29.346-13.939,22.559c-4.793-2.596-8.135-7.619-8.629-13.349
	c-0.396-4.594,2.203-10.962,7.979-12.205C194.154,11.089,198.037,11.793,203.09,15.3"/>
<linearGradient id="SVGID_47_" gradientUnits="userSpaceOnUse" x1="517.3916" y1="-151.2134" x2="517.193" y2="-179.1594" gradientTransform="matrix(1 0 0 -1 -348.9805 -139.8799)">
	<stop  offset="0.3273" style="stop-color:#010101"/>
	<stop  offset="0.6751" style="stop-color:#2F3030"/>
	<stop  offset="1" style="stop-color:#434244"/>
</linearGradient>
<path fill="url(#SVGID_47_)" d="M158.082,15.377c-5.332,8.146,1.73,28.944,13.844,22.25c4.76-2.56,8.199-6.979,8.438-13.192
	c0.176-4.545-2.596-11.026-7.786-12.011C166.951,11.242,163.1,11.917,158.082,15.377"/>
<linearGradient id="SVGID_48_" gradientUnits="userSpaceOnUse" x1="383.543" y1="-227.3843" x2="382.8498" y2="-259.9627" gradientTransform="matrix(1.1098 -0.1896 -0.1666 -0.9749 -299.953 -139.5603)">
	<stop  offset="0.2909" style="stop-color:#3C2A29"/>
	<stop  offset="0.403" style="stop-color:#402E2E"/>
	<stop  offset="0.5668" style="stop-color:#483C3A"/>
	<stop  offset="0.7616" style="stop-color:#555050"/>
	<stop  offset="0.8424" style="stop-color:#5A5A5D"/>
</linearGradient>
<path fill="url(#SVGID_48_)" d="M165.406,12.207c-0.729,1.713-2.445,2.687-2.646,4.484c-0.445,2.373,1.043,5.116,1.92,7.262
	c0.875,2.144,1.945,4.434,0.258,6.486c-1.387,1.825-3.998,2.188-5.021,4.129c2.557,2.034,4.154,5.272,6.611,3.188
	c2.474-2.095,3.365-5.166,3.83-8.42c0.513-3.969-1.299-5.601-2.735-9.062c-2.007-4.776,1.521-5.024,3.721-8.047
	C169.184,11.536,167.609,12.186,165.406,12.207"/>
<linearGradient id="SVGID_49_" gradientUnits="userSpaceOnUse" x1="424.6396" y1="-248.2153" x2="423.9464" y2="-280.7932" gradientTransform="matrix(1.0648 -0.1819 -0.1627 -0.9525 -304.5335 -149.8234)">
	<stop  offset="0.2909" style="stop-color:#3C2A29"/>
	<stop  offset="0.403" style="stop-color:#402E2E"/>
	<stop  offset="0.5668" style="stop-color:#483C3A"/>
	<stop  offset="0.7616" style="stop-color:#555050"/>
	<stop  offset="0.8424" style="stop-color:#5A5A5D"/>
</linearGradient>
<path fill="url(#SVGID_49_)" d="M189.764,12.105c-0.693,1.67-2.338,2.616-2.523,4.371c-0.422,2.315,1.017,4.999,1.861,7.097
	c0.849,2.096,1.881,4.335,0.269,6.334c-1.326,1.778-3.831,2.125-4.813,4.018c2.459,1.994,4.006,5.161,6.359,3.133
	c2.363-2.039,3.215-5.034,3.65-8.211c0.479-3.875-1.262-5.473-2.654-8.858c-1.939-4.669,1.443-4.901,3.549-7.847
	C193.389,11.461,191.881,12.09,189.764,12.105"/>
<path fill="none" stroke="#010101" stroke-width="2" d="M246.764,23.862c2.36-0.874,1.909-1.175,5.5-1.25c3-0.063,5.5,1.5,5.5,1.5"
	/>
<linearGradient id="SVGID_50_" gradientUnits="userSpaceOnUse" x1="-736.7944" y1="-160.4126" x2="-736.9958" y2="-188.7545" gradientTransform="matrix(-1 0 0 -1 -472.2969 -139.8799)">
	<stop  offset="0.3273" style="stop-color:#010101"/>
	<stop  offset="0.6751" style="stop-color:#2F3030"/>
	<stop  offset="1" style="stop-color:#434244"/>
</linearGradient>
<path fill="url(#SVGID_50_)" d="M274.979,24.639c5.367,8.26-1.744,29.345-13.938,22.559c-4.793-2.596-8.137-7.619-8.629-13.349
	c-0.396-4.594,2.199-10.962,7.979-12.205C266.042,20.428,269.925,21.131,274.979,24.639"/>
<linearGradient id="SVGID_51_" gradientUnits="userSpaceOnUse" x1="589.2803" y1="-160.5513" x2="589.0817" y2="-188.4977" gradientTransform="matrix(1 0 0 -1 -348.9805 -139.8799)">
	<stop  offset="0.3273" style="stop-color:#010101"/>
	<stop  offset="0.6751" style="stop-color:#2F3030"/>
	<stop  offset="1" style="stop-color:#434244"/>
</linearGradient>
<path fill="url(#SVGID_51_)" d="M229.971,24.716c-5.332,8.146,1.73,28.944,13.844,22.25c4.762-2.56,8.199-6.979,8.438-13.192
	c0.174-4.545-2.599-11.026-7.788-12.011C238.839,20.581,234.986,21.256,229.971,24.716"/>
<linearGradient id="SVGID_52_" gradientUnits="userSpaceOnUse" x1="445.0811" y1="-248.9321" x2="444.388" y2="-281.5123" gradientTransform="matrix(1.1098 -0.1896 -0.1666 -0.9749 -299.953 -139.5603)">
	<stop  offset="0.2909" style="stop-color:#3C2A29"/>
	<stop  offset="0.403" style="stop-color:#402E2E"/>
	<stop  offset="0.5668" style="stop-color:#483C3A"/>
	<stop  offset="0.7616" style="stop-color:#555050"/>
	<stop  offset="0.8424" style="stop-color:#5A5A5D"/>
</linearGradient>
<path fill="url(#SVGID_52_)" d="M237.294,21.546c-0.729,1.713-2.444,2.687-2.646,4.484c-0.445,2.373,1.043,5.116,1.92,7.262
	c0.875,2.144,1.945,4.434,0.258,6.486c-1.387,1.825-3.998,2.188-5.024,4.129c2.556,2.034,4.157,5.272,6.614,3.188
	c2.471-2.095,3.365-5.166,3.83-8.42c0.51-3.969-1.299-5.601-2.738-9.062c-2.006-4.776,1.52-5.024,3.721-8.047
	C241.07,20.875,239.497,21.524,237.294,21.546"/>
<linearGradient id="SVGID_53_" gradientUnits="userSpaceOnUse" x1="488.7813" y1="-270.271" x2="488.0882" y2="-302.8501" gradientTransform="matrix(1.0648 -0.1819 -0.1627 -0.9525 -304.5335 -149.8234)">
	<stop  offset="0.2909" style="stop-color:#3C2A29"/>
	<stop  offset="0.403" style="stop-color:#402E2E"/>
	<stop  offset="0.5668" style="stop-color:#483C3A"/>
	<stop  offset="0.7616" style="stop-color:#555050"/>
	<stop  offset="0.8424" style="stop-color:#5A5A5D"/>
</linearGradient>
<path fill="url(#SVGID_53_)" d="M261.65,21.444c-0.692,1.67-2.338,2.616-2.525,4.371c-0.42,2.315,1.018,4.999,1.864,7.097
	c0.846,2.096,1.88,4.335,0.266,6.334c-1.325,1.778-3.831,2.125-4.812,4.018c2.459,1.994,4.007,5.161,6.357,3.133
	c2.364-2.039,3.217-5.034,3.65-8.211c0.479-3.875-1.264-5.473-2.654-8.858c-1.938-4.669,1.444-4.901,3.551-7.847
	C265.275,20.799,263.77,21.429,261.65,21.444"/>
<path fill="none" stroke="#010101" stroke-width="2" d="M102.755,230.751c2.361-0.875,1.91-1.176,5.5-1.25c3-0.063,5.5,1.5,5.5,1.5"
	/>
<linearGradient id="SVGID_54_" gradientUnits="userSpaceOnUse" x1="-592.7861" y1="-367.3008" x2="-592.9875" y2="-395.6432" gradientTransform="matrix(-1 0 0 -1 -472.2969 -139.8799)">
	<stop  offset="0.3273" style="stop-color:#010101"/>
	<stop  offset="0.6751" style="stop-color:#2F3030"/>
	<stop  offset="1" style="stop-color:#434244"/>
</linearGradient>
<path fill="url(#SVGID_54_)" d="M130.97,231.528c5.368,8.26-1.744,29.346-13.939,22.559c-4.793-2.596-8.135-7.619-8.629-13.35
	c-0.396-4.594,2.202-10.963,7.977-12.205C122.034,227.315,125.917,228.021,130.97,231.528"/>
<linearGradient id="SVGID_55_" gradientUnits="userSpaceOnUse" x1="445.2715" y1="-367.4414" x2="445.073" y2="-395.3883" gradientTransform="matrix(1 0 0 -1 -348.9805 -139.8799)">
	<stop  offset="0.3273" style="stop-color:#010101"/>
	<stop  offset="0.6751" style="stop-color:#2F3030"/>
	<stop  offset="1" style="stop-color:#434244"/>
</linearGradient>
<path fill="url(#SVGID_55_)" d="M85.962,231.604c-5.332,8.146,1.731,28.942,13.844,22.25c4.76-2.562,8.199-6.979,8.437-13.191
	c0.174-4.545-2.596-11.025-7.788-12.012C94.831,227.469,90.979,228.144,85.962,231.604"/>
<linearGradient id="SVGID_56_" gradientUnits="userSpaceOnUse" x1="288.0488" y1="-430.5952" x2="287.3558" y2="-463.1724" gradientTransform="matrix(1.1098 -0.1896 -0.1666 -0.9749 -299.953 -139.5603)">
	<stop  offset="0.2909" style="stop-color:#3C2A29"/>
	<stop  offset="0.403" style="stop-color:#402E2E"/>
	<stop  offset="0.5668" style="stop-color:#483C3A"/>
	<stop  offset="0.7616" style="stop-color:#555050"/>
	<stop  offset="0.8424" style="stop-color:#5A5A5D"/>
</linearGradient>
<path fill="url(#SVGID_56_)" d="M93.286,228.435c-0.729,1.713-2.445,2.688-2.646,4.483c-0.445,2.373,1.043,5.114,1.92,7.262
	c0.875,2.146,1.945,4.435,0.258,6.486c-1.387,1.823-3.998,2.188-5.024,4.129c2.555,2.033,4.157,5.271,6.614,3.188
	c2.471-2.097,3.365-5.164,3.83-8.42c0.51-3.972-1.299-5.603-2.738-9.063c-2.006-4.774,1.52-5.022,3.721-8.047
	C97.063,227.762,95.489,228.413,93.286,228.435"/>
<linearGradient id="SVGID_57_" gradientUnits="userSpaceOnUse" x1="325.126" y1="-456.2129" x2="324.4329" y2="-488.7895" gradientTransform="matrix(1.0648 -0.1819 -0.1627 -0.9525 -304.5335 -149.8234)">
	<stop  offset="0.2909" style="stop-color:#3C2A29"/>
	<stop  offset="0.403" style="stop-color:#402E2E"/>
	<stop  offset="0.5668" style="stop-color:#483C3A"/>
	<stop  offset="0.7616" style="stop-color:#555050"/>
	<stop  offset="0.8424" style="stop-color:#5A5A5D"/>
</linearGradient>
<path fill="url(#SVGID_57_)" d="M117.644,228.333c-0.693,1.67-2.338,2.615-2.526,4.371c-0.42,2.314,1.017,4.998,1.864,7.096
	c0.846,2.096,1.88,4.336,0.266,6.334c-1.326,1.779-3.831,2.125-4.811,4.018c2.458,1.994,4.006,5.16,6.359,3.136
	c2.364-2.037,3.215-5.033,3.65-8.214c0.479-3.875-1.262-5.473-2.654-8.854c-1.939-4.67,1.444-4.899,3.549-7.848
	C121.269,227.688,119.761,228.317,117.644,228.333"/>
<path fill="none" stroke="#010101" stroke-width="2" d="M30.005,301.754c2.361-0.875,1.91-1.176,5.5-1.25c3-0.063,5.5,1.5,5.5,1.5"
	/>
<linearGradient id="SVGID_58_" gradientUnits="userSpaceOnUse" x1="-520.0352" y1="-438.3022" x2="-520.2366" y2="-466.6457" gradientTransform="matrix(-1 0 0 -1 -472.2969 -139.8799)">
	<stop  offset="0.3273" style="stop-color:#010101"/>
	<stop  offset="0.6751" style="stop-color:#2F3030"/>
	<stop  offset="1" style="stop-color:#434244"/>
</linearGradient>
<path fill="url(#SVGID_58_)" d="M58.22,302.53c5.368,8.261-1.744,29.347-13.939,22.56c-4.793-2.596-8.135-7.619-8.629-13.351
	c-0.396-4.596,2.202-10.963,7.977-12.204C49.284,298.317,53.167,299.024,58.22,302.53"/>
<linearGradient id="SVGID_59_" gradientUnits="userSpaceOnUse" x1="372.5205" y1="-438.4438" x2="372.322" y2="-466.3893" gradientTransform="matrix(1 0 0 -1 -348.9805 -139.8799)">
	<stop  offset="0.3273" style="stop-color:#010101"/>
	<stop  offset="0.6751" style="stop-color:#2F3030"/>
	<stop  offset="1" style="stop-color:#434244"/>
</linearGradient>
<path fill="url(#SVGID_59_)" d="M13.212,302.606c-5.332,8.146,1.731,28.942,13.844,22.25c4.76-2.562,8.199-6.979,8.437-13.191
	c0.174-4.546-2.596-11.025-7.788-12.012C22.081,298.472,18.23,299.146,13.212,302.606"/>
<linearGradient id="SVGID_60_" gradientUnits="userSpaceOnUse" x1="213.7334" y1="-488.9702" x2="213.0403" y2="-521.5493" gradientTransform="matrix(1.1098 -0.1896 -0.1666 -0.9749 -299.953 -139.5603)">
	<stop  offset="0.2909" style="stop-color:#3C2A29"/>
	<stop  offset="0.403" style="stop-color:#402E2E"/>
	<stop  offset="0.5668" style="stop-color:#483C3A"/>
	<stop  offset="0.7616" style="stop-color:#555050"/>
	<stop  offset="0.8424" style="stop-color:#5A5A5D"/>
</linearGradient>
<path fill="url(#SVGID_60_)" d="M20.536,299.437c-0.729,1.715-2.445,2.688-2.646,4.484c-0.445,2.373,1.043,5.114,1.92,7.262
	c0.875,2.146,1.945,4.436,0.258,6.486c-1.387,1.822-3.998,2.188-5.024,4.129c2.555,2.032,4.157,5.271,6.614,3.188
	c2.471-2.096,3.365-5.164,3.83-8.42c0.51-3.971-1.299-5.602-2.738-9.063c-2.006-4.775,1.52-5.021,3.721-8.048
	C24.314,298.765,22.739,299.416,20.536,299.437"/>
<linearGradient id="SVGID_61_" gradientUnits="userSpaceOnUse" x1="247.6729" y1="-515.9619" x2="246.9798" y2="-548.5367" gradientTransform="matrix(1.0648 -0.1819 -0.1627 -0.9525 -304.5335 -149.8234)">
	<stop  offset="0.2909" style="stop-color:#3C2A29"/>
	<stop  offset="0.403" style="stop-color:#402E2E"/>
	<stop  offset="0.5668" style="stop-color:#483C3A"/>
	<stop  offset="0.7616" style="stop-color:#555050"/>
	<stop  offset="0.8424" style="stop-color:#5A5A5D"/>
</linearGradient>
<path fill="url(#SVGID_61_)" d="M44.894,299.336c-0.693,1.67-2.338,2.615-2.526,4.371c-0.42,2.313,1.017,4.998,1.864,7.096
	c0.846,2.097,1.88,4.337,0.266,6.334c-1.326,1.779-3.831,2.125-4.811,4.019c2.458,1.994,4.006,5.16,6.359,3.133
	c2.363-2.035,3.215-5.031,3.65-8.211c0.479-3.875-1.262-5.473-2.654-8.855c-1.939-4.67,1.443-4.9,3.549-7.85
	C48.519,298.69,47.011,299.319,44.894,299.336"/>
<path fill="none" stroke="#010101" stroke-width="2" d="M103.125,305.472c2.361-0.67,1.91-0.898,5.5-0.957
	c3-0.048,5.5,1.148,5.5,1.148"/>
<linearGradient id="SVGID_62_" gradientUnits="userSpaceOnUse" x1="-593.1753" y1="-442.8037" x2="-593.3295" y2="-464.4991" gradientTransform="matrix(-1 0 0 -1 -472.2969 -139.8799)">
	<stop  offset="0.3273" style="stop-color:#010101"/>
	<stop  offset="0.6751" style="stop-color:#2F3030"/>
	<stop  offset="1" style="stop-color:#434244"/>
</linearGradient>
<path fill="url(#SVGID_62_)" d="M131.34,306.065c5.368,6.322-1.744,22.463-13.939,17.269c-4.793-1.985-8.135-5.832-8.629-10.218
	c-0.396-3.518,2.202-8.393,7.977-9.344C122.404,302.843,126.287,303.382,131.34,306.065"/>
<linearGradient id="SVGID_63_" gradientUnits="userSpaceOnUse" x1="445.6211" y1="-442.9102" x2="445.4692" y2="-464.3031" gradientTransform="matrix(1 0 0 -1 -348.9805 -139.8799)">
	<stop  offset="0.3273" style="stop-color:#010101"/>
	<stop  offset="0.6751" style="stop-color:#2F3030"/>
	<stop  offset="1" style="stop-color:#434244"/>
</linearGradient>
<path fill="url(#SVGID_63_)" d="M86.332,306.125c-5.332,6.235,1.731,22.153,13.844,17.03c4.76-1.959,8.199-5.342,8.437-10.098
	c0.174-3.479-2.596-8.438-7.788-9.193C95.201,302.959,91.35,303.476,86.332,306.125"/>
<linearGradient id="SVGID_64_" gradientUnits="userSpaceOnUse" x1="277.4336" y1="-506.4048" x2="276.9032" y2="-531.3334" gradientTransform="matrix(1.1098 -0.1896 -0.1666 -0.9749 -299.953 -139.5603)">
	<stop  offset="0.2909" style="stop-color:#3C2A29"/>
	<stop  offset="0.403" style="stop-color:#402E2E"/>
	<stop  offset="0.5668" style="stop-color:#483C3A"/>
	<stop  offset="0.7616" style="stop-color:#555050"/>
	<stop  offset="0.8424" style="stop-color:#5A5A5D"/>
</linearGradient>
<path fill="url(#SVGID_64_)" d="M93.656,303.698c-0.729,1.312-2.445,2.057-2.646,3.433c-0.445,1.815,1.043,3.915,1.92,5.56
	c0.875,1.642,1.945,3.394,0.258,4.965c-1.387,1.395-3.998,1.675-5.024,3.16c2.555,1.556,4.157,4.033,6.614,2.439
	c2.471-1.604,3.365-3.952,3.83-6.443c0.51-3.041-1.299-4.289-2.738-6.938c-2.006-3.656,1.52-3.845,3.721-6.161
	C97.434,303.185,95.859,303.683,93.656,303.698"/>
<linearGradient id="SVGID_65_" gradientUnits="userSpaceOnUse" x1="314.0566" y1="-533.8091" x2="313.5261" y2="-558.7417" gradientTransform="matrix(1.0648 -0.1819 -0.1627 -0.9525 -304.5335 -149.8234)">
	<stop  offset="0.2909" style="stop-color:#3C2A29"/>
	<stop  offset="0.403" style="stop-color:#402E2E"/>
	<stop  offset="0.5668" style="stop-color:#483C3A"/>
	<stop  offset="0.7616" style="stop-color:#555050"/>
	<stop  offset="0.8424" style="stop-color:#5A5A5D"/>
</linearGradient>
<path fill="url(#SVGID_65_)" d="M118.014,303.621c-0.693,1.278-2.338,2.002-2.526,3.346c-0.42,1.771,1.017,3.825,1.864,5.433
	c0.846,1.604,1.88,3.318,0.266,4.849c-1.326,1.362-3.831,1.626-4.811,3.073c2.458,1.527,4.006,3.951,6.359,2.399
	c2.363-1.559,3.215-3.853,3.65-6.284c0.479-2.968-1.262-4.19-2.654-6.779c-1.939-3.574,1.443-3.752,3.549-6.008
	C121.639,303.128,120.131,303.608,118.014,303.621"/>
<path fill="none" stroke="#010101" stroke-width="2" d="M175.014,321.413c2.361-0.508,1.91-0.682,5.5-0.725
	c3-0.037,5.5,0.869,5.5,0.869"/>
<linearGradient id="SVGID_66_" gradientUnits="userSpaceOnUse" x1="-665.0801" y1="-459.3633" x2="-665.1969" y2="-475.8003" gradientTransform="matrix(-1 0 0 -1 -472.2969 -139.8799)">
	<stop  offset="0.3273" style="stop-color:#010101"/>
	<stop  offset="0.6751" style="stop-color:#2F3030"/>
	<stop  offset="1" style="stop-color:#434244"/>
</linearGradient>
<path fill="url(#SVGID_66_)" d="M203.229,321.864c5.369,4.789-1.744,17.016-13.938,13.08c-4.793-1.506-8.136-4.418-8.629-7.74
	c-0.396-2.664,2.203-6.355,7.978-7.077C194.293,319.422,198.176,319.83,203.229,321.864"/>
<linearGradient id="SVGID_67_" gradientUnits="userSpaceOnUse" x1="517.4941" y1="-459.4453" x2="517.379" y2="-475.6525" gradientTransform="matrix(1 0 0 -1 -348.9805 -139.8799)">
	<stop  offset="0.3273" style="stop-color:#010101"/>
	<stop  offset="0.6751" style="stop-color:#2F3030"/>
	<stop  offset="1" style="stop-color:#434244"/>
</linearGradient>
<path fill="url(#SVGID_67_)" d="M158.221,321.907c-5.332,4.726,1.73,16.783,13.844,12.902c4.761-1.484,8.199-4.048,8.438-7.649
	c0.174-2.636-2.596-6.394-7.788-6.964C167.09,319.51,163.238,319.901,158.221,321.907"/>
<linearGradient id="SVGID_68_" gradientUnits="userSpaceOnUse" x1="338.1787" y1="-535.5415" x2="337.777" y2="-554.4246" gradientTransform="matrix(1.1098 -0.1896 -0.1666 -0.9749 -299.953 -139.5603)">
	<stop  offset="0.2909" style="stop-color:#3C2A29"/>
	<stop  offset="0.403" style="stop-color:#402E2E"/>
	<stop  offset="0.5668" style="stop-color:#483C3A"/>
	<stop  offset="0.7616" style="stop-color:#555050"/>
	<stop  offset="0.8424" style="stop-color:#5A5A5D"/>
</linearGradient>
<path fill="url(#SVGID_68_)" d="M165.545,320.069c-0.729,0.994-2.445,1.559-2.646,2.601c-0.444,1.376,1.043,2.966,1.92,4.211
	c0.875,1.243,1.945,2.57,0.259,3.761c-1.388,1.057-3.998,1.27-5.022,2.395c2.555,1.179,4.155,3.057,6.612,1.849
	c2.472-1.215,3.365-2.993,3.83-4.881c0.511-2.304-1.299-3.248-2.737-5.256c-2.007-2.771,1.521-2.912,3.721-4.667
	C169.322,319.681,167.748,320.06,165.545,320.069"/>
<linearGradient id="SVGID_69_" gradientUnits="userSpaceOnUse" x1="377.3623" y1="-563.6348" x2="376.9604" y2="-582.5247" gradientTransform="matrix(1.0648 -0.1819 -0.1627 -0.9525 -304.5335 -149.8234)">
	<stop  offset="0.2909" style="stop-color:#3C2A29"/>
	<stop  offset="0.403" style="stop-color:#402E2E"/>
	<stop  offset="0.5668" style="stop-color:#483C3A"/>
	<stop  offset="0.7616" style="stop-color:#555050"/>
	<stop  offset="0.8424" style="stop-color:#5A5A5D"/>
</linearGradient>
<path fill="url(#SVGID_69_)" d="M189.902,320.012c-0.693,0.968-2.338,1.517-2.525,2.534c-0.42,1.341,1.018,2.896,1.863,4.114
	c0.847,1.215,1.881,2.515,0.267,3.673c-1.325,1.031-3.831,1.232-4.812,2.329c2.459,1.157,4.006,2.991,6.359,1.817
	c2.362-1.182,3.215-2.918,3.649-4.762c0.479-2.247-1.263-3.175-2.654-5.136c-1.938-2.707,1.443-2.841,3.55-4.552
	C193.527,319.638,192.02,320.003,189.902,320.012"/>
<path fill="none" stroke="#010101" stroke-width="2" d="M245.523,322.649c2.361-0.443,1.91-0.596,5.5-0.635
	c3-0.031,5.5,0.764,5.5,0.764"/>
<linearGradient id="SVGID_70_" gradientUnits="userSpaceOnUse" x1="-735.5947" y1="-460.8389" x2="-735.6971" y2="-475.2492" gradientTransform="matrix(-1 0 0 -1 -472.2969 -139.8799)">
	<stop  offset="0.3273" style="stop-color:#010101"/>
	<stop  offset="0.6751" style="stop-color:#2F3030"/>
	<stop  offset="1" style="stop-color:#434244"/>
</linearGradient>
<path fill="url(#SVGID_70_)" d="M273.738,323.046c5.368,4.198-1.744,14.916-13.939,11.467c-4.793-1.32-8.135-3.873-8.629-6.785
	c-0.396-2.336,2.203-5.572,7.979-6.203C264.803,320.905,268.686,321.263,273.738,323.046"/>
<linearGradient id="SVGID_71_" gradientUnits="userSpaceOnUse" x1="587.998" y1="-460.9102" x2="587.8972" y2="-475.1168" gradientTransform="matrix(1 0 0 -1 -348.9805 -139.8799)">
	<stop  offset="0.3273" style="stop-color:#010101"/>
	<stop  offset="0.6751" style="stop-color:#2F3030"/>
	<stop  offset="1" style="stop-color:#434244"/>
</linearGradient>
<path fill="url(#SVGID_71_)" d="M228.73,323.084c-5.332,4.142,1.73,14.712,13.844,11.31c4.76-1.301,8.199-3.547,8.438-6.705
	c0.174-2.311-2.597-5.604-7.788-6.104C237.6,320.981,233.748,321.325,228.73,323.084"/>
<linearGradient id="SVGID_72_" gradientUnits="userSpaceOnUse" x1="399.7979" y1="-549.1689" x2="399.4456" y2="-565.7235" gradientTransform="matrix(1.1098 -0.1896 -0.1666 -0.9749 -299.953 -139.5603)">
	<stop  offset="0.2909" style="stop-color:#3C2A29"/>
	<stop  offset="0.403" style="stop-color:#402E2E"/>
	<stop  offset="0.5668" style="stop-color:#483C3A"/>
	<stop  offset="0.7616" style="stop-color:#555050"/>
	<stop  offset="0.8424" style="stop-color:#5A5A5D"/>
</linearGradient>
<path fill="url(#SVGID_72_)" d="M236.055,321.474c-0.729,0.871-2.445,1.365-2.646,2.278c-0.445,1.206,1.043,2.601,1.92,3.69
	c0.875,1.091,1.945,2.254,0.258,3.298c-1.387,0.926-3.998,1.112-5.022,2.098c2.556,1.033,4.155,2.681,6.612,1.621
	c2.473-1.065,3.365-2.624,3.83-4.278c0.512-2.019-1.299-2.848-2.736-4.606c-2.007-2.429,1.521-2.554,3.721-4.093
	C239.832,321.132,238.258,321.463,236.055,321.474"/>
<linearGradient id="SVGID_73_" gradientUnits="userSpaceOnUse" x1="441.5811" y1="-577.5854" x2="441.2288" y2="-594.144" gradientTransform="matrix(1.0648 -0.1819 -0.1627 -0.9525 -304.5335 -149.8234)">
	<stop  offset="0.2909" style="stop-color:#3C2A29"/>
	<stop  offset="0.403" style="stop-color:#402E2E"/>
	<stop  offset="0.5668" style="stop-color:#483C3A"/>
	<stop  offset="0.7616" style="stop-color:#555050"/>
	<stop  offset="0.8424" style="stop-color:#5A5A5D"/>
</linearGradient>
<path fill="url(#SVGID_73_)" d="M260.412,321.422c-0.693,0.849-2.338,1.329-2.524,2.222c-0.421,1.176,1.017,2.541,1.862,3.606
	c0.848,1.063,1.881,2.204,0.268,3.22c-1.326,0.904-3.831,1.08-4.813,2.041c2.459,1.016,4.006,2.623,6.359,1.594
	c2.363-1.035,3.215-2.558,3.65-4.174c0.479-1.97-1.262-2.781-2.654-4.502c-1.939-2.371,1.443-2.49,3.549-3.988
	C264.037,321.095,262.529,321.414,260.412,321.422"/>
<path fill="none" stroke="#010101" stroke-width="2" d="M29.654,397.63c2.361-0.443,1.91-0.597,5.5-0.635
	c3-0.032,5.5,0.763,5.5,0.763"/>
<linearGradient id="SVGID_74_" gradientUnits="userSpaceOnUse" x1="-519.7266" y1="-535.8188" x2="-519.829" y2="-550.228" gradientTransform="matrix(-1 0 0 -1 -472.2969 -139.8799)">
	<stop  offset="0.3273" style="stop-color:#010101"/>
	<stop  offset="0.6751" style="stop-color:#2F3030"/>
	<stop  offset="1" style="stop-color:#434244"/>
</linearGradient>
<path fill="url(#SVGID_74_)" d="M57.869,398.024c5.368,4.199-1.744,14.916-13.939,11.467c-4.793-1.319-8.135-3.873-8.629-6.785
	c-0.396-2.335,2.203-5.572,7.978-6.203C48.934,395.885,52.816,396.242,57.869,398.024"/>
<linearGradient id="SVGID_75_" gradientUnits="userSpaceOnUse" x1="372.1279" y1="-535.8887" x2="372.0269" y2="-550.0964" gradientTransform="matrix(1 0 0 -1 -348.9805 -139.8799)">
	<stop  offset="0.3273" style="stop-color:#010101"/>
	<stop  offset="0.6751" style="stop-color:#2F3030"/>
	<stop  offset="1" style="stop-color:#434244"/>
</linearGradient>
<path fill="url(#SVGID_75_)" d="M12.861,398.063c-5.332,4.143,1.73,14.713,13.844,11.311c4.76-1.301,8.199-3.547,8.438-6.705
	c0.174-2.311-2.596-5.604-7.788-6.104C21.73,395.962,17.879,396.305,12.861,398.063"/>
<linearGradient id="SVGID_76_" gradientUnits="userSpaceOnUse" x1="199.5859" y1="-587.1426" x2="199.2337" y2="-603.6971" gradientTransform="matrix(1.1098 -0.1896 -0.1666 -0.9749 -299.953 -139.5603)">
	<stop  offset="0.2909" style="stop-color:#3C2A29"/>
	<stop  offset="0.403" style="stop-color:#402E2E"/>
	<stop  offset="0.5668" style="stop-color:#483C3A"/>
	<stop  offset="0.7616" style="stop-color:#555050"/>
	<stop  offset="0.8424" style="stop-color:#5A5A5D"/>
</linearGradient>
<path fill="url(#SVGID_76_)" d="M20.186,396.453c-0.729,0.87-2.445,1.364-2.646,2.278c-0.445,1.205,1.043,2.6,1.92,3.69
	c0.875,1.09,1.945,2.253,0.258,3.297c-1.387,0.927-3.998,1.112-5.023,2.099c2.555,1.033,4.156,2.68,6.613,1.621
	c2.472-1.065,3.365-2.625,3.83-4.278c0.511-2.019-1.299-2.849-2.737-4.607c-2.007-2.428,1.521-2.553,3.721-4.092
	C23.963,396.11,22.389,396.442,20.186,396.453"/>
<linearGradient id="SVGID_77_" gradientUnits="userSpaceOnUse" x1="232.9102" y1="-616.4526" x2="232.5578" y2="-633.0131" gradientTransform="matrix(1.0648 -0.1819 -0.1627 -0.9525 -304.5335 -149.8234)">
	<stop  offset="0.2909" style="stop-color:#3C2A29"/>
	<stop  offset="0.403" style="stop-color:#402E2E"/>
	<stop  offset="0.5668" style="stop-color:#483C3A"/>
	<stop  offset="0.7616" style="stop-color:#555050"/>
	<stop  offset="0.8424" style="stop-color:#5A5A5D"/>
</linearGradient>
<path fill="url(#SVGID_77_)" d="M44.543,396.401c-0.693,0.849-2.338,1.328-2.525,2.222c-0.42,1.175,1.017,2.54,1.863,3.606
	c0.847,1.063,1.881,2.203,0.267,3.219c-1.326,0.904-3.831,1.08-4.812,2.041c2.459,1.016,4.006,2.623,6.359,1.595
	c2.363-1.035,3.215-2.558,3.65-4.175c0.479-1.969-1.262-2.781-2.654-4.502c-1.939-2.371,1.443-2.489,3.549-3.987
	C48.168,396.073,46.66,396.394,44.543,396.401"/>
<path fill="none" stroke="#010101" stroke-width="2" d="M101.773,403.399c2.361-0.443,1.91-0.596,5.5-0.635
	c3-0.031,5.5,0.764,5.5,0.764"/>
<linearGradient id="SVGID_78_" gradientUnits="userSpaceOnUse" x1="-591.8452" y1="-541.5884" x2="-591.9476" y2="-555.9982" gradientTransform="matrix(-1 0 0 -1 -472.2969 -139.8799)">
	<stop  offset="0.3273" style="stop-color:#010101"/>
	<stop  offset="0.6751" style="stop-color:#2F3030"/>
	<stop  offset="1" style="stop-color:#434244"/>
</linearGradient>
<path fill="url(#SVGID_78_)" d="M129.988,403.796c5.368,4.198-1.744,14.916-13.939,11.467c-4.793-1.32-8.135-3.873-8.629-6.785
	c-0.396-2.336,2.203-5.572,7.978-6.203C121.052,401.655,124.935,402.013,129.988,403.796"/>
<linearGradient id="SVGID_79_" gradientUnits="userSpaceOnUse" x1="444.248" y1="-541.6592" x2="444.1471" y2="-555.8674" gradientTransform="matrix(1 0 0 -1 -348.9805 -139.8799)">
	<stop  offset="0.3273" style="stop-color:#010101"/>
	<stop  offset="0.6751" style="stop-color:#2F3030"/>
	<stop  offset="1" style="stop-color:#434244"/>
</linearGradient>
<path fill="url(#SVGID_79_)" d="M84.98,403.834c-5.332,4.142,1.73,14.712,13.844,11.31c4.76-1.301,8.199-3.547,8.438-6.705
	c0.174-2.311-2.596-5.604-7.788-6.104C93.849,401.731,89.998,402.075,84.98,403.834"/>
<linearGradient id="SVGID_80_" gradientUnits="userSpaceOnUse" x1="261.8633" y1="-605.1714" x2="261.5111" y2="-621.7259" gradientTransform="matrix(1.1098 -0.1896 -0.1666 -0.9749 -299.953 -139.5603)">
	<stop  offset="0.2909" style="stop-color:#3C2A29"/>
	<stop  offset="0.403" style="stop-color:#402E2E"/>
	<stop  offset="0.5668" style="stop-color:#483C3A"/>
	<stop  offset="0.7616" style="stop-color:#555050"/>
	<stop  offset="0.8424" style="stop-color:#5A5A5D"/>
</linearGradient>
<path fill="url(#SVGID_80_)" d="M92.304,402.224c-0.729,0.871-2.445,1.365-2.646,2.278c-0.445,1.206,1.043,2.601,1.92,3.69
	c0.875,1.091,1.945,2.254,0.258,3.298c-1.387,0.926-3.998,1.112-5.023,2.098c2.555,1.033,4.156,2.681,6.613,1.621
	c2.472-1.065,3.365-2.624,3.83-4.278c0.511-2.019-1.299-2.848-2.737-4.606c-2.007-2.429,1.521-2.554,3.721-4.093
	C96.082,401.882,94.507,402.213,92.304,402.224"/>
<linearGradient id="SVGID_81_" gradientUnits="userSpaceOnUse" x1="297.8223" y1="-634.9082" x2="297.47" y2="-651.4673" gradientTransform="matrix(1.0648 -0.1819 -0.1627 -0.9525 -304.5335 -149.8234)">
	<stop  offset="0.2909" style="stop-color:#3C2A29"/>
	<stop  offset="0.403" style="stop-color:#402E2E"/>
	<stop  offset="0.5668" style="stop-color:#483C3A"/>
	<stop  offset="0.7616" style="stop-color:#555050"/>
	<stop  offset="0.8424" style="stop-color:#5A5A5D"/>
</linearGradient>
<path fill="url(#SVGID_81_)" d="M116.662,402.172c-0.693,0.849-2.338,1.329-2.525,2.222c-0.42,1.176,1.017,2.541,1.863,3.606
	c0.847,1.063,1.881,2.204,0.267,3.22c-1.326,0.904-3.831,1.08-4.812,2.041c2.459,1.016,4.006,2.623,6.359,1.594
	c2.363-1.035,3.215-2.558,3.65-4.174c0.479-1.97-1.262-2.781-2.654-4.502c-1.939-2.371,1.443-2.49,3.549-3.988
	C120.287,401.845,118.779,402.164,116.662,402.172"/>
<path fill="none" stroke="#010101" stroke-width="2" d="M174.262,413.715c2.361-0.444,1.91-0.597,5.5-0.635
	c3-0.032,5.5,0.763,5.5,0.763"/>
<linearGradient id="SVGID_82_" gradientUnits="userSpaceOnUse" x1="-664.3345" y1="-551.9038" x2="-664.4369" y2="-566.3126" gradientTransform="matrix(-1 0 0 -1 -472.2969 -139.8799)">
	<stop  offset="0.3273" style="stop-color:#010101"/>
	<stop  offset="0.6751" style="stop-color:#2F3030"/>
	<stop  offset="1" style="stop-color:#434244"/>
</linearGradient>
<path fill="url(#SVGID_82_)" d="M202.477,414.11c5.369,4.197-1.744,14.916-13.938,11.466c-4.793-1.319-8.136-3.873-8.629-6.785
	c-0.396-2.335,2.202-5.572,7.978-6.203C193.541,411.97,197.424,412.327,202.477,414.11"/>
<linearGradient id="SVGID_83_" gradientUnits="userSpaceOnUse" x1="516.7373" y1="-551.9736" x2="516.6364" y2="-566.1819" gradientTransform="matrix(1 0 0 -1 -348.9805 -139.8799)">
	<stop  offset="0.3273" style="stop-color:#010101"/>
	<stop  offset="0.6751" style="stop-color:#2F3030"/>
	<stop  offset="1" style="stop-color:#434244"/>
</linearGradient>
<path fill="url(#SVGID_83_)" d="M157.469,414.149c-5.332,4.142,1.73,14.712,13.844,11.31c4.76-1.302,8.199-3.547,8.438-6.705
	c0.174-2.312-2.597-5.604-7.788-6.104C166.338,412.047,162.486,412.39,157.469,414.149"/>
<linearGradient id="SVGID_84_" gradientUnits="userSpaceOnUse" x1="323.7832" y1="-627.7939" x2="323.431" y2="-644.348" gradientTransform="matrix(1.1098 -0.1896 -0.1666 -0.9749 -299.953 -139.5603)">
	<stop  offset="0.2909" style="stop-color:#3C2A29"/>
	<stop  offset="0.403" style="stop-color:#402E2E"/>
	<stop  offset="0.5668" style="stop-color:#483C3A"/>
	<stop  offset="0.7616" style="stop-color:#555050"/>
	<stop  offset="0.8424" style="stop-color:#5A5A5D"/>
</linearGradient>
<path fill="url(#SVGID_84_)" d="M164.793,412.538c-0.729,0.869-2.445,1.365-2.646,2.277c-0.444,1.207,1.043,2.601,1.92,3.691
	c0.875,1.09,1.945,2.253,0.259,3.297c-1.388,0.926-3.998,1.112-5.023,2.098c2.556,1.033,4.156,2.681,6.613,1.621
	c2.472-1.064,3.364-2.623,3.83-4.277c0.511-2.02-1.3-2.848-2.737-4.607c-2.007-2.428,1.521-2.553,3.721-4.092
	C168.57,412.196,166.996,412.526,164.793,412.538"/>
<linearGradient id="SVGID_85_" gradientUnits="userSpaceOnUse" x1="362.3604" y1="-658.0605" x2="362.0079" y2="-674.6222" gradientTransform="matrix(1.0648 -0.1819 -0.1627 -0.9525 -304.5335 -149.8234)">
	<stop  offset="0.2909" style="stop-color:#3C2A29"/>
	<stop  offset="0.403" style="stop-color:#402E2E"/>
	<stop  offset="0.5668" style="stop-color:#483C3A"/>
	<stop  offset="0.7616" style="stop-color:#555050"/>
	<stop  offset="0.8424" style="stop-color:#5A5A5D"/>
</linearGradient>
<path fill="url(#SVGID_85_)" d="M189.15,412.485c-0.693,0.85-2.338,1.33-2.525,2.223c-0.42,1.175,1.018,2.54,1.863,3.605
	c0.847,1.064,1.881,2.205,0.267,3.221c-1.325,0.904-3.831,1.08-4.812,2.041c2.459,1.015,4.006,2.623,6.358,1.594
	c2.363-1.035,3.216-2.559,3.65-4.174c0.479-1.971-1.263-2.782-2.654-4.502c-1.938-2.372,1.443-2.49,3.55-3.988
	C192.775,412.157,191.268,412.479,189.15,412.485"/>
<rect display="none" fill="#98CA3C" width="288" height="432"/>
</svg>
