<?xml version="1.0" encoding="utf-8"?>
<!-- Generator: Adobe Illustrator 15.0.0, SVG Export Plug-In . SVG Version: 6.00 Build 0)  -->
<!DOCTYPE svg PUBLIC "-//W3C//DTD SVG 1.1//EN" "http://www.w3.org/Graphics/SVG/1.1/DTD/svg11.dtd">
<svg version="1.1" id="Layer_1" xmlns="http://www.w3.org/2000/svg" xmlns:xlink="http://www.w3.org/1999/xlink" x="0px" y="0px"
	 width="1280px" height="700px" viewBox="0 0 1280 700" enable-background="new 0 0 1280 700" xml:space="preserve">
<linearGradient id="SVGID_1_" gradientUnits="userSpaceOnUse" x1="1838.5479" y1="429.8828" x2="1836.1376" y2="863.6186" gradientTransform="matrix(1 0 0 1 -1197.9609 -422.7598)">
	<stop  offset="0" style="stop-color:#00AEEF"/>
	<stop  offset="1" style="stop-color:#9CDAED"/>
</linearGradient>
<rect x="-14.206" y="-11.676" fill="url(#SVGID_1_)" stroke="#000000" stroke-miterlimit="10" width="1307.229" height="461.44"/>
<linearGradient id="SVGID_2_" gradientUnits="userSpaceOnUse" x1="1134.7783" y1="1041.0986" x2="2578.7849" y2="1039.1547" gradientTransform="matrix(1 0 0 1 -1197.9609 -422.7598)">
	<stop  offset="0" style="stop-color:#B91319"/>
	<stop  offset="0.0914" style="stop-color:#BB2C21"/>
	<stop  offset="0.2789" style="stop-color:#C2553F"/>
	<stop  offset="0.2978" style="stop-color:#C25843"/>
	<stop  offset="0.7091" style="stop-color:#CB6750"/>
	<stop  offset="0.9455" style="stop-color:#AF1116"/>
</linearGradient>
<path fill="url(#SVGID_2_)" d="M1324.036,712.617l-1.571-113.396l42.452-33.396l-76.202-45.941l-266.484,9.574l-153.236-0.496
	l-84.871,2.979L515.356,525l-212.187,2.973L12.949,519.49l-76.203,45.938L-20.8,598.83l-0.596,116.785c0,0,18.046-4.23,88.799-4.377
	c141.476-0.291,424.333,4.709,565.812,4.883c120.236,0.146,182.02-2.404,182.02-2.404l0.002-0.041c0,0,247.181-3.502,329.569-3.461
	C1237.869,710.262,1324.036,712.617,1324.036,712.617z"/>
<linearGradient id="SVGID_3_" gradientUnits="userSpaceOnUse" x1="2376.1963" y1="1514.6914" x2="2392.6575" y2="1496.7338" gradientTransform="matrix(1.0874 0.4884 -0.4808 1.0705 -1604.4985 -2380.1895)">
	<stop  offset="0" style="stop-color:#A15525"/>
	<stop  offset="0.1269" style="stop-color:#AD6826"/>
	<stop  offset="0.4315" style="stop-color:#CA9726"/>
	<stop  offset="0.689" style="stop-color:#E3C021"/>
	<stop  offset="0.8864" style="stop-color:#F5DB16"/>
	<stop  offset="1" style="stop-color:#FDE70D"/>
</linearGradient>
<polygon fill="url(#SVGID_3_)" stroke="#603913" stroke-width="5" stroke-miterlimit="10" points="296.043,479.301 281.979,492.664 
	242.415,375.799 222.223,310.145 280.278,299.028 286.83,373.938 "/>
<linearGradient id="SVGID_4_" gradientUnits="userSpaceOnUse" x1="1157.1455" y1="885.8203" x2="2526.2676" y2="893.8283" gradientTransform="matrix(1 0 0 1 -1197.9609 -422.7598)">
	<stop  offset="0" style="stop-color:#EE2924"/>
	<stop  offset="0.4788" style="stop-color:#F69A8C"/>
	<stop  offset="1" style="stop-color:#E23727"/>
</linearGradient>
<path fill="url(#SVGID_4_)" stroke="#3C2415" stroke-width="4" stroke-miterlimit="10" d="M-68.031,372.834
	c227.71,36.664,502.308,9.076,685.542,5.338c177.106-3.615,536.146,38.555,697.591,4.891
	c81.035-16.895,32.524,78.242,20.479,150.531S-82.49,507.086-82.49,507.086S-129.077,363.006-68.031,372.834z"/>
<linearGradient id="SVGID_5_" gradientUnits="userSpaceOnUse" x1="1215.5859" y1="922.4502" x2="2472.3779" y2="929.8012" gradientTransform="matrix(1 0 0 1 -1197.9609 -422.7598)">
	<stop  offset="0" style="stop-color:#9C0A0E"/>
	<stop  offset="0.0744" style="stop-color:#A52419"/>
	<stop  offset="0.2271" style="stop-color:#BE533D"/>
	<stop  offset="0.2424" style="stop-color:#C05742"/>
	<stop  offset="0.5576" style="stop-color:#890203"/>
	<stop  offset="0.7939" style="stop-color:#BE5741"/>
	<stop  offset="1" style="stop-color:#861206"/>
</linearGradient>
<path fill="url(#SVGID_5_)" stroke="#3C2415" stroke-width="4" stroke-miterlimit="10" d="M1304.533,432.65
	c0,0-191.207,15.26-255.104,15.569c-108.686,0.541-325.497-20.938-434.175-22.194c-93.189-1.076-314.508,14.67-372.5,14.801
	c-64.78,0.146-278.857-10.15-278.857-10.15l18.059,132.427c0,0,197.377,11.913,263.265,12.438
	c91.934,0.734,275.63-11.381,367.568-11.479c110.438-0.114,331.139,19.99,441.573,18.729c56.592-0.646,226.09-17.711,226.09-17.711
	L1304.533,432.65z"/>
<linearGradient id="SVGID_6_" gradientUnits="userSpaceOnUse" x1="5939.2266" y1="531.2949" x2="6137.4512" y2="531.2949" gradientTransform="matrix(-1 0 0 1 6270.9375 -422.7598)">
	<stop  offset="0" style="stop-color:#F7941E"/>
	<stop  offset="0.0675" style="stop-color:#F7AB21"/>
	<stop  offset="0.1431" style="stop-color:#F7C026"/>
	<stop  offset="0.2227" style="stop-color:#F8D02A"/>
	<stop  offset="0.307" style="stop-color:#F8DC2E"/>
	<stop  offset="0.3991" style="stop-color:#F8E230"/>
	<stop  offset="0.5138" style="stop-color:#F8E530"/>
	<stop  offset="0.6284" style="stop-color:#F8E230"/>
	<stop  offset="0.7191" style="stop-color:#F8DC2E"/>
	<stop  offset="0.8015" style="stop-color:#F8D12A"/>
	<stop  offset="0.8791" style="stop-color:#F7C126"/>
	<stop  offset="0.9527" style="stop-color:#F7AC22"/>
	<stop  offset="1" style="stop-color:#F79B1F"/>
</linearGradient>
<path fill="url(#SVGID_6_)" stroke="#603913" stroke-width="4" stroke-miterlimit="10" d="M107.007,135.778
	c0,0,4.596-24.153,9.937-30.043c5.058-5.581,26.802-48.126,104.958-53.3c83.418-5.521,108.589,32.197,114.476,41.161
	c3.74,5.692,12.604,24.769,12.604,24.769l-7.556-7.96c-3.271,25.733-50.735,49.566-110.771,54.046
	c-58.817,4.386-109.183-11.351-118.812-35.381L107.007,135.778z"/>
<linearGradient id="SVGID_7_" gradientUnits="userSpaceOnUse" x1="5916.9688" y1="580.1934" x2="6154.3262" y2="610.7542" gradientTransform="matrix(-1 0 0 1 6270.9375 -422.7598)">
	<stop  offset="0" style="stop-color:#2B3990"/>
	<stop  offset="0.0417" style="stop-color:#294E9C"/>
	<stop  offset="0.098" style="stop-color:#2965AB"/>
	<stop  offset="0.157" style="stop-color:#2A78BA"/>
	<stop  offset="0.2179" style="stop-color:#2A89C7"/>
	<stop  offset="0.2815" style="stop-color:#2997D2"/>
	<stop  offset="0.3488" style="stop-color:#28A2DB"/>
	<stop  offset="0.4223" style="stop-color:#28A8E0"/>
	<stop  offset="0.5138" style="stop-color:#27AAE1"/>
	<stop  offset="0.5997" style="stop-color:#29A7DE"/>
	<stop  offset="0.6677" style="stop-color:#2B9FD4"/>
	<stop  offset="0.7295" style="stop-color:#2D92C6"/>
	<stop  offset="0.7877" style="stop-color:#2E82B5"/>
	<stop  offset="0.8434" style="stop-color:#2F6FA2"/>
	<stop  offset="0.8972" style="stop-color:#2D598D"/>
	<stop  offset="0.9486" style="stop-color:#2A4177"/>
	<stop  offset="0.9984" style="stop-color:#262362"/>
	<stop  offset="1" style="stop-color:#262262"/>
</linearGradient>
<path fill="url(#SVGID_7_)" stroke="#603913" stroke-width="4" stroke-miterlimit="10" d="M406.682,258.185L356.24,136.298
	c0,0-21.291-76.611-131.925-69.307c-99.2,6.552-118.078,76.645-118.078,76.645L88.481,285.54L406.682,258.185z"/>
<linearGradient id="SVGID_8_" gradientUnits="userSpaceOnUse" x1="5888.9238" y1="664.3359" x2="6147.751" y2="664.3359" gradientTransform="matrix(-1 0 0 1 6270.9375 -422.7598)">
	<stop  offset="0" style="stop-color:#F7941E"/>
	<stop  offset="0.0675" style="stop-color:#F7AB21"/>
	<stop  offset="0.1431" style="stop-color:#F7C026"/>
	<stop  offset="0.2227" style="stop-color:#F8D02A"/>
	<stop  offset="0.307" style="stop-color:#F8DC2E"/>
	<stop  offset="0.3991" style="stop-color:#F8E230"/>
	<stop  offset="0.5138" style="stop-color:#F8E530"/>
	<stop  offset="0.6284" style="stop-color:#F8E230"/>
	<stop  offset="0.7191" style="stop-color:#F8DC2E"/>
	<stop  offset="0.8015" style="stop-color:#F8D12A"/>
	<stop  offset="0.8791" style="stop-color:#F7C126"/>
	<stop  offset="0.9527" style="stop-color:#F7AC22"/>
	<stop  offset="1" style="stop-color:#F79B1F"/>
</linearGradient>
<path fill="url(#SVGID_8_)" stroke="#603913" stroke-width="4" stroke-miterlimit="10" d="M88.611,275.749
	c0,0,2.087-38.665,9.105-48.096c6.646-8.93,9.424-14.391,24.521-25.752c3.358-2.652,6.959-5.221,10.799-7.694
	c1.986-1.311,3.84-2.456,5.497-3.374c25.943-15.234,61.008-25.67,100.134-29.225c39.474-3.584,76.053,0.486,104.089,11.021
	l-0.123-0.143c32.778,11.584,39.79,21.381,47.526,35.73c4.915,9.112,14.403,40.573,14.403,40.573l-8.331-13.333
	c-4.312,41.197-66.136,79.023-145.063,86.191c-77.328,7.021-143.543-18.17-156.199-56.639L88.611,275.749z"/>
<linearGradient id="SVGID_9_" gradientUnits="userSpaceOnUse" x1="6215.6299" y1="633.499" x2="6191.7783" y2="796.0424" gradientTransform="matrix(-0.9333 -0.0143 0.0143 1.1015 6028.3027 -421.9186)">
	<stop  offset="0" style="stop-color:#BF931B"/>
	<stop  offset="0.1985" style="stop-color:#BD901C"/>
	<stop  offset="0.3556" style="stop-color:#B5861D"/>
	<stop  offset="0.4984" style="stop-color:#A9771D"/>
	<stop  offset="0.6329" style="stop-color:#98631D"/>
	<stop  offset="0.7615" style="stop-color:#854C1A"/>
	<stop  offset="0.8839" style="stop-color:#703214"/>
	<stop  offset="1" style="stop-color:#5A100B"/>
</linearGradient>
<path fill="url(#SVGID_9_)" stroke="#603913" stroke-width="4" stroke-miterlimit="10" d="M88.455,293.458
	c4.34,51.51,79.767,87.86,168.462,80.388c88.694-7.472,157.07-55.933,152.732-107.443c-4.344-51.508-79.748-86.56-168.445-79.089
	C152.51,194.786,84.116,241.952,88.455,293.458z"/>
<linearGradient id="SVGID_10_" gradientUnits="userSpaceOnUse" x1="1924.8691" y1="454.9277" x2="2125.8809" y2="454.9277" gradientTransform="matrix(1 0 0 1 -1197.9609 -422.7598)">
	<stop  offset="0" style="stop-color:#FECD8A"/>
	<stop  offset="1" style="stop-color:#FCDDE2"/>
</linearGradient>
<path fill="url(#SVGID_10_)" stroke="#603913" stroke-width="5" stroke-miterlimit="10" d="M776.928-30.99
	c0,0-7.14,97.025-42.854,118.13c-32.998,19.5,56.51,0.843,94.851-4.635C912.921,70.506,927.92-31.489,927.92-31.489L776.928-30.99z"
	/>
<linearGradient id="SVGID_11_" gradientUnits="userSpaceOnUse" x1="1849.8691" y1="436.9277" x2="2050.8809" y2="436.9277" gradientTransform="matrix(1 0 0 1 -1197.9609 -422.7598)">
	<stop  offset="0" style="stop-color:#FECD8A"/>
	<stop  offset="1" style="stop-color:#FCDDE2"/>
</linearGradient>
<path fill="url(#SVGID_11_)" stroke="#603913" stroke-width="5" stroke-miterlimit="10" d="M701.928-48.99
	c0,0-7.14,97.025-42.854,118.13c-32.998,19.499,56.51,0.842,94.851-4.635C837.921,52.507,852.92-49.488,852.92-49.488L701.928-48.99
	z"/>
<linearGradient id="SVGID_12_" gradientUnits="userSpaceOnUse" x1="1600.7314" y1="714.417" x2="2406.439" y2="719.1297" gradientTransform="matrix(1 0 0 1 -1197.9609 -422.7598)">
	<stop  offset="0" style="stop-color:#FDE873"/>
	<stop  offset="0.4788" style="stop-color:#FFC62F"/>
	<stop  offset="1" style="stop-color:#FFE18B"/>
</linearGradient>
<polygon fill="url(#SVGID_12_)" stroke="#603913" stroke-width="4" stroke-miterlimit="10" points="369.585,33.146 391.966,553.938 
	1212.043,554.119 1229.042,34.146 "/>
<g>
	<g>
		<path fill="#754C29" d="M480.294,73.904c2.692,1.07,5.053,2.555,7.072,4.448c2.019,1.893,3.645,4.146,4.871,6.749
			c1.227,2.604,1.881,5.398,1.961,8.378c0.041,1.513,0.061,2.269,0.102,3.782c0.043,1.607-0.681,2.659-2.167,3.156
			c-6.241,2.441-9.354,3.665-15.592,6.115c-1.488,0.502-2.255-0.049-2.301-1.656c-0.115-3.989-0.173-5.981-0.288-9.97
			c-0.033-1.146-0.467-2.111-1.297-2.888s-1.825-1.152-2.979-1.118c-0.555,0.016-0.833,0.024-1.388,0.041
			c-1.156,0.034-2.127,0.467-2.91,1.292c-0.786,0.827-1.161,1.813-1.127,2.958c0.6,20.172,1.197,40.345,1.796,60.517
			c0.034,1.147,0.466,2.11,1.292,2.887c0.826,0.777,1.814,1.149,2.964,1.115c0.551-0.016,0.826-0.023,1.377-0.04
			c1.147-0.034,2.112-0.461,2.896-1.288c0.773-0.824,1.149-1.811,1.122-2.958c-0.215-7.427-0.321-11.141-0.536-18.568
			c-1.938,0.056-2.899,0.083-4.833,0.139c-0.229-7.84-0.344-11.759-0.573-19.599c9.063-0.265,13.59-0.393,22.65-0.64
			c1.607-0.044,2.438,0.737,2.479,2.341c0.334,12.208,0.659,24.416,0.992,36.623c0.081,2.982-0.419,5.806-1.494,8.471
			c-1.076,2.669-2.563,5.003-4.459,7.004c-1.896,2.004-4.146,3.616-6.753,4.834c-2.604,1.219-5.396,1.874-8.378,1.96
			c-2.614,0.076-3.921,0.114-6.536,0.191c-2.979,0.088-5.809-0.404-8.479-1.467c-2.675-1.064-5.02-2.543-7.023-4.431
			c-2.009-1.887-3.632-4.134-4.861-6.733c-1.229-2.598-1.893-5.388-1.98-8.369c-0.652-20.744-1.305-41.488-1.956-62.232
			c-0.095-2.979,0.396-5.806,1.47-8.479c1.072-2.67,2.563-5.01,4.467-7.021c1.905-2.008,4.177-3.626,6.805-4.854
			c2.625-1.225,5.438-1.884,8.45-1.973c2.642-0.078,3.955-0.118,6.598-0.194C474.749,72.34,477.601,72.834,480.294,73.904z"/>
		<path fill="#754C29" d="M557.917,154.209c0.063,2.982-0.45,5.802-1.539,8.462c-1.091,2.664-2.591,4.989-4.497,6.98
			c-1.909,1.994-4.167,3.593-6.775,4.797c-2.608,1.205-5.405,1.846-8.392,1.916c-2.614,0.062-3.921,0.093-6.535,0.156
			c-2.979,0.072-5.806-0.436-8.471-1.514c-2.667-1.079-5-2.571-6.999-4.469s-3.609-4.152-4.824-6.758
			c-1.214-2.604-1.863-5.397-1.938-8.379c-0.538-20.748-1.078-41.496-1.618-62.244c-0.078-2.979,0.427-5.804,1.514-8.472
			c1.086-2.664,2.588-4.996,4.506-6.996c1.916-1.998,4.19-3.604,6.824-4.816c2.631-1.211,5.452-1.855,8.463-1.928
			c2.638-0.063,3.958-0.095,6.597-0.157c3.012-0.071,5.857,0.436,8.549,1.521c2.687,1.084,5.033,2.583,7.048,4.488
			c2.008,1.904,3.62,4.164,4.832,6.773c1.214,2.611,1.854,5.41,1.92,8.39C557.02,112.71,557.47,133.459,557.917,154.209z
			 M536.317,93.276c-0.026-1.145-0.455-2.112-1.28-2.894c-0.826-0.782-1.821-1.163-2.975-1.136c-0.56,0.013-0.834,0.02-1.392,0.033
			c-1.157,0.028-2.13,0.456-2.917,1.275c-0.79,0.822-1.171,1.808-1.143,2.952c0.484,20.175,0.976,40.351,1.47,60.525
			c0.028,1.147,0.453,2.113,1.272,2.895c0.818,0.782,1.812,1.16,2.959,1.132c0.554-0.013,0.824-0.019,1.381-0.032
			c1.146-0.027,2.108-0.452,2.896-1.273c0.783-0.82,1.166-1.804,1.145-2.951C537.262,133.627,536.792,113.453,536.317,93.276z"/>
		<path fill="#754C29" d="M616.554,155.841c0.104,6.122,0.153,9.183,0.255,15.305c0.026,1.607-0.764,2.421-2.363,2.448
			c-9.289,0.156-13.938,0.238-23.229,0.412c-0.138,0.002-0.208,0.004-0.345,0.006c-0.069,0.001-0.102,0.003-0.17,0.004
			c-6.125,0.115-9.188,0.175-15.313,0.298c-1.604,0.032-2.424-0.751-2.456-2.358c-0.669-32.787-1.339-65.575-2.006-98.362
			c-0.028-1.604,0.764-2.424,2.381-2.457c6.186-0.125,9.271-0.186,15.449-0.302c1.619-0.03,2.445,0.758,2.479,2.362
			c0.5,26.884,0.998,53.768,1.503,80.652c8.548-0.159,12.817-0.235,21.37-0.378C615.713,153.446,616.528,154.237,616.554,155.841z"
			/>
		<path fill="#754C29" d="M655.761,69.77c3.008-0.039,5.854,0.499,8.524,1.611c2.674,1.113,5.012,2.635,7,4.561
			c1.986,1.925,3.577,4.204,4.762,6.826c1.188,2.623,1.795,5.429,1.828,8.409c0.221,19.95,0.438,39.9,0.667,59.85
			c0.033,2.983-0.511,5.798-1.628,8.446c-1.119,2.651-2.646,4.963-4.572,6.934c-1.93,1.973-4.205,3.549-6.827,4.727
			c-2.625,1.179-5.428,1.786-8.409,1.825c-10.316,0.135-15.479,0.208-25.808,0.366c-1.604,0.024-2.421-0.765-2.446-2.372
			c-0.505-32.79-1.014-65.58-1.521-98.37c-0.025-1.604,0.771-2.419,2.395-2.444C640.136,69.979,645.345,69.905,655.761,69.77z
			 M657.613,92.279c-0.021-1.145-0.438-2.119-1.255-2.909c-0.816-0.791-1.811-1.18-2.959-1.165
			c-2.224,0.029-3.326,0.045-5.551,0.075c0.31,22.128,0.61,44.256,0.911,66.384c2.206-0.03,3.313-0.045,5.519-0.075
			c1.146-0.015,2.12-0.429,2.915-1.243c0.792-0.811,1.186-1.791,1.171-2.938C658.11,131.032,657.862,111.655,657.613,92.279z"/>
		<path fill="#754C29" d="M734.575,154.496c0.038,6.123,0.058,9.184,0.096,15.307c0.01,1.607-0.788,2.414-2.393,2.424
			c-12.441,0.078-24.884,0.181-37.323,0.303c-1.607,0.016-2.417-0.777-2.434-2.385c-0.32-32.792-0.655-65.584-0.979-98.376
			c-0.016-1.604,0.78-2.417,2.402-2.432c12.554-0.121,25.104-0.225,37.654-0.305c1.619-0.01,2.438,0.788,2.445,2.392
			c0.038,6.123,0.063,9.184,0.098,15.307c0.016,1.607-0.795,2.414-2.405,2.424c-7.9,0.051-11.854,0.079-19.751,0.144
			c0.063,7.843,0.098,11.765,0.161,19.607c6.85-0.056,10.271-0.081,17.118-0.127c1.613-0.011,2.43,0.787,2.438,2.392
			c0.04,6.123,0.059,9.185,0.099,15.308c0.016,1.607-0.789,2.412-2.396,2.422c-6.837,0.046-10.256,0.071-17.094,0.127
			c0.072,9.288,0.109,13.932,0.188,23.22c7.856-0.064,11.786-0.093,19.646-0.144C733.755,152.092,734.564,152.891,734.575,154.496z"
			/>
		<path fill="#754C29" d="M803.46,71.196c0.011,32.793,0.021,65.587,0.025,98.38c0,1.607-0.808,2.408-2.406,2.409
			c-4.403,0.002-6.604,0.004-11.008,0.011c-0.688,0.001-1.354-0.229-1.98-0.685c-0.63-0.457-1.063-0.97-1.293-1.544
			c-6.104-14.958-12.231-29.905-18.382-44.847c0.046,14.906,0.097,29.813,0.146,44.719c0.006,1.607-0.802,2.412-2.4,2.418
			c-6.123,0.021-9.188,0.033-15.313,0.063c-1.604,0.008-2.416-0.789-2.424-2.396c-0.158-32.793-0.332-65.587-0.497-98.38
			c-0.008-1.604,0.796-2.412,2.418-2.419c4.582-0.022,6.872-0.034,11.454-0.052c0.694-0.002,1.363,0.227,1.999,0.682
			c0.641,0.455,1.073,0.972,1.313,1.544c6.063,16.66,12.12,33.324,18.145,49.999c-0.021-16.626-0.063-33.252-0.098-49.878
			c-0.003-1.604,0.803-2.41,2.425-2.413c6.179-0.011,9.269-0.015,15.446-0.018C802.648,68.788,803.46,69.592,803.46,71.196z"/>
		<path fill="#754C29" d="M888.131,71.484c-0.043,6.123-0.063,9.184-0.104,15.307c-0.017,1.607-0.826,2.401-2.442,2.39
			c-4.92-0.034-7.381-0.05-12.301-0.078c-0.152,26.889-0.313,53.777-0.473,80.666c-0.01,1.607-0.813,2.402-2.422,2.394
			c-6.123-0.034-9.186-0.048-15.309-0.074c-0.575-0.002-1.117-0.234-1.631-0.694c-0.519-0.459-0.771-1.036-0.771-1.724
			c0.109-26.889,0.217-53.777,0.327-80.666c-4.852-0.02-7.272-0.028-12.128-0.043c-1.619-0.005-2.427-0.807-2.422-2.414
			c0.017-6.123,0.027-9.185,0.044-15.308c0.005-1.604,0.814-2.406,2.438-2.401c14.929,0.052,29.854,0.126,44.775,0.221
			C887.339,69.07,888.143,69.88,888.131,71.484z"/>
		<path fill="#754C29" d="M919.604,170.135c-0.016,1.607-0.823,2.4-2.433,2.385c-6.123-0.059-9.182-0.085-15.305-0.137
			c-1.607-0.013-2.401-0.82-2.395-2.428c0.265-32.793,0.533-65.586,0.803-98.38c0.014-1.604,0.827-2.401,2.447-2.388
			c6.185,0.051,9.271,0.08,15.446,0.14c1.619,0.016,2.42,0.827,2.404,2.431C920.253,104.551,919.932,137.343,919.604,170.135z"/>
		<path fill="#754C29" d="M971.458,70.481c2.643,1.183,4.936,2.768,6.872,4.745c1.936,1.977,3.466,4.295,4.58,6.948
			c1.114,2.654,1.646,5.476,1.603,8.456c-0.063,4.127-0.096,6.191-0.154,10.318c-0.023,1.607-0.792,2.627-2.303,3.061
			c-6.313,0.867-9.47,1.303-15.777,2.179c-1.511,0.439-2.249-0.145-2.229-1.751c0.072-5.297,0.108-7.945,0.187-13.242
			c0.017-1.145-0.384-2.128-1.18-2.94s-1.771-1.229-2.93-1.244c-0.556-0.007-0.832-0.011-1.388-0.018
			c-1.156-0.015-2.146,0.375-2.963,1.165c-0.818,0.792-1.233,1.763-1.25,2.908c-0.266,20.179-0.522,40.359-0.778,60.538
			c-0.017,1.147,0.377,2.127,1.17,2.939c0.791,0.812,1.763,1.227,2.912,1.242c0.553,0.007,0.827,0.011,1.379,0.019
			c1.146,0.015,2.131-0.372,2.946-1.164c0.813-0.791,1.229-1.76,1.246-2.908c0.109-8.255,0.171-12.382,0.279-20.637
			c0.021-1.604,0.773-2.167,2.271-1.689c6.271,0.913,9.412,1.37,15.686,2.292c1.488,0.482,2.227,1.526,2.197,3.131
			c-0.111,7.223-0.166,10.835-0.277,18.058c-0.046,2.982-0.667,5.781-1.854,8.399c-1.188,2.621-2.772,4.891-4.752,6.81
			c-1.98,1.922-4.298,3.437-6.949,4.542c-2.656,1.107-5.476,1.644-8.455,1.603c-2.614-0.036-3.921-0.052-6.535-0.086
			c-2.979-0.039-5.783-0.649-8.403-1.826c-2.625-1.177-4.901-2.755-6.829-4.726c-1.932-1.971-3.454-4.284-4.57-6.934
			c-1.117-2.648-1.661-5.463-1.629-8.446c0.229-20.753,0.458-41.506,0.688-62.259c0.033-2.98,0.646-5.783,1.83-8.409
			c1.188-2.622,2.771-4.897,4.765-6.825c1.984-1.925,4.315-3.446,6.992-4.56c2.678-1.113,5.521-1.652,8.53-1.613
			c2.643,0.034,3.957,0.052,6.597,0.087C965.979,68.685,968.813,69.297,971.458,70.481z"/>
		<path fill="#754C29" d="M1054.42,72.223c0.221,0.519,0.206,1.065-0.037,1.633c-8.176,14.442-16.327,28.897-24.449,43.369
			c7.359,18.316,14.693,36.643,21.996,54.982c0.221,0.58,0.147,1.122-0.208,1.631c-0.354,0.509-0.876,0.755-1.563,0.74
			c-6.813-0.145-10.22-0.215-17.031-0.35c-0.688-0.014-1.313-0.227-1.881-0.638c-0.563-0.412-0.957-0.906-1.175-1.485
			c-4.004-9.599-8.021-19.193-12.033-28.786c-1.214,2.18-1.821,3.27-3.034,5.45c-0.165,9.08-0.247,13.619-0.412,22.699
			c-0.024,1.607-0.849,2.394-2.453,2.365c-6.124-0.11-9.188-0.164-15.312-0.266c-1.607-0.027-2.396-0.84-2.367-2.448
			c0.533-32.79,1.081-65.579,1.614-98.369c0.021-1.604,0.85-2.393,2.472-2.366c6.18,0.103,9.271,0.156,15.446,0.267
			c1.619,0.029,2.417,0.848,2.388,2.452c-0.181,10.031-0.362,20.063-0.548,30.094c5.498-10.051,11.004-20.096,16.521-30.137
			c0.604-1.364,1.721-2.03,3.343-1.998c6.938,0.138,10.416,0.208,17.354,0.356C1053.741,71.434,1054.199,71.703,1054.42,72.223z"/>
		<path fill="#754C29" d="M1106.355,158.192c-0.158,6.121-0.238,9.18-0.398,15.301c-0.042,1.607-0.87,2.386-2.477,2.344
			c-12.439-0.325-24.887-0.623-37.323-0.907c-1.607-0.037-2.396-0.854-2.354-2.462c0.733-32.786,1.479-65.572,2.207-98.357
			c0.036-1.604,0.863-2.39,2.485-2.354c12.555,0.288,25.108,0.589,37.663,0.916c1.619,0.042,2.406,0.866,2.365,2.47
			c-0.159,6.121-0.239,9.183-0.399,15.304c-0.042,1.604-0.871,2.385-2.487,2.343c-7.896-0.205-11.851-0.303-19.751-0.495
			c-0.188,7.841-0.285,11.761-0.475,19.602c6.85,0.166,10.271,0.252,17.122,0.428c1.607,0.042,2.396,0.866,2.354,2.47
			c-0.157,6.121-0.237,9.181-0.396,15.302c-0.042,1.606-0.869,2.386-2.479,2.345c-6.837-0.176-10.255-0.261-17.093-0.427
			c-0.228,9.285-0.336,13.927-0.563,23.212c7.856,0.19,11.781,0.291,19.645,0.494
			C1105.61,155.763,1106.399,156.588,1106.355,158.192z"/>
		<path fill="#754C29" d="M1169.427,76.897c-0.188,6.12-0.287,9.181-0.479,15.301c-0.052,1.606-0.886,2.38-2.501,2.33
			c-4.921-0.154-7.382-0.229-12.303-0.377c-0.813,26.877-1.618,53.754-2.436,80.631c-0.049,1.607-0.877,2.382-2.479,2.334
			c-6.123-0.183-9.188-0.271-15.313-0.447c-0.574-0.017-1.107-0.262-1.611-0.734c-0.502-0.472-0.742-1.055-0.728-1.742
			c0.764-26.878,1.529-53.756,2.288-80.635c-4.854-0.138-7.277-0.205-12.129-0.337c-1.619-0.044-2.403-0.866-2.359-2.472
			c0.166-6.121,0.249-9.183,0.415-15.304c0.044-1.604,0.875-2.385,2.497-2.341c14.927,0.417,29.854,0.854,44.777,1.312
			C1168.696,74.466,1169.479,75.293,1169.427,76.897z"/>
	</g>
</g>
<linearGradient id="SVGID_13_" gradientUnits="userSpaceOnUse" x1="2022.1445" y1="481.2754" x2="2265.5088" y2="481.2754" gradientTransform="matrix(1 0 0 1 -1197.9609 -422.7598)">
	<stop  offset="0" style="stop-color:#FECD8A"/>
	<stop  offset="1" style="stop-color:#FCDDE2"/>
</linearGradient>
<path fill="url(#SVGID_13_)" stroke="#603913" stroke-width="5" stroke-miterlimit="10" d="M832.06,102.643
	c16.166,23.898,79.226,36.611,101.995,29.999c46.498-13.5,75.848-47.898,100.495-68.997c26.999-23.107,32.998-68.605,32.998-68.605
	L887.557-17.352C887.557-17.352,797.563,51.646,832.06,102.643z"/>
<linearGradient id="SVGID_14_" gradientUnits="userSpaceOnUse" x1="2035.248" y1="474.7959" x2="2174.2607" y2="474.7959" gradientTransform="matrix(1 0 0 1 -1197.9609 -422.7598)">
	<stop  offset="0" style="stop-color:#ED1E24"/>
	<stop  offset="1" style="stop-color:#B91F3C"/>
</linearGradient>
<path fill="url(#SVGID_14_)" stroke="#710F12" stroke-width="5" stroke-miterlimit="10" d="M842.428,79.711
	c9.772,14.449,47.896,22.135,61.664,18.137c28.113-8.162,78.961-42.206,71.462-64.705c-8.647-25.96-91.207-32.665-99.573-24.979
	C870.559,13.145,821.57,48.878,842.428,79.711z"/>
<path fill="#FFFFFF" d="M874.227,19.661c-27.547,26.531-31.666,45.481-31.666,45.481s40.498-32.498,47.498-49.272
	C891.73,11.862,874.227,19.661,874.227,19.661z"/>
<path fill="none" stroke="#603913" stroke-width="8" stroke-miterlimit="10" d="M469.581,207.137l3,94.936
	c0,0-39.499,14.926-39.5,62.556c-0.001,51.389,47,61.055,47,61.055l4.5,92.438"/>
<circle fill="#603913" stroke="#603913" stroke-width="4" stroke-miterlimit="10" cx="552.574" cy="327.136" r="14.999"/>
<line fill="none" stroke="#603913" stroke-width="9" stroke-miterlimit="10" x1="555.075" y1="328.636" x2="1038.05" y2="328.636"/>
<path fill="#603913" d="M573.157,392.305c0.919,0.4,1.719,0.941,2.396,1.621c0.686,0.682,1.225,1.48,1.62,2.4
	c0.399,0.92,0.604,1.898,0.604,2.938v2.281c0,0.561-0.266,0.92-0.779,1.08l-5.46,1.439c-0.521,0.16-0.78-0.039-0.78-0.604v-3.896
	c0-0.398-0.141-0.74-0.42-1.021c-0.28-0.279-0.621-0.42-1.021-0.42h-0.479c-0.4,0-0.74,0.141-1.021,0.42
	c-0.28,0.281-0.425,0.621-0.425,1.021v3.658c0.04,0.438,0.12,0.815,0.24,1.143c0.12,0.32,0.339,0.639,0.66,0.959l7.86,5.881
	c0.639,0.561,1.05,1.131,1.229,1.709c0.18,0.58,0.313,1.229,0.394,1.951v6.119c0,1.041-0.199,2.02-0.604,2.938
	c-0.396,0.92-0.938,1.721-1.62,2.4c-0.681,0.679-1.479,1.221-2.396,1.619c-0.922,0.396-1.9,0.6-2.94,0.6h-2.28
	c-1.041,0-2.02-0.199-2.938-0.6c-0.92-0.398-1.724-0.939-2.4-1.619c-0.681-0.687-1.221-1.48-1.62-2.4
	c-0.396-0.92-0.6-1.896-0.6-2.938v-3.359c0-0.561,0.26-0.92,0.78-1.08l5.46-1.439c0.52-0.16,0.774,0.039,0.774,0.604v4.979
	c0,0.397,0.146,0.739,0.425,1.021c0.274,0.281,0.615,0.42,1.021,0.42h0.479c0.396,0,0.734-0.139,1.021-0.42
	c0.28-0.279,0.42-0.619,0.42-1.021v-3.722c-0.041-0.521-0.12-0.979-0.24-1.381c-0.119-0.396-0.354-0.76-0.72-1.08l-7.74-5.938
	c-0.6-0.563-1.025-1.12-1.29-1.684c-0.261-0.561-0.39-1.299-0.39-2.221v-5.398c0-1.039,0.2-2.02,0.6-2.938
	c0.4-0.92,0.939-1.723,1.62-2.4c0.685-0.679,1.479-1.221,2.4-1.619c0.92-0.396,1.896-0.602,2.938-0.602h2.28
	C571.256,391.707,572.236,391.906,573.157,392.305z"/>
<path fill="#603913" d="M594.456,392.305c0.92,0.4,1.72,0.941,2.399,1.621c0.681,0.682,1.221,1.48,1.615,2.4
	c0.399,0.92,0.604,1.898,0.604,2.938v3.604c0,0.562-0.263,0.92-0.78,1.077l-5.46,0.843c-0.521,0.157-0.78-0.039-0.78-0.604v-4.617
	c0-0.396-0.141-0.735-0.42-1.021c-0.28-0.278-0.621-0.42-1.02-0.42h-0.48c-0.396,0-0.741,0.142-1.02,0.42
	c-0.28,0.279-0.42,0.621-0.42,1.021v21.117c0,0.4,0.14,0.742,0.42,1.021c0.273,0.281,0.619,0.42,1.02,0.42h0.48
	c0.396,0,0.734-0.139,1.02-0.42c0.279-0.279,0.42-0.619,0.42-1.021v-7.197c0-0.561,0.262-0.762,0.78-0.602l5.46,0.721
	c0.52,0.16,0.78,0.521,0.78,1.078v6.308c0,1.039-0.201,2.02-0.604,2.938c-0.396,0.922-0.938,1.725-1.615,2.4
	c-0.685,0.682-1.479,1.221-2.399,1.621c-0.92,0.396-1.9,0.6-2.94,0.6h-2.275c-1.041,0-2.021-0.201-2.939-0.6
	c-0.921-0.4-1.721-0.939-2.396-1.621c-0.685-0.685-1.224-1.479-1.619-2.4c-0.399-0.92-0.604-1.896-0.604-2.938v-21.728
	c0-1.039,0.2-2.018,0.604-2.938c0.396-0.92,0.938-1.721,1.619-2.4c0.682-0.679,1.479-1.221,2.396-1.621
	c0.919-0.396,1.898-0.6,2.939-0.6h2.275C592.556,391.707,593.536,391.906,594.456,392.305z"/>
<path fill="#603913" d="M620.376,420.986c0,1.041-0.199,2.02-0.6,2.938c-0.401,0.919-0.939,1.721-1.619,2.4
	c-0.688,0.68-1.48,1.221-2.4,1.619c-0.922,0.396-1.901,0.6-2.938,0.6h-2.279c-1.041,0-2.021-0.199-2.94-0.6
	c-0.921-0.398-1.721-0.939-2.396-1.619c-0.686-0.687-1.222-1.48-1.619-2.4c-0.4-0.92-0.604-1.896-0.604-2.938v-21.721
	c0-1.039,0.199-2.021,0.604-2.939c0.396-0.92,0.938-1.719,1.619-2.4c0.681-0.68,1.479-1.219,2.396-1.619
	c0.919-0.396,1.899-0.6,2.94-0.6h2.279c1.036,0,2.019,0.199,2.938,0.6c0.919,0.401,1.719,0.939,2.4,1.619
	c0.68,0.682,1.219,1.48,1.619,2.4c0.396,0.922,0.6,1.9,0.6,2.939V420.986z M613.356,399.566c0-0.398-0.146-0.74-0.426-1.021
	c-0.274-0.279-0.615-0.42-1.02-0.42h-0.48c-0.396,0-0.736,0.141-1.02,0.42c-0.28,0.281-0.42,0.621-0.42,1.021v21.119
	c0,0.396,0.14,0.735,0.42,1.021c0.278,0.279,0.62,0.42,1.02,0.42h0.48c0.396,0,0.739-0.141,1.02-0.42
	c0.281-0.279,0.426-0.621,0.426-1.021V399.566z"/>
<path fill="#603913" d="M632.196,427.287c0,0.561-0.307,0.84-0.9,0.84h-5.34c-0.521,0-0.779-0.279-0.779-0.84v-34.32
	c0-0.561,0.279-0.84,0.84-0.84h9c1.039,0,2.021,0.199,2.939,0.6c0.92,0.4,1.719,0.939,2.399,1.619c0.681,0.682,1.22,1.48,1.614,2.4
	c0.4,0.922,0.604,1.9,0.604,2.939v7.381c0,1.479-0.439,2.811-1.318,3.988c-0.881,1.182-1.938,2.092-3.182,2.729l5.701,13.5
	c0.113,0.561-0.08,0.84-0.604,0.84h-5.461c-0.24,0-0.471-0.08-0.688-0.24c-0.226-0.158-0.37-0.354-0.45-0.6l-4.379-11.104
	L632.196,427.287L632.196,427.287z M632.196,408.207h1.92c0.396,0,0.739-0.141,1.02-0.42c0.279-0.279,0.42-0.621,0.42-1.021v-6.779
	c0-0.396-0.141-0.735-0.42-1.021c-0.274-0.278-0.621-0.42-1.02-0.42h-1.92V408.207z"/>
<path fill="#603913" d="M662.436,421.947v5.34c0,0.561-0.275,0.84-0.842,0.84h-13.02c-0.563,0-0.841-0.279-0.841-0.84v-34.32
	c0-0.561,0.274-0.84,0.841-0.84h13.02c0.563,0,0.842,0.279,0.842,0.84v5.34c0,0.563-0.275,0.84-0.842,0.84h-6.84v6.842h5.941
	c0.559,0,0.84,0.279,0.84,0.845v5.34c0,0.563-0.281,0.841-0.84,0.841h-5.941v8.104h6.84
	C662.155,421.107,662.436,421.387,662.436,421.947z"/>
<path fill="#603913" d="M666.034,401.607c0-1.041,0.381-1.941,1.141-2.701s1.658-1.141,2.699-1.141s1.938,0.381,2.701,1.141
	c0.758,0.76,1.139,1.66,1.139,2.701c0,1.039-0.381,1.938-1.139,2.697c-0.768,0.762-1.66,1.143-2.701,1.143s-1.939-0.381-2.699-1.143
	C666.415,403.547,666.034,402.646,666.034,401.607z M666.034,415.107c0-1.041,0.381-1.941,1.141-2.701s1.658-1.141,2.699-1.141
	s1.938,0.381,2.701,1.141c0.758,0.76,1.139,1.66,1.139,2.701c0,1.039-0.381,1.938-1.139,2.697c-0.768,0.762-1.66,1.143-2.701,1.143
	s-1.939-0.381-2.699-1.143C666.415,417.047,666.034,416.146,666.034,415.107z"/>
<path fill="#603913" d="M862.641,395.303c0.92,0.4,1.725,0.941,2.4,1.621s1.219,1.48,1.619,2.4c0.396,0.92,0.601,1.898,0.601,2.938
	v2.281c0,0.561-0.261,0.92-0.775,1.08l-5.46,1.439c-0.521,0.16-0.779-0.041-0.779-0.604v-3.896c0-0.398-0.146-0.74-0.42-1.021
	c-0.28-0.279-0.62-0.42-1.021-0.42h-0.479c-0.4,0-0.74,0.141-1.021,0.42c-0.275,0.281-0.42,0.621-0.42,1.021v3.653
	c0.039,0.441,0.12,0.82,0.239,1.146c0.12,0.318,0.34,0.64,0.66,0.959l7.854,5.882c0.646,0.562,1.055,1.131,1.229,1.709
	c0.181,0.58,0.31,1.229,0.391,1.95v6.12c0,1.035-0.2,2.02-0.601,2.938c-0.4,0.92-0.939,1.721-1.619,2.4
	c-0.682,0.68-1.48,1.221-2.4,1.617c-0.921,0.396-1.896,0.602-2.938,0.602h-2.279c-1.041,0-2.021-0.199-2.938-0.602
	c-0.924-0.396-1.725-0.938-2.398-1.617c-0.681-0.687-1.221-1.48-1.619-2.4c-0.397-0.92-0.602-1.899-0.602-2.938v-3.359
	c0-0.562,0.261-0.92,0.775-1.08l5.46-1.438c0.521-0.16,0.78,0.039,0.78,0.604v4.979c0,0.4,0.145,0.742,0.42,1.021
	c0.279,0.281,0.619,0.42,1.021,0.42h0.479c0.399,0,0.739-0.139,1.021-0.42c0.273-0.279,0.42-0.619,0.42-1.021v-3.719
	c-0.04-0.521-0.12-0.979-0.239-1.381c-0.12-0.396-0.359-0.76-0.722-1.08l-7.738-5.938c-0.602-0.563-1.031-1.118-1.29-1.682
	c-0.261-0.563-0.392-1.301-0.392-2.223v-5.396c0-1.039,0.195-2.021,0.602-2.938c0.398-0.92,0.938-1.724,1.619-2.397
	c0.68-0.683,1.479-1.224,2.399-1.621c0.92-0.396,1.896-0.603,2.938-0.603h2.279C860.741,394.705,861.72,394.904,862.641,395.303z"/>
<path fill="#603913" d="M886.82,395.963v5.34c0,0.563-0.28,0.84-0.842,0.84h-4.265v28.146c0,0.561-0.276,0.84-0.84,0.84h-5.34
	c-0.2,0-0.396-0.08-0.57-0.24c-0.176-0.158-0.27-0.354-0.27-0.6v-28.146h-4.2c-0.563,0-0.84-0.272-0.84-0.84v-5.34
	c0-0.559,0.273-0.84,0.84-0.84h15.479C886.54,395.125,886.82,395.404,886.82,395.963z"/>
<path fill="#603913" d="M906.62,430.285c0.08,0.561-0.16,0.84-0.721,0.84h-5.459c-0.521,0-0.82-0.279-0.9-0.84l-0.479-5.881h-3.72
	l-0.479,5.881c-0.08,0.561-0.382,0.84-0.899,0.84h-5.46c-0.562,0-0.801-0.279-0.721-0.84l4.5-34.32c0.08-0.561,0.396-0.84,0.96-0.84
	h7.92c0.56,0,0.88,0.279,0.96,0.84L906.62,430.285z M898.58,417.684l-1.141-13.26h-0.479l-1.142,13.26H898.58z"/>
<path fill="#603913" d="M917.599,430.285c0,0.561-0.3,0.84-0.896,0.84h-5.34c-0.521,0-0.78-0.279-0.78-0.84v-34.32
	c0-0.561,0.278-0.84,0.84-0.84h9c1.04,0,2.021,0.199,2.939,0.6c0.918,0.401,1.72,0.939,2.396,1.619c0.685,0.682,1.22,1.48,1.62,2.4
	c0.399,0.922,0.6,1.9,0.6,2.939v7.381c0,1.479-0.438,2.811-1.313,3.983c-0.882,1.187-1.94,2.097-3.187,2.729l5.7,13.502
	c0.12,0.561-0.08,0.84-0.6,0.84h-5.46c-0.24,0-0.476-0.08-0.69-0.24c-0.22-0.158-0.37-0.354-0.45-0.6l-4.38-11.104L917.599,430.285
	L917.599,430.285z M917.599,411.205h1.92c0.399,0,0.74-0.141,1.021-0.42c0.279-0.279,0.42-0.621,0.42-1.021v-6.779
	c0-0.396-0.141-0.735-0.42-1.021c-0.28-0.278-0.621-0.42-1.021-0.42h-1.92V411.205z"/>
<path fill="#603913" d="M945.019,395.303c0.925,0.4,1.726,0.941,2.4,1.621s1.219,1.48,1.619,2.4c0.396,0.92,0.601,1.898,0.601,2.938
	v2.281c0,0.561-0.261,0.92-0.775,1.08l-5.459,1.439c-0.521,0.16-0.78-0.041-0.78-0.604v-3.896c0-0.398-0.144-0.74-0.42-1.021
	c-0.28-0.279-0.62-0.42-1.021-0.42h-0.479c-0.4,0-0.74,0.141-1.021,0.42c-0.275,0.281-0.42,0.621-0.42,1.021v3.653
	c0.039,0.441,0.12,0.82,0.239,1.146c0.12,0.318,0.34,0.64,0.66,0.959l7.854,5.882c0.646,0.562,1.055,1.131,1.229,1.709
	c0.181,0.58,0.31,1.229,0.391,1.95v6.12c0,1.035-0.199,2.02-0.601,2.938c-0.4,0.92-0.939,1.721-1.619,2.4
	c-0.681,0.68-1.479,1.221-2.4,1.617s-1.896,0.602-2.938,0.602H939.8c-1.041,0-2.021-0.199-2.938-0.602
	c-0.923-0.396-1.726-0.938-2.399-1.617c-0.681-0.687-1.22-1.48-1.619-2.4c-0.396-0.92-0.601-1.899-0.601-2.938v-3.359
	c0-0.562,0.26-0.92,0.774-1.08l5.461-1.438c0.521-0.16,0.779,0.039,0.779,0.604v4.979c0,0.4,0.146,0.742,0.42,1.021
	c0.279,0.281,0.619,0.42,1.021,0.42h0.479c0.399,0,0.739-0.139,1.021-0.42c0.274-0.279,0.42-0.619,0.42-1.021v-3.719
	c-0.04-0.521-0.12-0.979-0.239-1.381c-0.12-0.396-0.358-0.76-0.721-1.08l-7.739-5.938c-0.601-0.563-1.031-1.118-1.29-1.682
	c-0.261-0.563-0.391-1.301-0.391-2.223v-5.396c0-1.039,0.195-2.021,0.601-2.938c0.399-0.92,0.939-1.724,1.619-2.397
	c0.68-0.681,1.479-1.224,2.4-1.621c0.92-0.396,1.896-0.603,2.938-0.603h2.279C943.119,394.705,944.098,394.904,945.019,395.303z"/>
<path fill="#603913" d="M952.638,404.604c0-1.039,0.38-1.938,1.146-2.699c0.76-0.76,1.658-1.141,2.695-1.141
	c1.039,0,1.938,0.381,2.699,1.141c0.76,0.765,1.145,1.66,1.145,2.699c0,1.041-0.381,1.941-1.145,2.699
	c-0.761,0.762-1.66,1.143-2.699,1.143c-1.041,0-1.938-0.381-2.695-1.143C953.018,406.545,952.638,405.645,952.638,404.604z
	 M952.638,418.104c0-1.039,0.38-1.938,1.146-2.699c0.76-0.76,1.658-1.141,2.695-1.141c1.039,0,1.938,0.381,2.699,1.141
	c0.76,0.765,1.145,1.66,1.145,2.699c0,1.041-0.381,1.941-1.145,2.699c-0.761,0.767-1.66,1.146-2.699,1.146
	c-1.041,0-1.938-0.381-2.695-1.146C953.018,420.045,952.638,419.145,952.638,418.104z"/>
<path fill="none" stroke="#603913" stroke-width="8" stroke-miterlimit="10" d="M1135.054,202.135l-3,94.936
	c0,0,39.499,14.925,39.5,62.556c0.002,51.389-47,61.055-47,61.055l-4.5,92.438"/>
<path fill="#603913" d="M557.995,482.682v4.273c0,0.447-0.229,0.672-0.672,0.672h-10.416c-0.449,0-0.672-0.225-0.672-0.672v-27.457
	c0-0.447,0.223-0.672,0.672-0.672h10.416c0.442,0,0.672,0.225,0.672,0.672v4.271c0,0.449-0.229,0.679-0.672,0.679h-5.478v5.471
	h4.752c0.448,0,0.677,0.225,0.677,0.672v4.271c0,0.444-0.229,0.674-0.677,0.674h-4.752v6.479h5.478
	C557.771,482.01,557.995,482.236,557.995,482.682z"/>
<path fill="#603913" d="M575.563,487.627h-4.465c-0.443,0-0.703-0.223-0.768-0.672l-1.824-7.104l-1.824,7.104
	c-0.063,0.449-0.314,0.672-0.768,0.672h-4.464c-0.192,0-0.344-0.063-0.456-0.191c-0.113-0.127-0.138-0.284-0.072-0.479l3.938-13.777
	l-3.938-13.68c-0.063-0.16-0.041-0.313,0.072-0.455c0.112-0.145,0.264-0.217,0.456-0.217h4.464c0.448,0,0.704,0.225,0.768,0.672
	l1.824,7.104l1.824-7.104c0.063-0.447,0.318-0.672,0.768-0.672h4.465c0.191,0,0.349,0.072,0.455,0.217
	c0.112,0.146,0.142,0.295,0.072,0.455l-3.936,13.68l3.936,13.777C576.186,487.404,576.01,487.627,575.563,487.627z"/>
<path fill="#603913" d="M589.481,458.971c0.731,0.32,1.375,0.752,1.92,1.295c0.544,0.546,0.977,1.188,1.297,1.921
	c0.313,0.737,0.479,1.521,0.479,2.354v2.881c0,0.447-0.208,0.736-0.624,0.863l-4.368,0.672c-0.416,0.129-0.624-0.031-0.624-0.48
	v-3.688c0-0.32-0.106-0.592-0.336-0.816c-0.224-0.225-0.497-0.336-0.813-0.336h-0.384c-0.32,0-0.599,0.111-0.816,0.336
	c-0.224,0.229-0.336,0.496-0.336,0.816v16.895c0,0.32,0.112,0.599,0.336,0.816c0.224,0.225,0.496,0.336,0.816,0.336h0.384
	c0.313,0,0.592-0.111,0.813-0.336c0.229-0.227,0.336-0.496,0.336-0.816v-5.76c0-0.447,0.208-0.604,0.624-0.479l4.368,0.571
	c0.416,0.13,0.624,0.416,0.624,0.865v5.039c0,0.832-0.161,1.617-0.479,2.354c-0.32,0.734-0.752,1.378-1.297,1.921
	c-0.545,0.547-1.188,0.979-1.92,1.299c-0.735,0.313-1.521,0.479-2.354,0.479h-1.824c-0.833,0-1.611-0.158-2.352-0.479
	c-0.736-0.32-1.376-0.752-1.92-1.299c-0.544-0.543-0.979-1.187-1.296-1.921c-0.32-0.733-0.48-1.521-0.48-2.354v-17.375
	c0-0.832,0.16-1.615,0.48-2.354c0.313-0.734,0.751-1.375,1.296-1.924c0.543-0.544,1.184-0.978,1.92-1.298
	c0.736-0.313,1.52-0.479,2.352-0.479h1.824C587.962,458.492,588.745,458.652,589.481,458.971z"/>
<path fill="#603913" d="M611.178,459.5v27.455c0,0.449-0.224,0.672-0.672,0.672h-4.271c-0.448,0-0.673-0.223-0.673-0.672v-10.848
	h-3.172v10.848c0,0.449-0.224,0.672-0.672,0.672h-4.271c-0.449,0-0.672-0.223-0.672-0.672V459.5c0-0.449,0.223-0.672,0.672-0.672
	h4.271c0.448,0,0.672,0.223,0.672,0.672v10.992h3.172V459.5c0-0.449,0.226-0.672,0.673-0.672h4.271
	C610.954,458.828,611.178,459.051,611.178,459.5z"/>
<path fill="#603913" d="M629.418,486.955c0.063,0.449-0.128,0.672-0.576,0.672h-4.368c-0.416,0-0.65-0.223-0.72-0.672l-0.384-4.703
	h-2.978l-0.389,4.703c-0.063,0.449-0.304,0.672-0.72,0.672h-4.368c-0.447,0-0.641-0.223-0.576-0.672l3.604-27.455
	c0.063-0.449,0.315-0.672,0.768-0.672h6.336c0.447,0,0.703,0.223,0.771,0.672L629.418,486.955z M622.985,476.875l-0.912-10.607
	h-0.384l-0.911,10.607H622.985z"/>
<path fill="#603913" d="M647.944,459.5v27.455c0,0.449-0.229,0.672-0.673,0.672h-3.07c-0.192,0-0.377-0.063-0.555-0.191
	c-0.18-0.127-0.3-0.271-0.357-0.432l-5.088-12.529v12.48c0,0.449-0.229,0.672-0.673,0.672h-4.271c-0.449,0-0.672-0.223-0.672-0.672
	V459.5c0-0.449,0.223-0.672,0.672-0.672h3.168c0.192,0,0.376,0.063,0.552,0.188c0.182,0.129,0.302,0.273,0.36,0.438l4.992,13.969
	V459.5c0-0.449,0.224-0.672,0.672-0.672h4.271C647.72,458.828,647.944,459.051,647.944,459.5z"/>
<path fill="#603913" d="M662.008,458.971c0.735,0.32,1.375,0.752,1.92,1.295c0.544,0.546,0.979,1.188,1.296,1.921
	c0.319,0.737,0.479,1.521,0.479,2.354v1.057c0,0.447-0.208,0.736-0.624,0.863l-4.367,1.584c-0.417,0.129-0.624-0.031-0.624-0.479
	v-2.783c0-0.32-0.113-0.592-0.336-0.816c-0.226-0.225-0.497-0.336-0.816-0.336h-0.384c-0.315,0-0.593,0.111-0.813,0.336
	c-0.229,0.229-0.337,0.496-0.337,0.816v16.895c0,0.32,0.107,0.599,0.337,0.816c0.224,0.223,0.495,0.336,0.813,0.336h0.384
	c0.319,0,0.598-0.111,0.816-0.336c0.222-0.229,0.336-0.496,0.336-0.816v-5.184h-1.345v-5.473h6.288c0.447,0,0.672,0.225,0.672,0.674
	v10.223c0,0.832-0.16,1.617-0.479,2.354c-0.314,0.733-0.752,1.377-1.296,1.92c-0.545,0.545-1.185,0.979-1.92,1.299
	c-0.736,0.313-1.521,0.479-2.353,0.479h-1.824c-0.832,0-1.616-0.156-2.354-0.479c-0.73-0.32-1.376-0.754-1.92-1.299
	c-0.545-0.543-0.977-1.187-1.296-1.92c-0.315-0.734-0.479-1.521-0.479-2.354v-17.375c0-0.832,0.159-1.615,0.479-2.354
	c0.319-0.734,0.751-1.375,1.296-1.921c0.544-0.547,1.188-0.979,1.92-1.301c0.735-0.313,1.521-0.479,2.354-0.479h1.824
	C660.488,458.492,661.271,458.652,662.008,458.971z"/>
<path fill="#603913" d="M681.303,482.682v4.273c0,0.447-0.225,0.672-0.672,0.672h-10.416c-0.448,0-0.672-0.225-0.672-0.672v-27.457
	c0-0.447,0.224-0.672,0.672-0.672h10.416c0.447,0,0.672,0.225,0.672,0.672v4.271c0,0.449-0.225,0.679-0.672,0.679h-5.472v5.471
	h4.752c0.447,0,0.672,0.225,0.672,0.672v4.271c0,0.444-0.225,0.674-0.672,0.674h-4.752v6.479h5.472
	C681.079,482.01,681.303,482.236,681.303,482.682z"/>
<path fill="#603913" d="M697.335,486.955c0,0.449-0.225,0.672-0.673,0.672h-4.271c-0.442,0-0.672-0.223-0.672-0.672V459.5
	c0-0.449,0.229-0.672,0.672-0.672h4.271c0.448,0,0.673,0.223,0.673,0.672V486.955z"/>
<path fill="#603913" d="M714.422,459.5v4.27c0,0.449-0.224,0.679-0.672,0.679h-3.408v22.512c0,0.449-0.224,0.672-0.672,0.672h-4.271
	c-0.16,0-0.313-0.063-0.456-0.189c-0.146-0.128-0.221-0.286-0.221-0.479v-22.512h-3.354c-0.448,0-0.672-0.229-0.672-0.675V459.5
	c0-0.447,0.224-0.672,0.672-0.672h12.384C714.198,458.828,714.422,459.051,714.422,459.5z"/>
<path fill="#603913" d="M738.037,486.955c0.063,0.449-0.128,0.672-0.576,0.672h-4.368c-0.416,0-0.655-0.223-0.72-0.672l-0.384-4.703
	h-2.979l-0.384,4.703c-0.063,0.449-0.305,0.672-0.72,0.672h-4.368c-0.448,0-0.641-0.223-0.576-0.672l3.604-27.455
	c0.063-0.449,0.313-0.672,0.768-0.672h6.336c0.448,0,0.703,0.223,0.771,0.672L738.037,486.955z M731.604,476.875l-0.907-10.607
	h-0.39l-0.906,10.607H731.604z"/>
<path fill="#603913" d="M756.563,459.5v27.455c0,0.449-0.224,0.672-0.672,0.672h-3.065c-0.192,0-0.377-0.063-0.559-0.191
	c-0.176-0.127-0.296-0.271-0.354-0.432l-5.088-12.529v12.48c0,0.449-0.229,0.672-0.675,0.672h-4.271
	c-0.448,0-0.672-0.223-0.672-0.672V459.5c0-0.449,0.224-0.672,0.672-0.672h3.168c0.192,0,0.376,0.063,0.552,0.188
	c0.182,0.129,0.298,0.273,0.36,0.438l4.992,13.969V459.5c0-0.449,0.224-0.672,0.672-0.672h4.271
	C756.34,458.828,756.563,459.051,756.563,459.5z"/>
<path fill="#603913" d="M768.756,458.828c0.831,0,1.615,0.16,2.354,0.479c0.731,0.32,1.376,0.752,1.921,1.295
	c0.544,0.552,0.976,1.188,1.296,1.927c0.317,0.731,0.479,1.52,0.479,2.352v16.705c0,0.832-0.155,1.615-0.479,2.352
	c-0.321,0.737-0.752,1.379-1.296,1.924c-0.545,0.546-1.188,0.978-1.921,1.298c-0.735,0.313-1.521,0.479-2.354,0.479h-7.2
	c-0.443,0-0.672-0.223-0.672-0.672V459.5c0-0.449,0.229-0.672,0.672-0.672H768.756z M769.188,465.115
	c0-0.318-0.106-0.592-0.336-0.816c-0.225-0.223-0.491-0.336-0.813-0.336h-1.535v18.529h1.535c0.317,0,0.592-0.113,0.813-0.336
	c0.229-0.229,0.336-0.496,0.336-0.816V465.115z"/>
<path fill="#603913" d="M790.596,486.955c0,0.449-0.235,0.672-0.721,0.672h-4.271c-0.416,0-0.619-0.223-0.619-0.672V459.5
	c0-0.449,0.225-0.672,0.672-0.672h7.195c0.831,0,1.615,0.16,2.354,0.479c0.735,0.32,1.376,0.752,1.92,1.295
	c0.544,0.552,0.976,1.188,1.296,1.927c0.32,0.731,0.479,1.52,0.479,2.352v5.904c0,1.184-0.354,2.248-1.061,3.188
	c-0.705,0.943-1.553,1.672-2.544,2.188l4.563,10.799c0.097,0.449-0.063,0.672-0.479,0.672h-4.367c-0.188,0-0.377-0.063-0.553-0.188
	s-0.296-0.288-0.357-0.479l-3.506-8.881L790.596,486.955L790.596,486.955z M790.596,471.691h1.535c0.32,0,0.592-0.111,0.816-0.336
	c0.224-0.229,0.336-0.496,0.336-0.816v-5.424c0-0.318-0.112-0.592-0.336-0.816c-0.229-0.223-0.496-0.336-0.816-0.336h-1.535V471.691
	z"/>
<path fill="#603913" d="M814.788,482.682v4.273c0,0.447-0.226,0.672-0.672,0.672H803.7c-0.448,0-0.672-0.225-0.672-0.672v-27.457
	c0-0.447,0.224-0.672,0.672-0.672h10.416c0.446,0,0.672,0.225,0.672,0.672v4.271c0,0.449-0.226,0.679-0.672,0.679h-5.478v5.471
	h4.756c0.443,0,0.674,0.225,0.674,0.672v4.271c0,0.444-0.229,0.674-0.674,0.674h-4.756v6.479h5.478
	C814.563,482.01,814.788,482.236,814.788,482.682z"/>
<path fill="#603913" d="M828.611,458.971c0.729,0.32,1.375,0.752,1.92,1.295c0.544,0.546,0.976,1.188,1.296,1.921
	c0.317,0.737,0.479,1.521,0.479,2.354v2.881c0,0.447-0.208,0.736-0.624,0.863l-4.362,0.672c-0.417,0.129-0.624-0.031-0.624-0.48
	v-3.688c0-0.32-0.112-0.592-0.337-0.816c-0.229-0.225-0.496-0.336-0.814-0.336h-0.384c-0.32,0-0.595,0.111-0.816,0.336
	c-0.224,0.229-0.336,0.496-0.336,0.816v16.895c0,0.32,0.112,0.599,0.336,0.816c0.229,0.222,0.496,0.336,0.816,0.336h0.384
	c0.318,0,0.592-0.111,0.814-0.336c0.224-0.227,0.337-0.496,0.337-0.816v-5.76c0-0.447,0.206-0.604,0.624-0.479l4.362,0.571
	c0.416,0.13,0.624,0.416,0.624,0.865v5.039c0,0.832-0.155,1.617-0.479,2.354c-0.32,0.734-0.752,1.378-1.296,1.921
	c-0.545,0.547-1.188,0.979-1.92,1.299c-0.736,0.313-1.521,0.479-2.354,0.479h-1.824c-0.831,0-1.611-0.158-2.352-0.479
	c-0.736-0.32-1.376-0.752-1.92-1.299c-0.545-0.543-0.979-1.187-1.296-1.921c-0.32-0.733-0.48-1.521-0.48-2.354v-17.375
	c0-0.832,0.16-1.615,0.48-2.354c0.313-0.734,0.751-1.375,1.296-1.924c0.544-0.544,1.184-0.978,1.92-1.298
	c0.735-0.313,1.521-0.479,2.352-0.479h1.824C827.09,458.492,827.875,458.652,828.611,458.971z"/>
<path fill="#603913" d="M847.667,482.682v4.273c0,0.447-0.225,0.672-0.672,0.672h-10.416c-0.448,0-0.672-0.225-0.672-0.672v-27.457
	c0-0.447,0.224-0.672,0.672-0.672h10.416c0.447,0,0.672,0.225,0.672,0.672v4.271c0,0.449-0.225,0.679-0.672,0.679h-5.474v5.471
	h4.753c0.442,0,0.673,0.225,0.673,0.672v4.271c0,0.444-0.229,0.674-0.673,0.674h-4.753v6.479h5.474
	C847.442,482.01,847.667,482.236,847.667,482.682z"/>
<path fill="#603913" d="M857.362,486.955c0,0.449-0.229,0.672-0.675,0.672h-4.271c-0.448,0-0.672-0.223-0.672-0.672V459.5
	c0-0.449,0.224-0.672,0.672-0.672h4.271c0.444,0,0.675,0.223,0.675,0.672V486.955z"/>
<path fill="#603913" d="M877.137,459.5l-5.664,27.455c-0.063,0.449-0.314,0.672-0.769,0.672h-4.225
	c-0.447,0-0.703-0.223-0.771-0.672l-5.664-27.455c-0.063-0.449,0.127-0.672,0.575-0.672h5.185c0.415,0,0.655,0.223,0.726,0.672
	l1.968,17.951h0.191l1.969-17.951c0.063-0.449,0.304-0.672,0.721-0.672h5.188C877.008,458.828,877.201,459.051,877.137,459.5z"/>
<path fill="#603913" d="M891.585,482.682v4.273c0,0.447-0.225,0.672-0.672,0.672h-10.416c-0.448,0-0.672-0.225-0.672-0.672v-27.457
	c0-0.447,0.224-0.672,0.672-0.672h10.416c0.447,0,0.672,0.225,0.672,0.672v4.271c0,0.449-0.225,0.679-0.672,0.679h-5.473v5.471
	h4.753c0.441,0,0.672,0.225,0.672,0.672v4.271c0,0.444-0.229,0.674-0.672,0.674h-4.753v6.479h5.473
	C891.36,482.01,891.585,482.236,891.585,482.682z"/>
<path fill="#603913" d="M917.021,459.043c0.099,0.146,0.108,0.297,0.05,0.457l-5.521,16.992v10.463c0,0.449-0.225,0.672-0.672,0.672
	h-4.32c-0.443,0-0.672-0.223-0.672-0.672v-10.463l-5.52-16.992c-0.064-0.16-0.048-0.314,0.048-0.457s0.24-0.215,0.432-0.215h5.088
	c0.448,0,0.704,0.223,0.771,0.672l1.92,9.215h0.189l1.923-9.215c0.063-0.449,0.313-0.672,0.768-0.672h5.088
	C916.784,458.828,916.927,458.9,917.021,459.043z"/>
<path fill="#603913" d="M932.96,481.916c0,0.832-0.16,1.615-0.479,2.352c-0.319,0.737-0.753,1.377-1.301,1.921
	c-0.545,0.549-1.185,0.979-1.92,1.301c-0.731,0.313-1.521,0.479-2.353,0.479h-1.824c-0.832,0-1.616-0.16-2.353-0.479
	c-0.735-0.32-1.376-0.752-1.921-1.301c-0.549-0.544-0.979-1.185-1.3-1.921c-0.314-0.729-0.479-1.52-0.479-2.352v-17.377
	c0-0.832,0.16-1.615,0.479-2.354c0.319-0.729,0.751-1.375,1.3-1.92c0.545-0.543,1.186-0.975,1.921-1.295
	c0.73-0.313,1.521-0.479,2.353-0.479h1.824c0.832,0,1.615,0.16,2.353,0.479c0.735,0.32,1.375,0.752,1.92,1.295
	c0.548,0.545,0.979,1.188,1.301,1.92c0.314,0.738,0.479,1.521,0.479,2.354V481.916z M927.344,464.779
	c0-0.32-0.108-0.597-0.336-0.816c-0.225-0.222-0.497-0.336-0.813-0.336h-0.389c-0.315,0-0.593,0.113-0.813,0.336
	c-0.229,0.229-0.336,0.496-0.336,0.816v16.896c0,0.32,0.107,0.592,0.336,0.816c0.225,0.223,0.496,0.336,0.813,0.336h0.389
	c0.314,0,0.593-0.113,0.813-0.336c0.228-0.229,0.336-0.496,0.336-0.816V464.779z"/>
<path fill="#603913" d="M950.239,459.5v22.416c0,0.832-0.16,1.615-0.479,2.352c-0.314,0.737-0.752,1.378-1.296,1.925
	c-0.545,0.545-1.186,0.977-1.92,1.297c-0.736,0.313-1.521,0.479-2.354,0.479h-1.823c-0.832,0-1.616-0.16-2.354-0.479
	c-0.731-0.32-1.376-0.752-1.92-1.297c-0.545-0.546-0.977-1.188-1.296-1.925c-0.32-0.729-0.479-1.52-0.479-2.352V459.5
	c0-0.449,0.225-0.672,0.673-0.672h4.271c0.447,0,0.672,0.223,0.672,0.672v22.176c0,0.32,0.112,0.592,0.336,0.816
	c0.229,0.223,0.496,0.336,0.816,0.336h0.384c0.319,0,0.592-0.113,0.816-0.336c0.223-0.229,0.336-0.496,0.336-0.816V459.5
	c0-0.449,0.223-0.672,0.672-0.672h4.271C950.015,458.828,950.239,459.051,950.239,459.5z"/>
<path fill="#603913" d="M959.694,486.955c0,0.449-0.239,0.672-0.726,0.672h-4.27c-0.416,0-0.624-0.223-0.624-0.672V459.5
	c0-0.449,0.224-0.672,0.672-0.672h7.2c0.831,0,1.61,0.16,2.352,0.479c0.736,0.32,1.376,0.752,1.92,1.295
	c0.544,0.552,0.979,1.188,1.296,1.927c0.32,0.731,0.48,1.52,0.48,2.352v5.904c0,1.184-0.354,2.248-1.061,3.188
	c-0.7,0.943-1.554,1.672-2.544,2.188l4.563,10.799c0.096,0.449-0.063,0.672-0.479,0.672h-4.362c-0.192,0-0.378-0.063-0.558-0.188
	c-0.177-0.128-0.297-0.288-0.354-0.479l-3.504-8.881v8.879L959.694,486.955L959.694,486.955z M959.694,471.691h1.53
	c0.32,0,0.598-0.111,0.816-0.336c0.223-0.229,0.336-0.496,0.336-0.816v-5.424c0-0.318-0.112-0.592-0.336-0.816
	c-0.225-0.223-0.496-0.336-0.816-0.336h-1.53V471.691z"/>
<path fill="#603913" d="M987.965,458.971c0.735,0.32,1.375,0.752,1.92,1.295c0.544,0.546,0.979,1.188,1.296,1.921
	c0.319,0.737,0.48,1.521,0.48,2.354v1.824c0,0.446-0.209,0.731-0.624,0.859l-4.368,1.151c-0.416,0.127-0.624-0.031-0.624-0.479
	v-3.119c0-0.32-0.112-0.594-0.336-0.816c-0.226-0.223-0.497-0.336-0.816-0.336h-0.384c-0.315,0-0.593,0.113-0.813,0.336
	c-0.229,0.229-0.336,0.496-0.336,0.816v2.928c0.027,0.354,0.098,0.656,0.188,0.912s0.271,0.512,0.527,0.768l6.288,4.705
	c0.512,0.447,0.84,0.904,0.979,1.367c0.146,0.465,0.248,0.984,0.313,1.563v4.896c0,0.832-0.161,1.615-0.479,2.354
	c-0.315,0.733-0.752,1.379-1.296,1.922c-0.545,0.545-1.186,0.977-1.92,1.297c-0.736,0.313-1.521,0.479-2.354,0.479h-1.823
	c-0.833,0-1.615-0.16-2.354-0.479c-0.731-0.32-1.376-0.752-1.92-1.297c-0.544-0.543-0.978-1.188-1.296-1.922
	c-0.315-0.732-0.479-1.521-0.479-2.354v-2.688c0-0.445,0.207-0.734,0.624-0.861l4.363-1.152c0.416-0.129,0.625,0.031,0.625,0.479
	v3.979c0,0.32,0.11,0.597,0.339,0.816c0.224,0.223,0.492,0.336,0.813,0.336h0.384c0.318,0,0.595-0.113,0.816-0.336
	c0.224-0.227,0.336-0.496,0.336-0.816V478.7c-0.032-0.416-0.097-0.783-0.192-1.104c-0.095-0.316-0.288-0.604-0.573-0.86
	l-6.188-4.752c-0.479-0.445-0.824-0.896-1.032-1.349c-0.208-0.442-0.313-1.039-0.313-1.771v-4.318c0-0.832,0.156-1.615,0.479-2.354
	c0.318-0.734,0.752-1.375,1.296-1.921c0.544-0.547,1.188-0.979,1.92-1.301c0.736-0.313,1.521-0.479,2.354-0.479h1.823
	C986.444,458.492,987.229,458.652,987.965,458.971z"/>
<path fill="#603913" d="M1007.308,459.5v4.27c0,0.449-0.224,0.679-0.672,0.679h-3.407v22.512c0,0.449-0.225,0.672-0.673,0.672
	h-4.271c-0.161,0-0.313-0.063-0.456-0.189c-0.146-0.128-0.216-0.286-0.216-0.479v-22.512h-3.36c-0.448,0-0.672-0.229-0.672-0.675
	V459.5c0-0.447,0.224-0.672,0.672-0.672h12.384C1007.085,458.828,1007.308,459.051,1007.308,459.5z"/>
<path fill="#603913" d="M1023.149,486.955c0.063,0.449-0.134,0.672-0.576,0.672h-4.368c-0.416,0-0.656-0.223-0.72-0.672l-0.39-4.703
	h-2.977l-0.385,4.703c-0.063,0.449-0.31,0.672-0.725,0.672h-4.363c-0.447,0-0.646-0.223-0.576-0.672l3.602-27.455
	c0.063-0.449,0.318-0.672,0.771-0.672h6.337c0.443,0,0.702,0.223,0.77,0.672L1023.149,486.955z M1016.717,476.875l-0.912-10.607
	h-0.385l-0.911,10.607H1016.717z"/>
<path fill="#603913" d="M1031.933,486.955c0,0.449-0.235,0.672-0.721,0.672h-4.271c-0.416,0-0.623-0.223-0.623-0.672V459.5
	c0-0.449,0.224-0.672,0.672-0.672h7.199c0.826,0,1.61,0.16,2.353,0.479c0.735,0.32,1.376,0.752,1.92,1.295
	c0.544,0.552,0.976,1.188,1.296,1.927c0.32,0.731,0.48,1.52,0.48,2.352v5.904c0,1.184-0.354,2.248-1.062,3.188
	c-0.702,0.943-1.553,1.672-2.544,2.188l4.563,10.799c0.096,0.449-0.064,0.672-0.48,0.672h-4.362c-0.191,0-0.377-0.063-0.558-0.188
	c-0.176-0.13-0.296-0.288-0.354-0.479l-3.505-8.881v8.879L1031.933,486.955L1031.933,486.955z M1031.933,471.691h1.535
	c0.32,0,0.593-0.111,0.816-0.336c0.224-0.229,0.336-0.496,0.336-0.816v-5.424c0-0.318-0.112-0.592-0.336-0.816
	c-0.226-0.223-0.496-0.336-0.816-0.336h-1.535V471.691z"/>
<path fill="#603913" d="M1053.869,458.971c0.734,0.32,1.375,0.752,1.92,1.295c0.544,0.546,0.976,1.188,1.296,1.921
	c0.319,0.737,0.48,1.521,0.48,2.354v1.824c0,0.446-0.209,0.731-0.625,0.859l-4.367,1.151c-0.416,0.127-0.624-0.031-0.624-0.479
	v-3.119c0-0.32-0.112-0.594-0.337-0.816c-0.229-0.223-0.496-0.336-0.815-0.336h-0.384c-0.32,0-0.594,0.113-0.816,0.336
	c-0.224,0.229-0.336,0.496-0.336,0.816v2.928c0.032,0.354,0.102,0.656,0.191,0.912c0.096,0.256,0.271,0.512,0.528,0.768l6.283,4.705
	c0.516,0.447,0.844,0.904,0.983,1.367c0.146,0.465,0.248,0.984,0.313,1.563v4.896c0,0.832-0.159,1.615-0.479,2.354
	c-0.32,0.733-0.752,1.379-1.297,1.922c-0.545,0.545-1.188,0.977-1.92,1.297c-0.735,0.313-1.521,0.479-2.354,0.479h-1.82
	c-0.832,0-1.614-0.16-2.354-0.479c-0.736-0.32-1.376-0.752-1.921-1.297c-0.543-0.543-0.979-1.188-1.296-1.922
	c-0.319-0.732-0.479-1.521-0.479-2.354v-2.688c0-0.445,0.207-0.734,0.624-0.861l4.367-1.152c0.416-0.129,0.624,0.031,0.624,0.479
	v3.979c0,0.32,0.111,0.597,0.336,0.816c0.228,0.222,0.496,0.336,0.815,0.336h0.385c0.314,0,0.592-0.113,0.813-0.336
	c0.229-0.227,0.339-0.496,0.339-0.816V478.7c-0.029-0.416-0.099-0.783-0.189-1.104c-0.099-0.315-0.288-0.604-0.576-0.86
	l-6.189-4.752c-0.479-0.445-0.82-0.896-1.029-1.349c-0.207-0.442-0.313-1.039-0.313-1.771v-4.318c0-0.832,0.159-1.615,0.479-2.354
	c0.313-0.734,0.752-1.375,1.296-1.921c0.544-0.547,1.184-0.979,1.92-1.301c0.734-0.313,1.521-0.479,2.354-0.479h1.822
	C1052.348,458.492,1053.132,458.652,1053.869,458.971z"/>
<polyline fill="none" stroke="#603913" stroke-width="9" stroke-miterlimit="10" points="1021.57,310.093 1045.569,328.092 
	1023.07,346.091 "/>
<path opacity="0.69" fill="#711200" stroke="#711200" stroke-width="4" stroke-miterlimit="10" enable-background="new    " d="
	M423.608,608.183c0,0,45.519-62.971,50.32-86.67c4.806-23.698-3.928-41.055-19.995-29.412c-16.064,11.644-50.47,74.56-50.47,74.56"
	/>
<radialGradient id="SVGID_15_" cx="1721.7656" cy="1123.3711" r="49.1116" gradientTransform="matrix(1 0 0 1 -1266.9609 -563.7598)" gradientUnits="userSpaceOnUse">
	<stop  offset="0" style="stop-color:#DB8A64"/>
	<stop  offset="0.2953" style="stop-color:#CA6D44"/>
	<stop  offset="0.4456" style="stop-color:#C15930"/>
	<stop  offset="0.5492" style="stop-color:#BA4C28"/>
	<stop  offset="0.9378" style="stop-color:#711200"/>
</radialGradient>
<path fill="url(#SVGID_15_)" stroke="#711200" stroke-width="5" stroke-miterlimit="10" d="M432.326,617.366
	c0,0,51.303-58.342,58.346-81.48c7.05-23.133,0-41.248-17.101-31.188c-17.104,10.057-57.345,69.42-57.345,69.42"/>
<linearGradient id="SVGID_16_" gradientUnits="userSpaceOnUse" x1="1558.8477" y1="1165.21" x2="1560.0621" y2="1235.6384" gradientTransform="matrix(1 0 0 1 -1266.9609 -563.7598)">
	<stop  offset="0" style="stop-color:#000000"/>
	<stop  offset="0.2565" style="stop-color:#332826"/>
	<stop  offset="0.5156" style="stop-color:#3C2620"/>
	<stop  offset="0.735" style="stop-color:#401E18"/>
	<stop  offset="0.9032" style="stop-color:#401712"/>
	<stop  offset="1" style="stop-color:#3F150F"/>
</linearGradient>
<path fill="url(#SVGID_16_)" stroke="#3C2417" stroke-width="5" stroke-miterlimit="10" d="M473.383,635.019
	c0-22.797-80.994-41.274-180.919-41.274c-99.915,0-180.915,18.485-180.915,41.274c0,22.81,81,41.287,180.915,41.287
	C392.384,676.306,473.383,657.821,473.383,635.019z"/>
<radialGradient id="SVGID_17_" cx="1391.1699" cy="1063.3574" r="125.0639" gradientTransform="matrix(1 0 0 1 -1266.9609 -563.7598)" gradientUnits="userSpaceOnUse">
	<stop  offset="0" style="stop-color:#F5B991"/>
	<stop  offset="0.0062" style="stop-color:#F5B891"/>
	<stop  offset="0.1865" style="stop-color:#DB8A64"/>
	<stop  offset="0.2953" style="stop-color:#CA6D44"/>
	<stop  offset="0.4456" style="stop-color:#C15930"/>
	<stop  offset="0.5492" style="stop-color:#BA4C28"/>
	<stop  offset="0.9378" style="stop-color:#711200"/>
</radialGradient>
<path fill="url(#SVGID_17_)" stroke="#711200" stroke-width="5" stroke-miterlimit="10" d="M225.281,602.235
	c0,0-2.429-126.277-25.499-161.482c-23.066-35.222-63.139-95.935-99.563-84.999c-36.426,10.928-84.594-1.732-76.094,69.909
	c8.498,71.639,91.879,168.08,105.237,181.438c13.351,13.349,48.563,37.64,48.563,37.64L225.281,602.235z"/>
<line fill="none" stroke="#711200" stroke-width="5" stroke-miterlimit="10" x1="45.305" y1="456.55" x2="150.596" y2="455.843"/>
<line fill="none" stroke="#711200" stroke-width="5" stroke-miterlimit="10" x1="33.838" y1="402.588" x2="152.428" y2="411.602"/>
<line fill="none" stroke="#711200" stroke-width="5" stroke-miterlimit="10" x1="33.838" y1="431.728" x2="158.5" y2="440.747"/>
<line fill="none" stroke="#711200" stroke-width="5" stroke-miterlimit="10" x1="50.428" y1="484.458" x2="158.667" y2="478.204"/>
<line fill="none" stroke="#711200" stroke-width="5" stroke-miterlimit="10" x1="62.171" y1="508.335" x2="156.881" y2="497.407"/>
<line fill="none" stroke="#711200" stroke-width="5" stroke-miterlimit="10" x1="107.503" y1="375.176" x2="35.865" y2="446.813"/>
<line fill="none" stroke="#711200" stroke-width="5" stroke-miterlimit="10" x1="128.143" y1="386.102" x2="46.789" y2="478.384"/>
<line fill="none" stroke="#711200" stroke-width="5" stroke-miterlimit="10" x1="145.141" y1="403.102" x2="61.36" y2="501.456"/>
<line fill="none" stroke="#711200" stroke-width="5" stroke-miterlimit="10" x1="153.643" y1="426.171" x2="82.004" y2="520.884"/>
<line fill="none" stroke="#711200" stroke-width="5" stroke-miterlimit="10" x1="151.213" y1="462.601" x2="112.362" y2="518.458"/>
<path opacity="0.69" fill="#711200" stroke="#711200" stroke-width="4" stroke-miterlimit="10" enable-background="new    " d="
	M183.786,590.202c0,0-12.477-23.629-16.484-34.234c-4.008-10.606-10.924-38.758-34.974-45.145
	c-24.047-6.396-28.309,14.147-26.354,31.408c1.954,17.258,24.602,31.528,31.462,43.018c6.861,11.492,15.605,37.088,15.605,37.088"/>
<path opacity="0.68" fill="#711200" stroke="#711200" stroke-width="4" stroke-miterlimit="10" enable-background="new    " d="
	M165.327,658.364c0,0-19.835-18.388-31.324-25.252c-11.484-6.865-38.197-8.695-48.105-22.959
	c-9.902-14.265-15.891-34.381,8.313-40.154c24.196-5.779,43.639,15.73,52.201,23.17c8.558,7.432,30.749,22.32,30.749,22.32"/>
<radialGradient id="SVGID_18_" cx="1399.627" cy="1161.4043" r="48.4238" gradientTransform="matrix(1 0 0 1 -1266.9609 -563.7598)" gradientUnits="userSpaceOnUse">
	<stop  offset="0" style="stop-color:#DB8A64"/>
	<stop  offset="0.2953" style="stop-color:#CA6D44"/>
	<stop  offset="0.4456" style="stop-color:#C15930"/>
	<stop  offset="0.5492" style="stop-color:#BA4C28"/>
	<stop  offset="1" style="stop-color:#711200"/>
</radialGradient>
<path fill="url(#SVGID_18_)" stroke="#711200" stroke-width="5" stroke-miterlimit="10" d="M159.323,647.878
	c0,0-15.912-21.875-25.857-30.826c-9.946-8.944-35.799-15.914-42.76-31.822c-6.965-15.916-8.95-36.795,15.912-37.788
	c24.86-0.992,39.777,23.858,46.735,32.813c6.964,8.955,25.857,27.854,25.857,27.854"/>
<radialGradient id="SVGID_19_" cx="1616.2871" cy="1183" r="174.4573" gradientTransform="matrix(0.9724 0 0 1 -1201.4468 -563.7598)" gradientUnits="userSpaceOnUse">
	<stop  offset="0" style="stop-color:#F5B991"/>
	<stop  offset="0.0062" style="stop-color:#F5B891"/>
	<stop  offset="0.2591" style="stop-color:#DB8A64"/>
	<stop  offset="0.487" style="stop-color:#CA6D44"/>
	<stop  offset="0.5492" style="stop-color:#C15930"/>
	<stop  offset="0.6321" style="stop-color:#BA4C28"/>
	<stop  offset="1" style="stop-color:#813929"/>
</radialGradient>
<path fill="url(#SVGID_19_)" stroke="#711200" stroke-width="5" stroke-miterlimit="10" d="M429.322,619.165
	c0.018,1.029,0.01,2.068-0.007,3.135c-0.431,26.521-16.071,42.373-16.071,42.373s-57.047,13.926-118.945,13.926
	c-61.886,0-125.235-16.514-125.235-16.514s-11.977-17.188-8.597-52.604c0.985-10.318,5.251-22.644,13.015-34.438
	c13.622-20.729,38.041-39.824,74.407-43.627c57.055-5.959,127.818,3.029,153.758,29.83
	C419.969,580.194,429.102,592.265,429.322,619.165z"/>
<path opacity="0.68" fill="#711200" enable-background="new    " d="M223.547,556.815c0,0-33.59-0.818-22.665,6.475
	c10.925,7.285,21.451,6.879,44.522,21.447c23.067,14.571,48.567,6.071,72.85,8.496c24.279,2.43,32.787-4.855,37.645-15.781
	c4.859-10.93-55.855-19.428-69.208-20.644C273.33,555.599,223.547,556.815,223.547,556.815z"/>
<path opacity="0.39" fill="#711200" enable-background="new    " d="M418.971,586.208c-15.797,1.135-22.882,50.139-129.739,24.23
	c-94.094-22.812-138.292-38.486-85.488-62.916c14.011-20.728,10.519-21.203,47.911-25.009
	c58.669-5.963,115.649,5.691,142.321,32.502C412.822,573.956,418.75,559.302,418.971,586.208z"/>
<radialGradient id="SVGID_20_" cx="1596.8262" cy="1111.1953" r="55.6877" gradientTransform="matrix(1 0 0 1 -1266.9609 -563.7598)" gradientUnits="userSpaceOnUse">
	<stop  offset="0" style="stop-color:#3B2314"/>
	<stop  offset="1" style="stop-color:#711200"/>
</radialGradient>
<path fill="url(#SVGID_20_)" stroke="#603B17" stroke-miterlimit="10" d="M396.001,546.448l-31.822,40.772l-57.679,2.974
	l-42.769-54.688l125.641-30.828l1.387,8.74l0.563,3.527l0.141,0.973c0.01,0.012,0.01,0.019,0.01,0.025l1.772,11.172L396.001,546.448
	z"/>
<radialGradient id="SVGID_21_" cx="2076.7461" cy="2347.1709" r="48.8706" gradientTransform="matrix(0.8537 0.5208 -0.5208 0.8537 -162.731 -2706.3103)" gradientUnits="userSpaceOnUse">
	<stop  offset="0" style="stop-color:#F5B991"/>
	<stop  offset="0.0062" style="stop-color:#F5B891"/>
	<stop  offset="0.1865" style="stop-color:#DB8A64"/>
	<stop  offset="0.2953" style="stop-color:#CA6D44"/>
	<stop  offset="0.4456" style="stop-color:#C15930"/>
	<stop  offset="0.5492" style="stop-color:#BA4C28"/>
	<stop  offset="0.9378" style="stop-color:#711200"/>
</radialGradient>
<path fill="url(#SVGID_21_)" stroke="#711200" stroke-width="5" stroke-miterlimit="10" d="M324.251,382.174
	c0,0,40.327-40.934,64.21-26.365c23.881,14.57,4.028,63.897,4.028,63.897"/>
<radialGradient id="SVGID_22_" cx="1603.7266" cy="1021.7891" r="185.323" gradientTransform="matrix(1 0 0 1 -1266.9609 -563.7598)" gradientUnits="userSpaceOnUse">
	<stop  offset="0" style="stop-color:#F5B991"/>
	<stop  offset="0.0062" style="stop-color:#F5B891"/>
	<stop  offset="0.1865" style="stop-color:#DB8A64"/>
	<stop  offset="0.2953" style="stop-color:#CA6D44"/>
	<stop  offset="0.4456" style="stop-color:#C15930"/>
	<stop  offset="0.5492" style="stop-color:#BA4C28"/>
	<stop  offset="0.9378" style="stop-color:#711200"/>
</radialGradient>
<path fill="url(#SVGID_22_)" stroke="#711200" stroke-width="5" stroke-miterlimit="10" d="M420.637,467.577
	c-5.684,24.012-18.088,37.172-29.878,45.846c-4.803,3.529-9.501,6.316-13.598,8.793c-26.3,15.883-103.789,22.859-103.789,22.859
	s18.634,27.836,36.379,36.781c17.749,8.936,60.736-4.584,71.601-19.313c9.763-13.211,12.039-24.99,11.896-33.436
	c-0.078-5.074-1.029-8.943-1.769-11.166c0-0.009,0-0.015-0.013-0.023c-0.383-1.176-0.707-1.889-0.794-2.088
	c0.087,0.129,0.314,0.516,0.651,1.119c3.17,5.813,15.861,31.949,1.032,53.938c-14.713,21.822-71.641,42.668-103.826,19.494
	c-23.177-16.682-37.12-23.606-51.728-27.098c-5.861-1.406-11.826-2.258-18.54-2.963c-20.615-2.181-50.269-2.287-58.233-59.957
	c-5.415-39.168,25.533-85.438,45.933-96.366c20.398-10.931,103.784-36.748,144.592-21.856c1.328,0.487,2.652,0.981,3.971,1.52
	C393.725,399.424,428.36,434.903,420.637,467.577z"/>
<radialGradient id="SVGID_23_" cx="1499.0273" cy="-250.3569" r="55.6003" gradientTransform="matrix(0.8573 -0.5148 0.5148 0.8573 -950.8164 1375.9396)" gradientUnits="userSpaceOnUse">
	<stop  offset="0" style="stop-color:#F5B991"/>
	<stop  offset="0.0062" style="stop-color:#F5B891"/>
	<stop  offset="0.1865" style="stop-color:#DB8A64"/>
	<stop  offset="0.2953" style="stop-color:#CA6D44"/>
	<stop  offset="0.4456" style="stop-color:#C15930"/>
	<stop  offset="0.5492" style="stop-color:#BA4C28"/>
	<stop  offset="0.9378" style="stop-color:#711200"/>
</radialGradient>
<path fill="url(#SVGID_23_)" stroke="#711200" stroke-width="5" stroke-miterlimit="10" d="M175.052,455.302
	c0,0-19.97-62.243,7.312-78.626c27.283-16.391,66.523,29.648,66.523,29.648"/>
<radialGradient id="SVGID_24_" cx="1658.5254" cy="-953.9863" r="17.0281" gradientTransform="matrix(0.6302 -0.7764 0.7764 0.6302 -202.7415 2314.2773)" gradientUnits="userSpaceOnUse">
	<stop  offset="0" style="stop-color:#AFE0ED"/>
	<stop  offset="1" style="stop-color:#4F79BC"/>
</radialGradient>
<path fill="url(#SVGID_24_)" stroke="#1E75BB" stroke-width="3" stroke-miterlimit="10" d="M125.049,419.173
	c0,0-16.438-8.653-31.273-1.922c-14.841,6.717-12.832,17.73-6.412,21.377c6.424,3.656,11.777-2.951,17.492-6.127
	C110.567,429.313,125.049,419.173,125.049,419.173z"/>
<radialGradient id="SVGID_25_" cx="2099.7236" cy="-1382.6387" r="17.0309" gradientTransform="matrix(0.386 -0.9225 0.9225 0.386 559.0721 2936.157)" gradientUnits="userSpaceOnUse">
	<stop  offset="0" style="stop-color:#AFE0ED"/>
	<stop  offset="1" style="stop-color:#4F79BC"/>
</radialGradient>
<path fill="url(#SVGID_25_)" stroke="#1E75BB" stroke-width="3" stroke-miterlimit="10" d="M114.651,452.935
	c0,0-18.211-3.661-30.553,6.97c-12.347,10.629-7.316,20.629-0.129,22.323c7.189,1.688,10.467-6.149,15.055-10.819
	C103.608,466.741,114.651,452.935,114.651,452.935z"/>
<linearGradient id="SVGID_26_" gradientUnits="userSpaceOnUse" x1="1597.2852" y1="1114.9512" x2="1659.0764" y2="1094.7139" gradientTransform="matrix(1 0 0 1 -1266.9609 -563.7598)">
	<stop  offset="0" style="stop-color:#B9A6AB"/>
	<stop  offset="0.1212" style="stop-color:#FFFFFF"/>
	<stop  offset="0.2365" style="stop-color:#FAFAFC"/>
	<stop  offset="0.3025" style="stop-color:#F3EFEE"/>
	<stop  offset="0.3561" style="stop-color:#E5DFDF"/>
	<stop  offset="0.403" style="stop-color:#D5CBCC"/>
	<stop  offset="0.4452" style="stop-color:#C2B3B7"/>
	<stop  offset="0.4727" style="stop-color:#B39EA5"/>
	<stop  offset="0.4963" style="stop-color:#BDACB2"/>
	<stop  offset="0.5589" style="stop-color:#D5CBCE"/>
	<stop  offset="0.6253" style="stop-color:#E7E2E3"/>
	<stop  offset="0.6964" style="stop-color:#F4F1F3"/>
	<stop  offset="0.7755" style="stop-color:#FFFFFF"/>
	<stop  offset="0.8788" style="stop-color:#FFFFFF"/>
	<stop  offset="1" style="stop-color:#B9A6AB"/>
</linearGradient>
<path fill="url(#SVGID_26_)" stroke="#711200" stroke-width="5" stroke-miterlimit="10" d="M325.368,536.306
	c0,0,15.417,23.957,29.18,21.875c14.436-2.18,15.038-2.838,23.028-9.369c7.992-6.543,6.854-31.295,6.854-31.295"/>
<path opacity="0.67" fill="#711200" stroke="#711200" stroke-width="4" stroke-miterlimit="10" enable-background="new    " d="
	M430.292,638.782c0,0,50.425-34.021,60.349-50.146c9.92-16.127,8.177-31.237-6.771-27.012
	c-14.948,4.229-57.193,41.207-57.193,41.207"/>
<radialGradient id="SVGID_27_" cx="5169.1758" cy="2424.0713" r="13.4888" gradientTransform="matrix(-0.8203 -0.5719 -0.5719 0.8203 6097.6968 1324.9885)" gradientUnits="userSpaceOnUse">
	<stop  offset="0" style="stop-color:#AFE0ED"/>
	<stop  offset="1" style="stop-color:#4F79BC"/>
</radialGradient>
<path fill="url(#SVGID_27_)" stroke="#1E75BB" stroke-width="3" stroke-miterlimit="10" d="M452.023,357.561
	c0,0,10.618-10.188,23.388-8.319c12.767,1.868,13.646,10.688,9.563,14.872c-4.09,4.188-9.61,0.332-14.655-0.84
	S452.023,357.561,452.023,357.561z"/>
<g>
	<g>
		<path fill="#FFFFFF" d="M217.467,423.179c0.618,0,2.091-0.938,0.793-0.938C217.642,422.241,216.169,423.179,217.467,423.179
			L217.467,423.179z"/>
	</g>
</g>
<radialGradient id="SVGID_28_" cx="494.9121" cy="46.3398" r="81.0526" gradientTransform="matrix(1.0007 -1.000000e-004 1.000000e-004 -1 -154.2853 496.0827)" gradientUnits="userSpaceOnUse">
	<stop  offset="0.0092" style="stop-color:#FFFFFF;stop-opacity:0.54"/>
	<stop  offset="1" style="stop-color:#FFFFFF;stop-opacity:0"/>
</radialGradient>
<path opacity="0.43" fill="url(#SVGID_28_)" enable-background="new    " d="M408.474,449.554
	c4.763,30.054-32.534,60.938-83.305,68.98c-50.77,8.045-95.786-9.797-100.548-39.854c-4.762-30.051,32.535-60.936,83.302-68.979
	C358.695,401.656,403.708,419.497,408.474,449.554z"/>
<radialGradient id="SVGID_29_" cx="644.8281" cy="79.2798" r="55.0527" fx="623.7918" fy="74.3249" gradientTransform="matrix(1.283 0.0041 -0.0041 -1.3081 -501.1177 564.6689)" gradientUnits="userSpaceOnUse">
	<stop  offset="0.0092" style="stop-color:#FFFFFF;stop-opacity:0.54"/>
	<stop  offset="1" style="stop-color:#FFFFFF;stop-opacity:0"/>
</radialGradient>
<path opacity="0.86" fill="url(#SVGID_29_)" enable-background="new    " d="M413.843,455.767
	c4.437,27.982-29.494,56.615-75.784,63.949c-46.286,7.334-87.406-9.404-91.84-37.393c-4.436-27.984,29.496-56.615,75.782-63.947
	C368.292,411.039,409.408,427.778,413.843,455.767z"/>
<radialGradient id="SVGID_30_" cx="1576.377" cy="638.5586" r="45.1877" gradientTransform="matrix(0.9879 -0.1551 0.1551 0.9879 -1300.1984 90.1772)" gradientUnits="userSpaceOnUse">
	<stop  offset="0" style="stop-color:#C3C5C7"/>
	<stop  offset="0.0202" style="stop-color:#BCBDC0"/>
	<stop  offset="0.0543" style="stop-color:#B5B6B9"/>
	<stop  offset="0.1091" style="stop-color:#B2B4B8"/>
	<stop  offset="0.1187" style="stop-color:#ADAEB1"/>
	<stop  offset="0.1694" style="stop-color:#8F9294"/>
	<stop  offset="0.226" style="stop-color:#78787B"/>
	<stop  offset="0.2881" style="stop-color:#626264"/>
	<stop  offset="0.3575" style="stop-color:#4E4D50"/>
	<stop  offset="0.4377" style="stop-color:#3A393B"/>
	<stop  offset="0.5352" style="stop-color:#201F20"/>
	<stop  offset="0.6683" style="stop-color:#0A0A0A"/>
	<stop  offset="1" style="stop-color:#000000"/>
</radialGradient>
<path fill="url(#SVGID_30_)" stroke="#000000" stroke-width="5" stroke-miterlimit="10" d="M340.985,472.581
	c23.426-8.305,32.396-7.543,39.827-2.129c7.435,5.42-0.051,11.809-5.256,18.817c-2.536,3.433-8.807,11.132-14.83,13.964
	c-5.286,2.477-18.271,2.315-28.5-0.14c-9.424-2.268-20.3-3.17-19.493-12.074C313.524,482.112,333.032,475.399,340.985,472.581z"/>
<radialGradient id="SVGID_31_" cx="-1420.8755" cy="261.1108" r="55.0547" fx="-1441.9126" fy="256.1558" gradientTransform="matrix(0.2524 0.0077 -0.0077 -0.2995 713.604 571.2287)" gradientUnits="userSpaceOnUse">
	<stop  offset="0.0092" style="stop-color:#FFFFFF;stop-opacity:0.54"/>
	<stop  offset="1" style="stop-color:#FFFFFF;stop-opacity:0"/>
</radialGradient>
<path opacity="0.86" fill="url(#SVGID_31_)" enable-background="new    " d="M370.228,480.751
	c1.021,6.432-5.505,12.809-14.57,14.244c-9.066,1.438-17.244-2.609-18.264-9.041c-1.018-6.432,5.507-12.81,14.572-14.246
	C361.034,470.272,369.21,474.319,370.228,480.751z"/>
<radialGradient id="SVGID_32_" cx="-799.2378" cy="157.8271" r="41.8645" fx="-815.2347" fy="154.0592" gradientTransform="matrix(0.3787 0.0263 -0.0263 -0.5406 683.2974 476.0569)" gradientUnits="userSpaceOnUse">
	<stop  offset="0.0092" style="stop-color:#FFFFFF;stop-opacity:0.54"/>
	<stop  offset="1" style="stop-color:#FFFFFF;stop-opacity:0"/>
</radialGradient>
<path opacity="0.86" fill="url(#SVGID_32_)" enable-background="new    " d="M396.102,368.535
	c1.404,8.859-5.792,17.363-16.071,18.992c-10.281,1.627-19.752-4.234-21.155-13.094c-1.404-8.859,5.791-17.361,16.072-18.99
	C385.226,353.814,394.698,359.676,396.102,368.535z"/>
<radialGradient id="SVGID_33_" cx="-987.2109" cy="159.9448" r="41.8701" fx="-1003.2101" fy="156.1764" gradientTransform="matrix(0.4473 0.0422 -0.0422 -0.7072 647.0855 550.4233)" gradientUnits="userSpaceOnUse">
	<stop  offset="0.0092" style="stop-color:#FFFFFF;stop-opacity:0.54"/>
	<stop  offset="1" style="stop-color:#FFFFFF;stop-opacity:0"/>
</radialGradient>
<path opacity="0.86" fill="url(#SVGID_33_)" enable-background="new    " d="M221.891,394.514
	c1.84,11.609-6.476,22.577-18.572,24.493c-12.098,1.914-23.395-5.942-25.233-17.552c-1.84-11.609,6.475-22.574,18.572-24.49
	C208.753,375.049,220.051,382.904,221.891,394.514z"/>
<radialGradient id="SVGID_34_" cx="-975.4858" cy="-164.9189" r="57.4286" fx="-997.4301" fy="-170.0876" gradientTransform="matrix(0.31 0.0364 -0.0364 -0.5338 770.8064 465.9735)" gradientUnits="userSpaceOnUse">
	<stop  offset="0.0092" style="stop-color:#FFFFFF;stop-opacity:0.54"/>
	<stop  offset="1" style="stop-color:#FFFFFF;stop-opacity:0"/>
</radialGradient>
<path opacity="0.53" fill="url(#SVGID_34_)" enable-background="new    " d="M490.22,526.056
	c1.392,8.773-8.313,29.345-16.667,30.666c-8.353,1.32-19.276-13.227-20.667-22c-1.392-8.774,19.647-28.676,28-30
	C489.237,503.399,488.83,517.28,490.22,526.056z"/>
<radialGradient id="SVGID_35_" cx="1625.6768" cy="926.6982" r="85.7737" gradientTransform="matrix(1 0 0 1 -1266.9609 -563.7598)" gradientUnits="userSpaceOnUse">
	<stop  offset="0" style="stop-color:#FFFFFF"/>
	<stop  offset="1" style="stop-color:#FBF290"/>
</radialGradient>
<path fill="url(#SVGID_35_)" stroke="#711200" stroke-width="5" stroke-miterlimit="10" d="M385.681,388.787
	c7.893,28.714-15.052,56.39-42.384,60.023c-27.33,3.64-56.707-17.09-56.591-46.867c0.116-29.428,15.056-56.396,42.384-60.027
	C356.422,338.283,377.881,360.414,385.681,388.787z"/>
<radialGradient id="SVGID_36_" cx="1620.7783" cy="934.3223" r="63.4184" gradientTransform="matrix(1 0 0 1 -1266.9609 -563.7598)" gradientUnits="userSpaceOnUse">
	<stop  offset="0" style="stop-color:#AFE0ED"/>
	<stop  offset="1" style="stop-color:#0078A4"/>
</radialGradient>
<path fill="url(#SVGID_36_)" d="M374.391,394.617c0,22.044-16.23,39.911-36.237,39.911c-20.019,0-36.242-17.867-36.242-39.911
	c0-22.055,16.225-39.932,36.242-39.932C358.167,354.686,374.391,372.563,374.391,394.617z"/>
<linearGradient id="SVGID_37_" gradientUnits="userSpaceOnUse" x1="1826.0342" y1="1040.6572" x2="1826.996" y2="1096.4349" gradientTransform="matrix(1 0 0 1 -1197.9609 -422.7598)">
	<stop  offset="0" style="stop-color:#381F20"/>
	<stop  offset="0.0119" style="stop-color:#381F20"/>
	<stop  offset="0.6382" style="stop-color:#3F1713"/>
	<stop  offset="1" style="stop-color:#41130D"/>
</linearGradient>
<path fill="url(#SVGID_37_)" stroke="#3C2415" stroke-width="5" stroke-miterlimit="10" d="M771.817,644.486
	c0-18.062-64.152-32.695-143.289-32.695c-79.134,0-143.284,14.639-143.284,32.695c0,18.061,64.15,32.692,143.284,32.692
	C707.665,677.184,771.817,662.545,771.817,644.486z"/>
<linearGradient id="SVGID_38_" gradientUnits="userSpaceOnUse" x1="2176.6367" y1="1037.0449" x2="2177.5984" y2="1092.8215" gradientTransform="matrix(1 0 0 1 -1197.9609 -422.7598)">
	<stop  offset="0" style="stop-color:#491F20"/>
	<stop  offset="0.5366" style="stop-color:#441815"/>
	<stop  offset="1" style="stop-color:#41130D"/>
</linearGradient>
<path fill="url(#SVGID_38_)" stroke="#3C2415" stroke-width="5" stroke-miterlimit="10" d="M1122.421,640.873
	c0-18.057-64.151-32.695-143.289-32.695c-79.132,0-143.284,14.644-143.284,32.695c0,18.059,64.152,32.697,143.284,32.697
	C1058.268,673.57,1122.421,658.932,1122.421,640.873z"/>
<path opacity="0.79" fill="#FFFFFF" enable-background="new    " d="M1084.046,645.341c0,5.398-5.476,9.773-12.229,9.773H530.01
	c-6.755,0-12.23-4.375-12.23-9.773v-4.885l-47.698-24.436l47.698,5.862V513.398c0-5.398,5.476-9.773,12.23-9.773h541.808
	c6.755,0,12.229,4.375,12.229,9.773V645.341L1084.046,645.341z"/>
<radialGradient id="SVGID_39_" cx="1611.2178" cy="948.9072" r="16.3894" gradientTransform="matrix(1 0 0 1 -1266.9609 -563.7598)" gradientUnits="userSpaceOnUse">
	<stop  offset="0" style="stop-color:#FFFFFF"/>
	<stop  offset="0.1131" style="stop-color:#D4D3D3"/>
	<stop  offset="0.297" style="stop-color:#949494"/>
	<stop  offset="0.473" style="stop-color:#606060"/>
	<stop  offset="0.6359" style="stop-color:#363636"/>
	<stop  offset="0.7831" style="stop-color:#181818"/>
	<stop  offset="0.9093" style="stop-color:#070707"/>
	<stop  offset="1" style="stop-color:#000000"/>
</radialGradient>
<path fill="url(#SVGID_39_)" stroke="#000000" stroke-miterlimit="10" d="M363.394,395.277c0,16.162-10.834,29.271-24.203,29.271
	c-13.365,0-24.203-13.107-24.203-29.271c0-16.17,10.84-29.269,24.203-29.269C352.56,366.01,363.394,379.107,363.394,395.277z"/>
<radialGradient id="SVGID_40_" cx="1560.1797" cy="941.0742" r="87.7152" gradientTransform="matrix(1 0 0 1 -1266.9609 -563.7598)" gradientUnits="userSpaceOnUse">
	<stop  offset="0" style="stop-color:#FFFFFF"/>
	<stop  offset="1" style="stop-color:#FBF290"/>
</radialGradient>
<path fill="url(#SVGID_40_)" stroke="#711200" stroke-width="5" stroke-miterlimit="10" d="M318.911,395.914
	c9.993,28.056-10.844,57.354-37.828,63.001c-26.986,5.646-57.822-12.854-59.905-42.558C219.117,387,232.016,359,259.005,353.359
	C285.99,347.713,309.027,368.193,318.911,395.914z"/>
<radialGradient id="SVGID_41_" cx="1555.8926" cy="944.7344" r="62.4537" gradientTransform="matrix(1 0 0 1 -1266.9609 -563.7598)" gradientUnits="userSpaceOnUse">
	<stop  offset="0" style="stop-color:#AFE0ED"/>
	<stop  offset="1" style="stop-color:#0078A4"/>
</radialGradient>
<path fill="url(#SVGID_41_)" d="M309.192,404.65c0,21.716-15.979,39.324-35.692,39.324c-19.704,0-35.683-17.604-35.683-39.324
	c0-21.707,15.977-39.313,35.683-39.313C293.211,365.338,309.192,382.938,309.192,404.65z"/>
<radialGradient id="SVGID_42_" cx="1545.2266" cy="958.3721" r="16.818" gradientTransform="matrix(1 0 0 1 -1266.9609 -563.7598)" gradientUnits="userSpaceOnUse">
	<stop  offset="0" style="stop-color:#FFFFFF"/>
	<stop  offset="0.1131" style="stop-color:#D4D3D3"/>
	<stop  offset="0.297" style="stop-color:#949494"/>
	<stop  offset="0.473" style="stop-color:#606060"/>
	<stop  offset="0.6359" style="stop-color:#363636"/>
	<stop  offset="0.7831" style="stop-color:#181818"/>
	<stop  offset="0.9093" style="stop-color:#070707"/>
	<stop  offset="1" style="stop-color:#000000"/>
</radialGradient>
<path fill="url(#SVGID_42_)" stroke="#000000" stroke-miterlimit="10" d="M273.068,374.98c13.714,0,24.833,13.44,24.833,30.028
	c0,16.585-11.118,30.028-24.833,30.028c-13.714,0-24.833-13.443-24.833-30.028C248.235,388.422,259.354,374.98,273.068,374.98z"/>
<path opacity="0.45" fill="#711200" enable-background="new    " d="M229.735,443.618c2.161,2.424,18.781,13.082,21.158,16.102
	c2.269,2.883-21.426-2.315-25.184-4.002c-6.175-2.772-15.256-9.838-19.141-16.271c-3.651-6.045,1.795-11.351,9.201-12.523
	C223.174,425.751,224.445,437.687,229.735,443.618z"/>
<path opacity="0.45" fill="#711200" enable-background="new    " d="M219.794,404.27c-0.465,3.006,2.331,21.754-1.195,21.874
	c-8.577,0.293-11.995,9.707-15.426,2.804c-1.608-3.236,3.404-17.7,3.08-18.887c-1.672-6.104-4.212-17.246-1.878-23.893
	c2.193-6.248,11.504-5.125,16.757-0.498C226.384,390.297,220.93,396.912,219.794,404.27z"/>
<radialGradient id="SVGID_43_" cx="5084.7324" cy="2498.7324" r="13.4886" gradientTransform="matrix(-0.6736 -0.7391 -0.7391 0.6736 5745.499 2467.8423)" gradientUnits="userSpaceOnUse">
	<stop  offset="0" style="stop-color:#AFE0ED"/>
	<stop  offset="1" style="stop-color:#4F79BC"/>
</radialGradient>
<path fill="url(#SVGID_43_)" stroke="#1E75BB" stroke-width="3" stroke-miterlimit="10" d="M454.955,389.178
	c0,0,12.607-7.588,24.646-2.945c12.039,4.646,10.946,13.441,6.039,16.619c-4.915,3.181-9.446-1.801-14.107-4.059
	C466.873,396.535,454.955,389.178,454.955,389.178z"/>
</svg>
