<?xml version="1.0" encoding="utf-8"?>
<!-- Generator: Adobe Illustrator 15.0.0, SVG Export Plug-In  -->
<!DOCTYPE svg PUBLIC "-//W3C//DTD SVG 1.1//EN" "http://www.w3.org/Graphics/SVG/1.1/DTD/svg11.dtd" [
	<!ENTITY ns_flows "http://ns.adobe.com/Flows/1.0/">
]>
<svg version="1.1"
	 xmlns="http://www.w3.org/2000/svg" xmlns:xlink="http://www.w3.org/1999/xlink" xmlns:a="http://ns.adobe.com/AdobeSVGViewerExtensions/3.0/"
	 x="0px" y="0px" width="50px" height="50px" viewBox="-6.199 -5.281 50 50" enable-background="new -6.199 -5.281 50 50"
	 xml:space="preserve">
<defs>
</defs>
<linearGradient id="SVGID_1_" gradientUnits="userSpaceOnUse" x1="-3.647" y1="19.2778" x2="40.2319" y2="19.2778">
	<stop  offset="0" style="stop-color:#F9ED32"/>
	<stop  offset="1" style="stop-color:#ED9C37"/>
</linearGradient>
<path fill="url(#SVGID_1_)" d="M27.473,6.512c-0.775-0.689-1.811-1.207-2.758-1.552c-1.293-0.431-2.156-1.207-3.363-1.896
	c-1.982-1.207-4.396-2.328-6.551-2.931c-1.207-0.259-1.811-0.259-2.155,1.121c-0.345,1.552,0.604,2.069-1.293,2.242
	C9.111,3.667,7.474,3.236,5.405,4.443C3.594,5.478,1.611,5.823,1.008,8.15c-0.518,2.155,0.776,2.673,2.155,3.793
	c-0.603,0.948-0.689,2.414-1.121,3.448c-0.431,1.034-1.121,1.982-1.379,3.017c-0.776,2.414-1.293,4.482,0.948,6.207
	c1.207,0.949,1.811,1.121,2.069,2.672c0.172,1.207,0,2.414,0.258,3.621c0.69,2.156,2.328,5.26,4.311,6.639
	c2.155,1.551,4.138,1.121,6.293,0c1.724-0.949,3.104-1.035,4.914-1.465c1.638-0.432,2.845-1.035,4.655-0.863
	c2.068,0.172,8.535,4.053,9.914,1.121c0.689-1.379-1.207-2.5-1.811-3.535c-0.863-1.465,0.086-2.154,1.379-3.018
	c1.896-1.379,4.568-2.326,4.828-5.086c0.172-1.811-3.363-4.31-2.07-5.948c0.691-0.862,2.76-0.517,3.621-1.465
	c0.689-0.776,0.604-1.724,0.174-2.586c-1.467-2.5-5.518-2.672-6.984-5c-1.033-1.638-0.258-2.758-2.758-3.189
	C29.456,6.34,28.422,6.34,27.387,6.34"/>
</svg>
