<?xml version="1.0" encoding="utf-8"?>
<!-- Generator: Adobe Illustrator 15.0.0, SVG Export Plug-In . SVG Version: 6.00 Build 0)  -->
<!DOCTYPE svg PUBLIC "-//W3C//DTD SVG 1.1//EN" "http://www.w3.org/Graphics/SVG/1.1/DTD/svg11.dtd">
<svg version="1.1" id="Layer_1" xmlns="http://www.w3.org/2000/svg" xmlns:xlink="http://www.w3.org/1999/xlink" x="0px" y="0px"
	 width="800px" height="100px" viewBox="0 0 800 100" enable-background="new 0 0 800 100" xml:space="preserve">
<rect x="204.246" y="30.345" fill="#F1F2F2" width="406.122" height="44.217"/>
<g>
	<g>
		<path d="M231.294,18.303v8.28c0,0.869-0.749,1.302-2.246,1.302h-18.283v13.398h15.878c1.496,0,2.246,0.435,2.246,1.302v8.28
			c0,0.869-0.75,1.303-2.246,1.303h-15.878v28.655c0,0.868-0.749,1.303-2.245,1.303h-14.274c-1.499,0-2.246-0.435-2.246-1.303
			v-62.52c0-0.868,0.747-1.303,2.246-1.303h34.803C230.545,17,231.294,17.435,231.294,18.303z"/>
		<path d="M285.823,80.823c0.213,0.868-0.428,1.303-1.925,1.303h-14.594c-1.391,0-2.192-0.435-2.405-1.303l-1.283-9.118h-9.944
			l-1.283,9.118c-0.215,0.868-1.017,1.303-2.406,1.303h-14.595c-1.499,0-2.14-0.435-1.925-1.303l12.029-53.217
			c0.213-0.868,1.068-1.302,2.566-1.302h21.17c1.497,0,2.351,0.435,2.566,1.302L285.823,80.823z M264.332,61.285l-3.047-20.561
			h-1.283l-3.047,20.561H264.332z"/>
		<path d="M338.427,55.797c1.496,0.868,2.619,1.893,3.368,3.069c0.747,1.179,1.123,2.481,1.123,3.907v7.629
			c0,1.613-0.536,3.133-1.604,4.56c-1.07,1.427-2.513,2.667-4.33,3.722c-1.82,1.056-3.957,1.893-6.416,2.512
			c-2.461,0.621-5.08,0.932-7.858,0.932h-23.576c-0.642,0-1.258-0.048-1.845-0.141c-0.589-0.094-0.882-0.479-0.882-1.162V27.606
			c0-0.868,0.747-1.302,2.246-1.302h24.058c2.779,0,5.397,0.311,7.858,0.931c2.458,0.621,4.596,1.458,6.416,2.512
			c1.817,1.056,3.26,2.295,4.33,3.721c1.068,1.427,1.604,2.947,1.604,4.559v6.141c0,2.854-1.499,5.242-4.491,7.164
			c-1.604,0.993-3.528,1.8-5.774,2.418C335.003,54.247,336.928,54.928,338.427,55.797z M324.153,38.491
			c0-0.62-0.376-1.147-1.123-1.581c-0.749-0.434-1.659-0.652-2.726-0.652h-5.132v12.653h5.132c1.067,0,1.977-0.217,2.726-0.652
			c0.747-0.433,1.123-0.961,1.123-1.582V38.491z M324.153,61.285c0-0.619-0.376-1.146-1.123-1.581
			c-0.749-0.435-1.659-0.651-2.726-0.651h-5.132V72.17h5.132c1.067,0,1.977-0.216,2.726-0.65c0.747-0.434,1.123-0.961,1.123-1.582
			V61.285z"/>
		<path d="M399.852,27.606v43.449c0,1.612-0.535,3.131-1.604,4.559c-1.07,1.428-2.513,2.668-4.33,3.722
			c-1.819,1.056-3.957,1.894-6.416,2.513c-2.46,0.619-5.079,0.93-7.858,0.93h-6.094c-2.782,0-5.401-0.311-7.859-0.93
			c-2.461-0.619-4.599-1.457-6.416-2.513c-1.819-1.054-3.263-2.294-4.331-3.722c-1.069-1.428-1.604-2.945-1.604-4.559V27.606
			c0-0.868,0.747-1.302,2.245-1.302h14.274c1.496,0,2.245,0.435,2.245,1.302v42.983c0,0.621,0.374,1.147,1.123,1.581
			c0.747,0.436,1.657,0.652,2.727,0.652h1.283c1.067,0,1.978-0.219,2.727-0.652c0.747-0.434,1.123-0.96,1.123-1.581V27.606
			c0-0.868,0.747-1.302,2.246-1.302h14.273C399.102,26.304,399.852,26.738,399.852,27.606z"/>
		<path d="M454.379,72.542v8.281c0,0.868-0.749,1.303-2.246,1.303h-21.65h-0.32H430h-14.273c-1.498,0-2.244-0.435-2.244-1.303
			V27.606c0-0.868,0.746-1.302,2.244-1.302H430c1.496,0,2.246,0.435,2.246,1.302v43.633h19.887
			C453.63,71.239,454.379,71.674,454.379,72.542z"/>
		<path d="M508.105,71.055c0,1.612-0.537,3.131-1.604,4.559c-1.069,1.428-2.513,2.668-4.33,3.722
			c-1.817,1.056-3.957,1.894-6.415,2.513c-2.462,0.619-5.079,0.93-7.859,0.93h-6.095c-2.782,0-5.399-0.311-7.856-0.93
			c-2.463-0.619-4.6-1.457-6.416-2.513c-1.819-1.054-3.264-2.294-4.331-3.722c-1.069-1.428-1.604-2.945-1.604-4.559v-33.68
			c0-1.612,0.534-3.13,1.604-4.559c1.067-1.426,2.512-2.666,4.331-3.721c1.816-1.054,3.953-1.891,6.416-2.512
			c2.457-0.62,5.074-0.931,7.856-0.931h6.095c2.78,0,5.397,0.311,7.859,0.931c2.458,0.621,4.598,1.458,6.415,2.512
			c1.817,1.055,3.261,2.295,4.33,3.721c1.067,1.428,1.604,2.947,1.604,4.559V71.055z M489.341,37.84c0-0.62-0.377-1.147-1.122-1.582
			c-0.75-0.433-1.658-0.651-2.729-0.651h-1.282c-1.069,0-1.979,0.218-2.728,0.651c-0.748,0.435-1.121,0.962-1.121,1.582v32.749
			c0,0.621,0.373,1.147,1.121,1.581c0.746,0.436,1.658,0.652,2.728,0.652h1.282c1.068,0,1.979-0.219,2.729-0.652
			c0.745-0.434,1.122-0.96,1.122-1.581V37.84z"/>
		<path d="M565.841,27.606v43.449c0,1.612-0.536,3.131-1.604,4.559c-1.069,1.428-2.514,2.668-4.33,3.722
			c-1.819,1.056-3.957,1.894-6.415,2.513c-2.46,0.619-5.08,0.93-7.859,0.93h-6.094c-2.781,0-5.401-0.311-7.858-0.93
			c-2.46-0.619-4.599-1.457-6.416-2.513c-1.818-1.054-3.263-2.294-4.33-3.722c-1.07-1.428-1.604-2.945-1.604-4.559V27.606
			c0-0.868,0.746-1.302,2.245-1.302h14.274c1.494,0,2.243,0.435,2.243,1.302v42.983c0,0.621,0.375,1.147,1.123,1.581
			c0.747,0.436,1.657,0.652,2.728,0.652h1.283c1.066,0,1.978-0.219,2.727-0.652c0.748-0.434,1.122-0.96,1.122-1.581V27.606
			c0-0.868,0.747-1.302,2.245-1.302h14.273C565.091,26.304,565.841,26.738,565.841,27.606z"/>
		<path d="M610.423,26.583c2.458,0.621,4.598,1.458,6.415,2.512c1.816,1.055,3.261,2.295,4.332,3.721
			c1.067,1.428,1.604,2.947,1.604,4.559v3.535c0,0.87-0.698,1.428-2.085,1.675l-14.597,2.233c-1.391,0.249-2.085-0.061-2.085-0.931
			V37.84c0-0.62-0.375-1.147-1.123-1.582c-0.748-0.433-1.658-0.651-2.726-0.651h-1.282c-1.07,0-1.98,0.218-2.729,0.651
			c-0.75,0.435-1.123,0.962-1.123,1.582v5.675c0.106,0.683,0.322,1.272,0.642,1.768c0.321,0.497,0.908,0.992,1.767,1.488
			l21.009,9.12c1.711,0.867,2.808,1.752,3.289,2.649c0.479,0.899,0.825,1.908,1.043,3.024v9.488c0,1.613-0.536,3.133-1.604,4.559
			c-1.071,1.429-2.516,2.668-4.332,3.723c-1.818,1.057-3.957,1.893-6.415,2.512c-2.46,0.62-5.08,0.932-7.858,0.932h-6.095
			c-2.78,0-5.399-0.312-7.858-0.932c-2.459-0.619-4.598-1.455-6.414-2.512c-1.819-1.055-3.264-2.294-4.33-3.723
			c-1.071-1.426-1.604-2.944-1.604-4.559v-5.21c0-0.868,0.694-1.425,2.086-1.675l14.594-2.232c1.389-0.248,2.084,0.063,2.084,0.931
			v7.723c0,0.621,0.373,1.147,1.123,1.581c0.748,0.436,1.656,0.652,2.729,0.652h1.282c1.067,0,1.978-0.219,2.726-0.652
			s1.123-0.96,1.123-1.581V64.82c-0.105-0.805-0.32-1.52-0.642-2.139c-0.322-0.621-0.962-1.179-1.925-1.676l-20.689-9.212
			c-1.604-0.868-2.754-1.736-3.447-2.605c-0.697-0.867-1.043-2.015-1.043-3.442v-8.374c0-1.612,0.533-3.13,1.604-4.559
			c1.067-1.426,2.511-2.666,4.33-3.721c1.815-1.054,3.954-1.891,6.415-2.512c2.457-0.62,5.076-0.931,7.857-0.931h6.094
			C605.343,25.652,607.963,25.963,610.423,26.583z"/>
	</g>
	<g>
		
			<linearGradient id="SVGID_1_" gradientUnits="userSpaceOnUse" x1="232.6069" y1="-166.1201" x2="232.6069" y2="-229.3858" gradientTransform="matrix(1 0 0 -1 -20.96 -146.6602)">
			<stop  offset="0" style="stop-color:#9BDAEF"/>
			<stop  offset="0.1585" style="stop-color:#7FCEE4"/>
			<stop  offset="0.3731" style="stop-color:#5DC3DA"/>
			<stop  offset="0.5868" style="stop-color:#3CBCD3"/>
			<stop  offset="0.7971" style="stop-color:#1BB7CF"/>
			<stop  offset="1" style="stop-color:#00B6CE"/>
		</linearGradient>
		<path fill="url(#SVGID_1_)" d="M231.294,18.303v8.28c0,0.869-0.749,1.302-2.246,1.302h-18.283v13.398h15.878
			c1.496,0,2.246,0.435,2.246,1.302v8.28c0,0.869-0.75,1.303-2.246,1.303h-15.878v28.655c0,0.868-0.749,1.303-2.245,1.303h-14.274
			c-1.499,0-2.246-0.435-2.246-1.303v-62.52c0-0.868,0.747-1.303,2.246-1.303h34.803C230.545,17,231.294,17.435,231.294,18.303z"/>
		
			<linearGradient id="SVGID_2_" gradientUnits="userSpaceOnUse" x1="281.603" y1="-166.1206" x2="281.603" y2="-229.3858" gradientTransform="matrix(1 0 0 -1 -20.96 -146.6602)">
			<stop  offset="0" style="stop-color:#9BDAEF"/>
			<stop  offset="0.1585" style="stop-color:#7FCEE4"/>
			<stop  offset="0.3731" style="stop-color:#5DC3DA"/>
			<stop  offset="0.5868" style="stop-color:#3CBCD3"/>
			<stop  offset="0.7971" style="stop-color:#1BB7CF"/>
			<stop  offset="1" style="stop-color:#00B6CE"/>
		</linearGradient>
		<path fill="url(#SVGID_2_)" d="M285.823,80.823c0.213,0.868-0.428,1.303-1.925,1.303h-14.594c-1.391,0-2.192-0.435-2.405-1.303
			l-1.283-9.118h-9.944l-1.283,9.118c-0.215,0.868-1.017,1.303-2.406,1.303h-14.595c-1.499,0-2.14-0.435-1.925-1.303l12.029-53.217
			c0.213-0.868,1.068-1.302,2.566-1.302h21.17c1.497,0,2.351,0.435,2.566,1.302L285.823,80.823z M264.332,61.285l-3.047-20.561
			h-1.283l-3.047,20.561H264.332z"/>
		
			<linearGradient id="SVGID_3_" gradientUnits="userSpaceOnUse" x1="340.623" y1="-166.1206" x2="340.623" y2="-229.3858" gradientTransform="matrix(1 0 0 -1 -20.96 -146.6602)">
			<stop  offset="0" style="stop-color:#9BDAEF"/>
			<stop  offset="0.1585" style="stop-color:#7FCEE4"/>
			<stop  offset="0.3731" style="stop-color:#5DC3DA"/>
			<stop  offset="0.5868" style="stop-color:#3CBCD3"/>
			<stop  offset="0.7971" style="stop-color:#1BB7CF"/>
			<stop  offset="1" style="stop-color:#00B6CE"/>
		</linearGradient>
		<path fill="url(#SVGID_3_)" d="M338.427,55.797c1.496,0.868,2.619,1.893,3.368,3.069c0.747,1.179,1.123,2.481,1.123,3.907v7.629
			c0,1.613-0.536,3.133-1.604,4.56c-1.07,1.427-2.513,2.667-4.33,3.722c-1.82,1.056-3.957,1.893-6.416,2.512
			c-2.461,0.621-5.08,0.932-7.858,0.932h-23.576c-0.642,0-1.258-0.048-1.845-0.141c-0.589-0.094-0.882-0.479-0.882-1.162V27.606
			c0-0.868,0.747-1.302,2.246-1.302h24.058c2.779,0,5.397,0.311,7.858,0.931c2.458,0.621,4.596,1.458,6.416,2.512
			c1.817,1.056,3.26,2.295,4.33,3.721c1.068,1.427,1.604,2.947,1.604,4.559v6.141c0,2.854-1.499,5.242-4.491,7.164
			c-1.604,0.993-3.528,1.8-5.774,2.418C335.003,54.247,336.928,54.928,338.427,55.797z M324.153,38.491
			c0-0.62-0.376-1.147-1.123-1.581c-0.749-0.434-1.659-0.652-2.726-0.652h-5.132v12.653h5.132c1.067,0,1.977-0.217,2.726-0.652
			c0.747-0.433,1.123-0.961,1.123-1.582V38.491z M324.153,61.285c0-0.619-0.376-1.146-1.123-1.581
			c-0.749-0.435-1.659-0.651-2.726-0.651h-5.132V72.17h5.132c1.067,0,1.977-0.216,2.726-0.65c0.747-0.434,1.123-0.961,1.123-1.582
			V61.285z"/>
		
			<linearGradient id="SVGID_4_" gradientUnits="userSpaceOnUse" x1="397.5552" y1="-166.1206" x2="397.5552" y2="-229.3853" gradientTransform="matrix(1 0 0 -1 -20.96 -146.6602)">
			<stop  offset="0" style="stop-color:#9BDAEF"/>
			<stop  offset="0.1585" style="stop-color:#7FCEE4"/>
			<stop  offset="0.3731" style="stop-color:#5DC3DA"/>
			<stop  offset="0.5868" style="stop-color:#3CBCD3"/>
			<stop  offset="0.7971" style="stop-color:#1BB7CF"/>
			<stop  offset="1" style="stop-color:#00B6CE"/>
		</linearGradient>
		<path fill="url(#SVGID_4_)" d="M399.852,27.606v43.449c0,1.612-0.535,3.131-1.604,4.559c-1.07,1.428-2.513,2.668-4.33,3.722
			c-1.819,1.056-3.957,1.894-6.416,2.513c-2.46,0.619-5.079,0.93-7.858,0.93h-6.094c-2.782,0-5.401-0.311-7.859-0.93
			c-2.461-0.619-4.599-1.457-6.416-2.513c-1.819-1.054-3.263-2.294-4.331-3.722c-1.069-1.428-1.604-2.945-1.604-4.559V27.606
			c0-0.868,0.747-1.302,2.245-1.302h14.274c1.496,0,2.245,0.435,2.245,1.302v42.983c0,0.621,0.374,1.147,1.123,1.581
			c0.747,0.436,1.657,0.652,2.727,0.652h1.283c1.067,0,1.978-0.219,2.727-0.652c0.747-0.434,1.123-0.96,1.123-1.581V27.606
			c0-0.868,0.747-1.302,2.246-1.302h14.273C399.102,26.304,399.852,26.738,399.852,27.606z"/>
		
			<linearGradient id="SVGID_5_" gradientUnits="userSpaceOnUse" x1="454.8906" y1="-166.1206" x2="454.8906" y2="-229.3858" gradientTransform="matrix(1 0 0 -1 -20.96 -146.6602)">
			<stop  offset="0" style="stop-color:#9BDAEF"/>
			<stop  offset="0.1585" style="stop-color:#7FCEE4"/>
			<stop  offset="0.3731" style="stop-color:#5DC3DA"/>
			<stop  offset="0.5868" style="stop-color:#3CBCD3"/>
			<stop  offset="0.7971" style="stop-color:#1BB7CF"/>
			<stop  offset="1" style="stop-color:#00B6CE"/>
		</linearGradient>
		<path fill="url(#SVGID_5_)" d="M454.379,72.542v8.281c0,0.868-0.749,1.303-2.246,1.303h-21.65h-0.32H430h-14.273
			c-1.498,0-2.244-0.435-2.244-1.303V27.606c0-0.868,0.746-1.302,2.244-1.302H430c1.496,0,2.246,0.435,2.246,1.302v43.633h19.887
			C453.63,71.239,454.379,71.674,454.379,72.542z"/>
		
			<linearGradient id="SVGID_6_" gradientUnits="userSpaceOnUse" x1="505.8096" y1="-166.1206" x2="505.8096" y2="-229.3853" gradientTransform="matrix(1 0 0 -1 -20.96 -146.6602)">
			<stop  offset="0" style="stop-color:#9BDAEF"/>
			<stop  offset="0.1585" style="stop-color:#7FCEE4"/>
			<stop  offset="0.3731" style="stop-color:#5DC3DA"/>
			<stop  offset="0.5868" style="stop-color:#3CBCD3"/>
			<stop  offset="0.7971" style="stop-color:#1BB7CF"/>
			<stop  offset="1" style="stop-color:#00B6CE"/>
		</linearGradient>
		<path fill="url(#SVGID_6_)" d="M508.105,71.055c0,1.612-0.537,3.131-1.604,4.559c-1.069,1.428-2.513,2.668-4.33,3.722
			c-1.817,1.056-3.957,1.894-6.415,2.513c-2.462,0.619-5.079,0.93-7.859,0.93h-6.095c-2.782,0-5.399-0.311-7.856-0.93
			c-2.463-0.619-4.6-1.457-6.416-2.513c-1.819-1.054-3.264-2.294-4.331-3.722c-1.069-1.428-1.604-2.945-1.604-4.559v-33.68
			c0-1.612,0.534-3.13,1.604-4.559c1.067-1.426,2.512-2.666,4.331-3.721c1.816-1.054,3.953-1.891,6.416-2.512
			c2.457-0.62,5.074-0.931,7.856-0.931h6.095c2.78,0,5.397,0.311,7.859,0.931c2.458,0.621,4.598,1.458,6.415,2.512
			c1.817,1.055,3.261,2.295,4.33,3.721c1.067,1.428,1.604,2.947,1.604,4.559V71.055z M489.341,37.84c0-0.62-0.377-1.147-1.122-1.582
			c-0.75-0.433-1.658-0.651-2.729-0.651h-1.282c-1.069,0-1.979,0.218-2.728,0.651c-0.748,0.435-1.121,0.962-1.121,1.582v32.749
			c0,0.621,0.373,1.147,1.121,1.581c0.746,0.436,1.658,0.652,2.728,0.652h1.282c1.068,0,1.979-0.219,2.729-0.652
			c0.745-0.434,1.122-0.96,1.122-1.581V37.84z"/>
		
			<linearGradient id="SVGID_7_" gradientUnits="userSpaceOnUse" x1="563.5449" y1="-166.1206" x2="563.5449" y2="-229.3853" gradientTransform="matrix(1 0 0 -1 -20.96 -146.6602)">
			<stop  offset="0" style="stop-color:#9BDAEF"/>
			<stop  offset="0.1585" style="stop-color:#7FCEE4"/>
			<stop  offset="0.3731" style="stop-color:#5DC3DA"/>
			<stop  offset="0.5868" style="stop-color:#3CBCD3"/>
			<stop  offset="0.7971" style="stop-color:#1BB7CF"/>
			<stop  offset="1" style="stop-color:#00B6CE"/>
		</linearGradient>
		<path fill="url(#SVGID_7_)" d="M565.841,27.606v43.449c0,1.612-0.536,3.131-1.604,4.559c-1.069,1.428-2.514,2.668-4.33,3.722
			c-1.819,1.056-3.957,1.894-6.415,2.513c-2.46,0.619-5.08,0.93-7.859,0.93h-6.094c-2.781,0-5.401-0.311-7.858-0.93
			c-2.46-0.619-4.599-1.457-6.416-2.513c-1.818-1.054-3.263-2.294-4.33-3.722c-1.07-1.428-1.604-2.945-1.604-4.559V27.606
			c0-0.868,0.746-1.302,2.245-1.302h14.274c1.494,0,2.243,0.435,2.243,1.302v42.983c0,0.621,0.375,1.147,1.123,1.581
			c0.747,0.436,1.657,0.652,2.728,0.652h1.283c1.066,0,1.978-0.219,2.727-0.652c0.748-0.434,1.122-0.96,1.122-1.581V27.606
			c0-0.868,0.747-1.302,2.245-1.302h14.273C565.091,26.304,565.841,26.738,565.841,27.606z"/>
		
			<linearGradient id="SVGID_8_" gradientUnits="userSpaceOnUse" x1="620.4785" y1="-166.1206" x2="620.4785" y2="-229.3864" gradientTransform="matrix(1 0 0 -1 -20.96 -146.6602)">
			<stop  offset="0" style="stop-color:#9BDAEF"/>
			<stop  offset="0.1585" style="stop-color:#7FCEE4"/>
			<stop  offset="0.3731" style="stop-color:#5DC3DA"/>
			<stop  offset="0.5868" style="stop-color:#3CBCD3"/>
			<stop  offset="0.7971" style="stop-color:#1BB7CF"/>
			<stop  offset="1" style="stop-color:#00B6CE"/>
		</linearGradient>
		<path fill="url(#SVGID_8_)" d="M610.423,26.583c2.458,0.621,4.598,1.458,6.415,2.512c1.816,1.055,3.261,2.295,4.332,3.721
			c1.067,1.428,1.604,2.947,1.604,4.559v3.535c0,0.87-0.698,1.428-2.085,1.675l-14.597,2.233c-1.391,0.249-2.085-0.061-2.085-0.931
			V37.84c0-0.62-0.375-1.147-1.123-1.582c-0.748-0.433-1.658-0.651-2.726-0.651h-1.282c-1.07,0-1.98,0.218-2.729,0.651
			c-0.75,0.435-1.123,0.962-1.123,1.582v5.675c0.106,0.683,0.322,1.272,0.642,1.768c0.321,0.497,0.908,0.992,1.767,1.488
			l21.009,9.12c1.711,0.867,2.808,1.752,3.289,2.649c0.479,0.899,0.825,1.908,1.043,3.024v9.488c0,1.613-0.536,3.133-1.604,4.559
			c-1.071,1.429-2.516,2.668-4.332,3.723c-1.818,1.057-3.957,1.893-6.415,2.512c-2.46,0.62-5.08,0.932-7.858,0.932h-6.095
			c-2.78,0-5.399-0.312-7.858-0.932c-2.459-0.619-4.598-1.455-6.414-2.512c-1.819-1.055-3.264-2.294-4.33-3.723
			c-1.071-1.426-1.604-2.944-1.604-4.559v-5.21c0-0.868,0.694-1.425,2.086-1.675l14.594-2.232c1.389-0.248,2.084,0.063,2.084,0.931
			v7.723c0,0.621,0.373,1.147,1.123,1.581c0.748,0.436,1.656,0.652,2.729,0.652h1.282c1.067,0,1.978-0.219,2.726-0.652
			s1.123-0.96,1.123-1.581V64.82c-0.105-0.805-0.32-1.52-0.642-2.139c-0.322-0.621-0.962-1.179-1.925-1.676l-20.689-9.212
			c-1.604-0.868-2.754-1.736-3.447-2.605c-0.697-0.867-1.043-2.015-1.043-3.442v-8.374c0-1.612,0.533-3.13,1.604-4.559
			c1.067-1.426,2.511-2.666,4.33-3.721c1.815-1.054,3.954-1.891,6.415-2.512c2.457-0.62,5.076-0.931,7.857-0.931h6.094
			C605.343,25.652,607.963,25.963,610.423,26.583z"/>
	</g>
	<g>
		<path fill="none" stroke="#F1F2F2" stroke-width="4" d="M231.294,18.303v8.28c0,0.869-0.749,1.302-2.246,1.302h-18.283v13.398
			h15.878c1.496,0,2.246,0.435,2.246,1.302v8.28c0,0.869-0.75,1.303-2.246,1.303h-15.878v28.655c0,0.868-0.749,1.303-2.245,1.303
			h-14.274c-1.499,0-2.246-0.435-2.246-1.303v-62.52c0-0.868,0.747-1.303,2.246-1.303h34.803
			C230.545,17,231.294,17.435,231.294,18.303z"/>
		<path fill="none" stroke="#F1F2F2" stroke-width="4" d="M285.823,80.823c0.213,0.868-0.428,1.303-1.925,1.303h-14.594
			c-1.391,0-2.192-0.435-2.405-1.303l-1.283-9.118h-9.944l-1.283,9.118c-0.215,0.868-1.017,1.303-2.406,1.303h-14.595
			c-1.499,0-2.14-0.435-1.925-1.303l12.029-53.217c0.213-0.868,1.068-1.302,2.566-1.302h21.17c1.497,0,2.351,0.435,2.566,1.302
			L285.823,80.823z M264.332,61.285l-3.047-20.561h-1.283l-3.047,20.561H264.332z"/>
		<path fill="none" stroke="#F1F2F2" stroke-width="4" d="M338.427,55.797c1.496,0.868,2.619,1.893,3.368,3.069
			c0.747,1.179,1.123,2.481,1.123,3.907v7.629c0,1.613-0.536,3.133-1.604,4.56c-1.07,1.427-2.513,2.667-4.33,3.722
			c-1.82,1.056-3.957,1.893-6.416,2.512c-2.461,0.621-5.08,0.932-7.858,0.932h-23.576c-0.642,0-1.258-0.048-1.845-0.141
			c-0.589-0.094-0.882-0.479-0.882-1.162V27.606c0-0.868,0.747-1.302,2.246-1.302h24.058c2.779,0,5.397,0.311,7.858,0.931
			c2.458,0.621,4.596,1.458,6.416,2.512c1.817,1.056,3.26,2.295,4.33,3.721c1.068,1.427,1.604,2.947,1.604,4.559v6.141
			c0,2.854-1.499,5.242-4.491,7.164c-1.604,0.993-3.528,1.8-5.774,2.418C335.003,54.247,336.928,54.928,338.427,55.797z
			 M324.153,38.491c0-0.62-0.376-1.147-1.123-1.581c-0.749-0.434-1.659-0.652-2.726-0.652h-5.132v12.653h5.132
			c1.067,0,1.977-0.217,2.726-0.652c0.747-0.433,1.123-0.961,1.123-1.582V38.491z M324.153,61.285c0-0.619-0.376-1.146-1.123-1.581
			c-0.749-0.435-1.659-0.651-2.726-0.651h-5.132V72.17h5.132c1.067,0,1.977-0.216,2.726-0.65c0.747-0.434,1.123-0.961,1.123-1.582
			V61.285z"/>
		<path fill="none" stroke="#F1F2F2" stroke-width="4" d="M399.852,27.606v43.449c0,1.612-0.535,3.131-1.604,4.559
			c-1.07,1.428-2.513,2.668-4.33,3.722c-1.819,1.056-3.957,1.894-6.416,2.513c-2.46,0.619-5.079,0.93-7.858,0.93h-6.094
			c-2.782,0-5.401-0.311-7.859-0.93c-2.461-0.619-4.599-1.457-6.416-2.513c-1.819-1.054-3.263-2.294-4.331-3.722
			c-1.069-1.428-1.604-2.945-1.604-4.559V27.606c0-0.868,0.747-1.302,2.245-1.302h14.274c1.496,0,2.245,0.435,2.245,1.302v42.983
			c0,0.621,0.374,1.147,1.123,1.581c0.747,0.436,1.657,0.652,2.727,0.652h1.283c1.067,0,1.978-0.219,2.727-0.652
			c0.747-0.434,1.123-0.96,1.123-1.581V27.606c0-0.868,0.747-1.302,2.246-1.302h14.273
			C399.102,26.304,399.852,26.738,399.852,27.606z"/>
		<path fill="none" stroke="#F1F2F2" stroke-width="4" d="M454.379,72.542v8.281c0,0.868-0.749,1.303-2.246,1.303h-21.65h-0.32H430
			h-14.273c-1.498,0-2.244-0.435-2.244-1.303V27.606c0-0.868,0.746-1.302,2.244-1.302H430c1.496,0,2.246,0.435,2.246,1.302v43.633
			h19.887C453.63,71.239,454.379,71.674,454.379,72.542z"/>
		<path fill="none" stroke="#F1F2F2" stroke-width="4" d="M508.105,71.055c0,1.612-0.537,3.131-1.604,4.559
			c-1.069,1.428-2.513,2.668-4.33,3.722c-1.817,1.056-3.957,1.894-6.415,2.513c-2.462,0.619-5.079,0.93-7.859,0.93h-6.095
			c-2.782,0-5.399-0.311-7.856-0.93c-2.463-0.619-4.6-1.457-6.416-2.513c-1.819-1.054-3.264-2.294-4.331-3.722
			c-1.069-1.428-1.604-2.945-1.604-4.559v-33.68c0-1.612,0.534-3.13,1.604-4.559c1.067-1.426,2.512-2.666,4.331-3.721
			c1.816-1.054,3.953-1.891,6.416-2.512c2.457-0.62,5.074-0.931,7.856-0.931h6.095c2.78,0,5.397,0.311,7.859,0.931
			c2.458,0.621,4.598,1.458,6.415,2.512c1.817,1.055,3.261,2.295,4.33,3.721c1.067,1.428,1.604,2.947,1.604,4.559V71.055z
			 M489.341,37.84c0-0.62-0.377-1.147-1.122-1.582c-0.75-0.433-1.658-0.651-2.729-0.651h-1.282c-1.069,0-1.979,0.218-2.728,0.651
			c-0.748,0.435-1.121,0.962-1.121,1.582v32.749c0,0.621,0.373,1.147,1.121,1.581c0.746,0.436,1.658,0.652,2.728,0.652h1.282
			c1.068,0,1.979-0.219,2.729-0.652c0.745-0.434,1.122-0.96,1.122-1.581V37.84z"/>
		<path fill="none" stroke="#F1F2F2" stroke-width="4" d="M565.841,27.606v43.449c0,1.612-0.536,3.131-1.604,4.559
			c-1.069,1.428-2.514,2.668-4.33,3.722c-1.819,1.056-3.957,1.894-6.415,2.513c-2.46,0.619-5.08,0.93-7.859,0.93h-6.094
			c-2.781,0-5.401-0.311-7.858-0.93c-2.46-0.619-4.599-1.457-6.416-2.513c-1.818-1.054-3.263-2.294-4.33-3.722
			c-1.07-1.428-1.604-2.945-1.604-4.559V27.606c0-0.868,0.746-1.302,2.245-1.302h14.274c1.494,0,2.243,0.435,2.243,1.302v42.983
			c0,0.621,0.375,1.147,1.123,1.581c0.747,0.436,1.657,0.652,2.728,0.652h1.283c1.066,0,1.978-0.219,2.727-0.652
			c0.748-0.434,1.122-0.96,1.122-1.581V27.606c0-0.868,0.747-1.302,2.245-1.302h14.273
			C565.091,26.304,565.841,26.738,565.841,27.606z"/>
		<path fill="none" stroke="#F1F2F2" stroke-width="4" d="M610.423,26.583c2.458,0.621,4.598,1.458,6.415,2.512
			c1.816,1.055,3.261,2.295,4.332,3.721c1.067,1.428,1.604,2.947,1.604,4.559v3.535c0,0.87-0.698,1.428-2.085,1.675l-14.597,2.233
			c-1.391,0.249-2.085-0.061-2.085-0.931V37.84c0-0.62-0.375-1.147-1.123-1.582c-0.748-0.433-1.658-0.651-2.726-0.651h-1.282
			c-1.07,0-1.98,0.218-2.729,0.651c-0.75,0.435-1.123,0.962-1.123,1.582v5.675c0.106,0.683,0.322,1.272,0.642,1.768
			c0.321,0.497,0.908,0.992,1.767,1.488l21.009,9.12c1.711,0.867,2.808,1.752,3.289,2.649c0.479,0.899,0.825,1.908,1.043,3.024
			v9.488c0,1.613-0.536,3.133-1.604,4.559c-1.071,1.429-2.516,2.668-4.332,3.723c-1.818,1.057-3.957,1.893-6.415,2.512
			c-2.46,0.62-5.08,0.932-7.858,0.932h-6.095c-2.78,0-5.399-0.312-7.858-0.932c-2.459-0.619-4.598-1.455-6.414-2.512
			c-1.819-1.055-3.264-2.294-4.33-3.723c-1.071-1.426-1.604-2.944-1.604-4.559v-5.21c0-0.868,0.694-1.425,2.086-1.675l14.594-2.232
			c1.389-0.248,2.084,0.063,2.084,0.931v7.723c0,0.621,0.373,1.147,1.123,1.581c0.748,0.436,1.656,0.652,2.729,0.652h1.282
			c1.067,0,1.978-0.219,2.726-0.652s1.123-0.96,1.123-1.581V64.82c-0.105-0.805-0.32-1.52-0.642-2.139
			c-0.322-0.621-0.962-1.179-1.925-1.676l-20.689-9.212c-1.604-0.868-2.754-1.736-3.447-2.605c-0.697-0.867-1.043-2.015-1.043-3.442
			v-8.374c0-1.612,0.533-3.13,1.604-4.559c1.067-1.426,2.511-2.666,4.33-3.721c1.815-1.054,3.954-1.891,6.415-2.512
			c2.457-0.62,5.076-0.931,7.857-0.931h6.094C605.343,25.652,607.963,25.963,610.423,26.583z"/>
	</g>
</g>
</svg>
