<?xml version="1.0" encoding="utf-8"?>
<!-- Generator: Adobe Illustrator 15.0.0, SVG Export Plug-In . SVG Version: 6.00 Build 0)  -->
<!DOCTYPE svg PUBLIC "-//W3C//DTD SVG 1.1//EN" "http://www.w3.org/Graphics/SVG/1.1/DTD/svg11.dtd">
<svg version="1.1" id="Layer_1" xmlns="http://www.w3.org/2000/svg" xmlns:xlink="http://www.w3.org/1999/xlink" x="0px" y="0px"
	 width="700px" height="100px" viewBox="0 0 700 100" enable-background="new 0 0 700 100" xml:space="preserve">
<path fill="#FFDF40" stroke="#3C2415" stroke-width="5" stroke-miterlimit="10" d="M198.301,12.528c0,0-168.365-8.676-182.38,3.341
	c-14.014,12.017-5.686,66.093,4.506,72.77c10.192,6.674,176.402,0,176.402,0s180.909-3.673,257.348,0.334
	c76.439,4.006,220.698,5.688,229.615-2.324c8.919-8.01,11.28-69.43,0.979-71.776C659.32,9.065,473.286,14.2,443.986,14.2
	C414.686,14.199,198.301,12.528,198.301,12.528z"/>
<path fill="#FFBC3D" d="M31.578,57.064c-9.458,3.043-5.878,18,4.702,22c10.58,4,231.501-1.078,300.94-2
	c75.235-1,309.168,14,319.749,3s32.915-11-15.281-19s-276.276-3.942-307.992-5C273.741,54.064,75.073,43.064,31.578,57.064z"/>
<path fill="#FFFF40" d="M30.526,27.656c0,0,232.747,4.5,306.803,4.5c74.055,0,333.25,4.5,326.198-6
	c-7.055-10.5-306.804-6-324.437-4.5S32.289,9.657,30.526,27.656z"/>
</svg>
