<?xml version="1.0" encoding="utf-8"?>
<!-- Generator: Adobe Illustrator 15.0.0, SVG Export Plug-In . SVG Version: 6.00 Build 0)  -->
<!DOCTYPE svg PUBLIC "-//W3C//DTD SVG 1.1//EN" "http://www.w3.org/Graphics/SVG/1.1/DTD/svg11.dtd">
<svg version="1.1" id="Layer_1" xmlns="http://www.w3.org/2000/svg" xmlns:xlink="http://www.w3.org/1999/xlink" x="0px" y="0px"
	 width="700px" height="700px" viewBox="0 0 700 700" enable-background="new 0 0 700 700" xml:space="preserve">
<rect x="0.144" y="2.221" fill="#8DC63F" width="748.193" height="730.121"/>
<path fill="#6ABD45" d="M683.275,734.751c0,0,1.205-78.313-65.06-212.048c-66.265-133.735-251.807-184.338-251.807-184.338
	s98.796,67.469,124.097,214.457c25.301,146.987,19.277,218.072,19.277,218.072L683.275,734.751z"/>
<path fill="#6ABD45" d="M245.999,832.602c0,0,62.643-47.015,127.767-181.309c65.125-134.293-8.52-311.953-8.52-311.953
	s7.181,119.42-93.512,229.45C171.043,678.82,111.163,717.6,111.163,717.6L245.999,832.602z"/>
<path fill="#6ABD45" d="M-115.494,499.325c0,0,73.097,28.131,221.477,12.033c148.381-16.096,259.849-172.816,259.849-172.816
	s-97.394,69.479-244.092,42.553s-211.35-57.087-211.35-57.087L-115.494,499.325z"/>
<path fill="#6ABD45" d="M869.269,268.053c0,0-66.725-41.017-215.548-52.312c-148.822-11.295-287.058,122.414-287.058,122.414
	s108.451-50.508,247.759,2.777c139.307,53.285,197.355,94.753,197.355,94.753L869.269,268.053z"/>
<path fill="#6ABD45" d="M597.443-115.494c0,0-71.858,31.158-166.43,146.624c-94.57,115.466-64.259,305.382-64.259,305.382
	s20.787-117.816,144.307-201.413C634.583,51.502,771.228,3.426,771.228,3.426L597.443-115.494z"/>
<path fill="#6ABD45" d="M14.154-28.54c0,0,5.96,78.096,84.174,205.212c78.214,127.115,267.607,160.544,267.607,160.544
	S261.384,279.063,222.75,135.003C184.116-9.056,183.616-80.395,183.616-80.395L14.154-28.54z"/>
</svg>
