<?xml version="1.0" encoding="utf-8"?>
<!-- Generator: Adobe Illustrator 15.0.0, SVG Export Plug-In . SVG Version: 6.00 Build 0)  -->
<!DOCTYPE svg PUBLIC "-//W3C//DTD SVG 1.1//EN" "http://www.w3.org/Graphics/SVG/1.1/DTD/svg11.dtd">
<svg version="1.1" id="Layer_1" xmlns="http://www.w3.org/2000/svg" xmlns:xlink="http://www.w3.org/1999/xlink" x="0px" y="0px"
	 width="50px" height="50px" viewBox="0 0 50 50" enable-background="new 0 0 50 50" xml:space="preserve">
<g>
	<g>
		
			<linearGradient id="SVGID_1_" gradientUnits="userSpaceOnUse" x1="541.6436" y1="967.791" x2="541.7487" y2="981.0358" gradientTransform="matrix(1 0 0 1 -520.3203 -965.9199)">
			<stop  offset="0" style="stop-color:#FEC873"/>
			<stop  offset="1" style="stop-color:#EF4625"/>
		</linearGradient>
		<path fill="url(#SVGID_1_)" d="M23.836,1.706v13.563c0,0.188-0.116,0.283-0.347,0.283h-2.203c-0.231,0-0.347-0.095-0.347-0.283
			V5.137c-0.214,0.135-0.482,0.27-0.804,0.404c-0.322,0.134-0.623,0.222-0.903,0.262c-0.116,0.028-0.206,0.015-0.272-0.04
			c-0.083-0.041-0.124-0.108-0.124-0.202V4.047c0-0.066,0.028-0.127,0.086-0.182c0.058-0.054,0.128-0.087,0.211-0.101
			c0.379-0.122,0.726-0.289,1.04-0.504c0.281-0.174,0.54-0.4,0.78-0.676c0.239-0.276,0.392-0.609,0.458-0.999
			c0.05-0.107,0.14-0.162,0.273-0.162h1.832C23.729,1.451,23.836,1.545,23.836,1.706z"/>
		
			<linearGradient id="SVGID_2_" gradientUnits="userSpaceOnUse" x1="549.6543" y1="967.7285" x2="549.7594" y2="980.9728" gradientTransform="matrix(1 0 0 1 -520.3203 -965.9199)">
			<stop  offset="0" style="stop-color:#FEC873"/>
			<stop  offset="1" style="stop-color:#EF4625"/>
		</linearGradient>
		<path fill="url(#SVGID_2_)" d="M31.263,6.57c0.577,0.135,1.015,0.377,1.312,0.727c0.296,0.35,0.435,0.767,0.421,1.25v4.603
			c0,0.35-0.083,0.679-0.248,0.989c-0.164,0.309-0.387,0.578-0.668,0.807c-0.28,0.229-0.61,0.41-0.99,0.545
			c-0.38,0.135-0.783,0.202-1.213,0.202h-0.94c-0.431,0-0.834-0.067-1.213-0.202c-0.381-0.135-0.709-0.316-0.99-0.545
			c-0.282-0.229-0.504-0.498-0.669-0.807c-0.165-0.31-0.248-0.639-0.248-0.989v-0.828c0-0.188,0.106-0.31,0.321-0.364l2.254-0.483
			c0.213-0.054,0.322,0.013,0.322,0.202v1.372c0,0.135,0.057,0.249,0.173,0.343c0.114,0.095,0.256,0.142,0.421,0.142h0.197
			c0.165,0,0.306-0.047,0.421-0.142c0.115-0.094,0.173-0.208,0.173-0.343V9.073c0-0.214-0.048-0.363-0.148-0.444
			c-0.032-0.027-0.086-0.061-0.159-0.1c-0.075-0.042-0.17-0.061-0.286-0.061h-0.197c-0.116,0-0.211,0.023-0.285,0.07
			c-0.073,0.047-0.127,0.083-0.16,0.111c-0.1,0.08-0.148,0.222-0.148,0.424v0.564c0,0.069-0.025,0.123-0.075,0.162
			C28.59,9.84,28.521,9.847,28.44,9.82l-2.353-0.505c-0.182-0.052-0.271-0.147-0.271-0.283V1.706c0-0.188,0.115-0.282,0.346-0.282
			h1.461h4.479c0.231,0,0.348,0.094,0.348,0.282v1.716c0,0.188-0.116,0.283-0.348,0.283h-3.39v3.047
			c0.494-0.188,1.03-0.282,1.608-0.282C30.651,6.47,30.965,6.503,31.263,6.57z"/>
	</g>
	<g>
		<path fill="none" stroke="#F1F2F2" d="M23.836,1.706v13.563c0,0.188-0.116,0.283-0.347,0.283h-2.203
			c-0.231,0-0.347-0.095-0.347-0.283V5.137c-0.214,0.135-0.482,0.27-0.804,0.404c-0.322,0.134-0.623,0.222-0.903,0.262
			c-0.116,0.028-0.206,0.015-0.272-0.04c-0.083-0.041-0.124-0.108-0.124-0.202V4.047c0-0.066,0.028-0.127,0.086-0.182
			c0.058-0.054,0.128-0.087,0.211-0.101c0.379-0.122,0.726-0.289,1.04-0.504c0.281-0.174,0.54-0.4,0.78-0.676
			c0.239-0.276,0.392-0.609,0.458-0.999c0.05-0.107,0.14-0.162,0.273-0.162h1.832C23.729,1.451,23.836,1.545,23.836,1.706z"/>
		<path fill="none" stroke="#F1F2F2" d="M31.263,6.57c0.577,0.135,1.015,0.377,1.312,0.727c0.296,0.35,0.435,0.767,0.421,1.25v4.603
			c0,0.35-0.083,0.679-0.248,0.989c-0.164,0.309-0.387,0.578-0.668,0.807c-0.28,0.229-0.61,0.41-0.99,0.545
			c-0.38,0.135-0.783,0.202-1.213,0.202h-0.94c-0.431,0-0.834-0.067-1.213-0.202c-0.381-0.135-0.709-0.316-0.99-0.545
			c-0.282-0.229-0.504-0.498-0.669-0.807c-0.165-0.31-0.248-0.639-0.248-0.989v-0.828c0-0.188,0.106-0.31,0.321-0.364l2.254-0.483
			c0.213-0.054,0.322,0.013,0.322,0.202v1.372c0,0.135,0.057,0.249,0.173,0.343c0.114,0.095,0.256,0.142,0.421,0.142h0.197
			c0.165,0,0.306-0.047,0.421-0.142c0.115-0.094,0.173-0.208,0.173-0.343V9.073c0-0.214-0.048-0.363-0.148-0.444
			c-0.032-0.027-0.086-0.061-0.159-0.1c-0.075-0.042-0.17-0.061-0.286-0.061h-0.197c-0.116,0-0.211,0.023-0.285,0.07
			c-0.073,0.047-0.127,0.083-0.16,0.111c-0.1,0.08-0.148,0.222-0.148,0.424v0.564c0,0.069-0.025,0.123-0.075,0.162
			C28.59,9.84,28.521,9.847,28.44,9.82l-2.353-0.505c-0.182-0.052-0.271-0.147-0.271-0.283V1.706c0-0.188,0.115-0.282,0.346-0.282
			h1.461h4.479c0.231,0,0.348,0.094,0.348,0.282v1.716c0,0.188-0.116,0.283-0.348,0.283h-3.39v3.047
			c0.494-0.188,1.03-0.282,1.608-0.282C30.651,6.47,30.965,6.503,31.263,6.57z"/>
	</g>
</g>
</svg>
