<?xml version="1.0" encoding="utf-8"?>
<!-- Generator: Adobe Illustrator 15.0.0, SVG Export Plug-In  -->
<!DOCTYPE svg PUBLIC "-//W3C//DTD SVG 1.1//EN" "http://www.w3.org/Graphics/SVG/1.1/DTD/svg11.dtd" [
	<!ENTITY ns_flows "http://ns.adobe.com/Flows/1.0/">
]>
<svg version="1.1"
	 xmlns="http://www.w3.org/2000/svg" xmlns:xlink="http://www.w3.org/1999/xlink" xmlns:a="http://ns.adobe.com/AdobeSVGViewerExtensions/3.0/"
	 x="0px" y="0px" width="288px" height="288px" viewBox="0 0 288 288" enable-background="new 0 0 288 288" xml:space="preserve">
<defs>
</defs>
<linearGradient id="SVGID_1_" gradientUnits="userSpaceOnUse" x1="250.8955" y1="64.9126" x2="251.2241" y2="38.9506">
	<stop  offset="0" style="stop-color:#000000"/>
	<stop  offset="0.0851" style="stop-color:#1F0000"/>
	<stop  offset="0.2206" style="stop-color:#430000"/>
	<stop  offset="0.3893" style="stop-color:#620000"/>
	<stop  offset="0.5848" style="stop-color:#870102"/>
	<stop  offset="0.7998" style="stop-color:#B71319"/>
	<stop  offset="1" style="stop-color:#ED1C24"/>
</linearGradient>
<path fill="url(#SVGID_1_)" d="M286.15,50.705c0,2.92-1.86,5.64-5.08,7.96c-0.021,0.01-0.04,0.03-0.061,0.04
	c-1.99,1.43-4.5,2.7-7.41,3.77c-0.159,0.06-0.31,0.11-0.47,0.17c-0.89,0.32-1.83,0.62-2.79,0.89c-2.76,0.8-5.79,1.43-9.02,1.86
	c-0.29,0.04-0.59,0.08-0.88,0.11c-1.971,0.24-4.011,0.41-6.101,0.49c-0.479,0.02-0.97,0.04-1.46,0.05
	c-0.39,0.02-0.78,0.02-1.17,0.02h-0.63c-0.271,0-0.55,0-0.82-0.01c-2.7-0.02-5.319-0.18-7.84-0.46c-0.52-0.06-1.04-0.12-1.55-0.19
	c-1.17-0.16-2.32-0.34-3.44-0.55c-0.04-0.01-0.069-0.01-0.1-0.02c-2.54-0.47-4.92-1.07-7.1-1.78c-0.25-0.08-0.5-0.17-0.75-0.25
	c-8.211-2.81-13.48-7.19-13.48-12.1c0-8.49,15.7-15.37,35.08-15.37C270.45,35.335,286.15,42.215,286.15,50.705z"/>
<linearGradient id="SVGID_2_" gradientUnits="userSpaceOnUse" x1="250.4258" y1="65.0796" x2="250.7034" y2="43.1457">
	<stop  offset="0" style="stop-color:#000000"/>
	<stop  offset="0.1326" style="stop-color:#1B0000"/>
	<stop  offset="0.322" style="stop-color:#3E0000"/>
	<stop  offset="0.5456" style="stop-color:#580000"/>
	<stop  offset="0.7933" style="stop-color:#770000"/>
	<stop  offset="1" style="stop-color:#94070A"/>
</linearGradient>
<path fill="url(#SVGID_2_)" d="M284.34,53.245c0,1.94-1.2,3.78-3.27,5.42c-0.021,0.01-0.04,0.03-0.061,0.04
	c-1.85,1.46-4.399,2.76-7.41,3.84c-0.18,0.06-0.359,0.13-0.54,0.19c-0.85,0.3-1.739,0.58-2.659,0.84c-2.78,0.79-5.83,1.42-9.03,1.84
	c-0.311,0.04-0.63,0.08-0.95,0.12c-1.99,0.25-4.03,0.41-6.08,0.47c-0.49,0.03-0.97,0.04-1.46,0.04c-0.39,0.02-0.78,0.02-1.17,0.02
	h-0.29c-0.38,0-0.77-0.01-1.16-0.02c-2.59-0.05-5.22-0.26-7.81-0.61c-0.41-0.05-0.811-0.11-1.21-0.17
	c-1.141-0.17-2.271-0.36-3.38-0.58c-0.311-0.06-0.62-0.12-0.931-0.18h-0.01c-2.34-0.5-4.59-1.09-6.689-1.77
	c-0.19-0.06-0.381-0.12-0.57-0.19c-7.49-2.5-12.84-6.11-12.84-9.95c0-4.16,6.25-7.71,14.699-9.93c5.15-1.38,11.11-2.25,16.971-2.49
	c0.72-0.03,1.439-0.05,2.16-0.06c0.35-0.01,0.71-0.01,1.06-0.01c7.61,0,15.19,1.3,21.12,3.38
	C279.68,45.915,284.34,49.415,284.34,53.245z"/>
<linearGradient id="SVGID_3_" gradientUnits="userSpaceOnUse" x1="34.895" y1="136.915" x2="35.2237" y2="110.951">
	<stop  offset="0" style="stop-color:#000000"/>
	<stop  offset="0.0851" style="stop-color:#1F0000"/>
	<stop  offset="0.2206" style="stop-color:#430000"/>
	<stop  offset="0.3893" style="stop-color:#620000"/>
	<stop  offset="0.5848" style="stop-color:#870102"/>
	<stop  offset="0.7998" style="stop-color:#B71319"/>
	<stop  offset="1" style="stop-color:#ED1C24"/>
</linearGradient>
<path fill="url(#SVGID_3_)" d="M70.15,122.705c0,2.92-1.86,5.64-5.08,7.96c-0.02,0.01-0.04,0.03-0.06,0.04
	c-1.99,1.43-4.5,2.7-7.41,3.77c-0.91,0.33-1.86,0.65-2.84,0.94c-1.6,0.48-3.3,0.9-5.08,1.25c-0.11,0.02-0.22,0.04-0.33,0.06
	c-3.25,0.65-6.77,1.08-10.46,1.24c-0.67,0.04-1.34,0.07-2.01,0.08c-0.12,0-0.24,0.01-0.36,0c-0.01,0.01-0.03,0.01-0.04,0
	c-0.02,0.01-0.03,0.01-0.04,0l-0.02,0.01c-0.22,0-0.45,0.01-0.68,0c-0.1,0.01-0.21,0.01-0.32,0.01h-0.34
	c-3.68,0-7.24-0.25-10.57-0.72c-3.74-0.51-7.2-1.29-10.28-2.29c-8.64-2.8-14.23-7.29-14.23-12.35c0-8.49,15.7-15.37,35.08-15.37
	C54.45,107.335,70.15,114.215,70.15,122.705z"/>
<linearGradient id="SVGID_4_" gradientUnits="userSpaceOnUse" x1="34.4253" y1="137.0771" x2="34.703" y2="115.1412">
	<stop  offset="0" style="stop-color:#000000"/>
	<stop  offset="0.1326" style="stop-color:#1B0000"/>
	<stop  offset="0.322" style="stop-color:#3E0000"/>
	<stop  offset="0.5456" style="stop-color:#580000"/>
	<stop  offset="0.7933" style="stop-color:#770000"/>
	<stop  offset="1" style="stop-color:#94070A"/>
</linearGradient>
<path fill="url(#SVGID_4_)" d="M68.34,125.25c0,1.94-1.2,3.77-3.27,5.42c-0.02,0-0.04,0.02-0.06,0.04c-1.85,1.46-4.4,2.75-7.41,3.83
	c-0.89,0.34-1.82,0.63-2.79,0.92H54.8c-1.61,0.48-3.31,0.89-5.08,1.23c-0.11,0.02-0.22,0.04-0.33,0.06
	c-3.31,0.65-6.86,1.08-10.47,1.23c-0.34,0.02-0.68,0.04-1.02,0.04c-0.34,0.02-0.68,0.02-1.02,0.02c-0.08,0.01-0.16,0.02-0.24,0.01
	c-0.04,0.01-0.08,0.01-0.12,0.01c0,0-0.01,0-0.02,0c0,0-0.01,0-0.02,0c-0.01,0-0.01,0-0.02,0h-1.38c-3.39-0.04-6.85-0.33-10.22-0.85
	c-3.75-0.58-7.38-1.42-10.63-2.48c-7.79-2.5-13.41-6.19-13.41-10.13c0-7.18,18.53-12.5,34.89-12.5
	C52.08,112.1,68.34,118.08,68.34,125.25z"/>
<linearGradient id="SVGID_5_" gradientUnits="userSpaceOnUse" x1="179.0615" y1="209.083" x2="179.3902" y2="183.1178">
	<stop  offset="0" style="stop-color:#000000"/>
	<stop  offset="0.0851" style="stop-color:#1F0000"/>
	<stop  offset="0.2206" style="stop-color:#430000"/>
	<stop  offset="0.3893" style="stop-color:#620000"/>
	<stop  offset="0.5848" style="stop-color:#870102"/>
	<stop  offset="0.7998" style="stop-color:#B71319"/>
	<stop  offset="1" style="stop-color:#ED1C24"/>
</linearGradient>
<path fill="url(#SVGID_5_)" d="M214.317,194.872c0,2.92-1.86,5.64-5.08,7.96c-0.021,0.01-0.04,0.03-0.061,0.04
	c-1.99,1.43-4.5,2.7-7.41,3.77c-1.489,0.551-3.09,1.04-4.779,1.48c-1.61,0.41-3.301,0.77-5.061,1.07
	c-0.689,0.119-1.399,0.229-2.109,0.319c-2.221,0.32-4.54,0.53-6.931,0.641c-0.609,0.029-1.22,0.05-1.84,0.06
	c-0.39,0.021-0.78,0.021-1.17,0.021h-0.63c-0.41,0-0.83,0-1.24-0.011h-0.13c-0.49-0.01-0.979-0.02-1.47-0.04
	c-1.76-0.06-3.49-0.18-5.17-0.35c-4.721-0.49-9.07-1.39-12.84-2.61c-8.641-2.8-14.23-7.29-14.23-12.35
	c0-8.49,15.7-15.37,35.08-15.37C198.617,179.502,214.317,186.382,214.317,194.872z"/>
<linearGradient id="SVGID_6_" gradientUnits="userSpaceOnUse" x1="178.5928" y1="209.248" x2="178.8704" y2="187.3129">
	<stop  offset="0" style="stop-color:#000000"/>
	<stop  offset="0.1326" style="stop-color:#1B0000"/>
	<stop  offset="0.322" style="stop-color:#3E0000"/>
	<stop  offset="0.5456" style="stop-color:#580000"/>
	<stop  offset="0.7933" style="stop-color:#770000"/>
	<stop  offset="1" style="stop-color:#94070A"/>
</linearGradient>
<path fill="url(#SVGID_6_)" d="M212.507,197.412c0,1.939-1.2,3.78-3.27,5.42c-0.021,0.01-0.04,0.03-0.061,0.04
	c-1.85,1.46-4.399,2.76-7.41,3.84c-1.479,0.54-3.08,1.03-4.76,1.45c-1.62,0.42-3.33,0.77-5.09,1.07c-0.69,0.119-1.4,0.22-2.11,0.319
	c-2.25,0.311-4.58,0.521-6.93,0.61c-0.61,0.03-1.22,0.04-1.83,0.05c-0.39,0.021-0.78,0.021-1.17,0.021h-0.29
	c-0.52,0-1.05-0.011-1.58-0.03h-0.12c-0.5-0.021-0.989-0.04-1.489-0.07c-1.74-0.08-3.49-0.24-5.221-0.46
	c-4.51-0.56-8.91-1.52-12.779-2.77c-7.79-2.511-13.411-6.2-13.411-10.141c0-7.17,18.53-12.489,34.89-12.489
	C196.247,184.272,212.507,190.252,212.507,197.412z"/>
<linearGradient id="SVGID_7_" gradientUnits="userSpaceOnUse" x1="250.998" y1="209.502" x2="251.3267" y2="183.5375">
	<stop  offset="0" style="stop-color:#000000"/>
	<stop  offset="0.0851" style="stop-color:#1F0000"/>
	<stop  offset="0.2206" style="stop-color:#430000"/>
	<stop  offset="0.3893" style="stop-color:#620000"/>
	<stop  offset="0.5848" style="stop-color:#870102"/>
	<stop  offset="0.7998" style="stop-color:#B71319"/>
	<stop  offset="1" style="stop-color:#ED1C24"/>
</linearGradient>
<path fill="url(#SVGID_7_)" d="M286.253,195.292c0,2.92-1.86,5.64-5.08,7.96c-0.02,0.01-0.04,0.03-0.06,0.04
	c-1.99,1.43-4.5,2.7-7.41,3.77c-1.04,0.381-2.14,0.74-3.28,1.07c-1.47,0.42-3.02,0.8-4.64,1.12c-0.32,0.07-0.65,0.13-0.98,0.19
	c-2.58,0.479-5.319,0.83-8.17,1.02c-1.2,0.09-2.42,0.14-3.649,0.17c-0.12,0-0.24,0.01-0.36,0c-0.01,0.01-0.03,0.01-0.04,0
	c-0.02,0.01-0.03,0.01-0.04,0l-0.02,0.01c-0.221,0-0.45,0.011-0.681,0c-0.1,0.011-0.21,0.011-0.319,0.011h-0.341
	c-3.859,0-7.56-0.271-11.029-0.78c-3.561-0.51-6.87-1.271-9.82-2.23c-8.64-2.8-14.23-7.29-14.23-12.35
	c0-8.49,15.7-15.37,35.08-15.37C270.553,179.922,286.253,186.802,286.253,195.292z"/>
<linearGradient id="SVGID_8_" gradientUnits="userSpaceOnUse" x1="250.5293" y1="209.6689" x2="250.807" y2="187.733">
	<stop  offset="0" style="stop-color:#000000"/>
	<stop  offset="0.1326" style="stop-color:#1B0000"/>
	<stop  offset="0.322" style="stop-color:#3E0000"/>
	<stop  offset="0.5456" style="stop-color:#580000"/>
	<stop  offset="0.7933" style="stop-color:#770000"/>
	<stop  offset="1" style="stop-color:#94070A"/>
</linearGradient>
<path fill="url(#SVGID_8_)" d="M284.443,197.832c0,1.94-1.2,3.78-3.271,5.42c-0.02,0.01-0.04,0.03-0.06,0.04
	c-1.851,1.46-4.4,2.76-7.41,3.84c-1.03,0.38-2.11,0.72-3.24,1.04c-1.47,0.42-3.03,0.79-4.64,1.11c-0.32,0.069-0.65,0.13-0.98,0.189
	c-2.66,0.49-5.46,0.84-8.31,1.021c-1.181,0.08-2.36,0.12-3.55,0.14c-0.12,0.01-0.24,0.01-0.36,0.01c-0.01,0.011-0.021,0.011-0.04,0
	c-0.02,0.011-0.04,0.011-0.06,0c-0.221,0.011-0.44,0.011-0.66,0.011h-0.681c-3.83-0.04-7.76-0.42-11.54-1.07
	c-3.279-0.56-6.449-1.33-9.31-2.26c-7.79-2.511-13.41-6.2-13.41-10.141c0-7.17,18.53-12.489,34.891-12.489
	C268.183,184.692,284.443,190.672,284.443,197.832z"/>
<linearGradient id="SVGID_9_" gradientUnits="userSpaceOnUse" x1="178.8955" y1="280.9131" x2="179.2241" y2="254.9548">
	<stop  offset="0" style="stop-color:#000000"/>
	<stop  offset="0.0851" style="stop-color:#1F0000"/>
	<stop  offset="0.2206" style="stop-color:#430000"/>
	<stop  offset="0.3893" style="stop-color:#620000"/>
	<stop  offset="0.5848" style="stop-color:#870102"/>
	<stop  offset="0.7998" style="stop-color:#B71319"/>
	<stop  offset="1" style="stop-color:#ED1C24"/>
</linearGradient>
<ellipse fill="url(#SVGID_9_)" cx="179.076" cy="266.701" rx="35.076" ry="15.361"/>
<linearGradient id="SVGID_10_" gradientUnits="userSpaceOnUse" x1="178.4297" y1="281.0762" x2="178.7073" y2="259.1439">
	<stop  offset="0" style="stop-color:#000000"/>
	<stop  offset="0.1326" style="stop-color:#1B0000"/>
	<stop  offset="0.322" style="stop-color:#3E0000"/>
	<stop  offset="0.5456" style="stop-color:#580000"/>
	<stop  offset="0.7933" style="stop-color:#770000"/>
	<stop  offset="1" style="stop-color:#94070A"/>
</linearGradient>
<path fill="url(#SVGID_10_)" d="M212.345,269.248c0,7.168-16.262,12.814-32.63,12.814c-16.367,0-34.894-6.305-34.894-13.472
	c0-7.169,18.526-12.486,34.894-12.486C196.083,256.104,212.345,262.08,212.345,269.248z"/>
<linearGradient id="SVGID_11_" gradientUnits="userSpaceOnUse" x1="250.9004" y1="137.2065" x2="251.229" y2="111.2438">
	<stop  offset="0" style="stop-color:#000000"/>
	<stop  offset="0.0851" style="stop-color:#1F0000"/>
	<stop  offset="0.2206" style="stop-color:#430000"/>
	<stop  offset="0.3893" style="stop-color:#620000"/>
	<stop  offset="0.5848" style="stop-color:#870102"/>
	<stop  offset="0.7998" style="stop-color:#B71319"/>
	<stop  offset="1" style="stop-color:#ED1C24"/>
</linearGradient>
<path fill="url(#SVGID_11_)" d="M286.16,122.988c0,2.869-1.811,5.57-4.95,7.869c-0.04,0.031-0.08,0.061-0.13,0.101
	c-1.22,0.88-2.63,1.7-4.21,2.45c-2.05,0.97-4.4,1.84-6.98,2.55c-0.069,0.03-0.14,0.05-0.22,0.069c-0.68,0.181-1.38,0.361-2.1,0.531
	c-4.42,1.029-9.391,1.659-14.681,1.779c-0.39,0.02-0.779,0.02-1.17,0.02h-0.64c-0.68,0-1.36-0.01-2.04-0.029
	c-6.07-0.15-11.73-0.98-16.58-2.311c-0.65-0.18-1.29-0.369-1.91-0.569c-0.04-0.011-0.07-0.021-0.11-0.03
	c-3.039-0.97-5.699-2.15-7.88-3.48c-4.13-2.52-6.56-5.619-6.56-8.949c0-8.48,15.71-15.36,35.08-15.36S286.16,114.508,286.16,122.988
	z"/>
<linearGradient id="SVGID_12_" gradientUnits="userSpaceOnUse" x1="250.4307" y1="137.3682" x2="250.7083" y2="115.438">
	<stop  offset="0" style="stop-color:#000000"/>
	<stop  offset="0.1326" style="stop-color:#1B0000"/>
	<stop  offset="0.322" style="stop-color:#3E0000"/>
	<stop  offset="0.5456" style="stop-color:#580000"/>
	<stop  offset="0.7933" style="stop-color:#770000"/>
	<stop  offset="1" style="stop-color:#94070A"/>
</linearGradient>
<path fill="url(#SVGID_12_)" d="M284.35,125.538c0,1.91-1.149,3.7-3.14,5.319c-0.04,0.031-0.08,0.061-0.13,0.101
	c-1.15,0.91-2.58,1.771-4.23,2.54c-2.01,0.96-4.35,1.8-6.91,2.51c-0.09,0.02-0.18,0.051-0.279,0.07c-0.67,0.18-1.351,0.35-2.05,0.52
	c-4.53,1.041-9.591,1.67-14.721,1.74c-0.39,0.02-0.779,0.02-1.17,0.02c-0.16,0-0.319,0-0.479-0.01c-0.73,0-1.46-0.01-2.19-0.05
	c-5.59-0.22-11.29-1.13-16.31-2.521c-0.66-0.18-1.311-0.369-1.95-0.569c-0.13-0.04-0.26-0.08-0.39-0.13
	c-3-0.95-5.681-2.08-7.851-3.33c-3.54-2.04-5.729-4.4-5.729-6.859c0-7.171,18.529-12.49,34.899-12.49S284.35,118.368,284.35,125.538
	z"/>
<linearGradient id="SVGID_13_" gradientUnits="userSpaceOnUse" x1="34.9004" y1="209.04" x2="35.229" y2="183.0769">
	<stop  offset="0" style="stop-color:#000000"/>
	<stop  offset="0.0851" style="stop-color:#1F0000"/>
	<stop  offset="0.2206" style="stop-color:#430000"/>
	<stop  offset="0.3893" style="stop-color:#620000"/>
	<stop  offset="0.5848" style="stop-color:#870102"/>
	<stop  offset="0.7998" style="stop-color:#B71319"/>
	<stop  offset="1" style="stop-color:#ED1C24"/>
</linearGradient>
<path fill="url(#SVGID_13_)" d="M70.16,194.821c0,2.869-1.811,5.57-4.95,7.869c-0.04,0.031-0.08,0.061-0.13,0.101
	c-1.22,0.88-2.63,1.7-4.21,2.45c-2.05,0.97-4.4,1.84-6.98,2.55c-0.069,0.03-0.14,0.05-0.22,0.069c-0.68,0.181-1.38,0.361-2.1,0.531
	c-4.42,1.029-9.391,1.659-14.681,1.779c-0.39,0.02-0.779,0.02-1.17,0.02h-0.64c-0.68,0-1.36-0.01-2.04-0.029
	c-6.07-0.15-11.73-0.98-16.58-2.311c-0.65-0.18-1.29-0.369-1.91-0.569c-0.04-0.011-0.07-0.021-0.11-0.03
	c-3.039-0.97-5.699-2.15-7.88-3.48c-4.13-2.52-6.56-5.619-6.56-8.949c0-8.48,15.71-15.36,35.08-15.36S70.16,186.341,70.16,194.821z"
	/>
<linearGradient id="SVGID_14_" gradientUnits="userSpaceOnUse" x1="34.4307" y1="209.2012" x2="34.7082" y2="187.2714">
	<stop  offset="0" style="stop-color:#000000"/>
	<stop  offset="0.1326" style="stop-color:#1B0000"/>
	<stop  offset="0.322" style="stop-color:#3E0000"/>
	<stop  offset="0.5456" style="stop-color:#580000"/>
	<stop  offset="0.7933" style="stop-color:#770000"/>
	<stop  offset="1" style="stop-color:#94070A"/>
</linearGradient>
<path fill="url(#SVGID_14_)" d="M68.35,197.371c0,1.91-1.149,3.7-3.14,5.319c-0.04,0.031-0.08,0.061-0.13,0.101
	c-1.15,0.91-2.58,1.771-4.23,2.54c-2.01,0.96-4.35,1.8-6.91,2.51c-0.09,0.02-0.18,0.051-0.279,0.07c-0.67,0.18-1.351,0.35-2.05,0.52
	c-4.53,1.041-9.591,1.67-14.721,1.74c-0.39,0.02-0.779,0.02-1.17,0.02c-0.16,0-0.319,0-0.479-0.01c-0.73,0-1.46-0.01-2.19-0.05
	c-5.59-0.22-11.29-1.13-16.31-2.521c-0.66-0.18-1.311-0.369-1.95-0.569c-0.13-0.04-0.26-0.08-0.39-0.13
	c-3-0.95-5.681-2.08-7.851-3.33c-3.54-2.04-5.729-4.4-5.729-6.859c0-7.171,18.529-12.49,34.899-12.49S68.35,190.201,68.35,197.371z"
	/>
<linearGradient id="SVGID_15_" gradientUnits="userSpaceOnUse" x1="34.8965" y1="64.9126" x2="35.225" y2="38.9552">
	<stop  offset="0" style="stop-color:#000000"/>
	<stop  offset="0.0851" style="stop-color:#1F0000"/>
	<stop  offset="0.2206" style="stop-color:#430000"/>
	<stop  offset="0.3893" style="stop-color:#620000"/>
	<stop  offset="0.5848" style="stop-color:#870102"/>
	<stop  offset="0.7998" style="stop-color:#B71319"/>
	<stop  offset="1" style="stop-color:#ED1C24"/>
</linearGradient>
<ellipse fill="url(#SVGID_15_)" cx="35.076" cy="50.701" rx="35.076" ry="15.361"/>
<linearGradient id="SVGID_16_" gradientUnits="userSpaceOnUse" x1="34.4287" y1="65.0762" x2="34.7063" y2="43.1443">
	<stop  offset="0" style="stop-color:#000000"/>
	<stop  offset="0.1326" style="stop-color:#1B0000"/>
	<stop  offset="0.322" style="stop-color:#3E0000"/>
	<stop  offset="0.5456" style="stop-color:#580000"/>
	<stop  offset="0.7933" style="stop-color:#770000"/>
	<stop  offset="1" style="stop-color:#94070A"/>
</linearGradient>
<path fill="url(#SVGID_16_)" d="M68.345,53.248c0,7.168-16.262,12.814-32.63,12.814c-16.368,0-34.894-6.304-34.894-13.471
	c0-7.168,18.526-12.486,34.894-12.486C52.083,40.104,68.345,46.08,68.345,53.248z"/>
<radialGradient id="SVGID_17_" cx="189.4238" cy="55.1475" r="46.5344" gradientTransform="matrix(1 0 0 -1 -153.6602 85.04)" gradientUnits="userSpaceOnUse">
	<stop  offset="0" style="stop-color:#FFFFFF"/>
	<stop  offset="1" style="stop-color:#7BCDE8"/>
</radialGradient>
<polygon fill="url(#SVGID_17_)" stroke="#39C6F3" stroke-width="0.5" stroke-miterlimit="10" points="31.081,26.381 27.829,18.445 
	20.024,16.495 20.935,11.682 25.748,12.853 24.837,10.511 29.389,8.82 30.561,11.292 33.682,7 37.324,10.122 32.511,16.625 
	35.243,24.559 37.324,19.876 41.486,21.568 39.797,25.99 47.731,23.128 49.551,15.583 54.104,16.755 53.193,21.047 55.144,20.527 
	56.705,24.559 54.234,25.73 58.527,29.242 56.055,32.495 49.291,27.812 41.096,30.674 44.998,33.146 42.788,36.657 39.666,35.486 
	42.397,42.249 49.551,43.81 48.771,48.233 44.218,47.453 45.259,50.185 40.837,51.876 39.666,49.014 36.674,52.786 33.291,49.665 
	37.583,43.81 34.854,36.788 33.422,39.778 29.389,38.217 30.69,34.835 23.536,37.306 21.715,44.331 16.773,43.55 17.683,39.908 
	15.602,40.429 13.521,35.876 16.512,34.575 13,31.974 15.732,28.072 21.715,32.884 28.089,30.412 23.926,28.072 26.138,24.559 "/>
<linearGradient id="SVGID_18_" gradientUnits="userSpaceOnUse" x1="106.8965" y1="65.0796" x2="107.2251" y2="39.1218">
	<stop  offset="0" style="stop-color:#000000"/>
	<stop  offset="0.0851" style="stop-color:#1F0000"/>
	<stop  offset="0.2206" style="stop-color:#430000"/>
	<stop  offset="0.3893" style="stop-color:#620000"/>
	<stop  offset="0.5848" style="stop-color:#870102"/>
	<stop  offset="0.7998" style="stop-color:#B71319"/>
	<stop  offset="1" style="stop-color:#ED1C24"/>
</linearGradient>
<ellipse fill="url(#SVGID_18_)" cx="107.076" cy="50.868" rx="35.076" ry="15.361"/>
<linearGradient id="SVGID_19_" gradientUnits="userSpaceOnUse" x1="106.4292" y1="65.2432" x2="106.7068" y2="43.3109">
	<stop  offset="0" style="stop-color:#000000"/>
	<stop  offset="0.1326" style="stop-color:#1B0000"/>
	<stop  offset="0.322" style="stop-color:#3E0000"/>
	<stop  offset="0.5456" style="stop-color:#580000"/>
	<stop  offset="0.7933" style="stop-color:#770000"/>
	<stop  offset="1" style="stop-color:#94070A"/>
</linearGradient>
<path fill="url(#SVGID_19_)" d="M140.345,53.415c0,7.168-16.262,12.814-32.63,12.814c-16.368,0-34.894-6.305-34.894-13.472
	c0-7.169,18.526-12.486,34.894-12.486C124.083,40.271,140.345,46.247,140.345,53.415z"/>
<radialGradient id="SVGID_20_" cx="261.0859" cy="47.4805" r="46.5344" gradientTransform="matrix(1 0 0 -1 -153.6602 85.04)" gradientUnits="userSpaceOnUse">
	<stop  offset="0" style="stop-color:#FFFFFF"/>
	<stop  offset="1" style="stop-color:#7BCDE8"/>
</radialGradient>
<polygon fill="url(#SVGID_20_)" stroke="#39C6F3" stroke-width="0.5" stroke-miterlimit="10" points="102.743,34.048 99.491,26.112 
	91.687,24.162 92.597,19.349 97.41,20.52 96.5,18.178 101.05,16.487 102.223,18.958 105.343,14.667 108.986,17.789 104.173,24.292 
	106.905,32.226 108.986,27.543 113.148,29.235 111.458,33.657 119.393,30.795 121.213,23.25 125.766,24.422 124.855,28.714 
	126.806,28.194 128.367,32.226 125.896,33.397 130.189,36.909 127.717,40.162 120.953,35.479 112.758,38.341 116.66,40.813 
	114.45,44.324 111.328,43.153 114.059,49.916 121.213,51.477 120.433,55.899 115.88,55.12 116.921,57.852 112.5,59.543 
	111.328,56.681 108.335,60.452 104.953,57.331 109.246,51.477 106.515,44.455 105.084,47.445 101.05,45.884 102.353,42.502 
	95.199,44.973 93.377,51.997 88.435,51.217 89.345,47.575 87.264,48.096 85.183,43.543 88.173,42.242 84.662,39.641 87.394,35.739 
	93.377,40.551 99.751,38.079 95.588,35.739 97.8,32.226 "/>
<radialGradient id="SVGID_21_" cx="163.5107" cy="65.1885" r="1.9548" gradientUnits="userSpaceOnUse">
	<stop  offset="0" style="stop-color:#FFFFFF"/>
	<stop  offset="1" style="stop-color:#7BCDE8"/>
</radialGradient>
<path fill="url(#SVGID_21_)" d="M166.096,65.278l-0.229,0.89l-4.94-0.79l0.29-1.17C162.766,64.628,164.396,64.979,166.096,65.278z"
	/>
<linearGradient id="SVGID_22_" gradientUnits="userSpaceOnUse" x1="179.0605" y1="65.2485" x2="179.3892" y2="39.2841">
	<stop  offset="0" style="stop-color:#000000"/>
	<stop  offset="0.0851" style="stop-color:#1F0000"/>
	<stop  offset="0.2206" style="stop-color:#430000"/>
	<stop  offset="0.3893" style="stop-color:#620000"/>
	<stop  offset="0.5848" style="stop-color:#870102"/>
	<stop  offset="0.7998" style="stop-color:#B71319"/>
	<stop  offset="1" style="stop-color:#ED1C24"/>
</linearGradient>
<path fill="url(#SVGID_22_)" d="M214.316,51.039c0,2.92-1.86,5.64-5.08,7.96c-0.021,0.01-0.04,0.03-0.061,0.04
	c-1.99,1.43-4.5,2.7-7.41,3.77c-2.84,1.04-6.05,1.89-9.55,2.5c-3,0.53-6.189,0.88-9.53,1.02c-0.5,0.03-0.989,0.04-1.489,0.05h-0.15
	c-0.39,0.02-0.78,0.02-1.17,0.02h-0.63c-4.65,0-9.09-0.4-13.15-1.12c-1.699-0.3-3.33-0.65-4.88-1.07
	c-0.97-0.25-1.91-0.52-2.819-0.82c-8.641-2.8-14.23-7.29-14.23-12.35c0-5.07,5.59-9.56,14.23-12.36c1.869-0.61,3.88-1.14,6.01-1.57
	c3.33-0.68,6.939-1.14,10.74-1.33c1.17-0.06,2.369-0.1,3.579-0.1c0.171-0.01,0.351-0.01,0.521-0.01c0.39,0,0.77,0,1.16,0.01
	c8.12,0.11,15.54,1.44,21.359,3.58C209.436,42.079,214.316,46.309,214.316,51.039z"/>
<linearGradient id="SVGID_23_" gradientUnits="userSpaceOnUse" x1="178.5908" y1="65.416" x2="178.8685" y2="43.4797">
	<stop  offset="0" style="stop-color:#000000"/>
	<stop  offset="0.1326" style="stop-color:#1B0000"/>
	<stop  offset="0.322" style="stop-color:#3E0000"/>
	<stop  offset="0.5456" style="stop-color:#580000"/>
	<stop  offset="0.7933" style="stop-color:#770000"/>
	<stop  offset="1" style="stop-color:#94070A"/>
</linearGradient>
<path fill="url(#SVGID_23_)" d="M212.506,53.579c0,1.94-1.2,3.78-3.27,5.42c-0.021,0.01-0.04,0.03-0.061,0.04
	c-1.85,1.46-4.399,2.76-7.41,3.84c-2.819,1.02-6.04,1.86-9.47,2.45c-3.08,0.54-6.32,0.89-9.61,1c-0.5,0.03-0.989,0.04-1.489,0.05
	h-0.15c-0.39,0.02-0.78,0.02-1.17,0.02h-0.63c-4.36-0.04-8.85-0.53-13.09-1.36c-1.67-0.32-3.3-0.69-4.87-1.12
	c-0.99-0.26-1.96-0.55-2.89-0.85c-7.79-2.51-13.411-6.2-13.411-10.14c0-3.95,5.621-7.34,13.411-9.58c4.17-1.2,8.949-2.08,13.81-2.54
	c1.57-0.15,3.15-0.25,4.72-0.31c0.15-0.01,0.29-0.01,0.44-0.01c0.84-0.04,1.68-0.05,2.51-0.05c4.18,0,8.35,0.39,12.24,1.09
	c0.189,0.03,0.38,0.07,0.569,0.11c1.62,0.3,3.2,0.66,4.7,1.07c0.09,0.03,0.19,0.05,0.28,0.08c0.69,0.19,1.37,0.39,2.03,0.6
	c0.71,0.23,1.399,0.47,2.069,0.72C208.196,46.519,212.506,49.889,212.506,53.579z"/>
<radialGradient id="SVGID_24_" cx="179.9209" cy="47.6035" r="42.5328" gradientUnits="userSpaceOnUse">
	<stop  offset="0" style="stop-color:#FFFFFF"/>
	<stop  offset="1" style="stop-color:#7BCDE8"/>
</radialGradient>
<path fill="url(#SVGID_24_)" stroke="#39C6F3" stroke-width="0.5" stroke-miterlimit="10" d="M202.686,51.079l-2.479,3.25
	l-6.76-4.68l-8.2,2.86l3.91,2.47l-2.21,3.51l-3.13-1.17l2.739,6.76l5.66,1.23l0.08,0.02c-3.08,0.54-6.32,0.89-9.61,1
	c-0.5,0.03-0.989,0.04-1.489,0.05l0.54-0.74l-2.73-7.02l-1.43,2.99l-4.03-1.56l1.3-3.38l-7.149,2.47l-1.54,5.9l-0.061,0.24
	c-1.699-0.3-3.33-0.65-4.88-1.07l0.07-0.29l0.55-2.18l-2.08,0.52l-2.08-4.55l2.99-1.3l-3.51-2.6l2.729-3.9l5.98,4.81l6.38-2.47
	l-4.16-2.34l2.21-3.52l4.94,1.83l-3.03-7.41l-0.22-0.53l-7.811-1.95l0.23-1.22l0.68-3.59l4.82,1.17l-0.91-2.34l4.55-1.7l1.17,2.48
	l3.12-4.3l3.64,3.13l-2.75,3.72l-2.06,2.78l0.7,2.03l2.03,5.9l2.079-4.68l4.16,1.69l-1.68,4.42l7.93-2.86l0.8-3.32l1.021-4.22
	l4.55,1.17l-0.87,4.12l-0.04,0.17l0.32-0.09l1.63-0.43l0.4,1.03l1.16,3l-2.471,1.17L202.686,51.079z"/>
<radialGradient id="SVGID_25_" cx="233.4053" cy="62.4502" r="6.6196" gradientUnits="userSpaceOnUse">
	<stop  offset="0" style="stop-color:#FFFFFF"/>
	<stop  offset="1" style="stop-color:#7BCDE8"/>
</radialGradient>
<path fill="url(#SVGID_25_)" stroke="#39C6F3" stroke-width="0.5" stroke-miterlimit="10" d="M236.93,64.505l0.4,0.33
	c-2.54-0.47-4.92-1.07-7.1-1.78c-0.25-0.08-0.5-0.17-0.75-0.25l0.18-0.26l1.74-2.48l5.52,4.44H236.93z"/>
<radialGradient id="SVGID_26_" cx="254.9453" cy="52.5303" r="33.9245" gradientUnits="userSpaceOnUse">
	<stop  offset="0" style="stop-color:#FFFFFF"/>
	<stop  offset="1" style="stop-color:#7BCDE8"/>
</radialGradient>
<path fill="url(#SVGID_26_)" stroke="#39C6F3" stroke-width="0.5" stroke-miterlimit="10" d="M274.2,61.235l-1.07,1.41l-0.07,0.09
	l-1.34,1.75l-1.319-0.91l-0.061-0.04l-5.38-3.73l-8.19,2.86l3.9,2.47l-0.229,0.37l-0.021,0.03c-1.99,0.25-4.03,0.41-6.08,0.47
	c-0.49,0.03-0.97,0.04-1.46,0.04c-0.39,0.02-0.78,0.02-1.17,0.02h-0.63c-0.271,0-0.55,0-0.82-0.01c-2.7-0.02-5.319-0.18-7.84-0.46
	c-0.52-0.06-1.04-0.12-1.55-0.19c-1.17-0.16-2.32-0.34-3.44-0.55l0.431-0.17l5.899-2.28l-4.16-2.34l2.21-3.51l4.94,1.82l-3.25-7.94
	l-7.81-1.95l0.909-4.81l4.82,1.17l-0.91-2.34l4.55-1.69l1.171,2.47l2.26-3.11l0.859-1.18l1.301,1.12l2.34,2l-4.811,6.5l2.73,7.94
	l2.08-4.68l4.17,1.69l-1.69,4.42l7.931-2.86l1.819-7.55l4.55,1.17l-0.909,4.3l1.949-0.52l1.561,4.03l-2.47,1.17L274.2,61.235z"/>
<radialGradient id="SVGID_27_" cx="35.8701" cy="125.9053" r="32.4257" gradientUnits="userSpaceOnUse">
	<stop  offset="0" style="stop-color:#FFFFFF"/>
	<stop  offset="1" style="stop-color:#7BCDE8"/>
</radialGradient>
<path fill="url(#SVGID_27_)" stroke="#39C6F3" stroke-width="0.5" stroke-miterlimit="10" d="M54.8,135.46
	c-1.61,0.48-3.31,0.89-5.08,1.23c-0.11,0.02-0.22,0.04-0.33,0.06l-0.04-0.02l-3.14-2.17l-8.19,2.86l0.87,0.54l0.03,0.02
	c-0.34,0.02-0.68,0.04-1.02,0.04c-0.34,0.02-0.68,0.02-1.02,0.02c-0.08,0.01-0.16,0.02-0.24,0.01c-0.04,0.01-0.08,0.01-0.12,0.01
	c0,0-0.01,0-0.02,0c0,0-0.01,0-0.02,0c-0.01,0-0.01,0-0.02,0h-1.38c-3.68,0-7.24-0.25-10.57-0.71l0.35-0.14l0.15-0.06l-4.16-2.34
	l2.21-3.5l4.94,1.81l-3.25-7.93l-7.81-1.96l0.91-4.81l4.82,1.18l-0.91-2.35l4.55-1.69l1.17,2.48l3.12-4.29l3.64,3.12l-4.81,6.5
	l2.73,7.94l2.08-4.69l4.17,1.69l-1.69,4.42l7.93-2.85l1.82-7.55l4.55,1.17l-0.91,4.29l1.95-0.52l1.56,4.04l-2.47,1.17l3.61,2.94
	L54.8,135.46z"/>
<linearGradient id="SVGID_28_" gradientUnits="userSpaceOnUse" x1="107.0615" y1="137.417" x2="107.3902" y2="111.4517">
	<stop  offset="0" style="stop-color:#000000"/>
	<stop  offset="0.0851" style="stop-color:#1F0000"/>
	<stop  offset="0.2206" style="stop-color:#430000"/>
	<stop  offset="0.3893" style="stop-color:#620000"/>
	<stop  offset="0.5848" style="stop-color:#870102"/>
	<stop  offset="0.7998" style="stop-color:#B71319"/>
	<stop  offset="1" style="stop-color:#ED1C24"/>
</linearGradient>
<path fill="url(#SVGID_28_)" d="M142.316,123.206c0,2.92-1.86,5.64-5.08,7.96c-0.02,0.01-0.04,0.03-0.06,0.04
	c-1.99,1.43-4.5,2.7-7.41,3.77c-1.76,0.65-3.67,1.22-5.71,1.71c-1.32,0.32-2.7,0.6-4.13,0.84c-1.1,0.19-2.23,0.35-3.39,0.49
	c-2.23,0.27-4.56,0.45-6.96,0.51v0.01c-0.18,0-0.35,0.01-0.53,0.01c-0.39,0.02-0.78,0.02-1.17,0.02h-0.63c-0.41,0-0.83,0-1.24-0.01
	c-0.48-0.01-0.95-0.02-1.43-0.03c-0.41-0.02-0.82-0.03-1.23-0.06c-1.77-0.08-3.5-0.22-5.18-0.43c-4.31-0.49-8.29-1.35-11.77-2.48
	c-8.64-2.8-14.23-7.29-14.23-12.35c0-8.49,15.7-15.37,35.08-15.37C126.617,107.835,142.316,114.715,142.316,123.206z"/>
<linearGradient id="SVGID_29_" gradientUnits="userSpaceOnUse" x1="106.5918" y1="137.5815" x2="106.8694" y2="115.6464">
	<stop  offset="0" style="stop-color:#000000"/>
	<stop  offset="0.1326" style="stop-color:#1B0000"/>
	<stop  offset="0.322" style="stop-color:#3E0000"/>
	<stop  offset="0.5456" style="stop-color:#580000"/>
	<stop  offset="0.7933" style="stop-color:#770000"/>
	<stop  offset="1" style="stop-color:#94070A"/>
</linearGradient>
<path fill="url(#SVGID_29_)" d="M140.506,125.746c0,1.94-1.2,3.78-3.27,5.42c-0.02,0.01-0.04,0.03-0.06,0.04
	c-1.85,1.46-4.4,2.76-7.41,3.84c-1.76,0.64-3.67,1.2-5.7,1.68c-1.34,0.32-2.73,0.6-4.15,0.84c-1.11,0.19-2.24,0.35-3.39,0.48
	c-2.27,0.27-4.6,0.44-6.95,0.49c-0.18,0-0.35,0.01-0.53,0.01c-0.39,0.02-0.78,0.02-1.17,0.02h-0.29c-0.52,0-1.05-0.01-1.58-0.03
	c-0.47-0.01-0.94-0.03-1.41-0.06c-0.43-0.01-0.85-0.04-1.27-0.07c-1.75-0.11-3.51-0.3-5.24-0.54c-4.13-0.57-8.14-1.48-11.69-2.63
	c-7.79-2.51-13.41-6.2-13.41-10.14c0-7.17,18.53-12.49,34.89-12.49C124.247,112.605,140.506,118.585,140.506,125.746z"/>
<radialGradient id="SVGID_30_" cx="97.3262" cy="130.4805" r="16.9685" gradientUnits="userSpaceOnUse">
	<stop  offset="0" style="stop-color:#FFFFFF"/>
	<stop  offset="1" style="stop-color:#7BCDE8"/>
</radialGradient>
<path fill="url(#SVGID_30_)" stroke="#39C6F3" stroke-width="0.5" stroke-miterlimit="10" d="M103.327,138.405l0.02,0.06
	c-1.77-0.08-3.5-0.22-5.18-0.43l-0.08-0.17l-1.6-3.92l-7.81-1.95l0.91-4.81l4.82,1.17l-0.91-2.34l4.55-1.7l1.17,2.48l3.12-4.3
	l3.64,3.13l-4.81,6.5L103.327,138.405z"/>
<radialGradient id="SVGID_31_" cx="107.3564" cy="136.9707" r="4.6199" gradientUnits="userSpaceOnUse">
	<stop  offset="0" style="stop-color:#FFFFFF"/>
	<stop  offset="1" style="stop-color:#7BCDE8"/>
</radialGradient>
<path fill="url(#SVGID_31_)" stroke="#39C6F3" stroke-width="0.5" stroke-miterlimit="10" d="M105.977,135.375l4.16,1.69l-0.56,1.46
	v0.01c-0.18,0-0.35,0.01-0.53,0.01c-0.39,0.02-0.78,0.02-1.17,0.02h-0.63c-0.41,0-0.83,0-1.24-0.01c-0.48-0.01-0.95-0.02-1.43-0.03
	l0.02-0.05L105.977,135.375z"/>
<radialGradient id="SVGID_32_" cx="120.2964" cy="134.5654" r="7.3953" gradientUnits="userSpaceOnUse">
	<stop  offset="0" style="stop-color:#FFFFFF"/>
	<stop  offset="1" style="stop-color:#7BCDE8"/>
</radialGradient>
<path fill="url(#SVGID_32_)" stroke="#39C6F3" stroke-width="0.5" stroke-miterlimit="10" d="M124.066,136.726
	c-1.34,0.32-2.73,0.6-4.15,0.84c-1.11,0.19-2.24,0.35-3.39,0.48l0.01-0.03l1.67-6.93l4.55,1.17l-0.91,4.29l1.95-0.52l0.26,0.66
	L124.066,136.726z"/>
<linearGradient id="SVGID_33_" gradientUnits="userSpaceOnUse" x1="178.9355" y1="137.3491" x2="179.2641" y2="111.3929">
	<stop  offset="0" style="stop-color:#000000"/>
	<stop  offset="0.0851" style="stop-color:#1F0000"/>
	<stop  offset="0.2206" style="stop-color:#430000"/>
	<stop  offset="0.3893" style="stop-color:#620000"/>
	<stop  offset="0.5848" style="stop-color:#870102"/>
	<stop  offset="0.7998" style="stop-color:#B71319"/>
	<stop  offset="1" style="stop-color:#ED1C24"/>
</linearGradient>
<path fill="url(#SVGID_33_)" d="M214.19,123.138c0,2.87-1.811,5.57-4.95,7.86c-0.04,0.03-0.08,0.07-0.13,0.1
	c-2.15,1.56-4.91,2.93-8.141,4.05c-2.37,0.83-4.979,1.52-7.79,2.06c-0.42,0.08-0.84,0.16-1.27,0.23c-3.44,0.59-7.13,0.95-10.99,1.04
	c-0.39,0.01-0.79,0.01-1.189,0.01c-0.091,0.01-0.181,0.01-0.271,0.01h-0.34c-1.32,0-2.62-0.03-3.9-0.1h-0.069
	c-4.45-0.22-8.65-0.8-12.431-1.68c-1.39-0.32-2.729-0.68-4-1.08c-8.89-2.79-14.68-7.35-14.68-12.5c0-8.48,15.7-15.36,35.08-15.36
	C198.49,107.778,214.19,114.658,214.19,123.138z"/>
<linearGradient id="SVGID_34_" gradientUnits="userSpaceOnUse" x1="178.4658" y1="137.5117" x2="178.7434" y2="115.5787">
	<stop  offset="0" style="stop-color:#000000"/>
	<stop  offset="0.1326" style="stop-color:#1B0000"/>
	<stop  offset="0.322" style="stop-color:#3E0000"/>
	<stop  offset="0.5456" style="stop-color:#580000"/>
	<stop  offset="0.7933" style="stop-color:#770000"/>
	<stop  offset="1" style="stop-color:#94070A"/>
</linearGradient>
<path fill="url(#SVGID_34_)" d="M212.38,125.688c0,1.9-1.149,3.7-3.14,5.31c-0.04,0.03-0.08,0.07-0.13,0.1
	c-1.99,1.57-4.78,2.97-8.11,4.11c-2.35,0.81-4.96,1.5-7.73,2.03c-0.449,0.08-0.909,0.17-1.369,0.24c-3.5,0.59-7.23,0.94-10.98,1
	c-0.38,0.02-0.77,0.02-1.16,0.02h-0.3c-1.41-0.01-2.83-0.06-4.26-0.16c-0.021,0-0.05,0-0.07-0.01c-4.22-0.28-8.45-0.94-12.36-1.9
	c-1.35-0.32-2.67-0.69-3.93-1.08c-8.08-2.51-13.98-6.28-13.98-10.32c0-7.17,18.53-12.49,34.9-12.49
	C196.12,112.538,212.38,118.518,212.38,125.688z"/>
<radialGradient id="SVGID_35_" cx="171.2646" cy="133.3633" r="14.2955" gradientUnits="userSpaceOnUse">
	<stop  offset="0" style="stop-color:#FFFFFF"/>
	<stop  offset="1" style="stop-color:#7BCDE8"/>
</radialGradient>
<path fill="url(#SVGID_35_)" stroke="#39C6F3" stroke-width="0.5" stroke-miterlimit="10" d="M179.81,131.458l-4.81,6.5l0.13,0.37
	l0.021,0.07c-4.45-0.22-8.65-0.8-12.431-1.68l0.05-0.29l0.65-3.41l4.82,1.17l-0.91-2.34l4.55-1.7l1.17,2.48l3.12-4.3L179.81,131.458
	z"/>
<radialGradient id="SVGID_36_" cx="192.585" cy="137.1982" r="1.066" gradientUnits="userSpaceOnUse">
	<stop  offset="0" style="stop-color:#FFFFFF"/>
	<stop  offset="1" style="stop-color:#7BCDE8"/>
</radialGradient>
<path fill="url(#SVGID_36_)" stroke="#39C6F3" stroke-width="0.5" stroke-miterlimit="10" d="M193.27,137.238
	c-0.449,0.08-0.909,0.17-1.369,0.24l0.01-0.04l0.13-0.52l1.14,0.29L193.27,137.238z"/>
<linearGradient id="SVGID_37_" gradientUnits="userSpaceOnUse" x1="106.9351" y1="209.0166" x2="107.2636" y2="183.0608">
	<stop  offset="0" style="stop-color:#000000"/>
	<stop  offset="0.0851" style="stop-color:#1F0000"/>
	<stop  offset="0.2206" style="stop-color:#430000"/>
	<stop  offset="0.3893" style="stop-color:#620000"/>
	<stop  offset="0.5848" style="stop-color:#870102"/>
	<stop  offset="0.7998" style="stop-color:#B71319"/>
	<stop  offset="1" style="stop-color:#ED1C24"/>
</linearGradient>
<path fill="url(#SVGID_37_)" d="M142.19,194.805c0,2.87-1.81,5.57-4.95,7.86c-0.04,0.03-0.08,0.07-0.13,0.1
	c-2.15,1.561-4.91,2.931-8.14,4.051c-2.02,0.699-4.21,1.31-6.55,1.81c-0.99,0.21-2,0.4-3.03,0.57c-3.29,0.54-6.8,0.87-10.47,0.949
	c-0.39,0.011-0.79,0.011-1.19,0.011c-0.09,0.01-0.18,0.01-0.27,0.01h-0.34c-1.32,0-2.62-0.03-3.9-0.1c-0.06,0-0.13-0.011-0.19-0.011
	c-4.58-0.229-8.89-0.84-12.76-1.77c-1.23-0.3-2.41-0.63-3.55-0.98c-8.89-2.79-14.68-7.35-14.68-12.5
	c0-8.479,15.7-15.359,35.08-15.359C126.49,179.445,142.19,186.325,142.19,194.805z"/>
<linearGradient id="SVGID_38_" gradientUnits="userSpaceOnUse" x1="106.4658" y1="209.1787" x2="106.7434" y2="187.2452">
	<stop  offset="0" style="stop-color:#000000"/>
	<stop  offset="0.1326" style="stop-color:#1B0000"/>
	<stop  offset="0.322" style="stop-color:#3E0000"/>
	<stop  offset="0.5456" style="stop-color:#580000"/>
	<stop  offset="0.7933" style="stop-color:#770000"/>
	<stop  offset="1" style="stop-color:#94070A"/>
</linearGradient>
<path fill="url(#SVGID_38_)" d="M140.38,197.355c0,1.899-1.15,3.699-3.14,5.31c-0.04,0.03-0.08,0.07-0.13,0.1
	c-1.99,1.57-4.78,2.971-8.11,4.11c-1.99,0.68-4.17,1.28-6.48,1.77c-1.02,0.221-2.07,0.41-3.14,0.591
	c-3.35,0.54-6.89,0.85-10.46,0.909c-0.38,0.021-0.77,0.021-1.16,0.021h-0.3c-1.41-0.01-2.83-0.06-4.26-0.16
	c-0.06,0-0.13-0.01-0.19-0.01c-4.34-0.3-8.69-1-12.68-2.01c-1.2-0.29-2.37-0.62-3.49-0.971c-8.08-2.51-13.98-6.279-13.98-10.319
	c0-7.17,18.53-12.49,34.9-12.49C124.12,184.205,140.38,190.185,140.38,197.355z"/>
<radialGradient id="SVGID_39_" cx="98.8701" cy="204.6953" r="14.6061" gradientUnits="userSpaceOnUse">
	<stop  offset="0" style="stop-color:#FFFFFF"/>
	<stop  offset="1" style="stop-color:#7BCDE8"/>
</radialGradient>
<path fill="url(#SVGID_39_)" stroke="#39C6F3" stroke-width="0.5" stroke-miterlimit="10" d="M107.47,202.455l-4.81,6.51l0.35,1.03
	l0.02,0.06c-4.58-0.229-8.89-0.84-12.76-1.77l0.06-0.3l0.75-3.971l4.81,1.181l-0.91-2.351l4.56-1.689l1.17,2.47l3.12-4.29
	L107.47,202.455z"/>
<radialGradient id="SVGID_40_" cx="120.9502" cy="208.5801" r="2.452" gradientUnits="userSpaceOnUse">
	<stop  offset="0" style="stop-color:#FFFFFF"/>
	<stop  offset="1" style="stop-color:#7BCDE8"/>
</radialGradient>
<path fill="url(#SVGID_40_)" stroke="#39C6F3" stroke-width="0.5" stroke-miterlimit="10" d="M122.52,208.645
	c-1.02,0.221-2.07,0.41-3.14,0.591l0.01-0.04l0.31-1.271l2.72,0.7L122.52,208.645z"/>
<radialGradient id="SVGID_41_" cx="170.4863" cy="202.3418" r="16.8275" gradientUnits="userSpaceOnUse">
	<stop  offset="0" style="stop-color:#FFFFFF"/>
	<stop  offset="1" style="stop-color:#7BCDE8"/>
</radialGradient>
<path fill="url(#SVGID_41_)" stroke="#39C6F3" stroke-width="0.5" stroke-miterlimit="10" d="M176.397,210.132l0.01,0.05
	c-1.76-0.06-3.49-0.18-5.17-0.35l-0.061-0.16l-1.529-3.72l-7.811-1.95l0.91-4.82l4.81,1.181l-0.909-2.351l4.56-1.689l1.17,2.47
	l3.12-4.29l3.64,3.12l-4.81,6.51L176.397,210.132z"/>
<radialGradient id="SVGID_42_" cx="180.5869" cy="208.8066" r="4.4138" gradientUnits="userSpaceOnUse">
	<stop  offset="0" style="stop-color:#FFFFFF"/>
	<stop  offset="1" style="stop-color:#7BCDE8"/>
</radialGradient>
<path fill="url(#SVGID_42_)" stroke="#39C6F3" stroke-width="0.5" stroke-miterlimit="10" d="M179.137,207.382l4.16,1.69l-0.41,1.08
	l-0.01,0.01c-0.61,0.03-1.22,0.04-1.83,0.05c-0.39,0.021-0.78,0.021-1.17,0.021h-0.63c-0.41,0-0.83,0-1.24-0.011h-0.13l0.01-0.02
	L179.137,207.382z"/>
<radialGradient id="SVGID_43_" cx="193.4063" cy="206.3223" r="6.9716" gradientUnits="userSpaceOnUse">
	<stop  offset="0" style="stop-color:#FFFFFF"/>
	<stop  offset="1" style="stop-color:#7BCDE8"/>
</radialGradient>
<path fill="url(#SVGID_43_)" stroke="#39C6F3" stroke-width="0.5" stroke-miterlimit="10" d="M197.007,208.162
	c-1.62,0.42-3.33,0.77-5.09,1.07c-0.69,0.119-1.4,0.22-2.11,0.319l0.011-0.04l1.55-6.42l4.55,1.17l-0.91,4.29l1.95-0.52l0.03,0.09
	L197.007,208.162z"/>
<radialGradient id="SVGID_44_" cx="252.1182" cy="199.0322" r="31.3004" gradientUnits="userSpaceOnUse">
	<stop  offset="0" style="stop-color:#FFFFFF"/>
	<stop  offset="1" style="stop-color:#7BCDE8"/>
</radialGradient>
<path fill="url(#SVGID_44_)" stroke="#39C6F3" stroke-width="0.5" stroke-miterlimit="10" d="M270.463,208.172
	c-1.47,0.42-3.03,0.79-4.64,1.11c-0.32,0.069-0.65,0.13-0.98,0.189l-0.04-0.029l-1.76-1.221l-6.41,2.24l-0.1,0.03
	c-1.181,0.08-2.36,0.12-3.55,0.14c-0.12,0.01-0.24,0.01-0.36,0.01c-0.01,0.011-0.021,0.011-0.04,0c-0.02,0.011-0.04,0.011-0.06,0
	c-0.221,0.011-0.44,0.011-0.66,0.011h-0.681c-3.859,0-7.56-0.271-11.029-0.78l-0.511-0.29l-1.96-1.1l2.21-3.511l4.94,1.82
	l-3.25-7.94l-7.81-1.949l0.909-4.811l4.82,1.17l-0.91-2.34l4.55-1.689l1.171,2.47l3.119-4.29l3.641,3.12l-4.811,6.5l2.73,7.939
	l2.08-4.68l4.17,1.69l-1.69,4.42l7.931-2.86l1.819-7.55l4.55,1.17l-0.909,4.3l1.949-0.52l1.561,4.029l-2.47,1.17l2.439,1.99
	L270.463,208.172z"/>
<linearGradient id="SVGID_45_" gradientUnits="userSpaceOnUse" x1="34.895" y1="280.9141" x2="35.2237" y2="254.9509">
	<stop  offset="0" style="stop-color:#000000"/>
	<stop  offset="0.0851" style="stop-color:#1F0000"/>
	<stop  offset="0.2206" style="stop-color:#430000"/>
	<stop  offset="0.3893" style="stop-color:#620000"/>
	<stop  offset="0.5848" style="stop-color:#870102"/>
	<stop  offset="0.7998" style="stop-color:#B71319"/>
	<stop  offset="1" style="stop-color:#ED1C24"/>
</linearGradient>
<path fill="url(#SVGID_45_)" d="M70.15,266.705c0,2.92-1.86,5.64-5.08,7.96c-0.02,0.01-0.04,0.03-0.06,0.04
	c-1.99,1.43-4.5,2.7-7.41,3.77c-0.46,0.17-0.92,0.33-1.4,0.49c-0.49,0.16-0.98,0.32-1.49,0.46c-2.85,0.86-6.01,1.53-9.39,1.97
	c-0.51,0.07-1.02,0.131-1.54,0.19c-1.76,0.2-3.58,0.34-5.44,0.41c-0.48,0.02-0.97,0.04-1.46,0.05c-0.39,0.021-0.78,0.021-1.17,0.021
	h-0.63c-0.27,0-0.55,0-0.82-0.011c-2.7-0.02-5.32-0.18-7.84-0.46c-0.52-0.06-1.04-0.12-1.55-0.189
	c-3.87-0.521-7.47-1.32-10.64-2.351c-0.43-0.14-0.86-0.279-1.27-0.43C5.04,275.805,0,271.515,0,266.705
	c0-8.49,15.7-15.37,35.08-15.37C54.45,251.335,70.15,258.215,70.15,266.705z"/>
<linearGradient id="SVGID_46_" gradientUnits="userSpaceOnUse" x1="34.4253" y1="281.0801" x2="34.7029" y2="259.1462">
	<stop  offset="0" style="stop-color:#000000"/>
	<stop  offset="0.1326" style="stop-color:#1B0000"/>
	<stop  offset="0.322" style="stop-color:#3E0000"/>
	<stop  offset="0.5456" style="stop-color:#580000"/>
	<stop  offset="0.7933" style="stop-color:#770000"/>
	<stop  offset="1" style="stop-color:#94070A"/>
</linearGradient>
<path fill="url(#SVGID_46_)" d="M68.34,269.245c0,1.939-1.2,3.78-3.27,5.42c-0.02,0.01-0.04,0.03-0.06,0.04
	c-1.85,1.46-4.4,2.76-7.41,3.84c-0.48,0.17-0.96,0.34-1.46,0.5c-0.45,0.15-0.91,0.29-1.37,0.42c-2.88,0.851-6.06,1.51-9.4,1.95
	c-0.53,0.07-1.07,0.14-1.61,0.2c-1.78,0.2-3.59,0.34-5.42,0.39c-0.49,0.03-0.97,0.04-1.46,0.04c-0.39,0.021-0.78,0.021-1.17,0.021
	h-0.29c-0.38,0-0.77-0.011-1.16-0.021c-2.59-0.05-5.22-0.26-7.81-0.61c-0.41-0.05-0.81-0.109-1.21-0.17
	c-3.89-0.569-7.65-1.439-11.01-2.529c-0.37-0.12-0.73-0.24-1.09-0.36c-7.22-2.5-12.32-6.03-12.32-9.78c0-4.16,6.25-7.71,14.7-9.93
	c3.93-1.05,8.34-1.81,12.81-2.22c0.17-0.011,0.34-0.03,0.52-0.051c0.98-0.079,1.97-0.149,2.96-0.189c1.08-0.061,2.15-0.09,3.21-0.09
	c0.23-0.01,0.46-0.01,0.69-0.01c7.61,0,15.19,1.3,21.12,3.38C63.68,261.915,68.34,265.415,68.34,269.245z"/>
<radialGradient id="SVGID_47_" cx="35.4453" cy="268.2598" r="38.0311" gradientUnits="userSpaceOnUse">
	<stop  offset="0" style="stop-color:#FFFFFF"/>
	<stop  offset="1" style="stop-color:#7BCDE8"/>
</radialGradient>
<path fill="url(#SVGID_47_)" stroke="#39C6F3" stroke-width="0.5" stroke-miterlimit="10" d="M57.93,276.695l-1.73,2.27l-0.06,0.08
	l-0.68,0.9l-0.69-0.48l-0.06-0.04l-6.02-4.16l-8.19,2.86l3.9,2.47l-0.62,0.99l-0.02,0.03c-1.78,0.2-3.59,0.34-5.42,0.39
	c-0.49,0.03-0.97,0.04-1.46,0.04c-0.39,0.021-0.78,0.021-1.17,0.021h-0.63c-0.27,0-0.55,0-0.82-0.011c-2.7-0.02-5.32-0.18-7.84-0.46
	c-0.52-0.06-1.04-0.12-1.55-0.189c-3.87-0.521-7.47-1.32-10.64-2.351c-0.43-0.14-0.86-0.279-1.27-0.43l0.18-0.25l2-2.85l5.98,4.81
	l6.37-2.47l-4.16-2.34l2.21-3.521l4.94,1.83l-3.25-7.94l-7.8-1.949l0.91-4.811l4.81,1.17l-0.91-2.34l4.09-1.52l0.46-0.17l0.06,0.119
	l1.11,2.351l1.85-2.54l1.27-1.75l1.94,1.66l1.71,1.46l-4.81,6.5l2.73,7.93l2.08-4.68l4.16,1.689l-1.69,4.431l7.93-2.86l1.83-7.55
	l4.55,1.17l-0.91,4.29l1.95-0.521l1.56,4.03l-2.47,1.18L57.93,276.695z"/>
<linearGradient id="SVGID_48_" gradientUnits="userSpaceOnUse" x1="107.0625" y1="281.417" x2="107.3912" y2="255.4521">
	<stop  offset="0" style="stop-color:#000000"/>
	<stop  offset="0.0851" style="stop-color:#1F0000"/>
	<stop  offset="0.2206" style="stop-color:#430000"/>
	<stop  offset="0.3893" style="stop-color:#620000"/>
	<stop  offset="0.5848" style="stop-color:#870102"/>
	<stop  offset="0.7998" style="stop-color:#B71319"/>
	<stop  offset="1" style="stop-color:#ED1C24"/>
</linearGradient>
<path fill="url(#SVGID_48_)" d="M142.317,267.206c0,2.92-1.86,5.64-5.08,7.96c-0.02,0.01-0.04,0.03-0.06,0.04
	c-1.99,1.43-4.5,2.7-7.41,3.77c-3.71,1.36-8.08,2.4-12.87,3c-2,0.25-4.08,0.431-6.21,0.521c-0.55,0.03-1.09,0.04-1.64,0.05
	c-0.14,0.01-0.28,0.01-0.41,0.01c-0.26,0.011-0.51,0.011-0.76,0.011h-0.63c-4.92,0-9.6-0.44-13.85-1.25
	c-1.71-0.311-3.34-0.69-4.88-1.131c-0.73-0.189-1.43-0.409-2.12-0.63c-8.64-2.8-14.23-7.29-14.23-12.35
	c0-5.07,5.59-9.561,14.23-12.36c1.62-0.529,3.35-1,5.17-1.39c3.56-0.78,7.46-1.3,11.58-1.51c1.09-0.061,2.19-0.09,3.32-0.101
	c0.26-0.01,0.52-0.01,0.78-0.01c0.39,0,0.77,0,1.16,0.01c8.12,0.11,15.54,1.44,21.36,3.58
	C137.437,258.246,142.317,262.476,142.317,267.206z"/>
<linearGradient id="SVGID_49_" gradientUnits="userSpaceOnUse" x1="106.5933" y1="281.583" x2="106.8709" y2="259.6475">
	<stop  offset="0" style="stop-color:#000000"/>
	<stop  offset="0.1326" style="stop-color:#1B0000"/>
	<stop  offset="0.322" style="stop-color:#3E0000"/>
	<stop  offset="0.5456" style="stop-color:#580000"/>
	<stop  offset="0.7933" style="stop-color:#770000"/>
	<stop  offset="1" style="stop-color:#94070A"/>
</linearGradient>
<path fill="url(#SVGID_49_)" d="M140.507,269.746c0,1.939-1.2,3.78-3.27,5.42c-0.02,0.01-0.04,0.03-0.06,0.04
	c-1.85,1.46-4.4,2.76-7.41,3.84c-3.71,1.35-8.12,2.37-12.8,2.94c-2.05,0.26-4.16,0.439-6.28,0.51c-0.55,0.03-1.09,0.04-1.64,0.05
	c-0.14,0.01-0.28,0.01-0.41,0.01c-0.26,0.011-0.51,0.011-0.76,0.011h-0.63c-4.6-0.051-9.34-0.58-13.79-1.5
	c-1.67-0.33-3.31-0.73-4.87-1.171c-0.58-0.159-1.14-0.329-1.69-0.5c-0.06-0.02-0.12-0.039-0.18-0.06c-0.11-0.03-0.21-0.07-0.32-0.1
	c-7.79-2.511-13.41-6.2-13.41-10.141c0-3.95,5.62-7.34,13.41-9.58c3.55-1.02,7.54-1.81,11.66-2.3c1.97-0.24,3.98-0.41,5.98-0.5
	c0.3-0.03,0.59-0.04,0.89-0.05c0.99-0.04,1.97-0.06,2.95-0.06c4.13,0,8.24,0.38,12.09,1.06c0.05,0.01,0.1,0.02,0.15,0.03
	c1.55,0.279,3.07,0.609,4.52,0.989c1.82,0.46,3.54,1,5.13,1.591C136.197,262.686,140.507,266.056,140.507,269.746z"/>
<radialGradient id="SVGID_50_" cx="106.9219" cy="264.2813" r="42.078" gradientUnits="userSpaceOnUse">
	<stop  offset="0" style="stop-color:#FFFFFF"/>
	<stop  offset="1" style="stop-color:#7BCDE8"/>
</radialGradient>
<path fill="url(#SVGID_50_)" stroke="#39C6F3" stroke-width="0.5" stroke-miterlimit="10" d="M129.687,268.246l-2.48,3.25
	l-6.76-4.68l-8.2,2.859l3.91,2.47l-2.21,3.511l-3.13-1.17l2.74,6.76l3.34,0.729l0.07,0.011c-2.05,0.26-4.16,0.439-6.28,0.51
	c-0.55,0.03-1.09,0.04-1.64,0.05c-0.14,0.01-0.28,0.01-0.41,0.01l-2.63-6.77l-1.43,2.99l-4.03-1.561l1.3-3.38l-7.15,2.47
	l-1.24,4.761l-0.06,0.25c-1.71-0.311-3.34-0.69-4.88-1.131l0.07-0.29l0.25-0.989l-1.94,0.489l-0.14,0.03l-0.04-0.09l-2.04-4.46
	l2.99-1.3l-3.51-2.601l2.73-3.899l5.98,4.81l6.38-2.47l-4.16-2.34l2.21-3.521l4.94,1.83l-3.25-7.939l-0.93-0.23l-6.88-1.72
	l0.39-2.04l0.52-2.771l4.82,1.171l-0.91-2.341l4.55-1.689l1.17,2.47l3.12-4.29l3.64,3.12l-2.01,2.72l-2.8,3.78l0.37,1.09l2.36,6.84
	l2.08-4.68l4.16,1.69l-1.68,4.43l7.93-2.87l1.08-4.46l0.74-3.08l4.55,1.17l-0.62,2.93l-0.29,1.36l1.95-0.52l1.56,4.029l-2.47,1.181
	L129.687,268.246z"/>
<radialGradient id="SVGID_51_" cx="332.9375" cy="-167.7432" r="46.534" gradientTransform="matrix(1 0 0 -1 -153.6602 85.04)" gradientUnits="userSpaceOnUse">
	<stop  offset="0" style="stop-color:#FFFFFF"/>
	<stop  offset="1" style="stop-color:#7BCDE8"/>
</radialGradient>
<polygon fill="url(#SVGID_51_)" stroke="#39C6F3" stroke-width="0.5" stroke-miterlimit="10" points="174.594,249.271 
	171.342,241.336 163.538,239.387 164.448,234.573 169.261,235.744 168.351,233.401 172.901,231.711 174.074,234.183 
	177.194,229.891 180.837,233.013 176.024,239.516 178.756,247.45 180.837,242.768 185,244.459 183.31,248.881 191.244,246.02 
	193.064,238.475 197.617,239.646 196.707,243.938 198.658,243.418 200.219,247.45 197.748,248.621 202.041,252.133 199.568,255.386 
	192.805,250.703 184.609,253.564 188.512,256.037 186.301,259.548 183.179,258.377 185.91,265.141 193.064,266.701 192.285,271.123 
	187.732,270.344 188.773,273.076 184.352,274.768 183.179,271.904 180.187,275.676 176.804,272.555 181.097,266.701 
	178.366,259.679 176.936,262.669 172.901,261.108 174.204,257.727 167.05,260.197 165.229,267.221 160.286,266.441 161.196,262.799 
	159.115,263.32 157.034,258.768 160.024,257.467 156.513,254.865 159.245,250.963 165.229,255.775 171.603,253.303 167.439,250.963 
	169.651,247.45 "/>
<linearGradient id="SVGID_52_" gradientUnits="userSpaceOnUse" x1="251.0635" y1="281.5791" x2="251.3921" y2="255.62">
	<stop  offset="0" style="stop-color:#000000"/>
	<stop  offset="0.0851" style="stop-color:#1F0000"/>
	<stop  offset="0.2206" style="stop-color:#430000"/>
	<stop  offset="0.3893" style="stop-color:#620000"/>
	<stop  offset="0.5848" style="stop-color:#870102"/>
	<stop  offset="0.7998" style="stop-color:#B71319"/>
	<stop  offset="1" style="stop-color:#ED1C24"/>
</linearGradient>
<ellipse fill="url(#SVGID_52_)" cx="251.243" cy="267.367" rx="35.076" ry="15.361"/>
<linearGradient id="SVGID_53_" gradientUnits="userSpaceOnUse" x1="250.5947" y1="281.7422" x2="250.8723" y2="259.8099">
	<stop  offset="0" style="stop-color:#000000"/>
	<stop  offset="0.1326" style="stop-color:#1B0000"/>
	<stop  offset="0.322" style="stop-color:#3E0000"/>
	<stop  offset="0.5456" style="stop-color:#580000"/>
	<stop  offset="0.7933" style="stop-color:#770000"/>
	<stop  offset="1" style="stop-color:#94070A"/>
</linearGradient>
<path fill="url(#SVGID_53_)" d="M284.512,269.914c0,7.168-16.262,12.814-32.63,12.814c-16.367,0-34.894-6.305-34.894-13.472
	c0-7.169,18.526-12.486,34.894-12.486C268.25,256.771,284.512,262.746,284.512,269.914z"/>
<radialGradient id="SVGID_54_" cx="405.2666" cy="-160.2666" r="46.534" gradientTransform="matrix(1 0 0 -1 -153.6602 85.04)" gradientUnits="userSpaceOnUse">
	<stop  offset="0" style="stop-color:#FFFFFF"/>
	<stop  offset="1" style="stop-color:#7BCDE8"/>
</radialGradient>
<polygon fill="url(#SVGID_54_)" stroke="#39C6F3" stroke-width="0.5" stroke-miterlimit="10" points="246.923,241.795 
	243.671,233.859 235.867,231.91 236.777,227.097 241.591,228.268 240.681,225.926 245.231,224.234 246.403,226.706 249.524,222.414 
	253.167,225.536 248.354,232.039 251.085,239.974 253.167,235.291 257.329,236.982 255.64,241.404 263.573,238.543 265.394,230.998 
	269.946,232.17 269.036,236.462 270.987,235.941 272.548,239.974 270.077,241.145 274.37,244.656 271.897,247.909 265.134,243.227 
	256.938,246.088 260.841,248.561 258.63,252.07 255.509,250.9 258.239,257.664 265.394,259.225 264.614,263.646 260.061,262.867 
	261.102,265.6 256.68,267.291 255.509,264.428 252.517,268.199 249.134,265.078 253.427,259.225 250.696,252.201 249.265,255.191 
	245.231,253.631 246.533,250.25 239.379,252.721 237.558,259.744 232.616,258.965 233.526,255.322 231.444,255.844 229.363,251.291 
	232.354,249.99 228.843,247.389 231.575,243.486 237.558,248.299 243.932,245.826 239.769,243.486 241.981,239.974 "/>
<rect display="none" fill="#FFFFFF" width="288" height="288"/>
</svg>
