<?xml version="1.0" encoding="utf-8"?>
<!-- Generator: Adobe Illustrator 15.0.0, SVG Export Plug-In . SVG Version: 6.00 Build 0)  -->
<!DOCTYPE svg PUBLIC "-//W3C//DTD SVG 1.1//EN" "http://www.w3.org/Graphics/SVG/1.1/DTD/svg11.dtd">
<svg version="1.1" id="Layer_1" xmlns="http://www.w3.org/2000/svg" xmlns:xlink="http://www.w3.org/1999/xlink" x="0px" y="0px"
	 width="100px" height="400px" viewBox="0 0 100 400" enable-background="new 0 0 100 400" xml:space="preserve">
<linearGradient id="SVGID_1_" gradientUnits="userSpaceOnUse" x1="783.8906" y1="-121.6206" x2="785.076" y2="-500.9468" gradientTransform="matrix(1 0 0 -1 -742.9805 -110.8799)">
	<stop  offset="0" style="stop-color:#FFFFFF"/>
	<stop  offset="1" style="stop-color:#6D2671"/>
</linearGradient>
<path display="none" fill="url(#SVGID_1_)" d="M83,393.125c0,3.52-2.688,6.375-6,6.375H6c-3.313,0-6-2.855-6-6.375V6.375
	C0,2.855,2.687,0,6,0h71c3.313,0,6,2.855,6,6.375V393.125z"/>
<g display="none">
	
		<linearGradient id="SVGID_2_" gradientUnits="userSpaceOnUse" x1="784.4678" y1="-160.5894" x2="785.4954" y2="-489.4271" gradientTransform="matrix(1 0 0 -1 -742.9805 -110.8799)">
		<stop  offset="0" style="stop-color:#42270F"/>
		<stop  offset="1" style="stop-color:#B76EAD"/>
	</linearGradient>
	<path display="inline" fill="url(#SVGID_2_)" d="M75,376.125c0,5.844-4.5,10.625-10,10.625H19c-5.5,0-10-4.781-10-10.625V51
		c0-5.844,4.5-10.625,10-10.625h46c5.5,0,10,4.781,10,10.625V376.125z"/>
</g>
<linearGradient id="SVGID_3_" gradientUnits="userSpaceOnUse" x1="757.3916" y1="-113.1899" x2="756.3916" y2="-150.1899" gradientTransform="matrix(1 0 0 -1 -742.9805 -110.8799)">
	<stop  offset="0" style="stop-color:#EE3324"/>
	<stop  offset="0.0312" style="stop-color:#EF432A"/>
	<stop  offset="0.1408" style="stop-color:#F26B49"/>
	<stop  offset="0.2451" style="stop-color:#F58565"/>
	<stop  offset="0.3411" style="stop-color:#F7977A"/>
	<stop  offset="0.426" style="stop-color:#F8A287"/>
	<stop  offset="0.4909" style="stop-color:#F8A68C"/>
	<stop  offset="0.5717" style="stop-color:#F5997D"/>
	<stop  offset="0.7327" style="stop-color:#EF775A"/>
	<stop  offset="0.9569" style="stop-color:#E6342B"/>
	<stop  offset="1" style="stop-color:#E41E25"/>
</linearGradient>
<path display="none" fill="url(#SVGID_3_)" d="M16.363,8.173c0.552,0.24,1.031,0.564,1.44,0.972c0.408,0.409,0.731,0.888,0.972,1.44
	c0.24,0.553,0.36,1.14,0.36,1.764v2.88c0,0.336-0.157,0.553-0.468,0.648l-3.276,0.504c-0.312,0.096-0.468-0.024-0.468-0.36v-3.492
	c0-0.24-0.084-0.444-0.252-0.612c-0.168-0.167-0.372-0.252-0.612-0.252h-0.288c-0.24,0-0.444,0.084-0.612,0.252
	s-0.252,0.373-0.252,0.612v16.272c0,0.24,0.083,0.444,0.252,0.612c0.167,0.168,0.372,0.252,0.612,0.252h0.288
	c0.24,0,0.444-0.083,0.612-0.252c0.168-0.167,0.252-0.372,0.252-0.612v-5.04c0-0.336,0.156-0.456,0.468-0.36l3.276,0.432
	c0.312,0.096,0.468,0.313,0.468,0.648v4.5c0,0.625-0.121,1.212-0.36,1.764c-0.24,0.552-0.564,1.032-0.972,1.44
	c-0.409,0.409-0.888,0.732-1.44,0.972c-0.553,0.24-1.141,0.36-1.764,0.36H13.23c-0.625,0-1.212-0.12-1.764-0.36
	c-0.553-0.24-1.032-0.563-1.44-0.972c-0.408-0.408-0.732-0.888-0.972-1.44c-0.24-0.552-0.36-1.14-0.36-1.764V12.349
	c0-0.624,0.12-1.211,0.36-1.764c0.24-0.552,0.563-1.031,0.972-1.44c0.408-0.408,0.888-0.732,1.44-0.972
	c0.552-0.24,1.139-0.36,1.764-0.36h1.368C15.222,7.813,15.81,7.934,16.363,8.173z"/>
<linearGradient id="SVGID_4_" gradientUnits="userSpaceOnUse" x1="770.1621" y1="-113.5317" x2="769.1621" y2="-150.5331" gradientTransform="matrix(1 0 0 -1 -742.9805 -110.8799)">
	<stop  offset="0" style="stop-color:#EE3324"/>
	<stop  offset="0.0312" style="stop-color:#EF432A"/>
	<stop  offset="0.1408" style="stop-color:#F26B49"/>
	<stop  offset="0.2451" style="stop-color:#F58565"/>
	<stop  offset="0.3411" style="stop-color:#F7977A"/>
	<stop  offset="0.426" style="stop-color:#F8A287"/>
	<stop  offset="0.4909" style="stop-color:#F8A68C"/>
	<stop  offset="0.5717" style="stop-color:#F5997D"/>
	<stop  offset="0.7327" style="stop-color:#EF775A"/>
	<stop  offset="0.9569" style="stop-color:#E6342B"/>
	<stop  offset="1" style="stop-color:#E41E25"/>
</linearGradient>
<path display="none" fill="url(#SVGID_4_)" d="M31.915,28.981c0,0.625-0.121,1.212-0.36,1.764c-0.24,0.552-0.564,1.032-0.972,1.44
	c-0.409,0.409-0.888,0.732-1.44,0.972c-0.553,0.24-1.141,0.36-1.764,0.36H26.01c-0.625,0-1.212-0.12-1.764-0.36
	c-0.553-0.24-1.032-0.563-1.44-0.972c-0.408-0.408-0.732-0.888-0.972-1.44c-0.24-0.552-0.36-1.14-0.36-1.764V12.349
	c0-0.624,0.12-1.211,0.36-1.764c0.24-0.552,0.563-1.031,0.972-1.44c0.408-0.408,0.888-0.732,1.44-0.972
	c0.552-0.24,1.139-0.36,1.764-0.36h1.368c0.624,0,1.211,0.121,1.764,0.36c0.552,0.24,1.031,0.564,1.44,0.972
	c0.408,0.409,0.731,0.888,0.972,1.44c0.24,0.553,0.36,1.14,0.36,1.764L31.915,28.981L31.915,28.981z M27.702,12.529
	c0-0.24-0.084-0.444-0.252-0.612c-0.168-0.167-0.372-0.252-0.612-0.252H26.55c-0.24,0-0.444,0.084-0.612,0.252
	s-0.252,0.373-0.252,0.612v16.272c0,0.24,0.083,0.444,0.252,0.612c0.167,0.168,0.372,0.252,0.612,0.252h0.288
	c0.24,0,0.444-0.083,0.612-0.252c0.168-0.167,0.252-0.372,0.252-0.612V12.529z"/>
<linearGradient id="SVGID_5_" gradientUnits="userSpaceOnUse" x1="785.2705" y1="-113.9409" x2="784.2704" y2="-150.9416" gradientTransform="matrix(1 0 0 -1 -742.9805 -110.8799)">
	<stop  offset="0" style="stop-color:#EE3324"/>
	<stop  offset="0.0312" style="stop-color:#EF432A"/>
	<stop  offset="0.1408" style="stop-color:#F26B49"/>
	<stop  offset="0.2451" style="stop-color:#F58565"/>
	<stop  offset="0.3411" style="stop-color:#F7977A"/>
	<stop  offset="0.426" style="stop-color:#F8A287"/>
	<stop  offset="0.4909" style="stop-color:#F8A68C"/>
	<stop  offset="0.5717" style="stop-color:#F5997D"/>
	<stop  offset="0.7327" style="stop-color:#EF775A"/>
	<stop  offset="0.9569" style="stop-color:#E6342B"/>
	<stop  offset="1" style="stop-color:#E41E25"/>
</linearGradient>
<path display="none" fill="url(#SVGID_5_)" d="M48.834,8.569v24.192c0,0.336-0.168,0.504-0.504,0.504h-3.456
	c-0.337,0-0.505-0.167-0.505-0.504V21.385l-2.375,9.288c-0.048,0.12-0.108,0.18-0.18,0.18s-0.132-0.06-0.18-0.18l-2.376-9.288
	v11.376c0,0.336-0.168,0.504-0.504,0.504h-3.456c-0.336,0-0.504-0.167-0.504-0.504V8.569c0-0.336,0.167-0.504,0.504-0.504h3.06
	c0.144,0,0.27,0.054,0.378,0.162s0.186,0.222,0.234,0.342l2.844,12.888l2.844-12.888c0.047-0.12,0.125-0.234,0.233-0.342
	s0.234-0.162,0.378-0.162h3.061C48.666,8.065,48.834,8.233,48.834,8.569z"/>
<linearGradient id="SVGID_6_" gradientUnits="userSpaceOnUse" x1="800.6865" y1="-114.3594" x2="799.6865" y2="-151.3587" gradientTransform="matrix(1 0 0 -1 -742.9805 -110.8799)">
	<stop  offset="0" style="stop-color:#EE3324"/>
	<stop  offset="0.0312" style="stop-color:#EF432A"/>
	<stop  offset="0.1408" style="stop-color:#F26B49"/>
	<stop  offset="0.2451" style="stop-color:#F58565"/>
	<stop  offset="0.3411" style="stop-color:#F7977A"/>
	<stop  offset="0.426" style="stop-color:#F8A287"/>
	<stop  offset="0.4909" style="stop-color:#F8A68C"/>
	<stop  offset="0.5717" style="stop-color:#F5997D"/>
	<stop  offset="0.7327" style="stop-color:#EF775A"/>
	<stop  offset="0.9569" style="stop-color:#E6342B"/>
	<stop  offset="1" style="stop-color:#E41E25"/>
</linearGradient>
<path display="none" fill="url(#SVGID_6_)" d="M61.506,20.701c0.336,0.336,0.588,0.732,0.756,1.188
	c0.168,0.456,0.252,0.96,0.252,1.512v5.328c0,0.625-0.119,1.212-0.359,1.764c-0.238,0.552-0.563,1.032-0.973,1.44
	c-0.408,0.408-0.889,0.732-1.438,0.972c-0.555,0.24-1.143,0.36-1.766,0.36H52.58c-0.337,0-0.504-0.167-0.504-0.504V8.569
	c0-0.336,0.167-0.504,0.504-0.504h5.398c0.623,0,1.211,0.121,1.765,0.36c0.552,0.24,1.03,0.564,1.438,0.972
	c0.407,0.409,0.73,0.888,0.973,1.44c0.24,0.553,0.359,1.141,0.359,1.764v3.6c0,1.104-0.338,2.028-1.009,2.772
	c-0.358,0.384-0.792,0.696-1.296,0.936C60.736,20.102,61.169,20.365,61.506,20.701z M58.302,12.781c0-0.24-0.085-0.444-0.252-0.612
	c-0.168-0.167-0.373-0.252-0.612-0.252h-1.149v6.12h1.149c0.239,0,0.444-0.084,0.612-0.252c0.167-0.167,0.252-0.372,0.252-0.612
	V12.781z M58.302,22.825c0-0.24-0.085-0.444-0.252-0.612c-0.168-0.168-0.373-0.252-0.612-0.252h-1.149v7.452h1.149
	c0.239,0,0.444-0.084,0.612-0.252c0.167-0.167,0.252-0.372,0.252-0.612V22.825z"/>
<linearGradient id="SVGID_7_" gradientUnits="userSpaceOnUse" x1="813.5107" y1="-114.7041" x2="812.5106" y2="-151.7055" gradientTransform="matrix(1 0 0 -1 -742.9805 -110.8799)">
	<stop  offset="0" style="stop-color:#EE3324"/>
	<stop  offset="0.0312" style="stop-color:#EF432A"/>
	<stop  offset="0.1408" style="stop-color:#F26B49"/>
	<stop  offset="0.2451" style="stop-color:#F58565"/>
	<stop  offset="0.3411" style="stop-color:#F7977A"/>
	<stop  offset="0.426" style="stop-color:#F8A287"/>
	<stop  offset="0.4909" style="stop-color:#F8A68C"/>
	<stop  offset="0.5717" style="stop-color:#F5997D"/>
	<stop  offset="0.7327" style="stop-color:#EF775A"/>
	<stop  offset="0.9569" style="stop-color:#E6342B"/>
	<stop  offset="1" style="stop-color:#E41E25"/>
</linearGradient>
<path display="none" fill="url(#SVGID_7_)" d="M75.294,28.981c0,0.625-0.12,1.212-0.36,1.764c-0.24,0.552-0.563,1.032-0.972,1.44
	c-0.407,0.409-0.889,0.732-1.44,0.972c-0.551,0.24-1.14,0.36-1.764,0.36h-1.367c-0.625,0-1.213-0.12-1.765-0.36
	c-0.553-0.24-1.032-0.563-1.44-0.972c-0.408-0.408-0.729-0.888-0.972-1.44c-0.239-0.552-0.36-1.14-0.36-1.764V12.349
	c0-0.624,0.121-1.211,0.36-1.764c0.239-0.552,0.563-1.031,0.972-1.44c0.408-0.408,0.891-0.732,1.44-0.972
	c0.552-0.24,1.14-0.36,1.765-0.36h1.367c0.624,0,1.213,0.121,1.764,0.36c0.555,0.239,1.033,0.564,1.44,0.972
	c0.407,0.409,0.731,0.888,0.972,1.44c0.24,0.553,0.36,1.14,0.36,1.764V28.981z M71.082,12.529c0-0.24-0.085-0.444-0.252-0.612
	c-0.169-0.167-0.373-0.252-0.612-0.252H69.93c-0.24,0-0.443,0.084-0.611,0.252s-0.252,0.373-0.252,0.612v16.272
	c0,0.24,0.084,0.444,0.252,0.612s0.371,0.252,0.611,0.252h0.288c0.239,0,0.443-0.083,0.612-0.252
	c0.167-0.167,0.252-0.372,0.252-0.612V12.529z"/>
<linearGradient id="SVGID_8_" gradientUnits="userSpaceOnUse" x1="755.1309" y1="-323.9717" x2="814.7422" y2="-323.9717" gradientTransform="matrix(1 0 0 -1 -742.9805 -110.8799)">
	<stop  offset="0" style="stop-color:#00A2FF"/>
	<stop  offset="0.497" style="stop-color:#FCDFD4"/>
	<stop  offset="0.9913" style="stop-color:#459FFF"/>
</linearGradient>
<path fill="url(#SVGID_8_)" d="M71.762,379.167c0,3.508-4.203,6.351-9.389,6.351H21.539c-5.185,0-9.389-2.843-9.389-6.351V47.016
	c0-3.506,4.204-6.35,9.389-6.35h40.834c5.186,0,9.389,2.843,9.389,6.35V379.167z"/>
</svg>
