<?xml version="1.0" encoding="utf-8"?>
<!-- Generator: Adobe Illustrator 15.0.0, SVG Export Plug-In . SVG Version: 6.00 Build 0)  -->
<!DOCTYPE svg PUBLIC "-//W3C//DTD SVG 1.1//EN" "http://www.w3.org/Graphics/SVG/1.1/DTD/svg11.dtd">
<svg version="1.1" id="Layer_1" xmlns="http://www.w3.org/2000/svg" xmlns:xlink="http://www.w3.org/1999/xlink" x="0px" y="0px"
	 width="600px" height="100px" viewBox="0 0 600 100" enable-background="new 0 0 600 100" xml:space="preserve">
<path fill="#9F9F9F" stroke="#2A2A2A" stroke-width="5" stroke-miterlimit="10" d="M163.958,5.528c0,0-143.223-8.676-155.145,3.341
	c-11.921,12.017-4.837,66.093,3.833,72.77c8.67,6.674,150.06-3,150.06-3s153.894-2.673,218.918,1.334
	c65.024,4.006,187.741,7.688,195.326-0.324c7.587-8.01,9.596-69.43,0.833-71.778C556.132,2.065,397.879,7.2,372.954,7.2
	C348.029,7.199,163.958,5.528,163.958,5.528z"/>
<path fill="#7B7B7B" d="M22.132,50.064c-8.046,3.043-5,18,4,22s196.931-1.078,256-2c64-1,263,14,272,3s28-11-13-19
	c-41-8-235.021-3.942-262-5C228.132,47.064,59.132,36.064,22.132,50.064z"/>
<path fill="#B9B9B9" d="M21.237,20.656c0,0,197.99,4.5,260.987,4.5c62.997,0,283.485,4.5,277.486-6s-260.986-6-275.986-4.5
	C268.724,16.156,22.737,2.657,21.237,20.656z"/>
</svg>
