<?xml version="1.0" encoding="utf-8"?>
<!-- Generator: Adobe Illustrator 15.0.0, SVG Export Plug-In . SVG Version: 6.00 Build 0)  -->
<!DOCTYPE svg PUBLIC "-//W3C//DTD SVG 1.1//EN" "http://www.w3.org/Graphics/SVG/1.1/DTD/svg11.dtd">
<svg version="1.1" id="Layer_1" xmlns="http://www.w3.org/2000/svg" xmlns:xlink="http://www.w3.org/1999/xlink" x="0px" y="0px"
	 width="800px" height="100px" viewBox="0 0 800 100" enable-background="new 0 0 800 100" xml:space="preserve">
<rect x="307.268" y="35.951" fill="#FFFFFF" width="193.382" height="34.441"/>
<g>
	<g>
		
			<linearGradient id="SVGID_1_" gradientUnits="userSpaceOnUse" x1="338.7095" y1="-164.3384" x2="339.2653" y2="-233.7829" gradientTransform="matrix(1 0 0 -1 -20.96 -146.6602)">
			<stop  offset="0" style="stop-color:#9BDAEF"/>
			<stop  offset="1" style="stop-color:#00B6CE"/>
		</linearGradient>
		<path fill="url(#SVGID_1_)" d="M326.926,23.764c2.01,0.509,3.757,1.196,5.244,2.061c1.485,0.866,2.666,1.884,3.54,3.054
			c0.873,1.172,1.311,2.418,1.311,3.741v2.443c0,0.713-0.569,1.171-1.704,1.374l-11.931,2.52c-1.137,0.204-1.705-0.05-1.705-0.764
			v-5.191c0-0.508-0.307-0.941-0.917-1.298c-0.612-0.355-1.356-0.534-2.229-0.534h-1.049c-0.875,0-1.618,0.179-2.229,0.534
			c-0.613,0.357-0.918,0.79-0.918,1.298v34.51c0,0.51,0.305,0.943,0.918,1.299c0.61,0.356,1.354,0.535,2.229,0.535h1.049
			c0.873,0,1.617-0.179,2.229-0.535c0.61-0.354,0.917-0.789,0.917-1.299v-13.59h-3.67v-8.704h17.175
			c1.223,0,1.835,0.356,1.835,1.069v21.605c0,1.324-0.438,2.57-1.311,3.741c-0.874,1.173-2.055,2.189-3.54,3.056
			c-1.487,0.865-3.234,1.553-5.244,2.062c-2.012,0.508-4.152,0.763-6.424,0.763h-4.982c-2.273,0-4.415-0.255-6.424-0.763
			c-2.012-0.509-3.759-1.196-5.244-2.062c-1.488-0.865-2.667-1.883-3.54-3.056c-0.876-1.17-1.312-2.416-1.312-3.739V32.62
			c0-1.323,0.436-2.569,1.311-3.741c0.873-1.17,2.052-2.188,3.54-3.054c1.485-0.865,3.232-1.552,5.244-2.061
			c2.01-0.509,4.151-0.764,6.425-0.764h4.982C322.774,23,324.915,23.255,326.926,23.764z"/>
		
			<linearGradient id="SVGID_2_" gradientUnits="userSpaceOnUse" x1="388.3569" y1="-163.9688" x2="388.9133" y2="-233.477" gradientTransform="matrix(1 0 0 -1 -20.96 -146.6602)">
			<stop  offset="0" style="stop-color:#9BDAEF"/>
			<stop  offset="1" style="stop-color:#00B6CE"/>
		</linearGradient>
		<path fill="url(#SVGID_2_)" d="M362.849,75.911c0,0.713-0.656,1.067-1.967,1.067h-11.669c-1.137,0-1.705-0.354-1.705-1.067V32.238
			c0-0.712,0.611-1.069,1.835-1.069h19.667c2.271,0,4.412,0.255,6.424,0.764c2.01,0.509,3.757,1.196,5.245,2.061
			c1.485,0.866,2.666,1.884,3.54,3.054c0.873,1.171,1.311,2.418,1.311,3.741v9.391c0,1.884-0.963,3.576-2.884,5.077
			c-1.923,1.502-4.241,2.66-6.949,3.474l12.456,17.181c0.262,0.713-0.177,1.067-1.312,1.067h-11.93
			c-0.524,0-1.029-0.102-1.508-0.306c-0.482-0.202-0.81-0.458-0.983-0.763l-9.571-14.125V75.911z M362.849,51.631h4.195
			c0.873,0,1.617-0.178,2.229-0.533c0.61-0.355,0.918-0.789,0.918-1.299v-8.627c0-0.508-0.308-0.941-0.918-1.298
			c-0.612-0.356-1.356-0.535-2.229-0.535h-4.195V51.631z"/>
		
			<linearGradient id="SVGID_3_" gradientUnits="userSpaceOnUse" x1="433.5293" y1="-163.6724" x2="434.0855" y2="-233.1628" gradientTransform="matrix(1 0 0 -1 -20.96 -146.6602)">
			<stop  offset="0" style="stop-color:#9BDAEF"/>
			<stop  offset="1" style="stop-color:#00B6CE"/>
		</linearGradient>
		<path fill="url(#SVGID_3_)" d="M428.927,69.115v6.796c0,0.713-0.612,1.067-1.835,1.067H398.64c-1.225,0-1.835-0.354-1.835-1.067
			V32.238c0-0.712,0.61-1.069,1.835-1.069h28.452c1.223,0,1.835,0.357,1.835,1.069v6.795c0,0.714-0.612,1.069-1.835,1.069h-14.947
			v8.705h12.979c1.224,0,1.836,0.356,1.836,1.068v6.795c0,0.714-0.612,1.069-1.836,1.069h-12.979v10.308h14.947
			C428.314,68.047,428.927,68.402,428.927,69.115z"/>
		
			<linearGradient id="SVGID_4_" gradientUnits="userSpaceOnUse" x1="477.9902" y1="-163.3794" x2="478.5465" y2="-232.867" gradientTransform="matrix(1 0 0 -1 -20.96 -146.6602)">
			<stop  offset="0" style="stop-color:#9BDAEF"/>
			<stop  offset="1" style="stop-color:#00B6CE"/>
		</linearGradient>
		<path fill="url(#SVGID_4_)" d="M478.091,75.911c0.175,0.713-0.35,1.067-1.571,1.067h-11.932c-1.138,0-1.794-0.354-1.967-1.067
			l-1.051-7.481h-8.129l-1.049,7.481c-0.176,0.713-0.83,1.067-1.966,1.067h-11.932c-1.226,0-1.75-0.354-1.573-1.067l9.833-43.673
			c0.175-0.712,0.873-1.069,2.099-1.069h17.308c1.223,0,1.921,0.357,2.097,1.069L478.091,75.911z M460.523,59.877l-2.491-16.873
			h-1.05l-2.49,16.873H460.523z"/>
		
			<linearGradient id="SVGID_5_" gradientUnits="userSpaceOnUse" x1="519.7422" y1="-163.0884" x2="520.2983" y2="-232.5674" gradientTransform="matrix(1 0 0 -1 -20.96 -146.6602)">
			<stop  offset="0" style="stop-color:#9BDAEF"/>
			<stop  offset="1" style="stop-color:#00B6CE"/>
		</linearGradient>
		<path fill="url(#SVGID_5_)" d="M517.686,32.238v6.795c0,0.714-0.611,1.069-1.836,1.069h-9.309v35.809
			c0,0.713-0.611,1.067-1.835,1.067h-11.669c-0.439,0-0.854-0.102-1.246-0.306c-0.395-0.202-0.59-0.458-0.59-0.763V40.102h-9.178
			c-1.226,0-1.836-0.355-1.836-1.069v-6.795c0-0.712,0.61-1.069,1.836-1.069h33.826C517.074,31.169,517.686,31.526,517.686,32.238z"
			/>
	</g>
	<g>
		<path fill="none" stroke="#FFFFFF" stroke-width="4" d="M326.926,23.764c2.01,0.509,3.757,1.196,5.244,2.061
			c1.485,0.866,2.666,1.884,3.54,3.054c0.873,1.172,1.311,2.418,1.311,3.741v2.443c0,0.713-0.569,1.171-1.704,1.374l-11.931,2.52
			c-1.137,0.204-1.705-0.05-1.705-0.764v-5.191c0-0.508-0.307-0.941-0.917-1.298c-0.612-0.355-1.356-0.534-2.229-0.534h-1.049
			c-0.875,0-1.618,0.179-2.229,0.534c-0.613,0.357-0.918,0.79-0.918,1.298v34.51c0,0.51,0.305,0.943,0.918,1.299
			c0.61,0.356,1.354,0.535,2.229,0.535h1.049c0.873,0,1.617-0.179,2.229-0.535c0.61-0.354,0.917-0.789,0.917-1.299v-13.59h-3.67
			v-8.704h17.175c1.223,0,1.835,0.356,1.835,1.069v21.605c0,1.324-0.438,2.57-1.311,3.741c-0.874,1.173-2.055,2.189-3.54,3.056
			c-1.487,0.865-3.234,1.553-5.244,2.062c-2.012,0.508-4.152,0.763-6.424,0.763h-4.982c-2.273,0-4.415-0.255-6.424-0.763
			c-2.012-0.509-3.759-1.196-5.244-2.062c-1.488-0.865-2.667-1.883-3.54-3.056c-0.876-1.17-1.312-2.416-1.312-3.739V32.62
			c0-1.323,0.436-2.569,1.311-3.741c0.873-1.17,2.052-2.188,3.54-3.054c1.485-0.865,3.232-1.552,5.244-2.061
			c2.01-0.509,4.151-0.764,6.425-0.764h4.982C322.774,23,324.915,23.255,326.926,23.764z"/>
		<path fill="none" stroke="#FFFFFF" stroke-width="4" d="M362.849,75.911c0,0.713-0.656,1.067-1.967,1.067h-11.669
			c-1.137,0-1.705-0.354-1.705-1.067V32.238c0-0.712,0.611-1.069,1.835-1.069h19.667c2.271,0,4.412,0.255,6.424,0.764
			c2.01,0.509,3.757,1.196,5.245,2.061c1.485,0.866,2.666,1.884,3.54,3.054c0.873,1.171,1.311,2.418,1.311,3.741v9.391
			c0,1.884-0.963,3.576-2.884,5.077c-1.923,1.502-4.241,2.66-6.949,3.474l12.456,17.181c0.262,0.713-0.177,1.067-1.312,1.067h-11.93
			c-0.524,0-1.029-0.102-1.508-0.306c-0.482-0.202-0.81-0.458-0.983-0.763l-9.571-14.125V75.911z M362.849,51.631h4.195
			c0.873,0,1.617-0.178,2.229-0.533c0.61-0.355,0.918-0.789,0.918-1.299v-8.627c0-0.508-0.308-0.941-0.918-1.298
			c-0.612-0.356-1.356-0.535-2.229-0.535h-4.195V51.631z"/>
		<path fill="none" stroke="#FFFFFF" stroke-width="4" d="M428.927,69.115v6.796c0,0.713-0.612,1.067-1.835,1.067H398.64
			c-1.225,0-1.835-0.354-1.835-1.067V32.238c0-0.712,0.61-1.069,1.835-1.069h28.452c1.223,0,1.835,0.357,1.835,1.069v6.795
			c0,0.714-0.612,1.069-1.835,1.069h-14.947v8.705h12.979c1.224,0,1.836,0.356,1.836,1.068v6.795c0,0.714-0.612,1.069-1.836,1.069
			h-12.979v10.308h14.947C428.314,68.047,428.927,68.402,428.927,69.115z"/>
		<path fill="none" stroke="#FFFFFF" stroke-width="4" d="M478.091,75.911c0.175,0.713-0.35,1.067-1.571,1.067h-11.932
			c-1.138,0-1.794-0.354-1.967-1.067l-1.051-7.481h-8.129l-1.049,7.481c-0.176,0.713-0.83,1.067-1.966,1.067h-11.932
			c-1.226,0-1.75-0.354-1.573-1.067l9.833-43.673c0.175-0.712,0.873-1.069,2.099-1.069h17.308c1.223,0,1.921,0.357,2.097,1.069
			L478.091,75.911z M460.523,59.877l-2.491-16.873h-1.05l-2.49,16.873H460.523z"/>
		<path fill="none" stroke="#FFFFFF" stroke-width="4" d="M517.686,32.238v6.795c0,0.714-0.611,1.069-1.836,1.069h-9.309v35.809
			c0,0.713-0.611,1.067-1.835,1.067h-11.669c-0.439,0-0.854-0.102-1.246-0.306c-0.395-0.202-0.59-0.458-0.59-0.763V40.102h-9.178
			c-1.226,0-1.836-0.355-1.836-1.069v-6.795c0-0.712,0.61-1.069,1.836-1.069h33.826C517.074,31.169,517.686,31.526,517.686,32.238z"
			/>
	</g>
</g>
</svg>
