<?xml version="1.0" encoding="utf-8"?>
<!-- Generator: Adobe Illustrator 15.0.0, SVG Export Plug-In  -->
<!DOCTYPE svg PUBLIC "-//W3C//DTD SVG 1.1//EN" "http://www.w3.org/Graphics/SVG/1.1/DTD/svg11.dtd" [
	<!ENTITY ns_flows "http://ns.adobe.com/Flows/1.0/">
]>
<svg version="1.1"
	 xmlns="http://www.w3.org/2000/svg" xmlns:xlink="http://www.w3.org/1999/xlink" xmlns:a="http://ns.adobe.com/AdobeSVGViewerExtensions/3.0/"
	 x="0px" y="0px" width="500px" height="100px" viewBox="-44.589 -7.856 500 100" enable-background="new -44.589 -7.856 500 100"
	 xml:space="preserve">
<defs>
</defs>
<rect x="18.03" y="19.457" fill="#F1F2F2" stroke="#F1F2F2" stroke-width="5" stroke-miterlimit="10" width="379" height="48"/>
<path fill="#EF4136" d="M16.487,72.599c-1.915,0-3.752-0.376-5.463-1.119c-1.683-0.73-3.17-1.734-4.421-2.988
	c-1.251-1.248-2.256-2.736-2.986-4.418c-0.742-1.703-1.119-3.543-1.119-5.463V25.606c0-1.918,0.376-3.757,1.12-5.465
	c0.728-1.677,1.733-3.165,2.986-4.417c1.251-1.252,2.738-2.256,4.418-2.987c1.71-0.743,3.549-1.119,5.464-1.119h3.464
	c1.914,0,3.752,0.376,5.463,1.119c1.679,0.73,3.165,1.734,4.418,2.985c1.252,1.254,2.257,2.74,2.987,4.418
	c0.744,1.713,1.12,3.551,1.12,5.466v2.006c0,1.932-1.076,3.426-2.882,4.009l-8.365,3.03c-0.413,0.127-0.818,0.191-1.204,0.191
	c-1.549,0-3.216-1.093-3.216-3.493v-4.976h-0.106v9.041h11.997c2.224,0,3.776,1.554,3.776,3.777v19.42
	c0,1.916-0.376,3.756-1.119,5.465c-0.732,1.683-1.737,3.168-2.987,4.418c-1.253,1.252-2.739,2.258-4.418,2.986
	c-1.714,0.743-3.552,1.119-5.464,1.119H16.487z M18.272,57.843v-7.035h-0.106v7.035H18.272z"/>
<path fill="#F1F2F2" d="M19.952,14.118c1.58,0,3.069,0.305,4.468,0.912c1.397,0.608,2.612,1.429,3.647,2.461
	c1.033,1.034,1.853,2.25,2.461,3.647c0.607,1.399,0.912,2.888,0.912,4.468v2.006c0,0.852-0.396,1.399-1.185,1.641l-8.297,3.009
	c-0.176,0.054-0.332,0.081-0.469,0.081c-0.478,0-0.716-0.331-0.716-0.993v-5.288c0-0.607-0.214-1.124-0.638-1.55
	c-0.426-0.424-0.943-0.638-1.55-0.638h-0.729c-0.608,0-1.125,0.214-1.55,0.638c-0.426,0.426-0.638,0.943-0.638,1.55v32.093
	c0,0.608,0.212,1.126,0.638,1.55c0.425,0.426,0.942,0.64,1.55,0.64h0.729c0.607,0,1.124-0.214,1.55-0.64
	c0.424-0.424,0.638-0.94,0.638-1.55v-9.847H18.22V37.914h11.944c0.851,0,1.276,0.426,1.276,1.277v19.42
	c0,1.581-0.305,3.07-0.912,4.469c-0.608,1.397-1.429,2.613-2.461,3.646c-1.035,1.034-2.25,1.854-3.647,2.462
	c-1.399,0.605-2.888,0.912-4.468,0.912h-3.464c-1.582,0-3.07-0.307-4.468-0.912c-1.399-0.607-2.614-1.428-3.647-2.462
	c-1.034-1.032-1.855-2.248-2.461-3.646C5.304,61.682,5,60.192,5,58.611V25.606c0-1.58,0.304-3.069,0.912-4.468
	c0.606-1.397,1.427-2.613,2.461-3.647c1.033-1.033,2.248-1.854,3.647-2.461c1.397-0.607,2.886-0.912,4.468-0.912H19.952
	 M19.952,9.118h-3.464c-2.26,0-4.434,0.446-6.459,1.326c-1.97,0.856-3.716,2.038-5.191,3.512c-1.477,1.477-2.658,3.224-3.513,5.192
	C0.446,21.169,0,23.343,0,25.606v33.005c0,2.266,0.447,4.44,1.328,6.465c0.853,1.965,2.036,3.713,3.514,5.188
	c1.468,1.471,3.216,2.653,5.188,3.509c2.027,0.88,4.2,1.326,6.459,1.326h3.464c2.257,0,4.429-0.445,6.457-1.324
	c1.972-0.857,3.718-2.039,5.193-3.514c1.473-1.473,2.654-3.219,3.512-5.188c0.881-2.029,1.327-4.203,1.327-6.464V39.19
	c0-2.604-1.354-4.698-3.458-5.677c2.163-1.145,3.458-3.306,3.458-5.902v-2.006c0-2.259-0.446-4.432-1.325-6.458
	c-0.858-1.972-2.039-3.716-3.51-5.19c-1.481-1.479-3.226-2.659-5.19-3.513C24.383,9.563,22.21,9.118,19.952,9.118L19.952,9.118z"/>
<path fill="#EF4136" d="M40.009,71.96c-2.224,0-3.776-1.553-3.776-3.776V16.033c0-2.224,1.553-3.777,3.776-3.777h19.785
	c2.224,0,3.776,1.553,3.776,3.777v8.114c0,2.224-1.553,3.776-3.776,3.776H51.9v5.394h6.526c2.224,0,3.776,1.554,3.776,3.776v8.115
	c0,2.224-1.553,3.775-3.776,3.775H51.9v7.309h7.894c2.224,0,3.776,1.554,3.776,3.776v8.114c0,2.225-1.553,3.775-3.776,3.775H40.009
	V71.96z"/>
<path fill="#F1F2F2" d="M59.793,14.756c0.851,0,1.276,0.426,1.276,1.277v8.114c0,0.852-0.426,1.276-1.276,1.276H49.399v10.394h9.026
	c0.851,0,1.276,0.427,1.276,1.276v8.115c0,0.852-0.426,1.275-1.276,1.275h-9.026v12.309h10.394c0.851,0,1.276,0.427,1.276,1.276
	v8.114c0,0.852-0.426,1.275-1.276,1.275H40.009c-0.852,0-1.276-0.424-1.276-1.275v-52.15c0-0.851,0.424-1.277,1.276-1.277H59.793
	 M59.793,9.756H40.009c-3.637,0-6.276,2.64-6.276,6.277v52.151c0,3.637,2.64,6.276,6.276,6.276h19.785
	c3.637,0,6.276-2.641,6.276-6.276V60.07c0-3.637-2.64-6.275-6.276-6.275H54.4v-2.31h4.026c3.637,0,6.276-2.64,6.276-6.276v-8.114
	c0-3.638-2.64-6.276-6.276-6.276H54.4v-0.394h5.394c3.637,0,6.276-2.64,6.276-6.276v-8.114C66.07,12.395,63.43,9.756,59.793,9.756
	L59.793,9.756z"/>
<path fill="#EF4136" d="M75.93,71.96c-0.921,0-1.795-0.346-2.527-0.996c-0.804-0.713-1.249-1.7-1.249-2.78V27.923h-3.882
	c-2.224,0-3.776-1.553-3.776-3.776v-8.114c0-2.224,1.553-3.777,3.776-3.777h23.523c2.224,0,3.776,1.553,3.776,3.777v8.114
	c0,2.224-1.553,3.776-3.776,3.776h-3.973v40.261c0,2.224-1.553,3.776-3.776,3.776H75.93z"/>
<path fill="#F1F2F2" d="M91.794,14.756c0.851,0,1.276,0.426,1.276,1.277v8.114c0,0.852-0.426,1.276-1.276,1.276h-6.473v42.761
	c0,0.853-0.426,1.276-1.276,1.276H75.93c-0.305,0-0.593-0.121-0.866-0.364c-0.273-0.242-0.41-0.548-0.41-0.912V25.423h-6.382
	c-0.852,0-1.276-0.424-1.276-1.276v-8.114c0-0.851,0.425-1.277,1.276-1.277H91.794 M91.794,9.756H68.271
	c-3.637,0-6.276,2.64-6.276,6.277v8.114c0,3.637,2.64,6.276,6.276,6.276h1.382v37.761c0,1.806,0.744,3.458,2.095,4.655
	c1.19,1.059,2.639,1.621,4.182,1.621h8.115c3.637,0,6.276-2.641,6.276-6.276V30.423h1.473c3.637,0,6.276-2.64,6.276-6.276v-8.114
	C98.07,12.395,95.431,9.756,91.794,9.756L91.794,9.756z"/>
<path fill="#EF4136" d="M106.564,71.96c-0.921,0-1.795-0.346-2.527-0.996c-0.804-0.713-1.249-1.7-1.249-2.78V27.923h-3.882
	c-2.224,0-3.776-1.553-3.776-3.776v-8.114c0-2.224,1.553-3.777,3.776-3.777h23.523c2.224,0,3.776,1.553,3.776,3.777v8.114
	c0,2.224-1.553,3.776-3.776,3.776h-3.973v40.261c0,2.224-1.553,3.776-3.776,3.776H106.564z"/>
<path fill="#F1F2F2" d="M122.429,14.756c0.851,0,1.276,0.426,1.276,1.277v8.114c0,0.852-0.426,1.276-1.276,1.276h-6.473v42.761
	c0,0.853-0.426,1.276-1.276,1.276h-8.115c-0.305,0-0.593-0.121-0.866-0.364c-0.273-0.242-0.41-0.548-0.41-0.912V25.423h-6.382
	c-0.852,0-1.276-0.424-1.276-1.276v-8.114c0-0.851,0.425-1.277,1.276-1.277H122.429 M122.429,9.756H98.906
	c-3.637,0-6.276,2.64-6.276,6.277v8.114c0,3.637,2.64,6.276,6.276,6.276h1.382v37.761c0,1.806,0.744,3.458,2.095,4.655
	c1.19,1.059,2.639,1.621,4.182,1.621h8.115c3.637,0,6.276-2.641,6.276-6.276V30.423h1.473c3.637,0,6.276-2.64,6.276-6.276v-8.114
	C128.705,12.395,126.065,9.756,122.429,9.756L122.429,9.756z"/>
<path fill="#EF4136" d="M131.364,71.96c-2.224,0-3.776-1.553-3.776-3.776V16.033c0-2.224,1.553-3.777,3.776-3.777h8.114
	c2.224,0,3.776,1.553,3.776,3.777v52.151c0,2.224-1.553,3.776-3.776,3.776H131.364z"/>
<path fill="#F1F2F2" d="M139.478,14.756c0.851,0,1.276,0.426,1.276,1.277v52.151c0,0.853-0.426,1.276-1.276,1.276h-8.114
	c-0.852,0-1.276-0.426-1.276-1.276V16.033c0-0.851,0.424-1.277,1.276-1.277H139.478 M139.478,9.756h-8.114
	c-3.637,0-6.276,2.64-6.276,6.277v52.151c0,3.637,2.64,6.276,6.276,6.276h8.114c3.637,0,6.276-2.641,6.276-6.276V16.033
	C145.754,12.395,143.115,9.756,139.478,9.756L139.478,9.756z"/>
<path fill="#EF4136" d="M171.023,71.96c-0.893,0-1.765-0.293-2.522-0.846c-0.715-0.518-1.234-1.164-1.533-1.918l-4.841-11.92v10.907
	c0,2.224-1.553,3.776-3.776,3.776h-8.114c-2.224,0-3.776-1.553-3.776-3.776V16.033c0-2.224,1.553-3.777,3.776-3.777h6.018
	c0.885,0,1.754,0.29,2.513,0.839c0.724,0.529,1.238,1.169,1.537,1.911l4.664,13.044V16.033c0-2.224,1.553-3.777,3.776-3.777h8.114
	c2.224,0,3.776,1.553,3.776,3.777v52.151c0,2.224-1.553,3.776-3.776,3.776H171.023z"/>
<path fill="#F1F2F2" d="M176.858,14.756c0.851,0,1.276,0.426,1.276,1.277v52.151c0,0.853-0.426,1.276-1.276,1.276h-5.835
	c-0.365,0-0.715-0.121-1.048-0.364c-0.335-0.242-0.563-0.517-0.684-0.821l-9.665-23.796v23.705c0,0.853-0.426,1.276-1.276,1.276
	h-8.114c-0.852,0-1.276-0.426-1.276-1.276V16.033c0-0.851,0.424-1.277,1.276-1.277h6.018c0.364,0,0.713,0.123,1.048,0.365
	c0.333,0.244,0.561,0.517,0.684,0.821l9.482,26.532v-26.44c0-0.851,0.424-1.277,1.276-1.277L176.858,14.756 M176.858,9.756h-8.114
	c-3.013,0-5.341,1.811-6.051,4.5l-0.033-0.093l-0.038-0.093c-0.477-1.181-1.274-2.186-2.371-2.987
	c-1.208-0.874-2.583-1.328-3.998-1.328h-6.018c-3.637,0-6.276,2.64-6.276,6.277v52.152c0,3.637,2.64,6.276,6.276,6.276h8.114
	c3.114,0,5.497-1.936,6.118-4.774l0.191,0.472c0.457,1.148,1.287,2.195,2.387,2.99c1.169,0.854,2.551,1.313,3.978,1.313h5.835
	c3.637,0,6.276-2.64,6.276-6.275V16.033C183.134,12.395,180.494,9.756,176.858,9.756L176.858,9.756z"/>
<path fill="#EF4136" d="M185.974,26.738c-0.52,0-1.024-0.122-1.497-0.362c-1.078-0.536-1.732-1.611-1.732-2.867v-1.368
	c0-0.46,0.117-0.917,0.357-1.395l0.18-0.359l0.284-0.285c0.667-0.668,1.415-1.007,2.223-1.008c-0.03-0.001,0.28-0.053,1.034-0.467
	c0.028-0.016,0.077-0.063,0.136-0.151c-0.866-0.086-1.622-0.27-2.291-0.557c-0.884-0.379-1.711-0.908-2.455-1.57
	c-1.128-1.002-2.478-2.869-2.478-6.061c0-1.988,0.719-3.761,2.138-5.269c1.564-1.65,3.642-2.519,6.015-2.519
	c2.49,0,4.661,0.899,6.279,2.601c1.501,1.583,2.426,3.524,2.751,5.774c0.136,0.698,0.223,1.408,0.259,2.111
	c0.039,0.796-0.018,1.594-0.169,2.378c-0.292,1.919-0.896,3.694-1.795,5.276c-0.956,1.681-2.316,3.105-4.044,4.232
	c-0.404,0.27-0.855,0.542-1.32,0.792c-0.552,0.297-1.134,0.535-1.73,0.705l-0.336,0.096h-0.185
	c-0.061,0.011-1.377,0.273-1.377,0.273H185.974z"/>
<path fill="#F1F2F2" d="M187.889,5c1.823,0,3.312,0.608,4.467,1.823c1.154,1.217,1.854,2.706,2.097,4.468
	c0.121,0.608,0.197,1.217,0.228,1.823c0.03,0.608-0.016,1.217-0.137,1.824c-0.244,1.641-0.745,3.131-1.504,4.467
	c-0.761,1.338-1.839,2.462-3.237,3.374c-0.365,0.244-0.745,0.472-1.14,0.684c-0.396,0.213-0.806,0.38-1.231,0.501
	c-0.061,0-0.244,0.031-0.547,0.091c-0.305,0.062-0.608,0.123-0.912,0.183c-0.123,0-0.244-0.03-0.365-0.091
	c-0.244-0.121-0.365-0.333-0.365-0.638v-1.368c0-0.06,0.03-0.151,0.091-0.273c0.182-0.183,0.333-0.273,0.456-0.273
	c0.547,0,1.291-0.258,2.234-0.775c0.942-0.516,1.564-1.625,1.869-3.328c0.06-0.242,0.075-0.531,0.045-0.866
	c-0.031-0.333-0.137-0.561-0.319-0.684c-0.07-0.069-0.175-0.104-0.313-0.104c-0.104,0-0.228,0.02-0.371,0.059
	c-0.334,0.091-0.592,0.137-0.775,0.137c-1.034,0-1.869-0.137-2.507-0.411c-0.638-0.273-1.231-0.652-1.778-1.14
	c-1.094-0.971-1.641-2.371-1.641-4.194c0-1.336,0.486-2.521,1.459-3.556C184.788,5.579,186.186,5,187.889,5 M187.889,0
	c-3.077,0-5.782,1.139-7.823,3.293c-1.855,1.972-2.83,4.386-2.83,6.995c0,4.12,1.807,6.588,3.322,7.934
	c0.24,0.214,0.488,0.417,0.744,0.61l-0.074,0.074l-0.361,0.718c-0.413,0.823-0.623,1.67-0.623,2.517v1.368
	c0,2.193,1.203,4.153,3.14,5.116c0.788,0.4,1.672,0.614,2.59,0.614h0.49l0.481-0.095l0.889-0.178h0.296l0.672-0.191
	c0.77-0.22,1.521-0.525,2.232-0.908c0.525-0.283,1.037-0.59,1.522-0.913c2.054-1.345,3.679-3.052,4.829-5.075
	c1.044-1.837,1.745-3.885,2.086-6.088c0.182-0.964,0.25-1.946,0.203-2.919c-0.042-0.812-0.14-1.619-0.291-2.413
	c-0.408-2.746-1.552-5.125-3.401-7.075C193.878,1.168,191.08,0,187.889,0L187.889,0z"/>
<path fill="#EF4136" d="M228.825,71.96c-2.225,0-3.775-1.553-3.775-3.776V50.08h-1.019v18.104c0,2.224-1.554,3.776-3.776,3.776
	h-8.115c-2.224,0-3.775-1.553-3.775-3.776V16.033c0-2.224,1.553-3.777,3.775-3.777h8.115c2.225,0,3.776,1.553,3.776,3.777v18.378
	h1.019V16.033c0-2.224,1.553-3.777,3.775-3.777h8.113c2.225,0,3.777,1.553,3.777,3.777v52.151c0,2.224-1.554,3.776-3.777,3.776
	H228.825z"/>
<path fill="#F1F2F2" d="M236.938,14.756c0.852,0,1.277,0.426,1.277,1.277v52.151c0,0.853-0.427,1.276-1.277,1.276h-8.113
	c-0.854,0-1.275-0.426-1.275-1.276V47.58h-6.019v20.604c0,0.853-0.427,1.276-1.276,1.276h-8.115c-0.852,0-1.275-0.426-1.275-1.276
	V16.033c0-0.851,0.425-1.277,1.275-1.277h8.115c0.85,0,1.276,0.426,1.276,1.277v20.878h6.019V16.033
	c0-0.851,0.424-1.277,1.275-1.277H236.938 M236.938,9.756h-8.113c-1.703,0-3.188,0.579-4.285,1.569
	c-1.097-0.99-2.582-1.569-4.285-1.569h-8.115c-3.637,0-6.275,2.64-6.275,6.277v52.151c0,3.637,2.64,6.276,6.275,6.276h8.115
	c1.703,0,3.188-0.58,4.285-1.568c1.098,0.988,2.582,1.568,4.285,1.568h8.113c3.638,0,6.277-2.641,6.277-6.276V16.033
	C243.216,12.395,240.576,9.756,236.938,9.756L236.938,9.756z"/>
<path fill="#EF4136" d="M263.47,71.96c-2.037,0-3.547-1.344-3.843-3.426l-0.017-0.147l-0.542-6.64h-1.044l-0.549,6.715l-0.012,0.076
	c-0.298,2.078-1.806,3.422-3.842,3.422h-8.297c-1.471,0-2.334-0.643-2.8-1.181c-0.468-0.54-0.979-1.489-0.769-2.954l6.834-52.119
	c0.299-2.107,1.844-3.452,3.938-3.452h12.033c2.092,0,3.637,1.343,3.935,3.422l6.842,52.181c0.205,1.438-0.309,2.388-0.774,2.925
	c-0.467,0.537-1.33,1.178-2.797,1.178H263.47L263.47,71.96z"/>
<path fill="#F1F2F2" d="M264.563,14.756c0.852,0,1.338,0.426,1.459,1.277l6.839,52.151c0.121,0.853-0.243,1.276-1.095,1.276h-8.297
	c-0.791,0-1.246-0.426-1.367-1.276l-0.729-8.937h-5.652l-0.729,8.937c-0.122,0.853-0.578,1.276-1.367,1.276h-8.297
	c-0.853,0-1.217-0.426-1.094-1.276l6.838-52.151c0.121-0.851,0.606-1.277,1.459-1.277H264.563 M256.45,49.039h4.193l-1.732-20.15
	h-0.729L256.45,49.039 M264.563,9.756H252.53c-3.359,0-5.936,2.239-6.409,5.572l-0.004,0.027l-0.004,0.027l-6.834,52.126
	c-0.259,1.856,0.224,3.598,1.356,4.907c1.143,1.317,2.808,2.043,4.69,2.043h8.297c2.03,0,3.771-0.846,4.923-2.271
	c1.15,1.428,2.893,2.271,4.924,2.271h8.297c1.881,0,3.545-0.724,4.686-2.037c1.136-1.31,1.619-3.051,1.364-4.909l-6.835-52.13
	l-0.004-0.03l-0.006-0.03C270.494,11.993,267.919,9.756,264.563,9.756L264.563,9.756z"/>
<path fill="#EF4136" d="M297.933,71.96c-0.892,0-1.763-0.293-2.521-0.844c-0.726-0.523-1.265-1.238-1.558-2.065l-1.811-4.587v3.72
	c0,2.224-1.591,3.776-3.867,3.776h-8.115c-2.17,0-3.686-1.553-3.686-3.776V16.033c0-2.224,1.553-3.777,3.776-3.777h13.677
	c1.914,0,3.752,0.376,5.462,1.119c1.681,0.731,3.167,1.735,4.419,2.986c1.252,1.253,2.258,2.739,2.987,4.418
	c0.743,1.714,1.118,3.552,1.118,5.466v11.213c0,2.791-0.842,5.332-2.502,7.559c-1.07,1.438-2.31,2.661-3.697,3.656l7.92,18.758
	l0.05,0.232c0.323,1.518-0.157,2.514-0.616,3.082c-0.367,0.453-1.213,1.215-2.74,1.215H297.933L297.933,71.96z M292.151,36.691
	v-9.679h-0.105v9.679H292.151z"/>
<path fill="#F1F2F2" d="M293.83,14.756c1.579,0,3.067,0.305,4.468,0.912c1.396,0.608,2.612,1.429,3.646,2.461
	c1.033,1.034,1.854,2.25,2.462,3.647c0.606,1.399,0.911,2.888,0.911,4.468v11.214c0,2.25-0.67,4.271-2.006,6.063
	c-1.338,1.794-2.948,3.178-4.832,4.148l8.662,20.515c0.182,0.853-0.123,1.276-0.912,1.276h-8.297c-0.364,0-0.715-0.121-1.049-0.364
	c-0.336-0.242-0.563-0.548-0.685-0.912l-6.655-16.867v16.867c0,0.853-0.455,1.276-1.367,1.276h-8.115
	c-0.791,0-1.186-0.426-1.186-1.276V16.033c0-0.851,0.426-1.277,1.276-1.277H293.83 M289.545,39.191h2.917
	c0.607,0,1.124-0.212,1.551-0.639c0.424-0.424,0.639-0.941,0.639-1.551V26.7c0-0.607-0.215-1.124-0.639-1.55
	c-0.427-0.424-0.942-0.638-1.551-0.638h-2.917V39.191 M293.83,9.756h-13.677c-3.637,0-6.276,2.64-6.276,6.277v52.151
	c0,3.637,2.603,6.276,6.187,6.276h8.113c2.017,0,3.729-0.787,4.869-2.096c0.276,0.283,0.58,0.545,0.908,0.782
	c1.175,0.854,2.555,1.313,3.979,1.313h8.297c1.902,0,3.565-0.762,4.686-2.145c0.656-0.813,1.676-2.563,1.117-5.176l-0.1-0.465
	l-0.185-0.438l-7.095-16.802c0.97-0.868,1.859-1.846,2.667-2.93c1.987-2.663,2.997-5.709,2.997-9.049V26.244
	c0-2.258-0.445-4.431-1.323-6.457c-0.858-1.974-2.04-3.719-3.513-5.192c-1.479-1.477-3.225-2.657-5.19-3.513
	C298.261,10.202,296.089,9.756,293.83,9.756L293.83,9.756z"/>
<path fill="#EF4136" d="M314.435,71.96c-2.225,0-3.776-1.553-3.776-3.776V16.033c0-2.224,1.553-3.777,3.776-3.777h13.677
	c1.914,0,3.752,0.376,5.462,1.119c1.681,0.731,3.167,1.735,4.419,2.986c1.252,1.253,2.257,2.739,2.987,4.418
	c0.742,1.714,1.119,3.552,1.119,5.466v31.728c0,1.916-0.377,3.754-1.119,5.463c-0.729,1.683-1.734,3.169-2.986,4.42
	c-1.252,1.253-2.739,2.259-4.42,2.986c-1.705,0.741-3.544,1.118-5.462,1.118H314.435L314.435,71.96z M326.431,57.205V27.012h-0.104
	v30.192H326.431z"/>
<path fill="#F1F2F2" d="M328.111,14.756c1.579,0,3.067,0.305,4.467,0.912c1.397,0.608,2.613,1.429,3.647,2.461
	c1.033,1.034,1.854,2.25,2.461,3.647c0.606,1.399,0.912,2.888,0.912,4.468v31.728c0,1.582-0.306,3.07-0.912,4.468
	c-0.607,1.399-1.428,2.614-2.461,3.647c-1.034,1.033-2.25,1.854-3.647,2.461s-2.888,0.912-4.467,0.912h-13.677
	c-0.853,0-1.276-0.426-1.276-1.276V16.033c0-0.851,0.425-1.277,1.276-1.277H328.111 M323.826,59.705h2.917
	c0.607,0,1.124-0.211,1.55-0.638c0.425-0.425,0.64-0.942,0.64-1.55V26.7c0-0.607-0.215-1.124-0.64-1.55
	c-0.426-0.424-0.942-0.638-1.55-0.638h-2.917V59.705 M328.111,9.756h-13.677c-3.637,0-6.276,2.64-6.276,6.277v52.151
	c0,3.637,2.64,6.276,6.276,6.276h13.677c2.264,0,4.438-0.446,6.462-1.328c1.965-0.854,3.712-2.034,5.188-3.51
	c1.476-1.475,2.656-3.221,3.512-5.189c0.882-2.028,1.326-4.201,1.326-6.461V26.244c0-2.258-0.444-4.43-1.322-6.457
	c-0.86-1.974-2.04-3.719-3.514-5.192c-1.479-1.477-3.224-2.657-5.189-3.513C332.541,10.202,330.369,9.756,328.111,9.756
	L328.111,9.756z"/>
<path fill="#EF4136" d="M348.168,71.96c-2.224,0-3.776-1.553-3.776-3.776V16.033c0-2.224,1.554-3.777,3.776-3.777h19.785
	c2.224,0,3.776,1.553,3.776,3.777v8.114c0,2.224-1.553,3.776-3.776,3.776h-7.894v5.394h6.525c2.225,0,3.776,1.554,3.776,3.776v8.115
	c0,2.224-1.554,3.775-3.776,3.775h-6.525v7.309h7.894c2.224,0,3.776,1.554,3.776,3.776v8.114c0,2.225-1.553,3.775-3.776,3.775
	h-19.785V71.96z"/>
<path fill="#F1F2F2" d="M367.953,14.756c0.851,0,1.276,0.426,1.276,1.277v8.114c0,0.852-0.426,1.276-1.276,1.276H357.56v10.394
	h9.025c0.85,0,1.276,0.427,1.276,1.276v8.115c0,0.852-0.427,1.275-1.276,1.275h-9.025v12.309h10.394
	c0.851,0,1.276,0.427,1.276,1.276v8.114c0,0.852-0.426,1.275-1.276,1.275h-19.785c-0.853,0-1.276-0.424-1.276-1.275v-52.15
	c0-0.851,0.426-1.277,1.276-1.277H367.953 M367.953,9.756h-19.785c-3.637,0-6.276,2.64-6.276,6.277v52.151
	c0,3.637,2.641,6.276,6.276,6.276h19.785c3.637,0,6.276-2.641,6.276-6.276V60.07c0-3.637-2.641-6.275-6.276-6.275h-5.394v-2.31
	h4.025c3.637,0,6.276-2.64,6.276-6.276v-8.114c0-3.638-2.64-6.276-6.276-6.276h-4.025v-0.394h5.394c3.637,0,6.276-2.64,6.276-6.276
	v-8.114C374.23,12.395,371.59,9.756,367.953,9.756L367.953,9.756z"/>
<path fill="#EF4136" d="M396.034,71.96c-0.892,0-1.763-0.293-2.521-0.844c-0.727-0.527-1.265-1.24-1.558-2.065l-1.81-4.587v3.72
	c0,2.224-1.592,3.776-3.868,3.776h-8.114c-2.17,0-3.686-1.553-3.686-3.776V16.033c0-2.224,1.553-3.777,3.775-3.777h13.677
	c1.914,0,3.752,0.376,5.463,1.119c1.681,0.731,3.166,1.735,4.419,2.986c1.252,1.253,2.257,2.739,2.986,4.418
	c0.743,1.714,1.119,3.552,1.119,5.466v11.213c0,2.791-0.842,5.332-2.502,7.559c-1.071,1.438-2.31,2.661-3.698,3.656l7.92,18.758
	l0.051,0.232c0.322,1.518-0.157,2.514-0.617,3.082c-0.367,0.453-1.212,1.215-2.74,1.215H396.034L396.034,71.96z M390.251,36.691
	v-9.679h-0.104v9.679H390.251z"/>
<path fill="#F1F2F2" d="M391.931,14.756c1.579,0,3.068,0.305,4.468,0.912c1.396,0.608,2.612,1.429,3.646,2.461
	c1.033,1.034,1.854,2.25,2.462,3.647c0.606,1.399,0.911,2.888,0.911,4.468v11.214c0,2.25-0.669,4.271-2.006,6.063
	c-1.337,1.794-2.948,3.178-4.832,4.148l8.662,20.515c0.182,0.853-0.123,1.276-0.912,1.276h-8.297c-0.364,0-0.715-0.121-1.049-0.364
	c-0.334-0.242-0.563-0.548-0.685-0.912l-6.654-16.867v16.867c0,0.853-0.456,1.276-1.368,1.276h-8.114
	c-0.791,0-1.186-0.426-1.186-1.276V16.033c0-0.851,0.425-1.277,1.275-1.277H391.931 M387.646,39.191h2.917
	c0.606,0,1.124-0.212,1.55-0.639c0.425-0.424,0.639-0.941,0.639-1.551V26.7c0-0.607-0.214-1.124-0.639-1.55
	c-0.426-0.424-0.942-0.638-1.55-0.638h-2.917V39.191 M391.931,9.756h-13.677c-3.637,0-6.275,2.64-6.275,6.277v52.151
	c0,3.637,2.602,6.276,6.186,6.276h8.114c2.016,0,3.729-0.787,4.869-2.096c0.274,0.282,0.577,0.543,0.901,0.778
	c1.182,0.858,2.562,1.315,3.984,1.315h8.297c1.902,0,3.565-0.762,4.686-2.144c0.655-0.812,1.675-2.563,1.116-5.176l-0.099-0.466
	l-0.186-0.438l-7.095-16.802c0.97-0.868,1.86-1.847,2.667-2.929c1.988-2.664,2.997-5.711,2.997-9.051v-11.21
	c0-2.258-0.445-4.431-1.323-6.457c-0.859-1.974-2.04-3.719-3.513-5.192c-1.479-1.477-3.224-2.657-5.189-3.513
	C396.362,10.202,394.19,9.756,391.931,9.756L391.931,9.756z"/>
</svg>
