<?xml version="1.0" encoding="utf-8"?>
<!-- Generator: Adobe Illustrator 15.0.0, SVG Export Plug-In  -->
<!DOCTYPE svg PUBLIC "-//W3C//DTD SVG 1.1//EN" "http://www.w3.org/Graphics/SVG/1.1/DTD/svg11.dtd" [
	<!ENTITY ns_flows "http://ns.adobe.com/Flows/1.0/">
]>
<svg version="1.1"
	 xmlns="http://www.w3.org/2000/svg" xmlns:xlink="http://www.w3.org/1999/xlink" xmlns:a="http://ns.adobe.com/AdobeSVGViewerExtensions/3.0/"
	 x="0px" y="0px" width="288px" height="288px" viewBox="0 0 288 288" enable-background="new 0 0 288 288" xml:space="preserve">
<defs>
</defs>
<linearGradient id="SVGID_1_" gradientUnits="userSpaceOnUse" x1="558.2236" y1="689.502" x2="558.5522" y2="663.5409" gradientTransform="matrix(1 0 0 1 -307.3203 -551.9199)">
	<stop  offset="0" style="stop-color:#020202"/>
	<stop  offset="0.0851" style="stop-color:#241111"/>
	<stop  offset="0.2206" style="stop-color:#3C1514"/>
	<stop  offset="0.3893" style="stop-color:#600E10"/>
	<stop  offset="0.5848" style="stop-color:#87171A"/>
	<stop  offset="0.7998" style="stop-color:#B72327"/>
	<stop  offset="1" style="stop-color:#EB272A"/>
</linearGradient>
<path fill="url(#SVGID_1_)" d="M286.164,123.365c0,2.869-1.811,5.57-4.951,7.869c-0.039,0.031-0.08,0.061-0.129,0.101
	c-1.221,0.88-2.631,1.7-4.211,2.45c-2.049,0.97-4.398,1.84-6.979,2.55c-0.07,0.03-0.141,0.05-0.221,0.069
	c-0.68,0.181-1.381,0.361-2.1,0.531c-4.42,1.029-9.391,1.659-14.682,1.779c-0.391,0.02-0.779,0.02-1.172,0.02h-0.639
	c-0.682,0-1.361-0.01-2.041-0.029c-6.07-0.15-11.729-0.98-16.58-2.311c-0.648-0.18-1.289-0.369-1.91-0.569
	c-0.039-0.011-0.068-0.021-0.107-0.03c-3.039-0.97-5.699-2.15-7.881-3.48c-4.129-2.52-6.561-5.619-6.561-8.949
	c0-8.48,15.709-15.36,35.08-15.36C270.451,108.006,286.164,114.884,286.164,123.365z"/>
<linearGradient id="SVGID_2_" gradientUnits="userSpaceOnUse" x1="557.7549" y1="689.665" x2="558.0325" y2="667.7344" gradientTransform="matrix(1 0 0 1 -307.3203 -551.9199)">
	<stop  offset="0" style="stop-color:#020202"/>
	<stop  offset="0.1326" style="stop-color:#201111"/>
	<stop  offset="0.322" style="stop-color:#371615"/>
	<stop  offset="0.5456" style="stop-color:#531514"/>
	<stop  offset="0.7933" style="stop-color:#761215"/>
	<stop  offset="1" style="stop-color:#951B1F"/>
</linearGradient>
<path fill="url(#SVGID_2_)" d="M284.354,125.914c0,1.91-1.148,3.7-3.141,5.319c-0.039,0.031-0.08,0.061-0.129,0.101
	c-1.15,0.91-2.58,1.771-4.23,2.54c-2.01,0.96-4.35,1.8-6.91,2.51c-0.09,0.02-0.18,0.051-0.277,0.07
	c-0.67,0.18-1.352,0.35-2.051,0.52c-4.529,1.041-9.592,1.67-14.721,1.74c-0.391,0.02-0.779,0.02-1.17,0.02
	c-0.16,0-0.32,0-0.479-0.01c-0.729,0-1.461-0.01-2.191-0.05c-5.59-0.22-11.287-1.13-16.309-2.521
	c-0.66-0.18-1.313-0.369-1.951-0.569c-0.129-0.04-0.26-0.08-0.391-0.13c-3-0.95-5.68-2.08-7.852-3.33
	c-3.539-2.04-5.729-4.4-5.729-6.859c0-7.171,18.529-12.49,34.9-12.49C268.094,112.775,284.354,118.744,284.354,125.914z"/>
<linearGradient id="SVGID_3_" gradientUnits="userSpaceOnUse" x1="342.2207" y1="761.0039" x2="342.5493" y2="735.0416" gradientTransform="matrix(1 0 0 1 -307.3203 -551.9199)">
	<stop  offset="0" style="stop-color:#020202"/>
	<stop  offset="0.0851" style="stop-color:#241111"/>
	<stop  offset="0.2206" style="stop-color:#3C1514"/>
	<stop  offset="0.3893" style="stop-color:#600E10"/>
	<stop  offset="0.5848" style="stop-color:#87171A"/>
	<stop  offset="0.7998" style="stop-color:#B72327"/>
	<stop  offset="1" style="stop-color:#EB272A"/>
</linearGradient>
<path fill="url(#SVGID_3_)" d="M70.161,194.866c0,2.869-1.811,5.57-4.95,7.869c-0.04,0.031-0.08,0.063-0.13,0.102
	c-1.221,0.881-2.63,1.699-4.21,2.449c-2.05,0.971-4.399,1.84-6.979,2.551c-0.07,0.029-0.141,0.051-0.221,0.068
	c-0.68,0.182-1.38,0.361-2.1,0.531c-4.42,1.029-9.391,1.658-14.682,1.779c-0.39,0.02-0.779,0.02-1.17,0.02h-0.64
	c-0.681,0-1.36-0.01-2.04-0.029c-6.07-0.148-11.73-0.979-16.58-2.311c-0.65-0.18-1.29-0.369-1.91-0.568
	c-0.04-0.012-0.07-0.021-0.11-0.029c-3.039-0.971-5.699-2.15-7.88-3.48C2.43,201.296,0,198.198,0,194.868
	c0-8.48,15.71-15.359,35.08-15.359S70.161,186.386,70.161,194.866z"/>
<linearGradient id="SVGID_4_" gradientUnits="userSpaceOnUse" x1="341.7539" y1="761.167" x2="342.0315" y2="739.2372" gradientTransform="matrix(1 0 0 1 -307.3203 -551.9199)">
	<stop  offset="0" style="stop-color:#020202"/>
	<stop  offset="0.1326" style="stop-color:#201111"/>
	<stop  offset="0.322" style="stop-color:#371615"/>
	<stop  offset="0.5456" style="stop-color:#531514"/>
	<stop  offset="0.7933" style="stop-color:#761215"/>
	<stop  offset="1" style="stop-color:#951B1F"/>
</linearGradient>
<path fill="url(#SVGID_4_)" d="M68.351,197.415c0,1.91-1.148,3.701-3.14,5.318c-0.04,0.031-0.08,0.063-0.13,0.102
	c-1.15,0.91-2.58,1.77-4.23,2.541c-2.01,0.959-4.35,1.799-6.91,2.51c-0.09,0.02-0.18,0.051-0.278,0.07
	c-0.67,0.18-1.351,0.35-2.05,0.52c-4.53,1.041-9.592,1.67-14.721,1.74c-0.391,0.02-0.779,0.02-1.17,0.02c-0.16,0-0.32,0-0.479-0.01
	c-0.729,0-1.46-0.01-2.19-0.051c-5.59-0.219-11.289-1.129-16.31-2.52c-0.66-0.182-1.311-0.369-1.95-0.57
	c-0.13-0.039-0.26-0.08-0.39-0.129c-3-0.951-5.681-2.08-7.851-3.33c-3.54-2.041-5.729-4.4-5.729-6.859
	c0-7.172,18.529-12.49,34.9-12.49C52.091,184.276,68.351,190.245,68.351,197.415z"/>
<linearGradient id="SVGID_5_" gradientUnits="userSpaceOnUse" x1="342.2158" y1="616.54" x2="342.5443" y2="590.5848" gradientTransform="matrix(1 0 0 1 -307.3203 -551.9199)">
	<stop  offset="0" style="stop-color:#020202"/>
	<stop  offset="0.0851" style="stop-color:#241111"/>
	<stop  offset="0.2206" style="stop-color:#3C1514"/>
	<stop  offset="0.3893" style="stop-color:#600E10"/>
	<stop  offset="0.5848" style="stop-color:#87171A"/>
	<stop  offset="0.7998" style="stop-color:#B72327"/>
	<stop  offset="1" style="stop-color:#EB272A"/>
</linearGradient>
<ellipse fill="url(#SVGID_5_)" cx="35.076" cy="50.411" rx="35.076" ry="15.361"/>
<linearGradient id="SVGID_6_" gradientUnits="userSpaceOnUse" x1="341.75" y1="616.7051" x2="342.0276" y2="594.7737" gradientTransform="matrix(1 0 0 1 -307.3203 -551.9199)">
	<stop  offset="0" style="stop-color:#020202"/>
	<stop  offset="0.1326" style="stop-color:#201111"/>
	<stop  offset="0.322" style="stop-color:#371615"/>
	<stop  offset="0.5456" style="stop-color:#531514"/>
	<stop  offset="0.7933" style="stop-color:#761215"/>
	<stop  offset="1" style="stop-color:#951B1F"/>
</linearGradient>
<path fill="url(#SVGID_6_)" d="M68.346,52.957c0,7.168-16.263,12.814-32.631,12.814c-16.367,0-34.894-6.304-34.894-13.471
	c0-7.168,18.527-12.486,34.894-12.486C52.083,39.814,68.346,45.789,68.346,52.957z"/>
<radialGradient id="SVGID_7_" cx="278.7441" cy="-561.1763" r="32.7497" gradientTransform="matrix(-0.6304 0.7763 -0.7693 -0.6247 -220.1104 -532.4932)" gradientUnits="userSpaceOnUse">
	<stop  offset="0" style="stop-color:#FFFFFF"/>
	<stop  offset="0.4001" style="stop-color:#FBFEFF"/>
	<stop  offset="0.584" style="stop-color:#F2F4F6"/>
	<stop  offset="0.7236" style="stop-color:#E5ECEE"/>
	<stop  offset="0.841" style="stop-color:#D3E2E8"/>
	<stop  offset="0.9432" style="stop-color:#BFD6DF"/>
	<stop  offset="1" style="stop-color:#ADCBD7"/>
</radialGradient>
<polygon fill="url(#SVGID_7_)" points="35.141,10.285 41.546,3.848 44.779,12.334 53.251,9.059 52.753,18.126 61.824,18.58 
	57.682,26.661 65.782,30.765 58.711,36.463 64.441,43.505 55.665,45.835 58.037,54.601 49.07,53.16 47.671,62.131 40.068,57.166 
	35.141,64.795 30.213,57.166 22.609,62.131 21.209,53.16 12.243,54.601 14.615,45.835 5.838,43.505 11.57,36.463 4.499,30.765 
	12.599,26.661 8.457,18.58 17.527,18.126 17.029,9.059 25.5,12.334 28.732,3.848 "/>
<radialGradient id="SVGID_8_" cx="284.0166" cy="-833.9795" r="16.8984" gradientTransform="matrix(-0.6304 0.7763 -0.5298 -0.4302 -221.6567 -550.0646)" gradientUnits="userSpaceOnUse">
	<stop  offset="0" style="stop-color:#F6998E"/>
	<stop  offset="0.4481" style="stop-color:#F06C58"/>
	<stop  offset="0.7409" style="stop-color:#F04D3B"/>
	<stop  offset="1" style="stop-color:#EB272A"/>
</radialGradient>
<path fill="url(#SVGID_8_)" d="M55.478,31.09c0.067-7.758-7.168-9.6-10.744-8.856c-7.629,1.586-9,6.501-9,6.501h-0.516l0,0
	c0,0-1.372-4.915-9.001-6.501c-3.576-0.744-10.812,1.098-10.745,8.856C15.588,44.399,35.56,51.309,35.56,51.309l0,0
	C36.992,50.79,55.368,43.881,55.478,31.09z"/>
<linearGradient id="SVGID_9_" gradientUnits="userSpaceOnUse" x1="486.0557" y1="616.71" x2="486.3844" y2="590.7455" gradientTransform="matrix(1 0 0 1 -307.3203 -551.9199)">
	<stop  offset="0" style="stop-color:#020202"/>
	<stop  offset="0.0851" style="stop-color:#241111"/>
	<stop  offset="0.2206" style="stop-color:#3C1514"/>
	<stop  offset="0.3893" style="stop-color:#600E10"/>
	<stop  offset="0.5848" style="stop-color:#87171A"/>
	<stop  offset="0.7998" style="stop-color:#B72327"/>
	<stop  offset="1" style="stop-color:#EB272A"/>
</linearGradient>
<path fill="url(#SVGID_9_)" d="M213.988,50.581c0,2.92-1.861,5.64-5.08,7.96c-0.021,0.01-0.041,0.03-0.063,0.04
	c-0.938,0.68-2,1.32-3.158,1.92c-1.291,0.67-2.723,1.29-4.25,1.85c-2.189,0.8-4.602,1.49-7.189,2.04c-0.16,0.04-0.33,0.08-0.5,0.11
	h-0.041c-0.6,0.13-1.199,0.24-1.82,0.35c-0.709,0.13-1.438,0.24-2.17,0.34c-2.35,0.34-4.809,0.57-7.359,0.68
	c-0.5,0.03-0.988,0.04-1.488,0.05h-0.15c-0.389,0.02-0.777,0.02-1.17,0.02h-0.629c-2.961,0-5.84-0.16-8.58-0.47
	c-1.121-0.12-2.221-0.27-3.301-0.45c-0.432-0.06-0.852-0.13-1.27-0.2c-0.102-0.02-0.199-0.03-0.289-0.05
	c-0.07-0.01-0.131-0.03-0.189-0.04c-1.531-0.28-3-0.6-4.4-0.98c-0.971-0.25-1.91-0.52-2.818-0.82c-1.592-0.51-3.08-1.09-4.439-1.71
	c-6.068-2.76-9.792-6.51-9.792-10.64c0-4.07,3.602-7.77,9.491-10.52c0.09-0.04,0.182-0.08,0.279-0.13
	c0.92-0.41,1.891-0.81,2.91-1.18c0.029-0.01,0.061-0.02,0.102-0.04c0.469-0.16,0.959-0.33,1.449-0.49
	c1.311-0.43,2.699-0.82,4.141-1.15c0.609-0.16,1.238-0.29,1.869-0.42c3.33-0.68,6.939-1.14,10.74-1.33c0.5-0.03,1-0.05,1.51-0.06
	c0.682-0.03,1.381-0.04,2.068-0.04c0.172-0.01,0.352-0.01,0.521-0.01c0.391,0,0.77,0,1.16,0.01c1.18,0.02,2.35,0.06,3.5,0.13
	c5.129,0.29,9.91,1.07,14.09,2.24c1.32,0.36,2.58,0.77,3.77,1.21c0.42,0.15,0.83,0.31,1.24,0.47c0.029,0.02,0.051,0.03,0.08,0.04
	c0.4,0.16,0.801,0.33,1.18,0.51c0.781,0.34,1.512,0.7,2.211,1.08C211.047,43.541,213.988,46.911,213.988,50.581z"/>
<linearGradient id="SVGID_10_" gradientUnits="userSpaceOnUse" x1="485.585" y1="616.877" x2="485.8626" y2="594.9413" gradientTransform="matrix(1 0 0 1 -307.3203 -551.9199)">
	<stop  offset="0" style="stop-color:#020202"/>
	<stop  offset="0.1326" style="stop-color:#201111"/>
	<stop  offset="0.322" style="stop-color:#371615"/>
	<stop  offset="0.5456" style="stop-color:#531514"/>
	<stop  offset="0.7933" style="stop-color:#761215"/>
	<stop  offset="1" style="stop-color:#951B1F"/>
</linearGradient>
<path fill="url(#SVGID_10_)" d="M212.178,53.121c0,1.94-1.199,3.78-3.27,5.42c-0.021,0.01-0.041,0.03-0.063,0.04
	c-0.891,0.7-1.93,1.36-3.119,1.98c-1.279,0.68-2.721,1.3-4.289,1.86c-2.189,0.79-4.643,1.479-7.24,2.02
	c-0.16,0.04-0.32,0.07-0.48,0.1c-0.01,0.01-0.029,0.01-0.039,0.01c-0.561,0.11-1.131,0.22-1.711,0.32
	c-0.75,0.13-1.51,0.25-2.279,0.36c-2.379,0.34-4.84,0.56-7.33,0.64c-0.5,0.03-0.988,0.04-1.488,0.05h-0.15
	c-0.389,0.02-0.777,0.02-1.17,0.02h-0.629c-2.891-0.03-5.83-0.25-8.721-0.65c-1.17-0.15-2.342-0.33-3.48-0.55
	c-0.299-0.05-0.59-0.1-0.889-0.16c-0.189-0.04-0.381-0.07-0.563-0.11c-0.068-0.01-0.141-0.03-0.199-0.04
	c-1.41-0.28-2.779-0.61-4.109-0.97c-0.99-0.26-1.959-0.55-2.891-0.85c-1.51-0.49-2.949-1.02-4.271-1.59
	c-5.488-2.36-9.139-5.38-9.139-8.55c0-3.45,4.29-6.48,10.581-8.68c0.58-0.21,1.17-0.4,1.779-0.59c0.027-0.01,0.068-0.02,0.107-0.03
	c0.313-0.09,0.621-0.19,0.939-0.28c1.068-0.31,2.17-0.59,3.311-0.86c3.313-0.76,6.881-1.34,10.5-1.68
	c1.57-0.15,3.15-0.25,4.721-0.31c0.15-0.01,0.289-0.01,0.439-0.01c0.84-0.04,1.68-0.05,2.51-0.05c2.439,0,4.881,0.13,7.262,0.39
	c0.029,0,0.068,0,0.102,0.01c1.66,0.17,3.289,0.4,4.879,0.69c0.189,0.03,0.381,0.07,0.57,0.11c1.619,0.3,3.199,0.66,4.699,1.07
	c0.09,0.03,0.189,0.05,0.279,0.08c0.42,0.12,0.84,0.24,1.25,0.36c0.26,0.08,0.521,0.16,0.779,0.24c0.711,0.23,1.398,0.47,2.068,0.72
	c0.24,0.09,0.48,0.18,0.711,0.28c0.021,0,0.051,0.01,0.068,0.02c0.682,0.27,1.32,0.55,1.941,0.83
	C209.059,47.071,212.178,49.98,212.178,53.121z"/>
<radialGradient id="SVGID_11_" cx="423.5557" cy="-549.29" r="27.7746" gradientTransform="matrix(-0.6304 0.7763 -0.7693 -0.6247 25.124 -626.2764)" gradientUnits="userSpaceOnUse">
	<stop  offset="0" style="stop-color:#FFFFFF"/>
	<stop  offset="0.4001" style="stop-color:#FBFEFF"/>
	<stop  offset="0.584" style="stop-color:#F2F4F6"/>
	<stop  offset="0.7236" style="stop-color:#E5ECEE"/>
	<stop  offset="0.841" style="stop-color:#D3E2E8"/>
	<stop  offset="0.9432" style="stop-color:#BFD6DF"/>
	<stop  offset="1" style="stop-color:#ADCBD7"/>
</radialGradient>
<path fill="url(#SVGID_11_)" d="M205.688,60.5l0.041,0.06c-1.279,0.68-2.721,1.3-4.291,1.86c-2.188,0.79-4.641,1.479-7.238,2.02
	c-0.16,0.04-0.32,0.07-0.48,0.1c-0.01,0.01-0.027,0.01-0.039,0.01c-0.561,0.11-1.131,0.22-1.711,0.32
	c-0.75,0.13-1.51,0.25-2.277,0.36c-2.381,0.34-4.84,0.56-7.33,0.64c-0.5,0.03-0.99,0.04-1.49,0.05h-0.148
	c-0.391,0.02-0.781,0.02-1.172,0.02h-0.629c-2.961,0-5.84-0.16-8.58-0.47c-1.119-0.12-2.221-0.27-3.301-0.45
	c-0.43-0.06-0.85-0.13-1.27-0.2c-0.102-0.02-0.199-0.03-0.291-0.05c-0.068-0.01-0.129-0.03-0.189-0.04c-1.529-0.28-3-0.6-4.398-0.98
	c-0.971-0.25-1.91-0.52-2.82-0.82c-1.59-0.51-3.08-1.09-4.439-1.71l0.17-0.2l2.58-3.18l-7.068-5.7l8.102-4.11l-2.17-4.24l-1.91-3.73
	l-0.061-0.11l0.34-0.02l8.729-0.43l-0.131-2.43l-0.369-6.64l8.471,3.28l3.238-8.49l6.4,6.44l6.408-6.44l3.23,8.49l8.471-3.28
	l-0.391,7.16l-0.1,1.91l6.369,0.32l2.699,0.13l-0.49,0.95l-1.988,3.88l-1.67,3.25l8.1,4.11l-7.07,5.7L205.688,60.5z"/>
<radialGradient id="SVGID_12_" cx="428.835" cy="-813.4185" r="14.2639" gradientTransform="matrix(-0.6304 0.7763 -0.5298 -0.4302 25.3335 -633.9084)" gradientUnits="userSpaceOnUse">
	<stop  offset="0" style="stop-color:#F6998E"/>
	<stop  offset="0.4481" style="stop-color:#F06C58"/>
	<stop  offset="0.7409" style="stop-color:#F04D3B"/>
	<stop  offset="1" style="stop-color:#EB272A"/>
</radialGradient>
<path fill="url(#SVGID_12_)" d="M200.287,52.46c-0.039,4.83-2.68,8.81-6.039,11.93c-0.01,0.02-0.031,0.04-0.051,0.05
	c-0.16,0.04-0.32,0.07-0.48,0.1c-0.01,0.01-0.029,0.01-0.039,0.01c-0.561,0.11-1.131,0.22-1.711,0.32
	c-0.75,0.13-1.51,0.25-2.279,0.36c-2.379,0.34-4.84,0.56-7.33,0.64c-0.5,0.03-0.988,0.04-1.488,0.05h-0.15
	c-0.389,0.02-0.777,0.02-1.17,0.02h-0.629c-2.961,0-5.84-0.16-8.58-0.47c-1.121-0.12-2.221-0.27-3.301-0.45
	c-0.109-0.1-0.209-0.19-0.32-0.28c-3.539-3.17-6.389-7.27-6.43-12.28c-0.07-7.75,7.17-9.6,10.74-8.85
	c3.811,0.79,6.068,2.41,7.357,3.84c1.301,1.43,1.643,2.66,1.643,2.66h0.52c0,0,1.371-4.92,9-6.5
	C193.117,42.861,200.357,44.71,200.287,52.46z"/>
<linearGradient id="SVGID_13_" gradientUnits="userSpaceOnUse" x1="414.2197" y1="616.877" x2="414.5484" y2="590.913" gradientTransform="matrix(1 0 0 1 -307.3203 -551.9199)">
	<stop  offset="0" style="stop-color:#020202"/>
	<stop  offset="0.0851" style="stop-color:#241111"/>
	<stop  offset="0.2206" style="stop-color:#3C1514"/>
	<stop  offset="0.3893" style="stop-color:#600E10"/>
	<stop  offset="0.5848" style="stop-color:#87171A"/>
	<stop  offset="0.7998" style="stop-color:#B72327"/>
	<stop  offset="1" style="stop-color:#EB272A"/>
</linearGradient>
<path fill="url(#SVGID_13_)" d="M142.154,50.748c0,2.92-1.86,5.64-5.08,7.96c-0.021,0.01-0.041,0.03-0.062,0.04
	c-1.948,1.4-4.389,2.65-7.229,3.7c-1.698,0.64-3.549,1.21-5.52,1.69c-0.939,0.23-1.9,0.45-2.89,0.63
	c-3.851,0.76-8.06,1.22-12.49,1.32c-0.39,0.02-0.78,0.02-1.17,0.02h-0.63c-4.67,0-9.13-0.4-13.2-1.13
	c-1.229-0.21-2.42-0.46-3.569-0.73c-1.75-0.42-3.41-0.9-4.961-1.44c-8.129-2.81-13.35-7.169-13.35-12.06c0-3.18,2.21-6.15,6-8.61
	c2.79-1.8,6.45-3.34,10.7-4.49h0.01c4.72-1.27,10.181-2.07,16.04-2.23c0.77-0.03,1.55-0.04,2.33-0.04c1.35,0,2.68,0.03,3.99,0.1
	c6.05,0.3,11.64,1.27,16.359,2.75c3.699,1.16,6.869,2.62,9.301,4.31C140.165,44.917,142.154,47.728,142.154,50.748z"/>
<linearGradient id="SVGID_14_" gradientUnits="userSpaceOnUse" x1="413.752" y1="617.043" x2="414.0295" y2="595.107" gradientTransform="matrix(1 0 0 1 -307.3203 -551.9199)">
	<stop  offset="0" style="stop-color:#020202"/>
	<stop  offset="0.1326" style="stop-color:#201111"/>
	<stop  offset="0.322" style="stop-color:#371615"/>
	<stop  offset="0.5456" style="stop-color:#531514"/>
	<stop  offset="0.7933" style="stop-color:#761215"/>
	<stop  offset="1" style="stop-color:#951B1F"/>
</linearGradient>
<path fill="url(#SVGID_14_)" d="M140.345,53.288c0,1.94-1.199,3.78-3.271,5.42c-0.021,0.01-0.041,0.03-0.062,0.04
	c-1.809,1.43-4.288,2.7-7.209,3.77c-1.67,0.62-3.489,1.17-5.42,1.64c-0.979,0.24-1.979,0.46-3.01,0.65
	c-3.931,0.77-8.19,1.22-12.49,1.28c-0.39,0.02-0.78,0.02-1.17,0.02h-0.29c-4.51-0.02-9.18-0.52-13.58-1.38
	c-0.939-0.18-1.869-0.38-2.779-0.61c-1.971-0.46-3.86-1-5.631-1.6c-7.369-2.51-12.609-6.07-12.609-9.88c0-3.05,3.34-5.76,8.439-7.87
	c2.01-0.83,4.28-1.57,6.74-2.19c5.99-1.54,13.029-2.43,19.71-2.43c7.19,0,14.351,1.16,20.129,3.05c1.972,0.65,3.771,1.38,5.361,2.18
	C137.595,47.599,140.345,50.338,140.345,53.288z"/>
<radialGradient id="SVGID_15_" cx="351.082" cy="-555.002" r="30.3195" gradientTransform="matrix(-0.6304 0.7763 -0.7693 -0.6247 -97.2881 -578.8887)" gradientUnits="userSpaceOnUse">
	<stop  offset="0" style="stop-color:#FFFFFF"/>
	<stop  offset="0.4001" style="stop-color:#FBFEFF"/>
	<stop  offset="0.584" style="stop-color:#F2F4F6"/>
	<stop  offset="0.7236" style="stop-color:#E5ECEE"/>
	<stop  offset="0.841" style="stop-color:#D3E2E8"/>
	<stop  offset="0.9432" style="stop-color:#BFD6DF"/>
	<stop  offset="1" style="stop-color:#ADCBD7"/>
</radialGradient>
<path fill="url(#SVGID_15_)" d="M136.925,54.048l-8.779,2.33l1.639,6.07l0.021,0.07c-1.67,0.62-3.489,1.17-5.42,1.64l-0.12-0.02
	l-2.72-0.44l-0.17,1.07v0.04c-3.931,0.77-8.19,1.22-12.49,1.28c-0.39,0.02-0.78,0.02-1.17,0.02h-0.63c-4.67,0-9.13-0.4-13.2-1.13
	l-0.04-0.25l-0.16-1.03l-2.619,0.42l-0.75,0.13c-1.75-0.42-3.41-0.9-4.961-1.44l0.08-0.29l1.66-6.14l-8.779-2.33l5.729-7.04
	l-2.78-2.24l-3.26-2.629l-1.029-0.83l8.1-4.11l-4.141-8.08l9.07-0.45l-0.5-9.07l8.471,3.28l3.239-8.49l6.399,6.44l6.41-6.44
	l3.23,8.49l8.471-3.28l-0.49,9.07l9.068,0.45l-4.148,8.08l8.1,4.11l-1.52,1.23l-3.529,2.84l-2.021,1.63L136.925,54.048z"/>
<radialGradient id="SVGID_16_" cx="356.3574" cy="-823.1221" r="16.8979" gradientTransform="matrix(-0.6304 0.7763 -0.5298 -0.4302 -97.8247 -591.0119)" gradientUnits="userSpaceOnUse">
	<stop  offset="0" style="stop-color:#F6998E"/>
	<stop  offset="0.4481" style="stop-color:#F06C58"/>
	<stop  offset="0.7409" style="stop-color:#F04D3B"/>
	<stop  offset="1" style="stop-color:#EB272A"/>
</radialGradient>
<path fill="url(#SVGID_16_)" d="M127.956,41.632c0.067-7.758-7.168-9.6-10.744-8.856c-7.628,1.586-9.001,6.501-9.001,6.501h-0.516
	l0,0c0,0-1.373-4.915-9.002-6.501c-3.576-0.744-10.812,1.098-10.744,8.856c0.115,13.309,20.087,20.219,20.087,20.219l0,0
	C109.469,61.332,127.845,54.423,127.956,41.632z"/>
<linearGradient id="SVGID_17_" gradientUnits="userSpaceOnUse" x1="558.0508" y1="616.543" x2="558.3794" y2="590.5823" gradientTransform="matrix(1 0 0 1 -307.3203 -551.9199)">
	<stop  offset="0" style="stop-color:#020202"/>
	<stop  offset="0.0851" style="stop-color:#241111"/>
	<stop  offset="0.2206" style="stop-color:#3C1514"/>
	<stop  offset="0.3893" style="stop-color:#600E10"/>
	<stop  offset="0.5848" style="stop-color:#87171A"/>
	<stop  offset="0.7998" style="stop-color:#B72327"/>
	<stop  offset="1" style="stop-color:#EB272A"/>
</linearGradient>
<path fill="url(#SVGID_17_)" d="M285.988,50.414c0,2.92-1.861,5.64-5.08,7.96c-0.021,0.01-0.041,0.03-0.063,0.04
	c-0.699,0.5-1.461,0.99-2.289,1.45c-1.521,0.85-3.23,1.63-5.119,2.32c-0.16,0.06-0.313,0.11-0.473,0.17
	c-0.27,0.09-0.539,0.19-0.811,0.28c-0.369,0.12-0.75,0.24-1.129,0.35c-0.021,0.021-0.041,0.021-0.063,0.021
	c-0.26,0.09-0.52,0.17-0.789,0.24c-0.93,0.27-1.881,0.52-2.871,0.75c-1.949,0.45-4,0.82-6.148,1.11
	c-0.289,0.04-0.59,0.08-0.879,0.11c-0.271,0.03-0.541,0.06-0.813,0.09c-1.719,0.19-3.479,0.33-5.289,0.4
	c-0.479,0.02-0.971,0.04-1.461,0.05c-0.389,0.02-0.779,0.02-1.17,0.02h-0.629c-0.271,0-0.551,0-0.82-0.01
	c-2.5-0.02-4.939-0.16-7.279-0.4c-0.189-0.02-0.381-0.04-0.561-0.06c-0.52-0.06-1.041-0.12-1.551-0.19
	c-1.17-0.16-2.32-0.34-3.439-0.55c-0.039-0.01-0.068-0.01-0.1-0.02c-0.25-0.05-0.49-0.09-0.74-0.15c-1.449-0.28-2.85-0.61-4.18-0.98
	c-0.061-0.02-0.121-0.03-0.18-0.05c-0.053-0.01-0.104-0.02-0.15-0.04c-0.631-0.18-1.25-0.36-1.85-0.56
	c-0.25-0.08-0.5-0.17-0.75-0.25c-1.881-0.64-3.611-1.37-5.15-2.17c-5.201-2.68-8.33-6.15-8.33-9.93c0-7.65,12.76-14,29.48-15.17
	c0.129-0.01,0.27-0.02,0.406-0.02c1.541-0.11,3.121-0.16,4.723-0.17c0.01-0.01,0.027-0.01,0.041-0.01h0.43
	c0.59,0,1.189,0.01,1.77,0.02h0.17c1.689,0.04,3.359,0.14,4.98,0.28c0.199,0.02,0.391,0.04,0.59,0.06
	C274.188,36.904,285.988,43.055,285.988,50.414z"/>
<linearGradient id="SVGID_18_" gradientUnits="userSpaceOnUse" x1="557.584" y1="616.709" x2="557.8616" y2="594.7748" gradientTransform="matrix(1 0 0 1 -307.3203 -551.9199)">
	<stop  offset="0" style="stop-color:#020202"/>
	<stop  offset="0.1326" style="stop-color:#201111"/>
	<stop  offset="0.322" style="stop-color:#371615"/>
	<stop  offset="0.5456" style="stop-color:#531514"/>
	<stop  offset="0.7933" style="stop-color:#761215"/>
	<stop  offset="1" style="stop-color:#951B1F"/>
</linearGradient>
<path fill="url(#SVGID_18_)" d="M284.178,52.954c0,1.94-1.199,3.78-3.27,5.42c-0.021,0.01-0.041,0.03-0.063,0.04
	c-0.658,0.52-1.398,1.01-2.221,1.48c-1.5,0.87-3.25,1.66-5.188,2.36c-0.182,0.06-0.359,0.13-0.541,0.19
	c-0.238,0.09-0.488,0.17-0.738,0.25c-0.381,0.13-0.771,0.25-1.16,0.36c-0.021,0.01-0.041,0.02-0.061,0.02
	c-0.23,0.07-0.461,0.14-0.699,0.21c-0.951,0.27-1.932,0.52-2.941,0.75c-1.939,0.45-3.979,0.81-6.09,1.09
	c-0.311,0.04-0.629,0.08-0.949,0.12c-0.26,0.03-0.52,0.06-0.791,0.09c-1.738,0.2-3.51,0.33-5.289,0.38
	c-0.49,0.03-0.971,0.04-1.461,0.04c-0.389,0.02-0.779,0.02-1.17,0.02h-0.289c-0.381,0-0.77-0.01-1.16-0.02
	c-2.41-0.05-4.859-0.23-7.27-0.54c-0.182-0.02-0.361-0.05-0.541-0.07c-0.41-0.05-0.811-0.11-1.209-0.17
	c-1.141-0.17-2.271-0.36-3.381-0.58c-0.313-0.06-0.619-0.12-0.932-0.18h-0.01c-0.148-0.03-0.301-0.06-0.438-0.1
	c-1.41-0.31-2.781-0.64-4.104-1.03c-0.1-0.03-0.188-0.05-0.277-0.08c-0.053,0-0.102-0.021-0.15-0.04
	c-0.58-0.16-1.16-0.34-1.719-0.52c-0.191-0.06-0.381-0.12-0.57-0.19c-1.84-0.61-3.551-1.3-5.09-2.03
	c-4.711-2.26-7.75-5.02-7.75-7.92c0-4.16,6.25-7.71,14.699-9.93c0.801-0.21,1.619-0.42,2.461-0.6c0.879-0.2,1.77-0.39,2.68-0.56
	c2.24-0.42,4.57-0.75,6.92-0.98c1.01-0.1,2.029-0.19,3.039-0.25c0.01,0,0.01,0,0.01,0c0.621-0.04,1.24-0.07,1.861-0.1
	c0.66-0.03,1.318-0.05,1.979-0.06h0.182c0.35-0.01,0.709-0.01,1.061-0.01h0.102c0.209,0,0.43,0,0.641,0.01
	c0.359,0,0.709,0.01,1.068,0.03c1.041,0.01,2.08,0.07,3.109,0.14c0.07,0,0.141,0.01,0.209,0.01c1.23,0.09,2.439,0.22,3.643,0.38
	c2.148,0.26,4.238,0.63,6.229,1.08c1.129,0.25,2.229,0.53,3.289,0.84c0.98,0.27,1.932,0.57,2.83,0.89
	C279.518,45.624,284.178,49.124,284.178,52.954z"/>
<radialGradient id="SVGID_19_" cx="494.4072" cy="-543.4487" r="23.5937" gradientTransform="matrix(-0.6304 0.7763 -0.7693 -0.6247 145.6455 -672.879)" gradientUnits="userSpaceOnUse">
	<stop  offset="0" style="stop-color:#FFFFFF"/>
	<stop  offset="0.4001" style="stop-color:#FBFEFF"/>
	<stop  offset="0.584" style="stop-color:#F2F4F6"/>
	<stop  offset="0.7236" style="stop-color:#E5ECEE"/>
	<stop  offset="0.841" style="stop-color:#D3E2E8"/>
	<stop  offset="0.9432" style="stop-color:#BFD6DF"/>
	<stop  offset="1" style="stop-color:#ADCBD7"/>
</radialGradient>
<path fill="url(#SVGID_19_)" d="M278.627,59.894c-1.5,0.87-3.25,1.66-5.189,2.36c-0.18,0.06-0.357,0.13-0.539,0.19
	c-0.24,0.09-0.49,0.17-0.74,0.25c-0.379,0.13-0.771,0.25-1.158,0.36c-0.021,0.01-0.041,0.02-0.063,0.02
	c-0.229,0.07-0.459,0.14-0.699,0.21c-0.949,0.27-1.93,0.52-2.939,0.75c-1.938,0.45-3.979,0.81-6.09,1.09
	c-0.311,0.04-0.629,0.08-0.949,0.12c-0.26,0.03-0.521,0.06-0.791,0.09c-1.738,0.2-3.51,0.33-5.289,0.38
	c-0.488,0.03-0.971,0.04-1.461,0.04c-0.391,0.02-0.777,0.02-1.17,0.02h-0.629c-0.271,0-0.551,0-0.82-0.01
	c-2.5-0.02-4.938-0.16-7.277-0.4c-0.191-0.02-0.381-0.04-0.563-0.06c-0.521-0.06-1.041-0.12-1.551-0.19
	c-1.17-0.16-2.32-0.34-3.438-0.55c-0.041-0.01-0.07-0.01-0.102-0.02c-0.25-0.05-0.49-0.09-0.74-0.15
	c-1.449-0.28-2.852-0.61-4.18-0.98c-0.063-0.02-0.121-0.03-0.182-0.05c-0.051-0.01-0.102-0.02-0.148-0.04
	c-0.631-0.18-1.25-0.36-1.852-0.56c-0.25-0.08-0.5-0.17-0.75-0.25c-1.881-0.64-3.609-1.37-5.148-2.17l0.238-0.12l4.891-2.48
	l-4.141-8.08l9.07-0.45l-0.41-7.44l-0.09-1.63l2.771,1.07l5.709,2.21l1.211-3.19l1.898-4.99l0.119-0.31l0.291,0.29l4.58,4.6
	l1.539,1.55l1.51-1.52l4.48-4.51l0.41-0.41l0.18,0.47l1.891,4.98l1.16,3.04l5.068-1.96l3.41-1.32l-0.119,2.16l-0.381,6.91l9.07,0.45
	l-4.15,8.08l4.182,2.12L278.627,59.894z"/>
<radialGradient id="SVGID_20_" cx="500.2061" cy="-804.8262" r="11.0385" gradientTransform="matrix(-0.6304 0.7763 -0.5298 -0.4302 146.7651 -678.3098)" gradientUnits="userSpaceOnUse">
	<stop  offset="0" style="stop-color:#F6998E"/>
	<stop  offset="0.4481" style="stop-color:#F06C58"/>
	<stop  offset="0.7409" style="stop-color:#F04D3B"/>
	<stop  offset="1" style="stop-color:#EB272A"/>
</radialGradient>
<path fill="url(#SVGID_20_)" d="M272.178,62.174c0,0.15-0.01,0.31-0.02,0.46c0.01,0.02,0.01,0.04,0,0.06
	c-0.381,0.13-0.771,0.25-1.16,0.36c-0.021,0.01-0.041,0.02-0.061,0.02c-0.23,0.07-0.461,0.14-0.699,0.21
	c-0.951,0.27-1.932,0.52-2.941,0.75c-1.939,0.45-3.979,0.81-6.09,1.09c-0.311,0.04-0.629,0.08-0.949,0.12
	c-0.26,0.03-0.52,0.06-0.791,0.09c-1.738,0.2-3.51,0.33-5.289,0.38c-0.49,0.03-0.971,0.04-1.461,0.04
	c-0.389,0.02-0.779,0.02-1.17,0.02h-0.629c-0.271,0-0.551,0-0.82-0.01c-2.5-0.02-4.939-0.16-7.279-0.4
	c-0.189-0.02-0.381-0.04-0.561-0.06c-0.52-0.06-1.041-0.12-1.551-0.19c-1.17-0.16-2.32-0.34-3.439-0.55
	c-0.039-0.01-0.068-0.01-0.1-0.02c-0.25-0.05-0.49-0.09-0.74-0.15c-1.449-0.28-2.85-0.61-4.18-0.98
	c-0.01-0.11-0.021-0.22-0.031-0.33c-0.02-0.3-0.039-0.6-0.039-0.91c-0.07-7.75,7.17-9.6,10.74-8.85c3.82,0.79,6.061,2.41,7.359,3.84
	c1.301,1.43,1.641,2.66,1.641,2.66h0.52c0,0,1.371-4.92,9-6.5C265.018,52.575,272.248,54.424,272.178,62.174z"/>
<linearGradient id="SVGID_21_" gradientUnits="userSpaceOnUse" x1="342.2158" y1="688.707" x2="342.5444" y2="662.7471" gradientTransform="matrix(1 0 0 1 -307.3203 -551.9199)">
	<stop  offset="0" style="stop-color:#020202"/>
	<stop  offset="0.0851" style="stop-color:#241111"/>
	<stop  offset="0.2206" style="stop-color:#3C1514"/>
	<stop  offset="0.3893" style="stop-color:#600E10"/>
	<stop  offset="0.5848" style="stop-color:#87171A"/>
	<stop  offset="0.7998" style="stop-color:#B72327"/>
	<stop  offset="1" style="stop-color:#EB272A"/>
</linearGradient>
<path fill="url(#SVGID_21_)" d="M70.152,122.581c0,2.92-1.86,5.64-5.08,7.96c-0.021,0.01-0.041,0.03-0.061,0.04
	c-1.99,1.43-4.5,2.7-7.41,3.77c-0.369,0.14-0.75,0.27-1.14,0.4c-0.55,0.19-1.12,0.37-1.7,0.54c-0.07,0.02-0.14,0.04-0.21,0.06
	c-0.021,0.01-0.05,0.02-0.079,0.02c-0.711,0.21-1.441,0.4-2.181,0.58c-0.47,0.12-0.95,0.23-1.44,0.34
	c-0.39,0.09-0.779,0.17-1.17,0.25c-0.109,0.02-0.22,0.04-0.33,0.06c-3.06,0.61-6.369,1.03-9.83,1.21
	c-0.199,0.01-0.39,0.02-0.59,0.03h-0.039c-0.181,0.01-0.361,0.02-0.551,0.03c-0.15,0.01-0.3,0.01-0.46,0.02
	c-0.33,0.02-0.67,0.03-1,0.03c-0.12,0-0.239,0.01-0.36,0c-0.01,0.01-0.029,0.01-0.039,0c-0.021,0.01-0.03,0.01-0.041,0l-0.02,0.01
	c-0.22,0-0.449,0.01-0.68,0c-0.1,0.01-0.211,0.01-0.32,0.01h-0.34c-0.391,0-0.78-0.01-1.17-0.03c-0.301,0-0.6-0.01-0.91-0.02
	c-2.15-0.06-4.25-0.17-6.27-0.4c-0.75-0.07-1.49-0.17-2.221-0.27c-3.1-0.42-6.01-1.03-8.66-1.8c-0.24-0.07-0.479-0.14-0.72-0.21
	c-0.3-0.09-0.6-0.18-0.9-0.28c-0.99-0.32-1.94-0.67-2.85-1.03c-0.05-0.02-0.09-0.03-0.13-0.06c-0.88-0.36-1.72-0.73-2.51-1.12
	C3.3,130.011,0,126.46,0,122.581c0-8.49,15.7-15.37,35.08-15.37C54.452,107.21,70.152,114.091,70.152,122.581z"/>
<linearGradient id="SVGID_22_" gradientUnits="userSpaceOnUse" x1="341.7471" y1="688.8809" x2="342.0248" y2="666.9437" gradientTransform="matrix(1 0 0 1 -307.3203 -551.9199)">
	<stop  offset="0" style="stop-color:#020202"/>
	<stop  offset="0.1326" style="stop-color:#201111"/>
	<stop  offset="0.322" style="stop-color:#371615"/>
	<stop  offset="0.5456" style="stop-color:#531514"/>
	<stop  offset="0.7933" style="stop-color:#761215"/>
	<stop  offset="1" style="stop-color:#951B1F"/>
</linearGradient>
<path fill="url(#SVGID_22_)" d="M68.342,125.121c0,1.94-1.199,3.78-3.27,5.42c-0.021,0.01-0.041,0.03-0.061,0.04
	c-1.85,1.46-4.4,2.76-7.41,3.84c-0.39,0.14-0.779,0.28-1.18,0.41c-0.52,0.18-1.061,0.34-1.609,0.5h-0.011
	c-0.09,0.03-0.18,0.05-0.271,0.08c-0.02,0.01-0.049,0.01-0.079,0.02c-0.69,0.2-1.4,0.39-2.13,0.56c-0.49,0.13-0.99,0.24-1.49,0.35
	c-0.37,0.08-0.74,0.16-1.109,0.23c-0.111,0.02-0.221,0.04-0.33,0.06c-3.131,0.61-6.471,1.03-9.871,1.2
	c-0.189,0.01-0.379,0.02-0.569,0.03h-0.03c-0.189,0.01-0.391,0.02-0.58,0.02c-0.15,0.01-0.311,0.01-0.46,0.01
	c-0.33,0.02-0.67,0.03-1,0.03c-0.12,0.01-0.239,0.01-0.36,0.01c-0.01,0.01-0.02,0.01-0.039,0c-0.021,0.01-0.041,0.01-0.061,0
	c-0.22,0.01-0.439,0.01-0.66,0.01h-0.68c-0.391,0-0.78-0.01-1.17-0.03c-0.301,0-0.6-0.01-0.91-0.02c-2.04-0.09-4.1-0.27-6.141-0.53
	c-0.67-0.08-1.34-0.17-2-0.27c-3.17-0.49-6.25-1.17-9.09-2.01c-0.149-0.04-0.299-0.09-0.45-0.13c-0.37-0.11-0.73-0.23-1.09-0.34
	c-1.01-0.33-1.99-0.67-2.92-1.03c-0.05-0.02-0.09-0.04-0.13-0.06c-0.92-0.36-1.79-0.74-2.61-1.14c-4.71-2.25-7.75-5.02-7.75-7.91
	c0-6.71,16.22-11.8,31.7-12.42c0.021-0.01,0.03-0.01,0.041-0.01c0.369-0.01,0.739-0.02,1.1-0.03c0.061,0,0.109-0.01,0.16,0
	c0.63-0.02,1.26-0.03,1.89-0.03C52.082,111.98,68.342,117.96,68.342,125.121z"/>
<radialGradient id="SVGID_23_" cx="275.9844" cy="-468.2715" r="22.1716" gradientTransform="matrix(-0.6304 0.7763 -0.7693 -0.6247 -152.4874 -380.7764)" gradientUnits="userSpaceOnUse">
	<stop  offset="0" style="stop-color:#FFFFFF"/>
	<stop  offset="0.4001" style="stop-color:#FBFEFF"/>
	<stop  offset="0.584" style="stop-color:#F2F4F6"/>
	<stop  offset="0.7236" style="stop-color:#E5ECEE"/>
	<stop  offset="0.841" style="stop-color:#D3E2E8"/>
	<stop  offset="0.9432" style="stop-color:#BFD6DF"/>
	<stop  offset="1" style="stop-color:#ADCBD7"/>
</radialGradient>
<path fill="url(#SVGID_23_)" d="M59.813,128.23l-3.351,6.52l-0.04,0.08c-0.52,0.18-1.061,0.34-1.609,0.5h-0.011
	c-0.09,0.03-0.18,0.05-0.271,0.08c-0.02,0.01-0.049,0.01-0.079,0.02c-0.69,0.2-1.4,0.39-2.13,0.56c-0.49,0.13-0.99,0.24-1.49,0.35
	c-0.37,0.08-0.74,0.16-1.109,0.23c-0.111,0.02-0.221,0.04-0.33,0.06c-3.131,0.61-6.471,1.03-9.871,1.2
	c-0.189,0.01-0.379,0.02-0.569,0.03h-0.03c-0.189,0.01-0.391,0.02-0.58,0.02c-0.15,0.01-0.311,0.01-0.46,0.01
	c-0.33,0.02-0.67,0.03-1,0.03c-0.12,0.01-0.239,0.01-0.36,0.01c-0.01,0.01-0.02,0.01-0.039,0c-0.021,0.01-0.041,0.01-0.061,0
	c-0.22,0.01-0.439,0.01-0.66,0.01h-0.68c-0.391,0-0.78-0.01-1.17-0.03c-0.141,0.3-0.189,0.48-0.189,0.48h-0.521
	c0,0-0.05-0.19-0.2-0.5c-2.15-0.06-4.25-0.17-6.27-0.4c-0.75-0.07-1.49-0.17-2.221-0.27c-3.1-0.42-6.01-1.03-8.66-1.8
	c-0.24-0.07-0.479-0.14-0.72-0.21c-0.3-0.09-0.6-0.18-0.9-0.28c-0.99-0.32-1.94-0.67-2.85-1.03c-0.05-0.02-0.09-0.03-0.13-0.06
	c-0.88-0.36-1.72-0.73-2.51-1.12l-0.17-0.34l-2.13-4.15l9.07-0.45l-0.5-9.07l8.471,3.28l3.24-8.49l6.399,6.44l6.409-6.44l3.23,8.49
	l8.471-3.28l-0.49,9.07L59.813,128.23z"/>
<radialGradient id="SVGID_24_" cx="268.8203" cy="-728.3384" r="5.0766" gradientTransform="matrix(-0.6304 0.7763 -0.5298 -0.4302 -189.811 -388.7834)" gradientUnits="userSpaceOnUse">
	<stop  offset="0" style="stop-color:#F6998E"/>
	<stop  offset="0.4481" style="stop-color:#F06C58"/>
	<stop  offset="0.7409" style="stop-color:#F04D3B"/>
	<stop  offset="1" style="stop-color:#EB272A"/>
</radialGradient>
<path fill="url(#SVGID_24_)" d="M31.563,135.73c0.789,0.87,1.229,1.67,1.439,2.16c-2.15-0.06-4.25-0.17-6.27-0.4
	c-0.75-0.07-1.49-0.17-2.221-0.27c-3.1-0.42-6.01-1.03-8.66-1.8c-0.24-0.07-0.479-0.14-0.72-0.21c0.06-0.09,0.13-0.18,0.19-0.26
	c2.38-2.89,6.459-3.57,8.88-3.06C28.021,132.682,30.262,134.301,31.563,135.73z"/>
<radialGradient id="SVGID_25_" cx="287.9463" cy="-728.3267" r="5.1908" gradientTransform="matrix(-0.6304 0.7763 -0.5298 -0.4302 -158.6216 -403.6115)" gradientUnits="userSpaceOnUse">
	<stop  offset="0" style="stop-color:#F6998E"/>
	<stop  offset="0.4481" style="stop-color:#F06C58"/>
	<stop  offset="0.7409" style="stop-color:#F04D3B"/>
	<stop  offset="1" style="stop-color:#EB272A"/>
</radialGradient>
<path fill="url(#SVGID_25_)" d="M52.322,135.992c-0.49,0.13-0.99,0.24-1.49,0.35c-0.37,0.08-0.74,0.16-1.109,0.23
	c-0.111,0.02-0.221,0.04-0.33,0.06c-3.131,0.61-6.471,1.03-9.871,1.2c-0.189,0.01-0.379,0.02-0.569,0.03h-0.03
	c-0.189,0.01-0.391,0.02-0.58,0.02c-0.15,0.01-0.311,0.01-0.46,0.01c-0.33,0.02-0.67,0.03-1,0.03c-0.12,0.01-0.239,0.01-0.36,0.01
	c-0.01,0.01-0.02,0.01-0.039,0c-0.021,0.01-0.041,0.01-0.061,0c-0.22,0.01-0.439,0.01-0.66,0.01h-0.68c-0.391,0-0.78-0.01-1.17-0.03
	c0.561-1.28,2.64-4.74,8.811-6.02c2.67-0.56,7.389,0.33,9.569,4.06C52.302,135.96,52.313,135.972,52.322,135.992z"/>
<linearGradient id="SVGID_26_" gradientUnits="userSpaceOnUse" x1="414.3857" y1="688.8779" x2="414.7144" y2="662.9144" gradientTransform="matrix(1 0 0 1 -307.3203 -551.9199)">
	<stop  offset="0" style="stop-color:#020202"/>
	<stop  offset="0.0851" style="stop-color:#241111"/>
	<stop  offset="0.2206" style="stop-color:#3C1514"/>
	<stop  offset="0.3893" style="stop-color:#600E10"/>
	<stop  offset="0.5848" style="stop-color:#87171A"/>
	<stop  offset="0.7998" style="stop-color:#B72327"/>
	<stop  offset="1" style="stop-color:#EB272A"/>
</linearGradient>
<path fill="url(#SVGID_26_)" d="M142.321,122.747c0,2.92-1.86,5.64-5.08,7.96c-0.021,0.01-0.041,0.03-0.062,0.04
	c-1.85,1.33-4.159,2.53-6.829,3.54l-0.3,0.12c-0.03,0.02-0.061,0.03-0.102,0.04c-0.059,0.02-0.119,0.05-0.18,0.07
	c-1.199,0.44-2.47,0.85-3.81,1.22c-0.62,0.17-1.25,0.33-1.899,0.49c-1.32,0.32-2.701,0.6-4.131,0.84c-1.1,0.19-2.23,0.35-3.39,0.49
	c-0.8,0.1-1.61,0.18-2.44,0.25c-0.539,0.05-1.09,0.09-1.64,0.12c-0.94,0.07-1.91,0.12-2.88,0.14v0.01c-0.18,0-0.35,0.01-0.53,0.01
	c-0.39,0.02-0.78,0.02-1.17,0.02h-0.63c-0.41,0-0.83,0-1.24-0.01c-0.48-0.01-0.949-0.02-1.43-0.03c-0.41-0.02-0.82-0.03-1.23-0.06
	c-1.77-0.08-3.5-0.22-5.18-0.43c-3.37-0.38-6.54-0.99-9.42-1.78c-0.811-0.22-1.59-0.45-2.35-0.7c-0.771-0.25-1.51-0.51-2.23-0.79
	c-0.02-0.01-0.04-0.01-0.061-0.02c-0.02,0-0.029-0.01-0.049-0.02c-7.291-2.81-11.891-6.93-11.891-11.52
	c0-8.49,15.7-15.37,35.08-15.37C126.622,107.377,142.321,114.257,142.321,122.747z"/>
<linearGradient id="SVGID_27_" gradientUnits="userSpaceOnUse" x1="413.918" y1="689.043" x2="414.1956" y2="667.1082" gradientTransform="matrix(1 0 0 1 -307.3203 -551.9199)">
	<stop  offset="0" style="stop-color:#020202"/>
	<stop  offset="0.1326" style="stop-color:#201111"/>
	<stop  offset="0.322" style="stop-color:#371615"/>
	<stop  offset="0.5456" style="stop-color:#531514"/>
	<stop  offset="0.7933" style="stop-color:#761215"/>
	<stop  offset="1" style="stop-color:#951B1F"/>
</linearGradient>
<path fill="url(#SVGID_27_)" d="M140.512,125.287c0,1.94-1.199,3.78-3.271,5.42c-0.021,0.01-0.041,0.03-0.062,0.04
	c-1.688,1.34-3.969,2.54-6.649,3.55c-0.159,0.07-0.33,0.13-0.489,0.19c-0.029,0.01-0.06,0.02-0.091,0.03
	c-0.059,0.03-0.118,0.05-0.18,0.07c-1.199,0.44-2.47,0.84-3.81,1.19c-0.61,0.18-1.25,0.34-1.89,0.49c-1.34,0.32-2.73,0.6-4.15,0.84
	c-1.109,0.19-2.24,0.35-3.391,0.48c-0.84,0.1-1.689,0.19-2.539,0.25c-0.551,0.05-1.09,0.09-1.641,0.12
	c-0.92,0.06-1.84,0.1-2.77,0.12c-0.18,0-0.35,0.01-0.53,0.01c-0.39,0.02-0.78,0.02-1.17,0.02h-0.29c-0.52,0-1.05-0.01-1.58-0.03
	c-0.47-0.01-0.939-0.03-1.41-0.06c-0.43-0.01-0.85-0.04-1.27-0.07c-1.75-0.11-3.51-0.3-5.24-0.54c-3.25-0.45-6.43-1.11-9.359-1.93
	c-0.801-0.22-1.57-0.45-2.33-0.7c-0.541-0.17-1.061-0.35-1.57-0.53c-0.23-0.08-0.46-0.17-0.689-0.25
	c-0.041-0.02-0.07-0.03-0.111-0.04c-6.539-2.47-11.039-5.79-11.039-9.32c0-7.17,18.529-12.49,34.89-12.49
	C124.251,112.147,140.512,118.127,140.512,125.287z"/>
<radialGradient id="SVGID_28_" cx="348.7441" cy="-465.2954" r="18.7806" gradientTransform="matrix(-0.6304 0.7763 -0.7693 -0.6247 -30.2217 -432.4444)" gradientUnits="userSpaceOnUse">
	<stop  offset="0" style="stop-color:#FFFFFF"/>
	<stop  offset="0.4001" style="stop-color:#FBFEFF"/>
	<stop  offset="0.584" style="stop-color:#F2F4F6"/>
	<stop  offset="0.7236" style="stop-color:#E5ECEE"/>
	<stop  offset="0.841" style="stop-color:#D3E2E8"/>
	<stop  offset="0.9432" style="stop-color:#BFD6DF"/>
	<stop  offset="1" style="stop-color:#ADCBD7"/>
</radialGradient>
<path fill="url(#SVGID_28_)" d="M130.53,134.297c-0.159,0.07-0.33,0.13-0.489,0.19c-0.029,0.01-0.06,0.02-0.091,0.03
	c-0.059,0.03-0.118,0.05-0.18,0.07c-1.199,0.44-2.47,0.84-3.81,1.19c-0.61,0.18-1.25,0.34-1.89,0.49c-1.34,0.32-2.73,0.6-4.15,0.84
	c-1.109,0.19-2.24,0.35-3.391,0.48c-0.84,0.1-1.689,0.19-2.539,0.25c-0.551,0.05-1.09,0.09-1.641,0.12
	c-0.92,0.06-1.84,0.1-2.77,0.12c-0.18,0-0.35,0.01-0.53,0.01c-0.39,0.02-0.78,0.02-1.17,0.02h-0.63c-0.41,0-0.83,0-1.24-0.01
	c-0.48-0.01-0.949-0.02-1.43-0.03c-0.41-0.02-0.82-0.03-1.23-0.06c-1.77-0.08-3.5-0.22-5.18-0.43c-3.37-0.38-6.54-0.99-9.42-1.78
	c-0.811-0.22-1.59-0.45-2.35-0.7c-0.771-0.25-1.51-0.51-2.23-0.79c-0.02-0.01-0.04-0.01-0.061-0.02l0.721-0.04l4.73-0.24l-0.5-9.07
	l8.469,3.28l3.23-8.49l6.41,6.44l6.41-6.44l3.23,8.49l8.469-3.28l-0.5,9.07l5.57,0.28L130.53,134.297z"/>
<linearGradient id="SVGID_29_" gradientUnits="userSpaceOnUse" x1="486.2578" y1="689.1465" x2="486.5864" y2="663.1903" gradientTransform="matrix(1 0 0 1 -307.3203 -551.9199)">
	<stop  offset="0" style="stop-color:#020202"/>
	<stop  offset="0.0851" style="stop-color:#241111"/>
	<stop  offset="0.2206" style="stop-color:#3C1514"/>
	<stop  offset="0.3893" style="stop-color:#600E10"/>
	<stop  offset="0.5848" style="stop-color:#87171A"/>
	<stop  offset="0.7998" style="stop-color:#B72327"/>
	<stop  offset="1" style="stop-color:#EB272A"/>
</linearGradient>
<path fill="url(#SVGID_29_)" d="M214.193,123.015c0,2.87-1.813,5.57-4.949,7.86c-0.041,0.03-0.08,0.07-0.131,0.1
	c-2.15,1.56-4.91,2.93-8.141,4.05c-1.561,0.55-3.23,1.03-4.988,1.46c-0.91,0.21-1.842,0.42-2.801,0.6
	c-0.422,0.08-0.842,0.16-1.271,0.23c-1.121,0.19-2.271,0.36-3.451,0.5c-0.1,0.02-0.199,0.03-0.299,0.03
	c-2.111,0.26-4.291,0.42-6.531,0.49c-0.229,0.01-0.469,0.02-0.709,0.02c-0.391,0.01-0.791,0.01-1.188,0.01
	c-0.092,0.01-0.184,0.01-0.271,0.01h-0.34c-1.201,0-2.391-0.02-3.561-0.09c-0.119,0-0.23,0-0.342-0.01h-0.068
	c-2.432-0.12-4.789-0.35-7.039-0.68c-0.063,0-0.111-0.01-0.17-0.02c-1.813-0.26-3.563-0.59-5.223-0.98
	c-0.93-0.22-1.85-0.45-2.729-0.71c-0.432-0.11-0.852-0.24-1.271-0.37c-8.891-2.79-14.68-7.35-14.68-12.5
	c0-8.48,15.7-15.36,35.081-15.36C198.494,107.654,214.193,114.535,214.193,123.015z"/>
<linearGradient id="SVGID_30_" gradientUnits="userSpaceOnUse" x1="485.792" y1="689.3076" x2="486.0697" y2="667.3753" gradientTransform="matrix(1 0 0 1 -307.3203 -551.9199)">
	<stop  offset="0" style="stop-color:#020202"/>
	<stop  offset="0.1326" style="stop-color:#201111"/>
	<stop  offset="0.322" style="stop-color:#371615"/>
	<stop  offset="0.5456" style="stop-color:#531514"/>
	<stop  offset="0.7933" style="stop-color:#761215"/>
	<stop  offset="1" style="stop-color:#951B1F"/>
</linearGradient>
<path fill="url(#SVGID_30_)" d="M212.383,125.564c0,1.9-1.148,3.7-3.139,5.31c-0.041,0.03-0.08,0.07-0.131,0.1
	c-1.99,1.57-4.779,2.97-8.109,4.11c-1.57,0.54-3.25,1.03-5.02,1.45c-0.881,0.21-1.791,0.4-2.711,0.58
	c-0.449,0.08-0.91,0.17-1.369,0.24c-1.104,0.19-2.221,0.35-3.361,0.48c-0.1,0.02-0.199,0.03-0.299,0.04
	c-2.16,0.25-4.381,0.41-6.611,0.46c-0.229,0.01-0.469,0.02-0.709,0.02c-0.381,0.02-0.77,0.02-1.16,0.02h-0.301
	c-1.279-0.01-2.559-0.05-3.859-0.14c-0.129,0-0.27-0.01-0.398-0.02c-0.02,0-0.051,0-0.07-0.01c-2.219-0.15-4.438-0.4-6.607-0.74
	c-0.051-0.01-0.109-0.02-0.16-0.03c-1.91-0.31-3.779-0.69-5.59-1.13c-0.949-0.23-1.893-0.48-2.801-0.74
	c-0.381-0.11-0.762-0.23-1.131-0.34c-8.08-2.51-13.979-6.28-13.979-10.32c0-7.17,18.53-12.49,34.899-12.49
	C196.123,112.414,212.383,118.394,212.383,125.564z"/>
<radialGradient id="SVGID_31_" cx="421.2969" cy="-461.9844" r="14.0643" gradientTransform="matrix(-0.6304 0.7763 -0.7693 -0.6247 88.6181 -482.004)" gradientUnits="userSpaceOnUse">
	<stop  offset="0" style="stop-color:#FFFFFF"/>
	<stop  offset="0.4001" style="stop-color:#FBFEFF"/>
	<stop  offset="0.584" style="stop-color:#F2F4F6"/>
	<stop  offset="0.7236" style="stop-color:#E5ECEE"/>
	<stop  offset="0.841" style="stop-color:#D3E2E8"/>
	<stop  offset="0.9432" style="stop-color:#BFD6DF"/>
	<stop  offset="1" style="stop-color:#ADCBD7"/>
</radialGradient>
<path fill="url(#SVGID_31_)" d="M196.113,134.104l-0.129,2.38v0.05c-0.881,0.21-1.791,0.4-2.711,0.58
	c-0.449,0.08-0.91,0.17-1.369,0.24c-1.104,0.19-2.221,0.35-3.361,0.48c-0.1,0.02-0.199,0.03-0.299,0.04
	c-2.16,0.25-4.381,0.41-6.611,0.46c-0.229,0.01-0.469,0.02-0.709,0.02c-0.381,0.02-0.77,0.02-1.16,0.02h-0.641
	c-1.199,0-2.389-0.02-3.561-0.09c-0.119,0-0.23,0-0.34-0.01h-0.068c-2.432-0.12-4.791-0.35-7.041-0.68
	c-0.063,0-0.109-0.01-0.17-0.02c-1.813-0.26-3.563-0.59-5.221-0.98c-0.932-0.22-1.852-0.45-2.73-0.71l-0.02-0.32l-0.08-1.46
	l8.471,3.28l3.229-8.49l6.41,6.44l6.41-6.44l3.229,8.49L196.113,134.104z"/>
<linearGradient id="SVGID_32_" gradientUnits="userSpaceOnUse" x1="414.4248" y1="761.1484" x2="414.7533" y2="735.1923" gradientTransform="matrix(1 0 0 1 -307.3203 -551.9199)">
	<stop  offset="0" style="stop-color:#020202"/>
	<stop  offset="0.0851" style="stop-color:#241111"/>
	<stop  offset="0.2206" style="stop-color:#3C1514"/>
	<stop  offset="0.3893" style="stop-color:#600E10"/>
	<stop  offset="0.5848" style="stop-color:#87171A"/>
	<stop  offset="0.7998" style="stop-color:#B72327"/>
	<stop  offset="1" style="stop-color:#EB272A"/>
</linearGradient>
<path fill="url(#SVGID_32_)" d="M142.36,195.016c0,2.869-1.812,5.57-4.948,7.859c-0.041,0.031-0.08,0.07-0.132,0.102
	c-2.149,1.561-4.909,2.93-8.141,4.049c-1.56,0.551-3.229,1.031-4.988,1.461c-0.91,0.209-1.842,0.42-2.801,0.6
	c-0.421,0.08-0.841,0.16-1.271,0.23c-1.12,0.189-2.271,0.359-3.45,0.5c-0.1,0.02-0.2,0.029-0.3,0.029
	c-2.11,0.26-4.29,0.42-6.53,0.49c-0.229,0.01-0.47,0.02-0.71,0.02c-0.39,0.01-0.79,0.01-1.188,0.01
	c-0.092,0.012-0.182,0.012-0.271,0.012h-0.34c-1.2,0-2.391-0.021-3.561-0.09c-0.119,0-0.229,0-0.341-0.012h-0.069
	c-2.431-0.119-4.789-0.35-7.039-0.68c-0.062,0-0.11-0.01-0.17-0.02c-1.812-0.262-3.562-0.59-5.222-0.98
	c-0.93-0.221-1.85-0.449-2.729-0.711c-0.43-0.109-0.85-0.238-1.271-0.369c-8.89-2.789-14.68-7.35-14.68-12.5
	c0-8.479,15.7-15.359,35.08-15.359C126.661,179.656,142.36,186.537,142.36,195.016z"/>
<linearGradient id="SVGID_33_" gradientUnits="userSpaceOnUse" x1="413.959" y1="761.3115" x2="414.2366" y2="739.3765" gradientTransform="matrix(1 0 0 1 -307.3203 -551.9199)">
	<stop  offset="0" style="stop-color:#020202"/>
	<stop  offset="0.1326" style="stop-color:#201111"/>
	<stop  offset="0.322" style="stop-color:#371615"/>
	<stop  offset="0.5456" style="stop-color:#531514"/>
	<stop  offset="0.7933" style="stop-color:#761215"/>
	<stop  offset="1" style="stop-color:#951B1F"/>
</linearGradient>
<path fill="url(#SVGID_33_)" d="M140.55,197.566c0,1.898-1.148,3.699-3.139,5.311c-0.041,0.029-0.08,0.068-0.132,0.102
	c-1.989,1.568-4.778,2.971-8.108,4.107c-1.57,0.541-3.25,1.029-5.021,1.451c-0.881,0.209-1.791,0.398-2.711,0.578
	c-0.449,0.08-0.91,0.172-1.369,0.24c-1.102,0.189-2.221,0.352-3.36,0.48c-0.101,0.02-0.2,0.029-0.3,0.039
	c-2.16,0.25-4.381,0.41-6.61,0.461c-0.229,0.01-0.47,0.02-0.71,0.02c-0.38,0.021-0.77,0.021-1.16,0.021h-0.3
	c-1.28-0.012-2.56-0.051-3.86-0.143c-0.129,0-0.27-0.01-0.398-0.02c-0.021,0-0.051,0-0.07-0.012
	c-2.22-0.148-4.439-0.398-6.609-0.738c-0.051-0.012-0.109-0.021-0.16-0.031c-1.909-0.311-3.779-0.688-5.59-1.129
	c-0.949-0.229-1.891-0.479-2.801-0.74c-0.38-0.107-0.76-0.229-1.13-0.34c-8.08-2.51-13.979-6.279-13.979-10.318
	c0-7.172,18.529-12.49,34.899-12.49C124.291,184.416,140.55,190.396,140.55,197.566z"/>
<radialGradient id="SVGID_34_" cx="347.6396" cy="-386.8418" r="14.0645" gradientTransform="matrix(-0.6304 0.7763 -0.7693 -0.6247 28.1611 -305.8839)" gradientUnits="userSpaceOnUse">
	<stop  offset="0" style="stop-color:#FFFFFF"/>
	<stop  offset="0.4001" style="stop-color:#FBFEFF"/>
	<stop  offset="0.584" style="stop-color:#F2F4F6"/>
	<stop  offset="0.7236" style="stop-color:#E5ECEE"/>
	<stop  offset="0.841" style="stop-color:#D3E2E8"/>
	<stop  offset="0.9432" style="stop-color:#BFD6DF"/>
	<stop  offset="1" style="stop-color:#ADCBD7"/>
</radialGradient>
<path fill="url(#SVGID_34_)" d="M124.28,206.105l-0.129,2.381v0.051c-0.881,0.209-1.791,0.398-2.711,0.578
	c-0.449,0.08-0.91,0.172-1.369,0.24c-1.102,0.189-2.221,0.352-3.36,0.48c-0.101,0.02-0.2,0.029-0.3,0.039
	c-2.16,0.25-4.381,0.41-6.61,0.461c-0.229,0.01-0.47,0.02-0.71,0.02c-0.38,0.021-0.77,0.021-1.16,0.021h-0.64
	c-1.2,0-2.39-0.021-3.562-0.09c-0.119,0-0.229,0-0.34-0.014h-0.068c-2.432-0.117-4.791-0.35-7.041-0.68
	c-0.061,0-0.109-0.01-0.17-0.02c-1.811-0.262-3.561-0.592-5.221-0.98c-0.93-0.221-1.85-0.449-2.729-0.709l-0.021-0.32l-0.08-1.461
	l8.471,3.281l3.229-8.49l6.41,6.439l6.41-6.439l3.229,8.49L124.28,206.105z"/>
<linearGradient id="SVGID_35_" gradientUnits="userSpaceOnUse" x1="486.2168" y1="761.0488" x2="486.5455" y2="735.0843" gradientTransform="matrix(1 0 0 1 -307.3203 -551.9199)">
	<stop  offset="0" style="stop-color:#020202"/>
	<stop  offset="0.0851" style="stop-color:#241111"/>
	<stop  offset="0.2206" style="stop-color:#3C1514"/>
	<stop  offset="0.3893" style="stop-color:#600E10"/>
	<stop  offset="0.5848" style="stop-color:#87171A"/>
	<stop  offset="0.7998" style="stop-color:#B72327"/>
	<stop  offset="1" style="stop-color:#EB272A"/>
</linearGradient>
<path fill="url(#SVGID_35_)" d="M214.154,194.917c0,2.92-1.861,5.641-5.08,7.959c-0.021,0.01-0.041,0.031-0.063,0.041
	c-1.85,1.33-4.158,2.529-6.828,3.539l-0.303,0.121c-0.027,0.02-0.061,0.027-0.102,0.039c-0.059,0.02-0.117,0.051-0.18,0.068
	c-1.199,0.439-2.471,0.852-3.811,1.223c-0.619,0.17-1.25,0.328-1.898,0.488c-1.32,0.318-2.701,0.602-4.131,0.84
	c-1.1,0.189-2.23,0.352-3.391,0.49c-0.799,0.102-1.609,0.182-2.439,0.25c-0.539,0.049-1.09,0.09-1.641,0.119
	c-0.939,0.068-1.91,0.119-2.879,0.143v0.01c-0.18,0-0.35,0.01-0.531,0.01c-0.389,0.02-0.779,0.02-1.17,0.02h-0.629
	c-0.41,0-0.83,0-1.24-0.01c-0.48-0.01-0.949-0.02-1.43-0.029c-0.41-0.021-0.82-0.029-1.23-0.061c-1.77-0.08-3.5-0.221-5.18-0.43
	c-3.371-0.381-6.541-0.99-9.42-1.781c-0.811-0.219-1.59-0.449-2.35-0.699c-0.771-0.25-1.512-0.51-2.23-0.789
	c-0.02-0.012-0.041-0.012-0.061-0.021c-0.021,0-0.029-0.01-0.049-0.021c-7.291-2.809-11.893-6.93-11.893-11.52
	c0-8.49,15.7-15.369,35.081-15.369C198.453,179.546,214.154,186.427,214.154,194.917z"/>
<linearGradient id="SVGID_36_" gradientUnits="userSpaceOnUse" x1="485.751" y1="761.2119" x2="486.0287" y2="739.2789" gradientTransform="matrix(1 0 0 1 -307.3203 -551.9199)">
	<stop  offset="0" style="stop-color:#020202"/>
	<stop  offset="0.1326" style="stop-color:#201111"/>
	<stop  offset="0.322" style="stop-color:#371615"/>
	<stop  offset="0.5456" style="stop-color:#531514"/>
	<stop  offset="0.7933" style="stop-color:#761215"/>
	<stop  offset="1" style="stop-color:#951B1F"/>
</linearGradient>
<path fill="url(#SVGID_36_)" d="M212.344,197.456c0,1.939-1.199,3.781-3.27,5.42c-0.021,0.01-0.041,0.031-0.063,0.041
	c-1.688,1.34-3.971,2.539-6.648,3.549c-0.16,0.07-0.33,0.131-0.49,0.191c-0.029,0.01-0.059,0.02-0.09,0.027
	c-0.061,0.029-0.119,0.053-0.18,0.07c-1.199,0.438-2.473,0.84-3.813,1.188c-0.607,0.182-1.25,0.342-1.891,0.49
	c-1.34,0.32-2.729,0.602-4.148,0.84c-1.107,0.189-2.24,0.352-3.393,0.48c-0.84,0.1-1.688,0.188-2.539,0.25
	c-0.551,0.051-1.09,0.09-1.641,0.119c-0.92,0.061-1.84,0.102-2.77,0.121c-0.18,0-0.35,0.01-0.531,0.01
	c-0.389,0.02-0.779,0.02-1.17,0.02h-0.289c-0.52,0-1.051-0.01-1.58-0.029c-0.471-0.01-0.939-0.029-1.41-0.061
	c-0.43-0.01-0.85-0.039-1.27-0.07c-1.75-0.109-3.51-0.299-5.24-0.539c-3.25-0.449-6.43-1.109-9.359-1.93
	c-0.801-0.221-1.57-0.451-2.33-0.701c-0.541-0.17-1.061-0.35-1.568-0.529c-0.229-0.08-0.461-0.17-0.689-0.25
	c-0.039-0.02-0.068-0.029-0.109-0.039c-6.539-2.471-11.04-5.791-11.04-9.318c0-7.172,18.53-12.49,34.889-12.49
	C196.084,184.317,212.344,190.296,212.344,197.456z"/>
<radialGradient id="SVGID_37_" cx="421.8047" cy="-392.2031" r="18.7812" gradientTransform="matrix(-0.6304 0.7763 -0.7693 -0.6247 143.8955 -371.338)" gradientUnits="userSpaceOnUse">
	<stop  offset="0" style="stop-color:#FFFFFF"/>
	<stop  offset="0.4001" style="stop-color:#FBFEFF"/>
	<stop  offset="0.584" style="stop-color:#F2F4F6"/>
	<stop  offset="0.7236" style="stop-color:#E5ECEE"/>
	<stop  offset="0.841" style="stop-color:#D3E2E8"/>
	<stop  offset="0.9432" style="stop-color:#BFD6DF"/>
	<stop  offset="1" style="stop-color:#ADCBD7"/>
</radialGradient>
<path fill="url(#SVGID_37_)" d="M202.363,206.466c-0.16,0.07-0.33,0.131-0.49,0.191c-0.029,0.01-0.059,0.02-0.09,0.027
	c-0.061,0.029-0.119,0.053-0.18,0.07c-1.199,0.438-2.473,0.84-3.813,1.188c-0.607,0.182-1.25,0.342-1.891,0.49
	c-1.34,0.32-2.729,0.602-4.148,0.84c-1.107,0.189-2.24,0.352-3.393,0.48c-0.84,0.1-1.688,0.188-2.539,0.25
	c-0.551,0.051-1.09,0.09-1.641,0.119c-0.92,0.061-1.84,0.102-2.77,0.121c-0.18,0-0.35,0.01-0.531,0.01
	c-0.389,0.02-0.779,0.02-1.17,0.02h-0.629c-0.41,0-0.83,0-1.24-0.01c-0.48-0.01-0.949-0.02-1.43-0.029
	c-0.41-0.021-0.82-0.029-1.23-0.061c-1.77-0.08-3.5-0.221-5.18-0.43c-3.371-0.381-6.541-0.99-9.42-1.781
	c-0.811-0.219-1.59-0.449-2.35-0.699c-0.771-0.25-1.512-0.51-2.23-0.789c-0.02-0.012-0.041-0.012-0.061-0.021l0.721-0.039l4.73-0.24
	l-0.5-9.07l8.469,3.281l3.229-8.49l6.41,6.439l6.408-6.439l3.23,8.49l8.469-3.281l-0.5,9.07l5.57,0.279L202.363,206.466z"/>
<linearGradient id="SVGID_38_" gradientUnits="userSpaceOnUse" x1="558.3311" y1="761.04" x2="558.6597" y2="735.0814" gradientTransform="matrix(1 0 0 1 -307.3203 -551.9199)">
	<stop  offset="0" style="stop-color:#020202"/>
	<stop  offset="0.0851" style="stop-color:#241111"/>
	<stop  offset="0.2206" style="stop-color:#3C1514"/>
	<stop  offset="0.3893" style="stop-color:#600E10"/>
	<stop  offset="0.5848" style="stop-color:#87171A"/>
	<stop  offset="0.7998" style="stop-color:#B72327"/>
	<stop  offset="1" style="stop-color:#EB272A"/>
</linearGradient>
<path fill="url(#SVGID_38_)" d="M286.269,194.916c0,2.92-1.861,5.641-5.08,7.959c-0.021,0.01-0.041,0.031-0.063,0.041
	c-1.99,1.43-4.5,2.699-7.41,3.77c-0.367,0.141-0.75,0.271-1.139,0.4c-0.551,0.188-1.121,0.369-1.701,0.539
	c-0.07,0.02-0.139,0.041-0.209,0.061c-0.021,0.01-0.051,0.021-0.08,0.021c-0.711,0.209-1.439,0.396-2.18,0.58
	c-0.471,0.119-0.951,0.229-1.441,0.34c-0.389,0.09-0.777,0.17-1.17,0.25c-0.107,0.02-0.219,0.039-0.33,0.059
	c-3.059,0.611-6.369,1.031-9.83,1.211c-0.197,0.012-0.389,0.021-0.59,0.029h-0.039c-0.18,0.01-0.359,0.021-0.551,0.031
	c-0.148,0.01-0.299,0.01-0.459,0.02c-0.33,0.021-0.67,0.029-1,0.029c-0.121,0-0.24,0.01-0.361,0c-0.01,0.01-0.027,0.01-0.039,0
	c-0.02,0.01-0.029,0.01-0.041,0l-0.02,0.01c-0.219,0-0.449,0.01-0.68,0c-0.102,0.01-0.211,0.01-0.32,0.01h-0.34
	c-0.393,0-0.779-0.01-1.17-0.027c-0.301,0-0.602-0.01-0.91-0.021c-2.15-0.061-4.25-0.17-6.271-0.398
	c-0.75-0.07-1.488-0.17-2.221-0.271c-3.1-0.42-6.01-1.031-8.66-1.801c-0.238-0.07-0.479-0.141-0.719-0.209
	c-0.301-0.09-0.602-0.182-0.9-0.281c-0.988-0.318-1.938-0.67-2.85-1.027c-0.051-0.021-0.092-0.031-0.131-0.063
	c-0.881-0.359-1.721-0.729-2.51-1.119c-5.439-2.711-8.74-6.26-8.74-10.141c0-8.49,15.699-15.369,35.08-15.369
	C270.567,179.545,286.269,186.426,286.269,194.916z"/>
<linearGradient id="SVGID_39_" gradientUnits="userSpaceOnUse" x1="557.8633" y1="761.2129" x2="558.141" y2="739.2766" gradientTransform="matrix(1 0 0 1 -307.3203 -551.9199)">
	<stop  offset="0" style="stop-color:#020202"/>
	<stop  offset="0.1326" style="stop-color:#201111"/>
	<stop  offset="0.322" style="stop-color:#371615"/>
	<stop  offset="0.5456" style="stop-color:#531514"/>
	<stop  offset="0.7933" style="stop-color:#761215"/>
	<stop  offset="1" style="stop-color:#951B1F"/>
</linearGradient>
<path fill="url(#SVGID_39_)" d="M284.456,197.455c0,1.939-1.199,3.779-3.27,5.42c-0.021,0.01-0.041,0.031-0.063,0.041
	c-1.85,1.459-4.398,2.76-7.41,3.84c-0.391,0.141-0.777,0.279-1.18,0.41c-0.52,0.18-1.061,0.34-1.609,0.5h-0.01
	c-0.092,0.029-0.182,0.049-0.271,0.08c-0.021,0.01-0.051,0.01-0.08,0.02c-0.689,0.199-1.398,0.391-2.129,0.561
	c-0.49,0.131-0.99,0.24-1.49,0.352c-0.371,0.08-0.74,0.158-1.109,0.229c-0.109,0.021-0.221,0.039-0.33,0.061
	c-3.131,0.609-6.471,1.029-9.871,1.199c-0.188,0.012-0.379,0.021-0.566,0.029h-0.031c-0.188,0.012-0.391,0.021-0.58,0.021
	c-0.148,0.01-0.311,0.01-0.459,0.01c-0.33,0.021-0.67,0.029-1,0.029c-0.121,0.01-0.24,0.01-0.359,0.01
	c-0.012,0.01-0.021,0.01-0.039,0c-0.021,0.01-0.041,0.01-0.063,0c-0.219,0.01-0.438,0.01-0.66,0.01h-0.68
	c-0.391,0-0.779-0.01-1.17-0.027c-0.301,0-0.602-0.01-0.91-0.021c-2.039-0.09-4.1-0.27-6.141-0.529c-0.67-0.08-1.342-0.172-2-0.271
	c-3.17-0.49-6.25-1.17-9.092-2.01c-0.146-0.039-0.299-0.09-0.447-0.129c-0.369-0.111-0.73-0.23-1.09-0.342
	c-1.012-0.33-1.99-0.672-2.922-1.029c-0.051-0.021-0.09-0.039-0.131-0.063c-0.92-0.357-1.789-0.738-2.607-1.139
	c-4.711-2.25-7.75-5.021-7.75-7.91c0-6.711,16.221-11.801,31.697-12.42c0.021-0.012,0.031-0.012,0.041-0.012
	c0.369-0.01,0.74-0.021,1.102-0.029c0.061,0,0.107-0.01,0.16,0c0.631-0.02,1.26-0.029,1.891-0.029
	C268.196,184.316,284.456,190.295,284.456,197.455z"/>
<radialGradient id="SVGID_40_" cx="490.2969" cy="-398.4795" r="22.1712" gradientTransform="matrix(-0.6304 0.7763 -0.7693 -0.6247 252.4111 -431.2178)" gradientUnits="userSpaceOnUse">
	<stop  offset="0" style="stop-color:#FFFFFF"/>
	<stop  offset="0.4001" style="stop-color:#FBFEFF"/>
	<stop  offset="0.584" style="stop-color:#F2F4F6"/>
	<stop  offset="0.7236" style="stop-color:#E5ECEE"/>
	<stop  offset="0.841" style="stop-color:#D3E2E8"/>
	<stop  offset="0.9432" style="stop-color:#BFD6DF"/>
	<stop  offset="1" style="stop-color:#ADCBD7"/>
</radialGradient>
<path fill="url(#SVGID_40_)" d="M275.927,200.566l-3.35,6.52l-0.041,0.08c-0.52,0.182-1.061,0.342-1.609,0.5h-0.01
	c-0.09,0.029-0.18,0.051-0.271,0.08c-0.02,0.012-0.049,0.012-0.078,0.021c-0.689,0.199-1.4,0.393-2.131,0.563
	c-0.49,0.129-0.99,0.238-1.49,0.35c-0.369,0.08-0.738,0.16-1.107,0.23c-0.109,0.02-0.223,0.039-0.33,0.059
	c-3.131,0.611-6.471,1.031-9.871,1.201c-0.188,0.01-0.379,0.02-0.568,0.029h-0.029c-0.189,0.01-0.391,0.02-0.58,0.02
	c-0.15,0.012-0.311,0.012-0.461,0.012c-0.33,0.02-0.67,0.029-1,0.029c-0.119,0.01-0.238,0.01-0.359,0.01
	c-0.01,0.01-0.02,0.01-0.039,0c-0.021,0.01-0.041,0.01-0.061,0c-0.221,0.01-0.439,0.01-0.66,0.01h-0.68
	c-0.393,0-0.781-0.01-1.17-0.029c-0.143,0.301-0.189,0.48-0.189,0.48h-0.521c0,0-0.049-0.189-0.199-0.5
	c-2.15-0.061-4.25-0.17-6.27-0.4c-0.75-0.068-1.49-0.17-2.223-0.27c-3.1-0.422-6.01-1.031-8.66-1.801
	c-0.238-0.07-0.479-0.141-0.719-0.211c-0.301-0.09-0.602-0.18-0.898-0.279c-0.99-0.32-1.941-0.67-2.852-1.029
	c-0.051-0.021-0.09-0.029-0.131-0.061c-0.879-0.359-1.721-0.73-2.51-1.119l-0.17-0.342l-2.131-4.148l9.068-0.451l-0.5-9.068
	l8.473,3.279l3.238-8.49l6.398,6.439l6.41-6.439l3.229,8.49l8.471-3.279l-0.488,9.068L275.927,200.566z"/>
<radialGradient id="SVGID_41_" cx="483.1348" cy="-659.3208" r="5.0765" gradientTransform="matrix(-0.6304 0.7763 -0.5298 -0.4302 197.9644 -453.131)" gradientUnits="userSpaceOnUse">
	<stop  offset="0" style="stop-color:#F6998E"/>
	<stop  offset="0.4481" style="stop-color:#F06C58"/>
	<stop  offset="0.7409" style="stop-color:#F04D3B"/>
	<stop  offset="1" style="stop-color:#EB272A"/>
</radialGradient>
<path fill="url(#SVGID_41_)" d="M247.677,208.066c0.789,0.869,1.23,1.67,1.439,2.16c-2.15-0.061-4.25-0.17-6.271-0.4
	c-0.75-0.068-1.488-0.17-2.221-0.27c-3.1-0.422-6.01-1.031-8.66-1.801c-0.238-0.07-0.479-0.141-0.719-0.211
	c0.059-0.09,0.129-0.18,0.189-0.26c2.379-2.891,6.459-3.57,8.879-3.061C244.136,205.016,246.376,206.635,247.677,208.066z"/>
<radialGradient id="SVGID_42_" cx="502.2598" cy="-659.3052" r="5.191" gradientTransform="matrix(-0.6304 0.7763 -0.5298 -0.4302 229.1538 -467.9592)" gradientUnits="userSpaceOnUse">
	<stop  offset="0" style="stop-color:#F6998E"/>
	<stop  offset="0.4481" style="stop-color:#F06C58"/>
	<stop  offset="0.7409" style="stop-color:#F04D3B"/>
	<stop  offset="1" style="stop-color:#EB272A"/>
</radialGradient>
<path fill="url(#SVGID_42_)" d="M268.438,208.326c-0.49,0.131-0.99,0.24-1.49,0.352c-0.369,0.08-0.74,0.158-1.109,0.229
	c-0.109,0.021-0.221,0.039-0.33,0.061c-3.131,0.609-6.471,1.029-9.869,1.199c-0.189,0.012-0.381,0.021-0.568,0.029h-0.031
	c-0.188,0.012-0.391,0.021-0.58,0.021c-0.148,0.01-0.311,0.01-0.459,0.01c-0.33,0.021-0.67,0.029-1,0.029
	c-0.121,0.01-0.24,0.01-0.359,0.01c-0.012,0.01-0.021,0.01-0.039,0c-0.021,0.01-0.041,0.01-0.063,0
	c-0.219,0.01-0.438,0.01-0.66,0.01h-0.68c-0.391,0-0.779-0.01-1.17-0.027c0.561-1.279,2.641-4.74,8.811-6.021
	c2.67-0.561,7.391,0.33,9.57,4.061C268.417,208.295,268.427,208.307,268.438,208.326z"/>
<linearGradient id="SVGID_43_" gradientUnits="userSpaceOnUse" x1="342.2178" y1="832.7217" x2="342.5464" y2="806.7606" gradientTransform="matrix(1 0 0 1 -307.3203 -551.9199)">
	<stop  offset="0" style="stop-color:#020202"/>
	<stop  offset="0.0851" style="stop-color:#241111"/>
	<stop  offset="0.2206" style="stop-color:#3C1514"/>
	<stop  offset="0.3893" style="stop-color:#600E10"/>
	<stop  offset="0.5848" style="stop-color:#87171A"/>
	<stop  offset="0.7998" style="stop-color:#B72327"/>
	<stop  offset="1" style="stop-color:#EB272A"/>
</linearGradient>
<path fill="url(#SVGID_43_)" d="M70.154,266.593c0,2.92-1.86,5.641-5.08,7.961c-0.021,0.01-0.041,0.029-0.062,0.039
	c-0.7,0.5-1.46,0.99-2.29,1.451c-1.52,0.85-3.229,1.629-5.119,2.32c-0.16,0.059-0.311,0.107-0.471,0.17
	c-0.27,0.09-0.54,0.188-0.811,0.277c-0.369,0.119-0.75,0.24-1.129,0.352c-0.021,0.02-0.041,0.02-0.062,0.02
	c-0.26,0.09-0.521,0.17-0.79,0.24c-0.93,0.271-1.88,0.521-2.87,0.75c-1.95,0.451-4,0.82-6.149,1.111
	c-0.289,0.039-0.59,0.08-0.879,0.107c-0.271,0.029-0.541,0.063-0.812,0.09c-1.72,0.189-3.479,0.33-5.29,0.4
	c-0.479,0.02-0.97,0.039-1.46,0.049c-0.39,0.021-0.78,0.021-1.17,0.021h-0.63c-0.271,0-0.551,0-0.82-0.012
	c-2.5-0.02-4.939-0.158-7.279-0.398c-0.189-0.021-0.381-0.041-0.561-0.063c-0.52-0.059-1.04-0.117-1.55-0.188
	c-1.17-0.16-2.32-0.34-3.44-0.551c-0.039-0.012-0.068-0.012-0.1-0.021c-0.25-0.049-0.49-0.09-0.74-0.148
	c-1.449-0.279-2.85-0.609-4.18-0.979c-0.061-0.021-0.12-0.031-0.18-0.051c-0.051-0.01-0.101-0.021-0.15-0.041
	c-0.63-0.18-1.25-0.359-1.85-0.559c-0.25-0.08-0.5-0.172-0.75-0.25c-1.881-0.643-3.61-1.371-5.15-2.172
	c-5.2-2.68-8.33-6.148-8.33-9.93c0-7.648,12.76-14,29.48-15.17c0.129-0.012,0.27-0.021,0.408-0.021c1.54-0.109,3.12-0.16,4.721-0.17
	c0.011-0.01,0.029-0.01,0.041-0.01h0.43c0.59,0,1.189,0.01,1.77,0.02h0.17c1.69,0.041,3.36,0.143,4.98,0.279
	c0.2,0.021,0.391,0.041,0.59,0.061C58.354,253.083,70.154,259.233,70.154,266.593z"/>
<linearGradient id="SVGID_44_" gradientUnits="userSpaceOnUse" x1="341.749" y1="832.8906" x2="342.0266" y2="810.9555" gradientTransform="matrix(1 0 0 1 -307.3203 -551.9199)">
	<stop  offset="0" style="stop-color:#020202"/>
	<stop  offset="0.1326" style="stop-color:#201111"/>
	<stop  offset="0.322" style="stop-color:#371615"/>
	<stop  offset="0.5456" style="stop-color:#531514"/>
	<stop  offset="0.7933" style="stop-color:#761215"/>
	<stop  offset="1" style="stop-color:#951B1F"/>
</linearGradient>
<path fill="url(#SVGID_44_)" d="M68.344,269.134c0,1.939-1.199,3.779-3.27,5.42c-0.021,0.01-0.041,0.029-0.062,0.039
	c-0.659,0.521-1.399,1.01-2.22,1.48c-1.5,0.871-3.25,1.658-5.189,2.357c-0.181,0.063-0.359,0.131-0.541,0.189
	c-0.238,0.09-0.488,0.17-0.738,0.25c-0.381,0.131-0.771,0.25-1.16,0.359c-0.021,0.01-0.04,0.021-0.061,0.021
	c-0.229,0.068-0.461,0.139-0.699,0.209c-0.95,0.27-1.932,0.52-2.94,0.75c-1.94,0.449-3.979,0.811-6.09,1.09
	c-0.312,0.041-0.63,0.08-0.95,0.121c-0.26,0.029-0.52,0.059-0.79,0.09c-1.739,0.199-3.51,0.33-5.29,0.379
	c-0.49,0.031-0.97,0.041-1.46,0.041c-0.39,0.021-0.78,0.021-1.17,0.021h-0.29c-0.38,0-0.77-0.012-1.16-0.021
	c-2.41-0.051-4.859-0.229-7.27-0.541c-0.182-0.02-0.36-0.049-0.54-0.068c-0.41-0.051-0.812-0.109-1.21-0.17
	c-1.141-0.172-2.271-0.359-3.381-0.58c-0.311-0.061-0.619-0.119-0.93-0.182h-0.011c-0.149-0.027-0.3-0.061-0.438-0.1
	c-1.41-0.313-2.78-0.643-4.102-1.029c-0.1-0.031-0.189-0.051-0.28-0.08c-0.05,0-0.1-0.021-0.149-0.041
	c-0.58-0.16-1.16-0.34-1.72-0.52c-0.19-0.063-0.381-0.119-0.57-0.189c-1.84-0.609-3.55-1.301-5.09-2.029
	c-4.71-2.262-7.75-5.021-7.75-7.922c0-4.158,6.25-7.709,14.699-9.93c0.801-0.209,1.62-0.42,2.461-0.6
	c0.879-0.199,1.77-0.393,2.68-0.563c2.24-0.42,4.57-0.75,6.92-0.979c1.01-0.102,2.029-0.189,3.04-0.25c0.01,0,0.01,0,0.01,0
	c0.62-0.039,1.24-0.068,1.86-0.102c0.66-0.027,1.318-0.049,1.979-0.061h0.182c0.35-0.01,0.709-0.01,1.06-0.01h0.101
	c0.209,0,0.431,0,0.641,0.01c0.359,0,0.71,0.012,1.068,0.031c1.041,0.01,2.08,0.068,3.11,0.139c0.07,0,0.14,0.012,0.21,0.012
	c1.23,0.09,2.439,0.219,3.641,0.379c2.149,0.262,4.24,0.631,6.229,1.08c1.13,0.25,2.229,0.529,3.29,0.84
	c0.98,0.271,1.93,0.57,2.83,0.893C63.684,261.804,68.344,265.304,68.344,269.134z"/>
<radialGradient id="SVGID_45_" cx="276.0264" cy="-326.8218" r="23.5941" gradientTransform="matrix(-0.6304 0.7763 -0.7693 -0.6247 -41.1905 -151.8477)" gradientUnits="userSpaceOnUse">
	<stop  offset="0" style="stop-color:#FFFFFF"/>
	<stop  offset="0.4001" style="stop-color:#FBFEFF"/>
	<stop  offset="0.584" style="stop-color:#F2F4F6"/>
	<stop  offset="0.7236" style="stop-color:#E5ECEE"/>
	<stop  offset="0.841" style="stop-color:#D3E2E8"/>
	<stop  offset="0.9432" style="stop-color:#BFD6DF"/>
	<stop  offset="1" style="stop-color:#ADCBD7"/>
</radialGradient>
<path fill="url(#SVGID_45_)" d="M62.794,276.073c-1.5,0.871-3.25,1.66-5.19,2.359c-0.18,0.061-0.358,0.131-0.539,0.191
	c-0.24,0.09-0.49,0.17-0.74,0.25c-0.379,0.129-0.771,0.25-1.159,0.357c-0.021,0.012-0.04,0.021-0.062,0.021
	c-0.229,0.07-0.459,0.141-0.699,0.211c-0.949,0.27-1.93,0.52-2.939,0.75c-1.939,0.449-3.979,0.809-6.09,1.09
	c-0.311,0.039-0.63,0.08-0.95,0.119c-0.26,0.031-0.521,0.061-0.79,0.09c-1.74,0.201-3.51,0.33-5.29,0.381
	c-0.489,0.029-0.97,0.039-1.46,0.039c-0.39,0.021-0.779,0.021-1.17,0.021h-0.63c-0.271,0-0.55,0-0.819-0.01
	c-2.5-0.021-4.939-0.16-7.279-0.4c-0.19-0.021-0.381-0.039-0.562-0.061c-0.521-0.061-1.04-0.119-1.55-0.189
	c-1.17-0.158-2.32-0.34-3.439-0.551c-0.041-0.01-0.07-0.01-0.101-0.02c-0.25-0.051-0.49-0.09-0.74-0.15
	c-1.45-0.279-2.85-0.607-4.18-0.979c-0.061-0.021-0.12-0.031-0.18-0.051c-0.051-0.01-0.101-0.021-0.15-0.039
	c-0.63-0.182-1.25-0.361-1.85-0.563c-0.25-0.078-0.5-0.17-0.75-0.25c-1.881-0.641-3.61-1.369-5.15-2.17l0.24-0.119l4.89-2.48
	l-4.14-8.08l9.07-0.449l-0.41-7.438l-0.09-1.631l2.771,1.068l5.71,2.209l1.21-3.188l1.899-4.99l0.119-0.309l0.291,0.289l4.58,4.6
	l1.539,1.551l1.51-1.52l4.48-4.514l0.41-0.406l0.18,0.469l1.891,4.979l1.16,3.039l5.069-1.959l3.41-1.318l-0.12,2.158l-0.38,6.91
	l9.069,0.449l-4.149,8.08l4.181,2.119L62.794,276.073z"/>
<radialGradient id="SVGID_46_" cx="281.8223" cy="-588.374" r="11.0385" gradientTransform="matrix(-0.6304 0.7763 -0.5298 -0.4302 -92.0474 -199.4831)" gradientUnits="userSpaceOnUse">
	<stop  offset="0" style="stop-color:#F6998E"/>
	<stop  offset="0.4481" style="stop-color:#F06C58"/>
	<stop  offset="0.7409" style="stop-color:#F04D3B"/>
	<stop  offset="1" style="stop-color:#EB272A"/>
</radialGradient>
<path fill="url(#SVGID_46_)" d="M56.344,278.353c0,0.15-0.01,0.311-0.02,0.461c0.01,0.02,0.01,0.039,0,0.061
	c-0.381,0.131-0.771,0.25-1.16,0.359c-0.021,0.01-0.04,0.021-0.061,0.021c-0.229,0.068-0.461,0.139-0.699,0.209
	c-0.95,0.27-1.932,0.52-2.94,0.75c-1.94,0.449-3.979,0.811-6.09,1.09c-0.312,0.041-0.63,0.08-0.95,0.121
	c-0.26,0.029-0.52,0.059-0.79,0.09c-1.739,0.199-3.51,0.33-5.29,0.379c-0.49,0.031-0.97,0.041-1.46,0.041
	c-0.39,0.021-0.78,0.021-1.17,0.021h-0.63c-0.271,0-0.551,0-0.82-0.01c-2.5-0.021-4.939-0.16-7.279-0.4
	c-0.189-0.021-0.381-0.041-0.561-0.063c-0.52-0.061-1.04-0.117-1.55-0.188c-1.17-0.16-2.32-0.34-3.44-0.551
	c-0.039-0.012-0.068-0.012-0.1-0.021c-0.25-0.051-0.49-0.09-0.74-0.148c-1.449-0.279-2.85-0.609-4.18-0.98
	c-0.01-0.109-0.021-0.219-0.03-0.33c-0.02-0.299-0.04-0.6-0.04-0.91c-0.07-7.75,7.17-9.6,10.74-8.85
	c3.82,0.791,6.061,2.41,7.359,3.84c1.301,1.43,1.641,2.66,1.641,2.66h0.52c0,0,1.371-4.92,9-6.5
	C49.184,268.753,56.414,270.603,56.344,278.353z"/>
<linearGradient id="SVGID_47_" gradientUnits="userSpaceOnUse" x1="414.2217" y1="833.0459" x2="414.5504" y2="807.079" gradientTransform="matrix(1 0 0 1 -307.3203 -551.9199)">
	<stop  offset="0" style="stop-color:#020202"/>
	<stop  offset="0.0851" style="stop-color:#241111"/>
	<stop  offset="0.2206" style="stop-color:#3C1514"/>
	<stop  offset="0.3893" style="stop-color:#600E10"/>
	<stop  offset="0.5848" style="stop-color:#87171A"/>
	<stop  offset="0.7998" style="stop-color:#B72327"/>
	<stop  offset="1" style="stop-color:#EB272A"/>
</linearGradient>
<path fill="url(#SVGID_47_)" d="M142.154,266.916c0,2.92-1.86,5.639-5.08,7.959c-0.021,0.01-0.041,0.029-0.062,0.041
	c-0.938,0.68-2,1.316-3.159,1.92c-1.291,0.67-2.722,1.289-4.25,1.85c-2.188,0.801-4.601,1.49-7.189,2.039
	c-0.16,0.041-0.33,0.08-0.5,0.111h-0.04c-0.601,0.129-1.2,0.24-1.82,0.35c-0.71,0.129-1.438,0.24-2.17,0.34
	c-2.351,0.34-4.81,0.57-7.36,0.68c-0.5,0.031-0.988,0.041-1.488,0.053h-0.15c-0.39,0.02-0.779,0.02-1.17,0.02h-0.63
	c-2.96,0-5.84-0.158-8.58-0.471c-1.12-0.119-2.22-0.27-3.3-0.449c-0.432-0.063-0.852-0.131-1.271-0.199
	c-0.1-0.021-0.199-0.029-0.289-0.051c-0.07-0.01-0.131-0.027-0.189-0.041c-1.53-0.277-3-0.6-4.4-0.979
	c-0.97-0.25-1.91-0.521-2.818-0.82c-1.592-0.51-3.08-1.09-4.44-1.709c-6.069-2.762-9.79-6.512-9.79-10.641
	c0-4.07,3.6-7.771,9.49-10.521c0.09-0.039,0.18-0.08,0.279-0.129c0.92-0.41,1.891-0.813,2.91-1.182
	c0.029-0.01,0.061-0.021,0.1-0.041c0.471-0.158,0.961-0.328,1.451-0.488c1.31-0.432,2.699-0.82,4.14-1.148
	c0.61-0.158,1.239-0.289,1.87-0.42c3.33-0.682,6.939-1.141,10.74-1.33c0.5-0.029,1-0.051,1.51-0.061
	c0.68-0.031,1.38-0.041,2.068-0.041c0.172-0.012,0.352-0.012,0.521-0.012c0.391,0,0.77,0,1.16,0.012
	c1.18,0.021,2.35,0.063,3.5,0.131c5.13,0.289,9.91,1.07,14.09,2.24c1.32,0.357,2.581,0.771,3.77,1.209
	c0.42,0.148,0.83,0.313,1.24,0.471c0.029,0.021,0.051,0.029,0.08,0.039c0.4,0.16,0.801,0.33,1.18,0.512
	c0.779,0.342,1.512,0.699,2.211,1.08C139.213,259.875,142.154,263.246,142.154,266.916z"/>
<linearGradient id="SVGID_48_" gradientUnits="userSpaceOnUse" x1="413.751" y1="833.2129" x2="414.0286" y2="811.2765" gradientTransform="matrix(1 0 0 1 -307.3203 -551.9199)">
	<stop  offset="0" style="stop-color:#020202"/>
	<stop  offset="0.1326" style="stop-color:#201111"/>
	<stop  offset="0.322" style="stop-color:#371615"/>
	<stop  offset="0.5456" style="stop-color:#531514"/>
	<stop  offset="0.7933" style="stop-color:#761215"/>
	<stop  offset="1" style="stop-color:#951B1F"/>
</linearGradient>
<path fill="url(#SVGID_48_)" d="M140.344,269.455c0,1.938-1.199,3.777-3.271,5.42c-0.021,0.01-0.041,0.029-0.062,0.041
	c-0.891,0.699-1.93,1.357-3.12,1.979c-1.279,0.682-2.72,1.301-4.289,1.859c-2.188,0.789-4.641,1.479-7.24,2.02
	c-0.159,0.041-0.319,0.07-0.479,0.102c-0.01,0.01-0.03,0.01-0.04,0.01c-0.561,0.111-1.13,0.221-1.71,0.32
	c-0.75,0.131-1.51,0.25-2.28,0.359c-2.379,0.34-4.84,0.561-7.33,0.641c-0.5,0.029-0.988,0.041-1.488,0.051h-0.15
	c-0.39,0.021-0.779,0.021-1.17,0.021h-0.63c-2.89-0.029-5.83-0.25-8.72-0.65c-1.17-0.148-2.342-0.33-3.48-0.549
	c-0.3-0.051-0.59-0.102-0.89-0.16c-0.19-0.041-0.38-0.07-0.562-0.109c-0.068-0.012-0.14-0.029-0.199-0.041
	c-1.41-0.279-2.779-0.609-4.109-0.971c-0.99-0.26-1.96-0.549-2.891-0.85c-1.51-0.49-2.949-1.021-4.271-1.592
	c-5.489-2.357-9.14-5.379-9.14-8.549c0-3.451,4.289-6.479,10.58-8.682c0.58-0.209,1.17-0.398,1.779-0.59
	c0.029-0.012,0.069-0.021,0.109-0.029c0.311-0.09,0.62-0.189,0.939-0.279c1.069-0.311,2.17-0.592,3.311-0.859
	c3.311-0.762,6.88-1.34,10.5-1.682c1.57-0.148,3.15-0.25,4.72-0.311c0.15-0.01,0.29-0.01,0.44-0.01
	c0.84-0.039,1.68-0.051,2.51-0.051c2.439,0,4.88,0.131,7.26,0.391c0.03,0,0.07,0,0.102,0.01c1.66,0.17,3.289,0.4,4.88,0.689
	c0.188,0.029,0.38,0.07,0.569,0.109c1.619,0.301,3.199,0.66,4.699,1.07c0.09,0.029,0.19,0.049,0.28,0.08
	c0.42,0.119,0.84,0.24,1.25,0.357c0.26,0.08,0.521,0.16,0.779,0.24c0.711,0.23,1.398,0.471,2.068,0.721
	c0.24,0.092,0.48,0.182,0.711,0.279c0.021,0,0.051,0.01,0.068,0.021c0.682,0.27,1.32,0.551,1.94,0.83
	C137.225,263.406,140.344,266.314,140.344,269.455z"/>
<radialGradient id="SVGID_49_" cx="351.751" cy="-331.6069" r="27.7724" gradientTransform="matrix(-0.6304 0.7763 -0.7693 -0.6247 75.4951 -218.2178)" gradientUnits="userSpaceOnUse">
	<stop  offset="0" style="stop-color:#FFFFFF"/>
	<stop  offset="0.4001" style="stop-color:#FBFEFF"/>
	<stop  offset="0.584" style="stop-color:#F2F4F6"/>
	<stop  offset="0.7236" style="stop-color:#E5ECEE"/>
	<stop  offset="0.841" style="stop-color:#D3E2E8"/>
	<stop  offset="0.9432" style="stop-color:#BFD6DF"/>
	<stop  offset="1" style="stop-color:#ADCBD7"/>
</radialGradient>
<path fill="url(#SVGID_49_)" d="M133.854,276.836l0.041,0.059c-1.279,0.682-2.721,1.301-4.291,1.861
	c-2.188,0.789-4.64,1.479-7.238,2.02c-0.16,0.039-0.32,0.07-0.48,0.1c-0.01,0.012-0.029,0.012-0.04,0.012
	c-0.56,0.109-1.13,0.221-1.71,0.318c-0.75,0.131-1.51,0.25-2.279,0.359c-2.381,0.342-4.84,0.561-7.33,0.641
	c-0.5,0.029-0.989,0.041-1.489,0.053h-0.15c-0.39,0.02-0.78,0.02-1.17,0.02h-0.63c-2.96,0-5.84-0.158-8.58-0.471
	c-1.12-0.119-2.22-0.27-3.3-0.449c-0.431-0.063-0.851-0.131-1.271-0.199c-0.101-0.021-0.199-0.029-0.291-0.051
	c-0.068-0.01-0.129-0.027-0.188-0.041c-1.53-0.277-3-0.602-4.4-0.979c-0.97-0.25-1.909-0.521-2.819-0.82
	c-1.59-0.51-3.08-1.09-4.439-1.709l0.17-0.201l2.58-3.18l-7.07-5.699l8.102-4.109l-2.17-4.24l-1.91-3.73l-0.061-0.107l0.34-0.021
	l8.729-0.432l-0.13-2.43l-0.37-6.641l8.47,3.279l3.24-8.49l6.4,6.441l6.408-6.441l3.23,8.49l8.471-3.279l-0.391,7.16l-0.1,1.91
	l6.369,0.318l2.699,0.131l-0.49,0.947l-1.987,3.883l-1.671,3.25l8.101,4.107l-7.07,5.701L133.854,276.836z"/>
<radialGradient id="SVGID_50_" cx="357.0264" cy="-595.4272" r="14.2637" gradientTransform="matrix(-0.6304 0.7763 -0.5298 -0.4302 23.7319 -268.0519)" gradientUnits="userSpaceOnUse">
	<stop  offset="0" style="stop-color:#F6998E"/>
	<stop  offset="0.4481" style="stop-color:#F06C58"/>
	<stop  offset="0.7409" style="stop-color:#F04D3B"/>
	<stop  offset="1" style="stop-color:#EB272A"/>
</radialGradient>
<path fill="url(#SVGID_50_)" d="M128.454,268.795c-0.039,4.83-2.681,8.811-6.04,11.93c-0.01,0.021-0.03,0.041-0.051,0.051
	c-0.159,0.039-0.319,0.07-0.479,0.1c-0.01,0.012-0.03,0.012-0.04,0.012c-0.561,0.109-1.13,0.221-1.71,0.318
	c-0.75,0.131-1.51,0.25-2.28,0.359c-2.379,0.342-4.84,0.561-7.33,0.641c-0.5,0.031-0.988,0.041-1.488,0.053h-0.15
	c-0.39,0.02-0.779,0.02-1.17,0.02h-0.63c-2.96,0-5.84-0.158-8.58-0.471c-1.12-0.119-2.22-0.27-3.3-0.449
	c-0.11-0.1-0.21-0.188-0.32-0.277c-3.54-3.172-6.39-7.271-6.43-12.281c-0.07-7.75,7.17-9.6,10.74-8.85
	c3.81,0.787,6.068,2.408,7.358,3.84c1.3,1.43,1.642,2.66,1.642,2.66h0.52c0,0,1.37-4.922,9-6.5
	C121.283,259.195,128.523,261.045,128.454,268.795z"/>
<linearGradient id="SVGID_51_" gradientUnits="userSpaceOnUse" x1="486.0527" y1="832.3799" x2="486.3814" y2="806.4138" gradientTransform="matrix(1 0 0 1 -307.3203 -551.9199)">
	<stop  offset="0" style="stop-color:#020202"/>
	<stop  offset="0.0851" style="stop-color:#241111"/>
	<stop  offset="0.2206" style="stop-color:#3C1514"/>
	<stop  offset="0.3893" style="stop-color:#600E10"/>
	<stop  offset="0.5848" style="stop-color:#87171A"/>
	<stop  offset="0.7998" style="stop-color:#B72327"/>
	<stop  offset="1" style="stop-color:#EB272A"/>
</linearGradient>
<path fill="url(#SVGID_51_)" d="M213.988,266.25c0,2.92-1.861,5.639-5.08,7.959c-0.021,0.01-0.041,0.029-0.063,0.041
	c-1.947,1.396-4.391,2.646-7.229,3.699c-1.699,0.641-3.549,1.211-5.521,1.688c-0.938,0.23-1.898,0.451-2.891,0.631
	c-3.852,0.762-8.061,1.223-12.49,1.32c-0.391,0.02-0.777,0.02-1.17,0.02h-0.629c-4.67,0-9.131-0.398-13.201-1.129
	c-1.229-0.211-2.42-0.461-3.566-0.729c-1.75-0.42-3.41-0.9-4.961-1.441c-8.129-2.809-13.352-7.17-13.352-12.059
	c0-3.184,2.209-6.15,6-8.611c2.789-1.799,6.449-3.34,10.699-4.49h0.01c4.723-1.27,10.184-2.068,16.041-2.229
	c0.771-0.029,1.549-0.041,2.33-0.041c1.352,0,2.68,0.031,3.988,0.102c6.051,0.303,11.641,1.271,16.359,2.75
	c3.699,1.16,6.869,2.621,9.301,4.313C211.998,260.42,213.988,263.229,213.988,266.25z"/>
<linearGradient id="SVGID_52_" gradientUnits="userSpaceOnUse" x1="485.584" y1="832.5449" x2="485.8616" y2="810.6097" gradientTransform="matrix(1 0 0 1 -307.3203 -551.9199)">
	<stop  offset="0" style="stop-color:#020202"/>
	<stop  offset="0.1326" style="stop-color:#201111"/>
	<stop  offset="0.322" style="stop-color:#371615"/>
	<stop  offset="0.5456" style="stop-color:#531514"/>
	<stop  offset="0.7933" style="stop-color:#761215"/>
	<stop  offset="1" style="stop-color:#951B1F"/>
</linearGradient>
<path fill="url(#SVGID_52_)" d="M212.178,268.789c0,1.938-1.199,3.777-3.27,5.42c-0.021,0.01-0.041,0.029-0.063,0.041
	c-1.811,1.43-4.287,2.699-7.211,3.77c-1.67,0.619-3.486,1.17-5.42,1.641c-0.979,0.238-1.979,0.459-3.01,0.65
	c-3.932,0.77-8.188,1.219-12.49,1.279c-0.391,0.02-0.777,0.02-1.17,0.02h-0.289c-4.51-0.02-9.182-0.52-13.58-1.379
	c-0.938-0.182-1.867-0.381-2.777-0.611c-1.973-0.459-3.861-1-5.631-1.6c-7.369-2.51-12.61-6.07-12.61-9.881
	c0-3.049,3.34-5.76,8.438-7.869c2.012-0.83,4.279-1.57,6.74-2.189c5.988-1.541,13.027-2.432,19.709-2.432
	c7.189,0,14.354,1.16,20.131,3.051c1.973,0.65,3.771,1.381,5.359,2.18C209.428,263.1,212.178,265.84,212.178,268.789z"/>
<radialGradient id="SVGID_53_" cx="422.54" cy="-338.0073" r="30.3191" gradientTransform="matrix(-0.6304 0.7763 -0.7693 -0.6247 186.5263 -283.3126)" gradientUnits="userSpaceOnUse">
	<stop  offset="0" style="stop-color:#FFFFFF"/>
	<stop  offset="0.4001" style="stop-color:#FBFEFF"/>
	<stop  offset="0.584" style="stop-color:#F2F4F6"/>
	<stop  offset="0.7236" style="stop-color:#E5ECEE"/>
	<stop  offset="0.841" style="stop-color:#D3E2E8"/>
	<stop  offset="0.9432" style="stop-color:#BFD6DF"/>
	<stop  offset="1" style="stop-color:#ADCBD7"/>
</radialGradient>
<path fill="url(#SVGID_53_)" d="M208.758,269.549l-8.779,2.33l1.639,6.07l0.021,0.068c-1.67,0.619-3.488,1.17-5.42,1.643
	l-0.119-0.021l-2.721-0.439l-0.17,1.068v0.041c-3.932,0.771-8.189,1.221-12.49,1.279c-0.391,0.02-0.779,0.02-1.17,0.02h-0.631
	c-4.67,0-9.129-0.398-13.199-1.129l-0.041-0.25l-0.158-1.029l-2.619,0.42l-0.75,0.131c-1.75-0.42-3.41-0.9-4.961-1.439l0.08-0.291
	l1.658-6.141l-8.777-2.33l5.729-7.039l-2.777-2.24l-3.262-2.629l-1.027-0.83l8.1-4.109l-4.141-8.08l9.068-0.449l-0.5-9.07
	l8.473,3.279l3.236-8.488l6.398,6.439l6.41-6.439l3.23,8.488l8.471-3.279l-0.49,9.07l9.068,0.449l-4.148,8.08l8.102,4.109
	l-1.521,1.229l-3.529,2.84l-2.02,1.631L208.758,269.549z"/>
<radialGradient id="SVGID_54_" cx="427.8154" cy="-605.8286" r="16.8984" gradientTransform="matrix(-0.6304 0.7763 -0.5298 -0.4302 134.1753 -337.506)" gradientUnits="userSpaceOnUse">
	<stop  offset="0" style="stop-color:#F6998E"/>
	<stop  offset="0.4481" style="stop-color:#F06C58"/>
	<stop  offset="0.7409" style="stop-color:#F04D3B"/>
	<stop  offset="1" style="stop-color:#EB272A"/>
</radialGradient>
<path fill="url(#SVGID_54_)" d="M199.789,257.133c0.068-7.758-7.168-9.6-10.744-8.855c-7.627,1.586-9,6.5-9,6.5h-0.516l0,0
	c0,0-1.373-4.914-9.002-6.5c-3.574-0.744-10.813,1.098-10.744,8.855c0.115,13.309,20.088,20.219,20.088,20.219l0,0
	C181.303,276.832,199.678,269.924,199.789,257.133z"/>
<linearGradient id="SVGID_55_" gradientUnits="userSpaceOnUse" x1="558.2266" y1="832.8623" x2="558.5551" y2="806.9044" gradientTransform="matrix(1 0 0 1 -307.3203 -551.9199)">
	<stop  offset="0" style="stop-color:#020202"/>
	<stop  offset="0.0851" style="stop-color:#241111"/>
	<stop  offset="0.2206" style="stop-color:#3C1514"/>
	<stop  offset="0.3893" style="stop-color:#600E10"/>
	<stop  offset="0.5848" style="stop-color:#87171A"/>
	<stop  offset="0.7998" style="stop-color:#B72327"/>
	<stop  offset="1" style="stop-color:#EB272A"/>
</linearGradient>
<ellipse fill="url(#SVGID_55_)" cx="251.086" cy="266.729" rx="35.076" ry="15.36"/>
<linearGradient id="SVGID_56_" gradientUnits="userSpaceOnUse" x1="557.7588" y1="833.0244" x2="558.0364" y2="811.0943" gradientTransform="matrix(1 0 0 1 -307.3203 -551.9199)">
	<stop  offset="0" style="stop-color:#020202"/>
	<stop  offset="0.1326" style="stop-color:#201111"/>
	<stop  offset="0.322" style="stop-color:#371615"/>
	<stop  offset="0.5456" style="stop-color:#531514"/>
	<stop  offset="0.7933" style="stop-color:#761215"/>
	<stop  offset="1" style="stop-color:#951B1F"/>
</linearGradient>
<path fill="url(#SVGID_56_)" d="M284.355,269.275c0,7.17-16.264,12.814-32.631,12.814s-34.895-6.303-34.895-13.471
	s18.527-12.486,34.895-12.486S284.355,262.107,284.355,269.275z"/>
<radialGradient id="SVGID_57_" cx="491.8359" cy="-342.2432" r="32.7503" gradientTransform="matrix(-0.6304 0.7763 -0.7693 -0.6247 298.6494 -344.8399)" gradientUnits="userSpaceOnUse">
	<stop  offset="0" style="stop-color:#FFFFFF"/>
	<stop  offset="0.4001" style="stop-color:#FBFEFF"/>
	<stop  offset="0.584" style="stop-color:#F2F4F6"/>
	<stop  offset="0.7236" style="stop-color:#E5ECEE"/>
	<stop  offset="0.841" style="stop-color:#D3E2E8"/>
	<stop  offset="0.9432" style="stop-color:#BFD6DF"/>
	<stop  offset="1" style="stop-color:#ADCBD7"/>
</radialGradient>
<polygon fill="url(#SVGID_57_)" points="251.15,226.604 257.557,220.166 260.789,228.654 269.26,225.377 268.762,234.445 
	277.834,234.898 273.691,242.979 281.791,247.084 274.721,252.781 280.451,259.824 271.674,262.154 274.047,270.92 265.08,269.479 
	263.682,278.451 256.078,273.484 251.15,281.115 246.223,273.484 238.619,278.451 237.219,269.479 228.252,270.92 230.625,262.154 
	221.848,259.824 227.58,252.781 220.508,247.084 228.609,242.979 224.467,234.898 233.537,234.445 233.039,225.377 241.51,228.654 
	244.742,220.166 "/>
<radialGradient id="SVGID_58_" cx="497.1064" cy="-614.7686" r="16.8986" gradientTransform="matrix(-0.6304 0.7763 -0.5298 -0.4302 244.8159 -404.8683)" gradientUnits="userSpaceOnUse">
	<stop  offset="0" style="stop-color:#F6998E"/>
	<stop  offset="0.4481" style="stop-color:#F06C58"/>
	<stop  offset="0.7409" style="stop-color:#F04D3B"/>
	<stop  offset="1" style="stop-color:#EB272A"/>
</radialGradient>
<path fill="url(#SVGID_58_)" d="M271.488,247.41c0.066-7.76-7.168-9.602-10.744-8.855c-7.629,1.586-9,6.5-9,6.5h-0.516l0,0
	c0,0-1.373-4.914-9.002-6.5c-3.576-0.744-10.814,1.098-10.744,8.855c0.113,13.309,20.088,20.219,20.088,20.219l0,0
	C253.002,267.109,271.377,260.199,271.488,247.41z"/>
<rect display="none" fill="#FFFFFF" width="288" height="288"/>
</svg>
