<?xml version="1.0" encoding="utf-8"?>
<!-- Generator: Adobe Illustrator 15.0.0, SVG Export Plug-In  -->
<!DOCTYPE svg PUBLIC "-//W3C//DTD SVG 1.1//EN" "http://www.w3.org/Graphics/SVG/1.1/DTD/svg11.dtd" [
	<!ENTITY ns_flows "http://ns.adobe.com/Flows/1.0/">
]>
<svg version="1.1"
	 xmlns="http://www.w3.org/2000/svg" xmlns:xlink="http://www.w3.org/1999/xlink" xmlns:a="http://ns.adobe.com/AdobeSVGViewerExtensions/3.0/"
	 x="0px" y="0px" width="288px" height="432px" viewBox="0.5 0.5 288 432" enable-background="new 0.5 0.5 288 432"
	 xml:space="preserve">
<defs>
</defs>
<rect x="0.5" y="0.5" display="none" fill="#98CA3C" stroke="#000000" stroke-miterlimit="10" width="288" height="432"/>
<path fill="none" stroke="#000000" stroke-width="3" stroke-miterlimit="10" d="M13.359,18.144
	c-1.712,3.137-0.831,11.185,1.256,14.151c2.281,3.282,9.475,3.968,12.963,2.167c3.175-1.608,5.475-7.451,6.35-10.681
	c0.482-2.033,1-5.561-0.793-7.061c-1.433-1.2-5.082-1.208-6.922-1.375c-3.678-0.337-10.004-0.605-12.346,2.919"/>
<path fill="none" stroke="#000000" stroke-width="3" stroke-miterlimit="10" d="M33.809,19.299c1.381-0.276,3.035-0.276,4.691-0.276
	"/>
<g>
	<g>
		<path d="M32.871,17.478c0.625,0.631,1.187,1.198,2.1,1.349c0.451,0.075,0.945-0.047,1.352-0.243
			c0.136-0.065,0.685-0.443,0.232-0.518c-0.816-0.135-1.308-0.69-1.865-1.252C34.33,16.45,32.556,17.159,32.871,17.478
			L32.871,17.478z"/>
	</g>
</g>
<g>
	<g>
		<path d="M32.548,17.131c0.443-0.036,0.843,0.823,1.141,1.152c0.602,0.663,1.67,0.364,2.399,0.1
			c0.061-0.022,0.87-0.343,0.588-0.503c-0.32-0.182-0.93,0.024-1.237,0.135c0.577-0.209,0.618,0.025,0.315-0.153
			c-0.093-0.055-0.172-0.14-0.24-0.222c-0.17-0.207-0.302-0.443-0.468-0.654c-0.424-0.54-0.988-0.622-1.645-0.568
			c-0.422,0.034-0.963,0.17-1.296,0.448C31.767,17.147,32.407,17.142,32.548,17.131L32.548,17.131z"/>
	</g>
</g>
<g>
	<g>
		<path d="M35.134,19.482c0.664-0.032,1.327,0.095,1.991,0.105c0.463,0.008,1.028-0.125,1.262-0.577
			c0.208-0.404-0.18-0.751-0.574-0.758c-0.832-0.014-1.651-0.148-2.486-0.107c-0.409,0.02-1.006,0.293-1.072,0.752
			C34.186,19.383,34.783,19.499,35.134,19.482L35.134,19.482z"/>
	</g>
</g>
<path fill="none" stroke="#000000" stroke-width="3" stroke-miterlimit="10" d="M19.311,14.879
	c-1.133-0.148-2.289,0.141-3.455,0.307c-0.859,0.139-2.682-0.073-3.384,0.425c-1.056,0.716-0.7,2.612-0.664,3.729
	c-0.003,1.369,0.298,2.647,0.608,4.051"/>
<path fill="none" stroke="#000000" stroke-width="3" stroke-miterlimit="10" d="M12.926,18.618c-0.107,0.196,0.853-0.2,1.094-0.284
	c-0.168,0.202-0.332,0.465-0.495,0.729c0.169-0.202,0.286-0.275,0.405-0.348c-0.479,0.913-1.064,2.022-1.409,3.048"/>
<path fill="none" stroke="#000000" stroke-width="3" stroke-miterlimit="10" d="M14.957,15.577c-1.739,0.03-2.223,0.881-1.951,2.536
	c0.455-0.476,0.652-1.053,0.845-1.692"/>
<path fill="none" stroke="#000000" stroke-width="3" stroke-miterlimit="10" d="M59.297,18.638
	c1.583,3.263,0.301,11.377-1.959,14.283c-2.471,3.214-9.795,3.563-13.242,1.567c-3.14-1.784-5.188-7.818-5.919-11.132
	c-0.392-2.084-0.743-5.686,1.146-7.118c1.51-1.147,5.21-0.979,7.082-1.06c3.744-0.163,10.17-0.128,12.371,3.558"/>
<path fill="none" stroke="#000000" stroke-width="3" stroke-miterlimit="10" d="M53.424,15.041c1.154-0.096,2.313,0.254,3.486,0.478
	c0.864,0.182,2.722,0.056,3.409,0.594c1.036,0.777,0.585,2.682,0.493,3.812C60.749,21.312,60.383,22.593,60,24"/>
<path fill="none" stroke="#000000" stroke-width="3" stroke-miterlimit="10" d="M59.855,17.86c0.1,0.204-0.854-0.245-1.096-0.341
	c0.162,0.212,0.314,0.487,0.468,0.762c-0.161-0.212-0.277-0.292-0.394-0.372c0.441,0.949,0.98,2.103,1.279,3.158"/>
<path fill="none" stroke="#000000" stroke-width="3" stroke-miterlimit="10" d="M57.803,15.959c1.761,0.114,2.211,1,1.855,2.665
	c-0.438-0.504-0.611-1.099-0.775-1.756"/>
<path fill="none" stroke="#000000" stroke-width="3" stroke-miterlimit="10" d="M85.397,14.593
	c-1.712,3.137-0.831,11.185,1.256,14.151c2.281,3.282,9.475,3.968,12.963,2.167c3.175-1.608,5.475-7.451,6.35-10.681
	c0.482-2.033,1-5.561-0.793-7.061c-1.433-1.2-5.082-1.208-6.922-1.375c-3.678-0.337-10.004-0.605-12.346,2.919"/>
<path fill="none" stroke="#000000" stroke-width="3" stroke-miterlimit="10" d="M105.847,15.748
	c1.381-0.276,3.035-0.276,4.691-0.276"/>
<g>
	<g>
		<path d="M104.919,13.964c0.68,0.687,1.293,1.268,2.284,1.432c0.455,0.075,1.011-0.069,1.366-0.366
			c0.304-0.254,0.226-0.569-0.17-0.635c-0.733-0.121-1.183-0.667-1.681-1.169C106.265,12.769,104.441,13.481,104.919,13.964
			L104.919,13.964z"/>
	</g>
</g>
<g>
	<g>
		<path d="M104.874,13.73c-0.224,0.018-0.02,0.019,0.071,0.064c0.107,0.053,0.199,0.181,0.274,0.27
			c0.191,0.226,0.333,0.49,0.521,0.719c0.599,0.726,1.67,0.512,2.435,0.234c0.213-0.078,0.827-0.44,0.524-0.74
			c-0.309-0.305-0.933-0.123-1.273,0.001c0.089-0.032,0.479,0.024,0.293-0.062c-0.067-0.031-0.132-0.121-0.181-0.175
			c-0.178-0.196-0.309-0.436-0.465-0.648c-0.467-0.633-1.181-0.738-1.921-0.678c-0.352,0.029-0.995,0.24-1.103,0.636
			C103.933,13.776,104.653,13.749,104.874,13.73L104.874,13.73z"/>
	</g>
</g>
<g>
	<g>
		<path d="M107.196,16.018c0.746-0.037,1.491,0.094,2.238,0.106c0.441,0.007,1.01-0.344,1.055-0.815
			c0.05-0.521-0.5-0.688-0.909-0.694c-0.749-0.012-1.486-0.143-2.238-0.106c-0.443,0.022-1.008,0.323-1.055,0.815
			C106.238,15.824,106.784,16.038,107.196,16.018L107.196,16.018z"/>
	</g>
</g>
<path fill="none" stroke="#000000" stroke-width="3" stroke-miterlimit="10" d="M91.349,11.328
	c-1.133-0.148-2.289,0.141-3.455,0.307c-0.859,0.139-2.682-0.073-3.384,0.425c-1.056,0.716-0.7,2.612-0.664,3.729
	c-0.003,1.369,0.298,2.647,0.608,4.051"/>
<path fill="none" stroke="#000000" stroke-width="3" stroke-miterlimit="10" d="M84.964,15.067c-0.107,0.196,0.853-0.2,1.094-0.284
	c-0.168,0.202-0.332,0.465-0.495,0.729c0.169-0.202,0.286-0.275,0.405-0.348c-0.479,0.913-1.064,2.022-1.409,3.048"/>
<path fill="none" stroke="#000000" stroke-width="3" stroke-miterlimit="10" d="M86.995,12.026c-1.739,0.03-2.223,0.881-1.951,2.536
	c0.455-0.476,0.652-1.053,0.845-1.692"/>
<path fill="none" stroke="#000000" stroke-width="3" stroke-miterlimit="10" d="M131.335,15.087
	c1.583,3.263,0.301,11.377-1.959,14.283c-2.471,3.214-9.795,3.563-13.242,1.567c-3.14-1.784-5.188-7.818-5.919-11.132
	c-0.392-2.084-0.743-5.686,1.146-7.118c1.51-1.147,5.21-0.979,7.082-1.06c3.744-0.163,10.17-0.128,12.371,3.558"/>
<path fill="none" stroke="#000000" stroke-width="3" stroke-miterlimit="10" d="M125.462,11.49c1.154-0.096,2.313,0.254,3.486,0.478
	c0.864,0.182,2.722,0.056,3.409,0.594c1.036,0.777,0.585,2.682,0.493,3.812c-0.063,1.387-0.43,2.669-0.813,4.076"/>
<path fill="none" stroke="#000000" stroke-width="3" stroke-miterlimit="10" d="M131.894,14.31c0.1,0.204-0.854-0.245-1.096-0.341
	c0.162,0.212,0.314,0.487,0.468,0.762c-0.161-0.212-0.277-0.292-0.394-0.372c0.441,0.949,0.98,2.103,1.279,3.158"/>
<path fill="none" stroke="#000000" stroke-width="3" stroke-miterlimit="10" d="M129.841,12.408c1.761,0.114,2.211,1,1.855,2.665
	c-0.438-0.504-0.611-1.099-0.775-1.756"/>
<path fill="none" stroke="#000000" stroke-width="3" stroke-miterlimit="10" d="M156.84,18.724
	c-1.711,3.137-0.83,11.185,1.256,14.151c2.281,3.282,9.475,3.968,12.963,2.167c3.176-1.608,5.475-7.451,6.35-10.681
	c0.482-2.033,1-5.561-0.793-7.061c-1.432-1.2-5.082-1.208-6.922-1.375c-3.678-0.337-10.004-0.605-12.346,2.919"/>
<path fill="none" stroke="#000000" stroke-width="3" stroke-miterlimit="10" d="M177.289,19.878
	c1.381-0.276,3.035-0.276,4.691-0.276"/>
<g>
	<g>
		<path d="M176.363,18.103c0.68,0.684,1.299,1.282,2.289,1.446c0.461,0.076,1.01-0.052,1.365-0.366
			c0.297-0.261,0.227-0.612-0.182-0.68c-0.736-0.122-1.176-0.649-1.678-1.155C177.682,16.868,175.854,17.587,176.363,18.103
			L176.363,18.103z"/>
	</g>
</g>
<g>
	<g>
		<path d="M176.033,17.729c0.504-0.041,0.863,0.836,1.139,1.139c0.604,0.667,1.668,0.381,2.402,0.115
			c0.074-0.027,0.871-0.349,0.58-0.529c-0.316-0.197-0.932,0.009-1.24,0.121c0.611-0.222,0.607,0.031,0.318-0.139
			c-0.09-0.053-0.172-0.137-0.238-0.217c-0.17-0.207-0.301-0.443-0.467-0.654c-0.424-0.539-0.988-0.64-1.65-0.586
			c-0.422,0.035-0.967,0.166-1.293,0.456C175.252,17.728,175.877,17.741,176.033,17.729L176.033,17.729z"/>
	</g>
</g>
<g>
	<g>
		<path d="M178.604,20.017c0.664-0.032,1.328,0.099,1.992,0.11c0.453,0.007,1.023-0.132,1.266-0.561
			c0.225-0.397-0.191-0.688-0.557-0.695c-0.834-0.014-1.65-0.143-2.484-0.103c-0.393,0.019-1.006,0.28-1.082,0.721
			C177.658,19.963,178.285,20.033,178.604,20.017L178.604,20.017z"/>
	</g>
</g>
<path fill="none" stroke="#000000" stroke-width="3" stroke-miterlimit="10" d="M162.791,15.458
	c-1.133-0.148-2.289,0.141-3.455,0.307c-0.859,0.139-2.682-0.073-3.383,0.425c-1.057,0.716-0.701,2.612-0.664,3.729
	c-0.004,1.369,0.297,2.647,0.607,4.051"/>
<path fill="none" stroke="#000000" stroke-width="3" stroke-miterlimit="10" d="M156.406,19.197c-0.107,0.196,0.854-0.2,1.094-0.284
	c-0.168,0.202-0.332,0.465-0.494,0.729c0.168-0.202,0.285-0.275,0.404-0.348c-0.479,0.913-1.064,2.022-1.408,3.048"/>
<path fill="none" stroke="#000000" stroke-width="3" stroke-miterlimit="10" d="M158.438,16.156
	c-1.738,0.03-2.223,0.881-1.951,2.536c0.455-0.476,0.652-1.053,0.846-1.692"/>
<path fill="none" stroke="#000000" stroke-width="3" stroke-miterlimit="10" d="M202.777,19.217
	c1.584,3.263,0.301,11.377-1.959,14.283c-2.471,3.214-9.795,3.563-13.242,1.567c-3.139-1.784-5.188-7.818-5.918-11.132
	c-0.393-2.084-0.744-5.686,1.145-7.118c1.51-1.147,5.211-0.979,7.082-1.06c3.744-0.163,10.17-0.128,12.371,3.558"/>
<path fill="none" stroke="#000000" stroke-width="3" stroke-miterlimit="10" d="M196.904,15.62c1.154-0.096,2.313,0.254,3.486,0.478
	c0.865,0.182,2.723,0.056,3.41,0.594c1.035,0.777,0.584,2.682,0.492,3.812c-0.063,1.387-0.43,2.669-0.813,4.076"/>
<path fill="none" stroke="#000000" stroke-width="3" stroke-miterlimit="10" d="M203.336,18.44c0.1,0.204-0.854-0.245-1.096-0.341
	c0.162,0.212,0.314,0.487,0.469,0.762c-0.162-0.212-0.277-0.292-0.395-0.372c0.441,0.949,0.98,2.103,1.279,3.158"/>
<path fill="none" stroke="#000000" stroke-width="3" stroke-miterlimit="10" d="M201.283,16.539c1.762,0.114,2.211,1,1.855,2.665
	c-0.438-0.504-0.611-1.099-0.775-1.756"/>
<path fill="none" stroke="#000000" stroke-width="3" stroke-miterlimit="10" d="M229.578,27.928
	c-1.713,3.137-0.832,11.185,1.256,14.151c2.281,3.282,9.475,3.968,12.963,2.167c3.174-1.608,5.475-7.451,6.35-10.681
	c0.482-2.033,1-5.561-0.793-7.061c-1.434-1.2-5.082-1.208-6.922-1.375c-3.678-0.337-10.004-0.605-12.346,2.919"/>
<path fill="none" stroke="#000000" stroke-width="3" stroke-miterlimit="10" d="M250.027,29.083
	c1.381-0.276,3.035-0.276,4.691-0.276"/>
<g>
	<g>
		<path d="M249.104,27.315c0.678,0.683,1.303,1.295,2.291,1.459c0.469,0.077,1.01-0.036,1.365-0.366
			c0.289-0.268,0.227-0.652-0.193-0.722c-0.738-0.122-1.168-0.634-1.672-1.142C250.396,26.042,248.563,26.77,249.104,27.315
			L249.104,27.315z"/>
	</g>
</g>
<g>
	<g>
		<path d="M248.771,26.935c0.504-0.041,0.861,0.834,1.137,1.138c0.605,0.667,1.668,0.382,2.402,0.116
			c0.076-0.027,0.871-0.35,0.582-0.531c-0.318-0.198-0.934,0.007-1.242,0.12c0.375-0.136,0.563,0.005,0.32-0.138
			c-0.09-0.053-0.174-0.136-0.238-0.216c-0.17-0.207-0.303-0.443-0.469-0.654c-0.422-0.539-0.988-0.642-1.648-0.588
			c-0.424,0.034-0.969,0.165-1.295,0.456C247.99,26.933,248.613,26.947,248.771,26.935L248.771,26.935z"/>
	</g>
</g>
<g>
	<g>
		<path d="M251.072,29.14c0.748-0.037,1.488,0.094,2.238,0.106c0.432,0.007,1.014-0.149,1.275-0.525
			c0.264-0.378-0.223-0.554-0.521-0.559c-0.748-0.012-1.488-0.143-2.238-0.106c-0.441,0.021-1.002,0.133-1.275,0.525
			C250.295,28.947,250.764,29.154,251.072,29.14L251.072,29.14z"/>
	</g>
</g>
<path fill="none" stroke="#000000" stroke-width="3" stroke-miterlimit="10" d="M235.529,24.663
	c-1.133-0.148-2.289,0.141-3.455,0.307c-0.859,0.139-2.682-0.073-3.385,0.425c-1.055,0.716-0.699,2.612-0.664,3.729
	c-0.002,1.369,0.299,2.647,0.609,4.051"/>
<path fill="none" stroke="#000000" stroke-width="3" stroke-miterlimit="10" d="M229.145,28.402c-0.107,0.196,0.852-0.2,1.094-0.284
	c-0.168,0.202-0.332,0.465-0.496,0.729c0.17-0.202,0.287-0.275,0.406-0.348c-0.48,0.913-1.064,2.022-1.41,3.048"/>
<path fill="none" stroke="#000000" stroke-width="3" stroke-miterlimit="10" d="M231.176,25.361c-1.74,0.03-2.223,0.881-1.951,2.536
	c0.455-0.476,0.652-1.053,0.844-1.692"/>
<path fill="none" stroke="#000000" stroke-width="3" stroke-miterlimit="10" d="M275.516,28.422
	c1.582,3.263,0.301,11.377-1.959,14.283c-2.471,3.214-9.795,3.563-13.242,1.567c-3.141-1.784-5.189-7.818-5.92-11.132
	c-0.391-2.084-0.742-5.686,1.146-7.118c1.51-1.147,5.209-0.979,7.082-1.06c3.744-0.163,10.17-0.128,12.371,3.558"/>
<path fill="none" stroke="#000000" stroke-width="3" stroke-miterlimit="10" d="M269.643,24.825
	c1.154-0.096,2.313,0.254,3.486,0.478c0.863,0.182,2.721,0.056,3.408,0.594c1.037,0.777,0.586,2.682,0.494,3.812
	c-0.064,1.387-0.43,2.669-0.813,4.076"/>
<path fill="none" stroke="#000000" stroke-width="3" stroke-miterlimit="10" d="M276.074,27.645c0.1,0.204-0.854-0.245-1.096-0.341
	c0.162,0.212,0.314,0.487,0.467,0.762c-0.16-0.212-0.277-0.292-0.393-0.372c0.441,0.949,0.98,2.103,1.279,3.158"/>
<path fill="none" stroke="#000000" stroke-width="3" stroke-miterlimit="10" d="M274.021,25.743c1.76,0.114,2.211,1,1.855,2.665
	c-0.439-0.504-0.611-1.099-0.775-1.756"/>
<path fill="none" stroke="#000000" stroke-width="3" stroke-miterlimit="10" d="M11.579,106.262
	c-1.712,3.137-0.831,11.185,1.256,14.151c2.281,3.282,9.475,3.968,12.963,2.167c3.175-1.608,5.475-7.451,6.35-10.681
	c0.482-2.033,1-5.561-0.793-7.061c-1.433-1.2-5.082-1.208-6.922-1.375c-3.678-0.337-10.004-0.605-12.346,2.919"/>
<path fill="none" stroke="#000000" stroke-width="3" stroke-miterlimit="10" d="M32.028,107.417
	c1.381-0.276,3.035-0.276,4.691-0.276"/>
<g>
	<g>
		<path d="M31.102,105.636c0.679,0.686,1.296,1.275,2.286,1.439c0.458,0.076,1.011-0.061,1.366-0.366
			c0.3-0.257,0.226-0.59-0.176-0.656c-0.734-0.122-1.179-0.658-1.679-1.163C32.435,104.422,30.607,105.137,31.102,105.636
			L31.102,105.636z"/>
	</g>
</g>
<g>
	<g>
		<path d="M31.056,105.401c0.238-0.02,0.707,0.856,0.867,1.051c0.599,0.727,1.669,0.514,2.435,0.236
			c0.216-0.078,0.826-0.442,0.524-0.743c-0.309-0.307-0.933-0.125-1.274-0.001c0.089-0.032,0.479,0.025,0.293-0.06
			c-0.068-0.031-0.132-0.121-0.181-0.174c-0.178-0.196-0.309-0.436-0.466-0.648c-0.466-0.632-1.182-0.74-1.921-0.68
			c-0.353,0.029-0.995,0.241-1.103,0.638C30.115,105.445,30.833,105.419,31.056,105.401L31.056,105.401z"/>
	</g>
</g>
<g>
	<g>
		<path d="M33.333,107.523c0.664-0.032,1.33,0.103,1.993,0.114c0.446,0.007,1.021-0.138,1.269-0.549
			c0.237-0.392-0.2-0.644-0.545-0.65c-0.833-0.014-1.648-0.14-2.483-0.099c-0.38,0.019-1.003,0.271-1.087,0.698
			C32.389,107.5,33.042,107.538,33.333,107.523L33.333,107.523z"/>
	</g>
</g>
<path fill="none" stroke="#000000" stroke-width="3" stroke-miterlimit="10" d="M17.53,102.997
	c-1.133-0.148-2.289,0.141-3.455,0.307c-0.859,0.139-2.682-0.073-3.384,0.425c-1.056,0.716-0.7,2.612-0.664,3.729
	c-0.003,1.369,0.298,2.647,0.608,4.051"/>
<path fill="none" stroke="#000000" stroke-width="3" stroke-miterlimit="10" d="M11.146,106.735c-0.107,0.196,0.853-0.2,1.094-0.284
	c-0.168,0.202-0.332,0.465-0.495,0.729c0.169-0.202,0.286-0.275,0.405-0.348c-0.479,0.913-1.064,2.022-1.409,3.048"/>
<path fill="none" stroke="#000000" stroke-width="3" stroke-miterlimit="10" d="M13.177,103.694
	c-1.739,0.03-2.223,0.881-1.951,2.536c0.455-0.476,0.652-1.053,0.845-1.692"/>
<path fill="none" stroke="#000000" stroke-width="3" stroke-miterlimit="10" d="M57.517,106.755
	c1.583,3.263,0.301,11.377-1.959,14.283c-2.471,3.214-9.795,3.563-13.242,1.567c-3.14-1.784-5.188-7.818-5.919-11.132
	c-0.392-2.084-0.743-5.686,1.146-7.118c1.51-1.147,5.21-0.979,7.082-1.06c3.744-0.163,10.17-0.128,12.371,3.558"/>
<path fill="none" stroke="#000000" stroke-width="3" stroke-miterlimit="10" d="M51.644,103.158
	c1.154-0.096,2.313,0.254,3.486,0.478c0.864,0.182,2.722,0.056,3.409,0.594c1.036,0.777,0.585,2.682,0.493,3.812
	c-0.063,1.387-0.43,2.669-0.813,4.076"/>
<path fill="none" stroke="#000000" stroke-width="3" stroke-miterlimit="10" d="M58.075,105.978c0.1,0.204-0.854-0.245-1.096-0.341
	c0.162,0.212,0.314,0.487,0.468,0.762c-0.161-0.212-0.277-0.292-0.394-0.372c0.441,0.949,0.98,2.103,1.279,3.158"/>
<path fill="none" stroke="#000000" stroke-width="3" stroke-miterlimit="10" d="M56.022,104.077c1.761,0.114,2.211,1,1.855,2.665
	c-0.438-0.504-0.611-1.099-0.775-1.756"/>
<path fill="none" stroke="#000000" stroke-width="3" stroke-miterlimit="10" d="M83.228,116.974
	c-1.712,3.137-0.831,11.185,1.256,14.151c2.281,3.282,9.475,3.968,12.963,2.167c3.175-1.608,5.475-7.451,6.35-10.681
	c0.482-2.033,1-5.561-0.793-7.061c-1.433-1.2-5.082-1.208-6.922-1.375c-3.678-0.337-10.004-0.605-12.346,2.919"/>
<path fill="none" stroke="#000000" stroke-width="3" stroke-miterlimit="10" d="M103.677,118.128
	c1.381-0.276,3.035-0.276,4.691-0.276"/>
<g>
	<g>
		<path d="M102.744,116.324c0.688,0.694,1.278,1.234,2.275,1.399c0.439,0.072,1.013-0.108,1.366-0.366
			c0.325-0.237,0.225-0.468-0.142-0.529c-0.723-0.119-1.202-0.709-1.69-1.202C104.153,115.222,102.35,115.926,102.744,116.324
			L102.744,116.324z"/>
	</g>
</g>
<g>
	<g>
		<path d="M102.421,115.981c0.49-0.04,0.882,0.827,1.137,1.137c0.567,0.688,1.703,0.371,2.403,0.117
			c0.078-0.028,0.872-0.35,0.581-0.533c-0.317-0.199-0.933,0.006-1.242,0.118c0.377-0.137,0.562,0.007,0.32-0.136
			c-0.093-0.055-0.168-0.139-0.24-0.217c-0.177-0.196-0.303-0.444-0.466-0.652c-0.423-0.539-0.989-0.643-1.65-0.589
			c-0.423,0.035-0.968,0.165-1.294,0.457C101.64,115.978,102.262,115.995,102.421,115.981L102.421,115.981z"/>
	</g>
</g>
<g>
	<g>
		<path d="M104.674,118.008c0.676-0.033,1.355,0.105,2.032,0.116c0.456,0.008,0.974-0.133,1.366-0.366
			c0.314-0.187,0.26-0.378-0.103-0.384c-0.82-0.014-1.623-0.137-2.445-0.097c-0.417,0.02-0.973,0.174-1.295,0.452
			C103.89,118.02,104.53,118.016,104.674,118.008L104.674,118.008z"/>
	</g>
</g>
<path fill="none" stroke="#000000" stroke-width="3" stroke-miterlimit="10" d="M89.179,113.708
	c-1.133-0.148-2.289,0.141-3.455,0.307c-0.859,0.139-2.682-0.073-3.384,0.425c-1.056,0.716-0.7,2.612-0.664,3.729
	c-0.003,1.369,0.298,2.647,0.608,4.051"/>
<path fill="none" stroke="#000000" stroke-width="3" stroke-miterlimit="10" d="M82.794,117.447c-0.107,0.196,0.853-0.2,1.094-0.284
	c-0.168,0.202-0.332,0.465-0.495,0.729c0.169-0.202,0.286-0.275,0.405-0.348c-0.479,0.913-1.064,2.022-1.409,3.048"/>
<path fill="none" stroke="#000000" stroke-width="3" stroke-miterlimit="10" d="M84.825,114.406
	c-1.739,0.03-2.223,0.881-1.951,2.536c0.455-0.476,0.652-1.053,0.845-1.692"/>
<path fill="none" stroke="#000000" stroke-width="3" stroke-miterlimit="10" d="M129.165,117.467
	c1.583,3.263,0.301,11.377-1.959,14.283c-2.471,3.214-9.795,3.563-13.242,1.567c-3.14-1.784-5.188-7.818-5.919-11.132
	c-0.392-2.084-0.743-5.686,1.146-7.118c1.51-1.147,5.21-0.979,7.082-1.06c3.744-0.163,10.17-0.128,12.371,3.558"/>
<path fill="none" stroke="#000000" stroke-width="3" stroke-miterlimit="10" d="M123.292,113.87
	c1.154-0.096,2.313,0.254,3.486,0.478c0.864,0.182,2.722,0.056,3.409,0.594c1.036,0.777,0.585,2.682,0.493,3.812
	c-0.063,1.387-0.43,2.669-0.813,4.076"/>
<path fill="none" stroke="#000000" stroke-width="3" stroke-miterlimit="10" d="M129.724,116.69c0.1,0.204-0.854-0.245-1.096-0.341
	c0.162,0.212,0.314,0.487,0.468,0.762c-0.161-0.212-0.277-0.292-0.394-0.372c0.441,0.949,0.98,2.103,1.279,3.158"/>
<path fill="none" stroke="#000000" stroke-width="3" stroke-miterlimit="10" d="M127.671,114.789c1.761,0.114,2.211,1,1.855,2.665
	c-0.438-0.504-0.611-1.099-0.775-1.756"/>
<path fill="none" stroke="#000000" stroke-width="3" stroke-miterlimit="10" d="M155.752,128.712c0.67-1.01,1.68-1.71,2.861-2.18
	c0.75-0.31,1.568-0.52,2.42-0.66c2.439-0.41,5.129-0.25,7.07-0.08c1.84,0.17,5.488,0.18,6.92,1.38c0.01,0.01,0.029,0.02,0.039,0.04
	c0.449,0.39,0.75,0.91,0.93,1.5c0.1,0.3,0.17,0.62,0.211,0.95c0.209,1.55-0.1,3.34-0.391,4.57c-0.34,1.29-0.92,2.97-1.68,4.65
	c-0.01,0.03-0.02,0.06-0.029,0.08"/>
<path fill="none" stroke="#000000" stroke-width="3" stroke-miterlimit="10" d="M154.383,134.722c-0.01-0.1-0.02-0.2-0.02-0.29
	c-0.09-2.05,0.1-3.99,0.639-5.33c0.07-0.18,0.15-0.35,0.24-0.51"/>
<path fill="none" stroke="#000000" stroke-width="3" stroke-miterlimit="10" d="M175.695,129.75
	c1.381-0.276,3.035-0.276,4.691-0.276"/>
<g>
	<g>
		<path d="M174.779,128.011c0.762,0.77,1.42,1.369,2.525,1.552c0.441,0.073,1.051-0.168,1.262-0.576
			c0.229-0.441-0.201-0.692-0.572-0.754c-0.611-0.101-1.029-0.636-1.439-1.05c-0.342-0.343-0.893-0.306-1.305-0.114
			C174.971,127.199,174.438,127.666,174.779,128.011L174.779,128.011z"/>
	</g>
</g>
<g>
	<g>
		<path d="M174.73,127.769c0.252-0.021,0.691,0.821,0.861,1.026c0.605,0.736,1.66,0.545,2.441,0.261
			c0.244-0.088,0.811-0.47,0.512-0.787c-0.309-0.327-0.93-0.153-1.279-0.026c0.098-0.036,0.451,0.028,0.297-0.044
			c-0.063-0.028-0.127-0.11-0.178-0.166c-0.178-0.196-0.309-0.435-0.467-0.648c-0.465-0.631-1.184-0.765-1.928-0.705
			c-0.363,0.029-0.998,0.249-1.096,0.663C173.789,127.784,174.479,127.79,174.73,127.769L174.73,127.769z"/>
	</g>
</g>
<g>
	<g>
		<path d="M176.699,129.659c0.678-0.033,1.354,0.1,2.031,0.111c0.461,0.008,0.973-0.116,1.365-0.366
			c0.305-0.194,0.26-0.425-0.115-0.432c-0.82-0.014-1.625-0.142-2.447-0.102c-0.418,0.02-0.979,0.167-1.291,0.463
			C175.916,129.642,176.529,129.667,176.699,129.659L176.699,129.659z"/>
	</g>
</g>
<path fill="none" stroke="#000000" stroke-width="3" stroke-miterlimit="10" d="M161.197,125.33
	c-1.133-0.148-2.289,0.141-3.455,0.307c-0.859,0.139-2.682-0.073-3.385,0.425c-1.055,0.716-0.699,2.612-0.664,3.729
	c-0.002,1.369,0.299,2.647,0.609,4.051"/>
<path fill="none" stroke="#000000" stroke-width="3" stroke-miterlimit="10" d="M154.813,129.069
	c-0.107,0.196,0.852-0.2,1.094-0.284c-0.168,0.202-0.332,0.465-0.496,0.729c0.17-0.202,0.287-0.275,0.406-0.348
	c-0.48,0.913-1.064,2.022-1.41,3.048"/>
<path fill="none" stroke="#000000" stroke-width="3" stroke-miterlimit="10" d="M156.844,126.028
	c-1.74,0.03-2.223,0.881-1.951,2.536c0.455-0.476,0.652-1.053,0.844-1.692"/>
<path fill="none" stroke="#000000" stroke-width="3" stroke-miterlimit="10" d="M200.662,129.182c-0.76-1.26-2.01-2.1-3.48-2.64
	c-0.609-0.23-1.26-0.4-1.93-0.53c-0.059-0.02-0.129-0.04-0.199-0.04c-2.35-0.46-4.891-0.43-6.76-0.34
	c-1.871,0.08-5.57-0.09-7.08,1.06c-0.641,0.48-1.02,1.21-1.23,2.05c-0.061,0.23-0.109,0.48-0.141,0.73
	c-0.209,1.48,0,3.15,0.221,4.34c0.311,1.43,0.869,3.36,1.67,5.25"/>
<path fill="none" stroke="#000000" stroke-width="3" stroke-miterlimit="10" d="M201.752,135.472c0-0.02,0.01-0.04,0.01-0.06
	c0.191-1.83,0.17-3.61-0.139-5c0,0,0-0.01,0-0.02c-0.111-0.49-0.26-0.92-0.441-1.3"/>
<path fill="none" stroke="#000000" stroke-width="3" stroke-miterlimit="10" d="M195.311,125.492
	c1.154-0.096,2.313,0.254,3.486,0.478c0.863,0.182,2.721,0.056,3.408,0.594c1.037,0.777,0.586,2.682,0.494,3.812
	c-0.064,1.387-0.43,2.669-0.813,4.076"/>
<path fill="none" stroke="#000000" stroke-width="3" stroke-miterlimit="10" d="M201.742,128.312c0.1,0.204-0.854-0.245-1.096-0.341
	c0.162,0.212,0.314,0.487,0.467,0.762c-0.16-0.212-0.277-0.292-0.393-0.372c0.441,0.949,0.98,2.103,1.279,3.158"/>
<path fill="none" stroke="#000000" stroke-width="3" stroke-miterlimit="10" d="M199.689,126.41c1.76,0.114,2.211,1,1.855,2.665
	c-0.439-0.504-0.611-1.099-0.775-1.756"/>
<path fill="none" stroke="#000000" stroke-width="3" stroke-miterlimit="10" d="M83.483,200.692c0.61-0.92,1.5-1.58,2.54-2.051
	c0.07-0.039,0.15-0.068,0.23-0.1c0.79-0.33,1.67-0.561,2.58-0.699c0.12-0.02,0.24-0.041,0.37-0.061c0.05-0.01,0.1-0.01,0.15-0.02
	c2.27-0.301,4.69-0.15,6.48,0.01c1.84,0.17,5.49,0.18,6.92,1.381c0.01,0.01,0.03,0.02,0.04,0.039c0.49,0.43,0.8,1.01,0.98,1.67
	c0.02,0.041,0.03,0.08,0.03,0.131c0.06,0.209,0.1,0.43,0.13,0.648c0.21,1.551-0.1,3.34-0.39,4.57c-0.35,1.301-0.93,3-1.7,4.691
	c-0.01,0.029-0.02,0.059-0.04,0.09c-0.01,0.02-0.02,0.049-0.04,0.068c0,0.021-0.01,0.041-0.03,0.061c0,0.031-0.02,0.061-0.03,0.09"
	/>
<path fill="none" stroke="#000000" stroke-width="3" stroke-miterlimit="10" d="M82.123,206.903c-0.01-0.051-0.01-0.111-0.01-0.16
	c-0.01-0.041-0.01-0.09-0.01-0.131c0-0.051-0.01-0.109-0.01-0.16c-0.09-2.061,0.1-4.02,0.64-5.369c0.07-0.18,0.15-0.352,0.24-0.51"
	/>
<path fill="none" stroke="#000000" stroke-width="3" stroke-miterlimit="10" d="M103.426,201.731
	c1.381-0.275,3.035-0.275,4.691-0.275"/>
<g>
	<g>
		<path d="M102.503,199.965c0.676,0.683,1.304,1.301,2.292,1.464c0.47,0.077,1.01-0.029,1.366-0.366
			c0.286-0.27,0.225-0.667-0.197-0.736c-0.74-0.122-1.168-0.628-1.672-1.138C103.786,198.678,101.952,199.409,102.503,199.965
			L102.503,199.965z"/>
	</g>
</g>
<g>
	<g>
		<path d="M102.176,199.605c0.499-0.04,0.871,0.805,1.133,1.123c0.571,0.692,1.7,0.39,2.408,0.134
			c0.095-0.035,0.87-0.359,0.572-0.563c-0.314-0.217-0.935-0.012-1.246,0.102c0.418-0.152,0.556,0.017,0.324-0.12
			c-0.093-0.055-0.168-0.138-0.239-0.218c-0.177-0.195-0.302-0.439-0.465-0.647c-0.422-0.538-0.99-0.662-1.655-0.608
			c-0.425,0.035-0.972,0.16-1.292,0.466C101.395,199.581,101.997,199.62,102.176,199.605L102.176,199.605z"/>
	</g>
</g>
<g>
	<g>
		<path d="M104.758,201.938c0.665-0.032,1.326,0.093,1.99,0.104c0.469,0.008,1.031-0.121,1.259-0.586
			c0.2-0.406-0.174-0.785-0.583-0.793c-0.832-0.014-1.652-0.15-2.486-0.11c-0.419,0.021-1.007,0.302-1.067,0.771
			C103.807,201.813,104.389,201.956,104.758,201.938L104.758,201.938z"/>
	</g>
</g>
<path fill="none" stroke="#000000" stroke-width="3" stroke-miterlimit="10" d="M88.928,197.311
	c-1.133-0.148-2.289,0.141-3.455,0.307c-0.859,0.139-2.682-0.072-3.384,0.424c-1.056,0.717-0.7,2.613-0.664,3.729
	c-0.003,1.369,0.298,2.648,0.608,4.051"/>
<path fill="none" stroke="#000000" stroke-width="3" stroke-miterlimit="10" d="M82.543,201.049
	c-0.107,0.197,0.853-0.199,1.094-0.283c-0.168,0.201-0.332,0.465-0.495,0.729c0.169-0.203,0.286-0.275,0.405-0.348
	c-0.479,0.912-1.064,2.021-1.409,3.049"/>
<path fill="none" stroke="#000000" stroke-width="3" stroke-miterlimit="10" d="M84.574,198.008
	c-1.739,0.029-2.223,0.881-1.951,2.537c0.455-0.477,0.652-1.053,0.845-1.693"/>
<path fill="none" stroke="#000000" stroke-width="3" stroke-miterlimit="10" d="M128.393,201.172c-0.66-1.1-1.7-1.881-2.93-2.42
	c-0.07-0.031-0.14-0.061-0.21-0.09c-0.66-0.281-1.38-0.49-2.12-0.641c-0.04-0.01-0.09-0.02-0.14-0.029c0,0,0,0-0.01,0
	c-0.05-0.021-0.11-0.031-0.17-0.031c-2.35-0.469-4.91-0.439-6.79-0.35c-1.87,0.08-5.57-0.09-7.08,1.061
	c-0.67,0.51-1.06,1.289-1.26,2.18c-0.02,0.051-0.03,0.1-0.04,0.141c-0.03,0.148-0.05,0.299-0.07,0.459c-0.21,1.48,0,3.15,0.22,4.34
	c0.32,1.42,0.87,3.34,1.66,5.221c0.02,0.049,0.04,0.109,0.07,0.17c0,0,0,0,0,0.01c0.02,0.051,0.04,0.1,0.07,0.15"/>
<path fill="none" stroke="#000000" stroke-width="3" stroke-miterlimit="10" d="M129.443,207.862c0-0.02,0-0.029,0-0.051
	c0.01-0.029,0.01-0.059,0.01-0.09c0.01-0.029,0.01-0.049,0.01-0.08c0.22-1.91,0.21-3.789-0.11-5.25c0,0,0-0.01,0-0.02
	c-0.11-0.49-0.26-0.92-0.44-1.299"/>
<path fill="none" stroke="#000000" stroke-width="3" stroke-miterlimit="10" d="M123.041,197.473
	c1.154-0.096,2.313,0.254,3.486,0.477c0.864,0.182,2.722,0.057,3.409,0.596c1.036,0.775,0.585,2.682,0.493,3.811
	c-0.063,1.387-0.43,2.67-0.813,4.076"/>
<path fill="none" stroke="#000000" stroke-width="3" stroke-miterlimit="10" d="M129.473,200.292c0.1,0.205-0.854-0.244-1.096-0.34
	c0.162,0.213,0.314,0.486,0.468,0.762c-0.161-0.213-0.277-0.291-0.394-0.371c0.441,0.949,0.98,2.102,1.279,3.158"/>
<path fill="none" stroke="#000000" stroke-width="3" stroke-miterlimit="10" d="M127.42,198.391c1.761,0.113,2.211,1,1.855,2.664
	c-0.438-0.504-0.611-1.098-0.775-1.756"/>
<path fill="none" stroke="#000000" stroke-width="3" stroke-miterlimit="10" d="M155.514,189.061
	c-1.713,3.137-0.832,11.184,1.256,14.151c2.281,3.281,9.475,3.969,12.963,2.166c3.174-1.607,5.475-7.451,6.35-10.68
	c0.482-2.033,1-5.562-0.793-7.061c-1.434-1.2-5.082-1.208-6.922-1.376c-3.678-0.337-10.004-0.604-12.346,2.92"/>
<path fill="none" stroke="#000000" stroke-width="3" stroke-miterlimit="10" d="M175.963,190.215
	c1.381-0.276,3.035-0.276,4.691-0.276"/>
<g>
	<g>
		<path d="M175.035,188.431c0.68,0.687,1.293,1.27,2.283,1.433c0.457,0.075,1.012-0.068,1.367-0.366
			c0.303-0.254,0.225-0.572-0.172-0.638c-0.732-0.121-1.182-0.665-1.68-1.168C176.379,187.234,174.555,187.946,175.035,188.431
			L175.035,188.431z"/>
	</g>
</g>
<g>
	<g>
		<path d="M174.996,188.225c0.248-0.02,0.695,0.832,0.861,1.033c0.605,0.733,1.664,0.537,2.441,0.254
			c0.236-0.086,0.814-0.462,0.516-0.775c-0.309-0.322-0.932-0.146-1.279-0.019c0.096-0.035,0.453,0.024,0.297-0.048
			c-0.066-0.03-0.129-0.113-0.18-0.168c-0.178-0.196-0.309-0.435-0.465-0.648c-0.467-0.632-1.184-0.759-1.928-0.698
			c-0.359,0.029-0.996,0.247-1.098,0.656C174.055,188.248,174.752,188.245,174.996,188.225L174.996,188.225z"/>
	</g>
</g>
<g>
	<g>
		<path d="M177.277,190.356c0.664-0.031,1.328,0.1,1.992,0.111c0.453,0.008,1.023-0.132,1.266-0.562
			c0.223-0.397-0.189-0.692-0.559-0.699c-0.832-0.014-1.65-0.144-2.484-0.104c-0.393,0.019-1.006,0.281-1.08,0.723
			C176.33,190.299,176.957,190.372,177.277,190.356L177.277,190.356z"/>
	</g>
</g>
<path fill="none" stroke="#000000" stroke-width="3" stroke-miterlimit="10" d="M161.465,185.796
	c-1.133-0.148-2.289,0.141-3.455,0.307c-0.859,0.139-2.682-0.073-3.385,0.424c-1.055,0.717-0.699,2.613-0.664,3.728
	c-0.002,1.369,0.299,2.648,0.609,4.051"/>
<path fill="none" stroke="#000000" stroke-width="3" stroke-miterlimit="10" d="M155.08,189.534c-0.107,0.196,0.852-0.2,1.094-0.284
	c-0.168,0.202-0.332,0.465-0.496,0.729c0.17-0.203,0.287-0.275,0.406-0.348c-0.48,0.912-1.064,2.021-1.41,3.048"/>
<path fill="none" stroke="#000000" stroke-width="3" stroke-miterlimit="10" d="M157.111,186.493
	c-1.74,0.029-2.223,0.881-1.951,2.536c0.455-0.476,0.652-1.053,0.844-1.692"/>
<path fill="none" stroke="#000000" stroke-width="3" stroke-miterlimit="10" d="M201.451,189.554
	c1.582,3.263,0.301,11.378-1.959,14.283c-2.471,3.215-9.795,3.564-13.242,1.568c-3.141-1.785-5.189-7.818-5.92-11.133
	c-0.391-2.084-0.742-5.685,1.146-7.118c1.51-1.147,5.209-0.979,7.082-1.06c3.744-0.164,10.17-0.129,12.371,3.557"/>
<path fill="none" stroke="#000000" stroke-width="3" stroke-miterlimit="10" d="M195.578,185.957
	c1.154-0.096,2.313,0.254,3.486,0.478c0.863,0.182,2.721,0.057,3.408,0.595c1.037,0.776,0.586,2.682,0.494,3.811
	c-0.064,1.387-0.43,2.67-0.813,4.076"/>
<path fill="none" stroke="#000000" stroke-width="3" stroke-miterlimit="10" d="M202.01,188.776c0.1,0.205-0.854-0.244-1.096-0.34
	c0.162,0.212,0.314,0.486,0.467,0.762c-0.16-0.213-0.277-0.292-0.393-0.372c0.441,0.949,0.98,2.102,1.279,3.159"/>
<path fill="none" stroke="#000000" stroke-width="3" stroke-miterlimit="10" d="M199.957,186.876c1.76,0.113,2.211,1,1.855,2.664
	c-0.439-0.504-0.611-1.099-0.775-1.756"/>
<path fill="none" stroke="#000000" stroke-width="3" stroke-miterlimit="10" d="M227.578,177.596
	c-1.713,3.137-0.832,11.185,1.256,14.151c2.281,3.281,9.475,3.969,12.963,2.166c3.174-1.607,5.475-7.451,6.35-10.68
	c0.482-2.032,1-5.562-0.793-7.061c-1.434-1.2-5.082-1.208-6.922-1.376c-3.678-0.337-10.004-0.604-12.346,2.92"/>
<path fill="none" stroke="#000000" stroke-width="3" stroke-miterlimit="10" d="M248.027,178.751
	c1.381-0.276,3.035-0.276,4.691-0.276"/>
<g>
	<g>
		<path d="M247.115,177.029c0.764,0.771,1.424,1.41,2.537,1.593c0.459,0.076,1.055-0.16,1.256-0.601
			c0.205-0.453-0.186-0.78-0.6-0.848c-0.611-0.101-1.012-0.59-1.428-1.009c-0.354-0.357-0.873-0.379-1.316-0.162
			C247.26,176.151,246.762,176.672,247.115,177.029L247.115,177.029z"/>
	</g>
</g>
<g>
	<g>
		<path d="M246.793,176.684c0.525-0.042,0.842,0.741,1.123,1.082c0.582,0.708,1.686,0.449,2.42,0.182
			c0.15-0.055,0.854-0.392,0.549-0.648c-0.311-0.26-0.936-0.064-1.258,0.053c0.129-0.047,0.559,0.061,0.336-0.071
			c-0.092-0.055-0.168-0.138-0.238-0.217c-0.178-0.196-0.309-0.436-0.467-0.648c-0.396-0.539-1.018-0.702-1.666-0.65
			c-0.432,0.035-0.982,0.145-1.285,0.49C246.016,176.592,246.557,176.703,246.793,176.684L246.793,176.684z"/>
	</g>
</g>
<g>
	<g>
		<path d="M249.029,178.648c0.676-0.033,1.354,0.103,2.029,0.114c0.461,0.008,0.975-0.122,1.367-0.366
			c0.307-0.191,0.26-0.408-0.111-0.414c-0.82-0.014-1.623-0.141-2.445-0.101c-0.418,0.02-0.977,0.17-1.295,0.459
			C248.244,178.642,248.869,178.656,249.029,178.648L249.029,178.648z"/>
	</g>
</g>
<path fill="none" stroke="#000000" stroke-width="3" stroke-miterlimit="10" d="M233.529,174.331
	c-1.133-0.148-2.289,0.141-3.455,0.307c-0.859,0.139-2.682-0.073-3.385,0.424c-1.055,0.717-0.699,2.613-0.664,3.729
	c-0.002,1.369,0.299,2.648,0.609,4.051"/>
<path fill="none" stroke="#000000" stroke-width="3" stroke-miterlimit="10" d="M227.145,178.069
	c-0.107,0.196,0.852-0.2,1.094-0.284c-0.168,0.202-0.332,0.465-0.496,0.729c0.17-0.203,0.287-0.275,0.406-0.348
	c-0.48,0.912-1.064,2.021-1.41,3.048"/>
<path fill="none" stroke="#000000" stroke-width="3" stroke-miterlimit="10" d="M229.176,175.028
	c-1.74,0.029-2.223,0.881-1.951,2.536c0.455-0.476,0.652-1.053,0.844-1.692"/>
<path fill="none" stroke="#000000" stroke-width="3" stroke-miterlimit="10" d="M273.516,178.089
	c1.582,3.264,0.301,11.378-1.959,14.283c-2.471,3.215-9.795,3.564-13.242,1.568c-3.141-1.785-5.189-7.818-5.92-11.132
	c-0.391-2.084-0.742-5.686,1.146-7.118c1.51-1.147,5.209-0.979,7.082-1.06c3.744-0.164,10.17-0.129,12.371,3.557"/>
<path fill="none" stroke="#000000" stroke-width="3" stroke-miterlimit="10" d="M267.643,174.492
	c1.154-0.096,2.313,0.254,3.486,0.478c0.863,0.182,2.721,0.057,3.408,0.595c1.037,0.776,0.586,2.682,0.494,3.812
	c-0.064,1.387-0.43,2.669-0.813,4.076"/>
<path fill="none" stroke="#000000" stroke-width="3" stroke-miterlimit="10" d="M274.074,177.312c0.1,0.205-0.854-0.244-1.096-0.34
	c0.162,0.212,0.314,0.486,0.467,0.762c-0.16-0.213-0.277-0.292-0.393-0.372c0.441,0.949,0.98,2.103,1.279,3.158"/>
<path fill="none" stroke="#000000" stroke-width="3" stroke-miterlimit="10" d="M272.021,175.411c1.76,0.113,2.211,1,1.855,2.664
	c-0.439-0.504-0.611-1.099-0.775-1.756"/>
<path fill="none" stroke="#000000" stroke-width="3" stroke-miterlimit="10" d="M13.245,244.928
	c-1.712,3.137-0.831,11.186,1.256,14.152c2.281,3.281,9.475,3.967,12.963,2.166c3.175-1.607,5.475-7.451,6.35-10.682
	c0.482-2.031,1-5.561-0.793-7.061c-1.433-1.199-5.082-1.207-6.922-1.375c-3.678-0.338-10.004-0.605-12.346,2.92"/>
<path fill="none" stroke="#000000" stroke-width="3" stroke-miterlimit="10" d="M33.694,246.084
	c1.381-0.277,3.035-0.277,4.691-0.277"/>
<g>
	<g>
		<path d="M32.774,244.328c0.675,0.682,1.309,1.318,2.297,1.48c0.478,0.078,1.009-0.008,1.366-0.365
			c0.276-0.277,0.223-0.721-0.212-0.791c-0.742-0.123-1.161-0.609-1.668-1.121C34.022,242.99,32.188,243.734,32.774,244.328
			L32.774,244.328z"/>
	</g>
</g>
<g>
	<g>
		<path d="M32.726,244.084c0.245-0.02,0.699,0.84,0.863,1.039c0.603,0.732,1.665,0.529,2.438,0.25
			c0.23-0.084,0.819-0.457,0.518-0.766c-0.308-0.316-0.931-0.139-1.277-0.014c0.096-0.035,0.477,0.033,0.295-0.051
			c-0.067-0.031-0.13-0.115-0.18-0.17c-0.178-0.197-0.309-0.436-0.465-0.648c-0.467-0.633-1.183-0.754-1.925-0.693
			c-0.358,0.029-0.997,0.246-1.1,0.65C31.785,244.115,32.488,244.104,32.726,244.084L32.726,244.084z"/>
	</g>
</g>
<g>
	<g>
		<path d="M34.998,246.184c0.663-0.031,1.33,0.104,1.993,0.115c0.444,0.008,1.02-0.139,1.27-0.547
			c0.24-0.391-0.202-0.635-0.543-0.641c-0.833-0.014-1.648-0.141-2.483-0.1c-0.377,0.018-1.002,0.268-1.088,0.693
			C34.054,246.166,34.711,246.197,34.998,246.184L34.998,246.184z"/>
	</g>
</g>
<path fill="none" stroke="#000000" stroke-width="3" stroke-miterlimit="10" d="M19.196,241.664
	c-1.133-0.148-2.289,0.141-3.455,0.307c-0.859,0.139-2.682-0.074-3.384,0.424c-1.056,0.717-0.7,2.613-0.664,3.729
	c-0.003,1.369,0.298,2.648,0.608,4.051"/>
<path fill="none" stroke="#000000" stroke-width="3" stroke-miterlimit="10" d="M12.812,245.402
	c-0.107,0.195,0.853-0.201,1.094-0.285c-0.168,0.203-0.332,0.465-0.495,0.73c0.169-0.203,0.286-0.275,0.405-0.348
	c-0.479,0.912-1.064,2.021-1.409,3.047"/>
<path fill="none" stroke="#000000" stroke-width="3" stroke-miterlimit="10" d="M14.843,242.361
	c-1.739,0.029-2.223,0.881-1.951,2.535c0.455-0.475,0.652-1.053,0.845-1.691"/>
<path fill="none" stroke="#000000" stroke-width="3" stroke-miterlimit="10" d="M59.183,245.422
	c1.583,3.264,0.301,11.377-1.959,14.283c-2.471,3.215-9.795,3.563-13.242,1.566c-3.14-1.783-5.188-7.816-5.919-11.131
	c-0.392-2.084-0.743-5.686,1.146-7.119c1.51-1.146,5.21-0.979,7.082-1.059c3.744-0.164,10.17-0.129,12.371,3.557"/>
<path fill="none" stroke="#000000" stroke-width="3" stroke-miterlimit="10" d="M53.31,241.824c1.154-0.096,2.313,0.254,3.486,0.479
	c0.864,0.182,2.722,0.057,3.409,0.594c1.036,0.777,0.585,2.682,0.493,3.813c-0.063,1.387-0.43,2.668-0.813,4.076"/>
<path fill="none" stroke="#000000" stroke-width="3" stroke-miterlimit="10" d="M59.741,244.645c0.1,0.205-0.854-0.244-1.096-0.34
	c0.162,0.211,0.314,0.486,0.468,0.762c-0.161-0.213-0.277-0.293-0.394-0.373c0.441,0.949,0.98,2.104,1.279,3.158"/>
<path fill="none" stroke="#000000" stroke-width="3" stroke-miterlimit="10" d="M57.688,242.744c1.761,0.113,2.211,1,1.855,2.664
	c-0.438-0.504-0.611-1.1-0.775-1.756"/>
<path fill="none" stroke="#000000" stroke-width="3" stroke-miterlimit="10" d="M84.904,234.955
	c-1.712,3.137-0.831,11.186,1.256,14.152c2.281,3.281,9.475,3.967,12.963,2.166c3.175-1.607,5.475-7.451,6.35-10.682
	c0.482-2.031,1-5.561-0.793-7.061c-1.433-1.199-5.082-1.207-6.922-1.375c-3.678-0.338-10.004-0.605-12.346,2.92"/>
<path fill="none" stroke="#000000" stroke-width="3" stroke-miterlimit="10" d="M105.354,236.111
	c1.381-0.277,3.035-0.277,4.691-0.277"/>
<g>
	<g>
		<path d="M104.424,234.32c0.682,0.688,1.289,1.26,2.281,1.422c0.451,0.074,1.011-0.08,1.366-0.365
			c0.309-0.25,0.226-0.541-0.162-0.605c-0.73-0.119-1.188-0.678-1.684-1.178C105.789,233.152,103.969,233.861,104.424,234.32
			L104.424,234.32z"/>
	</g>
</g>
<g>
	<g>
		<path d="M104.391,234.131c0.251-0.02,0.69,0.82,0.859,1.025c0.607,0.736,1.66,0.547,2.442,0.264
			c0.246-0.09,0.81-0.473,0.511-0.791c-0.308-0.328-0.929-0.154-1.281-0.027c0.099-0.035,0.453,0.029,0.298-0.043
			c-0.061-0.027-0.127-0.107-0.178-0.164c-0.178-0.197-0.309-0.436-0.465-0.648c-0.466-0.631-1.184-0.768-1.929-0.707
			c-0.365,0.029-0.998,0.25-1.096,0.664C103.449,234.145,104.136,234.152,104.391,234.131L104.391,234.131z"/>
	</g>
</g>
<g>
	<g>
		<path d="M106.697,236.361c0.746-0.037,1.492,0.094,2.238,0.107c0.434,0.006,1.01-0.338,1.059-0.803
			c0.054-0.516-0.506-0.664-0.903-0.67c-0.75-0.012-1.486-0.145-2.238-0.107c-0.436,0.021-1.008,0.316-1.059,0.801
			C105.742,236.189,106.298,236.381,106.697,236.361L106.697,236.361z"/>
	</g>
</g>
<path fill="none" stroke="#000000" stroke-width="3" stroke-miterlimit="10" d="M90.855,231.691
	c-1.133-0.148-2.289,0.141-3.455,0.307c-0.859,0.139-2.682-0.074-3.384,0.424c-1.056,0.717-0.7,2.613-0.664,3.729
	c-0.003,1.369,0.298,2.648,0.608,4.051"/>
<path fill="none" stroke="#000000" stroke-width="3" stroke-miterlimit="10" d="M84.471,235.43
	c-0.107,0.195,0.853-0.201,1.094-0.285c-0.168,0.203-0.332,0.465-0.495,0.73c0.169-0.203,0.286-0.275,0.405-0.348
	c-0.479,0.912-1.064,2.021-1.409,3.047"/>
<path fill="none" stroke="#000000" stroke-width="3" stroke-miterlimit="10" d="M86.502,232.389
	c-1.739,0.029-2.223,0.881-1.951,2.535c0.455-0.475,0.652-1.053,0.845-1.691"/>
<path fill="none" stroke="#000000" stroke-width="3" stroke-miterlimit="10" d="M130.842,235.449
	c1.583,3.264,0.301,11.377-1.959,14.283c-2.471,3.215-9.795,3.563-13.242,1.566c-3.14-1.783-5.188-7.816-5.919-11.131
	c-0.392-2.084-0.743-5.686,1.146-7.119c1.51-1.146,5.21-0.979,7.082-1.059c3.744-0.164,10.17-0.129,12.371,3.557"/>
<path fill="none" stroke="#000000" stroke-width="3" stroke-miterlimit="10" d="M124.969,231.852
	c1.154-0.096,2.313,0.254,3.486,0.479c0.864,0.182,2.722,0.057,3.409,0.594c1.036,0.777,0.585,2.682,0.493,3.813
	c-0.063,1.387-0.43,2.668-0.813,4.076"/>
<path fill="none" stroke="#000000" stroke-width="3" stroke-miterlimit="10" d="M131.4,234.672c0.1,0.205-0.854-0.244-1.096-0.34
	c0.162,0.211,0.314,0.486,0.468,0.762c-0.161-0.213-0.277-0.293-0.394-0.373c0.441,0.949,0.98,2.104,1.279,3.158"/>
<path fill="none" stroke="#000000" stroke-width="3" stroke-miterlimit="10" d="M129.348,232.771c1.761,0.113,2.211,1,1.855,2.664
	c-0.438-0.504-0.611-1.1-0.775-1.756"/>
<path fill="none" stroke="#000000" stroke-width="3" stroke-miterlimit="10" d="M157.309,230.576
	c-1.711,3.137-0.83,11.184,1.256,14.15c2.281,3.281,9.475,3.969,12.963,2.166c3.176-1.607,5.475-7.451,6.35-10.68
	c0.482-2.033,1-5.563-0.793-7.061c-1.432-1.201-5.082-1.209-6.922-1.377c-3.678-0.336-10.004-0.604-12.346,2.92"/>
<path fill="none" stroke="#000000" stroke-width="3" stroke-miterlimit="10" d="M177.758,231.73
	c1.381-0.275,3.035-0.275,4.691-0.275"/>
<g>
	<g>
		<path d="M176.822,229.918c0.693,0.697,1.271,1.219,2.271,1.383c0.432,0.072,1.014-0.123,1.367-0.365
			c0.334-0.229,0.223-0.424-0.131-0.482c-0.717-0.117-1.211-0.729-1.693-1.217C178.26,228.855,176.469,229.561,176.822,229.918
			L176.822,229.918z"/>
	</g>
</g>
<g>
	<g>
		<path d="M176.838,229.906c0.201-0.016,0.111,0.004,0.045-0.027c0.129,0.063,0.172,0.113,0.262,0.221
			c0.191,0.227,0.334,0.49,0.521,0.719c0.549,0.666,1.447,0.748,2.223,0.469c0.363-0.133,0.92-0.426,0.789-0.916
			c-0.119-0.443-0.777-0.529-1.141-0.396c-0.141,0.051-0.326,0.037-0.111,0.059c0.16,0.016,0.074,0.01,0.01-0.063
			c-0.178-0.195-0.309-0.434-0.465-0.646c-0.471-0.639-1.184-0.883-1.959-0.818c-0.422,0.033-1.006,0.293-1.066,0.775
			C175.887,229.764,176.461,229.938,176.838,229.906L176.838,229.906z"/>
	</g>
</g>
<g>
	<g>
		<path d="M178.779,231.701c0.746-0.037,1.492,0.094,2.238,0.107c0.416,0.006,1.002-0.168,1.285-0.49
			c0.307-0.346-0.262-0.418-0.484-0.422c-0.748-0.012-1.486-0.143-2.238-0.107c-0.426,0.021-0.988,0.152-1.285,0.49
			S178.551,231.711,178.779,231.701L178.779,231.701z"/>
	</g>
</g>
<path fill="none" stroke="#000000" stroke-width="3" stroke-miterlimit="10" d="M163.26,227.311
	c-1.133-0.148-2.289,0.141-3.455,0.307c-0.859,0.139-2.682-0.072-3.383,0.424c-1.057,0.717-0.701,2.613-0.664,3.729
	c-0.004,1.369,0.297,2.648,0.607,4.051"/>
<path fill="none" stroke="#000000" stroke-width="3" stroke-miterlimit="10" d="M156.875,231.049
	c-0.107,0.197,0.854-0.199,1.094-0.283c-0.168,0.201-0.332,0.465-0.494,0.729c0.168-0.203,0.285-0.275,0.404-0.348
	c-0.479,0.912-1.064,2.021-1.408,3.049"/>
<path fill="none" stroke="#000000" stroke-width="3" stroke-miterlimit="10" d="M158.906,228.008
	c-1.738,0.029-2.223,0.881-1.951,2.537c0.455-0.477,0.652-1.053,0.846-1.693"/>
<path fill="none" stroke="#000000" stroke-width="3" stroke-miterlimit="10" d="M203.246,231.068
	c1.584,3.264,0.301,11.379-1.959,14.283c-2.471,3.215-9.795,3.564-13.242,1.568c-3.139-1.785-5.188-7.818-5.918-11.133
	c-0.393-2.084-0.744-5.686,1.145-7.117c1.51-1.148,5.211-0.979,7.082-1.061c3.744-0.164,10.17-0.129,12.371,3.557"/>
<path fill="none" stroke="#000000" stroke-width="3" stroke-miterlimit="10" d="M197.373,227.473
	c1.154-0.096,2.313,0.254,3.486,0.477c0.865,0.182,2.723,0.057,3.41,0.596c1.035,0.775,0.584,2.682,0.492,3.811
	c-0.063,1.387-0.43,2.67-0.813,4.076"/>
<path fill="none" stroke="#000000" stroke-width="3" stroke-miterlimit="10" d="M203.805,230.291c0.1,0.205-0.854-0.244-1.096-0.34
	c0.162,0.213,0.314,0.486,0.469,0.762c-0.162-0.213-0.277-0.291-0.395-0.371c0.441,0.949,0.98,2.102,1.279,3.158"/>
<path fill="none" stroke="#000000" stroke-width="3" stroke-miterlimit="10" d="M201.752,228.391c1.762,0.113,2.211,1,1.855,2.664
	c-0.438-0.504-0.611-1.098-0.775-1.756"/>
<path fill="none" stroke="#000000" stroke-width="3" stroke-miterlimit="10" d="M229.57,231.955
	c-1.711,3.137-0.83,11.186,1.256,14.152c2.281,3.281,9.475,3.967,12.963,2.166c3.176-1.607,5.475-7.451,6.35-10.682
	c0.482-2.031,1-5.561-0.793-7.061c-1.432-1.199-5.082-1.207-6.922-1.375c-3.678-0.338-10.004-0.605-12.346,2.92"/>
<path fill="none" stroke="#000000" stroke-width="3" stroke-miterlimit="10" d="M250.02,233.111
	c1.381-0.277,3.035-0.277,4.691-0.277"/>
<g>
	<g>
		<path d="M249.111,231.395c0.762,0.77,1.426,1.422,2.539,1.604c0.465,0.078,1.057-0.156,1.254-0.607
			c0.199-0.455-0.184-0.805-0.605-0.875c-0.613-0.1-1.01-0.576-1.426-0.996c-0.357-0.361-0.867-0.4-1.32-0.176
			C249.242,230.498,248.754,231.035,249.111,231.395L249.111,231.395z"/>
	</g>
</g>
<g>
	<g>
		<path d="M249.107,231.32c0.139-0.012,0.156-0.002,0.303,0.17c0.191,0.225,0.332,0.49,0.52,0.719
			c0.555,0.67,1.441,0.777,2.229,0.492c0.383-0.139,0.916-0.449,0.781-0.949c-0.121-0.451-0.768-0.57-1.15-0.432
			c-0.137,0.051-0.328,0.041-0.109,0.063c0.158,0.018,0.084,0.035,0.016-0.041c-0.178-0.195-0.309-0.436-0.465-0.646
			c-0.473-0.641-1.184-0.908-1.967-0.844c-0.436,0.035-1.006,0.307-1.059,0.801C248.154,231.141,248.709,231.352,249.107,231.32
			L249.107,231.32z"/>
	</g>
</g>
<g>
	<g>
		<path d="M251.326,233.221c0.664-0.031,1.33,0.104,1.992,0.115c0.447,0.006,1.021-0.139,1.27-0.551
			c0.236-0.393-0.199-0.65-0.547-0.656c-0.832-0.014-1.648-0.141-2.484-0.1c-0.381,0.018-1.002,0.271-1.086,0.699
			C250.383,233.193,251.031,233.234,251.326,233.221L251.326,233.221z"/>
	</g>
</g>
<path fill="none" stroke="#000000" stroke-width="3" stroke-miterlimit="10" d="M235.521,228.691
	c-1.133-0.148-2.289,0.141-3.455,0.307c-0.859,0.139-2.682-0.074-3.383,0.424c-1.057,0.717-0.701,2.613-0.664,3.729
	c-0.004,1.369,0.297,2.648,0.607,4.051"/>
<path fill="none" stroke="#000000" stroke-width="3" stroke-miterlimit="10" d="M229.137,232.43
	c-0.107,0.195,0.854-0.201,1.094-0.285c-0.168,0.203-0.332,0.465-0.494,0.73c0.168-0.203,0.285-0.275,0.404-0.348
	c-0.479,0.912-1.064,2.021-1.408,3.047"/>
<path fill="none" stroke="#000000" stroke-width="3" stroke-miterlimit="10" d="M231.168,229.389
	c-1.738,0.029-2.223,0.881-1.951,2.535c0.455-0.475,0.652-1.053,0.846-1.691"/>
<path fill="none" stroke="#000000" stroke-width="3" stroke-miterlimit="10" d="M275.508,232.449
	c1.584,3.264,0.301,11.377-1.959,14.283c-2.471,3.215-9.795,3.563-13.242,1.566c-3.139-1.783-5.188-7.816-5.918-11.131
	c-0.393-2.084-0.744-5.686,1.145-7.119c1.51-1.146,5.211-0.979,7.082-1.059c3.744-0.164,10.17-0.129,12.371,3.557"/>
<path fill="none" stroke="#000000" stroke-width="3" stroke-miterlimit="10" d="M269.635,228.852
	c1.154-0.096,2.313,0.254,3.486,0.479c0.865,0.182,2.723,0.057,3.41,0.594c1.035,0.777,0.584,2.682,0.492,3.813
	c-0.063,1.387-0.43,2.668-0.813,4.076"/>
<path fill="none" stroke="#000000" stroke-width="3" stroke-miterlimit="10" d="M276.066,231.672c0.1,0.205-0.854-0.244-1.096-0.34
	c0.162,0.211,0.314,0.486,0.469,0.762c-0.162-0.213-0.277-0.293-0.395-0.373c0.441,0.949,0.98,2.104,1.279,3.158"/>
<path fill="none" stroke="#000000" stroke-width="3" stroke-miterlimit="10" d="M274.014,229.771c1.762,0.113,2.211,1,1.855,2.664
	c-0.438-0.504-0.611-1.1-0.775-1.756"/>
<path fill="none" stroke="#000000" stroke-width="3" stroke-miterlimit="10" d="M11.912,306.928
	c-1.712,3.137-0.831,11.186,1.256,14.152c2.281,3.281,9.475,3.967,12.963,2.166c3.175-1.607,5.475-7.451,6.35-10.682
	c0.482-2.031,1-5.561-0.793-7.061c-1.433-1.199-5.082-1.207-6.922-1.375c-3.678-0.338-10.004-0.605-12.346,2.92"/>
<path fill="none" stroke="#000000" stroke-width="3" stroke-miterlimit="10" d="M32.361,308.084
	c1.381-0.277,3.035-0.277,4.691-0.277"/>
<g>
	<g>
		<path d="M31.44,306.324c0.675,0.684,1.308,1.316,2.296,1.479c0.476,0.078,1.009-0.014,1.366-0.365
			c0.278-0.277,0.223-0.709-0.209-0.781c-0.741-0.121-1.162-0.611-1.669-1.123C32.695,304.998,30.861,305.74,31.44,306.324
			L31.44,306.324z"/>
	</g>
</g>
<g>
	<g>
		<path d="M31.396,306.094c0.249-0.02,0.694,0.83,0.861,1.033c0.604,0.732,1.662,0.537,2.44,0.254
			c0.238-0.086,0.814-0.463,0.515-0.777c-0.309-0.322-0.93-0.146-1.279-0.02c0.096-0.035,0.453,0.025,0.297-0.047
			c-0.065-0.031-0.128-0.113-0.179-0.168c-0.178-0.195-0.309-0.436-0.465-0.648c-0.466-0.631-1.183-0.76-1.927-0.699
			c-0.361,0.029-0.998,0.246-1.097,0.656C30.454,306.115,31.149,306.115,31.396,306.094L31.396,306.094z"/>
	</g>
</g>
<g>
	<g>
		<path d="M33.368,308c0.677-0.033,1.353,0.1,2.029,0.109c0.464,0.008,0.974-0.109,1.366-0.365c0.301-0.195,0.261-0.439-0.119-0.445
			c-0.82-0.014-1.625-0.145-2.447-0.105c-0.419,0.021-0.98,0.166-1.291,0.469C32.583,307.975,33.189,308.008,33.368,308L33.368,308z
			"/>
	</g>
</g>
<path fill="none" stroke="#000000" stroke-width="3" stroke-miterlimit="10" d="M17.863,303.664
	c-1.133-0.148-2.289,0.141-3.455,0.307c-0.859,0.139-2.682-0.074-3.384,0.424c-1.056,0.717-0.7,2.613-0.664,3.729
	c-0.003,1.369,0.298,2.648,0.608,4.051"/>
<path fill="none" stroke="#000000" stroke-width="3" stroke-miterlimit="10" d="M11.478,307.402
	c-0.107,0.195,0.853-0.201,1.094-0.285c-0.168,0.203-0.332,0.465-0.495,0.73c0.169-0.203,0.286-0.275,0.405-0.348
	c-0.479,0.912-1.064,2.021-1.409,3.047"/>
<path fill="none" stroke="#000000" stroke-width="3" stroke-miterlimit="10" d="M13.509,304.361
	c-1.739,0.029-2.223,0.881-1.951,2.535c0.455-0.475,0.652-1.053,0.845-1.691"/>
<path fill="none" stroke="#000000" stroke-width="3" stroke-miterlimit="10" d="M57.849,307.422
	c1.583,3.264,0.301,11.377-1.959,14.283c-2.471,3.215-9.795,3.563-13.242,1.566c-3.14-1.783-5.188-7.816-5.919-11.131
	c-0.392-2.084-0.743-5.686,1.146-7.119c1.51-1.146,5.21-0.979,7.082-1.059c3.744-0.164,10.17-0.129,12.371,3.557"/>
<path fill="none" stroke="#000000" stroke-width="3" stroke-miterlimit="10" d="M51.976,303.824
	c1.154-0.096,2.313,0.254,3.486,0.479c0.864,0.182,2.722,0.057,3.409,0.594c1.036,0.777,0.585,2.682,0.493,3.813
	c-0.063,1.387-0.43,2.668-0.813,4.076"/>
<path fill="none" stroke="#000000" stroke-width="3" stroke-miterlimit="10" d="M58.408,306.645c0.1,0.205-0.854-0.244-1.096-0.34
	c0.162,0.211,0.314,0.486,0.468,0.762c-0.161-0.213-0.277-0.293-0.394-0.373c0.441,0.949,0.98,2.104,1.279,3.158"/>
<path fill="none" stroke="#000000" stroke-width="3" stroke-miterlimit="10" d="M56.355,304.744c1.761,0.113,2.211,1,1.855,2.664
	c-0.438-0.504-0.611-1.1-0.775-1.756"/>
<path fill="none" stroke="#000000" stroke-width="3" stroke-miterlimit="10" d="M85.665,309.578
	c-1.712,2.711-0.831,9.668,1.256,12.23c2.281,2.838,9.476,3.432,12.964,1.873c3.174-1.389,5.475-6.441,6.35-9.23
	c0.481-1.758,0.998-4.809-0.794-6.104c-1.433-1.037-5.082-1.045-6.921-1.189c-3.679-0.291-10.005-0.521-12.346,2.523"/>
<path fill="none" stroke="#000000" stroke-width="3" stroke-miterlimit="10" d="M106.115,310.576c1.38-0.238,3.035-0.238,4.69-0.238
	"/>
<g>
	<g>
		<path d="M105.188,309.09c0.699,0.609,1.339,1.131,2.287,1.268c0.465,0.066,1.005-0.053,1.366-0.367
			c0.292-0.254,0.231-0.609-0.179-0.668c-0.711-0.102-1.156-0.527-1.678-0.982c-0.332-0.289-0.916-0.164-1.277-0.012
			C105.512,308.408,104.854,308.799,105.188,309.09L105.188,309.09z"/>
	</g>
</g>
<g>
	<g>
		<path d="M105.141,308.898c-0.195,0.014,0.052,0.041,0.12,0.074c0.088,0.043,0.163,0.133,0.23,0.201
			c0.186,0.189,0.328,0.416,0.51,0.609c0.556,0.592,1.485,0.514,2.19,0.295c0.253-0.078,0.95-0.316,0.844-0.711
			c-0.102-0.383-0.835-0.273-1.087-0.195c-0.3,0.092-0.03-0.004,0.061,0.029c-0.086-0.031-0.145-0.096-0.209-0.158
			c-0.168-0.162-0.299-0.365-0.45-0.543c-0.496-0.586-1.206-0.662-1.929-0.613c-0.351,0.023-0.996,0.244-1.104,0.635
			C104.2,308.947,104.921,308.914,105.141,308.898L105.141,308.898z"/>
	</g>
</g>
<g>
	<g>
		<path d="M107.439,310.826c0.664-0.029,1.327,0.082,1.991,0.092c0.463,0.006,1.028-0.125,1.262-0.578
			c0.208-0.404-0.179-0.754-0.575-0.76c-0.831-0.012-1.653-0.129-2.486-0.094c-0.409,0.018-1.006,0.295-1.071,0.754
			C106.49,310.727,107.087,310.842,107.439,310.826L107.439,310.826z"/>
	</g>
</g>
<path fill="none" stroke="#000000" stroke-width="3" stroke-miterlimit="10" d="M91.616,306.756
	c-1.133-0.129-2.289,0.121-3.455,0.266c-0.859,0.119-2.681-0.063-3.384,0.367c-1.056,0.617-0.701,2.258-0.664,3.223
	c-0.003,1.182,0.297,2.287,0.608,3.5"/>
<path fill="none" stroke="#000000" stroke-width="3" stroke-miterlimit="10" d="M85.231,309.986
	c-0.107,0.172,0.853-0.172,1.094-0.244c-0.168,0.174-0.332,0.402-0.495,0.629c0.169-0.174,0.287-0.238,0.405-0.299
	c-0.479,0.789-1.064,1.748-1.409,2.635"/>
<path fill="none" stroke="#000000" stroke-width="3" stroke-miterlimit="10" d="M87.263,307.357
	c-1.739,0.027-2.223,0.764-1.952,2.193c0.455-0.412,0.653-0.91,0.845-1.463"/>
<path fill="none" stroke="#000000" stroke-width="3" stroke-miterlimit="10" d="M131.603,310.004
	c1.583,2.82,0.301,9.836-1.959,12.346c-2.471,2.779-9.794,3.08-13.243,1.355c-3.139-1.541-5.188-6.758-5.918-9.623
	c-0.391-1.801-0.744-4.914,1.146-6.152c1.51-0.992,5.209-0.846,7.08-0.916c3.746-0.141,10.171-0.111,12.372,3.076"/>
<path fill="none" stroke="#000000" stroke-width="3" stroke-miterlimit="10" d="M125.729,306.896
	c1.156-0.084,2.313,0.219,3.487,0.412c0.864,0.156,2.722,0.049,3.409,0.514c1.036,0.672,0.584,2.318,0.493,3.295
	c-0.063,1.199-0.429,2.307-0.812,3.521"/>
<path fill="none" stroke="#000000" stroke-width="3" stroke-miterlimit="10" d="M132.161,309.332c0.1,0.178-0.854-0.211-1.096-0.293
	c0.162,0.184,0.314,0.42,0.468,0.658c-0.161-0.184-0.277-0.252-0.394-0.322c0.441,0.82,0.98,1.816,1.279,2.73"/>
<path fill="none" stroke="#000000" stroke-width="3" stroke-miterlimit="10" d="M130.108,307.689
	c1.761,0.098,2.211,0.863,1.855,2.303c-0.438-0.436-0.611-0.949-0.775-1.518"/>
<path fill="none" stroke="#000000" stroke-width="3" stroke-miterlimit="10" d="M155.977,323.111
	c-1.711,2.412-0.83,8.604,1.256,10.885c2.281,2.525,9.477,3.055,12.965,1.668c3.174-1.236,5.475-5.734,6.35-8.217
	c0.48-1.566,0.998-4.279-0.795-5.432c-1.432-0.926-5.082-0.932-6.92-1.059c-3.68-0.262-10.006-0.467-12.346,2.244"/>
<path fill="none" stroke="#000000" stroke-width="3" stroke-miterlimit="10" d="M176.428,323.998
	c1.379-0.211,3.035-0.211,4.689-0.211"/>
<g>
	<g>
		<path d="M175.645,322.869c0.75,0.582,1.426,1,2.389,1.123c0.441,0.059,1.043-0.16,1.262-0.57c0.23-0.428-0.199-0.684-0.566-0.73
			c-0.633-0.082-1.092-0.5-1.578-0.877C176.535,321.336,174.805,322.215,175.645,322.869L175.645,322.869z"/>
	</g>
</g>
<g>
	<g>
		<path d="M175.184,322.482c0.506-0.029,0.809,0.531,1.135,0.834c0.564,0.525,1.49,0.359,2.154,0.178
			c0.188-0.051,0.961-0.275,0.873-0.602c-0.086-0.324-0.869-0.135-1.057-0.084c0.17-0.047-0.002-0.045-0.156-0.174
			c-0.178-0.146-0.318-0.344-0.479-0.51c-0.436-0.453-1.057-0.531-1.654-0.496c-0.424,0.023-0.982,0.156-1.289,0.477
			C174.4,322.43,174.98,322.494,175.184,322.482L175.184,322.482z"/>
	</g>
</g>
<g>
	<g>
		<path d="M177.475,324.18c0.748-0.027,1.49,0.072,2.238,0.082c0.436,0.006,1.014-0.146,1.273-0.531
			c0.256-0.381-0.217-0.578-0.527-0.582c-0.748-0.01-1.49-0.109-2.238-0.08c-0.443,0.018-1.006,0.131-1.273,0.531
			C176.697,323.971,177.156,324.193,177.475,324.18L177.475,324.18z"/>
	</g>
</g>
<path fill="none" stroke="#000000" stroke-width="3" stroke-miterlimit="10" d="M161.928,320.598
	c-1.133-0.113-2.289,0.107-3.455,0.236c-0.859,0.105-2.68-0.057-3.383,0.326c-1.057,0.551-0.701,2.01-0.664,2.869
	c-0.004,1.053,0.297,2.037,0.607,3.115"/>
<path fill="none" stroke="#000000" stroke-width="3" stroke-miterlimit="10" d="M155.543,323.473
	c-0.107,0.152,0.854-0.152,1.094-0.217c-0.168,0.154-0.332,0.357-0.494,0.561c0.168-0.156,0.287-0.213,0.404-0.268
	c-0.479,0.703-1.064,1.557-1.408,2.346"/>
<path fill="none" stroke="#000000" stroke-width="3" stroke-miterlimit="10" d="M157.574,321.135
	c-1.738,0.021-2.223,0.678-1.951,1.951c0.455-0.367,0.652-0.811,0.846-1.303"/>
<path fill="none" stroke="#000000" stroke-width="3" stroke-miterlimit="10" d="M201.914,323.488
	c1.584,2.512,0.301,8.756-1.959,10.99c-2.471,2.473-9.793,2.74-13.242,1.205c-3.139-1.371-5.188-6.014-5.918-8.564
	c-0.391-1.604-0.744-4.375,1.146-5.477c1.51-0.883,5.209-0.752,7.08-0.814c3.746-0.127,10.17-0.1,12.371,2.736"/>
<path fill="none" stroke="#000000" stroke-width="3" stroke-miterlimit="10" d="M196.041,320.723
	c1.156-0.074,2.313,0.195,3.486,0.365c0.865,0.141,2.723,0.045,3.41,0.459c1.035,0.598,0.584,2.063,0.492,2.932
	c-0.063,1.068-0.43,2.055-0.813,3.135"/>
<path fill="none" stroke="#000000" stroke-width="3" stroke-miterlimit="10" d="M202.473,322.891c0.1,0.158-0.854-0.188-1.096-0.262
	c0.162,0.164,0.314,0.375,0.469,0.586c-0.162-0.162-0.277-0.225-0.395-0.285c0.441,0.729,0.98,1.617,1.279,2.43"/>
<path fill="none" stroke="#000000" stroke-width="3" stroke-miterlimit="10" d="M200.42,321.428c1.762,0.088,2.211,0.77,1.855,2.051
	c-0.438-0.387-0.611-0.846-0.775-1.352"/>
<path fill="none" stroke="#000000" stroke-width="3" stroke-miterlimit="10" d="M228.148,324.508
	c-1.711,1.838-0.83,6.555,1.256,8.293c2.281,1.924,9.477,2.328,12.965,1.271c3.174-0.943,5.475-4.369,6.35-6.26
	c0.48-1.193,0.998-3.262-0.795-4.141c-1.432-0.703-5.082-0.709-6.92-0.807c-3.68-0.197-10.006-0.354-12.346,1.711"/>
<path fill="none" stroke="#000000" stroke-width="3" stroke-miterlimit="10" d="M248.6,325.184c1.379-0.162,3.035-0.162,4.689-0.162
	"/>
<g>
	<g>
		<path d="M247.799,324.383c0.775,0.461,1.467,0.75,2.375,0.84c0.418,0.043,1.029-0.17,1.277-0.523
			c0.275-0.393-0.236-0.525-0.521-0.555c-0.596-0.059-1.088-0.389-1.59-0.686C248.807,323.143,247.02,323.92,247.799,324.383
			L247.799,324.383z"/>
	</g>
</g>
<g>
	<g>
		<path d="M247.381,324.227c0.531-0.021,0.746,0.299,1.154,0.572c0.646,0.434,1.412,0.342,2.139,0.193
			c0.26-0.053,0.945-0.334,0.844-0.713c-0.105-0.398-0.826-0.248-1.086-0.195c-0.139,0.029,0.229,0.035-0.059-0.016
			c-0.027-0.006-0.08-0.037-0.111-0.059c-0.172-0.115-0.316-0.268-0.48-0.393c-0.473-0.361-1.051-0.459-1.635-0.436
			c-0.438,0.018-1,0.139-1.277,0.516C246.604,324.061,247.092,324.236,247.381,324.227L247.381,324.227z"/>
	</g>
</g>
<g>
	<g>
		<path d="M249.924,325.57c0.664-0.021,1.326,0.053,1.99,0.061c0.463,0.004,1.027-0.123,1.262-0.578
			c0.207-0.402-0.18-0.756-0.574-0.76c-0.83-0.008-1.656-0.088-2.486-0.063c-0.408,0.012-1.008,0.299-1.072,0.754
			C248.973,325.473,249.572,325.58,249.924,325.57L249.924,325.57z"/>
	</g>
</g>
<path fill="none" stroke="#000000" stroke-width="3" stroke-miterlimit="10" d="M234.1,322.594c-1.133-0.088-2.289,0.082-3.455,0.18
	c-0.859,0.08-2.68-0.043-3.383,0.248c-1.057,0.42-0.701,1.531-0.664,2.186c-0.004,0.803,0.297,1.551,0.607,2.375"/>
<path fill="none" stroke="#000000" stroke-width="3" stroke-miterlimit="10" d="M227.715,324.785
	c-0.107,0.115,0.854-0.117,1.094-0.168c-0.168,0.117-0.332,0.273-0.494,0.428c0.168-0.119,0.287-0.16,0.404-0.203
	c-0.479,0.535-1.064,1.186-1.408,1.787"/>
<path fill="none" stroke="#000000" stroke-width="3" stroke-miterlimit="10" d="M229.746,323.002
	c-1.738,0.018-2.223,0.518-1.951,1.486c0.455-0.279,0.652-0.617,0.846-0.992"/>
<path fill="none" stroke="#000000" stroke-width="3" stroke-miterlimit="10" d="M274.086,324.795
	c1.584,1.914,0.301,6.672-1.959,8.373c-2.471,1.885-9.793,2.09-13.242,0.92c-3.139-1.045-5.188-4.584-5.918-6.527
	c-0.391-1.221-0.744-3.332,1.146-4.172c1.51-0.672,5.209-0.572,7.08-0.619c3.746-0.098,10.17-0.076,12.371,2.084"/>
<path fill="none" stroke="#000000" stroke-width="3" stroke-miterlimit="10" d="M268.213,322.688
	c1.156-0.057,2.313,0.148,3.486,0.279c0.865,0.107,2.723,0.035,3.41,0.35c1.035,0.455,0.584,1.572,0.492,2.234
	c-0.063,0.813-0.43,1.564-0.813,2.389"/>
<path fill="none" stroke="#000000" stroke-width="3" stroke-miterlimit="10" d="M274.645,324.34c0.1,0.119-0.854-0.145-1.096-0.199
	c0.162,0.125,0.314,0.287,0.469,0.447c-0.162-0.125-0.277-0.172-0.395-0.219c0.441,0.557,0.98,1.232,1.279,1.852"/>
<path fill="none" stroke="#000000" stroke-width="3" stroke-miterlimit="10" d="M272.592,323.227
	c1.762,0.066,2.211,0.584,1.855,1.561c-0.438-0.295-0.611-0.643-0.775-1.029"/>
<path fill="none" stroke="#000000" stroke-width="3" stroke-miterlimit="10" d="M11.482,399.84
	c-1.712,1.838-0.831,6.557,1.256,8.295c2.281,1.924,9.476,2.326,12.964,1.27c3.174-0.941,5.475-4.367,6.35-6.26
	c0.481-1.191,0.998-3.26-0.794-4.139c-1.433-0.705-5.082-0.709-6.921-0.807c-3.679-0.199-10.005-0.354-12.346,1.711"/>
<path fill="none" stroke="#000000" stroke-width="3" stroke-miterlimit="10" d="M31.933,400.516c1.38-0.16,3.035-0.16,4.69-0.16"/>
<g>
	<g>
		<path d="M31.133,399.717c0.775,0.459,1.467,0.748,2.375,0.84c0.417,0.041,1.028-0.172,1.276-0.523
			c0.276-0.393-0.235-0.527-0.52-0.555c-0.596-0.061-1.089-0.389-1.59-0.686C32.141,398.477,30.353,399.254,31.133,399.717
			L31.133,399.717z"/>
	</g>
</g>
<g>
	<g>
		<path d="M30.715,399.559c0.531-0.021,0.746,0.299,1.154,0.574c0.647,0.434,1.412,0.342,2.138,0.191
			c0.259-0.053,0.946-0.332,0.844-0.711c-0.107-0.4-0.827-0.248-1.087-0.195c-0.138,0.027,0.229,0.035-0.058-0.018
			c-0.028-0.004-0.081-0.037-0.112-0.057c-0.171-0.115-0.317-0.268-0.48-0.393c-0.472-0.361-1.051-0.461-1.634-0.438
			c-0.437,0.018-1.001,0.141-1.278,0.518C29.937,399.393,30.426,399.57,30.715,399.559L30.715,399.559z"/>
	</g>
</g>
<g>
	<g>
		<path d="M33.257,400.902c0.664-0.02,1.327,0.055,1.991,0.061c0.464,0.004,1.027-0.123,1.262-0.578
			c0.207-0.4-0.179-0.756-0.575-0.76c-0.83-0.008-1.655-0.086-2.486-0.063c-0.409,0.014-1.007,0.301-1.071,0.754
			C32.307,400.807,32.905,400.914,33.257,400.902L33.257,400.902z"/>
	</g>
</g>
<path fill="none" stroke="#000000" stroke-width="3" stroke-miterlimit="10" d="M17.434,397.926
	c-1.133-0.086-2.289,0.082-3.455,0.18c-0.859,0.08-2.681-0.041-3.384,0.25c-1.056,0.418-0.701,1.531-0.664,2.186
	c-0.003,0.801,0.297,1.551,0.608,2.373"/>
<path fill="none" stroke="#000000" stroke-width="3" stroke-miterlimit="10" d="M11.049,400.117
	c-0.107,0.117,0.853-0.115,1.094-0.166c-0.169,0.117-0.332,0.271-0.495,0.428c0.169-0.119,0.287-0.162,0.404-0.203
	c-0.479,0.533-1.064,1.186-1.408,1.785"/>
<path fill="none" stroke="#000000" stroke-width="3" stroke-miterlimit="10" d="M13.08,398.334
	c-1.739,0.018-2.224,0.518-1.952,1.486c0.455-0.277,0.653-0.615,0.846-0.99"/>
<path fill="none" stroke="#000000" stroke-width="3" stroke-miterlimit="10" d="M57.42,400.129c1.583,1.912,0.301,6.67-1.959,8.373
	c-2.471,1.883-9.794,2.088-13.243,0.92c-3.139-1.047-5.188-4.584-5.918-6.527c-0.391-1.223-0.744-3.332,1.146-4.172
	c1.51-0.674,5.209-0.574,7.08-0.621c3.746-0.096,10.171-0.076,12.372,2.086"/>
<path fill="none" stroke="#000000" stroke-width="3" stroke-miterlimit="10" d="M51.546,398.021
	c1.156-0.057,2.313,0.148,3.487,0.279c0.864,0.107,2.722,0.033,3.409,0.348c1.036,0.457,0.585,1.572,0.493,2.234
	c-0.063,0.814-0.43,1.564-0.813,2.389"/>
<path fill="none" stroke="#000000" stroke-width="3" stroke-miterlimit="10" d="M57.979,399.674c0.1,0.119-0.854-0.145-1.096-0.199
	c0.162,0.125,0.314,0.285,0.468,0.445c-0.161-0.123-0.277-0.17-0.394-0.217c0.441,0.557,0.98,1.23,1.279,1.852"/>
<path fill="none" stroke="#000000" stroke-width="3" stroke-miterlimit="10" d="M55.926,398.559
	c1.761,0.068,2.211,0.586,1.855,1.563c-0.438-0.295-0.611-0.643-0.775-1.029"/>
<path fill="none" stroke="#000000" stroke-width="3" stroke-miterlimit="10" d="M83.983,405.174
	c-1.712,1.838-0.831,6.557,1.256,8.295c2.281,1.924,9.476,2.326,12.964,1.27c3.174-0.941,5.475-4.367,6.35-6.26
	c0.481-1.191,0.998-3.26-0.794-4.139c-1.433-0.705-5.082-0.709-6.921-0.807c-3.679-0.199-10.005-0.354-12.346,1.711"/>
<path fill="none" stroke="#000000" stroke-width="3" stroke-miterlimit="10" d="M104.434,405.85c1.38-0.16,3.035-0.16,4.69-0.16"/>
<g>
	<g>
		<path d="M103.634,405.051c0.775,0.459,1.467,0.748,2.375,0.84c0.417,0.041,1.028-0.172,1.276-0.523
			c0.276-0.393-0.235-0.527-0.52-0.555c-0.596-0.061-1.089-0.389-1.59-0.686C104.642,403.811,102.854,404.588,103.634,405.051
			L103.634,405.051z"/>
	</g>
</g>
<g>
	<g>
		<path d="M103.216,404.893c0.531-0.021,0.746,0.299,1.154,0.574c0.647,0.434,1.412,0.342,2.138,0.191
			c0.259-0.053,0.946-0.332,0.844-0.711c-0.107-0.4-0.827-0.248-1.087-0.195c-0.138,0.027,0.229,0.035-0.058-0.018
			c-0.028-0.004-0.081-0.037-0.112-0.057c-0.171-0.115-0.317-0.268-0.48-0.393c-0.472-0.361-1.051-0.461-1.634-0.438
			c-0.437,0.018-1.001,0.141-1.278,0.518C102.438,404.727,102.927,404.904,103.216,404.893L103.216,404.893z"/>
	</g>
</g>
<g>
	<g>
		<path d="M105.758,406.236c0.664-0.02,1.327,0.055,1.991,0.061c0.464,0.004,1.027-0.123,1.262-0.578
			c0.207-0.4-0.179-0.756-0.575-0.76c-0.83-0.008-1.655-0.086-2.486-0.063c-0.409,0.014-1.007,0.301-1.071,0.754
			C104.808,406.141,105.406,406.248,105.758,406.236L105.758,406.236z"/>
	</g>
</g>
<path fill="none" stroke="#000000" stroke-width="3" stroke-miterlimit="10" d="M89.935,403.26c-1.133-0.086-2.289,0.082-3.455,0.18
	c-0.859,0.08-2.681-0.041-3.384,0.25c-1.056,0.418-0.701,1.531-0.664,2.186c-0.003,0.801,0.297,1.551,0.608,2.373"/>
<path fill="none" stroke="#000000" stroke-width="3" stroke-miterlimit="10" d="M83.55,405.451
	c-0.107,0.117,0.853-0.115,1.094-0.166c-0.169,0.117-0.332,0.271-0.495,0.428c0.169-0.119,0.287-0.162,0.404-0.203
	c-0.479,0.533-1.064,1.186-1.408,1.785"/>
<path fill="none" stroke="#000000" stroke-width="3" stroke-miterlimit="10" d="M85.581,403.668
	c-1.739,0.018-2.224,0.518-1.952,1.486c0.455-0.277,0.653-0.615,0.846-0.99"/>
<path fill="none" stroke="#000000" stroke-width="3" stroke-miterlimit="10" d="M129.921,405.463
	c1.583,1.912,0.301,6.67-1.959,8.373c-2.471,1.883-9.794,2.088-13.243,0.92c-3.139-1.047-5.188-4.584-5.918-6.527
	c-0.391-1.223-0.744-3.332,1.146-4.172c1.51-0.674,5.209-0.574,7.08-0.621c3.746-0.096,10.171-0.076,12.372,2.086"/>
<path fill="none" stroke="#000000" stroke-width="3" stroke-miterlimit="10" d="M124.047,403.355
	c1.156-0.057,2.313,0.148,3.487,0.279c0.864,0.107,2.722,0.033,3.409,0.348c1.036,0.457,0.585,1.572,0.493,2.234
	c-0.063,0.814-0.43,1.564-0.813,2.389"/>
<path fill="none" stroke="#000000" stroke-width="3" stroke-miterlimit="10" d="M130.479,405.008c0.1,0.119-0.854-0.145-1.096-0.199
	c0.162,0.125,0.314,0.285,0.468,0.445c-0.161-0.123-0.277-0.17-0.394-0.217c0.441,0.557,0.98,1.23,1.279,1.852"/>
<path fill="none" stroke="#000000" stroke-width="3" stroke-miterlimit="10" d="M128.427,403.893
	c1.761,0.068,2.211,0.586,1.855,1.563c-0.438-0.295-0.611-0.643-0.775-1.029"/>
<path fill="none" stroke="#000000" stroke-width="3" stroke-miterlimit="10" d="M155.875,416.578
	c-1.711,1.838-0.83,6.555,1.256,8.293c2.281,1.924,9.477,2.328,12.965,1.271c3.174-0.943,5.475-4.369,6.35-6.26
	c0.48-1.193,0.998-3.262-0.795-4.141c-1.432-0.703-5.082-0.709-6.92-0.807c-3.68-0.197-10.006-0.354-12.346,1.711"/>
<path fill="none" stroke="#000000" stroke-width="3" stroke-miterlimit="10" d="M176.326,417.254
	c1.379-0.162,3.035-0.162,4.689-0.162"/>
<g>
	<g>
		<path d="M175.525,416.453c0.775,0.461,1.467,0.75,2.375,0.84c0.418,0.043,1.029-0.17,1.277-0.523
			c0.275-0.393-0.236-0.525-0.521-0.555c-0.596-0.059-1.088-0.389-1.59-0.686C176.533,415.213,174.746,415.992,175.525,416.453
			L175.525,416.453z"/>
	</g>
</g>
<g>
	<g>
		<path d="M175.107,416.297c0.531-0.021,0.746,0.299,1.154,0.572c0.646,0.434,1.412,0.342,2.139,0.193
			c0.26-0.053,0.945-0.334,0.844-0.713c-0.105-0.398-0.826-0.248-1.086-0.195c-0.139,0.029,0.229,0.035-0.059-0.016
			c-0.027-0.006-0.08-0.037-0.111-0.059c-0.172-0.115-0.316-0.268-0.48-0.393c-0.473-0.359-1.051-0.459-1.635-0.436
			c-0.438,0.018-1,0.139-1.277,0.516C174.33,416.131,174.818,416.309,175.107,416.297L175.107,416.297z"/>
	</g>
</g>
<g>
	<g>
		<path d="M177.65,417.641c0.664-0.02,1.326,0.053,1.99,0.061c0.463,0.004,1.027-0.123,1.262-0.578
			c0.207-0.402-0.18-0.756-0.574-0.76c-0.83-0.008-1.656-0.088-2.486-0.063c-0.408,0.012-1.008,0.299-1.072,0.754
			C176.699,417.545,177.299,417.65,177.65,417.641L177.65,417.641z"/>
	</g>
</g>
<path fill="none" stroke="#000000" stroke-width="3" stroke-miterlimit="10" d="M161.826,414.664
	c-1.133-0.088-2.289,0.082-3.455,0.18c-0.859,0.08-2.68-0.043-3.383,0.248c-1.057,0.42-0.701,1.531-0.664,2.186
	c-0.004,0.803,0.297,1.551,0.607,2.375"/>
<path fill="none" stroke="#000000" stroke-width="3" stroke-miterlimit="10" d="M155.441,416.855
	c-0.107,0.115,0.854-0.117,1.094-0.168c-0.168,0.117-0.332,0.273-0.494,0.428c0.168-0.119,0.287-0.16,0.404-0.203
	c-0.479,0.535-1.064,1.186-1.408,1.787"/>
<path fill="none" stroke="#000000" stroke-width="3" stroke-miterlimit="10" d="M157.473,415.072
	c-1.738,0.018-2.223,0.518-1.951,1.486c0.455-0.279,0.652-0.617,0.846-0.992"/>
<path fill="none" stroke="#000000" stroke-width="3" stroke-miterlimit="10" d="M201.813,416.865
	c1.584,1.914,0.301,6.672-1.959,8.373c-2.471,1.885-9.793,2.09-13.242,0.92c-3.139-1.045-5.188-4.584-5.918-6.527
	c-0.391-1.221-0.744-3.332,1.146-4.172c1.51-0.672,5.209-0.572,7.08-0.619c3.746-0.098,10.17-0.076,12.371,2.084"/>
<path fill="none" stroke="#000000" stroke-width="3" stroke-miterlimit="10" d="M195.939,414.758
	c1.156-0.057,2.313,0.148,3.486,0.279c0.865,0.107,2.723,0.035,3.41,0.35c1.035,0.455,0.584,1.572,0.492,2.234
	c-0.063,0.813-0.43,1.564-0.813,2.389"/>
<path fill="none" stroke="#000000" stroke-width="3" stroke-miterlimit="10" d="M202.371,416.41c0.1,0.119-0.854-0.145-1.096-0.199
	c0.162,0.125,0.314,0.287,0.469,0.447c-0.162-0.125-0.277-0.172-0.395-0.219c0.441,0.557,0.98,1.232,1.279,1.852"/>
<path fill="none" stroke="#000000" stroke-width="3" stroke-miterlimit="10" d="M200.318,415.297
	c1.762,0.066,2.211,0.584,1.855,1.561c-0.438-0.295-0.611-0.643-0.775-1.029"/>
</svg>
