<?xml version="1.0" encoding="utf-8"?>
<!-- Generator: Adobe Illustrator 15.0.0, SVG Export Plug-In  -->
<!DOCTYPE svg PUBLIC "-//W3C//DTD SVG 1.1//EN" "http://www.w3.org/Graphics/SVG/1.1/DTD/svg11.dtd" [
	<!ENTITY ns_flows "http://ns.adobe.com/Flows/1.0/">
]>
<svg version="1.1"
	 xmlns="http://www.w3.org/2000/svg" xmlns:xlink="http://www.w3.org/1999/xlink" xmlns:a="http://ns.adobe.com/AdobeSVGViewerExtensions/3.0/"
	 x="0px" y="0px" width="300px" height="100px" viewBox="-10.254 -10.779 300 100" enable-background="new -10.254 -10.779 300 100"
	 xml:space="preserve">
<defs>
</defs>
<g>
	<path fill="#FFFFFF" d="M15.123,61.129c-3.175,0-5.78-0.918-7.744-2.727c-2.021-1.863-3.047-4.399-3.047-7.537
		c0-0.546,0.036-1.119,0.105-1.704c0.151-1.257,1.217-2.202,2.482-2.202h5.127c1.381,0,2.5,1.119,2.5,2.5
		c0,1.149,0.125,1.396,1.455,1.396c1.891,0,3.332-0.358,4.165-1.036c0.05-0.042,1.257-1.119,2.455-7.996l4.776-27.134
		c0.21-1.195,1.249-2.066,2.462-2.066h5.859c0.739,0,1.439,0.327,1.915,0.892c0.475,0.565,0.675,1.313,0.548,2.04L33.464,42.45
		c-1.166,6.696-2.949,11.328-5.453,14.159C25.358,59.609,21.022,61.129,15.123,61.129z"/>
	<path fill="#EF4136" d="M35.719,15.124l-4.717,26.895c-1.074,6.172-2.695,10.483-4.863,12.935s-5.84,3.677-11.016,3.677
		c-2.539,0-4.556-0.688-6.05-2.065s-2.241-3.276-2.241-5.698c0-0.449,0.029-0.918,0.088-1.406h5.127
		c0,2.598,1.318,3.896,3.955,3.896c2.52,0,4.434-0.532,5.742-1.597c1.308-1.064,2.421-4.233,3.34-9.507l4.775-27.129H35.719
		 M35.719,10.124h-5.859c-2.427,0-4.503,1.743-4.924,4.133L20.16,41.385c-0.771,4.425-1.495,6.104-1.76,6.607
		c-0.263,0.123-0.743,0.261-1.483,0.326c-0.516-2.212-2.5-3.859-4.869-3.859H6.92c-2.531,0-4.663,1.892-4.964,4.404
		c-0.082,0.683-0.124,1.356-0.124,2.002c0,4.813,2.095,7.755,3.853,9.375c2.439,2.249,5.615,3.389,9.438,3.389
		c6.646,0,11.613-1.805,14.761-5.364c2.819-3.188,4.796-8.222,6.044-15.39l4.716-26.888c0.255-1.455-0.146-2.948-1.096-4.08
		C38.598,10.777,37.196,10.124,35.719,10.124L35.719,10.124z"/>
</g>
<g>
	<path fill="#FFFFFF" d="M49.723,61.129c-4.465,0-7.993-1.332-10.485-3.958c-2.458-2.589-3.704-6.18-3.704-10.671
		c0-6.172,1.847-11.555,5.488-15.999c3.764-4.593,8.624-6.921,14.443-6.921c4.49,0,8.029,1.293,10.52,3.844
		c2.474,2.536,3.729,6.075,3.729,10.521c0,3.291-0.659,6.737-1.958,10.243c-1.357,3.665-3.607,6.754-6.685,9.181
		C57.907,59.865,54.089,61.129,49.723,61.129z M54.674,33.122c-1.602,0-2.983,0.565-4.224,1.727
		c-1.396,1.309-2.386,2.963-3.023,5.057c-0.687,2.252-1.034,4.353-1.034,6.244c0,5.02,2.143,5.439,4.15,5.439
		c2.417,0,4.238-1.145,5.729-3.602c1.693-2.791,2.552-6.091,2.552-9.807C58.824,33.968,57.236,33.122,54.674,33.122z"/>
	<path fill="#EF4136" d="M55.465,26.081c3.809,0,6.719,1.03,8.73,3.091c2.011,2.061,3.018,4.985,3.018,8.774
		c0,3.008-0.601,6.133-1.802,9.375s-3.164,5.938-5.889,8.086s-5.991,3.223-9.8,3.223c-3.77,0-6.661-1.06-8.672-3.179
		c-2.012-2.119-3.018-5.103-3.018-8.95c0-5.605,1.641-10.41,4.922-14.414C46.236,28.083,50.406,26.081,55.465,26.081 M50.543,54.088
		c3.3,0,5.922-1.602,7.866-4.805c1.943-3.203,2.915-6.904,2.915-11.104c0-5.039-2.217-7.559-6.65-7.559
		c-2.246,0-4.224,0.801-5.933,2.402c-1.709,1.602-2.944,3.652-3.706,6.152S43.893,44,43.893,46.149
		C43.893,51.442,46.109,54.088,50.543,54.088 M55.465,21.081c-6.512,0-12.175,2.71-16.377,7.836
		c-4.018,4.902-6.055,10.818-6.055,17.583c0,5.153,1.478,9.323,4.391,12.393c2.983,3.143,7.121,4.736,12.298,4.736
		c4.941,0,9.28-1.445,12.896-4.297c3.445-2.716,5.962-6.173,7.481-10.274c1.402-3.785,2.113-7.523,2.113-11.112
		c0-5.121-1.494-9.248-4.439-12.267C64.794,22.627,60.653,21.081,55.465,21.081L55.465,21.081z M50.543,49.088
		c-1.133,0-1.65,0-1.65-2.939c0-1.645,0.312-3.5,0.925-5.516c0.507-1.664,1.273-2.959,2.342-3.96
		c0.787-0.737,1.539-1.051,2.514-1.051c0.797,0,1.169,0.144,1.237,0.195c0,0,0.414,0.511,0.414,2.364c0,3.298-0.716,6.081-2.19,8.51
		C52.855,48.797,51.652,49.088,50.543,49.088L50.543,49.088z"/>
</g>
<g>
	<path fill="#FFFFFF" d="M117.896,61.129c-1.22,0-2.262-0.88-2.465-2.083l-3.067-18.131l-6.654,17.995
		c-0.363,0.981-1.298,1.633-2.345,1.633h-5.566c-0.813,0-1.575-0.395-2.043-1.06c-0.468-0.664-0.585-1.514-0.312-2.279l15.293-42.92
		c0.355-0.996,1.298-1.661,2.355-1.661h2.959c1.233,0,2.282,0.899,2.471,2.118l3.462,22.387l11.608-23.126
		c0.424-0.845,1.289-1.378,2.234-1.378h3.076c1.354,0,2.461,1.077,2.499,2.43l1.201,42.919c0.019,0.675-0.236,1.329-0.707,1.813
		c-0.471,0.483-1.117,0.757-1.792,0.757h-5.889c-1.359,0-2.469-1.086-2.5-2.445l-0.373-16.88l-9.769,18.575
		c-0.433,0.821-1.284,1.336-2.213,1.336H117.896z"/>
	<path fill="#EF4136" d="M138.902,15.124l1.201,42.92h-5.889L133.629,31.5l-14.268,27.129h-1.465l-4.629-27.363l-9.902,26.777
		h-5.566l15.293-42.92h2.959l4.658,30.117l15.117-30.117H138.902 M138.902,10.124h-3.076c-1.891,0-3.62,1.067-4.469,2.757
		l-8.099,16.135l-2.267-14.656c-0.377-2.438-2.475-4.236-4.941-4.236h-2.959c-2.114,0-4,1.33-4.71,3.322l-15.293,42.92
		c-0.545,1.53-0.313,3.231,0.624,4.56c0.937,1.328,2.46,2.118,4.086,2.118h5.566c2.093,0,3.964-1.303,4.689-3.266l3.407-9.212
		l1.505,8.897c0.407,2.405,2.491,4.166,4.93,4.166h1.465c1.857,0,3.561-1.029,4.425-2.673l5.27-10.021l0.159,7.218
		c0.06,2.718,2.281,4.89,4.999,4.89h5.889c1.351,0,2.644-0.546,3.585-1.515c0.941-0.968,1.451-2.275,1.413-3.625l-1.201-42.92
		C143.824,12.278,141.609,10.124,138.902,10.124L138.902,10.124z"/>
</g>
<g>
	<path fill="#FFFFFF" d="M157.184,61.129c-4.465,0-7.992-1.331-10.485-3.957c-2.458-2.59-3.704-6.181-3.704-10.672
		c0-6.172,1.847-11.555,5.488-15.999c3.764-4.593,8.624-6.921,14.443-6.921c4.489,0,8.029,1.293,10.52,3.844
		c2.474,2.535,3.729,6.075,3.729,10.521c0,3.291-0.658,6.737-1.957,10.243c-1.358,3.665-3.607,6.754-6.686,9.181
		C165.368,59.865,161.55,61.129,157.184,61.129z M162.135,33.122c-1.602,0-2.983,0.565-4.224,1.727
		c-1.396,1.309-2.386,2.963-3.023,5.057c-0.687,2.252-1.034,4.353-1.034,6.244c0,5.02,2.143,5.439,4.15,5.439
		c2.418,0,4.238-1.145,5.729-3.602c1.694-2.791,2.553-6.091,2.553-9.807C166.285,33.968,164.697,33.122,162.135,33.122z"/>
	<path fill="#EF4136" d="M162.926,26.081c3.809,0,6.719,1.03,8.73,3.091c2.012,2.061,3.018,4.985,3.018,8.774
		c0,3.008-0.601,6.133-1.802,9.375s-3.164,5.938-5.889,8.086s-5.991,3.223-9.8,3.223c-3.77,0-6.66-1.06-8.672-3.179
		s-3.018-5.103-3.018-8.95c0-5.605,1.641-10.41,4.922-14.414C153.697,28.083,157.867,26.081,162.926,26.081 M158.004,54.088
		c3.301,0,5.923-1.602,7.866-4.805s2.915-6.904,2.915-11.104c0-5.039-2.217-7.559-6.65-7.559c-2.246,0-4.224,0.801-5.933,2.402
		c-1.709,1.602-2.944,3.652-3.706,6.152s-1.143,4.824-1.143,6.973C151.354,51.442,153.57,54.088,158.004,54.088 M162.926,21.081
		c-6.512,0-12.175,2.71-16.377,7.836c-4.018,4.902-6.055,10.818-6.055,17.583c0,5.153,1.478,9.323,4.392,12.393
		c2.983,3.143,7.121,4.736,12.298,4.736c4.941,0,9.28-1.445,12.896-4.297c3.444-2.716,5.962-6.173,7.481-10.274
		c1.402-3.785,2.113-7.523,2.113-11.112c0-5.122-1.494-9.249-4.439-12.267C172.255,22.627,168.114,21.081,162.926,21.081
		L162.926,21.081z M158.004,49.088c-1.133,0-1.65,0-1.65-2.939c0-1.645,0.312-3.5,0.926-5.516c0.507-1.664,1.272-2.959,2.342-3.961
		c0.786-0.736,1.538-1.051,2.514-1.051c0.797,0,1.169,0.144,1.236,0.195c0.001,0,0.414,0.511,0.414,2.364
		c0,3.298-0.716,6.081-2.189,8.51C160.316,48.797,159.113,49.088,158.004,49.088L158.004,49.088z"/>
</g>
<g>
	<path fill="#FFFFFF" d="M189.615,61.129c-3.7,0-7.549-0.556-10.635-4.583c-2.02-2.635-2.567-5.817-1.893-10.984
		c0.004-0.036,0.01-0.072,0.016-0.108l5.625-32.08c0.21-1.196,1.249-2.068,2.463-2.068h5.391c0.732,0,1.429,0.321,1.903,0.879
		s0.682,1.296,0.564,2.019l-1.613,10.005c1.224-0.392,2.664-0.628,4.36-0.628c4.092,0,7.527,1.542,10.21,4.581
		c2.602,2.949,3.921,6.882,3.921,11.688c0,5.556-1.941,10.525-5.771,14.771C200.261,58.939,195.368,61.129,189.615,61.129z
		 M187.022,50.25c0.391,0.401,0.699,0.718,1.062,0.918c0.478,0.264,0.921,0.392,1.355,0.392c2.539,0,4.667-1.128,6.508-3.448
		c1.982-2.498,2.945-5.047,2.945-7.792c0-6.197-2.854-7.051-5.938-7.051c-1.2,0-2.364,0.944-3.463,2.808
		c-1.824,6.019-3.013,12.378-2.629,14.01C186.916,50.14,186.969,50.195,187.022,50.25z"/>
	<path fill="#EF4136" d="M190.582,13.805l-2.607,16.172c1.465-2.597,4.072-3.896,7.822-3.896c3.359,0,6.138,1.245,8.335,3.735
		s3.296,5.835,3.296,10.034c0,4.941-1.709,9.307-5.127,13.096s-7.646,5.684-12.686,5.684c-3.184,0-6.202-0.408-8.65-3.604
		c-1.406-1.835-2.052-4.138-1.398-9.141l5.625-32.08H190.582 M189.439,54.059c3.32,0,6.143-1.465,8.467-4.395
		s3.486-6.045,3.486-9.346c0-6.367-2.813-9.551-8.438-9.551c-2.227,0-4.15,1.436-5.771,4.307c0,0-4.438,14.459-2.285,16.582
		c0.579,0.571,1.128,1.23,1.978,1.699S188.58,54.059,189.439,54.059 M190.582,8.805h-5.391c-2.429,0-4.506,1.745-4.925,4.136
		l-5.625,32.081c-0.013,0.071-0.023,0.144-0.033,0.216c-0.77,5.896-0.078,9.612,2.388,12.829c4.262,5.563,10.118,5.563,12.619,5.563
		c6.491,0,12.008-2.468,16.398-7.335c4.256-4.718,6.414-10.251,6.414-16.444c0-5.434-1.529-9.923-4.547-13.342
		c-3.133-3.55-7.312-5.427-12.084-5.427c-0.459,0-0.901,0.015-1.33,0.043l1.052-6.522c0.233-1.446-0.18-2.922-1.13-4.038
		C193.438,9.448,192.047,8.805,190.582,8.805L190.582,8.805z M191.793,37.104c0.601-0.952,1.058-1.295,1.184-1.341
		c1.899,0.005,3.416,0.005,3.416,4.556c0,2.159-0.786,4.199-2.403,6.238c-1.745,2.199-3.33,2.497-4.521,2.502
		c-0.023-0.007-0.079-0.027-0.171-0.077C189.343,46.844,190.397,41.776,191.793,37.104L191.793,37.104z"/>
</g>
<g>
	<path fill="#FFFFFF" d="M213.023,60.543c-0.739,0-1.441-0.327-1.916-0.895c-0.476-0.566-0.675-1.315-0.545-2.043l4.224-23.752
		h-1.177c-0.759,0-1.477-0.344-1.95-0.937c-0.475-0.592-0.655-1.367-0.49-2.107l1.025-4.6c0.255-1.143,1.27-1.956,2.44-1.956h9.58
		c0.739,0,1.44,0.327,1.916,0.894c0.475,0.566,0.675,1.314,0.546,2.042l-5.537,31.289c-0.212,1.194-1.249,2.064-2.462,2.064H213.023
		z"/>
	<path fill="#EF4136" d="M224.215,26.754l-5.537,31.289h-5.654l4.746-26.689h-4.16l1.025-4.6H224.215 M224.215,21.754h-9.58
		c-2.342,0-4.37,1.626-4.88,3.912l-1.025,4.6c-0.33,1.481,0.029,3.031,0.979,4.215c0.57,0.711,1.316,1.244,2.15,1.556l-3.758,21.131
		c-0.259,1.456,0.141,2.952,1.09,4.086c0.95,1.134,2.354,1.789,3.833,1.789h5.654c2.426,0,4.501-1.74,4.924-4.129l5.537-31.289
		c0.257-1.456-0.143-2.951-1.093-4.084S225.693,21.754,224.215,21.754L224.215,21.754z"/>
</g>
<g>
	<path fill="#FFFFFF" d="M222.018,24.625c-1.726,0-3.285-0.639-4.51-1.849c-1.234-1.217-1.887-2.78-1.887-4.519
		c0-1.757,0.652-3.33,1.887-4.548c1.226-1.209,2.785-1.849,4.51-1.849s3.284,0.639,4.51,1.848c1.234,1.219,1.887,2.792,1.887,4.548
		c0,1.739-0.652,3.301-1.887,4.519C225.303,23.986,223.743,24.625,222.018,24.625z"/>
	<path fill="#EF4136" d="M222.018,14.362c1.074,0,1.992,0.376,2.754,1.128c0.762,0.752,1.143,1.675,1.143,2.769
		c0,1.074-0.381,1.988-1.143,2.739c-0.762,0.752-1.68,1.128-2.754,1.128s-1.992-0.376-2.754-1.128
		c-0.762-0.751-1.143-1.665-1.143-2.739c0-1.094,0.381-2.017,1.143-2.769C220.025,14.738,220.943,14.362,222.018,14.362
		 M222.018,9.362c-2.396,0-4.563,0.888-6.266,2.568c-1.722,1.7-2.631,3.888-2.631,6.328c0,2.422,0.91,4.601,2.631,6.299
		c1.702,1.68,3.869,2.568,6.266,2.568s4.563-0.889,6.267-2.57c1.72-1.697,2.63-3.875,2.63-6.297c0-2.44-0.909-4.628-2.63-6.327
		C226.58,10.25,224.413,9.362,222.018,9.362L222.018,9.362z"/>
</g>
<g>
	<path fill="#FFFFFF" d="M241.061,61.129c-10.357,0-11.904-5.935-11.904-9.473c0-1.013,0.157-3.14,1.514-9.896l5.624-28.44
		c0.231-1.171,1.259-2.015,2.452-2.015h5.801c0.749,0,1.459,0.336,1.934,0.916c0.476,0.58,0.665,1.342,0.518,2.076l-5.361,26.719
		c-1.41,7.027-1.621,9.242-1.621,9.938c0,0.715,0,1.074,1.689,1.074c0.73,0,1.425,0.319,1.9,0.875
		c0.475,0.556,0.683,1.291,0.569,2.013l-0.645,4.102C243.339,60.234,242.291,61.129,241.061,61.129z"/>
	<path fill="#EF4136" d="M244.547,13.805l-5.361,26.719c-1.113,5.547-1.67,9.023-1.67,10.43c0,2.383,1.396,3.574,4.189,3.574
		l-0.645,4.102c-6.27,0-9.404-2.324-9.404-6.973c0-1.406,0.488-4.541,1.465-9.404l5.625-28.447H244.547 M244.547,8.805h-5.801
		c-2.388,0-4.441,1.688-4.905,4.03l-5.625,28.447c-1.382,6.883-1.56,9.16-1.56,10.374c0,2.809,1.039,11.973,14.404,11.973
		c2.462,0,4.558-1.792,4.939-4.224l0.645-4.102c0.227-1.444-0.189-2.915-1.14-4.026c-0.743-0.869-1.755-1.449-2.859-1.661
		c0.169-1.292,0.557-3.695,1.442-8.108l5.361-26.719c0.295-1.469-0.085-2.994-1.034-4.153
		C247.465,9.477,246.045,8.805,244.547,8.805L244.547,8.805z"/>
</g>
<g>
	<path fill="#FFFFFF" d="M261.773,61.129c-9.434,0-14.629-5.716-14.629-16.094c0-5.959,1.94-11.067,5.768-15.18
		c3.875-4.164,8.808-6.275,14.662-6.275c3.623,0,6.617,0.828,8.896,2.459c2.505,1.793,3.828,4.461,3.828,7.716
		c0,4.218-1.877,7.729-5.427,10.151c-3.3,2.252-7.353,3.394-12.044,3.394c-1.745,0-3.366-0.187-4.851-0.556
		c0.119,1.459,0.569,2.548,1.366,3.313c0.971,0.931,2.389,1.384,4.334,1.384c1.756,0,3.608-0.697,5.505-2.073l4.528-3.282
		l-1.325,12.855l-1.535,0.508C267.486,60.564,264.433,61.129,261.773,61.129z M260.148,37.561c0.557,0.074,1.147,0.112,1.771,0.112
		c2.634,0,4.766-0.406,6.335-1.207c1.35-0.688,1.536-1.414,1.536-2.094c0-0.466,0-1.104-2.48-1.104
		C265.197,33.268,262.316,33.767,260.148,37.561z"/>
	<path fill="#EF4136" d="M267.574,26.081c3.105,0,5.586,0.664,7.441,1.992c1.855,1.329,2.783,3.223,2.783,5.684
		c0,3.418-1.445,6.113-4.336,8.086s-6.436,2.959-10.635,2.959c-2.813,0-5.186-0.527-7.119-1.582
		c-0.176,0.938-0.264,1.836-0.264,2.695c0,2.578,0.723,4.561,2.168,5.947s3.467,2.08,6.064,2.08c2.305,0,4.629-0.85,6.973-2.549
		l-0.586,5.684c-3.125,1.035-5.889,1.553-8.291,1.553c-8.086,0-12.129-4.531-12.129-13.594c0-5.332,1.699-9.824,5.098-13.477
		C258.141,27.907,262.418,26.081,267.574,26.081 M261.92,40.172c3.047,0,5.537-0.493,7.471-1.479c1.934-0.986,2.9-2.427,2.9-4.321
		c0-2.402-1.66-3.604-4.98-3.604c-5.059,0-8.604,2.803-10.635,8.408C258.16,39.84,259.908,40.172,261.92,40.172 M267.574,21.081
		c-6.576,0-12.125,2.379-16.492,7.072c-4.271,4.591-6.438,10.271-6.438,16.883c0,11.816,6.243,18.594,17.129,18.594
		c2.927,0,6.245-0.607,9.863-1.807l3.069-1.017l0.332-3.217l0.586-5.684l0.608-5.9c0.017-0.011,0.032-0.022,0.049-0.033
		c4.264-2.909,6.518-7.134,6.518-12.216c0-4.095-1.685-7.466-4.872-9.749C275.213,22.065,271.73,21.081,267.574,21.081
		L267.574,21.081z"/>
</g>
<g>
	<path fill="#FFFFFF" d="M44.157,73.816c-13.292,0-26.783-0.518-34.031-0.795C7.515,72.92,5.629,72.848,5,72.848
		c-0.937,0-1.795-0.523-2.223-1.356s-0.355-1.835,0.189-2.598l4-5.596C7.436,62.642,8.193,62.252,9,62.252
		c0.613,0,2.089,0.094,5.103,0.289c7.731,0.5,22.122,1.431,35.457,1.431c18.537,0,24.124-1.849,25.804-2.951
		c0.468-0.307,0.887-0.741,1.253-1.301c-2.244-1.458-3.767-4.558-4.546-9.267l-3.925-23.373c-0.122-0.725,0.082-1.467,0.557-2.029
		s1.173-0.885,1.909-0.885h6.064c1.236,0,2.286,0.903,2.472,2.125l3.155,20.772L96.953,13.35c0.151-0.348,0.376-0.65,0.652-0.89
		c1.247-2.565,3.064-5.411,6.097-6.732c4.98-2.171,16.748-3.227,35.975-3.227c13.292,0,26.786,0.518,34.034,0.796
		c2.611,0.1,4.498,0.172,5.127,0.172c0.937,0,1.795,0.523,2.223,1.356c0.429,0.833,0.355,1.835-0.188,2.597l-4,5.596
		c-0.47,0.657-1.228,1.046-2.034,1.046c-0.613,0-2.09-0.094-5.104-0.289c-7.73-0.5-22.121-1.432-35.457-1.432
		c-18.536,0-24.122,1.849-25.803,2.951c-0.272,0.179-0.529,0.407-0.781,0.695L86.721,62.815c-1.269,2.836-3.164,6.282-6.585,7.773
		C75.155,72.76,63.386,73.816,44.157,73.816z"/>
	<path fill="#EF4136" d="M139.677,5c18.16,0,36.66,0.968,39.161,0.968l-4,5.596c-2.175,0-22.49-1.72-40.561-1.72
		c-12.119,0-23.231,0.774-27.174,3.361c-0.592,0.388-1.103,0.883-1.553,1.454L84.439,61.793c-1.329,2.969-2.923,5.466-5.303,6.504
		c-5.432,2.368-20.092,3.019-34.979,3.019C25.999,71.316,7.5,70.348,5,70.348l4-5.596c2.174,0,22.49,1.72,40.56,1.72
		c12.121,0,23.231-0.773,27.175-3.36c1.568-1.028,2.617-2.734,3.281-4.922c-2.754,0-4.581-2.715-5.479-8.145l-3.926-23.379h6.064
		l3.457,22.764c0.332,2.246,1.132,3.369,2.402,3.369l16.711-38.453l0.238-0.004c1.312-2.887,2.887-5.307,5.217-6.323
		C110.133,5.65,124.79,5,139.677,5 M139.677,0c-26.079,0-33.592,1.961-36.975,3.436c-3.605,1.571-5.772,4.81-7.152,7.542
		c-0.364,0.4-0.667,0.862-0.89,1.376L83.47,38.104l-1.851-12.188c-0.371-2.444-2.472-4.25-4.943-4.25h-6.064
		c-1.471,0-2.867,0.647-3.817,1.771c-0.95,1.123-1.357,2.607-1.114,4.058l3.926,23.379c0.656,3.968,1.803,6.714,3.184,8.588
		c-2.279,0.772-8.266,2.011-23.23,2.011c-13.254,0-27.592-0.928-35.295-1.426C11.033,59.837,9.694,59.752,9,59.752
		c-1.614,0-3.129,0.779-4.067,2.093l-4,5.596c-1.089,1.523-1.236,3.528-0.379,5.194S3.127,75.348,5,75.348
		c0.581,0,2.544,0.075,5.03,0.171c7.265,0.278,20.787,0.797,34.127,0.797c26.081,0,33.595-1.96,36.978-3.436
		c4.255-1.855,6.528-6.051,7.868-9.045l20.786-46.409c0.021-0.017,0.039-0.03,0.055-0.041c0.649-0.425,4.868-2.542,24.433-2.542
		c13.255,0,27.593,0.928,35.296,1.426c3.231,0.209,4.57,0.294,5.265,0.294c1.614,0,3.129-0.779,4.067-2.092l4-5.596
		c1.09-1.524,1.235-3.529,0.379-5.195s-2.573-2.713-4.446-2.713c-0.581,0-2.545-0.075-5.031-0.171
		C166.541,0.519,153.018,0,139.677,0L139.677,0z"/>
</g>
</svg>
