<?xml version="1.0" encoding="utf-8"?>
<!-- Generator: Adobe Illustrator 15.0.0, SVG Export Plug-In . SVG Version: 6.00 Build 0)  -->
<!DOCTYPE svg PUBLIC "-//W3C//DTD SVG 1.1//EN" "http://www.w3.org/Graphics/SVG/1.1/DTD/svg11.dtd">
<svg version="1.1" id="Layer_1" xmlns="http://www.w3.org/2000/svg" xmlns:xlink="http://www.w3.org/1999/xlink" x="0px" y="0px"
	 width="600px" height="300px" viewBox="0 0 600 300" enable-background="new 0 0 600 300" xml:space="preserve">
<g opacity="0.61">
	<g>
		<path fill="none" stroke="#F1F2F2" stroke-width="6" stroke-linejoin="round" d="M387.77,235.744
			c-0.006,1.137-0.459,1.631-1.357,1.484l-8.783-1.405c-0.838-0.134-1.253-0.767-1.245-1.902l0.792-13.017l-5.984-0.959
			l-2.334,12.771c-0.265,1.097-0.815,1.573-1.649,1.438l-8.782-1.404c-0.9-0.145-1.22-0.762-0.955-1.855l16.963-79.064
			c0.264-1.094,0.846-1.57,1.748-1.424l12.738,2.039c0.898,0.143,1.348,0.781,1.34,1.918L387.77,235.744z M378.021,207.411
			l2.09-32.646l-0.772-0.123l-5.755,32.058L378.021,207.411z"/>
		<path fill="none" stroke="#F1F2F2" stroke-width="6" stroke-linejoin="round" d="M425.189,172.125l-1.287,10.625
			c-0.136,1.115-0.654,1.6-1.554,1.455l-6.852-1.098l-6.787,55.99c-0.136,1.114-0.653,1.6-1.556,1.454l-8.588-1.375
			c-0.321-0.052-0.607-0.261-0.859-0.625c-0.251-0.362-0.348-0.784-0.29-1.263l6.789-55.989l-6.756-1.082
			c-0.901-0.145-1.284-0.772-1.149-1.888l1.289-10.624c0.135-1.114,0.653-1.601,1.555-1.455l24.897,3.985
			C424.941,170.38,425.325,171.011,425.189,172.125z"/>
		<path fill="none" stroke="#F1F2F2" stroke-width="6" stroke-linejoin="round" d="M457.615,177.318l-1.288,10.623
			c-0.136,1.115-0.654,1.601-1.555,1.455l-6.852-1.099l-6.788,55.99c-0.136,1.114-0.653,1.601-1.554,1.455l-8.589-1.374
			c-0.323-0.053-0.607-0.26-0.859-0.626c-0.251-0.363-0.347-0.785-0.289-1.263l6.788-55.989l-6.755-1.081
			c-0.902-0.146-1.284-0.773-1.148-1.889l1.287-10.625c0.136-1.113,0.652-1.599,1.556-1.455l24.896,3.986
			C457.366,175.573,457.749,176.205,457.615,177.318z"/>
		<path fill="none" stroke="#F1F2F2" stroke-width="6" stroke-linejoin="round" d="M481.182,250.702
			c-0.007,1.136-0.46,1.63-1.36,1.485l-8.781-1.405c-0.837-0.134-1.252-0.767-1.245-1.903l0.646-11.822l-5.983-0.959l-2.19,11.575
			c-0.266,1.095-0.813,1.573-1.649,1.438l-8.78-1.403c-0.903-0.146-1.222-0.763-0.956-1.858l15.517-67.125
			c0.263-1.094,0.846-1.57,1.747-1.424l12.736,2.038c0.9,0.144,1.349,0.785,1.343,1.919L481.182,250.702z M471.289,223.561
			l1.366-26.677l-0.773-0.124l-5.032,26.092L471.289,223.561z"/>
		<path fill="none" stroke="#F1F2F2" stroke-width="6" stroke-linejoin="round" d="M515.576,185.258
			c1.383,1.034,2.539,2.315,3.469,3.842c0.93,1.53,1.605,3.26,2.026,5.193c0.421,1.936,0.508,3.936,0.257,6.005l-0.868,7.161
			c-0.136,1.116-0.643,1.766-1.516,1.948l-8.983,0.265c-0.876,0.186-1.246-0.277-1.11-1.395l1.115-9.19
			c0.097-0.796-0.049-1.51-0.431-2.139c-0.384-0.628-0.897-0.996-1.539-1.099l-0.771-0.125c-0.644-0.103-1.225,0.092-1.742,0.573
			c-0.519,0.486-0.824,1.128-0.921,1.923l-5.096,42.021c-0.097,0.799,0.047,1.511,0.431,2.139c0.382,0.63,0.896,0.995,1.538,1.099
			l0.772,0.123c0.643,0.104,1.224-0.088,1.741-0.572c0.519-0.483,0.826-1.125,0.922-1.92l1.736-14.327
			c0.136-1.112,0.602-1.443,1.399-0.992l8.608,2.839c0.796,0.453,1.127,1.234,0.993,2.35l-1.521,12.535
			c-0.251,2.069-0.811,3.969-1.675,5.694c-0.866,1.729-1.928,3.183-3.186,4.356c-1.258,1.181-2.676,2.047-4.251,2.606
			c-1.575,0.558-3.2,0.704-4.873,0.437l-3.667-0.586c-1.673-0.27-3.199-0.92-4.583-1.953c-1.386-1.03-2.541-2.312-3.47-3.84
			c-0.931-1.528-1.604-3.258-2.025-5.192c-0.424-1.933-0.508-3.933-0.258-6.005l5.239-43.215c0.251-2.068,0.81-3.967,1.676-5.695
			c0.863-1.727,1.927-3.178,3.184-4.355c1.259-1.179,2.674-2.047,4.252-2.607c1.575-0.557,3.199-0.703,4.873-0.436l3.667,0.588
			C512.664,183.576,514.192,184.227,515.576,185.258z"/>
		<path fill="none" stroke="#F1F2F2" stroke-width="6" stroke-linejoin="round" d="M561.683,192.825
			c0.083,0.378,0.038,0.758-0.139,1.134L544.729,222.3l8.344,39.914c0.08,0.42,0.001,0.79-0.233,1.118
			c-0.237,0.326-0.548,0.46-0.933,0.398l-9.555-1.53c-0.387-0.062-0.725-0.257-1.012-0.589c-0.289-0.327-0.474-0.702-0.553-1.122
			l-4.642-20.945l-2.104,3.558l-1.911,15.758c-0.134,1.117-0.651,1.601-1.553,1.457l-8.588-1.375
			c-0.901-0.146-1.283-0.772-1.149-1.889l8.278-68.285c0.136-1.113,0.652-1.6,1.555-1.455l8.589,1.375
			c0.898,0.145,1.283,0.772,1.148,1.888l-2.535,20.892l11.441-19.708c0.438-0.903,1.105-1.284,2.007-1.139l9.651,1.545
			C561.36,192.225,561.596,192.445,561.683,192.825z"/>
	</g>
	<g>
		
			<linearGradient id="SVGID_1_" gradientUnits="userSpaceOnUse" x1="548.1865" y1="13.6172" x2="581.2637" y2="13.6172" gradientTransform="matrix(0.9201 0.1282 0.138 -0.9904 -143.2914 134.4735)">
			<stop  offset="0" style="stop-color:#FFFFFF"/>
			<stop  offset="1" style="stop-color:#F15A29"/>
		</linearGradient>
		<path fill="url(#SVGID_1_)" d="M387.77,235.744c-0.006,1.137-0.459,1.631-1.357,1.484l-8.783-1.405
			c-0.838-0.134-1.253-0.767-1.245-1.902l0.792-13.017l-5.984-0.959l-2.334,12.771c-0.265,1.097-0.815,1.573-1.649,1.438
			l-8.782-1.404c-0.9-0.145-1.22-0.762-0.955-1.855l16.963-79.064c0.264-1.094,0.846-1.57,1.748-1.424l12.738,2.039
			c0.898,0.143,1.348,0.781,1.34,1.918L387.77,235.744z M378.021,207.411l2.09-32.646l-0.772-0.123l-5.755,32.058L378.021,207.411z"
			/>
		
			<linearGradient id="SVGID_2_" gradientUnits="userSpaceOnUse" x1="581.5908" y1="7.1406" x2="611.8809" y2="7.1406" gradientTransform="matrix(0.9201 0.1282 0.138 -0.9904 -143.2914 134.4735)">
			<stop  offset="0" style="stop-color:#FFFFFF"/>
			<stop  offset="1" style="stop-color:#F15A29"/>
		</linearGradient>
		<path fill="url(#SVGID_2_)" d="M425.189,172.125l-1.287,10.625c-0.136,1.115-0.654,1.6-1.554,1.455l-6.852-1.098l-6.787,55.99
			c-0.136,1.114-0.653,1.6-1.556,1.454l-8.588-1.375c-0.321-0.052-0.607-0.261-0.859-0.625c-0.251-0.362-0.348-0.784-0.29-1.263
			l6.789-55.989l-6.756-1.082c-0.901-0.145-1.284-0.772-1.149-1.888l1.289-10.624c0.135-1.114,0.653-1.601,1.555-1.455l24.897,3.985
			C424.941,170.38,425.325,171.011,425.189,172.125z"/>
		
			<linearGradient id="SVGID_3_" gradientUnits="userSpaceOnUse" x1="616.9307" y1="6.4736" x2="647.2207" y2="6.4736" gradientTransform="matrix(0.9201 0.1282 0.138 -0.9904 -143.2914 134.4735)">
			<stop  offset="0" style="stop-color:#FFFFFF"/>
			<stop  offset="1" style="stop-color:#F15A29"/>
		</linearGradient>
		<path fill="url(#SVGID_3_)" d="M457.615,177.318l-1.288,10.623c-0.136,1.115-0.654,1.601-1.555,1.455l-6.852-1.099l-6.788,55.99
			c-0.136,1.114-0.653,1.601-1.554,1.455l-8.589-1.374c-0.323-0.053-0.607-0.26-0.859-0.626c-0.251-0.363-0.347-0.785-0.289-1.263
			l6.788-55.989l-6.755-1.081c-0.902-0.146-1.284-0.773-1.148-1.889l1.287-10.625c0.136-1.113,0.652-1.599,1.556-1.455l24.896,3.986
			C457.366,175.573,457.749,176.205,457.615,177.318z"/>
		
			<linearGradient id="SVGID_4_" gradientUnits="userSpaceOnUse" x1="649.9971" y1="5.6816" x2="683.0762" y2="5.6816" gradientTransform="matrix(0.9201 0.1282 0.138 -0.9904 -143.2914 134.4735)">
			<stop  offset="0" style="stop-color:#FFFFFF"/>
			<stop  offset="1" style="stop-color:#F15A29"/>
		</linearGradient>
		<path fill="url(#SVGID_4_)" d="M481.182,250.702c-0.007,1.136-0.46,1.63-1.36,1.485l-8.781-1.405
			c-0.837-0.134-1.252-0.767-1.245-1.903l0.646-11.822l-5.983-0.959l-2.19,11.575c-0.266,1.095-0.813,1.573-1.649,1.438l-8.78-1.403
			c-0.903-0.146-1.222-0.763-0.956-1.858l15.517-67.125c0.263-1.094,0.846-1.57,1.747-1.424l12.736,2.038
			c0.9,0.144,1.349,0.785,1.343,1.919L481.182,250.702z M471.289,223.561l1.366-26.677l-0.773-0.124l-5.032,26.092L471.289,223.561z
			"/>
		
			<linearGradient id="SVGID_5_" gradientUnits="userSpaceOnUse" x1="687.8467" y1="5.0479" x2="719.1904" y2="5.0479" gradientTransform="matrix(0.9201 0.1282 0.138 -0.9904 -143.2914 134.4735)">
			<stop  offset="0" style="stop-color:#FFFFFF"/>
			<stop  offset="1" style="stop-color:#F15A29"/>
		</linearGradient>
		<path fill="url(#SVGID_5_)" d="M515.576,185.258c1.383,1.034,2.539,2.315,3.469,3.842c0.93,1.53,1.605,3.26,2.026,5.193
			c0.421,1.936,0.508,3.936,0.257,6.005l-0.868,7.161c-0.136,1.116-0.643,1.766-1.516,1.948l-8.983,0.265
			c-0.876,0.186-1.246-0.277-1.11-1.395l1.115-9.19c0.097-0.796-0.049-1.51-0.431-2.139c-0.384-0.628-0.897-0.996-1.539-1.099
			l-0.771-0.125c-0.644-0.103-1.225,0.092-1.742,0.573c-0.519,0.486-0.824,1.128-0.921,1.923l-5.096,42.021
			c-0.097,0.799,0.047,1.511,0.431,2.139c0.382,0.63,0.896,0.995,1.538,1.099l0.772,0.123c0.643,0.104,1.224-0.088,1.741-0.572
			c0.519-0.483,0.826-1.125,0.922-1.92l1.736-14.327c0.136-1.112,0.602-1.443,1.399-0.992l8.608,2.839
			c0.796,0.453,1.127,1.234,0.993,2.35l-1.521,12.535c-0.251,2.069-0.811,3.969-1.675,5.694c-0.866,1.729-1.928,3.183-3.186,4.356
			c-1.258,1.181-2.676,2.047-4.251,2.606c-1.575,0.558-3.2,0.704-4.873,0.437l-3.667-0.586c-1.673-0.27-3.199-0.92-4.583-1.953
			c-1.386-1.03-2.541-2.312-3.47-3.84c-0.931-1.528-1.604-3.258-2.025-5.192c-0.424-1.933-0.508-3.933-0.258-6.005l5.239-43.215
			c0.251-2.068,0.81-3.967,1.676-5.695c0.863-1.727,1.927-3.178,3.184-4.355c1.259-1.179,2.674-2.047,4.252-2.607
			c1.575-0.557,3.199-0.703,4.873-0.436l3.667,0.588C512.664,183.576,514.192,184.227,515.576,185.258z"/>
		
			<linearGradient id="SVGID_6_" gradientUnits="userSpaceOnUse" x1="724.9482" y1="4.2954" x2="761.4912" y2="4.2954" gradientTransform="matrix(0.9201 0.1282 0.138 -0.9904 -143.2914 134.4735)">
			<stop  offset="0" style="stop-color:#FFFFFF"/>
			<stop  offset="1" style="stop-color:#F15A29"/>
		</linearGradient>
		<path fill="url(#SVGID_6_)" d="M561.683,192.825c0.083,0.378,0.038,0.758-0.139,1.134L544.729,222.3l8.344,39.914
			c0.08,0.42,0.001,0.79-0.233,1.118c-0.237,0.326-0.548,0.46-0.933,0.398l-9.555-1.53c-0.387-0.062-0.725-0.257-1.012-0.589
			c-0.289-0.327-0.474-0.702-0.553-1.122l-4.642-20.945l-2.104,3.558l-1.911,15.758c-0.134,1.117-0.651,1.601-1.553,1.457
			l-8.588-1.375c-0.901-0.146-1.283-0.772-1.149-1.889l8.278-68.285c0.136-1.113,0.652-1.6,1.555-1.455l8.589,1.375
			c0.898,0.145,1.283,0.772,1.148,1.888l-2.535,20.892l11.441-19.708c0.438-0.903,1.105-1.284,2.007-1.139l9.651,1.545
			C561.36,192.225,561.596,192.445,561.683,192.825z"/>
	</g>
	<g>
		
			<linearGradient id="SVGID_7_" gradientUnits="userSpaceOnUse" x1="562.2334" y1="44.8516" x2="562.2334" y2="-27.7222" gradientTransform="matrix(0.9201 0.1282 0.138 -0.9904 -140.9545 134.4735)">
			<stop  offset="0" style="stop-color:#F9A98C"/>
			<stop  offset="1" style="stop-color:#F5875F"/>
		</linearGradient>
		<path fill="url(#SVGID_7_)" d="M387.77,235.744c-0.006,1.137-0.459,1.631-1.357,1.484l-8.783-1.405
			c-0.838-0.134-1.253-0.767-1.245-1.902l0.792-13.017l-5.984-0.959l-2.334,12.771c-0.265,1.097-0.815,1.573-1.649,1.438
			l-8.782-1.404c-0.9-0.145-1.22-0.762-0.955-1.855l16.963-79.064c0.264-1.094,0.846-1.57,1.748-1.424l12.738,2.039
			c0.898,0.143,1.348,0.781,1.34,1.918L387.77,235.744z M378.021,207.411l2.09-32.646l-0.772-0.123l-5.755,32.058L378.021,207.411z"
			/>
		
			<linearGradient id="SVGID_8_" gradientUnits="userSpaceOnUse" x1="594.2441" y1="44.8511" x2="594.2441" y2="-27.7226" gradientTransform="matrix(0.9201 0.1282 0.138 -0.9904 -140.9545 134.4735)">
			<stop  offset="0" style="stop-color:#F9A98C"/>
			<stop  offset="1" style="stop-color:#F5875F"/>
		</linearGradient>
		<path fill="url(#SVGID_8_)" d="M425.189,172.125l-1.287,10.625c-0.136,1.115-0.654,1.6-1.554,1.455l-6.852-1.098l-6.787,55.99
			c-0.136,1.114-0.653,1.6-1.556,1.454l-8.588-1.375c-0.321-0.052-0.607-0.261-0.859-0.625c-0.251-0.362-0.348-0.784-0.29-1.263
			l6.789-55.989l-6.756-1.082c-0.901-0.145-1.284-0.772-1.149-1.888l1.289-10.624c0.135-1.114,0.653-1.601,1.555-1.455l24.897,3.985
			C424.941,170.38,425.325,171.011,425.189,172.125z"/>
		
			<linearGradient id="SVGID_9_" gradientUnits="userSpaceOnUse" x1="629.584" y1="44.853" x2="629.584" y2="-27.7226" gradientTransform="matrix(0.9201 0.1282 0.138 -0.9904 -140.9545 134.4735)">
			<stop  offset="0" style="stop-color:#F9A98C"/>
			<stop  offset="1" style="stop-color:#F5875F"/>
		</linearGradient>
		<path fill="url(#SVGID_9_)" d="M457.615,177.318l-1.288,10.623c-0.136,1.115-0.654,1.601-1.555,1.455l-6.852-1.099l-6.788,55.99
			c-0.136,1.114-0.653,1.601-1.554,1.455l-8.589-1.374c-0.323-0.053-0.607-0.26-0.859-0.626c-0.251-0.363-0.347-0.785-0.289-1.263
			l6.788-55.989l-6.755-1.081c-0.902-0.146-1.284-0.773-1.148-1.889l1.287-10.625c0.136-1.113,0.652-1.599,1.556-1.455l24.896,3.986
			C457.366,175.573,457.749,176.205,457.615,177.318z"/>
		
			<linearGradient id="SVGID_10_" gradientUnits="userSpaceOnUse" x1="664.0449" y1="44.8511" x2="664.0449" y2="-27.7114" gradientTransform="matrix(0.9201 0.1282 0.138 -0.9904 -140.9545 134.4735)">
			<stop  offset="0" style="stop-color:#F9A98C"/>
			<stop  offset="1" style="stop-color:#F5875F"/>
		</linearGradient>
		<path fill="url(#SVGID_10_)" d="M481.182,250.702c-0.007,1.136-0.46,1.63-1.36,1.485l-8.781-1.405
			c-0.837-0.134-1.252-0.767-1.245-1.903l0.646-11.822l-5.983-0.959l-2.19,11.575c-0.266,1.095-0.813,1.573-1.649,1.438l-8.78-1.403
			c-0.903-0.146-1.222-0.763-0.956-1.858l15.517-67.125c0.263-1.094,0.846-1.57,1.747-1.424l12.736,2.038
			c0.9,0.144,1.349,0.785,1.343,1.919L481.182,250.702z M471.289,223.561l1.366-26.677l-0.773-0.124l-5.032,26.092L471.289,223.561z
			"/>
		
			<linearGradient id="SVGID_11_" gradientUnits="userSpaceOnUse" x1="701.0273" y1="44.8511" x2="701.0273" y2="-27.7226" gradientTransform="matrix(0.9201 0.1282 0.138 -0.9904 -140.9545 134.4735)">
			<stop  offset="0" style="stop-color:#F9A98C"/>
			<stop  offset="1" style="stop-color:#F5875F"/>
		</linearGradient>
		<path fill="url(#SVGID_11_)" d="M515.576,185.258c1.383,1.034,2.539,2.315,3.469,3.842c0.93,1.53,1.605,3.26,2.026,5.193
			c0.421,1.936,0.508,3.936,0.257,6.005l-0.868,7.161c-0.136,1.116-0.643,1.766-1.516,1.948l-8.983,0.265
			c-0.876,0.186-1.246-0.277-1.11-1.395l1.115-9.19c0.097-0.796-0.049-1.51-0.431-2.139c-0.384-0.628-0.897-0.996-1.539-1.099
			l-0.771-0.125c-0.644-0.103-1.225,0.092-1.742,0.573c-0.519,0.486-0.824,1.128-0.921,1.923l-5.096,42.021
			c-0.097,0.799,0.047,1.511,0.431,2.139c0.382,0.63,0.896,0.995,1.538,1.099l0.772,0.123c0.643,0.104,1.224-0.088,1.741-0.572
			c0.519-0.483,0.826-1.125,0.922-1.92l1.736-14.327c0.136-1.112,0.602-1.443,1.399-0.992l8.608,2.839
			c0.796,0.453,1.127,1.234,0.993,2.35l-1.521,12.535c-0.251,2.069-0.811,3.969-1.675,5.694c-0.866,1.729-1.928,3.183-3.186,4.356
			c-1.258,1.181-2.676,2.047-4.251,2.606c-1.575,0.558-3.2,0.704-4.873,0.437l-3.667-0.586c-1.673-0.27-3.199-0.92-4.583-1.953
			c-1.386-1.03-2.541-2.312-3.47-3.84c-0.931-1.528-1.604-3.258-2.025-5.192c-0.424-1.933-0.508-3.933-0.258-6.005l5.239-43.215
			c0.251-2.068,0.81-3.967,1.676-5.695c0.863-1.727,1.927-3.178,3.184-4.355c1.259-1.179,2.674-2.047,4.252-2.607
			c1.575-0.557,3.199-0.703,4.873-0.436l3.667,0.588C512.664,183.576,514.192,184.227,515.576,185.258z"/>
		
			<linearGradient id="SVGID_12_" gradientUnits="userSpaceOnUse" x1="740.7285" y1="44.8521" x2="740.7285" y2="-27.7226" gradientTransform="matrix(0.9201 0.1282 0.138 -0.9904 -140.9545 134.4735)">
			<stop  offset="0" style="stop-color:#F9A98C"/>
			<stop  offset="1" style="stop-color:#F5875F"/>
		</linearGradient>
		<path fill="url(#SVGID_12_)" d="M561.683,192.825c0.083,0.378,0.038,0.758-0.139,1.134L544.729,222.3l8.344,39.914
			c0.08,0.42,0.001,0.79-0.233,1.118c-0.237,0.326-0.548,0.46-0.933,0.398l-9.555-1.53c-0.387-0.062-0.725-0.257-1.012-0.589
			c-0.289-0.327-0.474-0.702-0.553-1.122l-4.642-20.945l-2.104,3.558l-1.911,15.758c-0.134,1.117-0.651,1.601-1.553,1.457
			l-8.588-1.375c-0.901-0.146-1.283-0.772-1.149-1.889l8.278-68.285c0.136-1.113,0.652-1.6,1.555-1.455l8.589,1.375
			c0.898,0.145,1.283,0.772,1.148,1.888l-2.535,20.892l11.441-19.708c0.438-0.903,1.105-1.284,2.007-1.139l9.651,1.545
			C561.36,192.225,561.596,192.445,561.683,192.825z"/>
	</g>
</g>
<g opacity="0.49">
	<g>
		<path d="M141.089,52.284l-17.48,131.803c-0.176,1.823-1.309,2.892-3.399,3.216l-19.724,3.051
			c-2.094,0.323-3.351-0.377-3.773-2.106l-11.168-46.109l-0.225,0.033l-4.521,48.536c-0.176,1.822-1.309,2.893-3.399,3.216
			l-19.724,3.052c-2.094,0.322-3.351-0.377-3.773-2.107L18.484,71.241c-0.426-1.726,0.408-2.753,2.502-3.077l24.208-3.744
			c1.94-0.298,3.124,0.416,3.549,2.14l15.532,75.982l0.896-0.141l2.175-78.717c0.173-1.819,1.232-2.881,3.175-3.179l18.156-2.809
			c1.94-0.3,3.123,0.416,3.548,2.141l13.066,76.361l0.896-0.138l4.642-79.101c0.173-1.819,1.231-2.881,3.176-3.18l24.208-3.743
			C140.303,49.716,141.262,50.464,141.089,52.284z"/>
		<path d="M204.286,61.723l7.634,108.708c0.125,1.774-0.861,2.822-2.951,3.146l-19.949,3.085c-2.094,0.323-3.199-0.401-3.325-2.179
			l-3.017-42.951l-14.792,2.29l3.016,42.948c0.125,1.776-0.86,2.824-2.952,3.146l-19.948,3.085c-2.095,0.325-3.2-0.399-3.324-2.175
			L137.043,72.12c-0.125-1.773,0.857-2.822,2.951-3.145l19.949-3.085c2.091-0.323,3.201,0.403,3.325,2.176l3.056,43.521
			l14.793-2.288l-3.057-43.521c-0.125-1.772,0.856-2.821,2.951-3.144l19.949-3.085C203.051,59.225,204.161,59.95,204.286,61.723z"/>
		<path d="M241.506,165.857c0.125,1.775-0.86,2.822-2.951,3.146l-19.949,3.085c-2.094,0.324-3.199-0.398-3.325-2.175l-7.633-108.709
			c-0.125-1.772,0.855-2.821,2.951-3.146l19.948-3.083c2.091-0.324,3.201,0.402,3.325,2.174L241.506,165.857z"/>
		<path d="M281.463,47.677c3.525,0.739,6.632,1.985,9.326,3.744c2.691,1.766,4.886,3.985,6.586,6.667
			c1.696,2.687,2.664,5.671,2.896,8.965l0.506,7.223c0.125,1.775-0.769,3.068-2.672,3.873l-20.077,7.716
			c-1.908,0.805-2.922,0.324-3.047-1.453l-0.867-12.354c-0.089-1.265-0.69-2.261-1.796-2.988c-1.108-0.722-2.411-0.971-3.903-0.741
			l-1.793,0.278c-1.496,0.23-2.736,0.874-3.718,1.919c-0.984,1.052-1.431,2.208-1.342,3.473l0.814,11.594
			c0.246,1.372,0.631,2.528,1.15,3.471c0.52,0.945,1.41,1.833,2.679,2.66l30.67,14.086c2.513,1.406,4.173,2.974,4.977,4.706
			c0.801,1.733,1.428,3.717,1.89,5.95l1.362,19.385c0.229,3.295-0.302,6.516-1.588,9.658c-1.291,3.147-3.131,5.994-5.52,8.539
			c-2.391,2.548-5.259,4.724-8.604,6.517c-3.352,1.797-6.966,3-10.85,3.6l-8.518,1.316c-3.887,0.603-7.591,0.53-11.116-0.201
			c-3.528-0.733-6.635-1.981-9.326-3.746c-2.694-1.76-4.889-3.981-6.586-6.664c-1.7-2.684-2.664-5.672-2.895-8.969l-0.748-10.639
			c-0.125-1.775,0.766-3.065,2.674-3.874l20.077-7.716c1.904-0.803,2.923-0.32,3.047,1.452l1.108,15.773
			c0.089,1.268,0.687,2.266,1.796,2.987c1.105,0.729,2.408,0.972,3.903,0.741l1.794-0.276c1.492-0.231,2.731-0.87,3.717-1.919
			c0.981-1.047,1.431-2.206,1.341-3.476l-0.827-11.78c-0.266-1.623-0.667-3.034-1.205-4.233c-0.537-1.195-1.513-2.198-2.929-3.005
			l-30.236-14.345c-2.365-1.425-4.098-2.949-5.192-4.575c-1.098-1.622-1.747-3.889-1.951-6.806l-1.201-17.105
			c-0.232-3.293,0.297-6.512,1.587-9.66c1.288-3.143,3.127-5.988,5.518-8.537c2.388-2.545,5.255-4.718,8.605-6.517
			c3.347-1.798,6.961-2.998,10.849-3.601l8.517-1.316C274.23,46.874,277.935,46.943,281.463,47.677z"/>
		<path d="M367.236,34.939l1.188,16.915c0.127,1.775-0.858,2.824-2.948,3.146l-15.916,2.462l6.26,89.131
			c0.125,1.776-0.86,2.823-2.95,3.146l-19.948,3.086c-0.75,0.116-1.477-0.028-2.184-0.435c-0.707-0.398-1.09-0.982-1.144-1.744
			l-6.26-89.131l-15.688,2.426c-2.095,0.324-3.199-0.4-3.324-2.176l-1.188-16.914c-0.124-1.772,0.858-2.821,2.951-3.145l57.83-8.942
			C366.004,32.441,367.111,33.166,367.236,34.939z"/>
		<path d="M436.896,115.3l1.188,16.914c0.126,1.777-0.859,2.824-2.95,3.147l-30.26,4.679l-0.449,0.069l-0.223,0.035l-19.947,3.083
			c-2.097,0.324-3.202-0.4-3.326-2.175l-7.635-108.709c-0.125-1.773,0.857-2.821,2.952-3.146l19.948-3.084
			c2.089-0.324,3.199,0.402,3.324,2.175l6.26,89.134l27.794-4.297C435.662,112.803,436.772,113.528,436.896,115.3z"/>
		<path d="M497.606,106.119l1.188,16.914c0.125,1.776-0.859,2.823-2.95,3.146l-48.64,7.519c-2.094,0.325-3.198-0.399-3.324-2.174
			l-7.634-108.708c-0.124-1.773,0.855-2.822,2.951-3.146l48.638-7.521c2.09-0.323,3.2,0.402,3.325,2.175l1.187,16.914
			c0.127,1.776-0.857,2.823-2.949,3.146l-25.553,3.951l1.521,21.667l22.189-3.433c2.089-0.323,3.199,0.402,3.324,2.176l1.188,16.915
			c0.126,1.775-0.859,2.823-2.951,3.146l-22.19,3.432l1.805,25.656l25.551-3.952C496.374,103.62,497.483,104.346,497.606,106.119z"
			/>
		<path d="M532.449,116.902c0.125,1.775-0.936,2.834-3.175,3.181l-19.948,3.083c-1.943,0.303-2.977-0.434-3.103-2.209
			l-7.633-108.709c-0.125-1.773,0.854-2.822,2.95-3.145l33.621-5.199c3.882-0.601,7.589-0.53,11.114,0.202
			c3.525,0.738,6.635,1.985,9.328,3.746c2.69,1.763,4.885,3.982,6.587,6.665c1.694,2.687,2.663,5.673,2.894,8.966l1.642,23.377
			c0.329,4.688-1.021,9.156-4.045,13.401c-3.023,4.246-6.781,7.743-11.271,10.482l24.297,39.471
			c0.573,1.706-0.115,2.707-2.055,3.007l-20.397,3.152c-0.896,0.139-1.774,0.019-2.631-0.363c-0.856-0.376-1.464-0.924-1.813-1.64
			l-18.832-32.628L532.449,116.902z M528.204,56.466l7.173-1.108c1.493-0.232,2.732-0.872,3.719-1.92
			c0.979-1.045,1.432-2.205,1.341-3.475l-1.508-21.475c-0.088-1.264-0.688-2.261-1.797-2.987c-1.107-0.724-2.411-0.973-3.903-0.742
			l-7.172,1.108L528.204,56.466z"/>
	</g>
	<g>
		
			<linearGradient id="SVGID_13_" gradientUnits="userSpaceOnUse" x1="202.2207" y1="76.0693" x2="224.8" y2="-18.2798" gradientTransform="matrix(1 0 0 -1 -118.623 153.3398)">
			<stop  offset="0" style="stop-color:#9ADAEF"/>
			<stop  offset="0.0288" style="stop-color:#94D7EC"/>
			<stop  offset="0.1924" style="stop-color:#72CAE1"/>
			<stop  offset="0.3642" style="stop-color:#54C1D9"/>
			<stop  offset="0.5458" style="stop-color:#36BBD3"/>
			<stop  offset="0.7436" style="stop-color:#18B8D0"/>
			<stop  offset="0.9879" style="stop-color:#00B7CF"/>
		</linearGradient>
		<path fill="url(#SVGID_13_)" d="M141.089,52.284l-17.48,131.803c-0.176,1.823-1.309,2.892-3.399,3.216l-19.724,3.051
			c-2.094,0.323-3.351-0.377-3.773-2.106l-11.168-46.109l-0.225,0.033l-4.521,48.536c-0.176,1.822-1.309,2.893-3.399,3.216
			l-19.724,3.052c-2.094,0.322-3.351-0.377-3.773-2.107L18.484,71.241c-0.426-1.726,0.408-2.753,2.502-3.077l24.208-3.744
			c1.94-0.298,3.124,0.416,3.549,2.14l15.532,75.982l0.896-0.141l2.175-78.717c0.173-1.819,1.232-2.881,3.175-3.179l18.156-2.809
			c1.94-0.3,3.123,0.416,3.548,2.141l13.066,76.361l0.896-0.138l4.642-79.101c0.173-1.819,1.231-2.881,3.176-3.18l24.208-3.743
			C140.303,49.716,141.262,50.464,141.089,52.284z"/>
		
			<linearGradient id="SVGID_14_" gradientUnits="userSpaceOnUse" x1="278.2207" y1="94.2573" x2="300.8" y2="-0.0918" gradientTransform="matrix(1 0 0 -1 -118.623 153.3398)">
			<stop  offset="0" style="stop-color:#9ADAEF"/>
			<stop  offset="0.0288" style="stop-color:#94D7EC"/>
			<stop  offset="0.1924" style="stop-color:#72CAE1"/>
			<stop  offset="0.3642" style="stop-color:#54C1D9"/>
			<stop  offset="0.5458" style="stop-color:#36BBD3"/>
			<stop  offset="0.7436" style="stop-color:#18B8D0"/>
			<stop  offset="0.9879" style="stop-color:#00B7CF"/>
		</linearGradient>
		<path fill="url(#SVGID_14_)" d="M204.286,61.723l7.634,108.708c0.125,1.774-0.861,2.822-2.951,3.146l-19.949,3.085
			c-2.094,0.323-3.199-0.401-3.325-2.179l-3.017-42.951l-14.792,2.29l3.016,42.948c0.125,1.776-0.86,2.824-2.952,3.146
			l-19.948,3.085c-2.095,0.325-3.2-0.399-3.324-2.175L137.043,72.12c-0.125-1.773,0.857-2.822,2.951-3.145l19.949-3.085
			c2.091-0.323,3.201,0.403,3.325,2.176l3.056,43.521l14.793-2.288l-3.057-43.521c-0.125-1.772,0.856-2.821,2.951-3.144
			l19.949-3.085C203.051,59.225,204.161,59.95,204.286,61.723z"/>
		
			<linearGradient id="SVGID_15_" gradientUnits="userSpaceOnUse" x1="327.3545" y1="106.0161" x2="349.9337" y2="11.6674" gradientTransform="matrix(1 0 0 -1 -118.623 153.3398)">
			<stop  offset="0" style="stop-color:#9ADAEF"/>
			<stop  offset="0.0288" style="stop-color:#94D7EC"/>
			<stop  offset="0.1924" style="stop-color:#72CAE1"/>
			<stop  offset="0.3642" style="stop-color:#54C1D9"/>
			<stop  offset="0.5458" style="stop-color:#36BBD3"/>
			<stop  offset="0.7436" style="stop-color:#18B8D0"/>
			<stop  offset="0.9879" style="stop-color:#00B7CF"/>
		</linearGradient>
		<path fill="url(#SVGID_15_)" d="M241.506,165.857c0.125,1.775-0.86,2.822-2.951,3.146l-19.949,3.085
			c-2.094,0.324-3.199-0.398-3.325-2.175l-7.633-108.709c-0.125-1.772,0.855-2.821,2.951-3.146l19.948-3.083
			c2.091-0.324,3.201,0.402,3.325,2.174L241.506,165.857z"/>
		
			<linearGradient id="SVGID_16_" gradientUnits="userSpaceOnUse" x1="372.0898" y1="116.7217" x2="394.6693" y2="22.3722" gradientTransform="matrix(1 0 0 -1 -118.623 153.3398)">
			<stop  offset="0" style="stop-color:#9ADAEF"/>
			<stop  offset="0.0288" style="stop-color:#94D7EC"/>
			<stop  offset="0.1924" style="stop-color:#72CAE1"/>
			<stop  offset="0.3642" style="stop-color:#54C1D9"/>
			<stop  offset="0.5458" style="stop-color:#36BBD3"/>
			<stop  offset="0.7436" style="stop-color:#18B8D0"/>
			<stop  offset="0.9879" style="stop-color:#00B7CF"/>
		</linearGradient>
		<path fill="url(#SVGID_16_)" d="M281.463,47.677c3.525,0.739,6.632,1.985,9.326,3.744c2.691,1.766,4.886,3.985,6.586,6.667
			c1.696,2.687,2.664,5.671,2.896,8.965l0.506,7.223c0.125,1.775-0.769,3.068-2.672,3.873l-20.077,7.716
			c-1.908,0.805-2.922,0.324-3.047-1.453l-0.867-12.354c-0.089-1.265-0.69-2.261-1.796-2.988c-1.108-0.722-2.411-0.971-3.903-0.741
			l-1.793,0.278c-1.496,0.23-2.736,0.874-3.718,1.919c-0.984,1.052-1.431,2.208-1.342,3.473l0.814,11.594
			c0.246,1.372,0.631,2.528,1.15,3.471c0.52,0.945,1.41,1.833,2.679,2.66l30.67,14.086c2.513,1.406,4.173,2.974,4.977,4.706
			c0.801,1.733,1.428,3.717,1.89,5.95l1.362,19.385c0.229,3.295-0.302,6.516-1.588,9.658c-1.291,3.147-3.131,5.994-5.52,8.539
			c-2.391,2.548-5.259,4.724-8.604,6.517c-3.352,1.797-6.966,3-10.85,3.6l-8.518,1.316c-3.887,0.603-7.591,0.53-11.116-0.201
			c-3.528-0.733-6.635-1.981-9.326-3.746c-2.694-1.76-4.889-3.981-6.586-6.664c-1.7-2.684-2.664-5.672-2.895-8.969l-0.748-10.639
			c-0.125-1.775,0.766-3.065,2.674-3.874l20.077-7.716c1.904-0.803,2.923-0.32,3.047,1.452l1.108,15.773
			c0.089,1.268,0.687,2.266,1.796,2.987c1.105,0.729,2.408,0.972,3.903,0.741l1.794-0.276c1.492-0.231,2.731-0.87,3.717-1.919
			c0.981-1.047,1.431-2.206,1.341-3.476l-0.827-11.78c-0.266-1.623-0.667-3.034-1.205-4.233c-0.537-1.195-1.513-2.198-2.929-3.005
			l-30.236-14.345c-2.365-1.425-4.098-2.949-5.192-4.575c-1.098-1.622-1.747-3.889-1.951-6.806l-1.201-17.105
			c-0.232-3.293,0.297-6.512,1.587-9.66c1.288-3.143,3.127-5.988,5.518-8.537c2.388-2.545,5.255-4.718,8.605-6.517
			c3.347-1.798,6.961-2.998,10.849-3.601l8.517-1.316C274.23,46.874,277.935,46.943,281.463,47.677z"/>
		
			<linearGradient id="SVGID_17_" gradientUnits="userSpaceOnUse" x1="447.2871" y1="134.7178" x2="469.8664" y2="40.3687" gradientTransform="matrix(1 0 0 -1 -118.623 153.3398)">
			<stop  offset="0" style="stop-color:#9ADAEF"/>
			<stop  offset="0.0288" style="stop-color:#94D7EC"/>
			<stop  offset="0.1924" style="stop-color:#72CAE1"/>
			<stop  offset="0.3642" style="stop-color:#54C1D9"/>
			<stop  offset="0.5458" style="stop-color:#36BBD3"/>
			<stop  offset="0.7436" style="stop-color:#18B8D0"/>
			<stop  offset="0.9879" style="stop-color:#00B7CF"/>
		</linearGradient>
		<path fill="url(#SVGID_17_)" d="M367.236,34.939l1.188,16.915c0.127,1.775-0.858,2.824-2.948,3.146l-15.916,2.462l6.26,89.131
			c0.125,1.776-0.86,2.823-2.95,3.146l-19.948,3.086c-0.75,0.116-1.477-0.028-2.184-0.435c-0.707-0.398-1.09-0.982-1.144-1.744
			l-6.26-89.131l-15.688,2.426c-2.095,0.324-3.199-0.4-3.324-2.176l-1.188-16.914c-0.124-1.772,0.858-2.821,2.951-3.145l57.83-8.942
			C366.004,32.441,367.111,33.166,367.236,34.939z"/>
		
			<linearGradient id="SVGID_18_" gradientUnits="userSpaceOnUse" x1="498.3906" y1="146.9478" x2="520.9699" y2="52.5986" gradientTransform="matrix(1 0 0 -1 -118.623 153.3398)">
			<stop  offset="0" style="stop-color:#9ADAEF"/>
			<stop  offset="0.0288" style="stop-color:#94D7EC"/>
			<stop  offset="0.1924" style="stop-color:#72CAE1"/>
			<stop  offset="0.3642" style="stop-color:#54C1D9"/>
			<stop  offset="0.5458" style="stop-color:#36BBD3"/>
			<stop  offset="0.7436" style="stop-color:#18B8D0"/>
			<stop  offset="0.9879" style="stop-color:#00B7CF"/>
		</linearGradient>
		<path fill="url(#SVGID_18_)" d="M436.896,115.3l1.188,16.914c0.126,1.777-0.859,2.824-2.95,3.147l-30.26,4.679l-0.449,0.069
			l-0.223,0.035l-19.947,3.083c-2.097,0.324-3.202-0.4-3.326-2.175l-7.635-108.709c-0.125-1.773,0.857-2.821,2.952-3.146
			l19.948-3.084c2.089-0.324,3.199,0.402,3.324,2.175l6.26,89.134l27.794-4.297C435.662,112.803,436.772,113.528,436.896,115.3z"/>
		
			<linearGradient id="SVGID_19_" gradientUnits="userSpaceOnUse" x1="566.3301" y1="163.207" x2="588.9094" y2="68.8579" gradientTransform="matrix(1 0 0 -1 -118.623 153.3398)">
			<stop  offset="0" style="stop-color:#9ADAEF"/>
			<stop  offset="0.0288" style="stop-color:#94D7EC"/>
			<stop  offset="0.1924" style="stop-color:#72CAE1"/>
			<stop  offset="0.3642" style="stop-color:#54C1D9"/>
			<stop  offset="0.5458" style="stop-color:#36BBD3"/>
			<stop  offset="0.7436" style="stop-color:#18B8D0"/>
			<stop  offset="0.9879" style="stop-color:#00B7CF"/>
		</linearGradient>
		<path fill="url(#SVGID_19_)" d="M497.606,106.119l1.188,16.914c0.125,1.776-0.859,2.823-2.95,3.146l-48.64,7.519
			c-2.094,0.325-3.198-0.399-3.324-2.174l-7.634-108.708c-0.124-1.773,0.855-2.822,2.951-3.146l48.638-7.521
			c2.09-0.323,3.2,0.402,3.325,2.175l1.187,16.914c0.127,1.776-0.857,2.823-2.949,3.146l-25.553,3.951l1.521,21.667l22.189-3.433
			c2.089-0.323,3.199,0.402,3.324,2.176l1.188,16.915c0.126,1.775-0.859,2.823-2.951,3.146l-22.19,3.432l1.805,25.656l25.551-3.952
			C496.374,103.62,497.483,104.346,497.606,106.119z"/>
		
			<linearGradient id="SVGID_20_" gradientUnits="userSpaceOnUse" x1="631.041" y1="178.6934" x2="653.6203" y2="84.3443" gradientTransform="matrix(1 0 0 -1 -118.623 153.3398)">
			<stop  offset="0" style="stop-color:#9ADAEF"/>
			<stop  offset="0.0288" style="stop-color:#94D7EC"/>
			<stop  offset="0.1924" style="stop-color:#72CAE1"/>
			<stop  offset="0.3642" style="stop-color:#54C1D9"/>
			<stop  offset="0.5458" style="stop-color:#36BBD3"/>
			<stop  offset="0.7436" style="stop-color:#18B8D0"/>
			<stop  offset="0.9879" style="stop-color:#00B7CF"/>
		</linearGradient>
		<path fill="url(#SVGID_20_)" d="M532.449,116.902c0.125,1.775-0.936,2.834-3.175,3.181l-19.948,3.083
			c-1.943,0.303-2.977-0.434-3.103-2.209l-7.633-108.709c-0.125-1.773,0.854-2.822,2.95-3.145l33.621-5.199
			c3.882-0.601,7.589-0.53,11.114,0.202c3.525,0.738,6.635,1.985,9.328,3.746c2.69,1.763,4.885,3.982,6.587,6.665
			c1.694,2.687,2.663,5.673,2.894,8.966l1.642,23.377c0.329,4.688-1.021,9.156-4.045,13.401c-3.023,4.246-6.781,7.743-11.271,10.482
			l24.297,39.471c0.573,1.706-0.115,2.707-2.055,3.007l-20.397,3.152c-0.896,0.139-1.774,0.019-2.631-0.363
			c-0.856-0.376-1.464-0.924-1.813-1.64l-18.832-32.628L532.449,116.902z M528.204,56.466l7.173-1.108
			c1.493-0.232,2.732-0.872,3.719-1.92c0.979-1.045,1.432-2.205,1.341-3.475l-1.508-21.475c-0.088-1.264-0.688-2.261-1.797-2.987
			c-1.107-0.724-2.411-0.973-3.903-0.742l-7.172,1.108L528.204,56.466z"/>
	</g>
	<g>
		<path fill="none" stroke="#F1F2F2" stroke-width="7" stroke-linejoin="round" d="M141.089,52.284l-17.48,131.803
			c-0.176,1.823-1.309,2.892-3.399,3.216l-19.724,3.051c-2.094,0.323-3.351-0.377-3.773-2.106l-11.168-46.109l-0.225,0.033
			l-4.521,48.536c-0.176,1.822-1.309,2.893-3.399,3.216l-19.724,3.052c-2.094,0.322-3.351-0.377-3.773-2.107L18.484,71.241
			c-0.426-1.726,0.408-2.753,2.502-3.077l24.208-3.744c1.94-0.298,3.124,0.416,3.549,2.14l15.532,75.982l0.896-0.141l2.175-78.717
			c0.173-1.819,1.232-2.881,3.175-3.179l18.156-2.809c1.94-0.3,3.123,0.416,3.548,2.141l13.066,76.361l0.896-0.138l4.642-79.101
			c0.173-1.819,1.231-2.881,3.176-3.18l24.208-3.743C140.303,49.716,141.262,50.464,141.089,52.284z"/>
		<path fill="none" stroke="#F1F2F2" stroke-width="7" stroke-linejoin="round" d="M204.286,61.723l7.634,108.708
			c0.125,1.774-0.861,2.822-2.951,3.146l-19.949,3.085c-2.094,0.323-3.199-0.401-3.325-2.179l-3.017-42.951l-14.792,2.29
			l3.016,42.948c0.125,1.776-0.86,2.824-2.952,3.146l-19.948,3.085c-2.095,0.325-3.2-0.399-3.324-2.175L137.043,72.12
			c-0.125-1.773,0.857-2.822,2.951-3.145l19.949-3.085c2.091-0.323,3.201,0.403,3.325,2.176l3.056,43.521l14.793-2.288
			l-3.057-43.521c-0.125-1.772,0.856-2.821,2.951-3.144l19.949-3.085C203.051,59.225,204.161,59.95,204.286,61.723z"/>
		<path fill="none" stroke="#F1F2F2" stroke-width="7" stroke-linejoin="round" d="M241.506,165.857
			c0.125,1.775-0.86,2.822-2.951,3.146l-19.949,3.085c-2.094,0.324-3.199-0.398-3.325-2.175l-7.633-108.709
			c-0.125-1.772,0.855-2.821,2.951-3.146l19.948-3.083c2.091-0.324,3.201,0.402,3.325,2.174L241.506,165.857z"/>
		<path fill="none" stroke="#F1F2F2" stroke-width="7" stroke-linejoin="round" d="M281.463,47.677
			c3.525,0.739,6.632,1.985,9.326,3.744c2.691,1.766,4.886,3.985,6.586,6.667c1.696,2.687,2.664,5.671,2.896,8.965l0.506,7.223
			c0.125,1.775-0.769,3.068-2.672,3.873l-20.077,7.716c-1.908,0.805-2.922,0.324-3.047-1.453l-0.867-12.354
			c-0.089-1.265-0.69-2.261-1.796-2.988c-1.108-0.722-2.411-0.971-3.903-0.741l-1.793,0.278c-1.496,0.23-2.736,0.874-3.718,1.919
			c-0.984,1.052-1.431,2.208-1.342,3.473l0.814,11.594c0.246,1.372,0.631,2.528,1.15,3.471c0.52,0.945,1.41,1.833,2.679,2.66
			l30.67,14.086c2.513,1.406,4.173,2.974,4.977,4.706c0.801,1.733,1.428,3.717,1.89,5.95l1.362,19.385
			c0.229,3.295-0.302,6.516-1.588,9.658c-1.291,3.147-3.131,5.994-5.52,8.539c-2.391,2.548-5.259,4.724-8.604,6.517
			c-3.352,1.797-6.966,3-10.85,3.6l-8.518,1.316c-3.887,0.603-7.591,0.53-11.116-0.201c-3.528-0.733-6.635-1.981-9.326-3.746
			c-2.694-1.76-4.889-3.981-6.586-6.664c-1.7-2.684-2.664-5.672-2.895-8.969l-0.748-10.639c-0.125-1.775,0.766-3.065,2.674-3.874
			l20.077-7.716c1.904-0.803,2.923-0.32,3.047,1.452l1.108,15.773c0.089,1.268,0.687,2.266,1.796,2.987
			c1.105,0.729,2.408,0.972,3.903,0.741l1.794-0.276c1.492-0.231,2.731-0.87,3.717-1.919c0.981-1.047,1.431-2.206,1.341-3.476
			l-0.827-11.78c-0.266-1.623-0.667-3.034-1.205-4.233c-0.537-1.195-1.513-2.198-2.929-3.005l-30.236-14.345
			c-2.365-1.425-4.098-2.949-5.192-4.575c-1.098-1.622-1.747-3.889-1.951-6.806l-1.201-17.105c-0.232-3.293,0.297-6.512,1.587-9.66
			c1.288-3.143,3.127-5.988,5.518-8.537c2.388-2.545,5.255-4.718,8.605-6.517c3.347-1.798,6.961-2.998,10.849-3.601l8.517-1.316
			C274.23,46.874,277.935,46.943,281.463,47.677z"/>
		<path fill="none" stroke="#F1F2F2" stroke-width="7" stroke-linejoin="round" d="M367.236,34.939l1.188,16.915
			c0.127,1.775-0.858,2.824-2.948,3.146l-15.916,2.462l6.26,89.131c0.125,1.776-0.86,2.823-2.95,3.146l-19.948,3.086
			c-0.75,0.116-1.477-0.028-2.184-0.435c-0.707-0.398-1.09-0.982-1.144-1.744l-6.26-89.131l-15.688,2.426
			c-2.095,0.324-3.199-0.4-3.324-2.176l-1.188-16.914c-0.124-1.772,0.858-2.821,2.951-3.145l57.83-8.942
			C366.004,32.441,367.111,33.166,367.236,34.939z"/>
		<path fill="none" stroke="#F1F2F2" stroke-width="7" stroke-linejoin="round" d="M436.896,115.3l1.188,16.914
			c0.126,1.777-0.859,2.824-2.95,3.147l-30.26,4.679l-0.449,0.069l-0.223,0.035l-19.947,3.083c-2.097,0.324-3.202-0.4-3.326-2.175
			l-7.635-108.709c-0.125-1.773,0.857-2.821,2.952-3.146l19.948-3.084c2.089-0.324,3.199,0.402,3.324,2.175l6.26,89.134
			l27.794-4.297C435.662,112.803,436.772,113.528,436.896,115.3z"/>
		<path fill="none" stroke="#F1F2F2" stroke-width="7" stroke-linejoin="round" d="M497.606,106.119l1.188,16.914
			c0.125,1.776-0.859,2.823-2.95,3.146l-48.64,7.519c-2.094,0.325-3.198-0.399-3.324-2.174l-7.634-108.708
			c-0.124-1.773,0.855-2.822,2.951-3.146l48.638-7.521c2.09-0.323,3.2,0.402,3.325,2.175l1.187,16.914
			c0.127,1.776-0.857,2.823-2.949,3.146l-25.553,3.951l1.521,21.667l22.189-3.433c2.089-0.323,3.199,0.402,3.324,2.176l1.188,16.915
			c0.126,1.775-0.859,2.823-2.951,3.146l-22.19,3.432l1.805,25.656l25.551-3.952C496.374,103.62,497.483,104.346,497.606,106.119z"
			/>
		<path fill="none" stroke="#F1F2F2" stroke-width="7" stroke-linejoin="round" d="M532.449,116.902
			c0.125,1.775-0.936,2.834-3.175,3.181l-19.948,3.083c-1.943,0.303-2.977-0.434-3.103-2.209l-7.633-108.709
			c-0.125-1.773,0.854-2.822,2.95-3.145l33.621-5.199c3.882-0.601,7.589-0.53,11.114,0.202c3.525,0.738,6.635,1.985,9.328,3.746
			c2.69,1.763,4.885,3.982,6.587,6.665c1.694,2.687,2.663,5.673,2.894,8.966l1.642,23.377c0.329,4.688-1.021,9.156-4.045,13.401
			c-3.023,4.246-6.781,7.743-11.271,10.482l24.297,39.471c0.573,1.706-0.115,2.707-2.055,3.007l-20.397,3.152
			c-0.896,0.139-1.774,0.019-2.631-0.363c-0.856-0.376-1.464-0.924-1.813-1.64l-18.832-32.628L532.449,116.902z M528.204,56.466
			l7.173-1.108c1.493-0.232,2.732-0.872,3.719-1.92c0.979-1.045,1.432-2.205,1.341-3.475l-1.508-21.475
			c-0.088-1.264-0.688-2.261-1.797-2.987c-1.107-0.724-2.411-0.973-3.903-0.742l-7.172,1.108L528.204,56.466z"/>
	</g>
</g>
<polyline fill="#F1F2F2" points="107.413,92.084 557.103,37.333 576.942,155.959 94.188,221.355 "/>
<g>
	<g>
		<path d="M139.25,73.234l-19.196,153.284c-0.193,2.119-1.437,3.363-3.732,3.738l-21.66,3.549c-2.299,0.377-3.679-0.438-4.144-2.449
			L78.256,177.73l-0.246,0.039l-4.966,56.446c-0.194,2.119-1.437,3.363-3.733,3.739l-21.658,3.547
			c-2.301,0.377-3.679-0.438-4.144-2.451L4.619,95.281c-0.468-2.007,0.447-3.2,2.748-3.577L33.95,87.35
			c2.131-0.348,3.429,0.481,3.896,2.49l17.056,88.363l0.984-0.161l2.39-91.547c0.19-2.115,1.353-3.35,3.487-3.698l19.936-3.266
			c2.131-0.349,3.43,0.482,3.897,2.489l14.348,88.808l0.985-0.161l5.096-91.992c0.189-2.115,1.353-3.349,3.487-3.698l26.583-4.354
			C138.387,70.248,139.44,71.119,139.25,73.234z"/>
		<path d="M208.647,84.212l8.382,126.425c0.138,2.066-0.945,3.284-3.241,3.658l-21.905,3.588c-2.299,0.377-3.513-0.465-3.65-2.531
			l-3.313-49.951l-16.244,2.66l3.312,49.953c0.138,2.064-0.944,3.281-3.241,3.658l-21.906,3.588c-2.3,0.377-3.513-0.467-3.651-2.531
			l-8.383-126.426c-0.137-2.062,0.941-3.281,3.24-3.658l21.906-3.587c2.295-0.376,3.514,0.468,3.651,2.53l3.356,50.613l16.245-2.661
			l-3.357-50.614c-0.137-2.062,0.941-3.28,3.241-3.658l21.905-3.586C207.292,81.307,208.51,82.151,208.647,84.212z"/>
		<path d="M249.517,205.316c0.138,2.065-0.944,3.283-3.241,3.658l-21.905,3.588c-2.3,0.379-3.514-0.465-3.651-2.529l-8.382-126.425
			c-0.137-2.061,0.939-3.282,3.24-3.659l21.905-3.587c2.296-0.375,3.515,0.468,3.651,2.53L249.517,205.316z"/>
		<path d="M293.396,67.877c3.87,0.858,7.285,2.308,10.241,4.353c2.954,2.053,5.363,4.634,7.231,7.753
			c1.864,3.124,2.925,6.596,3.18,10.427l0.557,8.399c0.137,2.065-0.844,3.567-2.936,4.504l-22.045,8.972
			c-2.095,0.939-3.208,0.378-3.346-1.688l-0.952-14.365c-0.098-1.471-0.758-2.629-1.973-3.474c-1.218-0.84-2.648-1.131-4.286-0.862
			l-1.969,0.322c-1.643,0.269-3.004,1.018-4.082,2.232c-1.081,1.224-1.571,2.569-1.475,4.04l0.894,13.482
			c0.27,1.596,0.693,2.941,1.264,4.038c0.571,1.101,1.549,2.132,2.941,3.094l33.679,16.38c2.76,1.637,4.584,3.459,5.463,5.473
			c0.881,2.016,1.571,4.323,2.077,6.92l1.495,22.544c0.255,3.834-0.329,7.578-1.743,11.235c-1.417,3.66-3.437,6.969-6.059,9.928
			c-2.625,2.965-5.774,5.491-9.45,7.581c-3.678,2.089-7.647,3.485-11.913,4.187l-9.354,1.53c-4.268,0.7-8.336,0.617-12.207-0.235
			c-3.874-0.854-7.288-2.306-10.241-4.354c-2.958-2.047-5.368-4.63-7.232-7.754c-1.867-3.117-2.926-6.593-3.179-10.425
			l-0.821-12.377c-0.138-2.063,0.84-3.563,2.935-4.506l22.046-8.973c2.09-0.934,3.21-0.374,3.346,1.688l1.217,18.344
			c0.098,1.476,0.754,2.635,1.972,3.476c1.215,0.846,2.644,1.129,4.286,0.859l1.97-0.32c1.639-0.27,3.001-1.011,4.082-2.231
			c1.079-1.216,1.572-2.564,1.474-4.04l-0.908-13.702c-0.292-1.888-0.731-3.528-1.322-4.923c-0.589-1.391-1.662-2.557-3.217-3.495
			l-33.202-16.682c-2.597-1.658-4.5-3.431-5.702-5.322c-1.206-1.886-1.918-4.524-2.144-7.916l-1.318-19.892
			c-0.255-3.831,0.326-7.573,1.742-11.234c1.414-3.656,3.434-6.963,6.06-9.928c2.622-2.959,5.77-5.486,9.449-7.579
			c3.675-2.091,7.646-3.488,11.914-4.188l9.352-1.531C285.454,66.942,289.521,67.022,293.396,67.877z"/>
		<path d="M382.616,57.086l1.303,19.671c0.138,2.066-0.943,3.284-3.239,3.661l-17.476,2.862l6.873,103.66
			c0.14,2.064-0.944,3.283-3.24,3.658l-21.905,3.588c-0.822,0.135-1.619-0.033-2.396-0.502c-0.777-0.467-1.197-1.145-1.255-2.029
			l-6.874-103.659l-17.229,2.822c-2.298,0.376-3.513-0.466-3.65-2.53l-1.305-19.671c-0.137-2.063,0.94-3.282,3.241-3.659
			l63.502-10.399C381.262,54.182,382.479,55.025,382.616,57.086z"/>
		<path d="M454.541,153.564l1.305,19.67c0.138,2.064-0.946,3.285-3.242,3.66l-33.226,5.439l-0.491,0.081l-0.248,0.042l-21.904,3.585
			c-2.3,0.379-3.515-0.465-3.652-2.53l-8.383-126.426c-0.136-2.062,0.942-3.28,3.24-3.657l21.905-3.587
			c2.295-0.376,3.515,0.468,3.65,2.53l6.876,103.661l30.518-4.998C453.186,150.66,454.404,151.502,454.541,153.564z"/>
		<path d="M514.997,143.891l1.304,19.671c0.137,2.064-0.944,3.283-3.24,3.66l-53.411,8.745c-2.3,0.378-3.514-0.465-3.651-2.53
			l-8.382-126.425c-0.138-2.062,0.939-3.282,3.24-3.659l53.41-8.746c2.295-0.376,3.514,0.468,3.65,2.529l1.305,19.671
			c0.137,2.065-0.944,3.283-3.241,3.659l-28.059,4.595l1.671,25.198l24.367-3.99c2.296-0.376,3.514,0.468,3.652,2.53l1.303,19.671
			c0.138,2.064-0.943,3.283-3.241,3.659l-24.366,3.99l1.979,29.838l28.057-4.595C513.643,140.985,514.861,141.83,514.997,143.891z"
			/>
		<path d="M548.945,158.443c0.137,2.066-1.025,3.297-3.487,3.699l-21.906,3.588c-2.133,0.351-3.267-0.504-3.405-2.57l-8.383-126.425
			c-0.137-2.061,0.941-3.281,3.241-3.658l36.921-6.046c4.264-0.699,8.332-0.617,12.206,0.235c3.871,0.857,7.282,2.309,10.24,4.356
			c2.953,2.051,5.366,4.632,7.231,7.752c1.863,3.125,2.926,6.598,3.18,10.426l1.803,27.187c0.36,5.452-1.121,10.649-4.439,15.585
			c-3.322,4.938-7.45,9.004-12.379,12.192l26.682,45.901c0.629,1.983-0.126,3.147-2.256,3.497l-22.396,3.668
			c-0.985,0.162-1.952,0.021-2.891-0.422c-0.942-0.438-1.606-1.076-1.994-1.906l-20.677-37.947L548.945,158.443z M544.284,88.16
			l7.877-1.29c1.638-0.269,3-1.013,4.081-2.232c1.077-1.217,1.572-2.565,1.472-4.041l-1.655-24.976
			c-0.097-1.469-0.758-2.628-1.971-3.473c-1.218-0.842-2.649-1.132-4.287-0.863l-7.875,1.29L544.284,88.16z"/>
	</g>
	<g>
		
			<linearGradient id="SVGID_21_" gradientUnits="userSpaceOnUse" x1="195.1294" y1="50.4756" x2="221.0917" y2="-58.009" gradientTransform="matrix(1 0 0 -1 -118.623 153.3398)">
			<stop  offset="0" style="stop-color:#9ADAEF"/>
			<stop  offset="0.0288" style="stop-color:#94D7EC"/>
			<stop  offset="0.1924" style="stop-color:#72CAE1"/>
			<stop  offset="0.3642" style="stop-color:#54C1D9"/>
			<stop  offset="0.5458" style="stop-color:#36BBD3"/>
			<stop  offset="0.7436" style="stop-color:#18B8D0"/>
			<stop  offset="0.9879" style="stop-color:#00B7CF"/>
		</linearGradient>
		<path fill="url(#SVGID_21_)" d="M139.25,73.234l-19.196,153.284c-0.193,2.119-1.437,3.363-3.732,3.738l-21.66,3.549
			c-2.299,0.377-3.679-0.438-4.144-2.449L78.256,177.73l-0.246,0.039l-4.966,56.446c-0.194,2.119-1.437,3.363-3.733,3.739
			l-21.658,3.547c-2.301,0.377-3.679-0.438-4.144-2.451L4.619,95.281c-0.468-2.007,0.447-3.2,2.748-3.577L33.95,87.35
			c2.131-0.348,3.429,0.481,3.896,2.49l17.056,88.363l0.984-0.161l2.39-91.547c0.19-2.115,1.353-3.35,3.487-3.698l19.936-3.266
			c2.131-0.349,3.43,0.482,3.897,2.489l14.348,88.808l0.985-0.161l5.096-91.992c0.189-2.115,1.353-3.349,3.487-3.698l26.583-4.354
			C138.387,70.248,139.44,71.119,139.25,73.234z"/>
		
			<linearGradient id="SVGID_22_" gradientUnits="userSpaceOnUse" x1="277.647" y1="70.4668" x2="303.6161" y2="-38.0464" gradientTransform="matrix(1 0 0 -1 -118.623 153.3398)">
			<stop  offset="0" style="stop-color:#9ADAEF"/>
			<stop  offset="0.0288" style="stop-color:#94D7EC"/>
			<stop  offset="0.1924" style="stop-color:#72CAE1"/>
			<stop  offset="0.3642" style="stop-color:#54C1D9"/>
			<stop  offset="0.5458" style="stop-color:#36BBD3"/>
			<stop  offset="0.7436" style="stop-color:#18B8D0"/>
			<stop  offset="0.9879" style="stop-color:#00B7CF"/>
		</linearGradient>
		<path fill="url(#SVGID_22_)" d="M208.647,84.212l8.382,126.425c0.138,2.066-0.945,3.284-3.241,3.658l-21.905,3.588
			c-2.299,0.377-3.513-0.465-3.65-2.531l-3.313-49.951l-16.244,2.66l3.312,49.953c0.138,2.064-0.944,3.281-3.241,3.658
			l-21.906,3.588c-2.3,0.377-3.513-0.467-3.651-2.531l-8.383-126.426c-0.137-2.062,0.941-3.281,3.24-3.658l21.906-3.587
			c2.295-0.376,3.514,0.468,3.651,2.53l3.356,50.613l16.245-2.661l-3.357-50.614c-0.137-2.062,0.941-3.28,3.241-3.658l21.905-3.586
			C207.292,81.307,208.51,82.151,208.647,84.212z"/>
		
			<linearGradient id="SVGID_23_" gradientUnits="userSpaceOnUse" x1="331.6748" y1="83.5693" x2="357.6621" y2="-25.02" gradientTransform="matrix(1 0 0 -1 -118.623 153.3398)">
			<stop  offset="0" style="stop-color:#9ADAEF"/>
			<stop  offset="0.0288" style="stop-color:#94D7EC"/>
			<stop  offset="0.1924" style="stop-color:#72CAE1"/>
			<stop  offset="0.3642" style="stop-color:#54C1D9"/>
			<stop  offset="0.5458" style="stop-color:#36BBD3"/>
			<stop  offset="0.7436" style="stop-color:#18B8D0"/>
			<stop  offset="0.9879" style="stop-color:#00B7CF"/>
		</linearGradient>
		<path fill="url(#SVGID_23_)" d="M249.517,205.316c0.138,2.065-0.944,3.283-3.241,3.658l-21.905,3.588
			c-2.3,0.379-3.514-0.465-3.651-2.529l-8.382-126.425c-0.137-2.061,0.939-3.282,3.24-3.659l21.905-3.587
			c2.296-0.375,3.515,0.468,3.651,2.53L249.517,205.316z"/>
		
			<linearGradient id="SVGID_24_" gradientUnits="userSpaceOnUse" x1="380.877" y1="95.4648" x2="406.8679" y2="-13.1396" gradientTransform="matrix(1 0 0 -1 -118.623 153.3398)">
			<stop  offset="0" style="stop-color:#9ADAEF"/>
			<stop  offset="0.0288" style="stop-color:#94D7EC"/>
			<stop  offset="0.1924" style="stop-color:#72CAE1"/>
			<stop  offset="0.3642" style="stop-color:#54C1D9"/>
			<stop  offset="0.5458" style="stop-color:#36BBD3"/>
			<stop  offset="0.7436" style="stop-color:#18B8D0"/>
			<stop  offset="0.9879" style="stop-color:#00B7CF"/>
		</linearGradient>
		<path fill="url(#SVGID_24_)" d="M293.396,67.877c3.87,0.858,7.285,2.308,10.241,4.353c2.954,2.053,5.363,4.634,7.231,7.753
			c1.864,3.124,2.925,6.596,3.18,10.427l0.557,8.399c0.137,2.065-0.844,3.567-2.936,4.504l-22.045,8.972
			c-2.095,0.939-3.208,0.378-3.346-1.688l-0.952-14.365c-0.098-1.471-0.758-2.629-1.973-3.474c-1.218-0.84-2.648-1.131-4.286-0.862
			l-1.969,0.322c-1.643,0.269-3.004,1.018-4.082,2.232c-1.081,1.224-1.571,2.569-1.475,4.04l0.894,13.482
			c0.27,1.596,0.693,2.941,1.264,4.038c0.571,1.101,1.549,2.132,2.941,3.094l33.679,16.38c2.76,1.637,4.584,3.459,5.463,5.473
			c0.881,2.016,1.571,4.323,2.077,6.92l1.495,22.544c0.255,3.834-0.329,7.578-1.743,11.235c-1.417,3.66-3.437,6.969-6.059,9.928
			c-2.625,2.965-5.774,5.491-9.45,7.581c-3.678,2.089-7.647,3.485-11.913,4.187l-9.354,1.53c-4.268,0.7-8.336,0.617-12.207-0.235
			c-3.874-0.854-7.288-2.306-10.241-4.354c-2.958-2.047-5.368-4.63-7.232-7.754c-1.867-3.117-2.926-6.593-3.179-10.425
			l-0.821-12.377c-0.138-2.063,0.84-3.563,2.935-4.506l22.046-8.973c2.09-0.934,3.21-0.374,3.346,1.688l1.217,18.344
			c0.098,1.476,0.754,2.635,1.972,3.476c1.215,0.846,2.644,1.129,4.286,0.859l1.97-0.32c1.639-0.27,3.001-1.011,4.082-2.231
			c1.079-1.216,1.572-2.564,1.474-4.04l-0.908-13.702c-0.292-1.888-0.731-3.528-1.322-4.923c-0.589-1.391-1.662-2.557-3.217-3.495
			l-33.202-16.682c-2.597-1.658-4.5-3.431-5.702-5.322c-1.206-1.886-1.918-4.524-2.144-7.916l-1.318-19.892
			c-0.255-3.831,0.326-7.573,1.742-11.234c1.414-3.656,3.434-6.963,6.06-9.928c2.622-2.959,5.77-5.486,9.449-7.579
			c3.675-2.091,7.646-3.488,11.914-4.188l9.352-1.531C285.454,66.942,289.521,67.022,293.396,67.877z"/>
		
			<linearGradient id="SVGID_25_" gradientUnits="userSpaceOnUse" x1="458.6729" y1="114.1733" x2="484.6517" y2="5.6193" gradientTransform="matrix(1 0 0 -1 -118.623 153.3398)">
			<stop  offset="0" style="stop-color:#9ADAEF"/>
			<stop  offset="0.0288" style="stop-color:#94D7EC"/>
			<stop  offset="0.1924" style="stop-color:#72CAE1"/>
			<stop  offset="0.3642" style="stop-color:#54C1D9"/>
			<stop  offset="0.5458" style="stop-color:#36BBD3"/>
			<stop  offset="0.7436" style="stop-color:#18B8D0"/>
			<stop  offset="0.9879" style="stop-color:#00B7CF"/>
		</linearGradient>
		<path fill="url(#SVGID_25_)" d="M382.616,57.086l1.303,19.671c0.138,2.066-0.943,3.284-3.239,3.661l-17.476,2.862l6.873,103.66
			c0.14,2.064-0.944,3.283-3.24,3.658l-21.905,3.588c-0.822,0.135-1.619-0.033-2.396-0.502c-0.777-0.467-1.197-1.145-1.255-2.029
			l-6.874-103.659l-17.229,2.822c-2.298,0.376-3.513-0.466-3.65-2.53l-1.305-19.671c-0.137-2.063,0.94-3.282,3.241-3.659
			l63.502-10.399C381.262,54.182,382.479,55.025,382.616,57.086z"/>
		
			<linearGradient id="SVGID_26_" gradientUnits="userSpaceOnUse" x1="508.5801" y1="126.2671" x2="534.5537" y2="17.7351" gradientTransform="matrix(1 0 0 -1 -118.623 153.3398)">
			<stop  offset="0" style="stop-color:#9ADAEF"/>
			<stop  offset="0.0288" style="stop-color:#94D7EC"/>
			<stop  offset="0.1924" style="stop-color:#72CAE1"/>
			<stop  offset="0.3642" style="stop-color:#54C1D9"/>
			<stop  offset="0.5458" style="stop-color:#36BBD3"/>
			<stop  offset="0.7436" style="stop-color:#18B8D0"/>
			<stop  offset="0.9879" style="stop-color:#00B7CF"/>
		</linearGradient>
		<path fill="url(#SVGID_26_)" d="M454.541,153.564l1.305,19.67c0.138,2.064-0.946,3.285-3.242,3.66l-33.226,5.439l-0.491,0.081
			l-0.248,0.042l-21.904,3.585c-2.3,0.379-3.515-0.465-3.652-2.53l-8.383-126.426c-0.136-2.062,0.942-3.28,3.24-3.657l21.905-3.587
			c2.295-0.376,3.515,0.468,3.65,2.53l6.876,103.661l30.518-4.998C453.186,150.66,454.404,151.502,454.541,153.564z"/>
		
			<linearGradient id="SVGID_27_" gradientUnits="userSpaceOnUse" x1="577.8623" y1="142.9834" x2="603.8368" y2="34.4476" gradientTransform="matrix(1 0 0 -1 -118.623 153.3398)">
			<stop  offset="0" style="stop-color:#9ADAEF"/>
			<stop  offset="0.0288" style="stop-color:#94D7EC"/>
			<stop  offset="0.1924" style="stop-color:#72CAE1"/>
			<stop  offset="0.3642" style="stop-color:#54C1D9"/>
			<stop  offset="0.5458" style="stop-color:#36BBD3"/>
			<stop  offset="0.7436" style="stop-color:#18B8D0"/>
			<stop  offset="0.9879" style="stop-color:#00B7CF"/>
		</linearGradient>
		<path fill="url(#SVGID_27_)" d="M514.997,143.891l1.304,19.671c0.137,2.064-0.944,3.283-3.24,3.66l-53.411,8.745
			c-2.3,0.378-3.514-0.465-3.651-2.53l-8.382-126.425c-0.138-2.062,0.939-3.282,3.24-3.659l53.41-8.746
			c2.295-0.376,3.514,0.468,3.65,2.529l1.305,19.671c0.137,2.065-0.944,3.283-3.241,3.659l-28.059,4.595l1.671,25.198l24.367-3.99
			c2.296-0.376,3.514,0.468,3.652,2.53l1.303,19.671c0.138,2.064-0.943,3.283-3.241,3.659l-24.366,3.99l1.979,29.838l28.057-4.595
			C513.643,140.985,514.861,141.83,514.997,143.891z"/>
		
			<linearGradient id="SVGID_28_" gradientUnits="userSpaceOnUse" x1="644.3906" y1="159.0322" x2="670.3583" y2="50.525" gradientTransform="matrix(1 0 0 -1 -118.623 153.3398)">
			<stop  offset="0" style="stop-color:#9ADAEF"/>
			<stop  offset="0.0288" style="stop-color:#94D7EC"/>
			<stop  offset="0.1924" style="stop-color:#72CAE1"/>
			<stop  offset="0.3642" style="stop-color:#54C1D9"/>
			<stop  offset="0.5458" style="stop-color:#36BBD3"/>
			<stop  offset="0.7436" style="stop-color:#18B8D0"/>
			<stop  offset="0.9879" style="stop-color:#00B7CF"/>
		</linearGradient>
		<path fill="url(#SVGID_28_)" d="M548.945,158.443c0.137,2.066-1.025,3.297-3.487,3.699l-21.906,3.588
			c-2.133,0.351-3.267-0.504-3.405-2.57l-8.383-126.425c-0.137-2.061,0.941-3.281,3.241-3.658l36.921-6.046
			c4.264-0.699,8.332-0.617,12.206,0.235c3.871,0.857,7.282,2.309,10.24,4.356c2.953,2.051,5.366,4.632,7.231,7.752
			c1.863,3.125,2.926,6.598,3.18,10.426l1.803,27.187c0.36,5.452-1.121,10.649-4.439,15.585c-3.322,4.938-7.45,9.004-12.379,12.192
			l26.682,45.901c0.629,1.983-0.126,3.147-2.256,3.497l-22.396,3.668c-0.985,0.162-1.952,0.021-2.891-0.422
			c-0.942-0.438-1.606-1.076-1.994-1.906l-20.677-37.947L548.945,158.443z M544.284,88.16l7.877-1.29
			c1.638-0.269,3-1.013,4.081-2.232c1.077-1.217,1.572-2.565,1.472-4.041l-1.655-24.976c-0.097-1.469-0.758-2.628-1.971-3.473
			c-1.218-0.842-2.649-1.132-4.287-0.863l-7.875,1.29L544.284,88.16z"/>
	</g>
	<g>
		<path fill="none" stroke="#F1F2F2" stroke-width="9" stroke-linejoin="round" d="M139.25,73.234l-19.196,153.284
			c-0.193,2.119-1.437,3.363-3.732,3.738l-21.66,3.549c-2.299,0.377-3.679-0.438-4.144-2.449L78.256,177.73l-0.246,0.039
			l-4.966,56.446c-0.194,2.119-1.437,3.363-3.733,3.739l-21.658,3.547c-2.301,0.377-3.679-0.438-4.144-2.451L4.619,95.281
			c-0.468-2.007,0.447-3.2,2.748-3.577L33.95,87.35c2.131-0.348,3.429,0.481,3.896,2.49l17.056,88.363l0.984-0.161l2.39-91.547
			c0.19-2.115,1.353-3.35,3.487-3.698l19.936-3.266c2.131-0.349,3.43,0.482,3.897,2.489l14.348,88.808l0.985-0.161l5.096-91.992
			c0.189-2.115,1.353-3.349,3.487-3.698l26.583-4.354C138.387,70.248,139.44,71.119,139.25,73.234z"/>
		<path fill="none" stroke="#F1F2F2" stroke-width="9" stroke-linejoin="round" d="M208.647,84.212l8.382,126.425
			c0.138,2.066-0.945,3.284-3.241,3.658l-21.905,3.588c-2.299,0.377-3.513-0.465-3.65-2.531l-3.313-49.951l-16.244,2.66
			l3.312,49.953c0.138,2.064-0.944,3.281-3.241,3.658l-21.906,3.588c-2.3,0.377-3.513-0.467-3.651-2.531l-8.383-126.426
			c-0.137-2.062,0.941-3.281,3.24-3.658l21.906-3.587c2.295-0.376,3.514,0.468,3.651,2.53l3.356,50.613l16.245-2.661l-3.357-50.614
			c-0.137-2.062,0.941-3.28,3.241-3.658l21.905-3.586C207.292,81.307,208.51,82.151,208.647,84.212z"/>
		<path fill="none" stroke="#F1F2F2" stroke-width="9" stroke-linejoin="round" d="M249.517,205.316
			c0.138,2.065-0.944,3.283-3.241,3.658l-21.905,3.588c-2.3,0.379-3.514-0.465-3.651-2.529l-8.382-126.425
			c-0.137-2.061,0.939-3.282,3.24-3.659l21.905-3.587c2.296-0.375,3.515,0.468,3.651,2.53L249.517,205.316z"/>
		<path fill="none" stroke="#F1F2F2" stroke-width="9" stroke-linejoin="round" d="M293.396,67.877
			c3.87,0.858,7.285,2.308,10.241,4.353c2.954,2.053,5.363,4.634,7.231,7.753c1.864,3.124,2.925,6.596,3.18,10.427l0.557,8.399
			c0.137,2.065-0.844,3.567-2.936,4.504l-22.045,8.972c-2.095,0.939-3.208,0.378-3.346-1.688l-0.952-14.365
			c-0.098-1.471-0.758-2.629-1.973-3.474c-1.218-0.84-2.648-1.131-4.286-0.862l-1.969,0.322c-1.643,0.269-3.004,1.018-4.082,2.232
			c-1.081,1.224-1.571,2.569-1.475,4.04l0.894,13.482c0.27,1.596,0.693,2.941,1.264,4.038c0.571,1.101,1.549,2.132,2.941,3.094
			l33.679,16.38c2.76,1.637,4.584,3.459,5.463,5.473c0.881,2.016,1.571,4.323,2.077,6.92l1.495,22.544
			c0.255,3.834-0.329,7.578-1.743,11.235c-1.417,3.66-3.437,6.969-6.059,9.928c-2.625,2.965-5.774,5.491-9.45,7.581
			c-3.678,2.089-7.647,3.485-11.913,4.187l-9.354,1.53c-4.268,0.7-8.336,0.617-12.207-0.235c-3.874-0.854-7.288-2.306-10.241-4.354
			c-2.958-2.047-5.368-4.63-7.232-7.754c-1.867-3.117-2.926-6.593-3.179-10.425l-0.821-12.377c-0.138-2.063,0.84-3.563,2.935-4.506
			l22.046-8.973c2.09-0.934,3.21-0.374,3.346,1.688l1.217,18.344c0.098,1.476,0.754,2.635,1.972,3.476
			c1.215,0.846,2.644,1.129,4.286,0.859l1.97-0.32c1.639-0.27,3.001-1.011,4.082-2.231c1.079-1.216,1.572-2.564,1.474-4.04
			l-0.908-13.702c-0.292-1.888-0.731-3.528-1.322-4.923c-0.589-1.391-1.662-2.557-3.217-3.495l-33.202-16.682
			c-2.597-1.658-4.5-3.431-5.702-5.322c-1.206-1.886-1.918-4.524-2.144-7.916l-1.318-19.892c-0.255-3.831,0.326-7.573,1.742-11.234
			c1.414-3.656,3.434-6.963,6.06-9.928c2.622-2.959,5.77-5.486,9.449-7.579c3.675-2.091,7.646-3.488,11.914-4.188l9.352-1.531
			C285.454,66.942,289.521,67.022,293.396,67.877z"/>
		<path fill="none" stroke="#F1F2F2" stroke-width="9" stroke-linejoin="round" d="M382.616,57.086l1.303,19.671
			c0.138,2.066-0.943,3.284-3.239,3.661l-17.476,2.862l6.873,103.66c0.14,2.064-0.944,3.283-3.24,3.658l-21.905,3.588
			c-0.822,0.135-1.619-0.033-2.396-0.502c-0.777-0.467-1.197-1.145-1.255-2.029l-6.874-103.659l-17.229,2.822
			c-2.298,0.376-3.513-0.466-3.65-2.53l-1.305-19.671c-0.137-2.063,0.94-3.282,3.241-3.659l63.502-10.399
			C381.262,54.182,382.479,55.025,382.616,57.086z"/>
		<path fill="none" stroke="#F1F2F2" stroke-width="9" stroke-linejoin="round" d="M454.541,153.564l1.305,19.67
			c0.138,2.064-0.946,3.285-3.242,3.66l-33.226,5.439l-0.491,0.081l-0.248,0.042l-21.904,3.585c-2.3,0.379-3.515-0.465-3.652-2.53
			l-8.383-126.426c-0.136-2.062,0.942-3.28,3.24-3.657l21.905-3.587c2.295-0.376,3.515,0.468,3.65,2.53l6.876,103.661l30.518-4.998
			C453.186,150.66,454.404,151.502,454.541,153.564z"/>
		<path fill="none" stroke="#F1F2F2" stroke-width="9" stroke-linejoin="round" d="M514.997,143.891l1.304,19.671
			c0.137,2.064-0.944,3.283-3.24,3.66l-53.411,8.745c-2.3,0.378-3.514-0.465-3.651-2.53l-8.382-126.425
			c-0.138-2.062,0.939-3.282,3.24-3.659l53.41-8.746c2.295-0.376,3.514,0.468,3.65,2.529l1.305,19.671
			c0.137,2.065-0.944,3.283-3.241,3.659l-28.059,4.595l1.671,25.198l24.367-3.99c2.296-0.376,3.514,0.468,3.652,2.53l1.303,19.671
			c0.138,2.064-0.943,3.283-3.241,3.659l-24.366,3.99l1.979,29.838l28.057-4.595C513.643,140.985,514.861,141.83,514.997,143.891z"
			/>
		<path fill="none" stroke="#F1F2F2" stroke-width="9" stroke-linejoin="round" d="M548.945,158.443
			c0.137,2.066-1.025,3.297-3.487,3.699l-21.906,3.588c-2.133,0.351-3.267-0.504-3.405-2.57l-8.383-126.425
			c-0.137-2.061,0.941-3.281,3.241-3.658l36.921-6.046c4.264-0.699,8.332-0.617,12.206,0.235c3.871,0.857,7.282,2.309,10.24,4.356
			c2.953,2.051,5.366,4.632,7.231,7.752c1.863,3.125,2.926,6.598,3.18,10.426l1.803,27.187c0.36,5.452-1.121,10.649-4.439,15.585
			c-3.322,4.938-7.45,9.004-12.379,12.192l26.682,45.901c0.629,1.983-0.126,3.147-2.256,3.497l-22.396,3.668
			c-0.985,0.162-1.952,0.021-2.891-0.422c-0.942-0.438-1.606-1.076-1.994-1.906l-20.677-37.947L548.945,158.443z M544.284,88.16
			l7.877-1.29c1.638-0.269,3-1.013,4.081-2.232c1.077-1.217,1.572-2.565,1.472-4.041l-1.655-24.976
			c-0.097-1.469-0.758-2.628-1.971-3.473c-1.218-0.842-2.649-1.132-4.287-0.863l-7.875,1.29L544.284,88.16z"/>
	</g>
</g>
<polygon fill="#F1F2F2" points="361.167,153.802 347.676,214.361 550.044,248.967 542.901,214.361 558.773,191.292 "/>
<g>
	<g>
		
			<linearGradient id="SVGID_29_" gradientUnits="userSpaceOnUse" x1="534.0605" y1="22.3877" x2="570.6484" y2="22.3877" gradientTransform="matrix(0.9201 0.1282 0.138 -0.9904 -143.2914 134.4735)">
			<stop  offset="0" style="stop-color:#FFFFFF"/>
			<stop  offset="1" style="stop-color:#F15A29"/>
		</linearGradient>
		<path fill="url(#SVGID_29_)" d="M379.229,225.602c-0.007,1.137-0.509,1.631-1.505,1.484l-9.736-1.405
			c-0.929-0.134-1.389-0.767-1.381-1.902l0.878-13.017l-6.634-0.959l-2.587,12.771c-0.294,1.097-0.904,1.573-1.829,1.438
			l-9.735-1.404c-0.998-0.145-1.352-0.762-1.059-1.855l18.805-79.064c0.292-1.094,0.938-1.57,1.938-1.424l14.121,2.039
			c0.996,0.143,1.494,0.781,1.485,1.918L379.229,225.602z M368.423,197.269l2.317-32.646l-0.856-0.123l-6.38,32.058L368.423,197.269
			z"/>
		
			<linearGradient id="SVGID_30_" gradientUnits="userSpaceOnUse" x1="572.1172" y1="16.2383" x2="605.4502" y2="16.2383" gradientTransform="matrix(0.9201 0.1282 0.138 -0.9904 -143.2914 134.4735)">
			<stop  offset="0" style="stop-color:#FFFFFF"/>
			<stop  offset="1" style="stop-color:#F15A29"/>
		</linearGradient>
		<path fill="url(#SVGID_30_)" d="M420.712,161.982l-1.427,10.625c-0.15,1.115-0.726,1.6-1.723,1.455l-7.596-1.098l-7.523,55.99
			c-0.15,1.114-0.725,1.6-1.725,1.454l-9.521-1.375c-0.355-0.052-0.673-0.261-0.952-0.625c-0.278-0.362-0.386-0.784-0.322-1.263
			l7.526-55.989l-7.489-1.082c-0.999-0.145-1.424-0.772-1.274-1.888l1.43-10.624c0.149-1.114,0.724-1.601,1.724-1.455l27.6,3.985
			C420.437,160.237,420.862,160.868,420.712,161.982z"/>
		
			<linearGradient id="SVGID_31_" gradientUnits="userSpaceOnUse" x1="611.209" y1="16.0576" x2="644.543" y2="16.0576" gradientTransform="matrix(0.9201 0.1282 0.138 -0.9904 -143.2914 134.4735)">
			<stop  offset="0" style="stop-color:#FFFFFF"/>
			<stop  offset="1" style="stop-color:#F15A29"/>
		</linearGradient>
		<path fill="url(#SVGID_31_)" d="M456.657,167.176l-1.428,10.623c-0.15,1.115-0.726,1.601-1.724,1.455l-7.595-1.099l-7.525,55.99
			c-0.15,1.114-0.725,1.601-1.723,1.455l-9.521-1.374c-0.358-0.053-0.674-0.26-0.953-0.626c-0.278-0.363-0.385-0.785-0.32-1.263
			l7.524-55.989l-7.487-1.081c-1.001-0.146-1.424-0.773-1.273-1.889l1.427-10.625c0.15-1.113,0.724-1.599,1.725-1.455l27.598,3.986
			C456.382,165.431,456.806,166.063,456.657,167.176z"/>
		
			<linearGradient id="SVGID_32_" gradientUnits="userSpaceOnUse" x1="646.6826" y1="15.8403" x2="683.2725" y2="15.8403" gradientTransform="matrix(0.9201 0.1282 0.138 -0.9904 -143.2914 134.4735)">
			<stop  offset="0" style="stop-color:#FFFFFF"/>
			<stop  offset="1" style="stop-color:#F15A29"/>
		</linearGradient>
		<path fill="url(#SVGID_32_)" d="M482.782,240.56c-0.008,1.136-0.51,1.63-1.508,1.485l-9.734-1.405
			c-0.928-0.134-1.389-0.767-1.381-1.903l0.717-11.822l-6.633-0.959l-2.429,11.575c-0.294,1.095-0.901,1.573-1.828,1.438
			l-9.733-1.403c-1.001-0.146-1.354-0.763-1.06-1.858l17.201-67.125c0.291-1.094,0.938-1.57,1.937-1.424l14.119,2.038
			c0.998,0.144,1.495,0.785,1.488,1.919L482.782,240.56z M471.815,213.418l1.515-26.677l-0.857-0.124l-5.578,26.092L471.815,213.418
			z"/>
		
			<linearGradient id="SVGID_33_" gradientUnits="userSpaceOnUse" x1="689.4561" y1="15.6675" x2="723.4268" y2="15.6675" gradientTransform="matrix(0.9201 0.1282 0.138 -0.9904 -143.2914 134.4735)">
			<stop  offset="0" style="stop-color:#FFFFFF"/>
			<stop  offset="1" style="stop-color:#F15A29"/>
		</linearGradient>
		<path fill="url(#SVGID_33_)" d="M520.91,175.115c1.533,1.034,2.814,2.315,3.846,3.842c1.03,1.53,1.779,3.26,2.246,5.193
			c0.467,1.936,0.563,3.936,0.285,6.005l-0.963,7.161c-0.15,1.116-0.712,1.766-1.68,1.948l-9.959,0.265
			c-0.971,0.186-1.381-0.277-1.23-1.395l1.236-9.19c0.106-0.796-0.055-1.51-0.478-2.139c-0.426-0.628-0.995-0.996-1.706-1.099
			l-0.855-0.125c-0.714-0.103-1.357,0.092-1.932,0.573c-0.574,0.486-0.913,1.128-1.021,1.923l-5.649,42.021
			c-0.106,0.799,0.053,1.511,0.478,2.139c0.424,0.63,0.993,0.995,1.705,1.099l0.856,0.123c0.713,0.104,1.356-0.088,1.931-0.572
			c0.574-0.483,0.916-1.125,1.021-1.92l1.925-14.327c0.15-1.112,0.667-1.443,1.552-0.992l9.543,2.839
			c0.882,0.453,1.249,1.234,1.101,2.35l-1.686,12.535c-0.278,2.069-0.898,3.969-1.856,5.694c-0.96,1.729-2.137,3.183-3.531,4.356
			c-1.395,1.181-2.967,2.047-4.713,2.606c-1.746,0.558-3.548,0.704-5.401,0.437l-4.065-0.586c-1.854-0.27-3.547-0.92-5.081-1.953
			c-1.536-1.03-2.816-2.312-3.846-3.84c-1.032-1.528-1.779-3.258-2.245-5.192c-0.471-1.933-0.563-3.933-0.286-6.005l5.808-43.215
			c0.278-2.068,0.897-3.967,1.858-5.695c0.957-1.727,2.136-3.178,3.529-4.355c1.395-1.179,2.964-2.047,4.713-2.607
			c1.746-0.557,3.547-0.703,5.402-0.436l4.064,0.588C517.683,173.434,519.376,174.084,520.91,175.115z"/>
		
			<linearGradient id="SVGID_34_" gradientUnits="userSpaceOnUse" x1="730.6973" y1="15.4629" x2="770.0137" y2="15.4629" gradientTransform="matrix(0.9201 0.1282 0.138 -0.9904 -143.2914 134.4735)">
			<stop  offset="0" style="stop-color:#FFFFFF"/>
			<stop  offset="1" style="stop-color:#F15A29"/>
		</linearGradient>
		<path fill="url(#SVGID_34_)" d="M572.022,182.683c0.092,0.378,0.042,0.758-0.154,1.134l-18.64,28.341l9.25,39.914
			c0.088,0.42,0.001,0.79-0.259,1.118c-0.264,0.326-0.607,0.46-1.034,0.398l-10.592-1.53c-0.429-0.062-0.804-0.257-1.122-0.589
			c-0.32-0.327-0.524-0.702-0.612-1.122l-5.146-20.945l-2.333,3.558l-2.119,15.758c-0.147,1.117-0.722,1.601-1.721,1.457
			l-9.521-1.375c-0.999-0.146-1.422-0.772-1.274-1.889l9.178-68.285c0.15-1.113,0.723-1.6,1.724-1.455l9.521,1.375
			c0.996,0.145,1.423,0.772,1.273,1.888l-2.811,20.892l12.684-19.708c0.485-0.903,1.226-1.284,2.225-1.139l10.699,1.545
			C571.665,182.082,571.926,182.303,572.022,182.683z"/>
	</g>
	<g>
		
			<linearGradient id="SVGID_35_" gradientUnits="userSpaceOnUse" x1="549.8633" y1="53.564" x2="549.8633" y2="-18.8774" gradientTransform="matrix(0.9201 0.1282 0.138 -0.9904 -140.9545 134.4735)">
			<stop  offset="0" style="stop-color:#F9A98C"/>
			<stop  offset="1" style="stop-color:#F5875F"/>
		</linearGradient>
		<path fill="url(#SVGID_35_)" d="M379.229,225.602c-0.007,1.137-0.509,1.631-1.505,1.484l-9.736-1.405
			c-0.929-0.134-1.389-0.767-1.381-1.902l0.878-13.017l-6.634-0.959l-2.587,12.771c-0.294,1.097-0.904,1.573-1.829,1.438
			l-9.735-1.404c-0.998-0.145-1.352-0.762-1.059-1.855l18.805-79.064c0.292-1.094,0.938-1.57,1.938-1.424l14.121,2.039
			c0.996,0.143,1.494,0.781,1.485,1.918L379.229,225.602z M368.423,197.269l2.317-32.646l-0.856-0.123l-6.38,32.058L368.423,197.269
			z"/>
		
			<linearGradient id="SVGID_36_" gradientUnits="userSpaceOnUse" x1="586.291" y1="53.8857" x2="586.291" y2="-18.5672" gradientTransform="matrix(0.9201 0.1282 0.138 -0.9904 -140.9545 134.4735)">
			<stop  offset="0" style="stop-color:#F9A98C"/>
			<stop  offset="1" style="stop-color:#F5875F"/>
		</linearGradient>
		<path fill="url(#SVGID_36_)" d="M420.712,161.982l-1.427,10.625c-0.15,1.115-0.726,1.6-1.723,1.455l-7.596-1.098l-7.523,55.99
			c-0.15,1.114-0.725,1.6-1.725,1.454l-9.521-1.375c-0.355-0.052-0.673-0.261-0.952-0.625c-0.278-0.362-0.386-0.784-0.322-1.263
			l7.526-55.989l-7.489-1.082c-0.999-0.145-1.424-0.772-1.274-1.888l1.43-10.624c0.149-1.114,0.724-1.601,1.724-1.455l27.6,3.985
			C420.437,160.237,420.862,160.868,420.712,161.982z"/>
		
			<linearGradient id="SVGID_37_" gradientUnits="userSpaceOnUse" x1="625.3838" y1="54.3721" x2="625.3838" y2="-18.0824" gradientTransform="matrix(0.9201 0.1282 0.138 -0.9904 -140.9545 134.4735)">
			<stop  offset="0" style="stop-color:#F9A98C"/>
			<stop  offset="1" style="stop-color:#F5875F"/>
		</linearGradient>
		<path fill="url(#SVGID_37_)" d="M456.657,167.176l-1.428,10.623c-0.15,1.115-0.726,1.601-1.724,1.455l-7.595-1.099l-7.525,55.99
			c-0.15,1.114-0.725,1.601-1.723,1.455l-9.521-1.374c-0.358-0.053-0.674-0.26-0.953-0.626c-0.278-0.363-0.385-0.785-0.32-1.263
			l7.524-55.989l-7.487-1.081c-1.001-0.146-1.424-0.773-1.273-1.889l1.427-10.625c0.15-1.113,0.724-1.599,1.725-1.455l27.598,3.986
			C456.382,165.431,456.806,166.063,456.657,167.176z"/>
		
			<linearGradient id="SVGID_38_" gradientUnits="userSpaceOnUse" x1="662.4863" y1="54.9141" x2="662.4863" y2="-17.4722" gradientTransform="matrix(0.9201 0.1282 0.138 -0.9904 -140.9545 134.4735)">
			<stop  offset="0" style="stop-color:#F9A98C"/>
			<stop  offset="1" style="stop-color:#F5875F"/>
		</linearGradient>
		<path fill="url(#SVGID_38_)" d="M482.782,240.56c-0.008,1.136-0.51,1.63-1.508,1.485l-9.734-1.405
			c-0.928-0.134-1.389-0.767-1.381-1.903l0.717-11.822l-6.633-0.959l-2.429,11.575c-0.294,1.095-0.901,1.573-1.828,1.438
			l-9.733-1.403c-1.001-0.146-1.354-0.763-1.06-1.858l17.201-67.125c0.291-1.094,0.938-1.57,1.937-1.424l14.119,2.038
			c0.998,0.144,1.495,0.785,1.488,1.919L482.782,240.56z M471.815,213.418l1.515-26.677l-0.857-0.124l-5.578,26.092L471.815,213.418
			z"/>
		
			<linearGradient id="SVGID_39_" gradientUnits="userSpaceOnUse" x1="703.9492" y1="55.5103" x2="703.9492" y2="-17.1364" gradientTransform="matrix(0.9201 0.1282 0.138 -0.9904 -140.9545 134.4735)">
			<stop  offset="0" style="stop-color:#F9A98C"/>
			<stop  offset="1" style="stop-color:#F5875F"/>
		</linearGradient>
		<path fill="url(#SVGID_39_)" d="M520.91,175.115c1.533,1.034,2.814,2.315,3.846,3.842c1.03,1.53,1.779,3.26,2.246,5.193
			c0.467,1.936,0.563,3.936,0.285,6.005l-0.963,7.161c-0.15,1.116-0.712,1.766-1.68,1.948l-9.959,0.265
			c-0.971,0.186-1.381-0.277-1.23-1.395l1.236-9.19c0.106-0.796-0.055-1.51-0.478-2.139c-0.426-0.628-0.995-0.996-1.706-1.099
			l-0.855-0.125c-0.714-0.103-1.357,0.092-1.932,0.573c-0.574,0.486-0.913,1.128-1.021,1.923l-5.649,42.021
			c-0.106,0.799,0.053,1.511,0.478,2.139c0.424,0.63,0.993,0.995,1.705,1.099l0.856,0.123c0.713,0.104,1.356-0.088,1.931-0.572
			c0.574-0.483,0.916-1.125,1.021-1.92l1.925-14.327c0.15-1.112,0.667-1.443,1.552-0.992l9.543,2.839
			c0.882,0.453,1.249,1.234,1.101,2.35l-1.686,12.535c-0.278,2.069-0.898,3.969-1.856,5.694c-0.96,1.729-2.137,3.183-3.531,4.356
			c-1.395,1.181-2.967,2.047-4.713,2.606c-1.746,0.558-3.548,0.704-5.401,0.437l-4.065-0.586c-1.854-0.27-3.547-0.92-5.081-1.953
			c-1.536-1.03-2.816-2.312-3.846-3.84c-1.032-1.528-1.779-3.258-2.245-5.192c-0.471-1.933-0.563-3.933-0.286-6.005l5.808-43.215
			c0.278-2.068,0.897-3.967,1.858-5.695c0.957-1.727,2.136-3.178,3.529-4.355c1.395-1.179,2.964-2.047,4.713-2.607
			c1.746-0.557,3.547-0.703,5.402-0.436l4.064,0.588C517.683,173.434,519.376,174.084,520.91,175.115z"/>
		
			<linearGradient id="SVGID_40_" gradientUnits="userSpaceOnUse" x1="747.8633" y1="55.8403" x2="747.8633" y2="-16.4163" gradientTransform="matrix(0.9201 0.1282 0.138 -0.9904 -140.9545 134.4735)">
			<stop  offset="0" style="stop-color:#F9A98C"/>
			<stop  offset="1" style="stop-color:#F5875F"/>
		</linearGradient>
		<path fill="url(#SVGID_40_)" d="M572.022,182.683c0.092,0.378,0.042,0.758-0.154,1.134l-18.64,28.341l9.25,39.914
			c0.088,0.42,0.001,0.79-0.259,1.118c-0.264,0.326-0.607,0.46-1.034,0.398l-10.592-1.53c-0.429-0.062-0.804-0.257-1.122-0.589
			c-0.32-0.327-0.524-0.702-0.612-1.122l-5.146-20.945l-2.333,3.558l-2.119,15.758c-0.147,1.117-0.722,1.601-1.721,1.457
			l-9.521-1.375c-0.999-0.146-1.422-0.772-1.274-1.889l9.178-68.285c0.15-1.113,0.723-1.6,1.724-1.455l9.521,1.375
			c0.996,0.145,1.423,0.772,1.273,1.888l-2.811,20.892l12.684-19.708c0.485-0.903,1.226-1.284,2.225-1.139l10.699,1.545
			C571.665,182.082,571.926,182.303,572.022,182.683z"/>
	</g>
	<g>
		<path fill="none" stroke="#F1F2F2" stroke-width="6" stroke-linejoin="round" d="M379.229,225.602
			c-0.007,1.137-0.509,1.631-1.505,1.484l-9.736-1.405c-0.929-0.134-1.389-0.767-1.381-1.902l0.878-13.017l-6.634-0.959
			l-2.587,12.771c-0.294,1.097-0.904,1.573-1.829,1.438l-9.735-1.404c-0.998-0.145-1.352-0.762-1.059-1.855l18.805-79.064
			c0.292-1.094,0.938-1.57,1.938-1.424l14.121,2.039c0.996,0.143,1.494,0.781,1.485,1.918L379.229,225.602z M368.423,197.269
			l2.317-32.646l-0.856-0.123l-6.38,32.058L368.423,197.269z"/>
		<path fill="none" stroke="#F1F2F2" stroke-width="6" stroke-linejoin="round" d="M420.712,161.982l-1.427,10.625
			c-0.15,1.115-0.726,1.6-1.723,1.455l-7.596-1.098l-7.523,55.99c-0.15,1.114-0.725,1.6-1.725,1.454l-9.521-1.375
			c-0.355-0.052-0.673-0.261-0.952-0.625c-0.278-0.362-0.386-0.784-0.322-1.263l7.526-55.989l-7.489-1.082
			c-0.999-0.145-1.424-0.772-1.274-1.888l1.43-10.624c0.149-1.114,0.724-1.601,1.724-1.455l27.6,3.985
			C420.437,160.237,420.862,160.868,420.712,161.982z"/>
		<path fill="none" stroke="#F1F2F2" stroke-width="6" stroke-linejoin="round" d="M456.657,167.176l-1.428,10.623
			c-0.15,1.115-0.726,1.601-1.724,1.455l-7.595-1.099l-7.525,55.99c-0.15,1.114-0.725,1.601-1.723,1.455l-9.521-1.374
			c-0.358-0.053-0.674-0.26-0.953-0.626c-0.278-0.363-0.385-0.785-0.32-1.263l7.524-55.989l-7.487-1.081
			c-1.001-0.146-1.424-0.773-1.273-1.889l1.427-10.625c0.15-1.113,0.724-1.599,1.725-1.455l27.598,3.986
			C456.382,165.431,456.806,166.063,456.657,167.176z"/>
		<path fill="none" stroke="#F1F2F2" stroke-width="6" stroke-linejoin="round" d="M482.782,240.56
			c-0.008,1.136-0.51,1.63-1.508,1.485l-9.734-1.405c-0.928-0.134-1.389-0.767-1.381-1.903l0.717-11.822l-6.633-0.959l-2.429,11.575
			c-0.294,1.095-0.901,1.573-1.828,1.438l-9.733-1.403c-1.001-0.146-1.354-0.763-1.06-1.858l17.201-67.125
			c0.291-1.094,0.938-1.57,1.937-1.424l14.119,2.038c0.998,0.144,1.495,0.785,1.488,1.919L482.782,240.56z M471.815,213.418
			l1.515-26.677l-0.857-0.124l-5.578,26.092L471.815,213.418z"/>
		<path fill="none" stroke="#F1F2F2" stroke-width="6" stroke-linejoin="round" d="M520.91,175.115
			c1.533,1.034,2.814,2.315,3.846,3.842c1.03,1.53,1.779,3.26,2.246,5.193c0.467,1.936,0.563,3.936,0.285,6.005l-0.963,7.161
			c-0.15,1.116-0.712,1.766-1.68,1.948l-9.959,0.265c-0.971,0.186-1.381-0.277-1.23-1.395l1.236-9.19
			c0.106-0.796-0.055-1.51-0.478-2.139c-0.426-0.628-0.995-0.996-1.706-1.099l-0.855-0.125c-0.714-0.103-1.357,0.092-1.932,0.573
			c-0.574,0.486-0.913,1.128-1.021,1.923l-5.649,42.021c-0.106,0.799,0.053,1.511,0.478,2.139c0.424,0.63,0.993,0.995,1.705,1.099
			l0.856,0.123c0.713,0.104,1.356-0.088,1.931-0.572c0.574-0.483,0.916-1.125,1.021-1.92l1.925-14.327
			c0.15-1.112,0.667-1.443,1.552-0.992l9.543,2.839c0.882,0.453,1.249,1.234,1.101,2.35l-1.686,12.535
			c-0.278,2.069-0.898,3.969-1.856,5.694c-0.96,1.729-2.137,3.183-3.531,4.356c-1.395,1.181-2.967,2.047-4.713,2.606
			c-1.746,0.558-3.548,0.704-5.401,0.437l-4.065-0.586c-1.854-0.27-3.547-0.92-5.081-1.953c-1.536-1.03-2.816-2.312-3.846-3.84
			c-1.032-1.528-1.779-3.258-2.245-5.192c-0.471-1.933-0.563-3.933-0.286-6.005l5.808-43.215c0.278-2.068,0.897-3.967,1.858-5.695
			c0.957-1.727,2.136-3.178,3.529-4.355c1.395-1.179,2.964-2.047,4.713-2.607c1.746-0.557,3.547-0.703,5.402-0.436l4.064,0.588
			C517.683,173.434,519.376,174.084,520.91,175.115z"/>
		<path fill="none" stroke="#F1F2F2" stroke-width="6" stroke-linejoin="round" d="M572.022,182.683
			c0.092,0.378,0.042,0.758-0.154,1.134l-18.64,28.341l9.25,39.914c0.088,0.42,0.001,0.79-0.259,1.118
			c-0.264,0.326-0.607,0.46-1.034,0.398l-10.592-1.53c-0.429-0.062-0.804-0.257-1.122-0.589c-0.32-0.327-0.524-0.702-0.612-1.122
			l-5.146-20.945l-2.333,3.558l-2.119,15.758c-0.147,1.117-0.722,1.601-1.721,1.457l-9.521-1.375
			c-0.999-0.146-1.422-0.772-1.274-1.889l9.178-68.285c0.15-1.113,0.723-1.6,1.724-1.455l9.521,1.375
			c0.996,0.145,1.423,0.772,1.273,1.888l-2.811,20.892l12.684-19.708c0.485-0.903,1.226-1.284,2.225-1.139l10.699,1.545
			C571.665,182.082,571.926,182.303,572.022,182.683z"/>
	</g>
</g>
</svg>
