<?xml version="1.0" encoding="utf-8"?>
<!-- Generator: Adobe Illustrator 15.0.0, SVG Export Plug-In  -->
<!DOCTYPE svg PUBLIC "-//W3C//DTD SVG 1.1//EN" "http://www.w3.org/Graphics/SVG/1.1/DTD/svg11.dtd" [
	<!ENTITY ns_flows "http://ns.adobe.com/Flows/1.0/">
]>
<svg version="1.1"
	 xmlns="http://www.w3.org/2000/svg" xmlns:xlink="http://www.w3.org/1999/xlink" xmlns:a="http://ns.adobe.com/AdobeSVGViewerExtensions/3.0/"
	 x="0px" y="0px" width="150px" height="150px" viewBox="-4 -5.131 150 150" enable-background="new -4 -5.131 150 150"
	 xml:space="preserve">
<defs>
</defs>
<path fill="#EF4237" stroke="#3C2517" stroke-width="10" stroke-miterlimit="10" d="M43.833,5.144c0,0-34.119-2.152-37.388,10.209
	c-2.728,19.765-1.107,92.684,0.877,103.667c3.334,19.72,35.281,14.862,35.281,14.862s89.662,10.514,93.85-9.652
	c1.736-13.175,2.196-106.657,0.191-110.521c-4.956-9.549-41.168-7.701-46.872-7.701C84.069,6.008,43.833,5.144,43.833,5.144z"/>
<path fill="#BE202E" d="M18.294,88.786c-1.597,3.591-0.992,21.238,0.795,25.958c1.787,4.719,35.837,7.518,47.568,6.43
	c12.71-1.179,55.504,7.729,57.291-5.251c1.787-12.979,5.56-12.979-2.582-22.416c-8.143-9.44-46.675-4.652-52.033-5.9
	C59.206,85.247,25.643,72.269,18.294,88.786z"/>
<path fill="#F79981" d="M23,35.626c8.647,10.467,32.814,7.402,45.8,7.402c12.986,0,58.44,7.402,57.202-9.869
	c-1.236-17.271-53.8-9.869-56.892-7.401C66.018,28.225,4.144,12.801,23,35.626z"/>
<line fill="none" stroke="#E6E7E8" stroke-width="18" stroke-miterlimit="10" x1="58" y1="38.869" x2="114" y2="38.869"/>
<line fill="none" stroke="#E6E7E8" stroke-width="18" stroke-miterlimit="10" x1="58" y1="102.869" x2="114" y2="102.869"/>
<line fill="none" stroke="#E6E7E8" stroke-width="18" stroke-miterlimit="10" x1="58" y1="69.869" x2="114" y2="69.869"/>
<line fill="none" stroke="#E6E7E8" stroke-width="18" stroke-miterlimit="10" x1="29" y1="38.626" x2="49" y2="37.869"/>
<line fill="none" stroke="#E6E7E8" stroke-width="18" stroke-miterlimit="10" x1="29" y1="70.626" x2="49" y2="69.869"/>
<line fill="none" stroke="#E6E7E8" stroke-width="18" stroke-miterlimit="10" x1="30" y1="102.626" x2="50" y2="101.869"/>
</svg>
