<?xml version="1.0" encoding="utf-8"?>
<!-- Generator: Adobe Illustrator 15.0.0, SVG Export Plug-In . SVG Version: 6.00 Build 0)  -->
<!DOCTYPE svg PUBLIC "-//W3C//DTD SVG 1.1//EN" "http://www.w3.org/Graphics/SVG/1.1/DTD/svg11.dtd">
<svg version="1.1" id="Layer_1" xmlns="http://www.w3.org/2000/svg" xmlns:xlink="http://www.w3.org/1999/xlink" x="0px" y="0px"
	 width="1280px" height="700px" viewBox="0 0 1280 700" enable-background="new 0 0 1280 700" xml:space="preserve">
<path fill="#4EC8FF" stroke="#35697E" stroke-width="16" stroke-miterlimit="10" d="M429.601,52.605
	c-59.205-4.543-157.492,4.5-205.177,60.651c-56.317,66.316-16.812,465.823,14.416,509.896c28.308,39.952,274.04,9,274.04,9
	s143.209,10.424,246.34,6.373c117.358,14.55,237.353,35.049,285.004-22.51c10.72-56.896,67.843-474.915,12.346-521.413
	c-56.306-47.175-227.988-38.5-300.601-39.202C720.751,55.062,503.675,58.29,429.601,52.605z"/>
<path fill="#1DA5FC" d="M255.743,428.373c-11.369,21.616-7.065,127.858,5.652,156.271c12.717,28.412,278.271-7.658,361.738-14.207
	c90.434-7.103,371.628,99.445,384.347,21.311c12.717-78.135,39.563-78.135-18.37-134.962
	c-57.935-56.826-332.093-28.003-370.216-35.516C546.83,407.064,308.025,328.925,255.743,428.373z"/>
<path fill="#56FFFF" d="M258.979,168.484c0,0,279.768,31.964,368.786,31.964c89.016,0,400.576,31.965,392.098-42.619
	c-8.479-74.583-368.784-42.619-389.979-31.964C608.687,136.52,261.099,40.633,258.979,168.484z"/>
<path fill="#FFFFFF" stroke="#35697E" stroke-width="12" stroke-miterlimit="10" d="M403.301,135.867
	c6.4,0,12.431,1.121,18.098,3.351c5.662,2.235,10.584,5.251,14.774,9.047c4.184,3.801,7.508,8.268,9.972,13.404
	c2.458,5.142,3.694,10.613,3.694,16.419v44.566c0,5.812-1.235,11.283-3.694,16.419c-2.464,5.141-5.788,9.607-9.972,13.403
	c-4.19,3.801-9.113,6.817-14.774,9.047c-5.667,2.235-11.698,3.351-18.098,3.351h-17.359v67.353c0,3.131-1.726,4.691-5.171,4.691
	h-32.873c-3.451,0-5.171-1.56-5.171-4.691V140.558c0-3.126,1.72-4.691,5.171-4.691H403.301z M406.625,179.763
	c0-2.23-0.866-4.131-2.585-5.697c-1.726-1.56-3.82-2.345-6.279-2.345h-11.819v57.3h11.819c2.458,0,4.553-0.78,6.279-2.346
	c1.72-1.56,2.585-3.461,2.585-5.696V179.763z"/>
<path fill="#FFFFFF" stroke="#35697E" stroke-width="12" stroke-miterlimit="10" d="M575.417,332.228
	c0.49,3.131-0.987,4.691-4.432,4.691h-33.611c-3.203,0-5.05-1.56-5.54-4.691l-2.955-32.838h-22.9l-2.955,32.838
	c-0.496,3.131-2.343,4.691-5.54,4.691h-33.611c-3.451,0-4.928-1.56-4.432-4.691l27.701-191.669c0.491-3.126,2.458-4.691,5.91-4.691
	h48.754c3.445,0,5.414,1.565,5.91,4.691L575.417,332.228z M525.924,261.859l-7.018-74.054h-2.955l-7.018,74.054H525.924z"/>
<path fill="#FFFFFF" stroke="#35697E" stroke-width="12" stroke-miterlimit="10" d="M703.208,140.558v156.485
	c0,5.812-1.234,11.283-3.693,16.419c-2.464,5.142-5.788,9.607-9.973,13.403c-4.189,3.801-9.112,6.817-14.773,9.047
	c-5.668,2.23-11.698,3.351-18.099,3.351h-14.035c-6.406,0-12.437-1.121-18.099-3.351c-5.667-2.23-10.59-5.246-14.774-9.047
	c-4.19-3.796-7.514-8.262-9.973-13.403c-2.464-5.136-3.693-10.607-3.693-16.419V140.558c0-3.126,1.72-4.691,5.171-4.691h32.873
	c3.445,0,5.171,1.565,5.171,4.691v154.81c0,2.236,0.86,4.136,2.586,5.696c1.719,1.565,3.814,2.346,6.278,2.346h2.954
	c2.459,0,4.554-0.78,6.279-2.346c1.72-1.56,2.586-3.46,2.586-5.696v-154.81c0-3.126,1.72-4.691,5.171-4.691h32.872
	C701.482,135.867,703.208,137.432,703.208,140.558z"/>
<path fill="#FFFFFF" stroke="#35697E" stroke-width="12" stroke-miterlimit="10" d="M805.882,136.872
	c5.662,2.235,10.585,5.251,14.774,9.047c4.185,3.801,7.509,8.267,9.973,13.403c2.458,5.142,3.693,10.613,3.693,16.419v12.733
	c0,3.131-1.604,5.141-4.802,6.031l-33.61,8.042c-3.203,0.896-4.802-0.22-4.802-3.351v-21.781c0-2.23-0.866-4.131-2.586-5.696
	c-1.726-1.561-3.82-2.346-6.278-2.346h-2.955c-2.464,0-4.56,0.785-6.279,2.346c-1.726,1.565-2.585,3.466-2.585,5.696v20.44
	c0.242,2.46,0.738,4.581,1.478,6.367c0.738,1.791,2.089,3.576,4.063,5.361l48.385,32.838c3.937,3.131,6.464,6.314,7.572,9.55
	c1.107,3.241,1.904,6.87,2.4,10.891v34.179c0,5.812-1.235,11.283-3.693,16.419c-2.464,5.142-5.788,9.607-9.973,13.403
	c-4.189,3.801-9.112,6.817-14.774,9.047c-5.667,2.23-11.697,3.351-18.098,3.351h-14.035c-6.406,0-12.438-1.121-18.099-3.351
	c-5.667-2.23-10.59-5.246-14.774-9.047c-4.189-3.796-7.514-8.262-9.972-13.403c-2.465-5.136-3.694-10.607-3.694-16.419v-18.765
	c0-3.126,1.599-5.136,4.802-6.032l33.611-8.042c3.197-0.89,4.802,0.225,4.802,3.351v27.813c0,2.236,0.859,4.136,2.585,5.696
	c1.72,1.565,3.815,2.346,6.279,2.346h2.955c2.458,0,4.553-0.78,6.278-2.346c1.72-1.56,2.586-3.46,2.586-5.696v-20.775
	c-0.248-2.9-0.739-5.471-1.478-7.707c-0.738-2.23-2.216-4.241-4.433-6.032l-47.646-33.173c-3.694-3.126-6.343-6.251-7.941-9.382
	c-1.604-3.126-2.401-7.257-2.401-12.398v-30.158c0-5.807,1.229-11.278,3.694-16.419c2.458-5.136,5.782-9.603,9.972-13.403
	c4.185-3.796,9.107-6.812,14.774-9.047c5.661-2.23,11.692-3.351,18.099-3.351h14.035
	C794.185,133.521,800.215,134.642,805.882,136.872z"/>
<path fill="#FFFFFF" stroke="#35697E" stroke-width="12" stroke-miterlimit="10" d="M952.513,302.405v29.823
	c0,3.131-1.726,4.691-5.171,4.691h-80.149c-3.451,0-5.171-1.56-5.171-4.691V140.558c0-3.126,1.72-4.691,5.171-4.691h80.149
	c3.445,0,5.171,1.565,5.171,4.691v29.823c0,3.131-1.726,4.691-5.171,4.691h-42.106v38.2h36.565c3.445,0,5.171,1.565,5.171,4.691
	v29.823c0,3.131-1.726,4.691-5.171,4.691h-36.565v45.237h42.106C950.787,297.714,952.513,299.279,952.513,302.405z"/>
</svg>
