<?xml version="1.0" encoding="utf-8"?>
<!-- Generator: Adobe Illustrator 15.0.0, SVG Export Plug-In . SVG Version: 6.00 Build 0)  -->
<!DOCTYPE svg PUBLIC "-//W3C//DTD SVG 1.1//EN" "http://www.w3.org/Graphics/SVG/1.1/DTD/svg11.dtd">
<svg version="1.1" id="Layer_1" xmlns="http://www.w3.org/2000/svg" xmlns:xlink="http://www.w3.org/1999/xlink" x="0px" y="0px"
	 width="250px" height="30px" viewBox="0 0 250 30" enable-background="new 0 0 250 30" xml:space="preserve">
<linearGradient id="SVGID_1_" gradientUnits="userSpaceOnUse" x1="297.46" y1="-266.686" x2="544.3799" y2="-266.686" gradientTransform="matrix(1 0 0 -1 -295.96 -251.6602)">
	<stop  offset="0" style="stop-color:#D7DF23"/>
	<stop  offset="1" style="stop-color:#39B54A"/>
</linearGradient>
<path fill="url(#SVGID_1_)" stroke="#006838" stroke-width="3" stroke-miterlimit="10" d="M248.42,15.021
	c0,6.92-5.699,12.53-12.73,12.53H14.23c-2.2,0-4.28-0.551-6.09-1.521c-3.32-1.789-5.74-4.979-6.43-8.77
	c-0.14-0.72-0.21-1.47-0.21-2.239c0-3.45,1.42-6.59,3.73-8.85c2.3-2.27,5.49-3.67,9-3.67h221.459c2.182,0,4.23,0.54,6.031,1.49
	c1.689,0.9,3.149,2.16,4.27,3.68C247.52,9.73,248.42,12.28,248.42,15.021z"/>
<radialGradient id="SVGID_2_" cx="295.0371" cy="-315.9902" r="12.7523" gradientTransform="matrix(1.1328 0 0 -0.8558 -298.9545 -255.4368)" gradientUnits="userSpaceOnUse">
	<stop  offset="0" style="stop-color:#39B54A"/>
	<stop  offset="1" style="stop-color:#006838"/>
</radialGradient>
<polygon fill="url(#SVGID_2_)" points="34.755,26.07 21.046,26.07 35.773,3.904 49.481,3.904 "/>
<radialGradient id="SVGID_3_" cx="317.2539" cy="-315.9888" r="12.7521" gradientTransform="matrix(1.1328 0 0 -0.8558 -298.9545 -255.4368)" gradientUnits="userSpaceOnUse">
	<stop  offset="0" style="stop-color:#39B54A"/>
	<stop  offset="1" style="stop-color:#006838"/>
</radialGradient>
<polygon fill="url(#SVGID_3_)" points="59.921,26.068 46.213,26.068 60.939,3.903 74.648,3.903 "/>
<radialGradient id="SVGID_4_" cx="339.3965" cy="-316.0869" r="12.7521" gradientTransform="matrix(1.1328 0 0 -0.8558 -298.9545 -255.4368)" gradientUnits="userSpaceOnUse">
	<stop  offset="0" style="stop-color:#39B54A"/>
	<stop  offset="1" style="stop-color:#006838"/>
</radialGradient>
<polygon fill="url(#SVGID_4_)" points="85.005,26.152 71.296,26.152 86.023,3.987 99.731,3.987 "/>
<radialGradient id="SVGID_5_" cx="360.9512" cy="-315.9902" r="12.7523" gradientTransform="matrix(1.1328 0 0 -0.8558 -298.9545 -255.4368)" gradientUnits="userSpaceOnUse">
	<stop  offset="0" style="stop-color:#39B54A"/>
	<stop  offset="1" style="stop-color:#006838"/>
</radialGradient>
<polygon fill="url(#SVGID_5_)" points="109.421,26.07 95.713,26.07 110.439,3.904 124.148,3.904 "/>
<radialGradient id="SVGID_6_" cx="382.5781" cy="-315.9419" r="12.7521" gradientTransform="matrix(1.1328 0 0 -0.8558 -298.9545 -255.4368)" gradientUnits="userSpaceOnUse">
	<stop  offset="0" style="stop-color:#39B54A"/>
	<stop  offset="1" style="stop-color:#006838"/>
</radialGradient>
<polygon fill="url(#SVGID_6_)" points="133.92,26.029 120.212,26.029 134.939,3.862 148.646,3.862 "/>
<radialGradient id="SVGID_7_" cx="404.3535" cy="-315.9409" r="12.7521" gradientTransform="matrix(1.1328 0 0 -0.8558 -298.9545 -255.4368)" gradientUnits="userSpaceOnUse">
	<stop  offset="0" style="stop-color:#39B54A"/>
	<stop  offset="1" style="stop-color:#006838"/>
</radialGradient>
<polygon fill="url(#SVGID_7_)" points="158.588,26.027 144.88,26.027 159.607,3.862 173.314,3.862 "/>
<radialGradient id="SVGID_8_" cx="426.2012" cy="-316.0869" r="12.7516" gradientTransform="matrix(1.1328 0 0 -0.8558 -298.9545 -255.4368)" gradientUnits="userSpaceOnUse">
	<stop  offset="0" style="stop-color:#39B54A"/>
	<stop  offset="1" style="stop-color:#006838"/>
</radialGradient>
<polygon fill="url(#SVGID_8_)" points="183.336,26.152 169.628,26.152 184.355,3.987 198.063,3.987 "/>
<radialGradient id="SVGID_9_" cx="448.6025" cy="-315.9409" r="12.7521" gradientTransform="matrix(1.1328 0 0 -0.8558 -298.9545 -255.4368)" gradientUnits="userSpaceOnUse">
	<stop  offset="0" style="stop-color:#39B54A"/>
	<stop  offset="1" style="stop-color:#006838"/>
</radialGradient>
<polygon fill="url(#SVGID_9_)" points="208.713,26.027 195.005,26.027 209.732,3.862 223.439,3.862 "/>
<radialGradient id="SVGID_10_" cx="528.96" cy="-266.7305" r="12.073" gradientTransform="matrix(1 0 0 -1 -295.96 -251.6602)" gradientUnits="userSpaceOnUse">
	<stop  offset="0" style="stop-color:#39B54A"/>
	<stop  offset="1" style="stop-color:#006838"/>
</radialGradient>
<path fill="url(#SVGID_10_)" d="M245.99,7.67l-12.28,18.48h-13.7L234.73,3.99h6.99C243.411,4.89,244.871,6.15,245.99,7.67z"/>
<radialGradient id="SVGID_11_" cx="308.9697" cy="-266.6045" r="11.1927" gradientTransform="matrix(1 0 0 -1 -295.96 -251.6602)" gradientUnits="userSpaceOnUse">
	<stop  offset="0" style="stop-color:#39B54A"/>
	<stop  offset="1" style="stop-color:#006838"/>
</radialGradient>
<path fill="url(#SVGID_11_)" d="M24.31,3.86L9.59,26.029H8.14c-3.32-1.789-5.74-4.979-6.43-8.77l8.9-13.4H24.31z"/>
<radialGradient id="SVGID_12_" cx="144.3857" cy="-1132.4717" r="28.2976" gradientTransform="matrix(3.0063 0 0 -0.2449 -314.3473 -267.5225)" gradientUnits="userSpaceOnUse">
	<stop  offset="0" style="stop-color:#FFFFFF"/>
	<stop  offset="1" style="stop-color:#FFFFFF;stop-opacity:0"/>
</radialGradient>
<ellipse fill="url(#SVGID_12_)" cx="119.72" cy="9.82" rx="119.5" ry="7.5"/>
<linearGradient id="SVGID_13_" gradientUnits="userSpaceOnUse" x1="320.9063" y1="-266.6855" x2="544.2646" y2="-266.6855" gradientTransform="matrix(1 0 0 -1 -295.96 -251.6602)">
	<stop  offset="0" style="stop-color:#D7DF23"/>
	<stop  offset="1" style="stop-color:#39B54A"/>
</linearGradient>
<path display="none" fill="url(#SVGID_13_)" stroke="#006838" stroke-width="3" stroke-miterlimit="10" d="M24.946,27.551h211.216
	c6.703,0,12.143-5.609,12.143-12.53c0-2.74-0.859-5.29-2.32-7.351c-1.067-1.52-2.459-2.779-4.07-3.68
	c-1.716-0.949-3.672-1.49-5.751-1.49H24.946c0,0,9.25,2.779,9.25,11.654C34.196,24.779,24.946,27.551,24.946,27.551z"/>
</svg>
