<?xml version="1.0" encoding="utf-8"?>
<!-- Generator: Adobe Illustrator 15.0.0, SVG Export Plug-In . SVG Version: 6.00 Build 0)  -->
<!DOCTYPE svg PUBLIC "-//W3C//DTD SVG 1.1//EN" "http://www.w3.org/Graphics/SVG/1.1/DTD/svg11.dtd">
<svg version="1.1" id="Layer_1" xmlns="http://www.w3.org/2000/svg" xmlns:xlink="http://www.w3.org/1999/xlink" x="0px" y="0px"
	 width="700px" height="100px" viewBox="0 0 700 100" enable-background="new 0 0 700 100" xml:space="preserve">
<path fill="#4EC8FF" stroke="#3C2415" stroke-width="5" stroke-miterlimit="10" d="M198.301,12.528c0,0-168.365-8.676-182.38,3.341
	c-14.014,12.017-5.686,66.093,4.506,72.77c10.192,6.674,176.402,0,176.402,0s180.909-3.673,257.348,0.334
	c76.439,4.006,220.698,5.688,229.615-2.324c8.919-8.01,11.28-69.43,0.979-71.777C659.32,9.065,473.286,14.2,443.986,14.2
	C414.686,14.199,198.301,12.528,198.301,12.528z"/>
<path fill="#1DA5FC" d="M31.578,57.064c-9.458,3.043-5.878,18,4.702,22c10.58,4,231.501-1.078,300.94-2
	c75.235-1,309.168,14,319.749,3s32.915-11-15.281-19c-48.197-8-276.277-3.942-307.993-5C273.741,54.064,75.073,43.064,31.578,57.064
	z"/>
<path fill="#56FFFF" d="M30.526,27.656c0,0,232.747,4.5,306.803,4.5c74.055,0,333.25,4.5,326.198-6
	c-7.054-10.5-306.803-6-324.436-4.5C321.458,23.156,32.289,9.657,30.526,27.656z"/>
<path fill="#6EBE44" stroke="#231F20" stroke-width="4" stroke-miterlimit="10" d="M560.316,23.623c0,0-39.421-3.875-41.848,2.535
	c-3.343,8.845-2.046,53.658,1.036,55.205c4.177,2.093,40.473,2.443,40.473,2.443c41.483-2.027,49.192-1.576,66.688-1.857
	c15.983-0.26,40.299,2.589,45.039-2.096c3.006-2.976,2.588-52.671,0.225-54.455c-5.842-4.403-44.701-3.285-51.423-3.285
	C613.783,22.115,560.316,23.623,560.316,23.623z"/>
<path fill="#1E803F" d="M597.948,54.586c-6.522,0.915-53.445-2.597-63.36,4.327c-9.915,6.921-5.318,6.921-3.142,16.442
	c2.176,9.522,50.302-3.461,65.778-2.595c14.284,0.796,59.731,5.19,61.91,1.728c2.174-3.462,2.912-16.406,0.966-19.038
	C651.152,43.334,610.283,52.853,597.948,54.586z"/>
<path fill="#B5D994" d="M596.184,30.548c-3.813-1.139-68.606-4.552-70.129,3.413c-1.525,7.965,54.502,4.553,70.511,4.553
	s66.319-3.414,66.319-3.414C662.504,21.443,599.996,31.686,596.184,30.548z"/>
</svg>
