<?xml version="1.0" encoding="utf-8"?>
<!-- Generator: Adobe Illustrator 15.0.0, SVG Export Plug-In . SVG Version: 6.00 Build 0)  -->
<!DOCTYPE svg PUBLIC "-//W3C//DTD SVG 1.1//EN" "http://www.w3.org/Graphics/SVG/1.1/DTD/svg11.dtd">
<svg version="1.1" id="Layer_1" xmlns="http://www.w3.org/2000/svg" xmlns:xlink="http://www.w3.org/1999/xlink" x="0px" y="0px"
	 width="150px" height="150px" viewBox="0 0 150 150" enable-background="new 0 0 150 150" xml:space="preserve">
<linearGradient id="SVGID_1_" gradientUnits="userSpaceOnUse" x1="3.3779" y1="62.4551" x2="146.875" y2="62.4551">
	<stop  offset="0" style="stop-color:#FFD45F"/>
	<stop  offset="1" style="stop-color:#FFD45F"/>
</linearGradient>
<polygon fill="url(#SVGID_1_)" stroke="#603913" stroke-width="4" stroke-miterlimit="10" points="121.516,68.168 146.875,9.941 
	80.617,9.795 3.378,9.795 28.738,68.023 59.865,68.023 59.865,95.682 44.879,95.682 74.825,115.115 105.377,95.826 90.391,95.826 
	90.391,68.168 "/>
<g enable-background="new    ">
	<path fill="#603913" d="M61.235,17.567c0.078,0.096,0.091,0.197,0.039,0.303l-4.512,11.283v6.948c0,0.298-0.183,0.446-0.549,0.446
		h-3.531c-0.367,0-0.549-0.148-0.549-0.446v-6.948L47.62,17.87c-0.053-0.106-0.039-0.207,0.039-0.303
		c0.079-0.096,0.196-0.144,0.353-0.144h4.159c0.366,0,0.575,0.149,0.628,0.446l1.569,6.12h0.157l1.569-6.12
		c0.052-0.297,0.261-0.446,0.628-0.446h4.159C61.039,17.423,61.156,17.471,61.235,17.567z"/>
	<path fill="#603913" d="M74.261,32.754c0,0.553-0.131,1.073-0.393,1.562c-0.262,0.489-0.615,0.914-1.059,1.275
		c-0.445,0.361-0.968,0.648-1.569,0.86c-0.602,0.212-1.243,0.319-1.923,0.319h-1.491c-0.681,0-1.321-0.106-1.922-0.319
		c-0.602-0.212-1.125-0.499-1.57-0.86s-0.798-0.786-1.059-1.275c-0.262-0.489-0.393-1.009-0.393-1.562V21.216
		c0-0.552,0.131-1.073,0.393-1.562c0.261-0.488,0.614-0.913,1.059-1.275c0.445-0.361,0.968-0.648,1.57-0.86
		c0.601-0.212,1.242-0.319,1.922-0.319h1.491c0.68,0,1.321,0.106,1.923,0.319c0.601,0.212,1.124,0.5,1.569,0.86
		c0.444,0.362,0.797,0.787,1.059,1.275c0.261,0.489,0.393,1.01,0.393,1.562V32.754z M69.671,21.375c0-0.212-0.092-0.393-0.275-0.542
		c-0.183-0.148-0.406-0.223-0.667-0.223h-0.314c-0.262,0-0.484,0.075-0.667,0.223c-0.183,0.149-0.274,0.33-0.274,0.542v11.219
		c0,0.212,0.091,0.394,0.274,0.542c0.183,0.149,0.405,0.223,0.667,0.223h0.314c0.261,0,0.484-0.074,0.667-0.223
		c0.183-0.148,0.275-0.33,0.275-0.542V21.375z"/>
	<path fill="#603913" d="M88.385,17.87v14.884c0,0.553-0.131,1.073-0.393,1.562s-0.614,0.914-1.059,1.275
		c-0.445,0.361-0.969,0.648-1.569,0.86c-0.603,0.212-1.243,0.319-1.923,0.319h-1.49c-0.682,0-1.322-0.106-1.923-0.319
		c-0.603-0.212-1.125-0.499-1.569-0.86c-0.445-0.361-0.799-0.786-1.06-1.275c-0.262-0.489-0.393-1.009-0.393-1.562V17.87
		c0-0.297,0.183-0.446,0.55-0.446h3.492c0.365,0,0.549,0.149,0.549,0.446v14.725c0,0.212,0.092,0.394,0.274,0.542
		c0.183,0.149,0.405,0.223,0.667,0.223h0.314c0.261,0,0.483-0.074,0.666-0.223c0.184-0.148,0.275-0.33,0.275-0.542V17.87
		c0-0.297,0.183-0.446,0.549-0.446h3.492C88.202,17.423,88.385,17.572,88.385,17.87z"/>
	<path fill="#603913" d="M96.113,36.101c0,0.298-0.195,0.446-0.588,0.446h-3.492c-0.34,0-0.51-0.148-0.51-0.446V17.87
		c0-0.297,0.183-0.446,0.549-0.446h5.886c0.68,0,1.32,0.106,1.923,0.319c0.602,0.212,1.124,0.5,1.568,0.86
		c0.445,0.362,0.799,0.787,1.061,1.275c0.261,0.489,0.392,1.01,0.392,1.562v3.92c0,0.787-0.288,1.493-0.862,2.12
		c-0.576,0.627-1.27,1.111-2.08,1.45l3.728,7.171c0.078,0.298-0.053,0.446-0.393,0.446h-3.57c-0.157,0-0.308-0.042-0.451-0.127
		c-0.144-0.084-0.242-0.191-0.294-0.319l-2.865-5.896V36.101z M96.113,25.965h1.256c0.262,0,0.484-0.074,0.668-0.223
		c0.182-0.148,0.273-0.329,0.273-0.542v-3.602c0-0.212-0.092-0.393-0.273-0.542c-0.184-0.148-0.406-0.223-0.668-0.223h-1.256V25.965
		z"/>
</g>
<g enable-background="new    ">
	<path fill="#603913" d="M39.792,61.599c0,0.298-0.196,0.446-0.588,0.446h-3.492c-0.34,0-0.51-0.148-0.51-0.446V43.368
		c0-0.297,0.183-0.446,0.549-0.446h5.885c0.68,0,1.32,0.106,1.922,0.319c0.602,0.212,1.125,0.5,1.569,0.86
		c0.445,0.362,0.798,0.787,1.06,1.275c0.261,0.489,0.392,1.01,0.392,1.562v3.92c0,0.787-0.288,1.493-0.863,2.12
		c-0.576,0.627-1.269,1.111-2.08,1.45l3.728,7.171c0.078,0.298-0.053,0.446-0.393,0.446h-3.57c-0.157,0-0.308-0.042-0.451-0.127
		c-0.144-0.084-0.242-0.191-0.294-0.319l-2.864-5.896V61.599z M39.792,51.463h1.256c0.261,0,0.483-0.074,0.667-0.223
		c0.183-0.148,0.274-0.329,0.274-0.542v-3.602c0-0.212-0.092-0.393-0.274-0.542c-0.184-0.148-0.406-0.223-0.667-0.223h-1.256V51.463
		z"/>
	<path fill="#603913" d="M59.567,58.762v2.836c0,0.298-0.184,0.446-0.549,0.446h-8.514c-0.367,0-0.549-0.148-0.549-0.446V43.368
		c0-0.297,0.183-0.446,0.549-0.446h8.514c0.366,0,0.549,0.149,0.549,0.446v2.836c0,0.298-0.184,0.446-0.549,0.446h-4.473v3.633
		h3.884c0.366,0,0.549,0.149,0.549,0.446v2.837c0,0.298-0.183,0.446-0.549,0.446h-3.884v4.303h4.473
		C59.383,58.316,59.567,58.465,59.567,58.762z"/>
	<path fill="#603913" d="M70.866,43.017c0.601,0.212,1.124,0.5,1.569,0.86c0.444,0.362,0.797,0.787,1.059,1.275
		c0.261,0.489,0.393,1.01,0.393,1.562v1.912c0,0.298-0.17,0.489-0.51,0.574l-3.57,0.446c-0.34,0.085-0.51-0.021-0.51-0.319v-2.454
		c0-0.212-0.092-0.393-0.275-0.542c-0.183-0.148-0.406-0.223-0.667-0.223h-0.314c-0.262,0-0.484,0.075-0.667,0.223
		c-0.183,0.149-0.274,0.33-0.274,0.542v11.219c0,0.212,0.091,0.394,0.274,0.542c0.183,0.149,0.405,0.223,0.667,0.223h0.314
		c0.261,0,0.484-0.074,0.667-0.223c0.183-0.148,0.275-0.33,0.275-0.542v-3.825c0-0.297,0.169-0.403,0.51-0.319l3.57,0.382
		c0.34,0.085,0.51,0.276,0.51,0.574v3.347c0,0.553-0.131,1.073-0.393,1.562c-0.262,0.489-0.615,0.914-1.059,1.275
		c-0.445,0.361-0.968,0.648-1.569,0.86c-0.602,0.212-1.243,0.319-1.923,0.319h-1.491c-0.681,0-1.321-0.106-1.922-0.319
		c-0.602-0.212-1.125-0.499-1.57-0.86s-0.798-0.786-1.059-1.275c-0.262-0.489-0.393-1.009-0.393-1.562V46.714
		c0-0.552,0.131-1.073,0.393-1.562c0.261-0.488,0.614-0.913,1.059-1.275c0.445-0.361,0.968-0.648,1.57-0.86
		c0.601-0.212,1.242-0.319,1.922-0.319h1.491C69.624,42.698,70.264,42.805,70.866,43.017z"/>
	<path fill="#603913" d="M87.815,58.252c0,0.553-0.131,1.073-0.393,1.562s-0.614,0.914-1.059,1.275
		c-0.445,0.361-0.969,0.648-1.569,0.86c-0.603,0.212-1.243,0.319-1.923,0.319h-1.491c-0.681,0-1.321-0.106-1.922-0.319
		c-0.603-0.212-1.125-0.499-1.57-0.86c-0.444-0.361-0.798-0.786-1.059-1.275c-0.262-0.489-0.393-1.009-0.393-1.562V46.714
		c0-0.552,0.131-1.073,0.393-1.562c0.261-0.488,0.614-0.913,1.059-1.275c0.445-0.361,0.968-0.648,1.57-0.86
		c0.601-0.212,1.241-0.319,1.922-0.319h1.491c0.68,0,1.32,0.106,1.923,0.319c0.601,0.212,1.124,0.5,1.569,0.86
		c0.444,0.362,0.797,0.787,1.059,1.275c0.262,0.489,0.393,1.01,0.393,1.562V58.252z M83.226,46.874c0-0.212-0.093-0.393-0.275-0.542
		c-0.183-0.148-0.405-0.223-0.667-0.223H81.97c-0.262,0-0.484,0.075-0.667,0.223c-0.184,0.149-0.274,0.33-0.274,0.542v11.219
		c0,0.212,0.091,0.394,0.274,0.542c0.183,0.149,0.405,0.223,0.667,0.223h0.313c0.262,0,0.484-0.074,0.667-0.223
		c0.183-0.148,0.275-0.33,0.275-0.542V46.874z"/>
	<path fill="#603913" d="M95.544,61.599c0,0.298-0.195,0.446-0.588,0.446h-3.492c-0.34,0-0.51-0.148-0.51-0.446V43.368
		c0-0.297,0.183-0.446,0.549-0.446h5.886c0.68,0,1.32,0.106,1.922,0.319s1.125,0.5,1.569,0.86c0.445,0.362,0.798,0.787,1.06,1.275
		c0.262,0.489,0.393,1.01,0.393,1.562v3.92c0,0.787-0.288,1.493-0.863,2.12c-0.575,0.627-1.269,1.111-2.079,1.45l3.728,7.171
		c0.078,0.298-0.053,0.446-0.393,0.446h-3.57c-0.157,0-0.308-0.042-0.451-0.127c-0.145-0.084-0.242-0.191-0.295-0.319l-2.864-5.896
		V61.599z M95.544,51.463H96.8c0.261,0,0.483-0.074,0.667-0.223c0.183-0.148,0.274-0.329,0.274-0.542v-3.602
		c0-0.212-0.092-0.393-0.274-0.542c-0.184-0.148-0.406-0.223-0.667-0.223h-1.256V51.463z"/>
	<path fill="#603913" d="M112.141,42.921c0.68,0,1.32,0.106,1.922,0.319s1.125,0.5,1.569,0.86c0.445,0.362,0.798,0.787,1.06,1.275
		c0.262,0.489,0.393,1.01,0.393,1.562v11.091c0,0.553-0.131,1.073-0.393,1.562s-0.614,0.914-1.06,1.275
		c-0.444,0.361-0.968,0.648-1.569,0.86c-0.602,0.213-1.242,0.319-1.922,0.319h-5.886c-0.366,0-0.549-0.148-0.549-0.446V43.368
		c0-0.297,0.183-0.446,0.549-0.446H112.141z M112.493,47.097c0-0.212-0.092-0.393-0.274-0.542c-0.184-0.148-0.406-0.223-0.667-0.223
		h-1.256v12.303h1.256c0.261,0,0.483-0.074,0.667-0.223c0.183-0.148,0.274-0.33,0.274-0.542V47.097z"/>
</g>
<ellipse fill="#603913" stroke="#603913" stroke-width="4" stroke-miterlimit="10" cx="74.09" cy="133.001" rx="14.059" ry="14.999"/>
</svg>
