<?xml version="1.0" encoding="utf-8"?>
<!-- Generator: Adobe Illustrator 15.0.0, SVG Export Plug-In  -->
<!DOCTYPE svg PUBLIC "-//W3C//DTD SVG 1.1//EN" "http://www.w3.org/Graphics/SVG/1.1/DTD/svg11.dtd" [
	<!ENTITY ns_flows "http://ns.adobe.com/Flows/1.0/">
]>
<svg version="1.1"
	 xmlns="http://www.w3.org/2000/svg" xmlns:xlink="http://www.w3.org/1999/xlink" xmlns:a="http://ns.adobe.com/AdobeSVGViewerExtensions/3.0/"
	 x="0px" y="0px" width="250px" height="400px" viewBox="0 0 250 400" enable-background="new 0 0 250 400" xml:space="preserve">
<defs>
</defs>
<linearGradient id="SVGID_1_" gradientUnits="userSpaceOnUse" x1="198.8203" y1="566.061" x2="434.4238" y2="566.061" gradientTransform="matrix(1 0 0 1 -195.3203 -400.9199)">
	<stop  offset="0" style="stop-color:#A1C1E6"/>
	<stop  offset="0.2021" style="stop-color:#9EC1E4"/>
	<stop  offset="0.3632" style="stop-color:#94BFE0"/>
	<stop  offset="0.5104" style="stop-color:#83BDDC"/>
	<stop  offset="0.6491" style="stop-color:#68B9D6"/>
	<stop  offset="0.782" style="stop-color:#37B5CF"/>
	<stop  offset="0.9087" style="stop-color:#00B0C6"/>
	<stop  offset="1" style="stop-color:#00AEC0"/>
</linearGradient>
<path fill="url(#SVGID_1_)" stroke="#1C75BC" stroke-width="7" stroke-miterlimit="10" d="M239.104,290.506
	c0,9.163-7.429,16.592-16.592,16.592H20.092c-9.163,0-16.592-7.429-16.592-16.592c0,0,6.633-43.594,6.637-84.813
	C10.141,164.201,3.5,39.776,3.5,39.776c0-9.164,7.429-16.592,16.592-16.592h202.42c9.163,0,16.592,7.428,16.592,16.592
	c0,0-7.724,122.734-7.742,163.707C231.341,245.285,239.104,290.506,239.104,290.506z"/>
<path fill="#1C75BC" d="M190.023,286.487c3.365,4.838,19.914,3.006,24.342-2.409c4.428-5.414-1.193-38.478-2.215-74.015
	c-1.106-38.503,15.488-158.227,3.32-163.645c-12.169-5.412-12.169-16.845-21.023,7.823c-8.852,24.667-4.356,141.393-5.527,157.625
	C186.705,242.55,174.534,264.225,190.023,286.487z"/>
<path fill="#D1EEFC" d="M54.034,212.973c-1.172-16.229,3.322-132.958-5.529-157.625c-8.855-24.667-8.855-13.234-21.023-7.823
	c-12.168,5.418,4.427,125.14,3.319,163.643c-1.021,35.537-6.641,68.602-2.214,74.016c4.428,5.414,20.976,7.246,24.342,2.407
	C68.42,265.331,56.248,243.658,54.034,212.973z"/>
<path fill="#7C7E81" stroke="#58595B" stroke-width="5" stroke-miterlimit="10" d="M215.816,192.984
	c-0.235,16.659-0.844,29.81-1.926,32.875c-0.015,0.011-0.015,0.011-0.015,0.021c-8.644,8.483-21.709,12.224-34.142,13.782
	c-14.813,1.857-28.735,0.631-33.19,0.631c-1.599,0-5.192-0.021-9.942-0.044c-7.488-0.044-17.833-0.122-27.762-0.188
	c-16.057-0.121-31.003-0.23-31.003-0.23s-7.636,0.783-17.033,0.396c-13.896-0.599-31.64-3.806-33.977-16.062
	c-0.623-3.241-1.081-8.274-1.422-14.491c-0.577-11.027-0.74-25.793-0.605-40.948c0.147-18.937,0.769-38.482,1.598-52.098
	c0.503-8.264,1.08-14.347,1.687-16.769c2.234-8.927,31.209-8.186,43.684-7.445c3.465,0.199,5.654,0.41,5.654,0.41
	s14.25-2.39,40.547-2.776c9.071-0.144,19.578-0.033,31.43,0.486c3.508-0.288,7.236-0.509,11.099-0.652
	c23.44-0.83,50.966,1.625,53.112,13.385c0.34,1.858,0.646,5.298,0.932,9.888c0.71,11.593,1.186,30.485,1.332,49.554
	C215.966,173.129,215.95,183.617,215.816,192.984z"/>
<path fill="#B4B6B8" d="M120.906,171.134l90.476,20.505c-0.229,15.905-0.807,28.462-1.839,31.386l-90.05-49.928l57.44,63.108
	c-14.145,1.773-27.438,0.604-31.69,0.604c-1.527,0-4.958-0.021-9.495-0.043l-18.947-62.764l-7.558,62.583
	c-15.331-0.116-29.6-0.222-29.6-0.222s-7.291,0.751-16.262,0.38l50.794-63.747l-84.592,34.578
	c-0.55-10.529-0.708-24.627-0.58-39.097l85.374,2.556l-83.846-52.297c0.48-7.89,1.031-13.699,1.608-16.011
	c2.135-8.522,29.8-7.816,41.709-7.107l42.953,74.359l1.16-76.619c8.661-0.136,18.691-0.032,30.008,0.464
	c3.35-0.274,6.909-0.486,10.596-0.623l-39.002,75.922l90.602-53.702c0.678,11.067,1.131,29.105,1.273,47.313L120.906,171.134z"/>
<path fill="#7C7E81" stroke="#58595B" stroke-width="3" stroke-miterlimit="10" d="M90.723,3.25c0,0-34.257-5.016-37.108,1.934
	c-2.852,6.947-1.157,38.214,0.917,42.074c2.073,3.859,35.892-1.735,35.892-1.735s36.809-1.545,52.362,0.772
	c15.551,2.316,44.903,4.445,46.718-0.189c1.814-4.629,2.295-40.142,0.198-41.501c-5.179-3.356-43.03-0.387-48.99-0.387
	C134.748,4.218,90.723,3.25,90.723,3.25z"/>
<path fill="#656668" d="M56.799,29.001c-1.924,1.76-1.195,10.408,0.958,12.722c2.153,2.314,47.102-0.623,61.23-1.157
	c15.309-0.579,62.904,8.094,65.059,1.735c2.151-6.359,6.697-6.359-3.108-10.987c-9.809-4.625-56.212-2.277-62.667-2.89
	C106.072,27.269,65.649,20.907,56.799,29.001z"/>
<path fill="#B4B6B8" d="M56.586,12c0,0,47.354,2.601,62.423,2.601c15.067,0,67.804,2.601,66.369-3.469
	c-1.435-6.072-62.422-3.471-66.011-2.603C115.781,9.396,56.945,1.591,56.586,12z"/>
<path fill="#7C7E81" stroke="#58595B" stroke-width="3" stroke-miterlimit="10" d="M75.297,35.329c0,0-50.095-5.016-54.265,1.933
	c-4.169,6.947-1.692,38.214,1.341,42.074c3.031,3.86,52.485-1.735,52.485-1.735s53.826-1.544,76.569,0.772
	c22.742,2.316,65.663,4.445,68.317-0.189c2.654-4.63,3.355-40.142,0.29-41.501c-7.572-3.356-62.923-0.387-71.64-0.387
	C139.677,36.296,75.297,35.329,75.297,35.329z"/>
<path fill="#545456" d="M25.69,61.08c-2.813,1.76-1.748,10.408,1.4,12.722c3.148,2.313,68.879-0.624,89.539-1.157
	c22.385-0.579,91.986,8.094,95.137,1.735c3.146-6.359,9.793-6.359-4.549-10.986c-14.34-4.625-82.2-2.277-91.637-2.89
	C97.742,59.345,38.632,52.984,25.69,61.08z"/>
<path fill="#B4B6B8" d="M25.378,44.077c0,0,69.248,2.602,91.283,2.602c22.034,0,99.151,2.601,97.055-3.469
	c-2.099-6.072-91.283-3.471-96.531-2.603C111.94,41.474,25.902,33.669,25.378,44.077z"/>
</svg>
