<?xml version="1.0" encoding="utf-8"?>
<!-- Generator: Adobe Illustrator 15.0.0, SVG Export Plug-In . SVG Version: 6.00 Build 0)  -->
<!DOCTYPE svg PUBLIC "-//W3C//DTD SVG 1.1//EN" "http://www.w3.org/Graphics/SVG/1.1/DTD/svg11.dtd">
<svg version="1.1" id="Layer_1" xmlns="http://www.w3.org/2000/svg" xmlns:xlink="http://www.w3.org/1999/xlink" x="0px" y="0px"
	 width="150px" height="150px" viewBox="0 0 150 150" enable-background="new 0 0 150 150" xml:space="preserve">
<linearGradient id="SVGID_1_" gradientUnits="userSpaceOnUse" x1="15.8511" y1="75.627" x2="134.6875" y2="75.627">
	<stop  offset="0" style="stop-color:#FFD45F"/>
	<stop  offset="1" style="stop-color:#FFD45F"/>
</linearGradient>
<polygon fill="url(#SVGID_1_)" stroke="#603913" stroke-width="3" stroke-miterlimit="10" points="113.684,80.064 134.688,34.864 
	79.814,34.75 15.851,34.75 36.854,79.951 62.629,79.951 62.629,101.421 50.219,101.421 75.02,116.505 100.318,101.535 
	87.907,101.535 87.907,80.064 "/>
<g enable-background="new    ">
	<path fill="#603913" d="M63.762,40.782c0.065,0.074,0.076,0.152,0.033,0.235l-3.737,8.758v5.394c0,0.231-0.152,0.346-0.455,0.346
		h-2.925c-0.303,0-0.455-0.115-0.455-0.346v-5.394l-3.737-8.758c-0.043-0.083-0.033-0.161,0.033-0.235
		c0.065-0.074,0.162-0.111,0.292-0.111h3.444c0.303,0,0.477,0.115,0.52,0.346l1.3,4.75h0.13l1.3-4.75
		c0.043-0.231,0.216-0.346,0.52-0.346h3.444C63.6,40.671,63.697,40.708,63.762,40.782z"/>
	<path fill="#603913" d="M74.55,52.571c0,0.429-0.108,0.833-0.325,1.212c-0.217,0.38-0.509,0.709-0.877,0.99
		c-0.369,0.281-0.802,0.503-1.3,0.668c-0.499,0.165-1.029,0.248-1.592,0.248h-1.235c-0.563,0-1.094-0.083-1.592-0.248
		c-0.499-0.165-0.932-0.387-1.3-0.668c-0.369-0.28-0.661-0.61-0.877-0.99c-0.217-0.379-0.325-0.783-0.325-1.212v-8.957
		c0-0.429,0.108-0.833,0.325-1.212c0.216-0.379,0.508-0.709,0.877-0.99c0.368-0.28,0.801-0.503,1.3-0.668
		c0.498-0.165,1.029-0.248,1.592-0.248h1.235c0.563,0,1.093,0.083,1.592,0.248c0.498,0.165,0.931,0.388,1.3,0.668
		c0.368,0.281,0.661,0.61,0.877,0.99c0.216,0.379,0.325,0.783,0.325,1.212V52.571z M70.749,43.739c0-0.165-0.076-0.305-0.228-0.421
		c-0.152-0.115-0.336-0.173-0.553-0.173h-0.26c-0.217,0-0.401,0.058-0.552,0.173c-0.152,0.116-0.228,0.256-0.228,0.421v8.709
		c0,0.165,0.076,0.305,0.228,0.42c0.151,0.116,0.335,0.173,0.552,0.173h0.26c0.216,0,0.401-0.058,0.553-0.173
		c0.151-0.115,0.228-0.255,0.228-0.42V43.739z"/>
	<path fill="#603913" d="M86.247,41.017v11.554c0,0.429-0.108,0.833-0.325,1.212c-0.217,0.38-0.509,0.709-0.877,0.99
		c-0.369,0.281-0.802,0.503-1.3,0.668c-0.499,0.165-1.028,0.248-1.592,0.248h-1.235c-0.563,0-1.094-0.083-1.592-0.248
		s-0.932-0.387-1.3-0.668c-0.368-0.28-0.661-0.61-0.877-0.99c-0.217-0.379-0.325-0.783-0.325-1.212V41.017
		c0-0.231,0.151-0.346,0.455-0.346h2.892c0.304,0,0.455,0.115,0.455,0.346v11.431c0,0.165,0.075,0.305,0.228,0.42
		c0.151,0.116,0.336,0.173,0.553,0.173h0.26c0.216,0,0.4-0.058,0.553-0.173c0.15-0.115,0.227-0.255,0.227-0.42V41.017
		c0-0.231,0.151-0.346,0.455-0.346h2.893C86.096,40.671,86.247,40.786,86.247,41.017z"/>
	<path fill="#603913" d="M92.647,55.169c0,0.231-0.162,0.346-0.487,0.346h-2.892c-0.282,0-0.423-0.115-0.423-0.346V41.017
		c0-0.231,0.151-0.346,0.455-0.346h4.874c0.563,0,1.094,0.083,1.593,0.247c0.498,0.165,0.931,0.388,1.299,0.668
		c0.368,0.281,0.66,0.611,0.877,0.99c0.217,0.38,0.326,0.784,0.326,1.212v3.043c0,0.61-0.239,1.159-0.715,1.645
		c-0.478,0.487-1.052,0.862-1.723,1.126l3.087,5.567c0.065,0.231-0.044,0.346-0.325,0.346h-2.957c-0.13,0-0.254-0.033-0.373-0.099
		c-0.119-0.065-0.201-0.148-0.244-0.247l-2.372-4.577V55.169z M92.647,47.301h1.04c0.217,0,0.4-0.058,0.553-0.173
		c0.15-0.115,0.227-0.256,0.227-0.421v-2.796c0-0.165-0.076-0.305-0.227-0.42c-0.152-0.115-0.336-0.173-0.553-0.173h-1.04V47.301z"
		/>
</g>
<g enable-background="new    ">
	<path fill="#603913" d="M55.071,60.538c0.498,0.165,0.931,0.388,1.299,0.668c0.368,0.281,0.661,0.61,0.877,0.99
		c0.216,0.379,0.325,0.783,0.325,1.212v0.94c0,0.231-0.141,0.379-0.422,0.445l-2.957,0.594c-0.282,0.066-0.422-0.016-0.422-0.248
		v-1.608c0-0.165-0.076-0.305-0.228-0.421c-0.152-0.115-0.336-0.173-0.552-0.173h-0.26c-0.217,0-0.401,0.058-0.552,0.173
		c-0.152,0.116-0.228,0.256-0.228,0.421v1.509c0.021,0.182,0.065,0.338,0.13,0.47c0.065,0.132,0.184,0.264,0.357,0.396l4.257,2.425
		c0.346,0.231,0.568,0.466,0.666,0.705c0.098,0.239,0.167,0.507,0.211,0.804v2.523c0,0.429-0.109,0.833-0.325,1.212
		c-0.217,0.38-0.509,0.709-0.877,0.99c-0.368,0.281-0.801,0.503-1.299,0.668c-0.499,0.165-1.029,0.248-1.592,0.248h-1.235
		c-0.563,0-1.094-0.083-1.592-0.248c-0.499-0.165-0.932-0.387-1.299-0.668c-0.369-0.28-0.661-0.61-0.877-0.99
		c-0.217-0.379-0.325-0.783-0.325-1.212v-1.385c0-0.231,0.141-0.379,0.422-0.445l2.957-0.594c0.281-0.065,0.422,0.017,0.422,0.248
		v2.054c0,0.165,0.076,0.305,0.228,0.42c0.151,0.116,0.335,0.173,0.552,0.173h0.26c0.216,0,0.4-0.058,0.552-0.173
		c0.151-0.115,0.228-0.255,0.228-0.42v-1.534c-0.022-0.214-0.065-0.404-0.13-0.569c-0.065-0.165-0.195-0.313-0.39-0.445l-4.191-2.45
		c-0.325-0.23-0.558-0.461-0.699-0.692c-0.141-0.231-0.211-0.536-0.211-0.916v-2.227c0-0.429,0.108-0.833,0.325-1.212
		c0.216-0.379,0.509-0.709,0.877-0.99c0.368-0.28,0.801-0.503,1.299-0.668c0.498-0.165,1.029-0.248,1.592-0.248h1.235
		C54.042,60.291,54.572,60.373,55.071,60.538z"/>
	<path fill="#603913" d="M66.605,60.538c0.498,0.165,0.931,0.388,1.3,0.668c0.368,0.281,0.661,0.61,0.877,0.99
		c0.216,0.379,0.325,0.783,0.325,1.212v1.485c0,0.231-0.141,0.379-0.422,0.445l-2.957,0.346c-0.282,0.066-0.422-0.016-0.422-0.248
		v-1.905c0-0.165-0.076-0.305-0.228-0.421c-0.152-0.115-0.336-0.173-0.553-0.173h-0.26c-0.217,0-0.401,0.058-0.552,0.173
		c-0.152,0.116-0.228,0.256-0.228,0.421v8.709c0,0.165,0.076,0.305,0.228,0.42c0.151,0.116,0.335,0.173,0.552,0.173h0.26
		c0.216,0,0.401-0.058,0.553-0.173c0.151-0.115,0.228-0.255,0.228-0.42v-2.969c0-0.23,0.141-0.313,0.422-0.247l2.957,0.297
		c0.281,0.066,0.422,0.214,0.422,0.445v2.598c0,0.429-0.108,0.833-0.325,1.212c-0.217,0.38-0.509,0.709-0.877,0.99
		c-0.369,0.281-0.802,0.503-1.3,0.668c-0.499,0.165-1.029,0.248-1.592,0.248h-1.235c-0.563,0-1.094-0.083-1.592-0.248
		c-0.499-0.165-0.932-0.387-1.3-0.668c-0.369-0.28-0.661-0.61-0.877-0.99c-0.217-0.379-0.325-0.783-0.325-1.212v-8.957
		c0-0.429,0.108-0.833,0.325-1.212c0.216-0.379,0.508-0.709,0.877-0.99c0.368-0.28,0.801-0.503,1.3-0.668
		c0.498-0.165,1.029-0.248,1.592-0.248h1.235C65.576,60.291,66.106,60.373,66.605,60.538z"/>
	<path fill="#603913" d="M80.642,72.364c0,0.429-0.108,0.833-0.324,1.212c-0.217,0.38-0.51,0.709-0.878,0.99
		c-0.368,0.281-0.802,0.503-1.3,0.668s-1.028,0.248-1.592,0.248h-1.234c-0.563,0-1.094-0.083-1.592-0.248
		c-0.499-0.165-0.932-0.387-1.3-0.668c-0.369-0.28-0.661-0.61-0.877-0.99c-0.217-0.379-0.325-0.783-0.325-1.212v-8.957
		c0-0.429,0.108-0.833,0.325-1.212c0.216-0.379,0.508-0.709,0.877-0.99c0.368-0.28,0.801-0.503,1.3-0.668
		c0.498-0.165,1.029-0.248,1.592-0.248h1.234c0.563,0,1.094,0.083,1.592,0.248s0.932,0.388,1.3,0.668
		c0.368,0.281,0.661,0.61,0.878,0.99c0.216,0.379,0.324,0.783,0.324,1.212V72.364z M76.841,63.532c0-0.165-0.076-0.305-0.228-0.421
		c-0.152-0.115-0.337-0.173-0.553-0.173h-0.26c-0.217,0-0.401,0.058-0.552,0.173c-0.152,0.116-0.228,0.256-0.228,0.421v8.709
		c0,0.165,0.076,0.305,0.228,0.42c0.151,0.116,0.335,0.173,0.552,0.173h0.26c0.216,0,0.4-0.058,0.553-0.173
		c0.151-0.115,0.228-0.255,0.228-0.42V63.532z"/>
	<path fill="#603913" d="M87.042,74.962c0,0.231-0.162,0.346-0.487,0.346h-2.892c-0.281,0-0.422-0.115-0.422-0.346V60.81
		c0-0.231,0.15-0.346,0.454-0.346h4.874c0.563,0,1.094,0.083,1.593,0.247c0.498,0.165,0.931,0.388,1.3,0.668
		c0.367,0.281,0.66,0.611,0.877,0.99c0.216,0.38,0.325,0.784,0.325,1.212v3.043c0,0.61-0.239,1.159-0.715,1.645
		c-0.478,0.487-1.052,0.862-1.723,1.126l3.087,5.567c0.065,0.231-0.044,0.346-0.325,0.346h-2.956c-0.131,0-0.255-0.033-0.374-0.099
		c-0.119-0.065-0.2-0.148-0.244-0.247l-2.372-4.577V74.962z M87.042,67.094h1.04c0.217,0,0.4-0.058,0.553-0.173
		c0.151-0.115,0.228-0.256,0.228-0.421v-2.796c0-0.165-0.076-0.305-0.228-0.42c-0.152-0.115-0.336-0.173-0.553-0.173h-1.04V67.094z"
		/>
	<path fill="#603913" d="M103.419,72.76v2.202c0,0.231-0.152,0.346-0.455,0.346h-7.051c-0.304,0-0.455-0.115-0.455-0.346V60.81
		c0-0.231,0.151-0.346,0.455-0.346h7.051c0.303,0,0.455,0.115,0.455,0.346v2.202c0,0.231-0.152,0.346-0.455,0.346H99.26v2.821h3.217
		c0.303,0,0.455,0.115,0.455,0.346v2.202c0,0.231-0.152,0.346-0.455,0.346H99.26v3.34h3.704
		C103.267,72.414,103.419,72.529,103.419,72.76z"/>
</g>
<circle fill="#603913" stroke="#603913" stroke-width="4" stroke-miterlimit="10" cx="75.132" cy="132.951" r="14.999"/>
</svg>
