<?xml version="1.0" encoding="utf-8"?>
<!-- Generator: Adobe Illustrator 15.0.0, SVG Export Plug-In  -->
<!DOCTYPE svg PUBLIC "-//W3C//DTD SVG 1.1//EN" "http://www.w3.org/Graphics/SVG/1.1/DTD/svg11.dtd" [
	<!ENTITY ns_flows "http://ns.adobe.com/Flows/1.0/">
]>
<svg version="1.1"
	 xmlns="http://www.w3.org/2000/svg" xmlns:xlink="http://www.w3.org/1999/xlink" xmlns:a="http://ns.adobe.com/AdobeSVGViewerExtensions/3.0/"
	 x="0px" y="0px" width="288px" height="432px" viewBox="-0.917 0 288 432" enable-background="new -0.917 0 288 432"
	 xml:space="preserve">
<defs>
</defs>
<path fill="none" stroke="#FDB71F" stroke-width="5" d="M141.255,317.184c0,0-5.13-19.822-30.796-19.851
	c-24.75-0.026-31.167,18.883-31.167,18.883"/>
<path fill="none" stroke="#FDB71F" stroke-width="5" d="M67.755,251.027c0,0-5.13-20.832-30.796-20.86
	c-24.75-0.026-31.167,19.845-31.167,19.845"/>
<path fill="none" stroke="#000000" stroke-width="3" stroke-miterlimit="10" d="M85.761,12.254c-0.107,0.196,0.853-0.2,1.094-0.284
	c-0.168,0.202-0.332,0.465-0.495,0.729c0.169-0.202,0.287-0.275,0.405-0.348c-0.479,0.913-1.064,2.022-1.409,3.048"/>
<path fill="none" stroke="#000000" stroke-width="3" stroke-miterlimit="10" d="M87.792,9.213c-1.739,0.03-2.223,0.881-1.951,2.536
	c0.455-0.476,0.653-1.053,0.845-1.692"/>
<path fill="none" stroke="#000000" stroke-width="3" stroke-miterlimit="10" d="M132.69,11.497c0.099,0.204-0.854-0.245-1.096-0.341
	c0.162,0.212,0.314,0.487,0.467,0.762c-0.162-0.212-0.277-0.292-0.394-0.372c0.441,0.949,0.981,2.103,1.28,3.158"/>
<path fill="#FDB71F" stroke="#FDB71F" stroke-width="0.25" d="M286.862,243.336c-0.166,1.13-0.941,1.953-1.737,1.838l0,0
	c-0.793-0.115-1.304-1.126-1.14-2.257l0.564-3.877c0.165-1.13,0.942-1.953,1.736-1.836l0,0c0.795,0.114,1.305,1.126,1.14,2.257
	L286.862,243.336z"/>
<path fill="none" stroke="#000000" stroke-width="3" stroke-miterlimit="10" d="M130.638,9.595c1.761,0.114,2.211,1,1.855,2.665
	c-0.438-0.504-0.61-1.099-0.774-1.756"/>
<path fill="none" stroke="#FDB71F" stroke-width="5" d="M139.755,23.361c0,0-5.13-20.833-30.796-20.861
	c-24.75-0.027-31.167,19.845-31.167,19.845"/>
<g>
	<g>
		<path d="M133.521,11.481c3.873,2.777,2.136,9.303,1.358,13.149c-0.771,4.177-2.381,8.035-5.334,11.245
			c10.045,2.52,9.962-2.647,11.035-8.995c0.965-5.708,4.433-16.568-6.887-15.403"/>
		<g>
			<path d="M132.621,11.852c6.007,5.399,0.107,19.207-3.972,24.02c-0.224,0.264,0.062,0.455,0.298,0.508
				c2.813,0.627,7.091,1.492,9.511-0.786c2.59-2.438,2.623-6.254,3.213-9.55c1.318-7.376,2.543-15.741-7.595-15.087
				c-0.669,0.043-2.06,1.126-0.766,1.043c11.341-0.732,7.087,13.627,5.279,20.467c-0.97,3.672-9.259,5.186-6.179,0.891
				c1.858-2.592,2.778-5.783,3.432-8.855c0.941-4.429,2.407-9.947-1.423-13.39C133.934,10.675,132.13,11.41,132.621,11.852
				L132.621,11.852z"/>
		</g>
	</g>
	<g>
		<path fill="#FDB71F" d="M133.521,11.481c3.873,2.777,2.136,9.303,1.358,13.149c-0.771,4.177-2.381,8.035-5.334,11.245
			c10.045,2.52,9.962-2.647,11.035-8.995c0.965-5.708,4.433-16.568-6.887-15.403"/>
		<g>
			<path fill="#FDB71F" d="M132.621,11.852c6.007,5.399,0.107,19.207-3.972,24.02c-0.224,0.264,0.062,0.455,0.298,0.508
				c2.813,0.627,7.091,1.492,9.511-0.786c2.59-2.438,2.623-6.254,3.213-9.55c1.318-7.376,2.543-15.741-7.595-15.087
				c-0.669,0.043-2.06,1.126-0.766,1.043c11.341-0.732,7.087,13.627,5.279,20.467c-0.97,3.672-9.259,5.186-6.179,0.891
				c1.858-2.592,2.778-5.783,3.432-8.855c0.941-4.429,2.407-9.947-1.423-13.39C133.934,10.675,132.13,11.41,132.621,11.852
				L132.621,11.852z"/>
		</g>
	</g>
</g>
<g>
	<g>
		<path d="M85.981,36.011c-4.449-1.71-4.413-8.463-4.63-12.381c-0.305-4.237,0.28-8.376,2.329-12.227
			c-10.355,0.095-8.974,5.071-8.412,11.487c0.505,5.767-0.112,17.149,10.546,13.168"/>
		<g>
			<path d="M86.754,35.559c-7.208-3.649-4.778-18.74-2.111-24.285c0.145-0.302-0.42-0.398-0.581-0.392
				c-3.284,0.118-6.741,0.388-9.053,2.976c-2.155,2.411-0.866,7.247-0.649,10.041c0.271,3.482-0.012,8.07,2.208,11.023
				c2.375,3.16,5.984,2.703,9.367,1.59c1.121-0.369,0.902-1.282-0.242-0.905c-7.275,2.393-8.68-3.237-9.178-8.829
				c-0.329-3.697-1.291-8.195-0.3-11.799c0.682-2.479,6.289-3.007,5.799-1.989c-0.683,1.42-1.016,2.983-1.346,4.511
				c-0.591,2.737-0.323,5.603-0.184,8.369c0.205,4.077,0.734,8.573,4.724,10.593C85.742,36.732,87.524,35.949,86.754,35.559
				L86.754,35.559z"/>
		</g>
	</g>
	<g>
		<path fill="#FDB71F" d="M85.981,36.011c-4.449-1.71-4.413-8.463-4.63-12.381c-0.305-4.237,0.28-8.376,2.329-12.227
			c-10.355,0.095-8.974,5.071-8.412,11.487c0.505,5.767-0.112,17.149,10.546,13.168"/>
		<g>
			<path fill="#FDB71F" d="M86.754,35.559c-7.208-3.649-4.778-18.74-2.111-24.285c0.145-0.302-0.42-0.398-0.581-0.392
				c-3.284,0.118-6.741,0.388-9.053,2.976c-2.155,2.411-0.866,7.247-0.649,10.041c0.271,3.482-0.012,8.07,2.208,11.023
				c2.375,3.16,5.984,2.703,9.367,1.59c1.121-0.369,0.902-1.282-0.242-0.905c-7.275,2.393-8.68-3.237-9.178-8.829
				c-0.329-3.697-1.291-8.195-0.3-11.799c0.682-2.479,6.289-3.007,5.799-1.989c-0.683,1.42-1.016,2.983-1.346,4.511
				c-0.591,2.737-0.323,5.603-0.184,8.369c0.205,4.077,0.734,8.573,4.724,10.593C85.742,36.732,87.524,35.949,86.754,35.559
				L86.754,35.559z"/>
		</g>
	</g>
</g>
<path stroke="#000000" stroke-width="3" d="M87.562,29.115c0.337,3.227-0.466,5.954-1.798,6.096l0,0
	c-1.332,0.137-2.685-2.364-3.023-5.593l-1.16-11.065c-0.339-3.227,0.465-5.953,1.797-6.093l0,0c1.333-0.142,2.686,2.363,3.024,5.59
	L87.562,29.115z"/>
<path fill="#FDB71F" stroke="#FDB71F" stroke-width="0.25" d="M75.523,26.069c0.12,1.137-0.431,2.126-1.23,2.209l0,0
	c-0.798,0.084-1.542-0.769-1.661-1.906l-0.409-3.896c-0.12-1.137,0.431-2.125,1.229-2.208l0,0c0.799-0.085,1.543,0.769,1.663,1.906
	L75.523,26.069z"/>
<path stroke="#000000" stroke-width="3" d="M130.656,17.563c0.542-3.199,1.885-5.64,3.003-5.451l0,0
	c1.116,0.19,1.583,2.936,1.043,6.134l-1.856,10.972c-0.541,3.2-1.886,5.64-3.002,5.45l0,0c-1.117-0.188-1.584-2.937-1.043-6.135
	L130.656,17.563z"/>
<path fill="#FDB71F" stroke="#FDB71F" stroke-width="0.25" d="M143.959,27.002c-0.165,1.13-0.941,1.953-1.737,1.838l0,0
	c-0.793-0.116-1.304-1.126-1.139-2.257l0.565-3.877c0.165-1.13,0.942-1.953,1.736-1.836l0,0c0.796,0.115,1.306,1.126,1.14,2.257
	L143.959,27.002z"/>
<path fill="none" stroke="#FDB71F" stroke-width="5" d="M68.006,27.374c0,0-5.13-20.833-30.796-20.861
	C12.459,6.485,6.042,26.357,6.042,26.357"/>
<g>
	<g>
		<path d="M61.771,15.494c3.873,2.777,2.136,9.303,1.359,13.149c-0.771,4.177-2.381,8.035-5.334,11.245
			c10.045,2.52,9.962-2.647,11.035-8.995c0.965-5.708,4.432-16.568-6.886-15.403"/>
		<g>
			<path d="M60.872,15.864c6.008,5.4,0.108,19.207-3.971,24.02c-0.224,0.264,0.061,0.455,0.298,0.508
				c2.813,0.627,7.09,1.492,9.51-0.786c2.591-2.439,2.624-6.254,3.213-9.55c1.319-7.376,2.543-15.741-7.594-15.087
				c-0.669,0.043-2.059,1.126-0.766,1.043c11.34-0.732,7.086,13.627,5.279,20.467c-0.97,3.672-9.259,5.186-6.179,0.891
				c1.859-2.592,2.779-5.783,3.432-8.855c0.941-4.429,2.407-9.947-1.423-13.39C62.185,14.688,60.381,15.423,60.872,15.864
				L60.872,15.864z"/>
		</g>
	</g>
	<g>
		<path fill="#FDB71F" d="M61.771,15.494c3.873,2.777,2.136,9.303,1.359,13.149c-0.771,4.177-2.381,8.035-5.334,11.245
			c10.045,2.52,9.962-2.647,11.035-8.995c0.965-5.708,4.432-16.568-6.886-15.403"/>
		<g>
			<path fill="#FDB71F" d="M60.872,15.864c6.008,5.4,0.108,19.207-3.971,24.02c-0.224,0.264,0.061,0.455,0.298,0.508
				c2.813,0.627,7.09,1.492,9.51-0.786c2.591-2.439,2.624-6.254,3.213-9.55c1.319-7.376,2.543-15.741-7.594-15.087
				c-0.669,0.043-2.059,1.126-0.766,1.043c11.34-0.732,7.086,13.627,5.279,20.467c-0.97,3.672-9.259,5.186-6.179,0.891
				c1.859-2.592,2.779-5.783,3.432-8.855c0.941-4.429,2.407-9.947-1.423-13.39C62.185,14.688,60.381,15.423,60.872,15.864
				L60.872,15.864z"/>
		</g>
	</g>
</g>
<g>
	<g>
		<path d="M14.232,40.023c-4.449-1.71-4.413-8.463-4.63-12.381c-0.305-4.237,0.28-8.376,2.329-12.227
			C1.577,15.51,2.958,20.486,3.52,26.902c0.505,5.767-0.112,17.149,10.546,13.168"/>
		<g>
			<path d="M15.005,39.572c-7.208-3.649-4.778-18.74-2.111-24.285c0.145-0.302-0.42-0.398-0.581-0.392
				c-3.284,0.118-6.741,0.388-9.053,2.976c-2.155,2.411-0.866,7.247-0.649,10.041c0.271,3.482-0.012,8.07,2.208,11.023
				c2.375,3.16,5.984,2.703,9.367,1.59c1.121-0.369,0.902-1.282-0.242-0.905c-7.275,2.393-8.68-3.237-9.178-8.829
				c-0.329-3.697-1.291-8.195-0.3-11.799c0.682-2.479,6.289-3.007,5.799-1.989c-0.683,1.42-1.016,2.983-1.346,4.511
				c-0.591,2.737-0.323,5.603-0.184,8.369c0.205,4.077,0.734,8.573,4.724,10.593C13.993,40.745,15.775,39.961,15.005,39.572
				L15.005,39.572z"/>
		</g>
	</g>
	<g>
		<path fill="#FDB71F" d="M14.232,40.023c-4.449-1.71-4.413-8.463-4.63-12.381c-0.305-4.237,0.28-8.376,2.329-12.227
			C1.577,15.51,2.958,20.486,3.52,26.902c0.505,5.767-0.112,17.149,10.546,13.168"/>
		<g>
			<path fill="#FDB71F" d="M15.005,39.572c-7.208-3.649-4.778-18.74-2.111-24.285c0.145-0.302-0.42-0.398-0.581-0.392
				c-3.284,0.118-6.741,0.388-9.053,2.976c-2.155,2.411-0.866,7.247-0.649,10.041c0.271,3.482-0.012,8.07,2.208,11.023
				c2.375,3.16,5.984,2.703,9.367,1.59c1.121-0.369,0.902-1.282-0.242-0.905c-7.275,2.393-8.68-3.237-9.178-8.829
				c-0.329-3.697-1.291-8.195-0.3-11.799c0.682-2.479,6.289-3.007,5.799-1.989c-0.683,1.42-1.016,2.983-1.346,4.511
				c-0.591,2.737-0.323,5.603-0.184,8.369c0.205,4.077,0.734,8.573,4.724,10.593C13.993,40.745,15.775,39.961,15.005,39.572
				L15.005,39.572z"/>
		</g>
	</g>
</g>
<path stroke="#000000" stroke-width="3" d="M15.813,33.128c0.337,3.227-0.466,5.954-1.798,6.096l0,0
	c-1.332,0.137-2.685-2.364-3.023-5.593l-1.16-11.065c-0.339-3.227,0.465-5.953,1.797-6.093l0,0c1.333-0.142,2.686,2.363,3.024,5.59
	L15.813,33.128z"/>
<path fill="#FDB71F" stroke="#FDB71F" stroke-width="0.25" d="M3.774,30.082c0.12,1.137-0.431,2.126-1.23,2.209l0,0
	c-0.798,0.084-1.542-0.769-1.661-1.906l-0.409-3.896c-0.12-1.137,0.431-2.125,1.229-2.208l0,0c0.799-0.085,1.543,0.769,1.663,1.906
	L3.774,30.082z"/>
<path stroke="#000000" stroke-width="3" d="M58.908,21.575c0.542-3.199,1.885-5.64,3.002-5.451l0,0
	c1.116,0.19,1.583,2.936,1.043,6.134L61.096,33.23c-0.541,3.2-1.885,5.64-3.002,5.45l0,0c-1.117-0.188-1.583-2.937-1.043-6.135
	L58.908,21.575z"/>
<path fill="#FDB71F" stroke="#FDB71F" stroke-width="0.25" d="M72.21,31.015c-0.165,1.13-0.941,1.953-1.737,1.838l0,0
	c-0.794-0.116-1.304-1.126-1.139-2.257l0.565-3.877c0.165-1.13,0.942-1.953,1.736-1.836l0,0c0.795,0.115,1.305,1.126,1.14,2.257
	L72.21,31.015z"/>
<path fill="none" stroke="#FDB71F" stroke-width="5" d="M210.088,27.195c0,0-5.13-20.833-30.796-20.861
	c-24.751-0.027-31.167,19.845-31.167,19.845"/>
<g>
	<g>
		<path d="M205.854,15.315c3.873,2.777,2.136,9.303,1.356,13.149c-0.771,4.177-2.381,8.035-5.334,11.245
			c10.045,2.52,9.962-2.647,11.035-8.995c0.965-5.708,4.433-16.568-6.888-15.403"/>
		<g>
			<path d="M204.954,15.686c6.007,5.399,0.107,19.207-3.973,24.02c-0.225,0.264,0.063,0.455,0.299,0.508
				c2.813,0.627,7.091,1.492,9.511-0.786c2.59-2.438,2.623-6.254,3.213-9.55c1.317-7.376,2.543-15.741-7.595-15.087
				c-0.669,0.043-2.061,1.126-0.766,1.043c11.34-0.732,7.086,13.627,5.277,20.467c-0.97,3.672-9.259,5.186-6.179,0.891
				c1.856-2.592,2.776-5.783,3.432-8.855c0.941-4.429,2.407-9.947-1.423-13.39C206.266,14.509,204.463,15.244,204.954,15.686
				L204.954,15.686z"/>
		</g>
	</g>
	<g>
		<path fill="#FDB71F" d="M205.854,15.315c3.873,2.777,2.136,9.303,1.356,13.149c-0.771,4.177-2.381,8.035-5.334,11.245
			c10.045,2.52,9.962-2.647,11.035-8.995c0.965-5.708,4.433-16.568-6.888-15.403"/>
		<g>
			<path fill="#FDB71F" d="M204.954,15.686c6.007,5.399,0.107,19.207-3.973,24.02c-0.225,0.264,0.063,0.455,0.299,0.508
				c2.813,0.627,7.091,1.492,9.511-0.786c2.59-2.438,2.623-6.254,3.213-9.55c1.317-7.376,2.543-15.741-7.595-15.087
				c-0.669,0.043-2.061,1.126-0.766,1.043c11.34-0.732,7.086,13.627,5.277,20.467c-0.97,3.672-9.259,5.186-6.179,0.891
				c1.856-2.592,2.776-5.783,3.432-8.855c0.941-4.429,2.407-9.947-1.423-13.39C206.266,14.509,204.463,15.244,204.954,15.686
				L204.954,15.686z"/>
		</g>
	</g>
</g>
<g>
	<g>
		<path d="M158.315,39.845c-4.449-1.71-4.414-8.463-4.631-12.381c-0.307-4.237,0.277-8.376,2.328-12.227
			c-10.355,0.095-8.975,5.071-8.412,11.487c0.506,5.767-0.111,17.149,10.547,13.168"/>
		<g>
			<path d="M159.087,39.393c-7.208-3.649-4.778-18.74-2.11-24.285c0.146-0.302-0.42-0.398-0.582-0.392
				c-3.283,0.118-6.739,0.388-9.053,2.976c-2.154,2.411-0.865,7.247-0.648,10.041c0.271,3.482-0.012,8.07,2.207,11.023
				c2.375,3.16,5.984,2.703,9.367,1.59c1.121-0.369,0.902-1.282-0.242-0.905c-7.272,2.393-8.68-3.237-9.178-8.829
				c-0.328-3.697-1.289-8.195-0.299-11.799c0.682-2.479,6.288-3.007,5.799-1.989c-0.684,1.42-1.017,2.983-1.347,4.511
				c-0.591,2.737-0.321,5.604-0.185,8.369c0.205,4.077,0.733,8.573,4.726,10.593C158.075,40.566,159.858,39.783,159.087,39.393
				L159.087,39.393z"/>
		</g>
	</g>
	<g>
		<path fill="#FDB71F" d="M158.315,39.845c-4.449-1.71-4.414-8.463-4.631-12.381c-0.307-4.237,0.277-8.376,2.328-12.227
			c-10.355,0.095-8.975,5.071-8.412,11.487c0.506,5.767-0.111,17.149,10.547,13.168"/>
		<g>
			<path fill="#FDB71F" d="M159.087,39.393c-7.208-3.649-4.778-18.74-2.11-24.285c0.146-0.302-0.42-0.398-0.582-0.392
				c-3.283,0.118-6.739,0.388-9.053,2.976c-2.154,2.411-0.865,7.247-0.648,10.041c0.271,3.482-0.012,8.07,2.207,11.023
				c2.375,3.16,5.984,2.703,9.367,1.59c1.121-0.369,0.902-1.282-0.242-0.905c-7.272,2.393-8.68-3.237-9.178-8.829
				c-0.328-3.697-1.289-8.195-0.299-11.799c0.682-2.479,6.288-3.007,5.799-1.989c-0.684,1.42-1.017,2.983-1.347,4.511
				c-0.591,2.737-0.321,5.604-0.185,8.369c0.205,4.077,0.733,8.573,4.726,10.593C158.075,40.566,159.858,39.783,159.087,39.393
				L159.087,39.393z"/>
		</g>
	</g>
</g>
<path stroke="#000000" stroke-width="3" d="M159.895,32.949c0.338,3.227-0.465,5.954-1.799,6.096l0,0
	c-1.33,0.137-2.685-2.364-3.021-5.593l-1.16-11.065c-0.339-3.227,0.466-5.953,1.798-6.093l0,0c1.333-0.142,2.687,2.363,3.022,5.59
	L159.895,32.949z"/>
<path fill="#FDB71F" stroke="#FDB71F" stroke-width="0.25" d="M147.856,29.903c0.119,1.137-0.432,2.126-1.229,2.209l0,0
	c-0.798,0.084-1.542-0.769-1.661-1.906l-0.408-3.896c-0.119-1.137,0.434-2.125,1.229-2.208l0,0c0.8-0.085,1.543,0.769,1.663,1.906
	L147.856,29.903z"/>
<path stroke="#000000" stroke-width="3" d="M202.989,21.396c0.542-3.199,1.885-5.64,3.003-5.451l0,0
	c1.116,0.19,1.583,2.936,1.043,6.134l-1.856,10.972c-0.541,3.2-1.886,5.64-3.002,5.45l0,0c-1.117-0.188-1.584-2.937-1.043-6.135
	L202.989,21.396z"/>
<path fill="#FDB71F" stroke="#FDB71F" stroke-width="0.25" d="M216.292,30.836c-0.165,1.13-0.94,1.953-1.737,1.838l0,0
	c-0.793-0.116-1.304-1.126-1.139-2.257l0.564-3.877c0.166-1.13,0.941-1.953,1.735-1.836l0,0c0.796,0.115,1.306,1.126,1.142,2.257
	L216.292,30.836z"/>
<path fill="none" stroke="#FDB71F" stroke-width="5" d="M282.658,37.028c0,0-5.13-20.833-30.796-20.861
	c-24.752-0.027-31.168,19.845-31.168,19.845"/>
<g>
	<g>
		<path d="M276.422,25.148c3.873,2.777,2.137,9.303,1.358,13.149c-0.771,4.177-2.382,8.035-5.335,11.245
			c10.046,2.52,9.963-2.647,11.035-8.995c0.965-5.708,4.433-16.568-6.887-15.403"/>
		<g>
			<path d="M275.522,25.519c6.008,5.399,0.106,19.207-3.973,24.02c-0.224,0.264,0.063,0.455,0.299,0.508
				c2.813,0.627,7.092,1.492,9.512-0.786c2.59-2.438,2.623-6.254,3.212-9.55c1.319-7.376,2.544-15.741-7.595-15.087
				c-0.668,0.043-2.061,1.126-0.767,1.043c11.343-0.732,7.087,13.627,5.279,20.467c-0.972,3.672-9.261,5.186-6.181,0.891
				c1.858-2.592,2.778-5.783,3.434-8.855c0.939-4.429,2.406-9.947-1.424-13.39C276.835,24.342,275.033,25.077,275.522,25.519
				L275.522,25.519z"/>
		</g>
	</g>
	<g>
		<path fill="#FDB71F" d="M276.422,25.148c3.873,2.777,2.137,9.303,1.358,13.149c-0.771,4.177-2.382,8.035-5.335,11.245
			c10.046,2.52,9.963-2.647,11.035-8.995c0.965-5.708,4.433-16.568-6.887-15.403"/>
		<g>
			<path fill="#FDB71F" d="M275.522,25.519c6.008,5.399,0.106,19.207-3.973,24.02c-0.224,0.264,0.063,0.455,0.299,0.508
				c2.813,0.627,7.092,1.492,9.512-0.786c2.59-2.438,2.623-6.254,3.212-9.55c1.319-7.376,2.544-15.741-7.595-15.087
				c-0.668,0.043-2.061,1.126-0.767,1.043c11.343-0.732,7.087,13.627,5.279,20.467c-0.972,3.672-9.261,5.186-6.181,0.891
				c1.858-2.592,2.778-5.783,3.434-8.855c0.939-4.429,2.406-9.947-1.424-13.39C276.835,24.342,275.033,25.077,275.522,25.519
				L275.522,25.519z"/>
		</g>
	</g>
</g>
<g>
	<g>
		<path d="M228.884,49.678c-4.448-1.71-4.413-8.463-4.631-12.381c-0.305-4.237,0.279-8.376,2.328-12.227
			c-10.354,0.095-8.974,5.071-8.411,11.487c0.505,5.767-0.111,17.149,10.546,13.168"/>
		<g>
			<path d="M229.657,49.226c-7.208-3.649-4.778-18.74-2.111-24.285c0.146-0.302-0.42-0.398-0.581-0.392
				c-3.282,0.118-6.741,0.388-9.053,2.976c-2.154,2.411-0.866,7.247-0.649,10.041c0.271,3.482-0.012,8.07,2.209,11.023
				c2.375,3.16,5.982,2.703,9.366,1.59c1.121-0.369,0.902-1.282-0.241-0.905c-7.273,2.393-8.681-3.237-9.179-8.829
				c-0.328-3.697-1.29-8.195-0.299-11.799c0.683-2.479,6.288-3.007,5.799-1.989c-0.685,1.42-1.017,2.983-1.347,4.511
				c-0.592,2.737-0.322,5.604-0.184,8.369c0.203,4.077,0.732,8.573,4.725,10.593C228.645,50.399,230.428,49.616,229.657,49.226
				L229.657,49.226z"/>
		</g>
	</g>
	<g>
		<path fill="#FDB71F" d="M228.884,49.678c-4.448-1.71-4.413-8.463-4.631-12.381c-0.305-4.237,0.279-8.376,2.328-12.227
			c-10.354,0.095-8.974,5.071-8.411,11.487c0.505,5.767-0.111,17.149,10.546,13.168"/>
		<g>
			<path fill="#FDB71F" d="M229.657,49.226c-7.208-3.649-4.778-18.74-2.111-24.285c0.146-0.302-0.42-0.398-0.581-0.392
				c-3.282,0.118-6.741,0.388-9.053,2.976c-2.154,2.411-0.866,7.247-0.649,10.041c0.271,3.482-0.012,8.07,2.209,11.023
				c2.375,3.16,5.982,2.703,9.366,1.59c1.121-0.369,0.902-1.282-0.241-0.905c-7.273,2.393-8.681-3.237-9.179-8.829
				c-0.328-3.697-1.29-8.195-0.299-11.799c0.683-2.479,6.288-3.007,5.799-1.989c-0.685,1.42-1.017,2.983-1.347,4.511
				c-0.592,2.737-0.322,5.604-0.184,8.369c0.203,4.077,0.732,8.573,4.725,10.593C228.645,50.399,230.428,49.616,229.657,49.226
				L229.657,49.226z"/>
		</g>
	</g>
</g>
<path stroke="#000000" stroke-width="3" d="M230.464,42.782c0.339,3.227-0.466,5.954-1.799,6.096l0,0
	c-1.331,0.137-2.685-2.364-3.022-5.593l-1.16-11.065c-0.34-3.227,0.466-5.953,1.798-6.093l0,0c1.333-0.142,2.686,2.363,3.024,5.59
	L230.464,42.782z"/>
<path fill="#FDB71F" stroke="#FDB71F" stroke-width="0.25" d="M218.425,39.736c0.12,1.137-0.43,2.126-1.229,2.209l0,0
	c-0.797,0.084-1.54-0.769-1.659-1.906l-0.408-3.896c-0.12-1.137,0.433-2.125,1.229-2.208l0,0c0.801-0.085,1.543,0.769,1.664,1.906
	L218.425,39.736z"/>
<path stroke="#000000" stroke-width="3" d="M273.559,31.229c0.541-3.199,1.885-5.64,3.002-5.451l0,0
	c1.117,0.19,1.584,2.936,1.043,6.134l-1.854,10.972c-0.541,3.2-1.886,5.64-3.002,5.45l0,0c-1.117-0.188-1.584-2.937-1.043-6.135
	L273.559,31.229z"/>
<path fill="#FDB71F" stroke="#FDB71F" stroke-width="0.25" d="M286.862,40.669c-0.166,1.13-0.941,1.953-1.737,1.838l0,0
	c-0.793-0.116-1.304-1.126-1.14-2.257l0.564-3.877c0.165-1.13,0.942-1.953,1.736-1.836l0,0c0.795,0.115,1.305,1.126,1.14,2.257
	L286.862,40.669z"/>
<path fill="none" stroke="#FDB71F" stroke-width="5" d="M68.006,116.695c0,0-5.13-20.833-30.796-20.861
	c-24.751-0.028-31.168,19.844-31.168,19.844"/>
<g>
	<g>
		<path d="M61.771,104.815c3.873,2.777,2.136,9.303,1.359,13.149c-0.771,4.177-2.381,8.035-5.334,11.245
			c10.045,2.52,9.962-2.647,11.035-8.995c0.965-5.708,4.432-16.568-6.886-15.403"/>
		<g>
			<path d="M60.872,105.185c6.008,5.4,0.108,19.207-3.971,24.02c-0.224,0.264,0.061,0.455,0.298,0.508
				c2.813,0.627,7.09,1.492,9.51-0.786c2.591-2.439,2.624-6.254,3.213-9.55c1.319-7.376,2.543-15.741-7.594-15.087
				c-0.669,0.043-2.059,1.126-0.766,1.043c11.34-0.732,7.086,13.627,5.279,20.467c-0.97,3.672-9.259,5.186-6.179,0.891
				c1.859-2.592,2.779-5.783,3.432-8.855c0.941-4.429,2.407-9.947-1.423-13.39C62.185,104.008,60.381,104.744,60.872,105.185
				L60.872,105.185z"/>
		</g>
	</g>
	<g>
		<path fill="#FDB71F" d="M61.771,104.815c3.873,2.777,2.136,9.303,1.359,13.149c-0.771,4.177-2.381,8.035-5.334,11.245
			c10.045,2.52,9.962-2.647,11.035-8.995c0.965-5.708,4.432-16.568-6.886-15.403"/>
		<g>
			<path fill="#FDB71F" d="M60.872,105.185c6.008,5.4,0.108,19.207-3.971,24.02c-0.224,0.264,0.061,0.455,0.298,0.508
				c2.813,0.627,7.09,1.492,9.51-0.786c2.591-2.439,2.624-6.254,3.213-9.55c1.319-7.376,2.543-15.741-7.594-15.087
				c-0.669,0.043-2.059,1.126-0.766,1.043c11.34-0.732,7.086,13.627,5.279,20.467c-0.97,3.672-9.259,5.186-6.179,0.891
				c1.859-2.592,2.779-5.783,3.432-8.855c0.941-4.429,2.407-9.947-1.423-13.39C62.185,104.008,60.381,104.744,60.872,105.185
				L60.872,105.185z"/>
		</g>
	</g>
</g>
<g>
	<g>
		<path d="M14.232,129.344c-4.449-1.71-4.413-8.463-4.63-12.381c-0.305-4.237,0.28-8.376,2.329-12.227
			c-10.355,0.095-8.974,5.071-8.412,11.487c0.505,5.767-0.112,17.149,10.546,13.168"/>
		<g>
			<path d="M15.005,128.892c-7.208-3.649-4.778-18.74-2.111-24.285c0.145-0.302-0.42-0.398-0.581-0.392
				c-3.284,0.118-6.741,0.388-9.053,2.976c-2.155,2.411-0.866,7.247-0.649,10.041c0.271,3.482-0.012,8.07,2.208,11.023
				c2.375,3.16,5.984,2.703,9.367,1.59c1.121-0.369,0.902-1.282-0.242-0.905c-7.275,2.393-8.68-3.237-9.178-8.829
				c-0.329-3.697-1.291-8.195-0.3-11.799c0.682-2.479,6.289-3.007,5.799-1.989c-0.683,1.42-1.016,2.983-1.346,4.511
				c-0.591,2.737-0.323,5.603-0.184,8.369c0.205,4.077,0.734,8.573,4.724,10.593C13.993,130.066,15.775,129.282,15.005,128.892
				L15.005,128.892z"/>
		</g>
	</g>
	<g>
		<path fill="#FDB71F" d="M14.232,129.344c-4.449-1.71-4.413-8.463-4.63-12.381c-0.305-4.237,0.28-8.376,2.329-12.227
			c-10.355,0.095-8.974,5.071-8.412,11.487c0.505,5.767-0.112,17.149,10.546,13.168"/>
		<g>
			<path fill="#FDB71F" d="M15.005,128.892c-7.208-3.649-4.778-18.74-2.111-24.285c0.145-0.302-0.42-0.398-0.581-0.392
				c-3.284,0.118-6.741,0.388-9.053,2.976c-2.155,2.411-0.866,7.247-0.649,10.041c0.271,3.482-0.012,8.07,2.208,11.023
				c2.375,3.16,5.984,2.703,9.367,1.59c1.121-0.369,0.902-1.282-0.242-0.905c-7.275,2.393-8.68-3.237-9.178-8.829
				c-0.329-3.697-1.291-8.195-0.3-11.799c0.682-2.479,6.289-3.007,5.799-1.989c-0.683,1.42-1.016,2.983-1.346,4.511
				c-0.591,2.737-0.323,5.603-0.184,8.369c0.205,4.077,0.734,8.573,4.724,10.593C13.993,130.066,15.775,129.282,15.005,128.892
				L15.005,128.892z"/>
		</g>
	</g>
	<g>
		<path fill="none" stroke="#FDB71F" d="M14.232,129.344c-4.449-1.71-4.413-8.463-4.63-12.381c-0.305-4.237,0.28-8.376,2.329-12.227
			c-10.355,0.095-8.974,5.071-8.412,11.487c0.505,5.767-0.112,17.149,10.546,13.168"/>
		<g>
			<path fill="none" stroke="#FDB71F" d="M15.005,128.892c-7.208-3.649-4.778-18.74-2.111-24.285
				c0.145-0.302-0.42-0.398-0.581-0.392c-3.284,0.118-6.741,0.388-9.053,2.976c-2.155,2.411-0.866,7.247-0.649,10.041
				c0.271,3.482-0.012,8.07,2.208,11.023c2.375,3.16,5.984,2.703,9.367,1.59c1.121-0.369,0.902-1.282-0.242-0.905
				c-7.275,2.393-8.68-3.237-9.178-8.829c-0.329-3.697-1.291-8.195-0.3-11.799c0.682-2.479,6.289-3.007,5.799-1.989
				c-0.683,1.42-1.016,2.983-1.346,4.511c-0.591,2.737-0.323,5.603-0.184,8.369c0.205,4.077,0.734,8.573,4.724,10.593
				C13.993,130.066,15.775,129.282,15.005,128.892L15.005,128.892z"/>
		</g>
	</g>
</g>
<path stroke="#000000" stroke-width="3" d="M15.813,122.449c0.337,3.227-0.466,5.954-1.798,6.096l0,0
	c-1.332,0.137-2.685-2.364-3.023-5.593l-1.16-11.065c-0.339-3.227,0.465-5.953,1.797-6.093l0,0c1.333-0.142,2.686,2.363,3.024,5.59
	L15.813,122.449z"/>
<path fill="#FDB71F" stroke="#FDB71F" stroke-width="0.25" d="M3.774,119.403c0.12,1.137-0.431,2.126-1.23,2.209l0,0
	c-0.798,0.084-1.542-0.769-1.661-1.906l-0.409-3.896c-0.12-1.137,0.431-2.125,1.229-2.208l0,0c0.799-0.085,1.543,0.769,1.663,1.906
	L3.774,119.403z"/>
<path stroke="#000000" stroke-width="3" d="M58.908,110.896c0.542-3.199,1.885-5.64,3.002-5.451l0,0
	c1.116,0.19,1.583,2.936,1.043,6.134l-1.857,10.972c-0.541,3.2-1.885,5.64-3.002,5.45l0,0c-1.117-0.188-1.583-2.937-1.043-6.135
	L58.908,110.896z"/>
<path fill="#FDB71F" stroke="#FDB71F" stroke-width="0.25" d="M72.21,120.335c-0.165,1.13-0.941,1.953-1.737,1.838l0,0
	c-0.794-0.116-1.304-1.126-1.139-2.257l0.565-3.877c0.165-1.13,0.942-1.953,1.736-1.836l0,0c0.795,0.115,1.305,1.126,1.14,2.257
	L72.21,120.335z"/>
<path fill="none" stroke="#FDB71F" stroke-width="5" d="M209.588,138.529c0,0-5.13-20.833-30.796-20.861
	c-24.751-0.027-31.167,19.845-31.167,19.845"/>
<g>
	<g>
		<path d="M203.354,126.649c3.873,2.777,2.136,9.303,1.356,13.149c-0.771,4.177-2.381,8.035-5.334,11.246
			c10.045,2.52,9.962-2.648,11.035-8.996c0.965-5.708,4.433-16.568-6.888-15.403"/>
		<g>
			<path d="M202.454,127.019c6.007,5.399,0.107,19.207-3.973,24.019c-0.225,0.266,0.063,0.455,0.299,0.508
				c2.813,0.627,7.091,1.492,9.511-0.785c2.59-2.438,2.623-6.254,3.213-9.55c1.317-7.376,2.543-15.741-7.595-15.087
				c-0.669,0.043-2.061,1.126-0.766,1.043c11.34-0.732,7.086,13.627,5.277,20.467c-0.97,3.672-9.259,5.186-6.179,0.891
				c1.856-2.592,2.776-5.783,3.432-8.855c0.941-4.429,2.407-9.947-1.423-13.39C203.766,125.842,201.963,126.578,202.454,127.019
				L202.454,127.019z"/>
		</g>
	</g>
	<g>
		<path fill="#FDB71F" d="M203.354,126.649c3.873,2.777,2.136,9.303,1.356,13.149c-0.771,4.177-2.381,8.035-5.334,11.246
			c10.045,2.52,9.962-2.648,11.035-8.996c0.965-5.708,4.433-16.568-6.888-15.403"/>
		<g>
			<path fill="#FDB71F" d="M202.454,127.019c6.007,5.399,0.107,19.207-3.973,24.019c-0.225,0.266,0.063,0.455,0.299,0.508
				c2.813,0.627,7.091,1.492,9.511-0.785c2.59-2.438,2.623-6.254,3.213-9.55c1.317-7.376,2.543-15.741-7.595-15.087
				c-0.669,0.043-2.061,1.126-0.766,1.043c11.34-0.732,7.086,13.627,5.277,20.467c-0.97,3.672-9.259,5.186-6.179,0.891
				c1.856-2.592,2.776-5.783,3.432-8.855c0.941-4.429,2.407-9.947-1.423-13.39C203.766,125.842,201.963,126.578,202.454,127.019
				L202.454,127.019z"/>
		</g>
	</g>
</g>
<g>
	<g>
		<path d="M155.815,151.179c-4.449-1.711-4.414-8.463-4.631-12.381c-0.307-4.237,0.277-8.376,2.328-12.227
			c-10.355,0.095-8.975,5.071-8.412,11.487c0.506,5.767-0.111,17.15,10.547,13.167"/>
		<g>
			<path d="M156.587,150.726c-7.208-3.648-4.778-18.739-2.11-24.284c0.146-0.302-0.42-0.398-0.582-0.392
				c-3.283,0.118-6.739,0.388-9.053,2.976c-2.154,2.411-0.865,7.247-0.648,10.041c0.271,3.482-0.012,8.07,2.207,11.023
				c2.375,3.16,5.984,2.703,9.367,1.59c1.121-0.369,0.902-1.281-0.242-0.904c-7.272,2.393-8.68-3.238-9.178-8.83
				c-0.328-3.697-1.289-8.195-0.299-11.799c0.682-2.479,6.288-3.007,5.799-1.989c-0.684,1.42-1.017,2.983-1.347,4.511
				c-0.591,2.737-0.321,5.604-0.185,8.369c0.205,4.077,0.733,8.573,4.726,10.593C155.575,151.899,157.358,151.116,156.587,150.726
				L156.587,150.726z"/>
		</g>
	</g>
	<g>
		<path fill="#FDB71F" d="M155.815,151.179c-4.449-1.711-4.414-8.463-4.631-12.381c-0.307-4.237,0.277-8.376,2.328-12.227
			c-10.355,0.095-8.975,5.071-8.412,11.487c0.506,5.767-0.111,17.15,10.547,13.167"/>
		<g>
			<path fill="#FDB71F" d="M156.587,150.726c-7.208-3.648-4.778-18.739-2.11-24.284c0.146-0.302-0.42-0.398-0.582-0.392
				c-3.283,0.118-6.739,0.388-9.053,2.976c-2.154,2.411-0.865,7.247-0.648,10.041c0.271,3.482-0.012,8.07,2.207,11.023
				c2.375,3.16,5.984,2.703,9.367,1.59c1.121-0.369,0.902-1.281-0.242-0.904c-7.272,2.393-8.68-3.238-9.178-8.83
				c-0.328-3.697-1.289-8.195-0.299-11.799c0.682-2.479,6.288-3.007,5.799-1.989c-0.684,1.42-1.017,2.983-1.347,4.511
				c-0.591,2.737-0.321,5.604-0.185,8.369c0.205,4.077,0.733,8.573,4.726,10.593C155.575,151.899,157.358,151.116,156.587,150.726
				L156.587,150.726z"/>
		</g>
	</g>
</g>
<path stroke="#000000" stroke-width="3" d="M157.395,144.282c0.338,3.227-0.465,5.955-1.799,6.096l0,0
	c-1.33,0.137-2.685-2.363-3.021-5.592l-1.16-11.066c-0.339-3.227,0.466-5.953,1.798-6.093l0,0c1.333-0.142,2.687,2.363,3.022,5.59
	L157.395,144.282z"/>
<path fill="#FDB71F" stroke="#FDB71F" stroke-width="0.25" d="M145.356,141.237c0.119,1.137-0.432,2.125-1.229,2.209l0,0
	c-0.798,0.084-1.542-0.769-1.661-1.907l-0.408-3.896c-0.12-1.137,0.432-2.125,1.229-2.208l0,0c0.8-0.085,1.543,0.769,1.663,1.906
	L145.356,141.237z"/>
<path stroke="#000000" stroke-width="3" d="M200.489,132.73c0.542-3.199,1.885-5.64,3.003-5.451l0,0
	c1.116,0.19,1.583,2.936,1.043,6.134l-1.856,10.971c-0.541,3.201-1.886,5.641-3.002,5.451l0,0c-1.117-0.189-1.584-2.938-1.043-6.135
	L200.489,132.73z"/>
<path fill="#FDB71F" stroke="#FDB71F" stroke-width="0.25" d="M213.792,142.169c-0.165,1.13-0.94,1.953-1.737,1.837l0,0
	c-0.793-0.115-1.304-1.125-1.139-2.256l0.564-3.877c0.166-1.13,0.941-1.953,1.735-1.836l0,0c0.796,0.115,1.306,1.126,1.142,2.257
	L213.792,142.169z"/>
<path fill="#FDB71F" stroke="#FDB71F" stroke-width="0.25" d="M140.793,213.336c-0.165,1.129-0.941,1.953-1.737,1.838l0,0
	c-0.794-0.117-1.304-1.127-1.139-2.258l0.565-3.877c0.165-1.129,0.942-1.953,1.736-1.836l0,0c0.795,0.115,1.305,1.127,1.14,2.258
	L140.793,213.336z"/>
<path fill="none" stroke="#FDB71F" stroke-width="5" d="M209.255,196.028c0,0-5.13-20.832-30.796-20.861
	c-24.75-0.027-31.168,19.846-31.168,19.846"/>
<g>
	<g>
		<path d="M203.02,184.149c3.873,2.777,2.139,9.303,1.359,13.148c-0.771,4.178-2.382,8.035-5.335,11.246
			c10.045,2.52,9.962-2.648,11.035-8.996c0.965-5.707,4.433-16.568-6.886-15.402"/>
		<g>
			<path d="M202.121,184.52c6.009,5.4,0.106,19.206-3.972,24.02c-0.226,0.264,0.062,0.455,0.297,0.508
				c2.813,0.627,7.092,1.492,9.512-0.786c2.59-2.439,2.623-6.254,3.213-9.551c1.318-7.375,2.543-15.741-7.594-15.086
				c-0.669,0.043-2.061,1.127-0.766,1.043c11.34-0.733,7.084,13.627,5.276,20.466c-0.97,3.673-9.259,5.187-6.179,0.892
				c1.857-2.593,2.777-5.783,3.433-8.855c0.941-4.43,2.406-9.947-1.424-13.39C203.434,183.343,201.63,184.078,202.121,184.52
				L202.121,184.52z"/>
		</g>
	</g>
	<g>
		<path fill="#FDB71F" d="M203.02,184.149c3.873,2.777,2.139,9.303,1.359,13.148c-0.771,4.178-2.382,8.035-5.335,11.246
			c10.045,2.52,9.962-2.648,11.035-8.996c0.965-5.707,4.433-16.568-6.886-15.402"/>
		<g>
			<path fill="#FDB71F" d="M202.121,184.52c6.009,5.4,0.106,19.206-3.972,24.02c-0.226,0.264,0.062,0.455,0.297,0.508
				c2.813,0.627,7.092,1.492,9.512-0.786c2.59-2.439,2.623-6.254,3.213-9.551c1.318-7.375,2.543-15.741-7.594-15.086
				c-0.669,0.043-2.061,1.127-0.766,1.043c11.34-0.733,7.084,13.627,5.276,20.466c-0.97,3.673-9.259,5.187-6.179,0.892
				c1.857-2.593,2.777-5.783,3.433-8.855c0.941-4.43,2.406-9.947-1.424-13.39C203.434,183.343,201.63,184.078,202.121,184.52
				L202.121,184.52z"/>
		</g>
	</g>
	<g>
		<path fill="none" stroke="#FDB71F" d="M203.02,184.149c3.873,2.777,2.139,9.303,1.359,13.148
			c-0.771,4.178-2.382,8.035-5.335,11.246c10.045,2.52,9.962-2.648,11.035-8.996c0.965-5.707,4.433-16.568-6.886-15.402"/>
		<g>
			<path fill="none" stroke="#FDB71F" d="M202.121,184.52c6.009,5.4,0.106,19.206-3.972,24.02c-0.226,0.264,0.062,0.455,0.297,0.508
				c2.813,0.627,7.092,1.492,9.512-0.786c2.59-2.439,2.623-6.254,3.213-9.551c1.318-7.375,2.543-15.741-7.594-15.086
				c-0.669,0.043-2.061,1.127-0.766,1.043c11.34-0.733,7.084,13.627,5.276,20.466c-0.97,3.673-9.259,5.187-6.179,0.892
				c1.857-2.593,2.777-5.783,3.433-8.855c0.941-4.43,2.406-9.947-1.424-13.39C203.434,183.343,201.63,184.078,202.121,184.52
				L202.121,184.52z"/>
		</g>
	</g>
</g>
<g>
	<g>
		<path d="M155.481,208.679c-4.449-1.711-4.412-8.463-4.631-12.381c-0.307-4.238,0.279-8.377,2.33-12.227
			c-10.355,0.094-8.977,5.07-8.412,11.486c0.504,5.768-0.111,17.15,10.547,13.168"/>
		<g>
			<path d="M156.253,208.227c-7.207-3.65-4.776-18.739-2.108-24.284c0.146-0.303-0.42-0.398-0.582-0.393
				c-3.281,0.117-6.739,0.388-9.053,2.975c-2.156,2.411-0.867,7.247-0.65,10.041c0.271,3.481-0.01,8.07,2.209,11.023
				c2.375,3.16,5.984,2.702,9.367,1.589c1.121-0.368,0.902-1.281-0.242-0.904c-7.273,2.393-8.68-3.237-9.178-8.828
				c-0.328-3.697-1.291-8.195-0.3-11.8c0.683-2.479,6.289-3.006,5.8-1.988c-0.684,1.42-1.017,2.983-1.347,4.511
				c-0.592,2.737-0.323,5.604-0.185,8.369c0.205,4.077,0.734,8.573,4.724,10.594C155.241,209.4,157.024,208.617,156.253,208.227
				L156.253,208.227z"/>
		</g>
	</g>
	<g>
		<path fill="#FDB71F" d="M155.481,208.679c-4.449-1.711-4.412-8.463-4.631-12.381c-0.307-4.238,0.279-8.377,2.33-12.227
			c-10.355,0.094-8.977,5.07-8.412,11.486c0.504,5.768-0.111,17.15,10.547,13.168"/>
		<g>
			<path fill="#FDB71F" d="M156.253,208.227c-7.207-3.65-4.776-18.739-2.108-24.284c0.146-0.303-0.42-0.398-0.582-0.393
				c-3.281,0.117-6.739,0.388-9.053,2.975c-2.156,2.411-0.867,7.247-0.65,10.041c0.271,3.481-0.01,8.07,2.209,11.023
				c2.375,3.16,5.984,2.702,9.367,1.589c1.121-0.368,0.902-1.281-0.242-0.904c-7.273,2.393-8.68-3.237-9.178-8.828
				c-0.328-3.697-1.291-8.195-0.3-11.8c0.683-2.479,6.289-3.006,5.8-1.988c-0.684,1.42-1.017,2.983-1.347,4.511
				c-0.592,2.737-0.323,5.604-0.185,8.369c0.205,4.077,0.734,8.573,4.724,10.594C155.241,209.4,157.024,208.617,156.253,208.227
				L156.253,208.227z"/>
		</g>
	</g>
</g>
<path stroke="#000000" stroke-width="3" d="M157.061,201.782c0.338,3.227-0.465,5.955-1.797,6.096l0,0
	c-1.332,0.137-2.687-2.363-3.022-5.592l-1.16-11.066c-0.34-3.227,0.465-5.953,1.797-6.092l0,0c1.333-0.143,2.687,2.363,3.022,5.59
	L157.061,201.782z"/>
<path fill="#FDB71F" stroke="#FDB71F" stroke-width="0.25" d="M145.024,198.737c0.119,1.137-0.434,2.125-1.23,2.209l0,0
	c-0.798,0.084-1.541-0.77-1.66-1.906l-0.409-3.896c-0.12-1.137,0.431-2.125,1.229-2.207l0,0c0.799-0.086,1.543,0.768,1.662,1.906
	L145.024,198.737z"/>
<path stroke="#000000" stroke-width="3" d="M200.157,190.229c0.541-3.199,1.885-5.639,3.002-5.451l0,0
	c1.115,0.191,1.584,2.936,1.043,6.135l-1.857,10.971c-0.539,3.201-1.885,5.641-3.002,5.451l0,0
	c-1.117-0.189-1.582-2.938-1.043-6.135L200.157,190.229z"/>
<path fill="#FDB71F" stroke="#FDB71F" stroke-width="0.25" d="M213.459,199.669c-0.164,1.131-0.941,1.953-1.736,1.838l0,0
	c-0.795-0.115-1.305-1.125-1.14-2.256l0.565-3.877c0.164-1.131,0.939-1.953,1.734-1.836l0,0c0.797,0.115,1.307,1.125,1.143,2.256
	L213.459,199.669z"/>
<path fill="none" stroke="#FDB71F" stroke-width="5" d="M281.088,186.194c0,0-5.13-20.832-30.796-20.861
	c-24.75-0.027-31.168,19.846-31.168,19.846"/>
<g>
	<g>
		<path d="M274.854,174.315c3.873,2.777,2.137,9.303,1.357,13.148c-0.771,4.178-2.382,8.035-5.335,11.246
			c10.045,2.52,9.962-2.648,11.035-8.996c0.965-5.707,4.433-16.568-6.888-15.402"/>
		<g>
			<path d="M273.954,174.686c6.009,5.4,0.107,19.206-3.973,24.02c-0.225,0.264,0.063,0.455,0.299,0.508
				c2.813,0.627,7.091,1.492,9.511-0.786c2.59-2.439,2.623-6.254,3.213-9.551c1.318-7.375,2.543-15.741-7.594-15.086
				c-0.669,0.043-2.06,1.127-0.767,1.043c11.34-0.733,7.086,13.627,5.277,20.466c-0.97,3.673-9.259,5.187-6.179,0.892
				c1.858-2.593,2.778-5.783,3.434-8.855c0.94-4.43,2.405-9.947-1.425-13.39C275.266,173.509,273.463,174.244,273.954,174.686
				L273.954,174.686z"/>
		</g>
	</g>
	<g>
		<path fill="#FDB71F" d="M274.854,174.315c3.873,2.777,2.137,9.303,1.357,13.148c-0.771,4.178-2.382,8.035-5.335,11.246
			c10.045,2.52,9.962-2.648,11.035-8.996c0.965-5.707,4.433-16.568-6.888-15.402"/>
		<g>
			<path fill="#FDB71F" d="M273.954,174.686c6.009,5.4,0.107,19.206-3.973,24.02c-0.225,0.264,0.063,0.455,0.299,0.508
				c2.813,0.627,7.091,1.492,9.511-0.786c2.59-2.439,2.623-6.254,3.213-9.551c1.318-7.375,2.543-15.741-7.594-15.086
				c-0.669,0.043-2.06,1.127-0.767,1.043c11.34-0.733,7.086,13.627,5.277,20.466c-0.97,3.673-9.259,5.187-6.179,0.892
				c1.858-2.593,2.778-5.783,3.434-8.855c0.94-4.43,2.405-9.947-1.425-13.39C275.266,173.509,273.463,174.244,273.954,174.686
				L273.954,174.686z"/>
		</g>
	</g>
</g>
<g>
	<g>
		<path d="M227.313,198.845c-4.448-1.711-4.412-8.463-4.629-12.381c-0.308-4.238,0.278-8.377,2.328-12.227
			c-10.354,0.094-8.976,5.07-8.412,11.486c0.506,5.768-0.11,17.15,10.547,13.168"/>
		<g>
			<path d="M228.086,198.393c-7.207-3.65-4.777-18.739-2.109-24.284c0.146-0.303-0.42-0.398-0.58-0.393
				c-3.282,0.117-6.74,0.388-9.055,2.975c-2.154,2.411-0.865,7.247-0.648,10.041c0.271,3.481-0.012,8.07,2.209,11.023
				c2.375,3.16,5.982,2.702,9.367,1.589c1.121-0.368,0.901-1.281-0.242-0.904c-7.274,2.393-8.682-3.237-9.178-8.828
				c-0.33-3.697-1.293-8.195-0.301-11.8c0.682-2.479,6.289-3.006,5.801-1.988c-0.685,1.42-1.018,2.983-1.348,4.511
				c-0.592,2.737-0.322,5.604-0.186,8.369c0.205,4.077,0.733,8.573,4.725,10.594C227.074,199.566,228.856,198.783,228.086,198.393
				L228.086,198.393z"/>
		</g>
	</g>
	<g>
		<path fill="#FDB71F" d="M227.313,198.845c-4.448-1.711-4.412-8.463-4.629-12.381c-0.308-4.238,0.278-8.377,2.328-12.227
			c-10.354,0.094-8.976,5.07-8.412,11.486c0.506,5.768-0.11,17.15,10.547,13.168"/>
		<g>
			<path fill="#FDB71F" d="M228.086,198.393c-7.207-3.65-4.777-18.739-2.109-24.284c0.146-0.303-0.42-0.398-0.58-0.393
				c-3.282,0.117-6.74,0.388-9.055,2.975c-2.154,2.411-0.865,7.247-0.648,10.041c0.271,3.481-0.012,8.07,2.209,11.023
				c2.375,3.16,5.982,2.702,9.367,1.589c1.121-0.368,0.901-1.281-0.242-0.904c-7.274,2.393-8.682-3.237-9.178-8.828
				c-0.33-3.697-1.293-8.195-0.301-11.8c0.682-2.479,6.289-3.006,5.801-1.988c-0.685,1.42-1.018,2.983-1.348,4.511
				c-0.592,2.737-0.322,5.604-0.186,8.369c0.205,4.077,0.733,8.573,4.725,10.594C227.074,199.566,228.856,198.783,228.086,198.393
				L228.086,198.393z"/>
		</g>
	</g>
</g>
<path stroke="#000000" stroke-width="3" d="M228.895,191.948c0.338,3.227-0.465,5.955-1.797,6.096l0,0
	c-1.332,0.137-2.687-2.363-3.022-5.592l-1.16-11.066c-0.34-3.227,0.465-5.953,1.797-6.092l0,0c1.333-0.143,2.687,2.363,3.022,5.59
	L228.895,191.948z"/>
<path fill="#FDB71F" stroke="#FDB71F" stroke-width="0.25" d="M216.856,188.903c0.119,1.137-0.433,2.125-1.229,2.209l0,0
	c-0.798,0.084-1.541-0.77-1.66-1.906l-0.409-3.896c-0.119-1.137,0.433-2.125,1.229-2.207l0,0c0.799-0.086,1.543,0.768,1.662,1.906
	L216.856,188.903z"/>
<path stroke="#000000" stroke-width="3" d="M271.99,180.396c0.541-3.199,1.885-5.639,3.002-5.451l0,0
	c1.114,0.191,1.584,2.936,1.043,6.135l-1.856,10.971c-0.541,3.201-1.886,5.641-3.002,5.451l0,0
	c-1.117-0.189-1.584-2.938-1.044-6.135L271.99,180.396z"/>
<path fill="#FDB71F" stroke="#FDB71F" stroke-width="0.25" d="M285.292,189.835c-0.164,1.131-0.94,1.953-1.735,1.838l0,0
	c-0.795-0.115-1.306-1.125-1.141-2.256l0.564-3.877c0.164-1.131,0.94-1.953,1.735-1.836l0,0c0.796,0.115,1.306,1.125,1.142,2.256
	L285.292,189.835z"/>
<path fill="none" stroke="#FDB71F" stroke-width="5" d="M282.658,239.695c0,0-5.13-20.834-30.796-20.861
	c-24.752-0.027-31.168,19.846-31.168,19.846"/>
<g>
	<g>
		<path d="M276.422,227.814c3.873,2.776,2.137,9.304,1.358,13.148c-0.771,4.178-2.382,8.035-5.335,11.245
			c10.046,2.521,9.963-2.646,11.035-8.995c0.965-5.708,4.433-16.566-6.887-15.402"/>
		<g>
			<path d="M275.522,228.186c6.008,5.399,0.106,19.207-3.973,24.021c-0.224,0.266,0.063,0.455,0.299,0.508
				c2.813,0.627,7.092,1.492,9.512-0.785c2.59-2.438,2.623-6.255,3.212-9.551c1.319-7.376,2.544-15.74-7.595-15.087
				c-0.668,0.043-2.061,1.126-0.767,1.043c11.343-0.731,7.087,13.627,5.279,20.467c-0.972,3.673-9.261,5.187-6.181,0.894
				c1.858-2.594,2.778-5.784,3.434-8.855c0.939-4.43,2.406-9.947-1.424-13.391C276.835,227.009,275.033,227.744,275.522,228.186
				L275.522,228.186z"/>
		</g>
	</g>
	<g>
		<path fill="#FDB71F" d="M276.422,227.814c3.873,2.776,2.137,9.304,1.358,13.148c-0.771,4.178-2.382,8.035-5.335,11.245
			c10.046,2.521,9.963-2.646,11.035-8.995c0.965-5.708,4.433-16.566-6.887-15.402"/>
		<g>
			<path fill="#FDB71F" d="M275.522,228.186c6.008,5.399,0.106,19.207-3.973,24.021c-0.224,0.266,0.063,0.455,0.299,0.508
				c2.813,0.627,7.092,1.492,9.512-0.785c2.59-2.438,2.623-6.255,3.212-9.551c1.319-7.376,2.544-15.74-7.595-15.087
				c-0.668,0.043-2.061,1.126-0.767,1.043c11.343-0.731,7.087,13.627,5.279,20.467c-0.972,3.673-9.261,5.187-6.181,0.894
				c1.858-2.594,2.778-5.784,3.434-8.855c0.939-4.43,2.406-9.947-1.424-13.391C276.835,227.009,275.033,227.744,275.522,228.186
				L275.522,228.186z"/>
		</g>
	</g>
	<g>
		<path fill="none" stroke="#FDB71F" d="M276.422,227.814c3.873,2.776,2.137,9.304,1.358,13.148
			c-0.771,4.178-2.382,8.035-5.335,11.245c10.046,2.521,9.963-2.646,11.035-8.995c0.965-5.708,4.433-16.566-6.887-15.402"/>
		<g>
			<path fill="none" stroke="#FDB71F" d="M275.522,228.186c6.008,5.399,0.106,19.207-3.973,24.021
				c-0.224,0.266,0.063,0.455,0.299,0.508c2.813,0.627,7.092,1.492,9.512-0.785c2.59-2.438,2.623-6.255,3.212-9.551
				c1.319-7.376,2.544-15.74-7.595-15.087c-0.668,0.043-2.061,1.126-0.767,1.043c11.343-0.731,7.087,13.627,5.279,20.467
				c-0.972,3.673-9.261,5.187-6.181,0.894c1.858-2.594,2.778-5.784,3.434-8.855c0.939-4.43,2.406-9.947-1.424-13.391
				C276.835,227.009,275.033,227.744,275.522,228.186L275.522,228.186z"/>
		</g>
	</g>
</g>
<g>
	<g>
		<path d="M228.884,252.346c-4.448-1.711-4.413-8.464-4.631-12.382c-0.305-4.237,0.279-8.376,2.328-12.228
			c-10.354,0.096-8.974,5.072-8.411,11.488c0.505,5.767-0.111,17.147,10.546,13.168"/>
		<g>
			<path d="M229.657,251.893c-7.208-3.646-4.778-18.738-2.111-24.283c0.146-0.303-0.42-0.397-0.581-0.394
				c-3.282,0.117-6.741,0.388-9.053,2.976c-2.154,2.412-0.866,7.248-0.649,10.041c0.271,3.481-0.012,8.069,2.209,11.022
				c2.375,3.16,5.982,2.703,9.366,1.591c1.121-0.369,0.902-1.281-0.241-0.904c-7.273,2.394-8.681-3.237-9.179-8.83
				c-0.328-3.695-1.29-8.192-0.299-11.799c0.683-2.479,6.288-3.006,5.799-1.987c-0.685,1.421-1.017,2.981-1.347,4.512
				c-0.592,2.737-0.322,5.604-0.184,8.368c0.203,4.077,0.732,8.572,4.725,10.594C228.645,253.066,230.428,252.282,229.657,251.893
				L229.657,251.893z"/>
		</g>
	</g>
	<g>
		<path fill="#FDB71F" d="M228.884,252.346c-4.448-1.711-4.413-8.464-4.631-12.382c-0.305-4.237,0.279-8.376,2.328-12.228
			c-10.354,0.096-8.974,5.072-8.411,11.488c0.505,5.767-0.111,17.147,10.546,13.168"/>
		<g>
			<path fill="#FDB71F" d="M229.657,251.893c-7.208-3.646-4.778-18.738-2.111-24.283c0.146-0.303-0.42-0.397-0.581-0.394
				c-3.282,0.117-6.741,0.388-9.053,2.976c-2.154,2.412-0.866,7.248-0.649,10.041c0.271,3.481-0.012,8.069,2.209,11.022
				c2.375,3.16,5.982,2.703,9.366,1.591c1.121-0.369,0.902-1.281-0.241-0.904c-7.273,2.394-8.681-3.237-9.179-8.83
				c-0.328-3.695-1.29-8.192-0.299-11.799c0.683-2.479,6.288-3.006,5.799-1.987c-0.685,1.421-1.017,2.981-1.347,4.512
				c-0.592,2.737-0.322,5.604-0.184,8.368c0.203,4.077,0.732,8.572,4.725,10.594C228.645,253.066,230.428,252.282,229.657,251.893
				L229.657,251.893z"/>
		</g>
	</g>
	<g>
		<path fill="none" stroke="#FDB71F" d="M228.884,252.346c-4.448-1.711-4.413-8.464-4.631-12.382
			c-0.305-4.237,0.279-8.376,2.328-12.228c-10.354,0.096-8.974,5.072-8.411,11.488c0.505,5.767-0.111,17.147,10.546,13.168"/>
		<g>
			<path fill="none" stroke="#FDB71F" d="M229.657,251.893c-7.208-3.646-4.778-18.738-2.111-24.283
				c0.146-0.303-0.42-0.397-0.581-0.394c-3.282,0.117-6.741,0.388-9.053,2.976c-2.154,2.412-0.866,7.248-0.649,10.041
				c0.271,3.481-0.012,8.069,2.209,11.022c2.375,3.16,5.982,2.703,9.366,1.591c1.121-0.369,0.902-1.281-0.241-0.904
				c-7.273,2.394-8.681-3.237-9.179-8.83c-0.328-3.695-1.29-8.192-0.299-11.799c0.683-2.479,6.288-3.006,5.799-1.987
				c-0.685,1.421-1.017,2.981-1.347,4.512c-0.592,2.737-0.322,5.604-0.184,8.368c0.203,4.077,0.732,8.572,4.725,10.594
				C228.645,253.066,230.428,252.282,229.657,251.893L229.657,251.893z"/>
		</g>
	</g>
</g>
<path stroke="#000000" stroke-width="3" d="M230.464,245.449c0.339,3.227-0.466,5.953-1.799,6.096l0,0
	c-1.331,0.137-2.685-2.363-3.022-5.593l-1.16-11.065c-0.34-3.227,0.467-5.953,1.799-6.093l0,0c1.333-0.142,2.686,2.363,3.023,5.59
	L230.464,245.449z"/>
<path fill="#FDB71F" stroke="#FDB71F" stroke-width="0.25" d="M218.425,242.402c0.12,1.138-0.43,2.127-1.229,2.209l0,0
	c-0.797,0.084-1.54-0.77-1.659-1.905l-0.408-3.896c-0.12-1.139,0.433-2.125,1.229-2.209l0,0c0.801-0.084,1.543,0.77,1.664,1.905
	L218.425,242.402z"/>
<path stroke="#000000" stroke-width="3" d="M273.559,233.896c0.541-3.199,1.885-5.642,3.002-5.451l0,0
	c1.117,0.188,1.584,2.936,1.043,6.134l-1.854,10.972c-0.541,3.2-1.886,5.641-3.002,5.45l0,0c-1.117-0.188-1.584-2.937-1.043-6.135
	L273.559,233.896z"/>
<path fill="none" stroke="#FDB71F" stroke-width="5" d="M210.588,239.861c0,0-5.13-20.834-30.796-20.861
	c-24.75-0.027-31.168,19.846-31.168,19.846"/>
<g>
	<g>
		<path d="M204.354,227.98c3.873,2.776,2.136,9.304,1.356,13.148c-0.771,4.178-2.381,8.035-5.334,11.245
			c10.045,2.521,9.962-2.646,11.035-8.995c0.965-5.708,4.433-16.566-6.888-15.402"/>
		<g>
			<path d="M203.454,228.352c6.007,5.399,0.107,19.207-3.973,24.021c-0.225,0.266,0.063,0.455,0.299,0.508
				c2.813,0.627,7.091,1.492,9.511-0.785c2.59-2.438,2.623-6.255,3.213-9.551c1.317-7.376,2.543-15.74-7.595-15.087
				c-0.669,0.043-2.061,1.126-0.766,1.043c11.34-0.731,7.086,13.627,5.277,20.467c-0.97,3.673-9.259,5.187-6.179,0.894
				c1.856-2.594,2.776-5.784,3.432-8.855c0.941-4.43,2.407-9.947-1.423-13.391C204.766,227.175,202.963,227.91,203.454,228.352
				L203.454,228.352z"/>
		</g>
	</g>
	<g>
		<path fill="#FDB71F" d="M204.354,227.98c3.873,2.776,2.136,9.304,1.356,13.148c-0.771,4.178-2.381,8.035-5.334,11.245
			c10.045,2.521,9.962-2.646,11.035-8.995c0.965-5.708,4.433-16.566-6.888-15.402"/>
		<g>
			<path fill="#FDB71F" d="M203.454,228.352c6.007,5.399,0.107,19.207-3.973,24.021c-0.225,0.266,0.063,0.455,0.299,0.508
				c2.813,0.627,7.091,1.492,9.511-0.785c2.59-2.438,2.623-6.255,3.213-9.551c1.317-7.376,2.543-15.74-7.595-15.087
				c-0.669,0.043-2.061,1.126-0.766,1.043c11.34-0.731,7.086,13.627,5.277,20.467c-0.97,3.673-9.259,5.187-6.179,0.894
				c1.856-2.594,2.776-5.784,3.432-8.855c0.941-4.43,2.407-9.947-1.423-13.391C204.766,227.175,202.963,227.91,203.454,228.352
				L203.454,228.352z"/>
		</g>
	</g>
	<g>
		<path fill="none" stroke="#FDB71F" d="M204.354,227.98c3.873,2.776,2.136,9.304,1.356,13.148
			c-0.771,4.178-2.381,8.035-5.334,11.245c10.045,2.521,9.962-2.646,11.035-8.995c0.965-5.708,4.433-16.566-6.888-15.402"/>
		<g>
			<path fill="none" stroke="#FDB71F" d="M203.454,228.352c6.007,5.399,0.107,19.207-3.973,24.021
				c-0.225,0.266,0.063,0.455,0.299,0.508c2.813,0.627,7.091,1.492,9.511-0.785c2.59-2.438,2.623-6.255,3.213-9.551
				c1.317-7.376,2.543-15.74-7.595-15.087c-0.669,0.043-2.061,1.126-0.766,1.043c11.34-0.731,7.086,13.627,5.277,20.467
				c-0.97,3.673-9.259,5.187-6.179,0.894c1.856-2.594,2.776-5.784,3.432-8.855c0.941-4.43,2.407-9.947-1.423-13.391
				C204.766,227.175,202.963,227.91,203.454,228.352L203.454,228.352z"/>
		</g>
	</g>
</g>
<g>
	<g>
		<path d="M156.815,252.512c-4.45-1.711-4.414-8.464-4.631-12.382c-0.308-4.237,0.278-8.376,2.328-12.228
			c-10.354,0.096-8.976,5.072-8.412,11.488c0.506,5.767-0.11,17.147,10.547,13.168"/>
		<g>
			<path d="M157.587,252.059c-7.209-3.646-4.776-18.738-2.11-24.283c0.146-0.303-0.42-0.397-0.58-0.394
				c-3.285,0.117-6.74,0.388-9.055,2.976c-2.154,2.412-0.865,7.248-0.648,10.041c0.271,3.481-0.012,8.069,2.207,11.022
				c2.375,3.16,5.984,2.703,9.367,1.591c1.121-0.369,0.902-1.281-0.242-0.904c-7.272,2.394-8.68-3.237-9.176-8.83
				c-0.33-3.695-1.291-8.192-0.302-11.799c0.683-2.479,6.289-3.006,5.8-1.987c-0.683,1.421-1.017,2.981-1.347,4.512
				c-0.591,2.735-0.321,5.604-0.185,8.368c0.205,4.077,0.733,8.572,4.726,10.594C156.575,253.232,158.358,252.448,157.587,252.059
				L157.587,252.059z"/>
		</g>
	</g>
	<g>
		<path fill="#FDB71F" d="M156.815,252.512c-4.45-1.711-4.414-8.464-4.631-12.382c-0.308-4.237,0.278-8.376,2.328-12.228
			c-10.354,0.096-8.976,5.072-8.412,11.488c0.506,5.767-0.11,17.147,10.547,13.168"/>
		<g>
			<path fill="#FDB71F" d="M157.587,252.059c-7.209-3.646-4.776-18.738-2.11-24.283c0.146-0.303-0.42-0.397-0.58-0.394
				c-3.285,0.117-6.74,0.388-9.055,2.976c-2.154,2.412-0.865,7.248-0.648,10.041c0.271,3.481-0.012,8.069,2.207,11.022
				c2.375,3.16,5.984,2.703,9.367,1.591c1.121-0.369,0.902-1.281-0.242-0.904c-7.272,2.394-8.68-3.237-9.176-8.83
				c-0.33-3.695-1.291-8.192-0.302-11.799c0.683-2.479,6.289-3.006,5.8-1.987c-0.683,1.421-1.017,2.981-1.347,4.512
				c-0.591,2.735-0.321,5.604-0.185,8.368c0.205,4.077,0.733,8.572,4.726,10.594C156.575,253.232,158.358,252.448,157.587,252.059
				L157.587,252.059z"/>
		</g>
	</g>
</g>
<path stroke="#000000" stroke-width="3" d="M158.395,245.615c0.338,3.227-0.465,5.953-1.799,6.096l0,0
	c-1.33,0.137-2.685-2.363-3.021-5.593l-1.16-11.065c-0.34-3.227,0.465-5.953,1.797-6.093l0,0c1.333-0.142,2.687,2.363,3.022,5.59
	L158.395,245.615z"/>
<path fill="#FDB71F" stroke="#FDB71F" stroke-width="0.25" d="M146.356,242.568c0.119,1.138-0.433,2.127-1.229,2.209l0,0
	c-0.798,0.084-1.542-0.77-1.661-1.905l-0.409-3.896c-0.12-1.139,0.431-2.125,1.229-2.209l0,0c0.799-0.084,1.543,0.77,1.662,1.905
	L146.356,242.568z"/>
<path stroke="#000000" stroke-width="3" d="M201.489,234.063c0.542-3.198,1.885-5.64,3.003-5.451l0,0
	c1.116,0.19,1.583,2.938,1.043,6.136l-1.856,10.972c-0.541,3.2-1.886,5.641-3.002,5.45l0,0c-1.117-0.188-1.584-2.938-1.043-6.135
	L201.489,234.063z"/>
<path fill="#FDB71F" stroke="#FDB71F" stroke-width="0.25" d="M214.792,243.502c-0.165,1.13-0.94,1.953-1.737,1.838l0,0
	c-0.793-0.115-1.304-1.126-1.139-2.257l0.564-3.877c0.166-1.13,0.941-1.953,1.735-1.836l0,0c0.796,0.114,1.306,1.126,1.142,2.257
	L214.792,243.502z"/>
<path fill="none" stroke="#FDB71F" stroke-width="5" d="M138.755,242.861c0,0-5.13-20.834-30.796-20.861
	c-24.75-0.027-31.167,19.846-31.167,19.846"/>
<g>
	<g>
		<path d="M132.521,230.98c3.873,2.776,2.136,9.304,1.359,13.148c-0.771,4.178-2.381,8.035-5.334,11.245
			c10.045,2.521,9.962-2.646,11.035-8.995c0.965-5.708,4.432-16.566-6.886-15.402"/>
		<g>
			<path d="M131.621,231.352c6.008,5.399,0.108,19.207-3.971,24.021c-0.224,0.266,0.061,0.455,0.298,0.508
				c2.813,0.627,7.09,1.492,9.51-0.785c2.591-2.438,2.624-6.255,3.213-9.551c1.319-7.376,2.543-15.74-7.594-15.087
				c-0.669,0.043-2.059,1.126-0.766,1.043c11.34-0.731,7.086,13.627,5.279,20.467c-0.97,3.673-9.259,5.187-6.179,0.894
				c1.859-2.594,2.779-5.784,3.432-8.855c0.941-4.43,2.407-9.947-1.423-13.391C132.934,230.175,131.13,230.91,131.621,231.352
				L131.621,231.352z"/>
		</g>
	</g>
	<g>
		<path fill="#FDB71F" d="M132.521,230.98c3.873,2.776,2.136,9.304,1.359,13.148c-0.771,4.178-2.381,8.035-5.334,11.245
			c10.045,2.521,9.962-2.646,11.035-8.995c0.965-5.708,4.432-16.566-6.886-15.402"/>
		<g>
			<path fill="#FDB71F" d="M131.621,231.352c6.008,5.399,0.108,19.207-3.971,24.021c-0.224,0.266,0.061,0.455,0.298,0.508
				c2.813,0.627,7.09,1.492,9.51-0.785c2.591-2.438,2.624-6.255,3.213-9.551c1.319-7.376,2.543-15.74-7.594-15.087
				c-0.669,0.043-2.059,1.126-0.766,1.043c11.34-0.731,7.086,13.627,5.279,20.467c-0.97,3.673-9.259,5.187-6.179,0.894
				c1.859-2.594,2.779-5.784,3.432-8.855c0.941-4.43,2.407-9.947-1.423-13.391C132.934,230.175,131.13,230.91,131.621,231.352
				L131.621,231.352z"/>
		</g>
	</g>
</g>
<g>
	<g>
		<path d="M84.981,255.512c-4.449-1.711-4.413-8.464-4.63-12.382c-0.305-4.237,0.28-8.376,2.329-12.228
			c-10.355,0.096-8.974,5.072-8.412,11.488c0.505,5.767-0.112,17.147,10.546,13.168"/>
		<g>
			<path d="M85.754,255.059c-7.208-3.646-4.778-18.74-2.111-24.283c0.145-0.303-0.42-0.397-0.581-0.394
				c-3.284,0.117-6.741,0.388-9.053,2.976c-2.155,2.412-0.866,7.248-0.649,10.041c0.271,3.481-0.012,8.069,2.208,11.022
				c2.375,3.16,5.984,2.703,9.367,1.591c1.121-0.369,0.902-1.281-0.242-0.904c-7.275,2.394-8.68-3.236-9.178-8.83
				c-0.329-3.695-1.291-8.192-0.3-11.799c0.682-2.479,6.289-3.006,5.799-1.987c-0.683,1.421-1.016,2.981-1.346,4.512
				c-0.591,2.737-0.323,5.604-0.184,8.368c0.205,4.076,0.734,8.572,4.724,10.594C84.742,256.232,86.524,255.448,85.754,255.059
				L85.754,255.059z"/>
		</g>
	</g>
	<g>
		<path fill="#FDB71F" d="M84.981,255.512c-4.449-1.711-4.413-8.464-4.63-12.382c-0.305-4.237,0.28-8.376,2.329-12.228
			c-10.355,0.096-8.974,5.072-8.412,11.488c0.505,5.767-0.112,17.147,10.546,13.168"/>
		<g>
			<path fill="#FDB71F" d="M85.754,255.059c-7.208-3.646-4.778-18.74-2.111-24.283c0.145-0.303-0.42-0.397-0.581-0.394
				c-3.284,0.117-6.741,0.388-9.053,2.976c-2.155,2.412-0.866,7.248-0.649,10.041c0.271,3.481-0.012,8.069,2.208,11.022
				c2.375,3.16,5.984,2.703,9.367,1.591c1.121-0.369,0.902-1.281-0.242-0.904c-7.275,2.394-8.68-3.236-9.178-8.83
				c-0.329-3.695-1.291-8.192-0.3-11.799c0.682-2.479,6.289-3.006,5.799-1.987c-0.683,1.421-1.016,2.981-1.346,4.512
				c-0.591,2.737-0.323,5.604-0.184,8.368c0.205,4.076,0.734,8.572,4.724,10.594C84.742,256.232,86.524,255.448,85.754,255.059
				L85.754,255.059z"/>
		</g>
	</g>
</g>
<path stroke="#000000" stroke-width="3" d="M86.562,248.615c0.337,3.227-0.466,5.953-1.798,6.096l0,0
	c-1.332,0.137-2.685-2.363-3.023-5.593l-1.16-11.065c-0.339-3.227,0.465-5.953,1.797-6.093l0,0c1.333-0.142,2.686,2.363,3.024,5.59
	L86.562,248.615z"/>
<path fill="#FDB71F" stroke="#FDB71F" stroke-width="0.25" d="M74.523,245.568c0.12,1.138-0.431,2.127-1.23,2.209l0,0
	c-0.798,0.084-1.542-0.77-1.661-1.905l-0.409-3.896c-0.12-1.139,0.431-2.125,1.229-2.209l0,0c0.799-0.084,1.543,0.77,1.663,1.905
	L74.523,245.568z"/>
<path stroke="#000000" stroke-width="3" d="M129.657,237.063c0.542-3.198,1.885-5.64,3.002-5.451l0,0
	c1.116,0.19,1.583,2.938,1.043,6.136l-1.857,10.972c-0.541,3.2-1.885,5.641-3.002,5.45l0,0c-1.117-0.188-1.583-2.938-1.043-6.135
	L129.657,237.063z"/>
<path fill="none" stroke="#FDB71F" stroke-width="5" d="M68.006,314.245c0,0-5.13-20.833-30.796-20.861
	c-24.75-0.026-31.167,19.845-31.167,19.845"/>
<g>
	<g>
		<path d="M61.771,302.365c3.873,2.775,2.136,9.303,1.359,13.148c-0.771,4.178-2.381,8.034-5.334,11.244
			c10.045,2.521,9.962-2.646,11.035-8.994c0.965-5.709,4.432-16.568-6.886-15.402"/>
		<g>
			<path d="M60.872,302.734c6.008,5.398,0.108,19.207-3.971,24.021c-0.224,0.265,0.061,0.455,0.298,0.509
				c2.813,0.627,7.09,1.491,9.51-0.787c2.591-2.438,2.624-6.254,3.213-9.55c1.319-7.376,2.543-15.741-7.594-15.087
				c-0.669,0.043-2.059,1.126-0.766,1.043c11.34-0.73,7.086,13.627,5.279,20.467c-0.97,3.672-9.259,5.188-6.179,0.894
				c1.859-2.593,2.779-5.784,3.432-8.854c0.941-4.431,2.407-9.947-1.423-13.392C62.185,301.559,60.381,302.294,60.872,302.734
				L60.872,302.734z"/>
		</g>
	</g>
	<g>
		<path fill="#FDB71F" d="M61.771,302.365c3.873,2.775,2.136,9.303,1.359,13.148c-0.771,4.178-2.381,8.034-5.334,11.244
			c10.045,2.521,9.962-2.646,11.035-8.994c0.965-5.709,4.432-16.568-6.886-15.402"/>
		<g>
			<path fill="#FDB71F" d="M60.872,302.734c6.008,5.398,0.108,19.207-3.971,24.021c-0.224,0.265,0.061,0.455,0.298,0.509
				c2.813,0.627,7.09,1.491,9.51-0.787c2.591-2.438,2.624-6.254,3.213-9.55c1.319-7.376,2.543-15.741-7.594-15.087
				c-0.669,0.043-2.059,1.126-0.766,1.043c11.34-0.73,7.086,13.627,5.279,20.467c-0.97,3.672-9.259,5.188-6.179,0.894
				c1.859-2.593,2.779-5.784,3.432-8.854c0.941-4.431,2.407-9.947-1.423-13.392C62.185,301.559,60.381,302.294,60.872,302.734
				L60.872,302.734z"/>
		</g>
	</g>
</g>
<g>
	<g>
		<path d="M14.232,326.895c-4.449-1.709-4.413-8.463-4.63-12.381c-0.305-4.236,0.28-8.375,2.329-12.227
			c-10.355,0.095-8.974,5.07-8.412,11.486c0.505,5.768-0.112,17.148,10.546,13.168"/>
		<g>
			<path d="M15.005,326.441c-7.208-3.647-4.778-18.739-2.111-24.283c0.145-0.303-0.42-0.398-0.581-0.395
				c-3.284,0.117-6.741,0.389-9.053,2.978c-2.155,2.411-0.866,7.247-0.649,10.041c0.271,3.479-0.012,8.067,2.208,11.021
				c2.375,3.16,5.984,2.703,9.367,1.59c1.121-0.367,0.902-1.279-0.242-0.902c-7.275,2.393-8.68-3.237-9.178-8.829
				c-0.329-3.697-1.291-8.194-0.3-11.8c0.682-2.479,6.289-3.006,5.799-1.988c-0.683,1.421-1.016,2.982-1.346,4.512
				c-0.591,2.737-0.323,5.604-0.184,8.368c0.205,4.077,0.734,8.574,4.724,10.594C13.993,327.616,15.775,326.832,15.005,326.441
				L15.005,326.441z"/>
		</g>
	</g>
	<g>
		<path fill="#FDB71F" d="M14.232,326.895c-4.449-1.709-4.413-8.463-4.63-12.381c-0.305-4.236,0.28-8.375,2.329-12.227
			c-10.355,0.095-8.974,5.07-8.412,11.486c0.505,5.768-0.112,17.148,10.546,13.168"/>
		<g>
			<path fill="#FDB71F" d="M15.005,326.441c-7.208-3.647-4.778-18.739-2.111-24.283c0.145-0.303-0.42-0.398-0.581-0.395
				c-3.284,0.117-6.741,0.389-9.053,2.978c-2.155,2.411-0.866,7.247-0.649,10.041c0.271,3.479-0.012,8.067,2.208,11.021
				c2.375,3.16,5.984,2.703,9.367,1.59c1.121-0.367,0.902-1.279-0.242-0.902c-7.275,2.393-8.68-3.237-9.178-8.829
				c-0.329-3.697-1.291-8.194-0.3-11.8c0.682-2.479,6.289-3.006,5.799-1.988c-0.683,1.421-1.016,2.982-1.346,4.512
				c-0.591,2.737-0.323,5.604-0.184,8.368c0.205,4.077,0.734,8.574,4.724,10.594C13.993,327.616,15.775,326.832,15.005,326.441
				L15.005,326.441z"/>
		</g>
	</g>
</g>
<path stroke="#000000" stroke-width="3" d="M15.813,319.999c0.337,3.228-0.466,5.954-1.798,6.097l0,0
	c-1.332,0.137-2.685-2.363-3.023-5.594l-1.16-11.064c-0.339-3.228,0.465-5.953,1.797-6.094l0,0c1.333-0.142,2.686,2.363,3.024,5.59
	L15.813,319.999z"/>
<path fill="#FDB71F" stroke="#FDB71F" stroke-width="0.25" d="M3.774,316.953c0.12,1.137-0.431,2.126-1.23,2.209l0,0
	c-0.798,0.084-1.542-0.77-1.661-1.906l-0.409-3.896c-0.12-1.137,0.431-2.125,1.229-2.207l0,0c0.799-0.086,1.543,0.769,1.663,1.904
	L3.774,316.953z"/>
<path stroke="#000000" stroke-width="3" d="M58.908,308.445c0.542-3.198,1.885-5.641,3.002-5.45l0,0
	c1.116,0.188,1.583,2.937,1.043,6.134l-1.857,10.973c-0.541,3.199-1.885,5.641-3.002,5.449l0,0
	c-1.117-0.188-1.583-2.937-1.043-6.135L58.908,308.445z"/>
<path fill="#FDB71F" stroke="#FDB71F" stroke-width="0.25" d="M72.21,317.886c-0.165,1.13-0.941,1.953-1.737,1.839l0,0
	c-0.794-0.115-1.304-1.127-1.139-2.258l0.565-3.877c0.165-1.13,0.942-1.953,1.736-1.836l0,0c0.795,0.115,1.305,1.126,1.14,2.257
	L72.21,317.886z"/>
<g>
	<g>
		<path d="M135.021,305.879c3.873,2.645,2.136,8.854,1.359,12.512c-0.771,3.977-2.381,7.646-5.334,10.7
			c10.045,2.397,9.962-2.519,11.035-8.559c0.965-5.433,4.432-15.767-6.886-14.657"/>
		<g>
			<path d="M134.121,306.249c5.987,5.12,0.039,18.335-3.971,22.837c-0.231,0.26,0.066,0.459,0.298,0.508
				c2.83,0.602,7.05,1.438,9.51-0.766c2.556-2.289,2.618-5.936,3.213-9.102c1.383-7.356,2.291-14.98-7.594-14.375
				c-0.67,0.041-2.06,1.123-0.766,1.045c6.404-0.396,8.067,3.27,7.325,8.906c-0.457,3.473-1.11,7.18-2.045,10.549
				c-0.977,3.519-9.23,4.891-6.179,0.842c1.84-2.44,2.777-5.5,3.432-8.434c0.951-4.258,2.369-9.51-1.423-12.753
				C135.421,305.083,133.627,305.827,134.121,306.249L134.121,306.249z"/>
		</g>
	</g>
	<g>
		<path fill="#FDB71F" d="M135.021,305.879c3.873,2.645,2.136,8.854,1.359,12.512c-0.771,3.977-2.381,7.646-5.334,10.7
			c10.045,2.397,9.962-2.519,11.035-8.559c0.965-5.433,4.432-15.767-6.886-14.657"/>
		<g>
			<path fill="#FDB71F" d="M134.121,306.249c5.987,5.12,0.039,18.335-3.971,22.837c-0.231,0.26,0.066,0.459,0.298,0.508
				c2.83,0.602,7.05,1.438,9.51-0.766c2.556-2.289,2.618-5.936,3.213-9.102c1.383-7.356,2.291-14.98-7.594-14.375
				c-0.67,0.041-2.06,1.123-0.766,1.045c6.404-0.396,8.067,3.27,7.325,8.906c-0.457,3.473-1.11,7.18-2.045,10.549
				c-0.977,3.519-9.23,4.891-6.179,0.842c1.84-2.44,2.777-5.5,3.432-8.434c0.951-4.258,2.369-9.51-1.423-12.753
				C135.421,305.083,133.627,305.827,134.121,306.249L134.121,306.249z"/>
		</g>
	</g>
</g>
<g>
	<g>
		<path d="M87.481,329.219c-4.449-1.627-4.413-8.052-4.63-11.779c-0.305-4.031,0.28-7.971,2.329-11.635
			c-10.355,0.09-8.974,4.825-8.412,10.932c0.505,5.486-0.112,16.316,10.546,12.529"/>
		<g>
			<path d="M88.254,328.768c-7.091-3.416-4.813-17.744-2.111-23.092c0.152-0.301-0.426-0.396-0.581-0.393
				c-2.758,0.09-6.972,0.171-8.875,2.645c-2.118,2.756-1.09,6.572-0.83,9.749c0.303,3.687,0.228,7.589,2.386,10.765
				c2.041,3.004,6.32,2.182,9.191,1.275c1.129-0.354,0.905-1.266-0.242-0.904c-6.607,2.08-8.514-2.244-9.118-7.736
				c-0.396-3.59-1.276-8.057-0.456-11.58c0.504-2.167,2.745-2.721,4.654-3.021c2.395-0.377,0.421,3.063,0.226,3.689
				c-0.848,2.719-0.714,5.641-0.565,8.439c0.224,4.229,0.512,9.016,4.775,11.067C87.247,329.93,89.025,329.139,88.254,328.768
				L88.254,328.768z"/>
		</g>
	</g>
	<g>
		<path fill="#FDB71F" d="M87.481,329.219c-4.449-1.627-4.413-8.052-4.63-11.779c-0.305-4.031,0.28-7.971,2.329-11.635
			c-10.355,0.09-8.974,4.825-8.412,10.932c0.505,5.486-0.112,16.316,10.546,12.529"/>
		<g>
			<path fill="#FDB71F" d="M88.254,328.768c-7.091-3.416-4.813-17.744-2.111-23.092c0.152-0.301-0.426-0.396-0.581-0.393
				c-2.758,0.09-6.972,0.171-8.875,2.645c-2.118,2.756-1.09,6.572-0.83,9.749c0.303,3.687,0.228,7.589,2.386,10.765
				c2.041,3.004,6.32,2.182,9.191,1.275c1.129-0.354,0.905-1.266-0.242-0.904c-6.607,2.08-8.514-2.244-9.118-7.736
				c-0.396-3.59-1.276-8.057-0.456-11.58c0.504-2.167,2.745-2.721,4.654-3.021c2.395-0.377,0.421,3.063,0.226,3.689
				c-0.848,2.719-0.714,5.641-0.565,8.439c0.224,4.229,0.512,9.016,4.775,11.067C87.247,329.93,89.025,329.139,88.254,328.768
				L88.254,328.768z"/>
		</g>
	</g>
</g>
<path stroke="#000000" stroke-width="3" d="M89.062,322.658c0.337,3.068-0.466,5.665-1.798,5.8l0,0
	c-1.332,0.13-2.685-2.25-3.023-5.321l-1.16-10.527c-0.339-3.07,0.465-5.664,1.797-5.799l0,0c1.333-0.135,2.686,2.248,3.024,5.318
	L89.062,322.658z"/>
<path fill="#FDB71F" stroke="#FDB71F" stroke-width="0.25" d="M77.023,319.76c0.12,1.081-0.431,2.022-1.23,2.104l0,0
	c-0.798,0.08-1.542-0.731-1.661-1.813l-0.409-3.707c-0.12-1.081,0.431-2.021,1.229-2.101l0,0c0.799-0.081,1.543,0.73,1.663,1.813
	L77.023,319.76z"/>
<path stroke="#000000" stroke-width="3" d="M132.157,311.665c0.542-3.044,1.885-5.366,3.002-5.188l0,0
	c1.116,0.183,1.583,2.795,1.043,5.838l-1.857,10.438c-0.541,3.045-1.885,5.366-3.002,5.187l0,0
	c-1.117-0.181-1.583-2.793-1.043-5.838L132.157,311.665z"/>
<path fill="#FDB71F" stroke="#FDB71F" stroke-width="0.25" d="M145.459,320.646c-0.165,1.074-0.941,1.857-1.736,1.748l0,0
	c-0.792-0.109-1.305-1.07-1.14-2.146l0.565-3.688c0.165-1.074,0.942-1.857,1.736-1.748l0,0c0.796,0.109,1.306,1.071,1.14,2.147
	L145.459,320.646z"/>
<path fill="none" stroke="#FDB71F" stroke-width="5" d="M209.743,327.561c0,0-4.967-16.677-29.813-16.697
	c-23.961-0.021-30.173,15.886-30.173,15.886"/>
<g>
	<g>
		<path d="M203.707,318.05c3.749,2.226,2.067,7.446,1.315,10.526c-0.748,3.343-2.307,6.433-5.164,9.001
			c9.724,2.019,9.644-2.118,10.683-7.2c0.935-4.568,4.291-13.264-6.666-12.33"/>
		<g>
			<path d="M202.807,318.42c5.687,4.155-0.035,15.462-3.718,19.021c-0.28,0.271-0.243,0.563,0.171,0.64
				c2.83,0.53,6.562,1.188,9.127-0.623c2.5-1.765,2.637-4.978,3.229-7.733c0.614-2.853,1.569-5.762,0.819-8.682
				c-0.9-3.507-5.295-3.678-8.181-3.518c-0.672,0.037-2.063,1.115-0.766,1.043c5.75-0.32,7.929,2.386,7.009,7.793
				c-0.5,2.938-1.021,6.301-2.141,9.063c-0.639,1.584-1.951,2.072-3.723,2.152c0.094-0.004-3.902,0.163-2.979-0.87
				c1.92-2.151,3.178-4.416,4.047-7.155c1.209-3.81,2.676-9.109-1.102-11.871C204.074,317.291,202.313,318.061,202.807,318.42
				L202.807,318.42z"/>
		</g>
	</g>
	<g>
		<path fill="#FDB71F" d="M203.707,318.05c3.749,2.226,2.067,7.446,1.315,10.526c-0.748,3.343-2.307,6.433-5.164,9.001
			c9.724,2.019,9.644-2.118,10.683-7.2c0.935-4.568,4.291-13.264-6.666-12.33"/>
		<g>
			<path fill="#FDB71F" d="M202.807,318.42c5.687,4.155-0.035,15.462-3.718,19.021c-0.28,0.271-0.243,0.563,0.171,0.64
				c2.83,0.53,6.562,1.188,9.127-0.623c2.5-1.765,2.637-4.978,3.229-7.733c0.614-2.853,1.569-5.762,0.819-8.682
				c-0.9-3.507-5.295-3.678-8.181-3.518c-0.672,0.037-2.063,1.115-0.766,1.043c5.75-0.32,7.929,2.386,7.009,7.793
				c-0.5,2.938-1.021,6.301-2.141,9.063c-0.639,1.584-1.951,2.072-3.723,2.152c0.094-0.004-3.902,0.163-2.979-0.87
				c1.92-2.151,3.178-4.416,4.047-7.155c1.209-3.81,2.676-9.109-1.102-11.871C204.074,317.291,202.313,318.061,202.807,318.42
				L202.807,318.42z"/>
		</g>
	</g>
</g>
<g>
	<g>
		<path d="M157.686,337.686c-4.308-1.367-4.271-6.771-4.48-9.908c-0.296-3.395,0.271-6.704,2.254-9.787
			c-10.023,0.076-8.688,4.059-8.145,9.193c0.488,4.615-0.107,13.729,10.209,10.541"/>
		<g>
			<path d="M158.459,337.232c-6.477-2.662-4.779-14.644-2.105-19.239c0.22-0.375-0.184-0.535-0.513-0.526
				c-2.69,0.071-6.761,0.076-8.709,2.383c-1.907,2.262-0.985,5.457-0.731,8.123c0.298,3.125,0.266,6.411,2.238,9.028
				c2.06,2.729,6.236,1.94,9.006,1.176c1.149-0.315,0.91-1.223-0.242-0.903c-5.975,1.648-8.219-1.477-8.822-6.789
				c-0.331-2.896-1.2-6.637-0.393-9.459c0.451-1.575,2.258-2.032,3.635-2.289c1.984-0.368,2.164,0.185,1.441,1.734
				c-1.203,2.586-1.149,5.5-0.98,8.271c0.23,3.813,0.695,7.778,4.633,9.397C157.464,338.363,159.231,337.551,158.459,337.232
				L158.459,337.232z"/>
		</g>
	</g>
	<g>
		<path fill="#FDB71F" d="M157.686,337.686c-4.308-1.367-4.271-6.771-4.48-9.908c-0.296-3.395,0.271-6.704,2.254-9.787
			c-10.023,0.076-8.688,4.059-8.145,9.193c0.488,4.615-0.107,13.729,10.209,10.541"/>
		<g>
			<path fill="#FDB71F" d="M158.459,337.232c-6.477-2.662-4.779-14.644-2.105-19.239c0.22-0.375-0.184-0.535-0.513-0.526
				c-2.69,0.071-6.761,0.076-8.709,2.383c-1.907,2.262-0.985,5.457-0.731,8.123c0.298,3.125,0.266,6.411,2.238,9.028
				c2.06,2.729,6.236,1.94,9.006,1.176c1.149-0.315,0.91-1.223-0.242-0.903c-5.975,1.648-8.219-1.477-8.822-6.789
				c-0.331-2.896-1.2-6.637-0.393-9.459c0.451-1.575,2.258-2.032,3.635-2.289c1.984-0.368,2.164,0.185,1.441,1.734
				c-1.203,2.586-1.149,5.5-0.98,8.271c0.23,3.813,0.695,7.778,4.633,9.397C157.464,338.363,159.231,337.551,158.459,337.232
				L158.459,337.232z"/>
		</g>
	</g>
</g>
<path stroke="#000000" stroke-width="3" d="M159.217,332.166c0.326,2.583-0.451,4.766-1.742,4.88l0,0
	c-1.287,0.108-2.599-1.894-2.927-4.479l-1.123-8.855c-0.327-2.582,0.451-4.766,1.74-4.877l0,0c1.291-0.114,2.601,1.891,2.928,4.475
	L159.217,332.166z"/>
<path fill="#FDB71F" stroke="#FDB71F" stroke-width="0.25" d="M147.561,329.727c0.117,0.912-0.416,1.703-1.188,1.771l0,0
	c-0.771,0.064-1.492-0.615-1.606-1.525l-0.396-3.121c-0.116-0.906,0.418-1.699,1.188-1.767l0,0c0.774-0.067,1.494,0.615,1.61,1.526
	L147.561,329.727z"/>
<path stroke="#000000" stroke-width="3" d="M200.934,322.918c0.524-2.561,1.824-4.516,2.906-4.361l0,0
	c1.081,0.15,1.533,2.351,1.01,4.907l-1.797,8.782c-0.522,2.563-1.826,4.516-2.906,4.363l0,0c-1.08-0.15-1.531-2.352-1.01-4.911
	L200.934,322.918z"/>
<path fill="#FDB71F" stroke="#FDB71F" stroke-width="0.25" d="M213.811,330.475c-0.158,0.903-0.91,1.563-1.682,1.474l0,0
	c-0.768-0.095-1.262-0.901-1.104-1.808l0.549-3.104c0.16-0.904,0.912-1.563,1.682-1.472l0,0c0.77,0.093,1.262,0.9,1.104,1.808
	L213.811,330.475z"/>
<path fill="none" stroke="#FDB71F" stroke-width="5" d="M279.61,327.684c0,0-4.754-12.637-28.527-12.652
	c-22.927-0.018-28.869,12.037-28.869,12.037"/>
<g>
	<g>
		<path d="M273.833,320.477c3.588,1.687,1.979,5.646,1.259,7.979c-0.716,2.532-2.206,4.873-4.94,6.819
			c9.305,1.527,9.229-1.605,10.223-5.455c0.895-3.463,4.104-10.053-6.38-9.346"/>
		<g>
			<path d="M273.061,320.93c5.328,3.038-0.604,11.872-3.68,14.209c-0.318,0.241-0.213,0.582,0.172,0.641
				c2.984,0.449,6.381,0.908,9.104-0.721c1.972-1.178,2.227-3.697,2.768-5.701c0.589-2.178,1.585-4.504,0.771-6.752
				c-1.048-2.895-5.412-2.768-7.821-2.65c-0.674,0.031-2.063,1.104-0.766,1.043c2.395-0.115,5.798-0.242,6.781,2.479
				c0.527,1.459-0.047,3.241-0.455,4.662c-0.412,1.432-0.746,2.889-1.174,4.313c-1.066,3.562-5.101,2.762-8.016,2.321
				c0.059,0.213,0.113,0.427,0.171,0.64c3.688-2.804,9.625-12,3.688-15.388C274.087,319.729,272.297,320.493,273.061,320.93
				L273.061,320.93z"/>
		</g>
	</g>
	<g>
		<path fill="#FDB71F" d="M273.833,320.477c3.588,1.687,1.979,5.646,1.259,7.979c-0.716,2.532-2.206,4.873-4.94,6.819
			c9.305,1.527,9.229-1.605,10.223-5.455c0.895-3.463,4.104-10.053-6.38-9.346"/>
		<g>
			<path fill="#FDB71F" d="M273.061,320.93c5.328,3.038-0.604,11.872-3.68,14.209c-0.318,0.241-0.213,0.582,0.172,0.641
				c2.984,0.449,6.381,0.908,9.104-0.721c1.972-1.178,2.227-3.697,2.768-5.701c0.589-2.178,1.585-4.504,0.771-6.752
				c-1.048-2.895-5.412-2.768-7.821-2.65c-0.674,0.031-2.063,1.104-0.766,1.043c2.395-0.115,5.798-0.242,6.781,2.479
				c0.527,1.459-0.047,3.241-0.455,4.662c-0.412,1.432-0.746,2.889-1.174,4.313c-1.066,3.562-5.101,2.762-8.016,2.321
				c0.059,0.213,0.113,0.427,0.171,0.64c3.688-2.804,9.625-12,3.688-15.388C274.087,319.729,272.297,320.493,273.061,320.93
				L273.061,320.93z"/>
		</g>
	</g>
</g>
<g>
	<g>
		<path d="M229.799,335.355c-4.121-1.037-4.088-5.133-4.291-7.512c-0.281-2.568,0.26-5.078,2.158-7.414
			c-9.592,0.057-8.313,3.074-7.791,6.967c0.467,3.498-0.105,10.402,9.77,7.987"/>
		<g>
			<path d="M230.571,334.904c-5.676-1.818-4.831-10.672-2.01-14.471c0.271-0.363-0.229-0.529-0.514-0.524
				c-2.783,0.052-6.499,0.006-8.628,2.149c-1.521,1.532-0.692,4.092-0.47,5.944c0.293,2.414,0.318,4.901,2.033,6.812
				c2.111,2.349,6.121,1.612,8.779,1.021c1.174-0.261,0.912-1.161-0.242-0.904c-2.619,0.582-5.512,0.858-7.275-1.517
				c-0.973-1.308-1.102-3.224-1.252-4.781c-0.145-1.472-0.438-2.934-0.514-4.409c-0.18-3.466,4.429-3.229,6.803-3.272
				c-0.172-0.177-0.344-0.353-0.514-0.526c-3.108,4.186-3.881,13.417,2.256,15.383C229.587,335.988,231.335,335.148,230.571,334.904
				L230.571,334.904z"/>
		</g>
	</g>
	<g>
		<path fill="#FDB71F" d="M229.799,335.355c-4.121-1.037-4.088-5.133-4.291-7.512c-0.281-2.568,0.26-5.078,2.158-7.414
			c-9.592,0.057-8.313,3.074-7.791,6.967c0.467,3.498-0.105,10.402,9.77,7.987"/>
		<g>
			<path fill="#FDB71F" d="M230.571,334.904c-5.676-1.818-4.831-10.672-2.01-14.471c0.271-0.363-0.229-0.529-0.514-0.524
				c-2.783,0.052-6.499,0.006-8.628,2.149c-1.521,1.532-0.692,4.092-0.47,5.944c0.293,2.414,0.318,4.901,2.033,6.812
				c2.111,2.349,6.121,1.612,8.779,1.021c1.174-0.261,0.912-1.161-0.242-0.904c-2.619,0.582-5.512,0.858-7.275-1.517
				c-0.973-1.308-1.102-3.224-1.252-4.781c-0.145-1.472-0.438-2.934-0.514-4.409c-0.18-3.466,4.429-3.229,6.803-3.272
				c-0.172-0.177-0.344-0.353-0.514-0.526c-3.108,4.186-3.881,13.417,2.256,15.383C229.587,335.988,231.335,335.148,230.571,334.904
				L230.571,334.904z"/>
		</g>
	</g>
</g>
<path stroke="#000000" stroke-width="3" d="M231.262,331.173c0.313,1.958-0.431,3.612-1.666,3.698l0,0
	c-1.234,0.082-2.484-1.436-2.802-3.395l-1.073-6.711c-0.313-1.957,0.432-3.611,1.664-3.695l0,0c1.236-0.086,2.489,1.434,2.803,3.391
	L231.262,331.173z"/>
<path fill="#FDB71F" stroke="#FDB71F" stroke-width="0.25" d="M220.11,329.324c0.113,0.689-0.397,1.291-1.139,1.342l0,0
	c-0.738,0.051-1.431-0.466-1.539-1.157l-0.377-2.362c-0.113-0.688,0.398-1.287,1.137-1.34l0,0c0.74-0.051,1.43,0.469,1.539,1.156
	L220.11,329.324z"/>
<path stroke="#000000" stroke-width="3" d="M271.18,324.166c0.502-1.939,1.746-3.421,2.779-3.307l0,0
	c1.035,0.113,1.468,1.779,0.968,3.72l-1.721,6.655c-0.5,1.939-1.746,3.422-2.78,3.307l0,0c-1.033-0.114-1.467-1.78-0.967-3.723
	L271.18,324.166z"/>
<path fill="#FDB71F" stroke="#FDB71F" stroke-width="0.25" d="M283.502,329.891c-0.152,0.688-0.873,1.188-1.607,1.115l0,0
	c-0.734-0.07-1.209-0.684-1.057-1.367l0.525-2.353c0.15-0.687,0.869-1.187,1.607-1.114l0,0c0.733,0.07,1.204,0.684,1.055,1.369
	L283.502,329.891z"/>
<path fill="none" stroke="#FDB71F" stroke-width="5" d="M63.082,403.829c0,0-4.692-13.948-28.171-13.968
	C12.27,389.841,6.4,403.148,6.4,403.148"/>
<g>
	<g>
		<path d="M57.377,395.874c3.542,1.86,1.954,6.229,1.242,8.806c-0.706,2.797-2.177,5.381-4.879,7.528
			c9.188,1.688,9.113-1.771,10.094-6.022c0.883-3.819,4.054-11.094-6.299-10.313"/>
		<g>
			<path d="M56.604,396.326c5.248,3.396-0.46,13.031-3.632,15.744c-0.301,0.258-0.228,0.572,0.171,0.641
				c2.943,0.493,6.326,0.973,8.979-0.747c2.059-1.333,2.249-4.144,2.771-6.301c0.587-2.423,1.566-4.981,0.735-7.464
				c-1.003-2.997-5.209-2.979-7.71-2.85c-0.673,0.034-2.062,1.109-0.766,1.043c4.438-0.23,7.43,1.131,6.704,5.86
				c-0.39,2.54-1.045,5.503-1.997,7.886c-0.468,1.174-1.444,1.738-2.664,1.932c-0.523,0.084-3.996-0.316-3.831-0.457
				c1.894-1.62,3.125-3.827,3.954-6.141c1.23-3.436,2.396-7.746-1.168-10.053C57.651,395.1,55.855,395.841,56.604,396.326
				L56.604,396.326z"/>
		</g>
	</g>
	<g>
		<path fill="#FDB71F" d="M57.377,395.874c3.542,1.86,1.954,6.229,1.242,8.806c-0.706,2.797-2.177,5.381-4.879,7.528
			c9.188,1.688,9.113-1.771,10.094-6.022c0.883-3.819,4.054-11.094-6.299-10.313"/>
		<g>
			<path fill="#FDB71F" d="M56.604,396.326c5.248,3.396-0.46,13.031-3.632,15.744c-0.301,0.258-0.228,0.572,0.171,0.641
				c2.943,0.493,6.326,0.973,8.979-0.747c2.059-1.333,2.249-4.144,2.771-6.301c0.587-2.423,1.566-4.981,0.735-7.464
				c-1.003-2.997-5.209-2.979-7.71-2.85c-0.673,0.034-2.062,1.109-0.766,1.043c4.438-0.23,7.43,1.131,6.704,5.86
				c-0.39,2.54-1.045,5.503-1.997,7.886c-0.468,1.174-1.444,1.738-2.664,1.932c-0.523,0.084-3.996-0.316-3.831-0.457
				c1.894-1.62,3.125-3.827,3.954-6.141c1.23-3.436,2.396-7.746-1.168-10.053C57.651,395.1,55.855,395.841,56.604,396.326
				L56.604,396.326z"/>
		</g>
	</g>
</g>
<g>
	<g>
		<path d="M13.892,412.299c-4.07-1.145-4.037-5.666-4.236-8.29c-0.279-2.838,0.255-5.606,2.129-8.186
			c-9.473,0.063-8.208,3.395-7.694,7.69c0.461,3.859-0.103,11.481,9.647,8.816"/>
		<g>
			<path d="M14.665,411.848c-5.849-2.129-4.609-12.022-1.984-16.02c0.244-0.371-0.205-0.533-0.512-0.526
				c-2.596,0.058-6.417,0.019-8.357,2.132c-1.698,1.852-0.881,4.522-0.641,6.752c0.285,2.641,0.286,5.389,2.061,7.537
				c2.023,2.448,6.003,1.709,8.629,1.063c1.164-0.286,0.913-1.189-0.242-0.904c-5.886,1.45-7.932-1.609-8.398-6.849
				c-0.142-1.599-0.4-3.185-0.509-4.781c-0.256-3.774,3.825-3.843,6.692-3.905c-0.171-0.176-0.342-0.351-0.512-0.525
				c-2.936,4.468-4.105,14.629,2.229,16.934C13.675,412.953,15.434,412.127,14.665,411.848L14.665,411.848z"/>
		</g>
	</g>
	<g>
		<path fill="#FDB71F" d="M13.892,412.299c-4.07-1.145-4.037-5.666-4.236-8.29c-0.279-2.838,0.255-5.606,2.129-8.186
			c-9.473,0.063-8.208,3.395-7.694,7.69c0.461,3.859-0.103,11.481,9.647,8.816"/>
		<g>
			<path fill="#FDB71F" d="M14.665,411.848c-5.849-2.129-4.609-12.022-1.984-16.02c0.244-0.371-0.205-0.533-0.512-0.526
				c-2.596,0.058-6.417,0.019-8.357,2.132c-1.698,1.852-0.881,4.522-0.641,6.752c0.285,2.641,0.286,5.389,2.061,7.537
				c2.023,2.448,6.003,1.709,8.629,1.063c1.164-0.286,0.913-1.189-0.242-0.904c-5.886,1.45-7.932-1.609-8.398-6.849
				c-0.142-1.599-0.4-3.185-0.509-4.781c-0.256-3.774,3.825-3.843,6.692-3.905c-0.171-0.176-0.342-0.351-0.512-0.525
				c-2.936,4.468-4.105,14.629,2.229,16.934C13.675,412.953,15.434,412.127,14.665,411.848L14.665,411.848z"/>
		</g>
	</g>
</g>
<path stroke="#000000" stroke-width="3" d="M15.337,407.684c0.309,2.158-0.426,3.984-1.646,4.08l0,0
	c-1.218,0.092-2.456-1.584-2.766-3.744l-1.061-7.408c-0.31-2.159,0.426-3.985,1.645-4.079l0,0c1.219-0.097,2.457,1.582,2.767,3.741
	L15.337,407.684z"/>
<path fill="#FDB71F" stroke="#FDB71F" stroke-width="0.25" d="M4.325,405.643c0.11,0.762-0.393,1.424-1.125,1.479l0,0
	c-0.73,0.056-1.411-0.515-1.52-1.276l-0.374-2.607c-0.11-0.762,0.395-1.424,1.124-1.479l0,0c0.731-0.058,1.411,0.515,1.521,1.276
	L4.325,405.643z"/>
<path stroke="#000000" stroke-width="3" d="M54.757,399.945c0.496-2.143,1.725-3.775,2.748-3.648l0,0
	c1.021,0.127,1.448,1.967,0.954,4.105l-1.698,7.347c-0.495,2.144-1.726,3.776-2.746,3.649l0,0c-1.022-0.125-1.45-1.967-0.954-4.107
	L54.757,399.945z"/>
<path fill="#FDB71F" stroke="#FDB71F" stroke-width="0.25" d="M66.928,406.268c-0.151,0.758-0.861,1.31-1.589,1.23l0,0
	c-0.725-0.078-1.192-0.754-1.042-1.512l0.517-2.598c0.151-0.756,0.862-1.309,1.588-1.229l0,0c0.728,0.076,1.193,0.754,1.042,1.511
	L66.928,406.268z"/>
<path fill="none" stroke="#FDB71F" stroke-width="5" d="M135.082,409.497c0,0-4.691-13.948-28.17-13.968
	c-22.641-0.021-28.51,13.287-28.51,13.287"/>
<g>
	<g>
		<path d="M129.378,401.542c3.543,1.86,1.953,6.229,1.242,8.806c-0.705,2.797-2.178,5.381-4.879,7.528
			c9.188,1.688,9.113-1.771,10.094-6.022c0.883-3.819,4.055-11.094-6.299-10.313"/>
		<g>
			<path d="M128.605,401.994c5.247,3.396-0.461,13.031-3.633,15.744c-0.301,0.258-0.228,0.572,0.171,0.641
				c2.943,0.493,6.327,0.973,8.979-0.747c2.06-1.333,2.248-4.144,2.771-6.301c0.588-2.423,1.566-4.981,0.735-7.464
				c-1.003-2.997-5.209-2.979-7.71-2.85c-0.673,0.034-2.063,1.109-0.766,1.043c4.438-0.23,7.431,1.131,6.703,5.86
				c-0.39,2.54-1.045,5.503-1.996,7.886c-0.468,1.174-1.444,1.738-2.664,1.932c-0.522,0.084-3.995-0.316-3.831-0.457
				c1.894-1.62,3.126-3.827,3.954-6.141c1.23-3.436,2.396-7.746-1.169-10.053C129.651,400.768,127.856,401.509,128.605,401.994
				L128.605,401.994z"/>
		</g>
	</g>
	<g>
		<path fill="#FDB71F" d="M129.378,401.542c3.543,1.86,1.953,6.229,1.242,8.806c-0.705,2.797-2.178,5.381-4.879,7.528
			c9.188,1.688,9.113-1.771,10.094-6.022c0.883-3.819,4.055-11.094-6.299-10.313"/>
		<g>
			<path fill="#FDB71F" d="M128.605,401.994c5.247,3.396-0.461,13.031-3.633,15.744c-0.301,0.258-0.228,0.572,0.171,0.641
				c2.943,0.493,6.327,0.973,8.979-0.747c2.06-1.333,2.248-4.144,2.771-6.301c0.588-2.423,1.566-4.981,0.735-7.464
				c-1.003-2.997-5.209-2.979-7.71-2.85c-0.673,0.034-2.063,1.109-0.766,1.043c4.438-0.23,7.431,1.131,6.703,5.86
				c-0.39,2.54-1.045,5.503-1.996,7.886c-0.468,1.174-1.444,1.738-2.664,1.932c-0.522,0.084-3.995-0.316-3.831-0.457
				c1.894-1.62,3.126-3.827,3.954-6.141c1.23-3.436,2.396-7.746-1.169-10.053C129.651,400.768,127.856,401.509,128.605,401.994
				L128.605,401.994z"/>
		</g>
	</g>
</g>
<g>
	<g>
		<path d="M85.893,417.967c-4.07-1.145-4.037-5.666-4.236-8.29c-0.279-2.838,0.255-5.606,2.129-8.186
			c-9.473,0.063-8.208,3.395-7.694,7.69c0.461,3.859-0.103,11.481,9.647,8.816"/>
		<g>
			<path d="M86.666,417.516c-5.849-2.129-4.609-12.022-1.984-16.02c0.244-0.371-0.205-0.533-0.512-0.525
				c-2.596,0.057-6.417,0.018-8.357,2.131c-1.698,1.852-0.881,4.522-0.641,6.752c0.285,2.641,0.286,5.389,2.061,7.537
				c2.023,2.448,6.003,1.709,8.629,1.063c1.164-0.286,0.913-1.189-0.242-0.904c-5.886,1.45-7.932-1.609-8.398-6.849
				c-0.142-1.597-0.4-3.185-0.509-4.781c-0.256-3.774,3.825-3.843,6.692-3.905c-0.171-0.176-0.342-0.351-0.512-0.524
				c-2.936,4.467-4.105,14.628,2.229,16.933C85.675,418.621,87.435,417.795,86.666,417.516L86.666,417.516z"/>
		</g>
	</g>
	<g>
		<path fill="#FDB71F" d="M85.893,417.967c-4.07-1.145-4.037-5.666-4.236-8.29c-0.279-2.838,0.255-5.606,2.129-8.186
			c-9.473,0.063-8.208,3.395-7.694,7.69c0.461,3.859-0.103,11.481,9.647,8.816"/>
		<g>
			<path fill="#FDB71F" d="M86.666,417.516c-5.849-2.129-4.609-12.022-1.984-16.02c0.244-0.371-0.205-0.533-0.512-0.525
				c-2.596,0.057-6.417,0.018-8.357,2.131c-1.698,1.852-0.881,4.522-0.641,6.752c0.285,2.641,0.286,5.389,2.061,7.537
				c2.023,2.448,6.003,1.709,8.629,1.063c1.164-0.286,0.913-1.189-0.242-0.904c-5.886,1.45-7.932-1.609-8.398-6.849
				c-0.142-1.597-0.4-3.185-0.509-4.781c-0.256-3.774,3.825-3.843,6.692-3.905c-0.171-0.176-0.342-0.351-0.512-0.524
				c-2.936,4.467-4.105,14.628,2.229,16.933C85.675,418.621,87.435,417.795,86.666,417.516L86.666,417.516z"/>
		</g>
	</g>
</g>
<path stroke="#000000" stroke-width="3" d="M87.337,413.352c0.309,2.158-0.426,3.984-1.646,4.08l0,0
	c-1.218,0.092-2.456-1.584-2.766-3.744l-1.061-7.408c-0.31-2.159,0.426-3.985,1.645-4.079l0,0c1.219-0.097,2.457,1.582,2.767,3.741
	L87.337,413.352z"/>
<path fill="#FDB71F" stroke="#FDB71F" stroke-width="0.25" d="M76.325,411.311c0.11,0.763-0.393,1.424-1.125,1.479l0,0
	c-0.73,0.056-1.411-0.515-1.52-1.276l-0.374-2.607c-0.11-0.762,0.395-1.424,1.124-1.479l0,0c0.731-0.058,1.411,0.515,1.521,1.276
	L76.325,411.311z"/>
<path stroke="#000000" stroke-width="3" d="M126.757,405.614c0.496-2.144,1.725-3.776,2.748-3.649l0,0
	c1.021,0.127,1.447,1.967,0.953,4.105l-1.697,7.347c-0.495,2.144-1.726,3.776-2.746,3.649l0,0c-1.022-0.125-1.45-1.967-0.954-4.107
	L126.757,405.614z"/>
<path fill="#FDB71F" stroke="#FDB71F" stroke-width="0.25" d="M138.928,411.936c-0.15,0.758-0.86,1.31-1.589,1.23l0,0
	c-0.726-0.078-1.192-0.754-1.042-1.512l0.518-2.598c0.151-0.756,0.862-1.309,1.588-1.229l0,0c0.729,0.076,1.193,0.754,1.043,1.511
	L138.928,411.936z"/>
<path fill="none" stroke="#FDB71F" stroke-width="5" d="M207.415,420.163c0,0-4.691-13.948-28.17-13.968
	c-22.643-0.021-28.512,13.287-28.512,13.287"/>
<g>
	<g>
		<path d="M201.711,412.208c3.543,1.86,1.953,6.229,1.242,8.805c-0.705,2.798-2.178,5.381-4.879,7.529
			c9.188,1.688,9.113-1.771,10.094-6.022c0.883-3.819,4.055-11.094-6.299-10.313"/>
		<g>
			<path d="M200.938,412.66c5.248,3.396-0.461,13.031-3.633,15.745c-0.302,0.257-0.229,0.571,0.172,0.64
				c2.941,0.493,6.326,0.972,8.979-0.747c2.061-1.333,2.248-4.144,2.771-6.301c0.588-2.423,1.564-4.981,0.733-7.464
				c-1.003-2.997-5.209-2.979-7.71-2.85c-0.673,0.034-2.063,1.109-0.768,1.043c4.438-0.23,7.433,1.131,6.703,5.86
				c-0.39,2.54-1.045,5.503-1.996,7.886c-0.467,1.175-1.442,1.738-2.664,1.933c-0.521,0.083-3.993-0.317-3.83-0.458
				c1.895-1.62,3.127-3.827,3.953-6.142c1.23-3.435,2.396-7.745-1.168-10.052C201.985,411.434,200.19,412.175,200.938,412.66
				L200.938,412.66z"/>
		</g>
	</g>
	<g>
		<path fill="#FDB71F" d="M201.711,412.208c3.543,1.86,1.953,6.229,1.242,8.805c-0.705,2.798-2.178,5.381-4.879,7.529
			c9.188,1.688,9.113-1.771,10.094-6.022c0.883-3.819,4.055-11.094-6.299-10.313"/>
		<g>
			<path fill="#FDB71F" d="M200.938,412.66c5.248,3.396-0.461,13.031-3.633,15.745c-0.302,0.257-0.229,0.571,0.172,0.64
				c2.941,0.493,6.326,0.972,8.979-0.747c2.061-1.333,2.248-4.144,2.771-6.301c0.588-2.423,1.564-4.981,0.733-7.464
				c-1.003-2.997-5.209-2.979-7.71-2.85c-0.673,0.034-2.063,1.109-0.768,1.043c4.438-0.23,7.433,1.131,6.703,5.86
				c-0.39,2.54-1.045,5.503-1.996,7.886c-0.467,1.175-1.442,1.738-2.664,1.933c-0.521,0.083-3.993-0.317-3.83-0.458
				c1.895-1.62,3.127-3.827,3.953-6.142c1.23-3.435,2.396-7.745-1.168-10.052C201.985,411.434,200.19,412.175,200.938,412.66
				L200.938,412.66z"/>
		</g>
	</g>
</g>
<g>
	<g>
		<path d="M158.225,428.633c-4.068-1.145-4.037-5.666-4.234-8.29c-0.278-2.838,0.256-5.606,2.13-8.186
			c-9.474,0.063-8.208,3.395-7.694,7.69c0.463,3.859-0.103,11.481,9.647,8.816"/>
		<g>
			<path d="M158.998,428.181c-5.851-2.128-4.608-12.021-1.983-16.019c0.244-0.371-0.205-0.533-0.513-0.526
				c-2.596,0.058-6.417,0.019-8.356,2.132c-1.699,1.851-0.883,4.522-0.642,6.752c0.285,2.641,0.286,5.389,2.062,7.536
				c2.022,2.449,6.002,1.71,8.629,1.063c1.164-0.286,0.912-1.189-0.241-0.904c-5.888,1.45-7.933-1.608-8.397-6.849
				c-0.143-1.599-0.4-3.185-0.51-4.781c-0.256-3.774,3.825-3.843,6.691-3.905c-0.172-0.176-0.342-0.351-0.514-0.525
				c-2.936,4.469-4.104,14.629,2.229,16.934C158.008,429.287,159.768,428.461,158.998,428.181L158.998,428.181z"/>
		</g>
	</g>
	<g>
		<path fill="#FDB71F" d="M158.225,428.633c-4.068-1.145-4.037-5.666-4.234-8.29c-0.278-2.838,0.256-5.606,2.13-8.186
			c-9.474,0.063-8.208,3.395-7.694,7.69c0.463,3.859-0.103,11.481,9.647,8.816"/>
		<g>
			<path fill="#FDB71F" d="M158.998,428.181c-5.851-2.128-4.608-12.021-1.983-16.019c0.244-0.371-0.205-0.533-0.513-0.526
				c-2.596,0.058-6.417,0.019-8.356,2.132c-1.699,1.851-0.883,4.522-0.642,6.752c0.285,2.641,0.286,5.389,2.062,7.536
				c2.022,2.449,6.002,1.71,8.629,1.063c1.164-0.286,0.912-1.189-0.241-0.904c-5.888,1.45-7.933-1.608-8.397-6.849
				c-0.143-1.599-0.4-3.185-0.51-4.781c-0.256-3.774,3.825-3.843,6.691-3.905c-0.172-0.176-0.342-0.351-0.514-0.525
				c-2.936,4.469-4.104,14.629,2.229,16.934C158.008,429.287,159.768,428.461,158.998,428.181L158.998,428.181z"/>
		</g>
	</g>
</g>
<path stroke="#000000" stroke-width="3" d="M159.67,424.017c0.309,2.159-0.426,3.985-1.645,4.081l0,0
	c-1.219,0.093-2.457-1.584-2.769-3.745l-1.063-7.407c-0.309-2.159,0.428-3.985,1.646-4.079l0,0c1.221-0.097,2.457,1.582,2.77,3.741
	L159.67,424.017z"/>
<path fill="#FDB71F" stroke="#FDB71F" stroke-width="0.25" d="M148.658,421.976c0.11,0.764-0.394,1.426-1.124,1.48l0,0
	c-0.73,0.056-1.411-0.515-1.52-1.276l-0.375-2.607c-0.109-0.762,0.396-1.424,1.125-1.479l0,0c0.729-0.058,1.409,0.515,1.521,1.276
	L148.658,421.976z"/>
<path stroke="#000000" stroke-width="3" d="M199.09,416.279c0.496-2.143,1.725-3.775,2.748-3.648l0,0
	c1.021,0.127,1.447,1.967,0.953,4.105l-1.697,7.347c-0.494,2.144-1.726,3.777-2.746,3.649l0,0c-1.021-0.125-1.449-1.967-0.953-4.107
	L199.09,416.279z"/>
<path fill="#FDB71F" stroke="#FDB71F" stroke-width="0.25" d="M211.26,422.601c-0.15,0.759-0.859,1.311-1.589,1.231l0,0
	c-0.726-0.078-1.192-0.754-1.042-1.512l0.518-2.598c0.151-0.756,0.862-1.309,1.588-1.229l0,0c0.729,0.076,1.193,0.754,1.043,1.511
	L211.26,422.601z"/>
<g>
	<g>
		<path d="M61.521,239.148c3.873,2.775,2.136,9.303,1.359,13.147c-0.771,4.179-2.381,8.035-5.334,11.245
			c10.045,2.521,9.962-2.646,11.035-8.995c0.965-5.708,4.432-16.567-6.886-15.401"/>
		<g>
			<path d="M60.621,239.52c6.008,5.398,0.108,19.205-3.971,24.021c-0.224,0.265,0.061,0.455,0.298,0.508
				c2.813,0.627,7.09,1.492,9.51-0.786c2.591-2.438,2.624-6.254,3.213-9.55c1.319-7.376,2.543-15.739-7.594-15.087
				c-0.669,0.043-2.059,1.126-0.766,1.043c11.34-0.73,7.086,13.627,5.279,20.467c-0.97,3.674-9.259,5.188-6.179,0.893
				c1.859-2.592,2.779-5.783,3.432-8.854c0.941-4.43,2.407-9.946-1.423-13.392C61.934,238.342,60.13,239.077,60.621,239.52
				L60.621,239.52z"/>
		</g>
	</g>
	<g>
		<path fill="#FDB71F" d="M61.521,239.148c3.873,2.775,2.136,9.303,1.359,13.147c-0.771,4.179-2.381,8.035-5.334,11.245
			c10.045,2.521,9.962-2.646,11.035-8.995c0.965-5.708,4.432-16.567-6.886-15.401"/>
		<g>
			<path fill="#FDB71F" d="M60.621,239.52c6.008,5.398,0.108,19.205-3.971,24.021c-0.224,0.265,0.061,0.455,0.298,0.508
				c2.813,0.627,7.09,1.492,9.51-0.786c2.591-2.438,2.624-6.254,3.213-9.55c1.319-7.376,2.543-15.739-7.594-15.087
				c-0.669,0.043-2.059,1.126-0.766,1.043c11.34-0.73,7.086,13.627,5.279,20.467c-0.97,3.674-9.259,5.188-6.179,0.893
				c1.859-2.592,2.779-5.783,3.432-8.854c0.941-4.43,2.407-9.946-1.423-13.392C61.934,238.342,60.13,239.077,60.621,239.52
				L60.621,239.52z"/>
		</g>
	</g>
</g>
<g>
	<g>
		<path d="M13.981,263.678c-4.449-1.71-4.413-8.463-4.63-12.381c-0.305-4.236,0.28-8.376,2.329-12.227
			c-10.355,0.095-8.974,5.07-8.412,11.486c0.505,5.768-0.112,17.148,10.546,13.168"/>
		<g>
			<path d="M14.754,263.227c-7.208-3.647-4.778-18.74-2.111-24.285c0.145-0.303-0.42-0.396-0.581-0.393
				c-3.284,0.117-6.741,0.389-9.053,2.977c-2.155,2.41-0.866,7.246-0.649,10.041c0.271,3.48-0.012,8.068,2.208,11.021
				c2.375,3.16,5.984,2.703,9.367,1.59c1.121-0.367,0.902-1.281-0.242-0.904c-7.275,2.395-8.68-3.235-9.178-8.828
				c-0.329-3.696-1.291-8.193-0.3-11.799c0.682-2.479,6.289-3.008,5.799-1.988c-0.683,1.421-1.016,2.982-1.346,4.512
				c-0.591,2.737-0.323,5.604-0.184,8.368c0.205,4.077,0.734,8.573,4.724,10.594C13.742,264.398,15.524,263.615,14.754,263.227
				L14.754,263.227z"/>
		</g>
	</g>
	<g>
		<path fill="#FDB71F" d="M13.981,263.678c-4.449-1.71-4.413-8.463-4.63-12.381c-0.305-4.236,0.28-8.376,2.329-12.227
			c-10.355,0.095-8.974,5.07-8.412,11.486c0.505,5.768-0.112,17.148,10.546,13.168"/>
		<g>
			<path fill="#FDB71F" d="M14.754,263.227c-7.208-3.647-4.778-18.74-2.111-24.285c0.145-0.303-0.42-0.396-0.581-0.393
				c-3.284,0.117-6.741,0.389-9.053,2.977c-2.155,2.41-0.866,7.246-0.649,10.041c0.271,3.48-0.012,8.068,2.208,11.021
				c2.375,3.16,5.984,2.703,9.367,1.59c1.121-0.367,0.902-1.281-0.242-0.904c-7.275,2.395-8.68-3.235-9.178-8.828
				c-0.329-3.696-1.291-8.193-0.3-11.799c0.682-2.479,6.289-3.008,5.799-1.988c-0.683,1.421-1.016,2.982-1.346,4.512
				c-0.591,2.737-0.323,5.604-0.184,8.368c0.205,4.077,0.734,8.573,4.724,10.594C13.742,264.398,15.524,263.615,14.754,263.227
				L14.754,263.227z"/>
		</g>
	</g>
</g>
<path fill="none" stroke="#FDB71F" stroke-width="5" d="M140.422,123.862c0,0-5.13-20.833-30.796-20.861
	c-24.75-0.027-31.167,19.845-31.167,19.845"/>
<g>
	<g>
		<path d="M134.187,111.982c3.873,2.777,2.136,9.303,1.359,13.149c-0.771,4.177-2.381,8.035-5.334,11.245
			c10.045,2.52,9.962-2.647,11.035-8.995c0.965-5.708,4.432-16.568-6.886-15.403"/>
		<g>
			<path d="M133.288,112.352c6.008,5.4,0.108,19.207-3.971,24.02c-0.224,0.264,0.061,0.455,0.298,0.508
				c2.813,0.627,7.09,1.492,9.51-0.786c2.591-2.438,2.624-6.254,3.213-9.55c1.319-7.376,2.543-15.741-7.594-15.087
				c-0.669,0.043-2.059,1.126-0.766,1.043c11.339-0.732,7.086,13.627,5.279,20.467c-0.97,3.672-9.259,5.186-6.179,0.891
				c1.859-2.592,2.779-5.783,3.432-8.855c0.941-4.429,2.407-9.947-1.423-13.39C134.601,111.175,132.797,111.911,133.288,112.352
				L133.288,112.352z"/>
		</g>
	</g>
	<g>
		<path fill="#FDB71F" d="M134.187,111.982c3.873,2.777,2.136,9.303,1.359,13.149c-0.771,4.177-2.381,8.035-5.334,11.245
			c10.045,2.52,9.962-2.647,11.035-8.995c0.965-5.708,4.432-16.568-6.886-15.403"/>
		<g>
			<path fill="#FDB71F" d="M133.288,112.352c6.008,5.4,0.108,19.207-3.971,24.02c-0.224,0.264,0.061,0.455,0.298,0.508
				c2.813,0.627,7.09,1.492,9.51-0.786c2.591-2.438,2.624-6.254,3.213-9.55c1.319-7.376,2.543-15.741-7.594-15.087
				c-0.669,0.043-2.059,1.126-0.766,1.043c11.339-0.732,7.086,13.627,5.279,20.467c-0.97,3.672-9.259,5.186-6.179,0.891
				c1.859-2.592,2.779-5.783,3.432-8.855c0.941-4.429,2.407-9.947-1.423-13.39C134.601,111.175,132.797,111.911,133.288,112.352
				L133.288,112.352z"/>
		</g>
	</g>
</g>
<g>
	<g>
		<path d="M86.648,136.511c-4.449-1.71-4.413-8.463-4.63-12.381c-0.305-4.237,0.28-8.376,2.329-12.227
			c-10.355,0.095-8.974,5.071-8.412,11.487c0.505,5.767-0.112,17.149,10.546,13.168"/>
		<g>
			<path d="M87.421,136.059c-7.208-3.649-4.778-18.74-2.111-24.285c0.145-0.302-0.42-0.398-0.581-0.392
				c-3.284,0.118-6.741,0.388-9.053,2.976c-2.155,2.411-0.866,7.247-0.649,10.041c0.271,3.482-0.012,8.07,2.208,11.023
				c2.375,3.16,5.984,2.703,9.367,1.59c1.121-0.369,0.902-1.282-0.242-0.905c-7.275,2.393-8.68-3.237-9.178-8.829
				c-0.329-3.697-1.291-8.195-0.3-11.799c0.682-2.479,6.289-3.007,5.799-1.989c-0.683,1.42-1.016,2.983-1.346,4.511
				c-0.591,2.737-0.323,5.603-0.184,8.369c0.205,4.077,0.734,8.573,4.724,10.593C86.409,137.233,88.191,136.449,87.421,136.059
				L87.421,136.059z"/>
		</g>
	</g>
	<g>
		<path fill="#FDB71F" d="M86.648,136.511c-4.449-1.71-4.413-8.463-4.63-12.381c-0.305-4.237,0.28-8.376,2.329-12.227
			c-10.355,0.095-8.974,5.071-8.412,11.487c0.505,5.767-0.112,17.149,10.546,13.168"/>
		<g>
			<path fill="#FDB71F" d="M87.421,136.059c-7.208-3.649-4.778-18.74-2.111-24.285c0.145-0.302-0.42-0.398-0.581-0.392
				c-3.284,0.118-6.741,0.388-9.053,2.976c-2.155,2.411-0.866,7.247-0.649,10.041c0.271,3.482-0.012,8.07,2.208,11.023
				c2.375,3.16,5.984,2.703,9.367,1.59c1.121-0.369,0.902-1.282-0.242-0.905c-7.275,2.393-8.68-3.237-9.178-8.829
				c-0.329-3.697-1.291-8.195-0.3-11.799c0.682-2.479,6.289-3.007,5.799-1.989c-0.683,1.42-1.016,2.983-1.346,4.511
				c-0.591,2.737-0.323,5.603-0.184,8.369c0.205,4.077,0.734,8.573,4.724,10.593C86.409,137.233,88.191,136.449,87.421,136.059
				L87.421,136.059z"/>
		</g>
	</g>
</g>
<path stroke="#000000" stroke-width="3" d="M88.229,129.616c0.337,3.227-0.466,5.954-1.798,6.096l0,0
	c-1.332,0.137-2.685-2.364-3.023-5.593l-1.16-11.065c-0.339-3.227,0.465-5.953,1.797-6.093l0,0c1.333-0.142,2.686,2.363,3.024,5.59
	L88.229,129.616z"/>
<path fill="#FDB71F" stroke="#FDB71F" stroke-width="0.25" d="M76.19,126.57c0.12,1.137-0.431,2.126-1.23,2.209l0,0
	c-0.798,0.084-1.542-0.769-1.661-1.906l-0.409-3.896c-0.12-1.137,0.431-2.125,1.229-2.208l0,0c0.799-0.085,1.543,0.769,1.663,1.906
	L76.19,126.57z"/>
<path stroke="#000000" stroke-width="3" d="M131.324,118.063c0.542-3.199,1.885-5.64,3.002-5.451l0,0
	c1.116,0.19,1.583,2.936,1.043,6.134l-1.857,10.972c-0.541,3.2-1.885,5.64-3.002,5.45l0,0c-1.117-0.188-1.583-2.937-1.043-6.135
	L131.324,118.063z"/>
<path fill="#FDB71F" stroke="#FDB71F" stroke-width="0.25" d="M144.626,127.502c-0.164,1.13-0.94,1.953-1.737,1.838l0,0
	c-0.794-0.116-1.304-1.126-1.139-2.257l0.565-3.877c0.165-1.13,0.942-1.953,1.736-1.836l0,0c0.795,0.115,1.305,1.126,1.141,2.257
	L144.626,127.502z"/>
<path fill="#FDB71F" stroke="#FDB71F" stroke-width="0.25" d="M142.959,246.502c-0.165,1.13-0.941,1.953-1.737,1.838l0,0
	c-0.794-0.115-1.304-1.126-1.139-2.257l0.565-3.877c0.165-1.13,0.942-1.953,1.736-1.836l0,0c0.795,0.114,1.306,1.126,1.14,2.257
	L142.959,246.502z"/>
<path fill="#FDB71F" stroke="#FDB71F" stroke-width="0.25" d="M3.441,253.824c0.12,1.137-0.431,2.127-1.23,2.209l0,0
	c-0.798,0.084-1.542-0.768-1.661-1.906l-0.409-3.895c-0.12-1.137,0.431-2.125,1.229-2.209l0,0c0.799-0.084,1.543,0.77,1.663,1.906
	L3.441,253.824z"/>
<path fill="#FDB71F" stroke="#FDB71F" stroke-width="0.25" d="M71.436,254.659c-0.165,1.129-0.941,1.952-1.737,1.838l0,0
	c-0.794-0.117-1.304-1.127-1.139-2.258l0.565-3.878c0.165-1.129,0.942-1.952,1.736-1.836l0,0c0.795,0.115,1.305,1.127,1.14,2.259
	L71.436,254.659z"/>
<path stroke="#000000" stroke-width="3" d="M14.896,256.949c0.337,3.227-0.466,5.953-1.798,6.096l0,0
	c-1.332,0.137-2.685-2.365-3.023-5.594l-1.16-11.064c-0.339-3.227,0.465-5.953,1.797-6.094l0,0c1.333-0.141,2.686,2.363,3.024,5.59
	L14.896,256.949z"/>
<path stroke="#000000" stroke-width="3" d="M59.491,245.896c0.542-3.199,1.885-5.643,3.002-5.451l0,0
	c1.116,0.188,1.583,2.936,1.043,6.133l-1.857,10.973c-0.541,3.199-1.885,5.639-3.002,5.449l0,0
	c-1.117-0.188-1.583-2.936-1.043-6.135L59.491,245.896z"/>
<path fill="none" stroke="#FDB71F" stroke-width="5" d="M136.589,209.695c0,0-5.13-20.834-30.796-20.861
	c-24.75-0.027-31.167,19.844-31.167,19.844"/>
<path fill="#FDB71F" d="M130.354,197.814c3.873,2.777,2.136,9.303,1.359,13.15c-0.771,4.176-2.381,8.035-5.334,11.244
	c10.045,2.521,9.962-2.646,11.035-8.994c0.965-5.709,4.432-16.568-6.886-15.404"/>
<path fill="#FDB71F" d="M129.456,198.186c6.008,5.399,0.108,19.207-3.971,24.02c-0.224,0.265,0.061,0.455,0.298,0.508
	c2.813,0.627,7.09,1.492,9.51-0.786c2.591-2.438,2.624-6.254,3.213-9.55c1.319-7.377,2.543-15.742-7.594-15.088
	c-0.669,0.044-2.059,1.127-0.766,1.043c11.34-0.732,7.086,13.628,5.279,20.467c-0.97,3.673-9.259,5.187-6.179,0.892
	c1.859-2.592,2.779-5.781,3.432-8.854c0.941-4.429,2.407-9.947-1.423-13.39C130.768,197.008,128.964,197.744,129.456,198.186
	L129.456,198.186z"/>
<path fill="#FDB71F" d="M82.815,222.344c-4.449-1.709-4.413-8.463-4.63-12.381c-0.305-4.236,0.28-8.375,2.329-12.227
	c-10.355,0.096-8.974,5.072-8.412,11.488c0.505,5.766-0.112,17.148,10.546,13.168"/>
<path fill="#FDB71F" d="M83.588,221.893c-7.208-3.647-4.778-18.74-2.111-24.285c0.145-0.303-0.42-0.398-0.581-0.393
	c-3.284,0.118-6.741,0.389-9.053,2.977c-2.155,2.41-0.866,7.246-0.649,10.04c0.271,3.481-0.012,8.069,2.208,11.022
	c2.375,3.16,5.984,2.703,9.367,1.592c1.121-0.369,0.902-1.283-0.242-0.906c-7.275,2.395-8.68-3.235-9.178-8.828
	c-0.329-3.697-1.291-8.195-0.3-11.799c0.682-2.48,6.289-3.008,5.799-1.989c-0.683,1.421-1.016,2.983-1.346,4.511
	c-0.591,2.738-0.323,5.604-0.184,8.369c0.205,4.076,0.734,8.573,4.724,10.593C82.576,223.066,84.358,222.282,83.588,221.893
	L83.588,221.893z"/>
<path stroke="#000000" stroke-width="3" d="M84.396,215.449c0.337,3.227-0.466,5.953-1.798,6.096l0,0
	c-1.332,0.137-2.685-2.365-3.023-5.594l-1.16-11.064c-0.339-3.227,0.465-5.953,1.797-6.094l0,0c1.333-0.141,2.686,2.363,3.024,5.59
	L84.396,215.449z"/>
<path fill="#FDB71F" stroke="#FDB71F" stroke-width="0.25" d="M72.357,212.402c0.12,1.137-0.431,2.127-1.23,2.209l0,0
	c-0.798,0.084-1.542-0.768-1.661-1.906l-0.409-3.895c-0.12-1.137,0.431-2.125,1.229-2.209l0,0c0.799-0.084,1.543,0.77,1.663,1.906
	L72.357,212.402z"/>
<path stroke="#000000" stroke-width="3" d="M127.491,203.896c0.542-3.199,1.885-5.641,3.002-5.451l0,0
	c1.116,0.189,1.583,2.936,1.043,6.133l-1.857,10.973c-0.541,3.199-1.885,5.639-3.002,5.449l0,0
	c-1.117-0.188-1.583-2.936-1.043-6.135L127.491,203.896z"/>
</svg>
