<?xml version="1.0" encoding="utf-8"?>
<!-- Generator: Adobe Illustrator 15.0.0, SVG Export Plug-In . SVG Version: 6.00 Build 0)  -->
<!DOCTYPE svg PUBLIC "-//W3C//DTD SVG 1.1//EN" "http://www.w3.org/Graphics/SVG/1.1/DTD/svg11.dtd">
<svg version="1.1" id="Layer_1" xmlns="http://www.w3.org/2000/svg" xmlns:xlink="http://www.w3.org/1999/xlink" x="0px" y="0px"
	 width="800px" height="100px" viewBox="0 0 800 100" enable-background="new 0 0 800 100" xml:space="preserve">
<rect x="336.104" y="37.397" fill="#FFFFFF" width="143.705" height="31.287"/>
<g>
	<g>
		
			<linearGradient id="SVGID_1_" gradientUnits="userSpaceOnUse" x1="366.0225" y1="-163.5273" x2="364.1445" y2="-226.1213" gradientTransform="matrix(1 0 0 -1 -20.96 -146.6602)">
			<stop  offset="0" style="stop-color:#9BDAEF"/>
			<stop  offset="1" style="stop-color:#00B6CE"/>
		</linearGradient>
		<path fill="url(#SVGID_1_)" d="M350.435,27.156c1.435,0.438,2.682,1.027,3.744,1.771c1.06,0.745,1.902,1.619,2.527,2.624
			c0.623,1.006,0.936,2.077,0.936,3.213v2.492c0,0.613-0.407,1.006-1.217,1.18l-8.517,1.575c-0.812,0.175-1.216-0.043-1.216-0.657
			v-4.262c0-0.437-0.22-0.808-0.655-1.115c-0.438-0.305-0.968-0.459-1.591-0.459h-0.749c-0.625,0-1.155,0.154-1.591,0.459
			c-0.438,0.307-0.655,0.678-0.655,1.115v5.968c0.062,0.481,0.187,0.896,0.375,1.246c0.187,0.351,0.529,0.7,1.029,1.049l12.26,6.427
			c0.997,0.613,1.638,1.235,1.918,1.868c0.28,0.635,0.482,1.346,0.608,2.132v11.28c0,1.137-0.313,2.207-0.936,3.213
			c-0.625,1.007-1.467,1.881-2.527,2.623c-1.062,0.744-2.309,1.334-3.744,1.771c-1.436,0.438-2.964,0.655-4.585,0.655h-3.557
			c-1.623,0-3.152-0.22-4.586-0.655c-1.436-0.438-2.683-1.027-3.743-1.771c-1.062-0.742-1.904-1.616-2.527-2.623
			c-0.624-1.008-0.936-2.077-0.936-3.215v-6.295c0-0.613,0.405-1.007,1.217-1.182l8.517-1.574c0.81-0.174,1.216,0.045,1.216,0.656
			v8.066c0,0.438,0.218,0.81,0.655,1.113c0.436,0.307,0.966,0.459,1.591,0.459h0.749c0.623,0,1.153-0.152,1.591-0.459
			c0.436-0.305,0.655-0.677,0.655-1.113v-8.656c-0.063-0.568-0.188-1.071-0.375-1.51c-0.187-0.437-0.562-0.83-1.123-1.181
			l-12.072-6.491c-0.936-0.611-1.607-1.224-2.012-1.836c-0.407-0.612-0.609-1.42-0.609-2.426v-7.87c0-1.136,0.312-2.207,0.936-3.213
			c0.623-1.005,1.465-1.879,2.527-2.624c1.06-0.743,2.307-1.333,3.743-1.771c1.435-0.436,2.963-0.655,4.586-0.655h3.557
			C347.471,26.5,348.999,26.719,350.435,27.156z"/>
		
			<linearGradient id="SVGID_2_" gradientUnits="userSpaceOnUse" x1="399.2168" y1="-164.3696" x2="397.3372" y2="-227.0173" gradientTransform="matrix(1 0 0 -1 -20.96 -146.6602)">
			<stop  offset="0" style="stop-color:#9BDAEF"/>
			<stop  offset="1" style="stop-color:#00B6CE"/>
		</linearGradient>
		<path fill="url(#SVGID_2_)" d="M390.865,34.435v30.625c0,1.138-0.313,2.207-0.936,3.215c-0.625,1.006-1.467,1.879-2.527,2.623
			c-1.062,0.742-2.309,1.332-3.744,1.771c-1.436,0.437-2.964,0.655-4.585,0.655h-3.557c-1.623,0-3.151-0.219-4.586-0.655
			c-1.436-0.438-2.684-1.026-3.744-1.771c-1.062-0.744-1.904-1.617-2.527-2.623c-0.625-1.008-0.936-2.077-0.936-3.215V34.435
			c0-0.611,0.436-0.918,1.31-0.918h8.33c0.873,0,1.31,0.307,1.31,0.918v30.297c0,0.438,0.218,0.811,0.655,1.115
			c0.436,0.307,0.966,0.459,1.591,0.459h0.749c0.623,0,1.154-0.152,1.591-0.459c0.436-0.306,0.655-0.678,0.655-1.115V34.435
			c0-0.611,0.436-0.918,1.31-0.918h8.329C390.427,33.517,390.865,33.824,390.865,34.435z"/>
		
			<linearGradient id="SVGID_3_" gradientUnits="userSpaceOnUse" x1="433.5957" y1="-165.3228" x2="431.7162" y2="-227.9683" gradientTransform="matrix(1 0 0 -1 -20.96 -146.6602)">
			<stop  offset="0" style="stop-color:#9BDAEF"/>
			<stop  offset="1" style="stop-color:#00B6CE"/>
		</linearGradient>
		<path fill="url(#SVGID_3_)" d="M413.699,33.517c1.621,0,3.15,0.219,4.586,0.656c1.436,0.438,2.682,1.028,3.744,1.771
			c1.06,0.744,1.902,1.618,2.525,2.623c0.623,1.007,0.937,2.078,0.937,3.214v8.722c0,1.138-0.313,2.208-0.937,3.213
			c-0.623,1.007-1.467,1.88-2.525,2.623c-1.063,0.744-2.311,1.334-3.744,1.771c-1.436,0.438-2.965,0.656-4.586,0.656H409.3v13.183
			c0,0.612-0.438,0.918-1.31,0.918h-8.33c-0.875,0-1.311-0.306-1.311-0.918V34.435c0-0.611,0.436-0.918,1.311-0.918H413.699z
			 M414.542,42.108c0-0.437-0.22-0.809-0.655-1.115c-0.437-0.306-0.968-0.459-1.591-0.459H409.3v11.214h2.995
			c0.623,0,1.154-0.152,1.592-0.459c0.436-0.307,0.654-0.678,0.654-1.115L414.542,42.108L414.542,42.108z"/>
		
			<linearGradient id="SVGID_4_" gradientUnits="userSpaceOnUse" x1="465.0098" y1="-166.1328" x2="463.1293" y2="-228.8075" gradientTransform="matrix(1 0 0 -1 -20.96 -146.6602)">
			<stop  offset="0" style="stop-color:#9BDAEF"/>
			<stop  offset="1" style="stop-color:#00B6CE"/>
		</linearGradient>
		<path fill="url(#SVGID_4_)" d="M454.503,66.109v5.838c0,0.611-0.437,0.918-1.312,0.918h-20.309c-0.874,0-1.31-0.307-1.31-0.918
			V34.435c0-0.611,0.436-0.918,1.31-0.918h20.309c0.875,0,1.312,0.307,1.312,0.918v5.837c0,0.613-0.437,0.918-1.312,0.918h-10.668
			v7.476h9.267c0.872,0,1.31,0.308,1.31,0.919v5.836c0,0.612-0.438,0.918-1.31,0.918h-9.267v8.854h10.668
			C454.066,65.191,454.503,65.499,454.503,66.109z"/>
		
			<linearGradient id="SVGID_5_" gradientUnits="userSpaceOnUse" x1="498.9385" y1="-167.0791" x2="497.0589" y2="-229.7268" gradientTransform="matrix(1 0 0 -1 -20.96 -146.6602)">
			<stop  offset="0" style="stop-color:#9BDAEF"/>
			<stop  offset="1" style="stop-color:#00B6CE"/>
		</linearGradient>
		<path fill="url(#SVGID_5_)" d="M473.407,71.947c0,0.611-0.468,0.918-1.403,0.918h-8.329c-0.812,0-1.217-0.307-1.217-0.918V34.435
			c0-0.611,0.437-0.918,1.312-0.918h14.037c1.623,0,3.149,0.219,4.586,0.656c1.436,0.438,2.684,1.028,3.744,1.771
			c1.061,0.744,1.901,1.618,2.526,2.623c0.623,1.007,0.937,2.078,0.937,3.214v8.067c0,1.617-0.688,3.07-2.06,4.36
			c-1.373,1.29-3.026,2.284-4.961,2.983l8.892,14.756c0.188,0.611-0.125,0.918-0.936,0.918h-8.518c-0.375,0-0.733-0.088-1.076-0.264
			c-0.344-0.174-0.578-0.394-0.703-0.654l-6.831-12.133V71.947z M473.407,51.092h2.995c0.623,0,1.154-0.152,1.591-0.459
			c0.437-0.305,0.655-0.677,0.655-1.114v-7.411c0-0.437-0.221-0.809-0.655-1.115c-0.437-0.306-0.968-0.459-1.591-0.459h-2.995
			V51.092z"/>
	</g>
	<g>
		<path fill="none" stroke="#FFFFFF" stroke-width="3" d="M350.435,27.156c1.435,0.438,2.682,1.027,3.744,1.771
			c1.06,0.745,1.902,1.619,2.527,2.624c0.623,1.006,0.936,2.077,0.936,3.213v2.492c0,0.613-0.407,1.006-1.217,1.18l-8.517,1.575
			c-0.812,0.175-1.216-0.043-1.216-0.657v-4.262c0-0.437-0.22-0.808-0.655-1.115c-0.438-0.305-0.968-0.459-1.591-0.459h-0.749
			c-0.625,0-1.155,0.154-1.591,0.459c-0.438,0.307-0.655,0.678-0.655,1.115v5.968c0.062,0.481,0.187,0.896,0.375,1.246
			c0.187,0.351,0.529,0.7,1.029,1.049l12.26,6.427c0.997,0.613,1.638,1.235,1.918,1.868c0.28,0.635,0.482,1.346,0.608,2.132v11.28
			c0,1.137-0.313,2.207-0.936,3.213c-0.625,1.007-1.467,1.881-2.527,2.623c-1.062,0.744-2.309,1.334-3.744,1.771
			c-1.436,0.438-2.964,0.655-4.585,0.655h-3.557c-1.623,0-3.152-0.22-4.586-0.655c-1.436-0.438-2.683-1.027-3.743-1.771
			c-1.062-0.742-1.904-1.616-2.527-2.623c-0.624-1.008-0.936-2.077-0.936-3.215v-6.295c0-0.613,0.405-1.007,1.217-1.182l8.517-1.574
			c0.81-0.174,1.216,0.045,1.216,0.656v8.066c0,0.438,0.218,0.81,0.655,1.113c0.436,0.307,0.966,0.459,1.591,0.459h0.749
			c0.623,0,1.153-0.152,1.591-0.459c0.436-0.305,0.655-0.677,0.655-1.113v-8.656c-0.063-0.568-0.188-1.071-0.375-1.51
			c-0.187-0.437-0.562-0.83-1.123-1.181l-12.072-6.491c-0.936-0.611-1.607-1.224-2.012-1.836c-0.407-0.612-0.609-1.42-0.609-2.426
			v-7.87c0-1.136,0.312-2.207,0.936-3.213c0.623-1.005,1.465-1.879,2.527-2.624c1.06-0.743,2.307-1.333,3.743-1.771
			c1.435-0.436,2.963-0.655,4.586-0.655h3.557C347.471,26.5,348.999,26.719,350.435,27.156z"/>
		<path fill="none" stroke="#FFFFFF" stroke-width="3" d="M390.865,34.435v30.625c0,1.138-0.313,2.207-0.936,3.215
			c-0.625,1.006-1.467,1.879-2.527,2.623c-1.062,0.742-2.309,1.332-3.744,1.771c-1.436,0.437-2.964,0.655-4.585,0.655h-3.557
			c-1.623,0-3.151-0.219-4.586-0.655c-1.436-0.438-2.684-1.026-3.744-1.771c-1.062-0.744-1.904-1.617-2.527-2.623
			c-0.625-1.008-0.936-2.077-0.936-3.215V34.435c0-0.611,0.436-0.918,1.31-0.918h8.33c0.873,0,1.31,0.307,1.31,0.918v30.297
			c0,0.438,0.218,0.811,0.655,1.115c0.436,0.307,0.966,0.459,1.591,0.459h0.749c0.623,0,1.154-0.152,1.591-0.459
			c0.436-0.306,0.655-0.678,0.655-1.115V34.435c0-0.611,0.436-0.918,1.31-0.918h8.329C390.427,33.517,390.865,33.824,390.865,34.435
			z"/>
		<path fill="none" stroke="#FFFFFF" stroke-width="3" d="M413.699,33.517c1.621,0,3.15,0.219,4.586,0.656
			c1.436,0.438,2.682,1.028,3.744,1.771c1.06,0.744,1.902,1.618,2.525,2.623c0.623,1.007,0.937,2.078,0.937,3.214v8.722
			c0,1.138-0.313,2.208-0.937,3.213c-0.623,1.007-1.467,1.88-2.525,2.623c-1.063,0.744-2.311,1.334-3.744,1.771
			c-1.436,0.438-2.965,0.656-4.586,0.656H409.3v13.183c0,0.612-0.438,0.918-1.31,0.918h-8.33c-0.875,0-1.311-0.306-1.311-0.918
			V34.435c0-0.611,0.436-0.918,1.311-0.918H413.699z M414.542,42.108c0-0.437-0.22-0.809-0.655-1.115
			c-0.437-0.306-0.968-0.459-1.591-0.459H409.3v11.214h2.995c0.623,0,1.154-0.152,1.592-0.459c0.436-0.307,0.654-0.678,0.654-1.115
			L414.542,42.108L414.542,42.108z"/>
		<path fill="none" stroke="#FFFFFF" stroke-width="3" d="M454.503,66.109v5.838c0,0.611-0.437,0.918-1.312,0.918h-20.309
			c-0.874,0-1.31-0.307-1.31-0.918V34.435c0-0.611,0.436-0.918,1.31-0.918h20.309c0.875,0,1.312,0.307,1.312,0.918v5.837
			c0,0.613-0.437,0.918-1.312,0.918h-10.668v7.476h9.267c0.872,0,1.31,0.308,1.31,0.919v5.836c0,0.612-0.438,0.918-1.31,0.918
			h-9.267v8.854h10.668C454.066,65.191,454.503,65.499,454.503,66.109z"/>
		<path fill="none" stroke="#FFFFFF" stroke-width="3" d="M473.407,71.947c0,0.611-0.468,0.918-1.403,0.918h-8.329
			c-0.812,0-1.217-0.307-1.217-0.918V34.435c0-0.611,0.437-0.918,1.312-0.918h14.037c1.623,0,3.149,0.219,4.586,0.656
			c1.436,0.438,2.684,1.028,3.744,1.771c1.061,0.744,1.901,1.618,2.526,2.623c0.623,1.007,0.937,2.078,0.937,3.214v8.067
			c0,1.617-0.688,3.07-2.06,4.36c-1.373,1.29-3.026,2.284-4.961,2.983l8.892,14.756c0.188,0.611-0.125,0.918-0.936,0.918h-8.518
			c-0.375,0-0.733-0.088-1.076-0.264c-0.344-0.174-0.578-0.394-0.703-0.654l-6.831-12.133V71.947z M473.407,51.092h2.995
			c0.623,0,1.154-0.152,1.591-0.459c0.437-0.305,0.655-0.677,0.655-1.114v-7.411c0-0.437-0.221-0.809-0.655-1.115
			c-0.437-0.306-0.968-0.459-1.591-0.459h-2.995V51.092z"/>
	</g>
</g>
</svg>
