<?xml version="1.0" encoding="utf-8"?>
<!-- Generator: Adobe Illustrator 15.0.0, SVG Export Plug-In . SVG Version: 6.00 Build 0)  -->
<!DOCTYPE svg PUBLIC "-//W3C//DTD SVG 1.1//EN" "http://www.w3.org/Graphics/SVG/1.1/DTD/svg11.dtd">
<svg version="1.1" id="Layer_1" xmlns="http://www.w3.org/2000/svg" xmlns:xlink="http://www.w3.org/1999/xlink" x="0px" y="0px"
	 width="800px" height="100px" viewBox="0 0 800 100" enable-background="new 0 0 800 100" xml:space="preserve">
<rect x="133.885" y="26.445" fill="#F1F2F2" width="566.667" height="50.34"/>
<g>
	<g>
		
			<linearGradient id="SVGID_1_" gradientUnits="userSpaceOnUse" x1="169.2749" y1="-173.6006" x2="169.2749" y2="-227.0753" gradientTransform="matrix(1 0 0 -1 -20.96 -146.6602)">
			<stop  offset="0" style="stop-color:#9ADAEF"/>
			<stop  offset="0.0288" style="stop-color:#94D7EC"/>
			<stop  offset="0.1924" style="stop-color:#72CAE1"/>
			<stop  offset="0.3642" style="stop-color:#54C1D9"/>
			<stop  offset="0.5458" style="stop-color:#36BBD3"/>
			<stop  offset="0.7436" style="stop-color:#18B8D0"/>
			<stop  offset="0.9879" style="stop-color:#00B7CF"/>
		</linearGradient>
		<path fill="url(#SVGID_1_)" d="M169.63,13.467v59.428c0,1.815-0.492,3.528-1.47,5.135c-0.981,1.606-2.304,3.006-3.969,4.193
			c-1.667,1.188-3.626,2.131-5.879,2.829c-2.256,0.697-4.656,1.048-7.203,1.048h-5.586c-2.55,0-4.95-0.351-7.203-1.048
			c-2.255-0.698-4.215-1.641-5.88-2.829c-1.667-1.188-2.99-2.587-3.969-4.193C127.49,76.424,127,74.711,127,72.895V13.467
			c0-0.977,0.685-1.467,2.058-1.467h13.083c1.372,0,2.058,0.49,2.058,1.467v58.904c0,0.699,0.342,1.293,1.029,1.781
			c0.685,0.49,1.519,0.731,2.499,0.731h1.176c0.979,0,1.813-0.241,2.499-0.731c0.684-0.488,1.028-1.082,1.028-1.781V13.467
			c0-0.977,0.685-1.467,2.059-1.467h13.083C168.942,12,169.63,12.49,169.63,13.467z"/>
		
			<linearGradient id="SVGID_2_" gradientUnits="userSpaceOnUse" x1="225.8667" y1="-173.6011" x2="225.8667" y2="-227.076" gradientTransform="matrix(1 0 0 -1 -20.96 -146.6602)">
			<stop  offset="0" style="stop-color:#9ADAEF"/>
			<stop  offset="0.0288" style="stop-color:#94D7EC"/>
			<stop  offset="0.1924" style="stop-color:#72CAE1"/>
			<stop  offset="0.3642" style="stop-color:#54C1D9"/>
			<stop  offset="0.5458" style="stop-color:#36BBD3"/>
			<stop  offset="0.7436" style="stop-color:#18B8D0"/>
			<stop  offset="0.9879" style="stop-color:#00B7CF"/>
		</linearGradient>
		<path fill="url(#SVGID_2_)" d="M228.426,23.948V83.9c0,0.979-0.687,1.467-2.058,1.467h-9.408c-0.588,0-1.153-0.141-1.69-0.42
			c-0.54-0.279-0.907-0.594-1.103-0.943L198.585,56.65V83.9c0,0.979-0.687,1.467-2.058,1.467h-13.082
			c-1.374,0-2.058-0.488-2.058-1.467V23.948c0-0.978,0.685-1.468,2.058-1.468h9.702c0.588,0,1.151,0.142,1.691,0.419
			c0.537,0.28,0.904,0.595,1.102,0.943l15.288,30.5V23.948c0-0.978,0.685-1.468,2.058-1.468h13.083
			C227.739,22.48,228.426,22.97,228.426,23.948z"/>
		
			<linearGradient id="SVGID_3_" gradientUnits="userSpaceOnUse" x1="283.9282" y1="-173.6011" x2="283.9282" y2="-227.076" gradientTransform="matrix(1 0 0 -1 -20.96 -146.6602)">
			<stop  offset="0" style="stop-color:#9ADAEF"/>
			<stop  offset="0.0288" style="stop-color:#94D7EC"/>
			<stop  offset="0.1924" style="stop-color:#72CAE1"/>
			<stop  offset="0.3642" style="stop-color:#54C1D9"/>
			<stop  offset="0.5458" style="stop-color:#36BBD3"/>
			<stop  offset="0.7436" style="stop-color:#18B8D0"/>
			<stop  offset="0.9879" style="stop-color:#00B7CF"/>
		</linearGradient>
		<path fill="url(#SVGID_3_)" d="M280.167,55.705c1.371,0.98,2.4,2.133,3.087,3.459c0.684,1.328,1.029,2.795,1.029,4.402v8.594
			c0,1.818-0.492,3.529-1.47,5.137c-0.981,1.607-2.304,3.004-3.969,4.191c-1.667,1.188-3.627,2.133-5.88,2.83
			c-2.255,0.699-4.655,1.049-7.203,1.049h-21.608c-0.588,0-1.153-0.053-1.69-0.158c-0.54-0.104-0.809-0.541-0.809-1.309V23.948
			c0-0.978,0.685-1.468,2.058-1.468h22.049c2.548,0,4.948,0.351,7.203,1.048c2.253,0.7,4.213,1.643,5.88,2.83
			c1.665,1.189,2.988,2.586,3.969,4.193c0.978,1.608,1.47,3.32,1.47,5.136v6.917c0,3.215-1.374,5.905-4.116,8.069
			c-1.47,1.119-3.234,2.027-5.292,2.728C277.03,53.959,278.794,54.727,280.167,55.705z M267.085,36.211
			c0-0.697-0.344-1.292-1.029-1.782c-0.687-0.487-1.52-0.733-2.499-0.733h-4.704V47.95h4.704c0.979,0,1.812-0.244,2.499-0.733
			c0.685-0.488,1.029-1.083,1.029-1.782V36.211z M267.085,61.889c0-0.697-0.344-1.291-1.029-1.781
			c-0.687-0.487-1.52-0.733-2.499-0.733h-4.704v14.778h4.704c0.979,0,1.812-0.243,2.499-0.733c0.685-0.485,1.029-1.082,1.029-1.78
			V61.889z"/>
		
			<linearGradient id="SVGID_4_" gradientUnits="userSpaceOnUse" x1="334.2734" y1="-173.6011" x2="334.2734" y2="-227.076" gradientTransform="matrix(1 0 0 -1 -20.96 -146.6602)">
			<stop  offset="0" style="stop-color:#9ADAEF"/>
			<stop  offset="0.0288" style="stop-color:#94D7EC"/>
			<stop  offset="0.1924" style="stop-color:#72CAE1"/>
			<stop  offset="0.3642" style="stop-color:#54C1D9"/>
			<stop  offset="0.5458" style="stop-color:#36BBD3"/>
			<stop  offset="0.7436" style="stop-color:#18B8D0"/>
			<stop  offset="0.9879" style="stop-color:#00B7CF"/>
		</linearGradient>
		<path fill="url(#SVGID_4_)" d="M331.321,74.57v9.33c0,0.979-0.687,1.467-2.058,1.467h-31.898c-1.374,0-2.059-0.488-2.059-1.467
			V23.948c0-0.978,0.685-1.468,2.059-1.468h31.898c1.371,0,2.058,0.49,2.058,1.468v9.328c0,0.979-0.687,1.468-2.058,1.468h-16.758
			v11.948h14.553c1.371,0,2.058,0.49,2.058,1.467v9.329c0,0.979-0.687,1.467-2.058,1.467h-14.553v14.148h16.758
			C330.634,73.104,331.321,73.594,331.321,74.57z"/>
		
			<linearGradient id="SVGID_5_" gradientUnits="userSpaceOnUse" x1="384.2515" y1="-173.6011" x2="384.2515" y2="-227.076" gradientTransform="matrix(1 0 0 -1 -20.96 -146.6602)">
			<stop  offset="0" style="stop-color:#9ADAEF"/>
			<stop  offset="0.0288" style="stop-color:#94D7EC"/>
			<stop  offset="0.1924" style="stop-color:#72CAE1"/>
			<stop  offset="0.3642" style="stop-color:#54C1D9"/>
			<stop  offset="0.5458" style="stop-color:#36BBD3"/>
			<stop  offset="0.7436" style="stop-color:#18B8D0"/>
			<stop  offset="0.9879" style="stop-color:#00B7CF"/>
		</linearGradient>
		<path fill="url(#SVGID_5_)" d="M382.034,74.57v9.33c0,0.979-0.688,1.467-2.059,1.467h-19.844h-0.293h-0.148h-13.083
			c-1.374,0-2.058-0.488-2.058-1.467V23.948c0-0.978,0.685-1.468,2.058-1.468h13.083c1.372,0,2.058,0.49,2.058,1.468v49.155h18.228
			C381.346,73.104,382.034,73.594,382.034,74.57z"/>
		
			<linearGradient id="SVGID_6_" gradientUnits="userSpaceOnUse" x1="421.8789" y1="-173.6011" x2="421.8789" y2="-227.076" gradientTransform="matrix(1 0 0 -1 -20.96 -146.6602)">
			<stop  offset="0" style="stop-color:#9ADAEF"/>
			<stop  offset="0.0288" style="stop-color:#94D7EC"/>
			<stop  offset="0.1924" style="stop-color:#72CAE1"/>
			<stop  offset="0.3642" style="stop-color:#54C1D9"/>
			<stop  offset="0.5458" style="stop-color:#36BBD3"/>
			<stop  offset="0.7436" style="stop-color:#18B8D0"/>
			<stop  offset="0.9879" style="stop-color:#00B7CF"/>
		</linearGradient>
		<path fill="url(#SVGID_6_)" d="M409.52,83.9c0,0.979-0.688,1.467-2.059,1.467h-13.083c-1.373,0-2.058-0.488-2.058-1.467V23.948
			c0-0.978,0.685-1.468,2.058-1.468h13.083c1.371,0,2.059,0.49,2.059,1.468V83.9z"/>
		
			<linearGradient id="SVGID_7_" gradientUnits="userSpaceOnUse" x1="461.7139" y1="-173.6011" x2="461.7139" y2="-227.076" gradientTransform="matrix(1 0 0 -1 -20.96 -146.6602)">
			<stop  offset="0" style="stop-color:#9ADAEF"/>
			<stop  offset="0.0288" style="stop-color:#94D7EC"/>
			<stop  offset="0.1924" style="stop-color:#72CAE1"/>
			<stop  offset="0.3642" style="stop-color:#54C1D9"/>
			<stop  offset="0.5458" style="stop-color:#36BBD3"/>
			<stop  offset="0.7436" style="stop-color:#18B8D0"/>
			<stop  offset="0.9879" style="stop-color:#00B7CF"/>
		</linearGradient>
		<path fill="url(#SVGID_7_)" d="M458.762,74.57v9.33c0,0.979-0.688,1.467-2.06,1.467h-31.897c-1.373,0-2.059-0.488-2.059-1.467
			V23.948c0-0.978,0.686-1.468,2.059-1.468h31.897c1.371,0,2.06,0.49,2.06,1.468v9.328c0,0.979-0.688,1.468-2.06,1.468h-16.757
			v11.948h14.553c1.372,0,2.059,0.49,2.059,1.467v9.329c0,0.979-0.687,1.467-2.059,1.467h-14.553v14.148h16.757
			C458.074,73.104,458.762,73.594,458.762,74.57z"/>
		
			<linearGradient id="SVGID_8_" gradientUnits="userSpaceOnUse" x1="513.3809" y1="-173.6011" x2="513.3809" y2="-227.076" gradientTransform="matrix(1 0 0 -1 -20.96 -146.6602)">
			<stop  offset="0" style="stop-color:#9ADAEF"/>
			<stop  offset="0.0288" style="stop-color:#94D7EC"/>
			<stop  offset="0.1924" style="stop-color:#72CAE1"/>
			<stop  offset="0.3642" style="stop-color:#54C1D9"/>
			<stop  offset="0.5458" style="stop-color:#36BBD3"/>
			<stop  offset="0.7436" style="stop-color:#18B8D0"/>
			<stop  offset="0.9879" style="stop-color:#00B7CF"/>
		</linearGradient>
		<path fill="url(#SVGID_8_)" d="M518.586,23.948L501.241,83.9c-0.197,0.979-0.979,1.467-2.351,1.467h-12.937
			c-1.374,0-2.158-0.488-2.353-1.467l-17.347-59.952c-0.196-0.978,0.392-1.468,1.767-1.468h15.875c1.271,0,2.006,0.49,2.203,1.468
			l6.026,39.198h0.587l6.025-39.198c0.197-0.978,0.932-1.468,2.209-1.468h15.875C518.195,22.48,518.783,22.97,518.586,23.948z"/>
		
			<linearGradient id="SVGID_9_" gradientUnits="userSpaceOnUse" x1="565.123" y1="-173.6011" x2="565.123" y2="-227.076" gradientTransform="matrix(1 0 0 -1 -20.96 -146.6602)">
			<stop  offset="0" style="stop-color:#9ADAEF"/>
			<stop  offset="0.0288" style="stop-color:#94D7EC"/>
			<stop  offset="0.1924" style="stop-color:#72CAE1"/>
			<stop  offset="0.3642" style="stop-color:#54C1D9"/>
			<stop  offset="0.5458" style="stop-color:#36BBD3"/>
			<stop  offset="0.7436" style="stop-color:#18B8D0"/>
			<stop  offset="0.9879" style="stop-color:#00B7CF"/>
		</linearGradient>
		<path fill="url(#SVGID_9_)" d="M567.243,83.9c0.193,0.979-0.396,1.467-1.767,1.467H552.1c-1.272,0-2.009-0.488-2.202-1.467
			l-1.177-10.273h-9.115L538.432,83.9c-0.197,0.979-0.934,1.467-2.207,1.467H522.85c-1.373,0-1.961-0.488-1.765-1.467l11.022-59.952
			c0.197-0.978,0.979-1.468,2.354-1.468h19.403c1.372,0,2.153,0.49,2.354,1.468L567.243,83.9z M547.544,61.889l-2.792-23.163h-1.178
			l-2.791,23.163H547.544z"/>
		
			<linearGradient id="SVGID_10_" gradientUnits="userSpaceOnUse" x1="619.2168" y1="-173.6011" x2="619.2168" y2="-227.076" gradientTransform="matrix(1 0 0 -1 -20.96 -146.6602)">
			<stop  offset="0" style="stop-color:#9ADAEF"/>
			<stop  offset="0.0288" style="stop-color:#94D7EC"/>
			<stop  offset="0.1924" style="stop-color:#72CAE1"/>
			<stop  offset="0.3642" style="stop-color:#54C1D9"/>
			<stop  offset="0.5458" style="stop-color:#36BBD3"/>
			<stop  offset="0.7436" style="stop-color:#18B8D0"/>
			<stop  offset="0.9879" style="stop-color:#00B7CF"/>
		</linearGradient>
		<path fill="url(#SVGID_10_)" d="M615.455,55.705c1.372,0.98,2.399,2.133,3.087,3.459c0.685,1.328,1.027,2.795,1.027,4.402v8.594
			c0,1.818-0.488,3.529-1.47,5.137c-0.979,1.607-2.303,3.004-3.97,4.191c-1.667,1.188-3.626,2.133-5.877,2.83
			c-2.258,0.699-4.658,1.049-7.205,1.049h-21.606c-0.591,0-1.153-0.053-1.69-0.158c-0.539-0.104-0.808-0.541-0.808-1.309V23.948
			c0-0.978,0.684-1.468,2.058-1.468h22.048c2.547,0,4.947,0.351,7.205,1.048c2.251,0.7,4.21,1.643,5.877,2.83
			c1.667,1.189,2.99,2.586,3.97,4.193c0.98,1.608,1.47,3.32,1.47,5.136v6.917c0,3.215-1.371,5.905-4.114,8.069
			c-1.471,1.119-3.232,2.027-5.293,2.728C612.318,53.959,614.081,54.727,615.455,55.705z M602.373,36.211
			c0-0.697-0.346-1.292-1.028-1.782c-0.688-0.487-1.521-0.733-2.5-0.733h-4.704V47.95h4.704c0.979,0,1.813-0.244,2.5-0.733
			c0.684-0.488,1.028-1.083,1.028-1.782V36.211z M602.373,61.889c0-0.697-0.346-1.291-1.028-1.781
			c-0.688-0.487-1.521-0.733-2.5-0.733h-4.704v14.778h4.704c0.979,0,1.813-0.243,2.5-0.733c0.684-0.485,1.028-1.082,1.028-1.78
			V61.889z"/>
		
			<linearGradient id="SVGID_11_" gradientUnits="userSpaceOnUse" x1="671.0313" y1="-173.6011" x2="671.0313" y2="-227.076" gradientTransform="matrix(1 0 0 -1 -20.96 -146.6602)">
			<stop  offset="0" style="stop-color:#9ADAEF"/>
			<stop  offset="0.0288" style="stop-color:#94D7EC"/>
			<stop  offset="0.1924" style="stop-color:#72CAE1"/>
			<stop  offset="0.3642" style="stop-color:#54C1D9"/>
			<stop  offset="0.5458" style="stop-color:#36BBD3"/>
			<stop  offset="0.7436" style="stop-color:#18B8D0"/>
			<stop  offset="0.9879" style="stop-color:#00B7CF"/>
		</linearGradient>
		<path fill="url(#SVGID_11_)" d="M668.813,74.57v9.33c0,0.979-0.687,1.467-2.058,1.467H646.91h-0.295h-0.146h-13.081
			c-1.375,0-2.059-0.488-2.059-1.467V23.948c0-0.978,0.684-1.468,2.059-1.468h13.081c1.372,0,2.059,0.49,2.059,1.468v49.155h18.229
			C668.127,73.104,668.813,73.594,668.813,74.57z"/>
		
			<linearGradient id="SVGID_12_" gradientUnits="userSpaceOnUse" x1="718.0684" y1="-173.6011" x2="718.0684" y2="-227.076" gradientTransform="matrix(1 0 0 -1 -20.96 -146.6602)">
			<stop  offset="0" style="stop-color:#9ADAEF"/>
			<stop  offset="0.0288" style="stop-color:#94D7EC"/>
			<stop  offset="0.1924" style="stop-color:#72CAE1"/>
			<stop  offset="0.3642" style="stop-color:#54C1D9"/>
			<stop  offset="0.5458" style="stop-color:#36BBD3"/>
			<stop  offset="0.7436" style="stop-color:#18B8D0"/>
			<stop  offset="0.9879" style="stop-color:#00B7CF"/>
		</linearGradient>
		<path fill="url(#SVGID_12_)" d="M715.117,74.57v9.33c0,0.979-0.688,1.467-2.062,1.467h-31.896c-1.372,0-2.059-0.488-2.059-1.467
			V23.948c0-0.978,0.687-1.468,2.059-1.468h31.896c1.372,0,2.062,0.49,2.062,1.468v9.328c0,0.979-0.688,1.468-2.062,1.468H696.3
			v11.948h14.553c1.371,0,2.059,0.49,2.059,1.467v9.329c0,0.979-0.688,1.467-2.059,1.467H696.3v14.148h16.756
			C714.428,73.104,715.117,73.594,715.117,74.57z"/>
	</g>
	<g>
		<path fill="none" stroke="#F1F2F2" stroke-width="6" d="M169.63,13.467v59.428c0,1.815-0.492,3.528-1.47,5.135
			c-0.981,1.606-2.304,3.006-3.969,4.193c-1.667,1.188-3.626,2.131-5.879,2.829c-2.256,0.697-4.656,1.048-7.203,1.048h-5.586
			c-2.55,0-4.95-0.351-7.203-1.048c-2.255-0.698-4.215-1.641-5.88-2.829c-1.667-1.188-2.99-2.587-3.969-4.193
			C127.49,76.424,127,74.711,127,72.895V13.467c0-0.977,0.685-1.467,2.058-1.467h13.083c1.372,0,2.058,0.49,2.058,1.467v58.904
			c0,0.699,0.342,1.293,1.029,1.781c0.685,0.49,1.519,0.731,2.499,0.731h1.176c0.979,0,1.813-0.241,2.499-0.731
			c0.684-0.488,1.028-1.082,1.028-1.781V13.467c0-0.977,0.685-1.467,2.059-1.467h13.083C168.942,12,169.63,12.49,169.63,13.467z"/>
		<path fill="none" stroke="#F1F2F2" stroke-width="6" d="M228.426,23.948V83.9c0,0.979-0.687,1.467-2.058,1.467h-9.408
			c-0.588,0-1.153-0.141-1.69-0.42c-0.54-0.279-0.907-0.594-1.103-0.943L198.585,56.65V83.9c0,0.979-0.687,1.467-2.058,1.467
			h-13.082c-1.374,0-2.058-0.488-2.058-1.467V23.948c0-0.978,0.685-1.468,2.058-1.468h9.702c0.588,0,1.151,0.142,1.691,0.419
			c0.537,0.28,0.904,0.595,1.102,0.943l15.288,30.5V23.948c0-0.978,0.685-1.468,2.058-1.468h13.083
			C227.739,22.48,228.426,22.97,228.426,23.948z"/>
		<path fill="none" stroke="#F1F2F2" stroke-width="6" d="M280.167,55.705c1.371,0.98,2.4,2.133,3.087,3.459
			c0.684,1.328,1.029,2.795,1.029,4.402v8.594c0,1.818-0.492,3.529-1.47,5.137c-0.981,1.607-2.304,3.004-3.969,4.191
			c-1.667,1.188-3.627,2.133-5.88,2.83c-2.255,0.699-4.655,1.049-7.203,1.049h-21.608c-0.588,0-1.153-0.053-1.69-0.158
			c-0.54-0.104-0.809-0.541-0.809-1.309V23.948c0-0.978,0.685-1.468,2.058-1.468h22.049c2.548,0,4.948,0.351,7.203,1.048
			c2.253,0.7,4.213,1.643,5.88,2.83c1.665,1.189,2.988,2.586,3.969,4.193c0.978,1.608,1.47,3.32,1.47,5.136v6.917
			c0,3.215-1.374,5.905-4.116,8.069c-1.47,1.119-3.234,2.027-5.292,2.728C277.03,53.959,278.794,54.727,280.167,55.705z
			 M267.085,36.211c0-0.697-0.344-1.292-1.029-1.782c-0.687-0.487-1.52-0.733-2.499-0.733h-4.704V47.95h4.704
			c0.979,0,1.812-0.244,2.499-0.733c0.685-0.488,1.029-1.083,1.029-1.782V36.211z M267.085,61.889c0-0.697-0.344-1.291-1.029-1.781
			c-0.687-0.487-1.52-0.733-2.499-0.733h-4.704v14.778h4.704c0.979,0,1.812-0.243,2.499-0.733c0.685-0.485,1.029-1.082,1.029-1.78
			V61.889z"/>
		<path fill="none" stroke="#F1F2F2" stroke-width="6" d="M331.321,74.57v9.33c0,0.979-0.687,1.467-2.058,1.467h-31.898
			c-1.374,0-2.059-0.488-2.059-1.467V23.948c0-0.978,0.685-1.468,2.059-1.468h31.898c1.371,0,2.058,0.49,2.058,1.468v9.328
			c0,0.979-0.687,1.468-2.058,1.468h-16.758v11.948h14.553c1.371,0,2.058,0.49,2.058,1.467v9.329c0,0.979-0.687,1.467-2.058,1.467
			h-14.553v14.148h16.758C330.634,73.104,331.321,73.594,331.321,74.57z"/>
		<path fill="none" stroke="#F1F2F2" stroke-width="6" d="M382.034,74.57v9.33c0,0.979-0.688,1.467-2.059,1.467h-19.844h-0.293
			h-0.148h-13.083c-1.374,0-2.058-0.488-2.058-1.467V23.948c0-0.978,0.685-1.468,2.058-1.468h13.083c1.372,0,2.058,0.49,2.058,1.468
			v49.155h18.228C381.346,73.104,382.034,73.594,382.034,74.57z"/>
		<path fill="none" stroke="#F1F2F2" stroke-width="6" d="M409.52,83.9c0,0.979-0.688,1.467-2.059,1.467h-13.083
			c-1.373,0-2.058-0.488-2.058-1.467V23.948c0-0.978,0.685-1.468,2.058-1.468h13.083c1.371,0,2.059,0.49,2.059,1.468V83.9z"/>
		<path fill="none" stroke="#F1F2F2" stroke-width="6" d="M458.762,74.57v9.33c0,0.979-0.688,1.467-2.06,1.467h-31.897
			c-1.373,0-2.059-0.488-2.059-1.467V23.948c0-0.978,0.686-1.468,2.059-1.468h31.897c1.371,0,2.06,0.49,2.06,1.468v9.328
			c0,0.979-0.688,1.468-2.06,1.468h-16.757v11.948h14.553c1.372,0,2.059,0.49,2.059,1.467v9.329c0,0.979-0.687,1.467-2.059,1.467
			h-14.553v14.148h16.757C458.074,73.104,458.762,73.594,458.762,74.57z"/>
		<path fill="none" stroke="#F1F2F2" stroke-width="6" d="M518.586,23.948L501.241,83.9c-0.197,0.979-0.979,1.467-2.351,1.467
			h-12.937c-1.374,0-2.158-0.488-2.353-1.467l-17.347-59.952c-0.196-0.978,0.392-1.468,1.767-1.468h15.875
			c1.271,0,2.006,0.49,2.203,1.468l6.026,39.198h0.587l6.025-39.198c0.197-0.978,0.932-1.468,2.209-1.468h15.875
			C518.195,22.48,518.783,22.97,518.586,23.948z"/>
		<path fill="none" stroke="#F1F2F2" stroke-width="6" d="M567.243,83.9c0.193,0.979-0.396,1.467-1.767,1.467H552.1
			c-1.272,0-2.009-0.488-2.202-1.467l-1.177-10.273h-9.115L538.432,83.9c-0.197,0.979-0.934,1.467-2.207,1.467H522.85
			c-1.373,0-1.961-0.488-1.765-1.467l11.022-59.952c0.197-0.978,0.979-1.468,2.354-1.468h19.403c1.372,0,2.153,0.49,2.354,1.468
			L567.243,83.9z M547.544,61.889l-2.792-23.163h-1.178l-2.791,23.163H547.544z"/>
		<path fill="none" stroke="#F1F2F2" stroke-width="6" d="M615.455,55.705c1.372,0.98,2.399,2.133,3.087,3.459
			c0.685,1.328,1.027,2.795,1.027,4.402v8.594c0,1.818-0.488,3.529-1.47,5.137c-0.979,1.607-2.303,3.004-3.97,4.191
			c-1.667,1.188-3.626,2.133-5.877,2.83c-2.258,0.699-4.658,1.049-7.205,1.049h-21.606c-0.591,0-1.153-0.053-1.69-0.158
			c-0.539-0.104-0.808-0.541-0.808-1.309V23.948c0-0.978,0.684-1.468,2.058-1.468h22.048c2.547,0,4.947,0.351,7.205,1.048
			c2.251,0.7,4.21,1.643,5.877,2.83c1.667,1.189,2.99,2.586,3.97,4.193c0.98,1.608,1.47,3.32,1.47,5.136v6.917
			c0,3.215-1.371,5.905-4.114,8.069c-1.471,1.119-3.232,2.027-5.293,2.728C612.318,53.959,614.081,54.727,615.455,55.705z
			 M602.373,36.211c0-0.697-0.346-1.292-1.028-1.782c-0.688-0.487-1.521-0.733-2.5-0.733h-4.704V47.95h4.704
			c0.979,0,1.813-0.244,2.5-0.733c0.684-0.488,1.028-1.083,1.028-1.782V36.211z M602.373,61.889c0-0.697-0.346-1.291-1.028-1.781
			c-0.688-0.487-1.521-0.733-2.5-0.733h-4.704v14.778h4.704c0.979,0,1.813-0.243,2.5-0.733c0.684-0.485,1.028-1.082,1.028-1.78
			V61.889z"/>
		<path fill="none" stroke="#F1F2F2" stroke-width="6" d="M668.813,74.57v9.33c0,0.979-0.687,1.467-2.058,1.467H646.91h-0.295
			h-0.146h-13.081c-1.375,0-2.059-0.488-2.059-1.467V23.948c0-0.978,0.684-1.468,2.059-1.468h13.081c1.372,0,2.059,0.49,2.059,1.468
			v49.155h18.229C668.127,73.104,668.813,73.594,668.813,74.57z"/>
		<path fill="none" stroke="#F1F2F2" stroke-width="6" d="M715.117,74.57v9.33c0,0.979-0.688,1.467-2.062,1.467h-31.896
			c-1.372,0-2.059-0.488-2.059-1.467V23.948c0-0.978,0.687-1.468,2.059-1.468h31.896c1.372,0,2.062,0.49,2.062,1.468v9.328
			c0,0.979-0.688,1.468-2.062,1.468H696.3v11.948h14.553c1.371,0,2.059,0.49,2.059,1.467v9.329c0,0.979-0.688,1.467-2.059,1.467
			H696.3v14.148h16.756C714.428,73.104,715.117,73.594,715.117,74.57z"/>
	</g>
</g>
</svg>
