<?xml version="1.0" encoding="utf-8"?>
<!-- Generator: Adobe Illustrator 15.0.0, SVG Export Plug-In . SVG Version: 6.00 Build 0)  -->
<!DOCTYPE svg PUBLIC "-//W3C//DTD SVG 1.1//EN" "http://www.w3.org/Graphics/SVG/1.1/DTD/svg11.dtd">
<svg version="1.1" id="Layer_1" xmlns="http://www.w3.org/2000/svg" xmlns:xlink="http://www.w3.org/1999/xlink" x="0px" y="0px"
	 width="250px" height="400px" viewBox="0 0 250 400" enable-background="new 0 0 250 400" xml:space="preserve">
<polygon fill="#231F20" points="75.204,238.053 76.346,93.206 169.343,93.939 168.209,237.746 166.441,237.749 160.047,237.775 
	157.048,237.782 84.97,238.021 "/>
<rect x="158.841" y="100.293" transform="matrix(-0.008 1 -1 -0.008 268.8196 -59.6923)" fill="#FFFFFF" width="10.352" height="6.394"/>
<linearGradient id="SVGID_1_" gradientUnits="userSpaceOnUse" x1="430.9814" y1="608.7471" x2="503.9434" y2="608.7471" gradientTransform="matrix(1 0 0 1 -345.3203 -440.9199)">
	<stop  offset="0.0242" style="stop-color:#A76636"/>
	<stop  offset="0.2052" style="stop-color:#9E6132"/>
	<stop  offset="0.5102" style="stop-color:#88532A"/>
	<stop  offset="0.8996" style="stop-color:#673E1B"/>
	<stop  offset="0.9758" style="stop-color:#603A17"/>
</linearGradient>
<polygon fill="url(#SVGID_1_)" points="157.732,224.495 158.623,111.728 86.551,111.159 85.661,223.927 "/>
<rect x="158.7" y="118.139" transform="matrix(-0.0079 1 -1 -0.0079 286.5082 -41.5738)" fill="#FFFFFF" width="10.353" height="6.395"/>
<rect x="158.539" y="138.313" transform="matrix(-0.0077 1 -1 -0.0077 306.4881 -21.1062)" fill="#FFFFFF" width="10.353" height="6.395"/>
<rect x="158.392" y="157.323" transform="matrix(-0.0079 1 -1 -0.0079 325.3792 -1.7705)" fill="#FFFFFF" width="10.352" height="6.394"/>
<rect x="158.243" y="175.944" transform="matrix(-0.0078 1 -1 -0.0078 343.8338 17.1295)" fill="#FFFFFF" width="10.352" height="6.394"/>
<rect x="158.094" y="194.955" transform="matrix(-0.0079 1 -1 -0.0079 362.7096 36.4583)" fill="#FFFFFF" width="10.351" height="6.395"/>
<rect x="157.938" y="214.741" transform="matrix(-0.0079 1 -1 -0.0079 382.3392 56.555)" fill="#FFFFFF" width="10.354" height="6.395"/>
<polygon fill="#FFFFFF" points="160.047,237.775 160.105,230.592 166.499,230.641 166.441,237.749 "/>
<rect x="76.045" y="95.367" transform="matrix(-0.008 1 -1 -0.008 180.4339 18.1349)" fill="#FFFFFF" width="10.353" height="6.394"/>
<rect x="75.908" y="113.218" transform="matrix(-0.008 1 -1 -0.008 198.1461 36.2663)" fill="#FFFFFF" width="10.353" height="6.394"/>
<rect x="75.75" y="133.392" transform="matrix(-0.0079 1 -1 -0.0079 218.1519 56.7478)" fill="#FFFFFF" width="10.351" height="6.394"/>
<rect x="75.599" y="152.402" transform="matrix(-0.0079 1 -1 -0.0079 237.0064 76.0523)" fill="#FFFFFF" width="10.352" height="6.394"/>
<rect x="75.448" y="171.016" transform="matrix(-0.0079 1 -1 -0.0079 255.471 94.9721)" fill="#FFFFFF" width="10.352" height="6.394"/>
<rect x="75.307" y="190.043" transform="matrix(-0.0078 1 -1 -0.0078 274.3467 114.2726)" fill="#FFFFFF" width="10.352" height="6.394"/>
<rect x="75.146" y="209.819" transform="matrix(-0.0078 1 -1 -0.0078 293.9579 134.3538)" fill="#FFFFFF" width="10.354" height="6.394"/>
<rect x="75.296" y="227.668" transform="matrix(-0.0078 1 -1 -0.0078 311.9567 152.1911)" fill="#FFFFFF" width="10.353" height="6.393"/>
<linearGradient id="SVGID_2_" gradientUnits="userSpaceOnUse" x1="431.6445" y1="539.4775" x2="503.7949" y2="539.4775" gradientTransform="matrix(1 0 0 1 -345.3203 -440.9199)">
	<stop  offset="0.0242" style="stop-color:#A76636"/>
	<stop  offset="0.2052" style="stop-color:#9E6132"/>
	<stop  offset="0.5102" style="stop-color:#88532A"/>
	<stop  offset="0.8996" style="stop-color:#673E1B"/>
	<stop  offset="0.9758" style="stop-color:#603A17"/>
</linearGradient>
<polygon fill="url(#SVGID_2_)" points="86.324,103.262 86.402,93.284 158.475,93.853 158.396,103.831 "/>
<linearGradient id="SVGID_3_" gradientUnits="userSpaceOnUse" x1="430.291" y1="675.8379" x2="502.4121" y2="675.8379" gradientTransform="matrix(1 0 0 1 -345.3203 -440.9199)">
	<stop  offset="0.0242" style="stop-color:#A76636"/>
	<stop  offset="0.2052" style="stop-color:#9E6132"/>
	<stop  offset="0.5102" style="stop-color:#88532A"/>
	<stop  offset="0.8996" style="stop-color:#673E1B"/>
	<stop  offset="0.9758" style="stop-color:#603A17"/>
</linearGradient>
<polygon fill="url(#SVGID_3_)" points="84.97,238.021 85.019,231.814 157.092,232.383 157.048,237.782 "/>
<linearGradient id="SVGID_4_" gradientUnits="userSpaceOnUse" x1="239.7295" y1="926.5947" x2="261.2646" y2="926.5947" gradientTransform="matrix(0.9994 0.0328 -0.0328 0.9994 -42.7437 -723.7599)">
	<stop  offset="0" style="stop-color:#FBED21"/>
	<stop  offset="0.4283" style="stop-color:#FDED0F"/>
	<stop  offset="0.5826" style="stop-color:#FDE700"/>
	<stop  offset="0.6926" style="stop-color:#FFE100"/>
	<stop  offset="0.7815" style="stop-color:#FDD400"/>
	<stop  offset="0.8576" style="stop-color:#FFC512"/>
	<stop  offset="0.925" style="stop-color:#FBB017"/>
	<stop  offset="0.9845" style="stop-color:#F7991F"/>
	<stop  offset="1" style="stop-color:#F79420"/>
</linearGradient>
<polygon fill="url(#SVGID_4_)" points="177.547,200.261 180.651,207.108 188.052,208.432 182.5,213.5 183.527,220.948 
	176.99,217.233 170.226,220.513 171.738,213.148 166.529,207.727 174.001,206.891 "/>
<linearGradient id="SVGID_5_" gradientUnits="userSpaceOnUse" x1="135.7783" y1="917.5605" x2="147.3076" y2="917.5605" gradientTransform="matrix(0.9994 0.0328 -0.0328 0.9994 -42.7437 -723.7599)">
	<stop  offset="0" style="stop-color:#FBED21"/>
	<stop  offset="0.4283" style="stop-color:#FDED0F"/>
	<stop  offset="0.5826" style="stop-color:#FDE700"/>
	<stop  offset="0.6926" style="stop-color:#FFE100"/>
	<stop  offset="0.7815" style="stop-color:#FDD400"/>
	<stop  offset="0.8576" style="stop-color:#FFC512"/>
	<stop  offset="0.925" style="stop-color:#FBB017"/>
	<stop  offset="0.9845" style="stop-color:#F7991F"/>
	<stop  offset="1" style="stop-color:#F79420"/>
</linearGradient>
<polygon fill="url(#SVGID_5_)" points="68.798,192.414 70.46,196.08 74.422,196.788 71.45,199.501 72,203.489 68.5,201.5 
	64.878,203.256 65.688,199.313 62.899,196.411 66.899,195.963 "/>
<linearGradient id="SVGID_6_" gradientUnits="userSpaceOnUse" x1="132.0762" y1="939.1338" x2="153.6113" y2="939.1338" gradientTransform="matrix(0.9994 0.0328 -0.0328 0.9994 -42.7437 -723.7599)">
	<stop  offset="0" style="stop-color:#FBED21"/>
	<stop  offset="0.4283" style="stop-color:#FDED0F"/>
	<stop  offset="0.5826" style="stop-color:#FDE700"/>
	<stop  offset="0.6926" style="stop-color:#FFE100"/>
	<stop  offset="0.7815" style="stop-color:#FDD400"/>
	<stop  offset="0.8576" style="stop-color:#FFC512"/>
	<stop  offset="0.925" style="stop-color:#FBB017"/>
	<stop  offset="0.9845" style="stop-color:#F7991F"/>
	<stop  offset="1" style="stop-color:#F79420"/>
</linearGradient>
<polygon fill="url(#SVGID_6_)" points="69.547,209.261 72.651,216.108 80.052,217.432 74.5,222.5 75.527,229.948 68.99,226.233 
	62.226,229.513 63.738,222.148 58.529,216.727 66.001,215.891 "/>
<linearGradient id="SVGID_7_" gradientUnits="userSpaceOnUse" x1="125.4292" y1="832.6797" x2="146.9648" y2="832.6797" gradientTransform="matrix(0.9994 0.0328 -0.0328 0.9994 -42.7437 -723.7599)">
	<stop  offset="0" style="stop-color:#FBED21"/>
	<stop  offset="0.4283" style="stop-color:#FDED0F"/>
	<stop  offset="0.5826" style="stop-color:#FDE700"/>
	<stop  offset="0.6926" style="stop-color:#FFE100"/>
	<stop  offset="0.7815" style="stop-color:#FDD400"/>
	<stop  offset="0.8576" style="stop-color:#FFC512"/>
	<stop  offset="0.925" style="stop-color:#FBB017"/>
	<stop  offset="0.9845" style="stop-color:#F7991F"/>
	<stop  offset="1" style="stop-color:#F79420"/>
</linearGradient>
<polygon fill="url(#SVGID_7_)" points="66.396,102.652 69.5,109.5 76.9,110.823 71.349,115.892 72.376,123.34 65.839,119.625 
	59.074,122.904 60.587,115.54 55.378,110.118 62.85,109.282 "/>
<linearGradient id="SVGID_8_" gradientUnits="userSpaceOnUse" x1="115.3789" y1="891.7324" x2="131.876" y2="891.7324" gradientTransform="matrix(0.9994 0.0328 -0.0328 0.9994 -42.7437 -723.7599)">
	<stop  offset="0" style="stop-color:#FBED21"/>
	<stop  offset="0.4283" style="stop-color:#FDED0F"/>
	<stop  offset="0.5826" style="stop-color:#FDE700"/>
	<stop  offset="0.6926" style="stop-color:#FFE100"/>
	<stop  offset="0.7815" style="stop-color:#FDD400"/>
	<stop  offset="0.8576" style="stop-color:#FFC512"/>
	<stop  offset="0.925" style="stop-color:#FBB017"/>
	<stop  offset="0.9845" style="stop-color:#F7991F"/>
	<stop  offset="1" style="stop-color:#F79420"/>
</linearGradient>
<polygon fill="url(#SVGID_8_)" points="51.818,163.652 54.196,168.898 59.865,169.912 55.612,173.794 56.399,179.5 51.392,176.654 
	46.209,179.167 47.368,173.525 43.378,169.372 49.102,168.731 "/>
<linearGradient id="SVGID_9_" gradientUnits="userSpaceOnUse" x1="137.6084" y1="862.9785" x2="149.7754" y2="862.9785" gradientTransform="matrix(0.9994 0.0328 -0.0328 0.9994 -42.7437 -723.7599)">
	<stop  offset="0" style="stop-color:#FBED21"/>
	<stop  offset="0.4283" style="stop-color:#FDED0F"/>
	<stop  offset="0.5826" style="stop-color:#FDE700"/>
	<stop  offset="0.6926" style="stop-color:#FFE100"/>
	<stop  offset="0.7815" style="stop-color:#FDD400"/>
	<stop  offset="0.8576" style="stop-color:#FFC512"/>
	<stop  offset="0.925" style="stop-color:#FBB017"/>
	<stop  offset="0.9845" style="stop-color:#F7991F"/>
	<stop  offset="1" style="stop-color:#F79420"/>
</linearGradient>
<polygon fill="url(#SVGID_9_)" points="72.746,137.631 74.5,141.5 78.681,142.248 75.544,145.111 76.125,149.319 72.432,147.22 
	68.61,149.073 69.464,144.912 66.521,141.849 70.743,141.377 "/>
<linearGradient id="SVGID_10_" gradientUnits="userSpaceOnUse" x1="247.1182" y1="877.3232" x2="268.6533" y2="877.3232" gradientTransform="matrix(0.9994 0.0328 -0.0328 0.9994 -42.7437 -723.7599)">
	<stop  offset="0" style="stop-color:#FBED21"/>
	<stop  offset="0.4283" style="stop-color:#FDED0F"/>
	<stop  offset="0.5826" style="stop-color:#FDE700"/>
	<stop  offset="0.6926" style="stop-color:#FFE100"/>
	<stop  offset="0.7815" style="stop-color:#FDD400"/>
	<stop  offset="0.8576" style="stop-color:#FFC512"/>
	<stop  offset="0.925" style="stop-color:#FBB017"/>
	<stop  offset="0.9845" style="stop-color:#F7991F"/>
	<stop  offset="1" style="stop-color:#F79420"/>
</linearGradient>
<polygon fill="url(#SVGID_10_)" points="186.547,151.261 189.651,158.108 197.052,159.432 191.5,164.5 192.527,171.948 
	185.99,168.233 179.226,171.513 180.738,164.148 175.529,158.727 183.001,157.891 "/>
<linearGradient id="SVGID_11_" gradientUnits="userSpaceOnUse" x1="241.4316" y1="824.1367" x2="253.5996" y2="824.1367" gradientTransform="matrix(0.9994 0.0328 -0.0328 0.9994 -42.7437 -723.7599)">
	<stop  offset="0" style="stop-color:#FBED21"/>
	<stop  offset="0.4283" style="stop-color:#FDED0F"/>
	<stop  offset="0.5826" style="stop-color:#FDE700"/>
	<stop  offset="0.6926" style="stop-color:#FFE100"/>
	<stop  offset="0.7815" style="stop-color:#FDD400"/>
	<stop  offset="0.8576" style="stop-color:#FFC512"/>
	<stop  offset="0.925" style="stop-color:#FBB017"/>
	<stop  offset="0.9845" style="stop-color:#F7991F"/>
	<stop  offset="1" style="stop-color:#F79420"/>
</linearGradient>
<polygon fill="url(#SVGID_11_)" points="177.781,102.219 179.535,106.088 183.717,106.835 180.58,109.699 181.16,113.907 
	177.467,111.808 173.646,113.661 174.5,109.5 171.557,106.437 175.778,105.965 "/>
<linearGradient id="SVGID_12_" gradientUnits="userSpaceOnUse" x1="251.5469" y1="832.6973" x2="265.1738" y2="832.6973" gradientTransform="matrix(0.9994 0.0328 -0.0328 0.9994 -42.7437 -723.7599)">
	<stop  offset="0" style="stop-color:#FBED21"/>
	<stop  offset="0.4283" style="stop-color:#FDED0F"/>
	<stop  offset="0.5826" style="stop-color:#FDE700"/>
	<stop  offset="0.6926" style="stop-color:#FFE100"/>
	<stop  offset="0.7815" style="stop-color:#FDD400"/>
	<stop  offset="0.8576" style="stop-color:#FFC512"/>
	<stop  offset="0.925" style="stop-color:#FBB017"/>
	<stop  offset="0.9845" style="stop-color:#F7991F"/>
	<stop  offset="1" style="stop-color:#F79420"/>
</linearGradient>
<polygon fill="url(#SVGID_12_)" points="188.361,110.435 190.326,114.768 195.009,115.605 191.496,118.813 192.146,123.526 
	188.01,121.175 183.729,123.25 184.687,118.59 181.39,115.159 186.118,114.63 "/>
<linearGradient id="SVGID_13_" gradientUnits="userSpaceOnUse" x1="261.2402" y1="940.7656" x2="273.7705" y2="940.7656" gradientTransform="matrix(0.9994 0.0328 -0.0328 0.9994 -42.7437 -723.7599)">
	<stop  offset="0" style="stop-color:#FBED21"/>
	<stop  offset="0.4283" style="stop-color:#FDED0F"/>
	<stop  offset="0.5826" style="stop-color:#FDE700"/>
	<stop  offset="0.6926" style="stop-color:#FFE100"/>
	<stop  offset="0.7815" style="stop-color:#FDD400"/>
	<stop  offset="0.8576" style="stop-color:#FFC512"/>
	<stop  offset="0.925" style="stop-color:#FBB017"/>
	<stop  offset="0.9845" style="stop-color:#F7991F"/>
	<stop  offset="1" style="stop-color:#F79420"/>
</linearGradient>
<polygon fill="url(#SVGID_13_)" points="193.939,219.261 195.746,223.245 200.052,224.015 196.821,226.964 197.419,231.298 
	193.616,229.136 189.68,231.044 190.561,226.759 187.529,223.604 191.877,223.118 "/>
</svg>
