<?xml version="1.0" encoding="utf-8"?>
<!-- Generator: Adobe Illustrator 15.0.0, SVG Export Plug-In . SVG Version: 6.00 Build 0)  -->
<!DOCTYPE svg PUBLIC "-//W3C//DTD SVG 1.1//EN" "http://www.w3.org/Graphics/SVG/1.1/DTD/svg11.dtd">
<svg version="1.1" id="Layer_1" xmlns="http://www.w3.org/2000/svg" xmlns:xlink="http://www.w3.org/1999/xlink" x="0px" y="0px"
	 width="250px" height="400px" viewBox="0 0 250 400" enable-background="new 0 0 250 400" xml:space="preserve">
<linearGradient id="SVGID_1_" gradientUnits="userSpaceOnUse" x1="429.5264" y1="852.3369" x2="430.5757" y2="762.6237" gradientTransform="matrix(1 0 0 1 -345.3203 -653.9502)">
	<stop  offset="0" style="stop-color:#FFFFFF"/>
	<stop  offset="0.2093" style="stop-color:#D2D3D3"/>
	<stop  offset="0.4686" style="stop-color:#A09F9F"/>
	<stop  offset="0.6964" style="stop-color:#7D7D7D"/>
	<stop  offset="0.8812" style="stop-color:#676767"/>
	<stop  offset="1" style="stop-color:#5E5F5F"/>
</linearGradient>
<path fill="url(#SVGID_1_)" d="M85.092,109.692c0,0-6.246,10.847-12.478,14.337c-8.05,4.51-26.441,5.586-26.441,5.586
	s-0.745,19.179,10.429,40.966c7.005,13.664,28.117,34.074,28.117,34.074s17.876-14.71,27.559-33.517
	c15.172-29.467,10.985-41.524,10.985-41.524s-17.873-0.456-25.698-5.028C91.132,120.829,85.092,109.692,85.092,109.692z"/>
<linearGradient id="SVGID_2_" gradientUnits="userSpaceOnUse" x1="391.3193" y1="811.2949" x2="468.9473" y2="811.2949" gradientTransform="matrix(1 0 0 1 -345.3203 -653.9502)">
	<stop  offset="0" style="stop-color:#676868;stop-opacity:0.0568"/>
	<stop  offset="0.1042" style="stop-color:#939393;stop-opacity:0.2524"/>
	<stop  offset="0.2324" style="stop-color:#C2C1C1;stop-opacity:0.4929"/>
	<stop  offset="0.3462" style="stop-color:#E3E3E3;stop-opacity:0.7066"/>
	<stop  offset="0.4402" style="stop-color:#F7F8F8;stop-opacity:0.8828"/>
	<stop  offset="0.5026" style="stop-color:#FFFFFF"/>
	<stop  offset="0.5617" style="stop-color:#F6F6F6;stop-opacity:0.8811"/>
	<stop  offset="0.6565" style="stop-color:#E0E0DF;stop-opacity:0.6906"/>
	<stop  offset="0.775" style="stop-color:#BABABA;stop-opacity:0.4524"/>
	<stop  offset="0.9113" style="stop-color:#848484;stop-opacity:0.1783"/>
	<stop  offset="1" style="stop-color:#5E5F5F;stop-opacity:0"/>
</linearGradient>
<path fill="url(#SVGID_2_)" d="M84.928,109.863c0,0-6.245,10.846-12.478,14.337c-8.05,4.509-26.44,5.586-26.44,5.586
	s-0.746,19.18,10.427,40.966c7.006,13.662,28.118,34.075,28.118,34.075s17.875-14.713,27.557-33.517
	c15.171-29.467,10.986-41.523,10.986-41.523s-17.873-0.456-25.695-5.028C90.967,120.998,84.928,109.863,84.928,109.863z"/>
<linearGradient id="SVGID_3_" gradientUnits="userSpaceOnUse" x1="399.4824" y1="812.2559" x2="462.1006" y2="812.2559" gradientTransform="matrix(1 0 0 1 -345.3203 -653.9502)">
	<stop  offset="0" style="stop-color:#7D4A1E;stop-opacity:0.9859"/>
	<stop  offset="0.1224" style="stop-color:#9A6527;stop-opacity:0.8904"/>
	<stop  offset="0.3861" style="stop-color:#E1A93C;stop-opacity:0.6847"/>
	<stop  offset="0.4819" style="stop-color:#FDC246;stop-opacity:0.61"/>
	<stop  offset="0.6472" style="stop-color:#D7A03A;stop-opacity:0.7345"/>
	<stop  offset="1" style="stop-color:#7D4A1E"/>
</linearGradient>
<path fill="url(#SVGID_3_)" d="M85.562,120.003c0,0-5.037,8.75-10.063,11.566c-6.494,3.636-21.329,4.504-21.329,4.504
	s-0.6,15.472,8.412,33.044c5.65,11.02,22.68,27.49,22.68,27.49s14.422-11.867,22.23-27.039c12.238-23.769,8.862-33.495,8.862-33.495
	s-14.417-0.367-20.727-4.054C90.437,128.987,85.562,120.003,85.562,120.003z"/>
<radialGradient id="SVGID_4_" cx="433.6943" cy="813.5273" r="30.5096" gradientTransform="matrix(1 0 0 1 -345.3203 -653.9502)" gradientUnits="userSpaceOnUse">
	<stop  offset="0.0121" style="stop-color:#414142"/>
	<stop  offset="0.0848" style="stop-color:#6E6F71"/>
	<stop  offset="0.1118" style="stop-color:#646567"/>
	<stop  offset="0.2077" style="stop-color:#464647"/>
	<stop  offset="0.3126" style="stop-color:#2C2C2D"/>
	<stop  offset="0.4279" style="stop-color:#181819"/>
	<stop  offset="0.5594" style="stop-color:#0C0D0D"/>
	<stop  offset="0.7209" style="stop-color:#030303"/>
	<stop  offset="1" style="stop-color:#010101"/>
</radialGradient>
<path fill="url(#SVGID_4_)" d="M98.145,164.03c0,7.723-6.261,13.983-13.983,13.983c-7.723,0-13.983-6.26-13.983-13.983
	c0-7.721,6.259-13.981,13.983-13.981C91.883,150.048,98.145,156.309,98.145,164.03z"/>
<linearGradient id="SVGID_5_" gradientUnits="userSpaceOnUse" x1="448.7754" y1="787.7393" x2="435.3105" y2="803.6695" gradientTransform="matrix(1 0 0 1 -345.3203 -653.9502)">
	<stop  offset="0" style="stop-color:#F6882E"/>
	<stop  offset="0.4819" style="stop-color:#FEE000"/>
	<stop  offset="1" style="stop-color:#F6882E"/>
</linearGradient>
<polygon fill="url(#SVGID_5_)" points="95.184,142.612 97.826,134.282 95.696,142.74 98.214,140.702 96.063,143.093 
	105.036,141.086 96.203,143.575 99.846,144.682 96.063,144.055 102.394,150.374 95.696,144.408 96.713,148.663 95.184,144.535 
	92.546,152.865 94.675,144.408 91.814,147.121 94.303,144.055 85.335,146.064 94.165,143.575 91.545,142.499 94.303,143.093 
	87.973,136.773 94.675,142.74 93.992,139.161 "/>
<linearGradient id="SVGID_6_" gradientUnits="userSpaceOnUse" x1="444.7617" y1="797.916" x2="432.8004" y2="812.0675" gradientTransform="matrix(1 0 0 1 -345.3203 -653.9502)">
	<stop  offset="0" style="stop-color:#BBBCBE"/>
	<stop  offset="0.1547" style="stop-color:#B0B1B3"/>
	<stop  offset="0.4347" style="stop-color:#919293"/>
	<stop  offset="0.8052" style="stop-color:#5F5F60"/>
	<stop  offset="1" style="stop-color:#424242"/>
</linearGradient>
<path fill="url(#SVGID_6_)" d="M89.882,160.144c0,0,5.825-3.423,5.843-5.683c0.015-2.26-4.573-3.198-4.103-5.682
	c0.468-2.483,2.968-3.896,2.968-3.896l-0.297-0.604c0,0-4.239,2.455-3.726,4.644c0.51,2.189,2.76,3.711,3.122,5.598
	c0.368,1.888-4.702,4.184-4.702,4.184s-1.348-0.836-0.232,1.057C89.873,161.65,89.882,160.144,89.882,160.144z"/>
<linearGradient id="SVGID_7_" gradientUnits="userSpaceOnUse" x1="504.3037" y1="833.2158" x2="505.1823" y2="758.0975" gradientTransform="matrix(1 0 0 1 -345.3203 -653.9502)">
	<stop  offset="0" style="stop-color:#FFFFFF"/>
	<stop  offset="0.2093" style="stop-color:#D2D3D3"/>
	<stop  offset="0.4686" style="stop-color:#A09F9F"/>
	<stop  offset="0.6964" style="stop-color:#7D7D7D"/>
	<stop  offset="0.8812" style="stop-color:#676767"/>
	<stop  offset="1" style="stop-color:#5E5F5F"/>
</linearGradient>
<path fill="url(#SVGID_7_)" d="M159.725,105c0,0-5.229,9.083-10.447,12.005c-6.741,3.776-22.141,4.678-22.141,4.678
	s-0.623,16.06,8.732,34.302c5.865,11.441,23.543,28.531,23.543,28.531s14.969-12.316,23.074-28.064
	c12.705-24.674,9.199-34.769,9.199-34.769s-14.965-0.382-21.519-4.21C164.783,114.325,159.725,105,159.725,105z"/>
<linearGradient id="SVGID_8_" gradientUnits="userSpaceOnUse" x1="472.3115" y1="798.8525" x2="537.3115" y2="798.8525" gradientTransform="matrix(1 0 0 1 -345.3203 -653.9502)">
	<stop  offset="0" style="stop-color:#676868;stop-opacity:0.0568"/>
	<stop  offset="0.1042" style="stop-color:#939393;stop-opacity:0.2524"/>
	<stop  offset="0.2324" style="stop-color:#C2C1C1;stop-opacity:0.4929"/>
	<stop  offset="0.3462" style="stop-color:#E3E3E3;stop-opacity:0.7066"/>
	<stop  offset="0.4402" style="stop-color:#F7F8F8;stop-opacity:0.8828"/>
	<stop  offset="0.5026" style="stop-color:#FFFFFF"/>
	<stop  offset="0.5617" style="stop-color:#F6F6F6;stop-opacity:0.8811"/>
	<stop  offset="0.6565" style="stop-color:#E0E0DF;stop-opacity:0.6906"/>
	<stop  offset="0.775" style="stop-color:#BABABA;stop-opacity:0.4524"/>
	<stop  offset="0.9113" style="stop-color:#848484;stop-opacity:0.1783"/>
	<stop  offset="1" style="stop-color:#5E5F5F;stop-opacity:0"/>
</linearGradient>
<path fill="url(#SVGID_8_)" d="M159.588,105.143c0,0-5.229,9.082-10.447,12.005c-6.742,3.776-22.141,4.678-22.141,4.678
	s-0.623,16.06,8.73,34.302c5.867,11.439,23.545,28.533,23.545,28.533s14.968-12.32,23.074-28.066
	c12.703-24.673,9.198-34.769,9.198-34.769s-14.966-0.382-21.516-4.21C164.645,114.467,159.588,105.143,159.588,105.143z"/>
<linearGradient id="SVGID_9_" gradientUnits="userSpaceOnUse" x1="479.1475" y1="799.6563" x2="531.5801" y2="799.6563" gradientTransform="matrix(1 0 0 1 -345.3203 -653.9502)">
	<stop  offset="0" style="stop-color:#7D4A1E;stop-opacity:0.9859"/>
	<stop  offset="0.1224" style="stop-color:#9A6527;stop-opacity:0.8904"/>
	<stop  offset="0.3861" style="stop-color:#E1A93C;stop-opacity:0.6847"/>
	<stop  offset="0.4819" style="stop-color:#FDC246;stop-opacity:0.61"/>
	<stop  offset="0.6472" style="stop-color:#D7A03A;stop-opacity:0.7345"/>
	<stop  offset="1" style="stop-color:#7D4A1E"/>
</linearGradient>
<path fill="url(#SVGID_9_)" d="M160.118,113.634c0,0-4.218,7.327-8.427,9.686c-5.438,3.044-17.857,3.771-17.857,3.771
	s-0.503,12.955,7.043,27.67c4.73,9.227,18.991,23.018,18.991,23.018s12.075-9.938,18.612-22.641
	c10.248-19.902,7.422-28.046,7.422-28.046s-12.072-0.308-17.356-3.395C164.2,121.156,160.118,113.634,160.118,113.634z"/>
<radialGradient id="SVGID_10_" cx="507.792" cy="800.7207" r="25.5495" gradientTransform="matrix(1 0 0 1 -345.3203 -653.9502)" gradientUnits="userSpaceOnUse">
	<stop  offset="0.0121" style="stop-color:#414142"/>
	<stop  offset="0.0848" style="stop-color:#6E6F71"/>
	<stop  offset="0.1118" style="stop-color:#646567"/>
	<stop  offset="0.2077" style="stop-color:#464647"/>
	<stop  offset="0.3126" style="stop-color:#2C2C2D"/>
	<stop  offset="0.4279" style="stop-color:#181819"/>
	<stop  offset="0.5594" style="stop-color:#0C0D0D"/>
	<stop  offset="0.7209" style="stop-color:#030303"/>
	<stop  offset="1" style="stop-color:#010101"/>
</radialGradient>
<path fill="url(#SVGID_10_)" d="M170.654,150.499c0,6.466-5.243,11.708-11.709,11.708c-6.467,0-11.709-5.242-11.709-11.708
	c0-6.465,5.242-11.707,11.709-11.707C165.411,138.792,170.654,144.034,170.654,150.499z"/>
<linearGradient id="SVGID_11_" gradientUnits="userSpaceOnUse" x1="520.4219" y1="779.127" x2="509.1474" y2="792.4658" gradientTransform="matrix(1 0 0 1 -345.3203 -653.9502)">
	<stop  offset="0" style="stop-color:#F6882E"/>
	<stop  offset="0.4819" style="stop-color:#FEE000"/>
	<stop  offset="1" style="stop-color:#F6882E"/>
</linearGradient>
<polygon fill="url(#SVGID_11_)" points="168.175,132.565 170.389,125.59 168.604,132.672 170.713,130.965 168.912,132.968 
	176.425,131.288 169.027,133.371 172.079,134.298 168.912,133.774 174.213,139.065 168.604,134.068 169.456,137.631 
	168.175,134.175 165.967,141.15 167.749,134.068 165.354,136.34 167.438,133.774 159.93,135.456 167.322,133.371 165.129,132.471 
	167.438,132.968 162.139,127.676 167.749,132.672 167.178,129.676 "/>
<linearGradient id="SVGID_12_" gradientUnits="userSpaceOnUse" x1="517.0605" y1="787.6494" x2="507.0443" y2="799.4998" gradientTransform="matrix(1 0 0 1 -345.3203 -653.9502)">
	<stop  offset="0" style="stop-color:#BBBCBE"/>
	<stop  offset="0.1547" style="stop-color:#B0B1B3"/>
	<stop  offset="0.4347" style="stop-color:#919293"/>
	<stop  offset="0.8052" style="stop-color:#5F5F60"/>
	<stop  offset="1" style="stop-color:#424242"/>
</linearGradient>
<path fill="url(#SVGID_12_)" d="M163.736,147.246c0,0,4.877-2.867,4.893-4.759c0.014-1.893-3.829-2.678-3.436-4.758
	c0.392-2.079,2.483-3.262,2.483-3.262l-0.247-0.505c0,0-3.551,2.055-3.121,3.888c0.428,1.833,2.312,3.107,2.613,4.687
	c0.309,1.581-3.938,3.503-3.938,3.503s-1.129-0.701-0.194,0.885C163.729,148.506,163.736,147.246,163.736,147.246z"/>
<linearGradient id="SVGID_13_" gradientUnits="userSpaceOnUse" x1="474.3223" y1="883.1416" x2="475.1676" y2="810.8671" gradientTransform="matrix(1 0 0 1 -345.3203 -653.9502)">
	<stop  offset="0" style="stop-color:#FFFFFF"/>
	<stop  offset="0.2093" style="stop-color:#D2D3D3"/>
	<stop  offset="0.4686" style="stop-color:#A09F9F"/>
	<stop  offset="0.6964" style="stop-color:#7D7D7D"/>
	<stop  offset="0.8812" style="stop-color:#676767"/>
	<stop  offset="1" style="stop-color:#5E5F5F"/>
</linearGradient>
<path fill="url(#SVGID_13_)" d="M129.717,157.739c0,0-5.031,8.738-10.053,11.55c-6.485,3.633-21.301,4.5-21.301,4.5
	s-0.6,15.451,8.402,33.002c5.643,11.008,22.65,27.451,22.65,27.451s14.401-11.852,22.201-27.002
	c12.223-23.738,8.85-33.451,8.85-33.451s-14.397-0.367-20.702-4.051C134.582,166.711,129.717,157.739,129.717,157.739z"/>
<linearGradient id="SVGID_14_" gradientUnits="userSpaceOnUse" x1="443.5439" y1="850.0791" x2="506.0801" y2="850.0791" gradientTransform="matrix(1 0 0 1 -345.3203 -653.9502)">
	<stop  offset="0" style="stop-color:#676868;stop-opacity:0.0568"/>
	<stop  offset="0.1042" style="stop-color:#939393;stop-opacity:0.2524"/>
	<stop  offset="0.2324" style="stop-color:#C2C1C1;stop-opacity:0.4929"/>
	<stop  offset="0.3462" style="stop-color:#E3E3E3;stop-opacity:0.7066"/>
	<stop  offset="0.4402" style="stop-color:#F7F8F8;stop-opacity:0.8828"/>
	<stop  offset="0.5026" style="stop-color:#FFFFFF"/>
	<stop  offset="0.5617" style="stop-color:#F6F6F6;stop-opacity:0.8811"/>
	<stop  offset="0.6565" style="stop-color:#E0E0DF;stop-opacity:0.6906"/>
	<stop  offset="0.775" style="stop-color:#BABABA;stop-opacity:0.4524"/>
	<stop  offset="0.9113" style="stop-color:#848484;stop-opacity:0.1783"/>
	<stop  offset="1" style="stop-color:#5E5F5F;stop-opacity:0"/>
</linearGradient>
<path fill="url(#SVGID_14_)" d="M129.584,157.877c0,0-5.031,8.738-10.052,11.55c-6.485,3.632-21.3,4.5-21.3,4.5
	s-0.601,15.452,8.399,33.003c5.644,11.006,22.652,27.451,22.652,27.451s14.4-11.854,22.199-27.004
	c12.223-23.737,8.852-33.45,8.852-33.45s-14.4-0.367-20.701-4.051C134.449,166.847,129.584,157.877,129.584,157.877z"/>
<linearGradient id="SVGID_15_" gradientUnits="userSpaceOnUse" x1="450.1201" y1="850.8535" x2="500.5645" y2="850.8535" gradientTransform="matrix(1 0 0 1 -345.3203 -653.9502)">
	<stop  offset="0" style="stop-color:#7D4A1E;stop-opacity:0.9859"/>
	<stop  offset="0.1224" style="stop-color:#9A6527;stop-opacity:0.8904"/>
	<stop  offset="0.3861" style="stop-color:#E1A93C;stop-opacity:0.6847"/>
	<stop  offset="0.4819" style="stop-color:#FDC246;stop-opacity:0.61"/>
	<stop  offset="0.6472" style="stop-color:#D7A03A;stop-opacity:0.7345"/>
	<stop  offset="1" style="stop-color:#7D4A1E"/>
</linearGradient>
<path fill="url(#SVGID_15_)" d="M130.096,166.046c0,0-4.059,7.049-8.107,9.318c-5.232,2.929-17.183,3.628-17.183,3.628
	s-0.483,12.464,6.777,26.622c4.552,8.877,18.271,22.146,18.271,22.146s11.617-9.563,17.908-21.783
	c9.857-19.147,7.139-26.983,7.139-26.983s-11.613-0.296-16.696-3.266C134.021,173.283,130.096,166.046,130.096,166.046z"/>
<radialGradient id="SVGID_16_" cx="477.6797" cy="851.8779" r="24.5815" gradientTransform="matrix(1 0 0 1 -345.3203 -653.9502)" gradientUnits="userSpaceOnUse">
	<stop  offset="0.0121" style="stop-color:#414142"/>
	<stop  offset="0.0848" style="stop-color:#6E6F71"/>
	<stop  offset="0.1118" style="stop-color:#646567"/>
	<stop  offset="0.2077" style="stop-color:#464647"/>
	<stop  offset="0.3126" style="stop-color:#2C2C2D"/>
	<stop  offset="0.4279" style="stop-color:#181819"/>
	<stop  offset="0.5594" style="stop-color:#0C0D0D"/>
	<stop  offset="0.7209" style="stop-color:#030303"/>
	<stop  offset="1" style="stop-color:#010101"/>
</radialGradient>
<path fill="url(#SVGID_16_)" d="M140.23,201.514c0,6.221-5.043,11.267-11.265,11.267c-6.223,0-11.265-5.046-11.265-11.267
	c0-6.22,5.042-11.264,11.265-11.264C135.188,190.25,140.23,195.294,140.23,201.514z"/>
<linearGradient id="SVGID_17_" gradientUnits="userSpaceOnUse" x1="489.8301" y1="831.1006" x2="478.9833" y2="843.9333" gradientTransform="matrix(1 0 0 1 -345.3203 -653.9502)">
	<stop  offset="0" style="stop-color:#F6882E"/>
	<stop  offset="0.4819" style="stop-color:#FEE000"/>
	<stop  offset="1" style="stop-color:#F6882E"/>
</linearGradient>
<polygon fill="url(#SVGID_17_)" points="137.848,184.26 139.977,177.549 138.259,184.363 140.288,182.721 138.557,184.647 
	145.783,183.031 138.667,185.035 141.604,185.927 138.557,185.422 143.654,190.514 138.259,185.706 139.079,189.134 
	137.848,185.809 135.723,192.52 137.438,185.706 135.132,187.892 137.137,185.422 129.912,187.041 137.025,185.035 134.916,184.169 
	137.137,184.647 132.037,179.556 137.438,184.363 136.887,181.48 "/>
<linearGradient id="SVGID_18_" gradientUnits="userSpaceOnUse" x1="486.5967" y1="839.3018" x2="476.9612" y2="850.7015" gradientTransform="matrix(1 0 0 1 -345.3203 -653.9502)">
	<stop  offset="0" style="stop-color:#BBBCBE"/>
	<stop  offset="0.1547" style="stop-color:#B0B1B3"/>
	<stop  offset="0.4347" style="stop-color:#919293"/>
	<stop  offset="0.8052" style="stop-color:#5F5F60"/>
	<stop  offset="1" style="stop-color:#424242"/>
</linearGradient>
<path fill="url(#SVGID_18_)" d="M133.576,198.384c0,0,4.691-2.758,4.707-4.579c0.012-1.82-3.684-2.576-3.307-4.576
	c0.377-2,2.392-3.14,2.392-3.14l-0.239-0.486c0,0-3.415,1.978-3.002,3.741c0.41,1.764,2.225,2.989,2.516,4.51
	c0.297,1.521-3.789,3.371-3.789,3.371s-1.086-0.675-0.188,0.852C133.568,199.596,133.576,198.384,133.576,198.384z"/>
</svg>
