<?xml version="1.0" encoding="utf-8"?>
<!-- Generator: Adobe Illustrator 15.0.0, SVG Export Plug-In . SVG Version: 6.00 Build 0)  -->
<!DOCTYPE svg PUBLIC "-//W3C//DTD SVG 1.1//EN" "http://www.w3.org/Graphics/SVG/1.1/DTD/svg11.dtd">
<svg version="1.1" id="Layer_1" xmlns="http://www.w3.org/2000/svg" xmlns:xlink="http://www.w3.org/1999/xlink" x="0px" y="0px"
	 width="250px" height="400px" viewBox="0 0 250 400" enable-background="new 0 0 250 400" xml:space="preserve">
<g>
	
		<linearGradient id="SVGID_1_" gradientUnits="userSpaceOnUse" x1="466.7324" y1="679.7158" x2="466.9365" y2="648.1531" gradientTransform="matrix(1 0 0 1 -345.3203 -440.9199)">
		<stop  offset="0.0044" style="stop-color:#76C045"/>
		<stop  offset="0.1834" style="stop-color:#77BD43"/>
		<stop  offset="0.4065" style="stop-color:#7DB742"/>
		<stop  offset="0.6531" style="stop-color:#83AD40"/>
		<stop  offset="0.9148" style="stop-color:#839C3C"/>
		<stop  offset="1" style="stop-color:#82963A"/>
	</linearGradient>
	<path fill="url(#SVGID_1_)" d="M214.977,207.434c-0.02,0.78-0.028,1.548-0.049,2.305c-0.068,3.124-0.178,6.05-0.332,8.647
		c0,0.055-0.01,0.116-0.01,0.17c-0.313,5.687-0.83,9.784-1.545,11.054c-0.01,0.007-0.01,0.007-0.01,0.013
		c-0.361,0.223-0.742,0.44-1.123,0.646c-6.822,3.778-16.088,5.874-25.527,7.023c-2.238,0.265-4.496,0.483-6.725,0.657
		c-14.475,1.125-28.078,0.382-32.438,0.382c-1.563,0-5.073-0.014-9.715-0.024c-7.319-0.024-17.426-0.073-27.131-0.115
		c-15.695-0.073-30.295-0.14-30.295-0.14s-7.467,0.472-16.654,0.242c-0.576-0.019-1.163-0.038-1.76-0.055
		c-0.85-0.03-1.7-0.066-2.569-0.115c-9.733-0.502-20.328-1.94-25.653-5.585c-1.613-1.1-2.736-2.405-3.216-3.953
		c-0.616-1.964-1.056-5.005-1.397-8.764c-0.039-0.411-0.068-0.835-0.098-1.27c-0.244-3.295-0.4-7.079-0.479-11.121h186.726V207.434
		L214.977,207.434z"/>
	
		<linearGradient id="SVGID_2_" gradientUnits="userSpaceOnUse" x1="1028.793" y1="-1041.5127" x2="1128.5088" y2="-1041.5127" gradientTransform="matrix(1 0 0 -1 -963.3008 -814.8496)">
		<stop  offset="0" style="stop-color:#F8EB32"/>
		<stop  offset="0.0525" style="stop-color:#F8E42E"/>
		<stop  offset="0.3253" style="stop-color:#F7C129"/>
		<stop  offset="0.5815" style="stop-color:#F7A721"/>
		<stop  offset="0.8123" style="stop-color:#F59722"/>
		<stop  offset="0.9956" style="stop-color:#F69321"/>
	</linearGradient>
	<path fill="url(#SVGID_2_)" d="M65.492,218.409l0.063,8.079c0,0,15.105,8.688,50.09,8.423c36.313-0.271,49.563-7.895,49.563-7.895
		l-0.267-7.897c0,0-28.623,8.421-49.028,7.897C90.691,226.364,65.492,218.409,65.492,218.409z"/>
	
		<linearGradient id="SVGID_3_" gradientUnits="userSpaceOnUse" x1="1028.3262" y1="-1033.9648" x2="1128.2422" y2="-1033.9648" gradientTransform="matrix(1 0 0 -1 -963.3008 -814.8496)">
		<stop  offset="0" style="stop-color:#F69321"/>
		<stop  offset="1" style="stop-color:#EF4137"/>
	</linearGradient>
	<path fill="url(#SVGID_3_)" d="M65.025,217.802c0,0,0.111,0.228,0.469,0.605c1.953,2.087,11.207,8.826,49.093,8.607
		c45.587-0.264,50.354-8.951,50.354-8.951s-7.156-6.582-50.092-6.846C70.057,210.945,65.025,217.802,65.025,217.802z"/>
	
		<linearGradient id="SVGID_4_" gradientUnits="userSpaceOnUse" x1="467.1191" y1="650.6504" x2="466.4353" y2="524.1055" gradientTransform="matrix(1 0 0 1 -345.3203 -440.9199)">
		<stop  offset="0" style="stop-color:#DBDCEF"/>
		<stop  offset="0.9956" style="stop-color:#7BCDF3"/>
	</linearGradient>
	<path fill="url(#SVGID_4_)" d="M214.977,188.293v0.27c-0.02,1.253-0.028,2.485-0.049,3.7c-0.068,5.018-0.178,9.717-0.332,13.89
		c0,0.087-0.01,0.185-0.01,0.271H28.73c-0.246-5.29-0.4-11.368-0.48-17.86c-0.067-6.319-0.067-13.046-0.01-19.841
		c0.108-13.667,0.47-27.655,0.988-39.361v-0.039c0.176-4.029,0.37-7.785,0.577-11.174c0.488-8.028,1.056-13.93,1.642-16.279
		c1.369-5.435,13.008-7.182,24.502-7.551c3.84-0.117,7.67-0.087,11.092,0.009c2.678,0.079,5.111,0.195,7.104,0.312
		c3.382,0.192,5.522,0.397,5.522,0.397s13.927-2.319,39.631-2.688c8.863-0.145,19.136-0.029,30.716,0.465
		c3.432-0.271,7.065-0.494,10.85-0.63c5.961-0.213,12.197-0.204,18.188,0.117c3.605,0.194,7.125,0.514,10.447,0.961
		c12.383,1.67,22.049,5.261,23.271,11.919c0.332,1.797,0.635,5.136,0.908,9.592c0.485,7.958,0.868,19.462,1.094,32.061v0.01
		c0.098,5.213,0.166,10.62,0.205,16.037C215.064,171.548,215.055,180.265,214.977,188.293z"/>
	
		<linearGradient id="SVGID_5_" gradientUnits="userSpaceOnUse" x1="871.3115" y1="-1227.9878" x2="880.0098" y2="-1227.9878" gradientTransform="matrix(0.9732 -0.2301 -0.2301 -0.9732 -984.2211 -802.5879)">
		<stop  offset="0" style="stop-color:#282560"/>
		<stop  offset="1" style="stop-color:#282560"/>
	</linearGradient>
	<polygon fill="url(#SVGID_5_)" points="154.162,187.749 153.934,186.445 148.262,192.839 147.148,195.552 149.191,194.9 	"/>
	
		<linearGradient id="SVGID_6_" gradientUnits="userSpaceOnUse" x1="1037.0586" y1="-974.5557" x2="1125.4717" y2="-974.5557" gradientTransform="matrix(1 0 0 -1 -963.3008 -814.8496)">
		<stop  offset="0" style="stop-color:#8CC541"/>
		<stop  offset="0.02" style="stop-color:#81C241"/>
		<stop  offset="0.0952" style="stop-color:#5FB546"/>
		<stop  offset="0.1785" style="stop-color:#42AA48"/>
		<stop  offset="0.2703" style="stop-color:#2BA349"/>
		<stop  offset="0.3741" style="stop-color:#1B9B48"/>
		<stop  offset="0.4971" style="stop-color:#0C9648"/>
		<stop  offset="0.6574" style="stop-color:#099547"/>
		<stop  offset="0.9956" style="stop-color:#059347"/>
	</linearGradient>
	<path fill="url(#SVGID_6_)" d="M73.758,157.82l42.479-1.373l45.934,3.087c-24.254,3.02-24.021,3.43-44.551,3.43
		C99.66,162.966,73.758,157.82,73.758,157.82z"/>
	
		<linearGradient id="SVGID_7_" gradientUnits="userSpaceOnUse" x1="1033.6055" y1="-944.543" x2="1125.4697" y2="-944.543" gradientTransform="matrix(1 0 0 -1 -963.3008 -814.8496)">
		<stop  offset="0" style="stop-color:#8CC541"/>
		<stop  offset="0.559" style="stop-color:#40AA48"/>
		<stop  offset="0.9956" style="stop-color:#059347"/>
	</linearGradient>
	<path fill="url(#SVGID_7_)" d="M117.619,99.851c0,0-14.502,24.942-20.721,32.243c-7.599,8.919-26.594,20.582-26.594,20.582
		l0.346,5.145l47.659-1.372l43.86,3.087l-0.688-8.232c0,0-16.576-8.576-24.865-16.808
		C126.309,124.259,117.619,99.851,117.619,99.851z"/>
	
		<linearGradient id="SVGID_8_" gradientUnits="userSpaceOnUse" x1="1067.623" y1="-939.6973" x2="1091.1953" y2="-939.6973" gradientTransform="matrix(1 0 0 -1 -963.3008 -814.8496)">
		<stop  offset="0" style="stop-color:#F8EB32"/>
		<stop  offset="0.0525" style="stop-color:#F8E42E"/>
		<stop  offset="0.3253" style="stop-color:#F7C129"/>
		<stop  offset="0.5815" style="stop-color:#F7A721"/>
		<stop  offset="0.8123" style="stop-color:#F59722"/>
		<stop  offset="0.9956" style="stop-color:#F69321"/>
	</linearGradient>
	<polygon fill="url(#SVGID_8_)" points="117.619,99.592 104.322,149.845 117.533,150.103 127.895,149.845 	"/>
	
		<linearGradient id="SVGID_9_" gradientUnits="userSpaceOnUse" x1="1045.6074" y1="-940.7266" x2="1081.1787" y2="-940.7266" gradientTransform="matrix(1 0 0 -1 -963.3008 -814.8496)">
		<stop  offset="0" style="stop-color:#F8EB32"/>
		<stop  offset="0.0525" style="stop-color:#F8E42E"/>
		<stop  offset="0.3253" style="stop-color:#F7C129"/>
		<stop  offset="0.5815" style="stop-color:#F7A721"/>
		<stop  offset="0.8123" style="stop-color:#F59722"/>
		<stop  offset="0.9956" style="stop-color:#F69321"/>
	</linearGradient>
	<polygon fill="url(#SVGID_9_)" points="117.878,100.108 92.406,150.616 82.306,151.646 98.365,131.066 	"/>
	
		<linearGradient id="SVGID_10_" gradientUnits="userSpaceOnUse" x1="-637.4795" y1="-940.5977" x2="-604.8428" y2="-940.5977" gradientTransform="matrix(-1 0 0 -1 -487.3096 -814.8496)">
		<stop  offset="0" style="stop-color:#F8EB32"/>
		<stop  offset="0.0525" style="stop-color:#F8E42E"/>
		<stop  offset="0.3253" style="stop-color:#F7C129"/>
		<stop  offset="0.5815" style="stop-color:#F7A721"/>
		<stop  offset="0.8123" style="stop-color:#F59722"/>
		<stop  offset="0.9956" style="stop-color:#F69321"/>
	</linearGradient>
	<polygon fill="url(#SVGID_10_)" points="117.533,99.851 136.699,150.36 150.17,151.646 135.406,131.066 	"/>
	
		<linearGradient id="SVGID_11_" gradientUnits="userSpaceOnUse" x1="-1045.3638" y1="-703.8242" x2="-1036.6675" y2="-703.8242" gradientTransform="matrix(-0.9599 -0.2802 0.2802 -0.9599 -713.865 -779.87)">
		<stop  offset="0" style="stop-color:#282560"/>
		<stop  offset="1" style="stop-color:#282560"/>
	</linearGradient>
	<polygon fill="url(#SVGID_11_)" points="84.781,184.002 85.078,182.711 90.408,189.388 91.38,192.157 89.373,191.4 	"/>
	
		<linearGradient id="SVGID_12_" gradientUnits="userSpaceOnUse" x1="1084.8936" y1="-992.4331" x2="1100.5801" y2="-992.4331" gradientTransform="matrix(1 0 0 -1 -963.3008 -814.8496)">
		<stop  offset="0" style="stop-color:#282560"/>
		<stop  offset="1" style="stop-color:#282560"/>
	</linearGradient>
	<polygon fill="url(#SVGID_12_)" points="137.137,173.382 137.279,171.002 124.676,179.873 121.593,184.165 125.445,183.863 	"/>
	
		<linearGradient id="SVGID_13_" gradientUnits="userSpaceOnUse" x1="854.3262" y1="-1236.2207" x2="887.2432" y2="-1236.2207" gradientTransform="matrix(0.9732 -0.2301 -0.2301 -0.9732 -984.2211 -802.5879)">
		<stop  offset="0" style="stop-color:#29ABE2"/>
		<stop  offset="0.0986" style="stop-color:#2B95D2"/>
		<stop  offset="0.2843" style="stop-color:#3970B7"/>
		<stop  offset="0.4695" style="stop-color:#4A56A5"/>
		<stop  offset="0.652" style="stop-color:#594099"/>
		<stop  offset="0.8304" style="stop-color:#633393"/>
		<stop  offset="1" style="stop-color:#652F8F"/>
	</linearGradient>
	<path fill="url(#SVGID_13_)" d="M162.277,191.075c-0.174-0.732-2.941-0.689-2.941-0.689l-3.438-2.106l-1.717-2.667l-0.615,2.6
		c0,0-3.012,5.313-4.641,6.457c-1.902,1.338-8.962,2.566-8.962,2.566l-2.299,0.078l-1.772,1.643c0,0-3.549,1.703-4.115,2.809
		c-0.332,0.642-0.152,2.206,0.07,2.896c0.213,0.651,1.021,1.812,1.207,2.476c0.215,0.768,0.143,3.187,0.143,3.187
		s2.186-1.342,2.434-2.104c0.301-0.924-0.88-2.805-0.898-3.775c-0.021-0.986,1.377-3.694,1.377-3.694s-0.028,2.29,0.162,3.024
		c0.174,0.666,0.692,2.017,1.207,2.478c0.279,0.25,1.377,0.596,1.377,0.596s-0.549,1.427-0.791,1.875
		c-0.688,1.278-3.233,4.825-3.233,4.825l1.978,2.145l3.723-5.711l1.684-3.309l0.212-2.351c0,0,0.536,1.388,0.944,1.626
		c1.152,0.669,4.123,0.597,5.338,0.051c1.02-0.46,3.408-2.873,3.408-2.873s0.35,1.594,0.797,1.801
		c0.785,0.37,2.596-0.721,3.434-0.499c1.111,0.297,3.609,2.834,3.609,2.834l1.396,1.97l2.674-1.087c0,0-1.228-2.808-1.922-3.537
		c-0.838-0.884-4.16-2.549-4.16-2.549s-1.162-1.792-1.205-2.479c-0.063-0.931,0.938-2.788,0.666-3.683
		c-0.148-0.499-1.063-1.142-1.439-1.503c-0.303-0.29-1.076-1.278-1.076-1.278l3.125,0.799c0,0,2.379,0.037,2.992-0.395
		c0.623-0.438,1.383-2.698,1.383-2.698L162.277,191.075z"/>
	
		<linearGradient id="SVGID_14_" gradientUnits="userSpaceOnUse" x1="-1062.3535" y1="-712.0615" x2="-1029.4443" y2="-712.0615" gradientTransform="matrix(-0.9599 -0.2802 0.2802 -0.9599 -713.865 -779.87)">
		<stop  offset="0" style="stop-color:#754D29"/>
		<stop  offset="0.3304" style="stop-color:#734B28"/>
		<stop  offset="0.5602" style="stop-color:#6A4524"/>
		<stop  offset="0.7595" style="stop-color:#5B3A20"/>
		<stop  offset="0.9403" style="stop-color:#442A18"/>
		<stop  offset="1" style="stop-color:#3B2416"/>
	</linearGradient>
	<path fill="url(#SVGID_14_)" d="M76.503,186.908c0.211-0.721,2.976-0.537,2.976-0.537l3.541-1.927l1.852-2.572l0.479,2.628
		c0,0,2.729,5.458,4.298,6.686c1.832,1.433,8.815,3.022,8.815,3.022l2.291,0.195l1.683,1.732c0,0,3.457,1.884,3.967,3.015
		c0.299,0.663,0.039,2.213-0.224,2.89c-0.247,0.643-1.116,1.762-1.333,2.411c-0.255,0.759-0.309,3.177-0.309,3.177
		s-2.112-1.453-2.318-2.228c-0.251-0.939,1.023-2.757,1.096-3.726c0.07-0.98-1.185-3.757-1.185-3.757s-0.091,2.287-0.32,3.012
		c-0.209,0.655-0.798,1.978-1.335,2.412c-0.292,0.233-1.406,0.525-1.406,0.525s0.473,1.451,0.69,1.909
		c0.622,1.313,2.979,4.989,2.979,4.989l-2.086,2.038l-3.418-5.893l-1.508-3.39l-0.09-2.359c0,0-0.609,1.355-1.027,1.572
		c-1.187,0.607-4.149,0.384-5.334-0.225c-0.992-0.513-3.254-3.043-3.254-3.043s-0.433,1.571-0.892,1.758
		c-0.804,0.326-2.554-0.853-3.399-0.675c-1.125,0.237-3.754,2.645-3.754,2.645l-1.496,1.897l-2.615-1.224
		c0,0,1.373-2.738,2.105-3.431c0.883-0.84,4.285-2.335,4.285-2.335s1.254-1.727,1.334-2.411c0.107-0.931-0.792-2.833-0.475-3.713
		c0.177-0.489,1.123-1.088,1.516-1.427c0.316-0.274,1.143-1.223,1.143-1.223l-3.16,0.637c0,0-2.377-0.085-2.973-0.548
		c-0.597-0.469-1.238-2.766-1.238-2.766L76.503,186.908z"/>
	<line fill="none" stroke="#2A3B8F" stroke-width="2" stroke-miterlimit="10" x1="89.804" y1="157.307" x2="89.804" y2="213.904"/>
	
		<line fill="none" stroke="#2A3B8F" stroke-width="2" stroke-miterlimit="10" x1="147.742" y1="158.506" x2="147.742" y2="216.508"/>
	
		<linearGradient id="SVGID_15_" gradientUnits="userSpaceOnUse" x1="1058.2852" y1="-1000.9717" x2="1101.8008" y2="-1000.9717" gradientTransform="matrix(1 0 0 -1 -963.3008 -814.8496)">
		<stop  offset="0" style="stop-color:#F15B2A"/>
		<stop  offset="1" style="stop-color:#EF7BAE"/>
	</linearGradient>
	<path fill="url(#SVGID_15_)" d="M94.984,150.104H138.5c0,0-11.204,19.144-12.95,26.24c-2.584,10.5-1.036,43.222-1.036,43.222
		s-5.725,2.48-7.771,2.572c-2.26,0.103-8.807-2.057-8.807-2.057s0.865-33.062-1.554-43.736
		C104.803,169.374,94.984,150.104,94.984,150.104z"/>
	
		<linearGradient id="SVGID_16_" gradientUnits="userSpaceOnUse" x1="1056.2422" y1="-1004.7568" x2="1115.5293" y2="-1004.7568" gradientTransform="matrix(1 0.0017 0.0017 -1 -963.2103 -814.8671)">
		<stop  offset="0" style="stop-color:#9E2064"/>
		<stop  offset="0.3325" style="stop-color:#9C2066"/>
		<stop  offset="0.5638" style="stop-color:#93226C"/>
		<stop  offset="0.7643" style="stop-color:#832779"/>
		<stop  offset="0.9463" style="stop-color:#6D2D8B"/>
		<stop  offset="1" style="stop-color:#652F8F"/>
	</linearGradient>
	<path fill="url(#SVGID_16_)" d="M150.324,181.91c0.004-1.35-4.863-2.426-4.863-2.426l-5.131-5.11l-1.883-5.378l-2.174,4.294
		c0,0-7.5,8.054-10.834,9.385c-3.896,1.553-16.771,0.777-16.771,0.777l-4.055-0.813l-3.791,2.145c0,0-6.93,1.511-8.388,3.206
		c-0.853,0.993-1.198,3.802-1.094,5.105c0.101,1.234,1.03,3.6,1.075,4.836c0.053,1.436-1.092,5.64-1.092,5.64
		s4.393-1.443,5.146-2.674c0.912-1.495-0.362-5.278,0.013-6.986c0.377-1.732,3.959-5.895,3.959-5.895s-1.01,4-0.986,5.36
		c0.024,1.239,0.367,3.821,1.074,4.835c0.387,0.556,2.162,1.616,2.162,1.616s-1.56,2.27-2.17,2.953
		c-1.744,1.95-7.691,7.112-7.691,7.112l2.562,4.571l8.91-8.455l4.337-5.095l1.359-4.027c0,0,0.356,2.651,0.972,3.229
		c1.737,1.65,6.967,2.755,9.327,2.302c1.977-0.382,7.174-3.615,7.174-3.615s-0.055,2.933,0.641,3.486
		c1.22,0.97,4.849-0.188,6.22,0.549c1.821,0.976,5.129,6.458,5.129,6.458l1.615,4.026l5.142-0.795c0,0-0.974-5.42-1.884-6.985
		c-1.097-1.894-6.209-6.188-6.209-6.188s-1.283-3.62-1.072-4.839c0.287-1.66,2.813-4.491,2.718-6.173
		c-0.057-0.932-1.385-2.441-1.889-3.227c-0.406-0.635-1.352-2.688-1.352-2.688l5.136,2.693c0,0,4.146,1.051,5.41,0.546
		c1.271-0.507,3.553-4.151,3.553-4.151L150.324,181.91z"/>
	<line fill="none" stroke="#2A3B8F" stroke-width="2" stroke-miterlimit="10" x1="116.225" y1="156.45" x2="116.225" y2="224.195"/>
	
		<linearGradient id="SVGID_17_" gradientUnits="userSpaceOnUse" x1="1033.6055" y1="-969.1475" x2="1125.4707" y2="-969.1475" gradientTransform="matrix(1 0 0 -1 -963.3008 -814.8496)">
		<stop  offset="0" style="stop-color:#F8EB32"/>
		<stop  offset="0.0525" style="stop-color:#F8E42E"/>
		<stop  offset="0.3253" style="stop-color:#F7C129"/>
		<stop  offset="0.5815" style="stop-color:#F7A721"/>
		<stop  offset="0.8123" style="stop-color:#F59722"/>
		<stop  offset="0.9956" style="stop-color:#F69321"/>
	</linearGradient>
	<path fill="url(#SVGID_17_)" d="M70.304,152.418l0.345,5.146l46.107-1.543l45.414,2.745l-0.088-6.089
		c0,0-32.377-3.087-47.399-2.831C103.57,150.036,70.304,152.418,70.304,152.418z"/>
</g>
</svg>
