<?xml version="1.0" encoding="utf-8"?>
<!-- Generator: Adobe Illustrator 15.0.0, SVG Export Plug-In . SVG Version: 6.00 Build 0)  -->
<!DOCTYPE svg PUBLIC "-//W3C//DTD SVG 1.1//EN" "http://www.w3.org/Graphics/SVG/1.1/DTD/svg11.dtd">
<svg version="1.1" id="Layer_1" xmlns="http://www.w3.org/2000/svg" xmlns:xlink="http://www.w3.org/1999/xlink" x="0px" y="0px"
	 width="250px" height="400px" viewBox="0 0 250 400" enable-background="new 0 0 250 400" xml:space="preserve">
<linearGradient id="SVGID_1_" gradientUnits="userSpaceOnUse" x1="463.4775" y1="877.8945" x2="464.0533" y2="832.401" gradientTransform="matrix(1 0 0 1 -345.3203 -658.2158)">
	<stop  offset="0" style="stop-color:#250D0E"/>
	<stop  offset="0.1011" style="stop-color:#2B1010"/>
	<stop  offset="0.2618" style="stop-color:#3D1313"/>
	<stop  offset="0.462" style="stop-color:#671012"/>
	<stop  offset="0.6938" style="stop-color:#9D1D20"/>
	<stop  offset="0.9495" style="stop-color:#DD1F26"/>
	<stop  offset="1" style="stop-color:#EB2227"/>
</linearGradient>
<ellipse fill="url(#SVGID_1_)" cx="118.473" cy="194.771" rx="61.472" ry="26.922"/>
<linearGradient id="SVGID_2_" gradientUnits="userSpaceOnUse" x1="462.6582" y1="878.1836" x2="463.1447" y2="839.7477" gradientTransform="matrix(1 0 0 1 -345.3203 -658.2158)">
	<stop  offset="0" style="stop-color:#250D0E"/>
	<stop  offset="0.1539" style="stop-color:#2A0F10"/>
	<stop  offset="0.3739" style="stop-color:#371312"/>
	<stop  offset="0.6335" style="stop-color:#590E0F"/>
	<stop  offset="0.9213" style="stop-color:#861719"/>
	<stop  offset="1" style="stop-color:#931A1D"/>
</linearGradient>
<path fill="url(#SVGID_2_)" d="M176.777,199.234c0,12.563-28.498,22.459-57.187,22.459c-28.684,0-61.153-11.049-61.153-23.609
	c0-12.563,32.469-21.882,61.153-21.882C148.279,176.203,176.777,186.673,176.777,199.234z"/>
<radialGradient id="SVGID_3_" cx="463.5879" cy="851.8369" r="37.2193" gradientTransform="matrix(1 0 0 1 -345.3203 -658.2158)" gradientUnits="userSpaceOnUse">
	<stop  offset="0" style="stop-color:#FEE000"/>
	<stop  offset="1" style="stop-color:#FCBA3F"/>
</radialGradient>
<path fill="url(#SVGID_3_)" d="M76.35,213.573c10.68,4.983,25.148,8.139,41.165,8.391c0.698,0.015,1.398,0.019,2.101,0.019
	c15.224,0,29.151-2.615,39.917-6.955c2.003-4.172,3.076-8.764,3.076-13.418c-0.012-4.586-1.051-8.973-2.943-13.006
	c-1.895-4.04-4.639-7.733-8.053-10.931c-8.127-7.61-20.055-12.413-33.346-12.413c-13.291,0-25.218,4.802-33.344,12.412
	c-3.281,3.072-5.944,6.603-7.827,10.458c-1.882,3.856-2.984,8.039-3.149,12.414C73.782,205.006,74.627,209.475,76.35,213.573z"/>
<radialGradient id="SVGID_4_" cx="464.3408" cy="815.7051" r="39.7713" gradientTransform="matrix(1 0 0 1 -345.3203 -658.2158)" gradientUnits="userSpaceOnUse">
	<stop  offset="0" style="stop-color:#FEE000"/>
	<stop  offset="1" style="stop-color:#FCBA3F"/>
</radialGradient>
<path fill="url(#SVGID_4_)" d="M85.74,187.469c8.224,7.68,19.912,1.401,33.105,1.401c13.193,0,25.239,6.274,33.461-1.405
	c4.834-4.513,8.409-10.017,10.256-16.106c0.924-3.045,1.416-6.237,1.416-9.53c0-3.327-0.502-6.555-1.445-9.632
	c-1.854-6.045-5.415-11.509-10.221-15.999c-8.227-7.681-20.097-12.505-33.292-12.505c-13.194,0-25.059,4.821-33.285,12.501
	c-4.806,4.487-8.369,9.952-10.225,16c-0.944,3.077-1.448,6.308-1.448,9.635c0,3.293,0.492,6.485,1.415,9.53
	C77.326,177.451,80.903,182.954,85.74,187.469z"/>
<linearGradient id="SVGID_5_" gradientUnits="userSpaceOnUse" x1="447.8984" y1="777.1191" x2="447.8984" y2="814.5502" gradientTransform="matrix(1 0 0 1 -345.3203 -658.2158)">
	<stop  offset="0.0242" style="stop-color:#FDF9E8"/>
	<stop  offset="0.2385" style="stop-color:#FCF7C9"/>
	<stop  offset="0.5771" style="stop-color:#FAF4A0"/>
	<stop  offset="0.8425" style="stop-color:#F9F187"/>
	<stop  offset="1" style="stop-color:#F9F07C"/>
</linearGradient>
<path fill="url(#SVGID_5_)" d="M91.182,153.063c3.026,3.288,7.019,5.287,11.396,5.287c4.375,0,8.365-1.999,11.395-5.287
	c2.345-2.548,4.113-5.874,5.03-9.642c0.46-1.883,0.706-3.881,0.706-5.946c0-2.027-0.236-3.984-0.679-5.84
	c-0.909-3.812-2.688-7.175-5.058-9.749c-3.027-3.288-7.018-5.287-11.393-5.287c-4.376,0-8.37,1.999-11.396,5.287
	c-2.369,2.574-4.148,5.938-5.059,9.749c-0.441,1.855-0.678,3.813-0.678,5.84c0,2.065,0.246,4.063,0.706,5.946
	C87.068,147.189,88.834,150.515,91.182,153.063z"/>
<ellipse fill="#3B2416" stroke="#3B2416" stroke-miterlimit="10" cx="107.039" cy="141.362" rx="3.599" ry="3.312"/>
<linearGradient id="SVGID_6_" gradientUnits="userSpaceOnUse" x1="483.0264" y1="777.1201" x2="483.0264" y2="812.5352" gradientTransform="matrix(1 0 0 1 -345.3203 -658.2158)">
	<stop  offset="0.0242" style="stop-color:#FDF9E8"/>
	<stop  offset="0.2385" style="stop-color:#FCF7C9"/>
	<stop  offset="0.5771" style="stop-color:#FAF4A0"/>
	<stop  offset="0.8425" style="stop-color:#F9F187"/>
	<stop  offset="1" style="stop-color:#F9F07C"/>
</linearGradient>
<path fill="url(#SVGID_6_)" d="M149.098,152.775c-3.025,3.29-7.021,5.287-11.395,5.287c-4.376,0-8.369-1.997-11.396-5.287
	c-2.348-2.55-4.113-5.874-5.03-9.642c-0.459-1.885-0.706-3.88-0.706-5.946c0-2.027,0.236-3.986,0.678-5.84
	c0.911-3.813,2.691-7.175,5.062-9.749c3.024-3.29,7.02-5.287,11.396-5.287c4.374,0,8.364,1.997,11.396,5.287
	c2.367,2.574,4.146,5.936,5.057,9.749c0.441,1.854,0.683,3.813,0.683,5.84c0,2.066-0.245,4.061-0.707,5.946
	C153.215,146.901,151.445,150.226,149.098,152.775z"/>
<ellipse fill="#3B2416" stroke="#3B2416" stroke-miterlimit="10" cx="131.225" cy="141.65" rx="3.601" ry="3.31"/>
<radialGradient id="SVGID_7_" cx="465.3584" cy="826.0801" r="15.3056" gradientTransform="matrix(1 0 0 1 -345.3203 -658.2158)" gradientUnits="userSpaceOnUse">
	<stop  offset="0" style="stop-color:#F69321"/>
	<stop  offset="1" style="stop-color:#F15B2A"/>
</radialGradient>
<path fill="url(#SVGID_7_)" d="M137.563,167.864c0,7.017-9.781,12.706-17.524,12.706s-17.525-5.689-17.525-12.706
	c0-7.017,9.782-12.706,17.525-12.706S137.563,160.847,137.563,167.864z"/>
<path fill="none" stroke="#EF4137" d="M103.097,166.842c0,0,8.535,4.91,10.516,6.134c1.476,0.912,6.425,2.628,6.425,2.628
	s5.7-1.532,7.304-2.628c1.836-1.256,9.346-6.718,9.346-6.718"/>
<radialGradient id="SVGID_8_" cx="418.752" cy="774.6689" r="5.8698" gradientTransform="matrix(1.1598 0 0 1 -362.1194 -658.2158)" gradientUnits="userSpaceOnUse">
	<stop  offset="0" style="stop-color:#FEE000"/>
	<stop  offset="1" style="stop-color:#FCBA3F"/>
</radialGradient>
<path fill="url(#SVGID_8_)" d="M123.282,123.307c0,0,4.267-4.431,4.495-6.261c0.164-1.333-1.489-3.821-2.074-5.065
	c-0.34-0.722-3.113-2.981-3.113-2.981l2.25,3.728l0.865,2.384v2.235l-2.25,2.831l-4.147,3.281l3.629,0.447L123.282,123.307z"/>
<radialGradient id="SVGID_9_" cx="403.3262" cy="826.8145" r="4.9461" gradientTransform="matrix(0.9886 -0.1502 0.1502 0.9886 -402.8818 -639.0409)" gradientUnits="userSpaceOnUse">
	<stop  offset="0" style="stop-color:#FEE000"/>
	<stop  offset="1" style="stop-color:#FCBA3F"/>
</radialGradient>
<path fill="url(#SVGID_9_)" d="M120.71,123.511c0,0,2.502-4.159,2.437-5.707c-0.051-1.129-1.555-3.022-2.133-3.994
	c-0.334-0.564-2.612-2.145-2.612-2.145l2.087,2.858l0.924,1.893l0.283,1.862l-1.258,2.605l-2.563,3.185l2.663-0.024L120.71,123.511z
	"/>
<radialGradient id="SVGID_10_" cx="238.3389" cy="903.6729" r="3.9403" gradientTransform="matrix(0.8893 -0.4574 0.4574 0.8893 -509.0851 -575.5619)" gradientUnits="userSpaceOnUse">
	<stop  offset="0" style="stop-color:#FEE000"/>
	<stop  offset="1" style="stop-color:#FCBA3F"/>
</radialGradient>
<path fill="url(#SVGID_10_)" d="M118.175,123.22c0,0,0.835-3.771,0.393-4.926c-0.323-0.839-1.94-1.888-2.622-2.475
	c-0.396-0.34-2.52-0.955-2.52-0.955l2.304,1.627l1.177,1.195l0.688,1.335l-0.29,2.287l-1.127,3.055l2.006-0.694L118.175,123.22z"/>
<radialGradient id="SVGID_11_" cx="437.7764" cy="881.4482" r="16.3352" gradientTransform="matrix(1 0 0 1 -345.3203 -658.2158)" gradientUnits="userSpaceOnUse">
	<stop  offset="0" style="stop-color:#FEE100"/>
	<stop  offset="1" style="stop-color:#FBAC41"/>
</radialGradient>
<path fill="url(#SVGID_11_)" d="M107.41,221.852c0.483-1.86,0.979-6.192-0.227-7.69c-1.609-2-9.728-4.3-9.728-4.3
	s-8.164-0.547-10.86-0.228c-1.975,0.239-6.164,0.763-7.692,2.038c-1.028,0.859-2.439,3.41-2.488,4.752
	c-0.037,1.001-0.228,3.246,0,4.297c0.208,0.965,1.05,2.789,1.583,3.617c1.241,1.936,3.942,5.713,5.656,7.24
	c1.615,1.441,7.238,4.749,7.238,4.749s8.103-3.056,10.406-4.749c1.161-0.855,3.117-3.055,3.846-4.301
	C105.891,226.012,107.04,223.273,107.41,221.852z"/>
<radialGradient id="SVGID_12_" cx="-230.4946" cy="882.457" r="16.6692" gradientTransform="matrix(-1 0 0 1 -86.0957 -658.2158)" gradientUnits="userSpaceOnUse">
	<stop  offset="0" style="stop-color:#FEE100"/>
	<stop  offset="1" style="stop-color:#FBAC41"/>
</radialGradient>
<path fill="url(#SVGID_12_)" d="M129.141,222.833c-0.492-1.899-1-6.322,0.229-7.851c1.644-2.039,9.926-4.385,9.926-4.385
	s8.331-0.563,11.081-0.231c2.018,0.239,6.293,0.774,7.852,2.077c1.051,0.879,2.49,3.479,2.539,4.849
	c0.041,1.021,0.231,3.313,0,4.388c-0.209,0.982-1.072,2.846-1.617,3.69c-1.262,1.976-4.022,5.828-5.771,7.389
	c-1.648,1.472-7.388,4.849-7.388,4.849s-8.269-3.115-10.618-4.849c-1.188-0.87-3.184-3.114-3.926-4.387
	C130.691,227.077,129.516,224.284,129.141,222.833z"/>
</svg>
