<?xml version="1.0" encoding="utf-8"?>
<!-- Generator: Adobe Illustrator 15.0.0, SVG Export Plug-In . SVG Version: 6.00 Build 0)  -->
<!DOCTYPE svg PUBLIC "-//W3C//DTD SVG 1.1//EN" "http://www.w3.org/Graphics/SVG/1.1/DTD/svg11.dtd">
<svg version="1.1" id="Layer_1" xmlns="http://www.w3.org/2000/svg" xmlns:xlink="http://www.w3.org/1999/xlink" x="0px" y="0px"
	 width="250px" height="400px" viewBox="0 0 250 400" enable-background="new 0 0 250 400" xml:space="preserve">
<g>
	
		<linearGradient id="SVGID_1_" gradientUnits="userSpaceOnUse" x1="292.5439" y1="-31.7656" x2="293.0984" y2="12.0383" gradientTransform="matrix(1 0 0 -1 -172.6602 180.04)">
		<stop  offset="0" style="stop-color:#000000"/>
		<stop  offset="0.0851" style="stop-color:#1F0000"/>
		<stop  offset="0.2206" style="stop-color:#430000"/>
		<stop  offset="0.3893" style="stop-color:#620000"/>
		<stop  offset="0.5848" style="stop-color:#870102"/>
		<stop  offset="0.7998" style="stop-color:#B71319"/>
		<stop  offset="1" style="stop-color:#ED1C24"/>
	</linearGradient>
	<ellipse fill="url(#SVGID_1_)" cx="120.187" cy="187.824" rx="59.187" ry="25.921"/>
	
		<linearGradient id="SVGID_2_" gradientUnits="userSpaceOnUse" x1="291.7539" y1="-32.0415" x2="292.2224" y2="4.9678" gradientTransform="matrix(1 0 0 -1 -172.6602 180.04)">
		<stop  offset="0" style="stop-color:#000000"/>
		<stop  offset="0.1326" style="stop-color:#1B0000"/>
		<stop  offset="0.322" style="stop-color:#3E0000"/>
		<stop  offset="0.5456" style="stop-color:#580000"/>
		<stop  offset="0.7933" style="stop-color:#770000"/>
		<stop  offset="1" style="stop-color:#94070A"/>
	</linearGradient>
	<path fill="url(#SVGID_2_)" d="M176.323,192.121c0,12.096-27.44,21.624-55.059,21.624c-27.62,0-58.879-10.64-58.879-22.733
		c0-12.097,31.259-21.069,58.879-21.069C148.883,169.943,176.323,180.026,176.323,192.121z"/>
	
		<radialGradient id="SVGID_3_" cx="292.6504" cy="-6.6758" r="35.834" gradientTransform="matrix(1 0 0 -1 -172.6602 180.04)" gradientUnits="userSpaceOnUse">
		<stop  offset="0.0242" style="stop-color:#A76635"/>
		<stop  offset="0.1607" style="stop-color:#A06132"/>
		<stop  offset="0.3906" style="stop-color:#93592B"/>
		<stop  offset="0.6839" style="stop-color:#7B4A21"/>
		<stop  offset="0.9758" style="stop-color:#603913"/>
	</radialGradient>
	<path fill="url(#SVGID_3_)" d="M79.632,205.924c10.279,4.799,24.21,7.837,39.632,8.08c0.671,0.012,1.347,0.018,2.025,0.018
		c14.652,0,28.064-2.521,38.432-6.696c1.928-4.019,2.961-8.44,2.961-12.921c-0.011-4.415-1.014-8.636-2.836-12.523
		c-1.82-3.889-4.463-7.443-7.753-10.521c-7.823-7.326-19.305-11.95-32.102-11.95c-12.799,0-24.283,4.624-32.106,11.95
		c-3.16,2.957-5.723,6.357-7.535,10.068c-1.813,3.711-2.874,7.738-3.031,11.95C77.157,197.678,77.971,201.979,79.632,205.924z"/>
	
		<radialGradient id="SVGID_4_" cx="260.0039" cy="40.0703" r="13.8289" gradientTransform="matrix(1 0 0 -1 -172.6602 180.04)" gradientUnits="userSpaceOnUse">
		<stop  offset="0.0242" style="stop-color:#A76635"/>
		<stop  offset="0.1607" style="stop-color:#A06132"/>
		<stop  offset="0.3906" style="stop-color:#93592B"/>
		<stop  offset="0.6839" style="stop-color:#7B4A21"/>
		<stop  offset="0.9758" style="stop-color:#603913"/>
	</radialGradient>
	<path fill="url(#SVGID_4_)" d="M79.256,153.753c3.661-3.161,7.32-6.325,10.981-9.485c3.662-3.164,7.32-6.325,10.981-9.488
		c0,0-1.952-1.648-4.858-3.503c-2.904-1.852-6.759-3.912-10.569-4.729c-3.362-0.721-6.688-0.475-9.284,1.74
		c-2.597,2.211-3.223,5.695-2.993,8.945c0.277,3.872,1.714,8.001,3.079,11.166C77.961,151.559,79.256,153.753,79.256,153.753z"/>
	
		<radialGradient id="SVGID_5_" cx="324.3223" cy="39.793" r="13.828" gradientTransform="matrix(1 0 0 -1 -172.6602 180.04)" gradientUnits="userSpaceOnUse">
		<stop  offset="0.0242" style="stop-color:#A76635"/>
		<stop  offset="0.1607" style="stop-color:#A06132"/>
		<stop  offset="0.3906" style="stop-color:#93592B"/>
		<stop  offset="0.6839" style="stop-color:#7B4A21"/>
		<stop  offset="0.9758" style="stop-color:#603913"/>
	</radialGradient>
	<path fill="url(#SVGID_5_)" d="M159.749,154.03c-3.661-3.16-7.323-6.324-10.981-9.484c-3.66-3.164-7.322-6.325-10.979-9.488
		c0,0,1.954-1.648,4.857-3.503c2.901-1.852,6.758-3.912,10.564-4.729c3.365-0.722,6.689-0.474,9.284,1.74
		c2.597,2.211,3.226,5.695,2.995,8.944c-0.277,3.873-1.715,8.002-3.077,11.166C161.045,151.835,159.749,154.03,159.749,154.03z"/>
	
		<radialGradient id="SVGID_6_" cx="291.6162" cy="20.6431" r="38.2914" gradientTransform="matrix(1 0 0 -1 -172.6602 180.04)" gradientUnits="userSpaceOnUse">
		<stop  offset="0.0242" style="stop-color:#A76635"/>
		<stop  offset="0.1607" style="stop-color:#A06132"/>
		<stop  offset="0.3906" style="stop-color:#93592B"/>
		<stop  offset="0.6839" style="stop-color:#7B4A21"/>
		<stop  offset="0.9758" style="stop-color:#603913"/>
	</radialGradient>
	<path fill="url(#SVGID_6_)" d="M86.912,188.262c7.917,7.392,19.171,1.348,31.872,1.348c12.704,0,24.303,6.041,32.218-1.352
		c4.654-4.347,8.1-9.646,9.874-15.509c0.892-2.93,1.365-6.004,1.365-9.175c0-3.203-0.484-6.311-1.396-9.274
		c-1.785-5.82-5.213-11.08-9.838-15.404c-7.918-7.395-19.347-12.039-32.052-12.039s-24.127,4.64-32.046,12.036
		c-4.627,4.32-8.058,9.58-9.844,15.404c-0.91,2.963-1.395,6.074-1.395,9.277c0,3.17,0.472,6.245,1.361,9.175
		C78.812,178.615,82.255,183.915,86.912,188.262z"/>
	
		<linearGradient id="SVGID_7_" gradientUnits="userSpaceOnUse" x1="275.7803" y1="57.7925" x2="275.7803" y2="21.754" gradientTransform="matrix(1 0 0 -1 -172.6602 180.04)">
		<stop  offset="0.0242" style="stop-color:#FEFBE8"/>
		<stop  offset="0.0421" style="stop-color:#FEFBE5"/>
		<stop  offset="0.371" style="stop-color:#FCF6B9"/>
		<stop  offset="0.6517" style="stop-color:#FBF397"/>
		<stop  offset="0.8703" style="stop-color:#FBF183"/>
		<stop  offset="1" style="stop-color:#FAF17A"/>
	</linearGradient>
	<path fill="url(#SVGID_7_)" d="M92.152,155.134c2.913,3.167,6.756,5.091,10.971,5.091c4.212,0,8.055-1.924,10.971-5.091
		c2.257-2.452,3.958-5.655,4.841-9.284c0.445-1.813,0.679-3.733,0.679-5.725c0-1.951-0.228-3.836-0.653-5.623
		c-0.876-3.668-2.587-6.907-4.871-9.386c-2.913-3.164-6.756-5.088-10.968-5.088c-4.215,0-8.058,1.925-10.971,5.088
		c-2.281,2.479-3.995,5.718-4.871,9.386c-0.425,1.787-0.653,3.671-0.653,5.623c0,1.991,0.237,3.912,0.679,5.725
		C88.191,149.479,89.891,152.682,92.152,155.134z"/>
	<path fill="#3C2415" stroke="#3C2415" stroke-miterlimit="10" d="M110.885,143.87c0,1.76-1.552,3.187-3.467,3.187
		c-1.911,0-3.463-1.427-3.463-3.187c0-1.763,1.552-3.19,3.463-3.19C109.333,140.679,110.885,142.106,110.885,143.87z"/>
	
		<ellipse fill="#3C2415" stroke="#3C2415" stroke-width="2" stroke-miterlimit="10" cx="118.924" cy="167.572" rx="10.396" ry="5.128"/>
	
		<radialGradient id="SVGID_8_" cx="286.5137" cy="-3.1919" r="6.3759" gradientTransform="matrix(1 0 0 -1 -172.6602 180.04)" gradientUnits="userSpaceOnUse">
		<stop  offset="0.0242" style="stop-color:#FEFBE8"/>
		<stop  offset="0.0421" style="stop-color:#FEFBE5"/>
		<stop  offset="0.371" style="stop-color:#FCF6B9"/>
		<stop  offset="0.6517" style="stop-color:#FBF397"/>
		<stop  offset="0.8703" style="stop-color:#FBF183"/>
		<stop  offset="1" style="stop-color:#FAF17A"/>
	</radialGradient>
	<path fill="url(#SVGID_8_)" d="M109.497,196.478c0.544,0.725,2.762,1.002,4.967,0.959c2.201-0.042,4.39-0.405,4.874-0.959
		c0.432-0.495,0.577-2.57,0.577-5.118c0-2.544-0.145-5.563-0.287-7.942c-0.145-2.383-0.29-4.13-0.29-4.13c-1.638,0-3.279,0-4.92,0
		s-3.279,0-4.92,0c0,0-0.092,1.79-0.185,4.212c-0.092,2.423-0.185,5.481-0.185,8.028
		C109.128,194.075,109.221,196.109,109.497,196.478z"/>
	
		<radialGradient id="SVGID_9_" cx="297.6016" cy="-2.9146" r="8.6126" gradientTransform="matrix(1 0 0 -1 -172.6602 180.04)" gradientUnits="userSpaceOnUse">
		<stop  offset="0.0242" style="stop-color:#FEFBE8"/>
		<stop  offset="0.0421" style="stop-color:#FEFBE5"/>
		<stop  offset="0.371" style="stop-color:#FCF6B9"/>
		<stop  offset="0.6517" style="stop-color:#FBF397"/>
		<stop  offset="0.8703" style="stop-color:#FBF183"/>
		<stop  offset="1" style="stop-color:#FAF17A"/>
	</radialGradient>
	<path fill="url(#SVGID_9_)" d="M130.174,196.478c-0.547,0.725-2.762,1.002-4.966,0.959c-2.202-0.042-4.391-0.405-4.878-0.959
		c-0.432-0.495-0.577-2.57-0.577-5.118c0-2.544,0.145-5.563,0.29-7.942c0.145-2.383,0.287-4.13,0.287-4.13c1.641,0,3.282,0,4.924,0
		c1.639,0,3.279,0,4.92,0c0,0,0.09,1.79,0.186,4.212c0.093,2.423,0.186,5.481,0.186,8.028
		C130.545,194.075,130.451,196.109,130.174,196.478z"/>
	<path fill="none" stroke="#3C2415" stroke-width="2" stroke-miterlimit="10" d="M97.438,175.472c0,0,8.595,4.149,21.346,4.426
		c16.959,0.369,22.685-3.685,22.457-3.596"/>
	
		<linearGradient id="SVGID_10_" gradientUnits="userSpaceOnUse" x1="309.6035" y1="57.793" x2="309.6035" y2="23.6947" gradientTransform="matrix(1 0 0 -1 -172.6602 180.04)">
		<stop  offset="0.0242" style="stop-color:#FEFBE8"/>
		<stop  offset="0.0421" style="stop-color:#FEFBE5"/>
		<stop  offset="0.371" style="stop-color:#FCF6B9"/>
		<stop  offset="0.6517" style="stop-color:#FBF397"/>
		<stop  offset="0.8703" style="stop-color:#FBF183"/>
		<stop  offset="1" style="stop-color:#FAF17A"/>
	</linearGradient>
	<path fill="url(#SVGID_10_)" d="M147.914,154.857c-2.916,3.167-6.76,5.092-10.971,5.092c-4.213,0-8.06-1.925-10.973-5.092
		c-2.261-2.456-3.961-5.656-4.844-9.284c-0.442-1.813-0.679-3.734-0.679-5.725c0-1.951,0.228-3.836,0.652-5.622
		c0.877-3.672,2.59-6.908,4.871-9.386c2.913-3.167,6.76-5.088,10.973-5.088c4.211,0,8.055,1.921,10.971,5.088
		c2.281,2.478,3.99,5.714,4.868,9.386c0.426,1.786,0.655,3.671,0.655,5.622c0,1.991-0.236,3.912-0.679,5.725
		C151.877,149.202,150.172,152.402,147.914,154.857z"/>
	<ellipse fill="#3C2415" stroke="#3C2415" stroke-miterlimit="10" cx="130.707" cy="144.146" rx="3.465" ry="3.187"/>
	
		<radialGradient id="SVGID_11_" cx="264.54" cy="-28.2183" r="9.4822" gradientTransform="matrix(1 0 0 -1 -172.6602 180.04)" gradientUnits="userSpaceOnUse">
		<stop  offset="0.0242" style="stop-color:#A76635"/>
		<stop  offset="0.1607" style="stop-color:#A06132"/>
		<stop  offset="0.3906" style="stop-color:#93592B"/>
		<stop  offset="0.6839" style="stop-color:#7B4A21"/>
		<stop  offset="0.9758" style="stop-color:#603913"/>
	</radialGradient>
	<path fill="url(#SVGID_11_)" d="M84.309,214.09c1.87,1.747,4.569,2.844,7.572,2.844c3,0,5.7-1.097,7.57-2.846
		c1.1-1.025,1.913-2.277,2.334-3.663c0.208-0.692,0.321-1.418,0.321-2.168c0-0.757-0.115-1.489-0.33-2.188
		c-0.422-1.377-1.231-2.619-2.323-3.642c-1.871-1.747-4.571-2.844-7.572-2.844c-3.002,0-5.702,1.099-7.572,2.844
		c-1.094,1.021-1.903,2.265-2.327,3.64c-0.214,0.701-0.328,1.435-0.328,2.19c0,0.75,0.11,1.476,0.321,2.168
		C82.396,211.811,83.209,213.063,84.309,214.09z"/>
	
		<radialGradient id="SVGID_12_" cx="321.0918" cy="-30.1577" r="8.3976" gradientTransform="matrix(1 0 0 -1 -172.6602 180.04)" gradientUnits="userSpaceOnUse">
		<stop  offset="0.0242" style="stop-color:#A76635"/>
		<stop  offset="0.1607" style="stop-color:#A06132"/>
		<stop  offset="0.3906" style="stop-color:#93592B"/>
		<stop  offset="0.6839" style="stop-color:#7B4A21"/>
		<stop  offset="0.9758" style="stop-color:#603913"/>
	</radialGradient>
	<path fill="url(#SVGID_12_)" d="M141.729,215.361c1.656,1.548,4.047,2.519,6.705,2.519c2.657,0,5.047-0.971,6.703-2.519
		c0.977-0.909,1.693-2.017,2.065-3.244c0.187-0.613,0.286-1.258,0.286-1.92c0-0.668-0.102-1.318-0.293-1.938
		c-0.371-1.219-1.092-2.319-2.059-3.223c-1.656-1.55-4.047-2.521-6.705-2.521s-5.048,0.971-6.703,2.517
		c-0.969,0.905-1.688,2.006-2.062,3.224c-0.19,0.621-0.291,1.271-0.291,1.939c0,0.664,0.099,1.308,0.286,1.923
		C140.034,213.346,140.755,214.452,141.729,215.361z"/>
	<path fill="#EE2A7B" stroke="#BE1E2D" d="M87.315,154.636c3.428,3.108,7.949,4.997,12.908,4.997c4.955,0,9.477-1.889,12.909-4.997
		c2.656-2.406,4.656-5.55,5.694-9.111c0.526-1.778,0.8-3.666,0.8-5.619c0-1.915-0.267-3.765-0.767-5.519
		c-1.032-3.599-3.045-6.78-5.732-9.212c-3.428-3.104-7.95-4.993-12.905-4.993c-4.959,0-9.48,1.889-12.908,4.993
		c-2.684,2.433-4.7,5.613-5.731,9.212c-0.5,1.754-0.768,3.604-0.768,5.519c0,1.953,0.279,3.84,0.8,5.619
		C82.655,149.085,84.655,152.229,87.315,154.636z"/>
	<path fill="none" stroke="#BE1E2D" stroke-width="3" d="M115.032,125.819c5.569-4.909,10.313,0,10.313,0"/>
	<path fill="#EE2A7B" d="M126.914,155.725c3.43,3.109,7.949,4.998,12.909,4.998c4.954,0,9.477-1.889,12.907-4.998
		c2.656-2.406,4.656-5.549,5.697-9.112c0.52-1.777,0.797-3.664,0.797-5.618c0-1.914-0.264-3.765-0.768-5.518
		c-1.027-3.602-3.042-6.781-5.73-9.213c-3.427-3.104-7.949-4.993-12.903-4.993c-4.96,0-9.479,1.889-12.909,4.993
		c-2.682,2.433-4.7,5.611-5.73,9.213c-0.501,1.753-0.768,3.604-0.768,5.518c0,1.954,0.279,3.84,0.798,5.618
		C122.255,150.176,124.255,153.319,126.914,155.725z"/>
	<path fill="none" stroke="#FFFFFF" d="M154.25,131.036c5.732,10.345-1.305,25.972-13.111,25.972c-9.441,0-17.1-7.674-17.1-17.14
		c0-7.573,6.123-13.71,13.679-13.71c6.044,0,14.136,4.744,14.136,10.802c0,4.849-3.328,14.709-12.086,13.768
		c-7.694-0.825-11.177-7.432-11.543-11.29c-0.55-5.782,5.498-10.189,10.164-9.363c5.144,0.91,8.487,3.034,8.797,7.985
		c0.271,4.409-3.578,7.271-6.597,7.437c-4.944,0.273-6.108-3.805-6.321-6.335c-0.271-3.304,1.93-4.403,3.851-4.133
		c2.718,0.392,4.011,2.023,4.116,3.031c0.279,2.48-2.176,3.53-2.741,2.48c-0.31-0.571-1.47-1.581-1.47-2.229"/>
	<path fill="none" stroke="#BE1E2D" stroke-width="3" d="M127.053,156.044c3.428,3.108,7.944,4.997,12.906,4.997
		c4.957,0,9.477-1.889,12.908-4.997c2.656-2.407,4.656-5.55,5.695-9.112c0.527-1.778,0.801-3.665,0.801-5.619
		c0-1.915-0.268-3.765-0.768-5.517c-1.031-3.601-3.047-6.781-5.729-9.214c-3.431-3.105-7.95-4.993-12.907-4.993
		c-4.962,0-9.479,1.888-12.906,4.993c-2.686,2.433-4.701,5.613-5.732,9.214c-0.5,1.752-0.768,3.603-0.768,5.517
		c0,1.954,0.279,3.84,0.8,5.619C122.393,150.494,124.391,153.637,127.053,156.044z"/>
	<path fill="none" stroke="#FFFFFF" d="M85.92,130.219c-5.733,10.345,1.305,25.972,13.112,25.972c9.444,0,17.1-7.674,17.1-17.142
		c0-7.571-6.124-13.708-13.682-13.708c-6.041,0-14.134,4.744-14.134,10.802c0,4.849,3.33,14.709,12.087,13.769
		c7.695-0.825,11.176-7.431,11.543-11.29c0.55-5.781-5.497-10.189-10.167-9.363c-5.141,0.91-8.483,3.033-8.792,7.985
		c-0.273,4.409,3.575,7.271,6.595,7.438c4.944,0.272,6.108-3.805,6.318-6.335c0.274-3.305-1.925-4.404-3.849-4.133
		c-2.716,0.391-4.009,2.023-4.118,3.03c-0.278,2.48,2.177,3.53,2.744,2.48c0.31-0.571,1.47-1.581,1.47-2.229"/>
	<path fill="none" stroke="#BE1E2D" stroke-width="3" d="M87.452,154.954c3.429,3.108,7.95,4.997,12.908,4.997
		c4.956,0,9.478-1.889,12.909-4.997c2.655-2.407,4.656-5.55,5.697-9.112c0.523-1.778,0.799-3.664,0.799-5.619
		c0-1.914-0.268-3.765-0.769-5.516c-1.029-3.601-3.044-6.782-5.731-9.213c-3.427-3.105-7.949-4.994-12.905-4.994
		c-4.958,0-9.479,1.889-12.908,4.994c-2.683,2.432-4.7,5.612-5.731,9.213c-0.5,1.751-0.768,3.602-0.768,5.516
		c0,1.955,0.28,3.84,0.8,5.619C82.792,149.404,84.792,152.547,87.452,154.954z"/>
</g>
</svg>
