<?xml version="1.0" encoding="utf-8"?>
<!-- Generator: Adobe Illustrator 15.0.0, SVG Export Plug-In . SVG Version: 6.00 Build 0)  -->
<!DOCTYPE svg PUBLIC "-//W3C//DTD SVG 1.1//EN" "http://www.w3.org/Graphics/SVG/1.1/DTD/svg11.dtd">
<svg version="1.1" id="Layer_1" xmlns="http://www.w3.org/2000/svg" xmlns:xlink="http://www.w3.org/1999/xlink" x="0px" y="0px"
	 width="250px" height="400px" viewBox="0 0 250 400" enable-background="new 0 0 250 400" xml:space="preserve">
<linearGradient id="SVGID_1_" gradientUnits="userSpaceOnUse" x1="272.4229" y1="-11.6401" x2="272.875" y2="24.0833" gradientTransform="matrix(1 0 0 -1 -153.6602 196.04)">
	<stop  offset="0" style="stop-color:#000000"/>
	<stop  offset="0.1326" style="stop-color:#1B0000"/>
	<stop  offset="0.322" style="stop-color:#3E0000"/>
	<stop  offset="0.5456" style="stop-color:#580000"/>
	<stop  offset="0.7933" style="stop-color:#770000"/>
	<stop  offset="1" style="stop-color:#94070A"/>
</linearGradient>
<path fill="url(#SVGID_1_)" d="M174.009,188.412c0,11.675-26.487,20.874-53.151,20.874c-26.661,0-56.839-10.269-56.839-21.943
	c0-11.678,30.178-20.339,56.839-20.339C147.521,167.003,174.009,176.736,174.009,188.412z"/>
<radialGradient id="SVGID_2_" cx="273.2871" cy="12.8467" r="34.5929" gradientTransform="matrix(1 0 0 -1 -153.6602 196.04)" gradientUnits="userSpaceOnUse">
	<stop  offset="0.0242" style="stop-color:#A76635"/>
	<stop  offset="0.1607" style="stop-color:#A06132"/>
	<stop  offset="0.3906" style="stop-color:#93592B"/>
	<stop  offset="0.6839" style="stop-color:#7B4A21"/>
	<stop  offset="0.9758" style="stop-color:#603913"/>
</radialGradient>
<path fill="url(#SVGID_2_)" d="M80.665,201.738c9.927,4.632,23.375,7.563,38.261,7.8c0.649,0.012,1.3,0.017,1.955,0.017
	c14.148,0,27.096-2.435,37.102-6.466c1.859-3.878,2.856-8.147,2.856-12.472c-0.01-4.262-0.976-8.339-2.735-12.09
	c-1.76-3.754-4.311-7.187-7.482-10.159c-7.555-7.072-18.641-11.536-30.994-11.536c-12.354,0-23.44,4.464-30.993,11.536
	c-3.05,2.855-5.525,6.137-7.275,9.72c-1.75,3.584-2.773,7.471-2.926,11.537C78.278,193.775,79.064,197.927,80.665,201.738z"/>
<radialGradient id="SVGID_3_" cx="243.4717" cy="65.1831" r="13.3499" gradientTransform="matrix(1 0 0 -1 -153.6602 196.04)" gradientUnits="userSpaceOnUse">
	<stop  offset="0.0242" style="stop-color:#A76635"/>
	<stop  offset="0.1607" style="stop-color:#A06132"/>
	<stop  offset="0.3906" style="stop-color:#93592B"/>
	<stop  offset="0.6839" style="stop-color:#7B4A21"/>
	<stop  offset="0.9758" style="stop-color:#603913"/>
</radialGradient>
<path fill="url(#SVGID_3_)" d="M82.002,144.164c3.534-3.053,7.068-6.105,10.601-9.156c3.535-3.054,7.066-6.106,10.601-9.16
	c0,0-1.883-1.592-4.689-3.382c-2.803-1.79-6.526-3.777-10.202-4.566c-3.247-0.697-6.457-0.458-8.962,1.68
	c-2.507,2.133-3.113,5.498-2.889,8.635c0.266,3.737,1.652,7.725,2.97,10.777C80.751,142.045,82.002,144.164,82.002,144.164z"/>
<radialGradient id="SVGID_4_" cx="305.5566" cy="64.916" r="13.3502" gradientTransform="matrix(1 0 0 -1 -153.6602 196.04)" gradientUnits="userSpaceOnUse">
	<stop  offset="0.0242" style="stop-color:#A76635"/>
	<stop  offset="0.1607" style="stop-color:#A06132"/>
	<stop  offset="0.3906" style="stop-color:#93592B"/>
	<stop  offset="0.6839" style="stop-color:#7B4A21"/>
	<stop  offset="0.9758" style="stop-color:#603913"/>
</radialGradient>
<path fill="url(#SVGID_4_)" d="M159.707,144.431c-3.534-3.053-7.068-6.105-10.602-9.157c-3.535-3.054-7.066-6.105-10.602-9.159
	c0,0,1.887-1.591,4.689-3.382c2.804-1.79,6.524-3.777,10.201-4.566c3.248-0.696,6.457-0.458,8.963,1.68
	c2.504,2.135,3.113,5.498,2.891,8.635c-0.268,3.736-1.652,7.725-2.973,10.777C160.957,142.312,159.707,144.431,159.707,144.431z"/>
<radialGradient id="SVGID_5_" cx="273.9854" cy="46.4292" r="36.9655" gradientTransform="matrix(1 0 0 -1 -153.6602 196.04)" gradientUnits="userSpaceOnUse">
	<stop  offset="0.0242" style="stop-color:#A76635"/>
	<stop  offset="0.1607" style="stop-color:#A06132"/>
	<stop  offset="0.3906" style="stop-color:#93592B"/>
	<stop  offset="0.6839" style="stop-color:#7B4A21"/>
	<stop  offset="0.9758" style="stop-color:#603913"/>
</radialGradient>
<path fill="url(#SVGID_5_)" d="M89.393,177.475c7.644,7.138,18.506,1.303,30.77,1.303c12.262,0,23.458,5.832,31.103-1.306
	c4.49-4.195,7.814-9.311,9.53-14.971c0.856-2.83,1.315-5.797,1.315-8.857c0-3.092-0.469-6.092-1.344-8.953
	c-1.726-5.618-5.035-10.697-9.498-14.87c-7.646-7.14-18.68-11.624-30.944-11.624c-12.263,0-23.292,4.481-30.937,11.618
	c-4.467,4.171-7.778,9.25-9.503,14.873c-0.878,2.859-1.346,5.863-1.346,8.956c0,3.061,0.457,6.027,1.314,8.857
	C81.572,168.165,84.897,173.279,89.393,177.475z"/>
<linearGradient id="SVGID_6_" gradientUnits="userSpaceOnUse" x1="258.7012" y1="82.2925" x2="258.7012" y2="47.5016" gradientTransform="matrix(1 0 0 -1 -153.6602 196.04)">
	<stop  offset="0.0242" style="stop-color:#FEFBE8"/>
	<stop  offset="0.0421" style="stop-color:#FEFBE5"/>
	<stop  offset="0.371" style="stop-color:#FCF6B9"/>
	<stop  offset="0.6517" style="stop-color:#FBF397"/>
	<stop  offset="0.8703" style="stop-color:#FBF183"/>
	<stop  offset="1" style="stop-color:#FAF17A"/>
</linearGradient>
<path fill="url(#SVGID_6_)" d="M94.451,145.497c2.812,3.056,6.523,4.915,10.591,4.915c4.066,0,7.775-1.858,10.59-4.915
	c2.18-2.368,3.824-5.459,4.677-8.962c0.427-1.75,0.654-3.606,0.654-5.527c0-1.883-0.221-3.703-0.631-5.427
	c-0.846-3.542-2.498-6.668-4.701-9.061c-2.814-3.056-6.523-4.915-10.589-4.915c-4.068,0-7.779,1.858-10.591,4.915
	c-2.202,2.393-3.856,5.518-4.703,9.061c-0.41,1.725-0.629,3.544-0.629,5.427c0,1.92,0.229,3.777,0.655,5.527
	C90.627,140.038,92.268,143.128,94.451,145.497z"/>
<ellipse fill="#3C2415" stroke="#3C2415" stroke-miterlimit="10" cx="109.189" cy="134.621" rx="3.345" ry="3.079"/>
<ellipse fill="#3C2415" stroke="#3C2415" stroke-width="2" stroke-miterlimit="10" cx="120.295" cy="157.502" rx="10.036" ry="4.952"/>
<radialGradient id="SVGID_7_" cx="269.0605" cy="23.418" r="6.1562" gradientTransform="matrix(1 0 0 -1 -153.6602 196.04)" gradientUnits="userSpaceOnUse">
	<stop  offset="0.0242" style="stop-color:#FEFBE8"/>
	<stop  offset="0.0421" style="stop-color:#FEFBE5"/>
	<stop  offset="0.371" style="stop-color:#FCF6B9"/>
	<stop  offset="0.6517" style="stop-color:#FBF397"/>
	<stop  offset="0.8703" style="stop-color:#FBF183"/>
	<stop  offset="1" style="stop-color:#FAF17A"/>
</radialGradient>
<path fill="url(#SVGID_7_)" d="M111.195,185.407c0.527,0.701,2.666,0.967,4.794,0.927c2.126-0.041,4.237-0.391,4.707-0.927
	c0.417-0.478,0.558-2.48,0.558-4.939c0-2.456-0.141-5.37-0.279-7.669c-0.14-2.299-0.279-3.985-0.279-3.985c-1.583,0-3.166,0-4.75,0
	s-3.167,0-4.751,0c0,0-0.088,1.726-0.179,4.064c-0.089,2.34-0.178,5.292-0.178,7.752
	C110.839,183.087,110.928,185.05,111.195,185.407z"/>
<radialGradient id="SVGID_8_" cx="279.7666" cy="23.6865" r="8.3137" gradientTransform="matrix(1 0 0 -1 -153.6602 196.04)" gradientUnits="userSpaceOnUse">
	<stop  offset="0.0242" style="stop-color:#FEFBE8"/>
	<stop  offset="0.0421" style="stop-color:#FEFBE5"/>
	<stop  offset="0.371" style="stop-color:#FCF6B9"/>
	<stop  offset="0.6517" style="stop-color:#FBF397"/>
	<stop  offset="0.8703" style="stop-color:#FBF183"/>
	<stop  offset="1" style="stop-color:#FAF17A"/>
</radialGradient>
<path fill="url(#SVGID_8_)" d="M131.154,185.407c-0.527,0.701-2.666,0.967-4.793,0.927c-2.126-0.041-4.237-0.391-4.708-0.927
	c-0.418-0.478-0.557-2.48-0.557-4.939c0-2.456,0.139-5.37,0.279-7.669c0.139-2.299,0.278-3.985,0.278-3.985c1.584,0,3.166,0,4.752,0
	c1.582,0,3.164,0,4.748,0c0,0,0.089,1.726,0.18,4.064c0.089,2.34,0.18,5.292,0.18,7.752
	C131.514,183.087,131.423,185.05,131.154,185.407z"/>
<path fill="none" stroke="#3C2415" stroke-width="2" stroke-miterlimit="10" d="M99.554,165.13c0,0,8.297,4.005,20.608,4.272
	c16.37,0.356,21.898-3.559,21.677-3.471"/>
<linearGradient id="SVGID_9_" gradientUnits="userSpaceOnUse" x1="291.3496" y1="82.292" x2="291.3496" y2="49.3746" gradientTransform="matrix(1 0 0 -1 -153.6602 196.04)">
	<stop  offset="0.0242" style="stop-color:#FEFBE8"/>
	<stop  offset="0.0421" style="stop-color:#FEFBE5"/>
	<stop  offset="0.371" style="stop-color:#FCF6B9"/>
	<stop  offset="0.6517" style="stop-color:#FBF397"/>
	<stop  offset="0.8703" style="stop-color:#FBF183"/>
	<stop  offset="1" style="stop-color:#FAF17A"/>
</linearGradient>
<path fill="url(#SVGID_9_)" d="M148.282,145.229c-2.814,3.058-6.526,4.915-10.593,4.915c-4.065,0-7.775-1.857-10.59-4.915
	c-2.184-2.37-3.826-5.458-4.679-8.962c-0.426-1.751-0.654-3.606-0.654-5.526c0-1.884,0.218-3.705,0.63-5.428
	c0.847-3.544,2.5-6.668,4.703-9.061c2.813-3.058,6.523-4.914,10.59-4.914c4.065,0,7.776,1.856,10.593,4.914
	c2.2,2.393,3.854,5.517,4.698,9.061c0.412,1.723,0.633,3.544,0.633,5.428c0,1.92-0.229,3.774-0.654,5.526
	C152.105,139.771,150.463,142.859,148.282,145.229z"/>
<ellipse fill="#3C2415" stroke="#3C2415" stroke-miterlimit="10" cx="131.669" cy="134.89" rx="3.345" ry="3.077"/>
<radialGradient id="SVGID_10_" cx="246.1455" cy="-3.4702" r="9.1544" gradientTransform="matrix(1 0 0 -1 -153.6602 196.04)" gradientUnits="userSpaceOnUse">
	<stop  offset="0.0242" style="stop-color:#A76635"/>
	<stop  offset="0.1607" style="stop-color:#A06132"/>
	<stop  offset="0.3906" style="stop-color:#93592B"/>
	<stop  offset="0.6839" style="stop-color:#7B4A21"/>
	<stop  offset="0.9758" style="stop-color:#603913"/>
</radialGradient>
<path fill="url(#SVGID_10_)" d="M85.177,205.141c1.805,1.685,4.412,2.745,7.31,2.745c2.897,0,5.502-1.062,7.308-2.745
	c1.061-0.994,1.847-2.197,2.252-3.539c0.202-0.668,0.311-1.367,0.311-2.089c0-0.731-0.112-1.441-0.319-2.115
	c-0.407-1.33-1.188-2.53-2.243-3.515c-1.805-1.688-4.412-2.747-7.309-2.747c-2.898,0-5.504,1.06-7.31,2.746
	c-1.056,0.986-1.837,2.186-2.246,3.515c-0.207,0.675-0.317,1.385-0.317,2.117c0,0.723,0.107,1.42,0.311,2.088
	C83.33,202.943,84.116,204.15,85.177,205.141z"/>
<radialGradient id="SVGID_11_" cx="300.7402" cy="-5.3457" r="8.1066" gradientTransform="matrix(1 0 0 -1 -153.6602 196.04)" gradientUnits="userSpaceOnUse">
	<stop  offset="0.0242" style="stop-color:#A76635"/>
	<stop  offset="0.1607" style="stop-color:#A06132"/>
	<stop  offset="0.3906" style="stop-color:#93592B"/>
	<stop  offset="0.6839" style="stop-color:#7B4A21"/>
	<stop  offset="0.9758" style="stop-color:#603913"/>
</radialGradient>
<path fill="url(#SVGID_11_)" d="M140.609,206.37c1.599,1.494,3.904,2.431,6.472,2.431c2.565,0,4.872-0.937,6.472-2.433
	c0.941-0.877,1.635-1.946,1.994-3.132c0.18-0.59,0.276-1.213,0.276-1.854c0-0.646-0.099-1.274-0.282-1.871
	c-0.359-1.179-1.055-2.24-1.986-3.111c-1.602-1.496-3.908-2.431-6.474-2.431s-4.873,0.935-6.472,2.43
	c-0.936,0.873-1.629,1.934-1.99,3.113c-0.184,0.597-0.281,1.223-0.281,1.871c0,0.642,0.096,1.263,0.277,1.854
	C138.973,204.421,139.668,205.491,140.609,206.37z"/>
<linearGradient id="SVGID_12_" gradientUnits="userSpaceOnUse" x1="-278.252" y1="82.9116" x2="-278.58" y2="36.7429" gradientTransform="matrix(-1 0 0 -1 -137.207 196.04)">
	<stop  offset="0.3273" style="stop-color:#000000"/>
	<stop  offset="0.6751" style="stop-color:#2F2F30"/>
	<stop  offset="1" style="stop-color:#414042"/>
</linearGradient>
<path fill="url(#SVGID_12_)" d="M158.119,119.821c8.744,13.454-2.842,47.802-22.707,36.746c-7.807-4.229-13.25-12.411-14.055-21.745
	c-0.645-7.483,3.586-17.858,12.995-19.882C143.563,112.958,149.889,114.107,158.119,119.821"/>
<linearGradient id="SVGID_13_" gradientUnits="userSpaceOnUse" x1="255.2891" y1="82.6807" x2="254.9657" y2="37.1593" gradientTransform="matrix(1 0 0 -1 -153.6602 196.04)">
	<stop  offset="0.3273" style="stop-color:#000000"/>
	<stop  offset="0.6751" style="stop-color:#2F2F30"/>
	<stop  offset="1" style="stop-color:#414042"/>
</linearGradient>
<path fill="url(#SVGID_13_)" d="M84.805,119.945c-8.686,13.27,2.82,47.146,22.55,36.243c7.753-4.17,13.357-11.367,13.743-21.491
	c0.283-7.403-4.228-17.959-12.687-19.563C99.252,113.21,92.978,114.307,84.805,119.945"/>
<g>
	
		<linearGradient id="SVGID_14_" gradientUnits="userSpaceOnUse" x1="211.3945" y1="63.5073" x2="210.2654" y2="10.4385" gradientTransform="matrix(1.1098 -0.1896 -0.1666 -0.9749 -130.2639 212.1918)">
		<stop  offset="0.2909" style="stop-color:#3C2928"/>
		<stop  offset="0.403" style="stop-color:#402D2D"/>
		<stop  offset="0.5668" style="stop-color:#473A39"/>
		<stop  offset="0.7616" style="stop-color:#534E4F"/>
		<stop  offset="0.8424" style="stop-color:#58595B"/>
	</linearGradient>
	<path fill="url(#SVGID_14_)" d="M96.735,114.781c-1.187,2.79-3.983,4.375-4.311,7.305c-0.725,3.866,1.699,8.333,3.127,11.829
		c1.425,3.493,3.168,7.222,0.42,10.565c-2.259,2.971-6.513,3.563-8.185,6.726c4.162,3.312,6.772,8.587,10.774,5.192
		c4.024-3.411,5.481-8.412,6.239-13.715c0.83-6.465-2.116-9.122-4.46-14.762c-3.268-7.779,2.475-8.183,6.061-13.108
		C102.888,113.687,100.324,114.746,96.735,114.781"/>
</g>
<g>
	
		<linearGradient id="SVGID_15_" gradientUnits="userSpaceOnUse" x1="257.1904" y1="49.7363" x2="256.0613" y2="-3.3301" gradientTransform="matrix(1.0648 -0.1819 -0.1627 -0.9525 -132.2161 204.2883)">
		<stop  offset="0.2909" style="stop-color:#3C2928"/>
		<stop  offset="0.403" style="stop-color:#402D2D"/>
		<stop  offset="0.5668" style="stop-color:#473A39"/>
		<stop  offset="0.7616" style="stop-color:#534E4F"/>
		<stop  offset="0.8424" style="stop-color:#58595B"/>
	</linearGradient>
	<path fill="url(#SVGID_15_)" d="M136.412,114.616c-1.131,2.72-3.809,4.26-4.115,7.12c-0.686,3.77,1.656,8.141,3.037,11.558
		c1.377,3.414,3.061,7.064,0.434,10.318c-2.162,2.898-6.242,3.461-7.838,6.544c4.006,3.249,6.525,8.405,10.358,5.104
		c3.853-3.319,5.235-8.199,5.946-13.375c0.781-6.312-2.055-8.914-4.323-14.428c-3.158-7.607,2.354-7.986,5.78-12.783
		C142.314,113.566,139.859,114.59,136.412,114.616"/>
</g>
<path fill="none" stroke="#000000" stroke-width="2" d="M112.159,118.554c3.846-1.425,3.111-1.915,8.959-2.036
	c4.887-0.102,8.959,2.443,8.959,2.443"/>
</svg>
