<?xml version="1.0" encoding="utf-8"?>
<!-- Generator: Adobe Illustrator 15.0.0, SVG Export Plug-In . SVG Version: 6.00 Build 0)  -->
<!DOCTYPE svg PUBLIC "-//W3C//DTD SVG 1.1//EN" "http://www.w3.org/Graphics/SVG/1.1/DTD/svg11.dtd">
<svg version="1.1" id="Layer_1" xmlns="http://www.w3.org/2000/svg" xmlns:xlink="http://www.w3.org/1999/xlink" x="0px" y="0px"
	 width="250px" height="400px" viewBox="0 0 250 400" enable-background="new 0 0 250 400" xml:space="preserve">
<path fill="#B4B6B8" d="M120.908,171.135l90.475,20.504c-0.229,15.906-0.807,28.464-1.838,31.388l-90.051-49.929l57.441,63.107
	c-14.146,1.773-27.439,0.604-31.691,0.604c-1.527,0-4.957-0.021-9.494-0.043l-18.949-62.765l-7.558,62.584
	c-15.331-0.117-29.601-0.224-29.601-0.224s-7.291,0.752-16.262,0.382l50.793-63.748l-84.59,34.577
	c-0.55-10.528-0.707-24.626-0.58-39.098l85.375,2.558l-83.847-52.297c0.479-7.892,1.031-13.699,1.607-16.013
	c2.135-8.521,29.801-7.813,41.709-7.104l42.952,74.356l1.16-76.618c8.662-0.135,18.691-0.031,30.01,0.465
	c3.35-0.273,6.908-0.486,10.596-0.623l-39,75.922l90.602-53.701c0.678,11.066,1.131,29.104,1.271,47.313L120.908,171.135z"/>
<linearGradient id="SVGID_1_" gradientUnits="userSpaceOnUse" x1="447.6357" y1="706.9551" x2="446.0512" y2="537.4285" gradientTransform="matrix(1 0 0 1 -326.3203 -456.9199)">
	<stop  offset="0" style="stop-color:#FFFFFF"/>
	<stop  offset="1" style="stop-color:#D8E47F"/>
</linearGradient>
<path fill="url(#SVGID_1_)" d="M214.223,180.383v0.01c-0.011,1.86-0.021,3.68-0.029,5.49c-0.012,0.7-0.012,1.4-0.021,2.1v0.27
	c-0.028,1.26-0.04,2.51-0.05,3.73c-0.05,3.26-0.109,6.39-0.189,9.319v0.011c-0.039,1.621-0.091,3.182-0.141,4.682
	c0,0.09-0.021,0.189-0.021,0.279h-0.021c-0.11,3.149-0.22,6.011-0.37,8.511c-0.01,0.08-0.02,0.17-0.02,0.271
	c-0.03,0.352-0.051,0.689-0.07,1.041v0.049c-0.05,0.592-0.09,1.149-0.13,1.689c-0.021,0.221-0.04,0.439-0.062,0.648
	c-0.021,0.19-0.021,0.382-0.039,0.552c-0.021,0.18-0.029,0.35-0.052,0.51c-0.239,2.511-0.51,4.301-0.829,5.2
	c-0.011,0.011-0.011,0.011-0.011,0.021c-0.358,0.358-0.739,0.721-1.12,1.049c-0.81,0.729-1.658,1.41-2.529,2.062
	c-6.408,4.771-14.479,7.59-22.688,9.25c-0.12,0.021-0.24,0.051-0.36,0.069c-2.24,0.431-4.5,0.779-6.729,1.062
	c-1.66,0.209-3.301,0.379-4.92,0.511c-12.57,1.061-23.711,0.108-27.58,0.108c-1.561,0-5.08-0.021-9.73-0.04
	c-3.38-0.021-7.35-0.05-11.6-0.068c-2.41-0.021-4.91-0.041-7.44-0.062c-2.7-0.021-5.43-0.04-8.14-0.05c-0.311,0-0.62,0-0.94-0.021
	l-0.08,0.811l-2.109-0.729v-0.08c-1.99-0.021-3.94-0.027-5.83-0.039c-11.9-0.101-21.391-0.17-21.391-0.17s-7.029,0.709-15.85,0.42
	c-0.27-0.011-0.55-0.021-0.83-0.029c-0.68-0.029-1.359-0.069-2.06-0.109c-0.75-0.051-1.521-0.09-2.28-0.16
	c-3.35-0.27-6.81-0.74-10.11-1.46c-0.56-0.12-1.12-0.25-1.67-0.39c-2.38-0.602-4.649-1.34-6.72-2.26
	c-2.48-1.103-4.67-2.461-6.42-4.143c-0.26-0.25-0.53-0.527-0.78-0.8c-1.62-1.78-2.74-3.899-3.22-6.399
	c-0.2-1.029-0.38-2.238-0.55-3.609c-0.05-0.439-0.101-0.899-0.15-1.379c-0.189-1.73-0.35-3.69-0.49-5.83
	c-0.08-1.08-0.14-2.211-0.21-3.381c-0.04-0.689-0.069-1.391-0.1-2.109c-0.19-4.08-0.32-8.62-0.41-13.45
	c-0.01-0.26-0.01-0.53-0.01-0.79v-0.04c-0.04-1.95-0.07-3.94-0.08-5.97c-0.01-0.58-0.01-1.16-0.021-1.75
	c-0.02-3.89-0.02-7.89,0-11.95c0.011-1.15,0.011-2.32,0.03-3.48v-0.54c0.101-12.13,0.391-24.51,0.811-35.35
	c0.01-0.46,0.029-0.92,0.05-1.37v-0.01c0.04-1.01,0.08-2,0.13-2.98v-0.03c0.17-4.06,0.37-7.85,0.58-11.27
	c0.13-2.24,0.27-4.33,0.43-6.22c0.12-1.71,0.26-3.27,0.4-4.66c0.029-0.31,0.069-0.63,0.1-0.92c0-0.03,0-0.07,0.01-0.11
	c0.23-2.3,0.49-4.03,0.74-5.08c0.71-2.79,4.07-4.62,8.73-5.8c1.449-0.36,3.029-0.65,4.689-0.9c1.49-0.22,3.061-0.4,4.66-0.54
	c2.1-0.18,4.25-0.31,6.41-0.38h0.06c0.61-0.02,1.23-0.03,1.83-0.04c0.601-0.021,1.19-0.03,1.78-0.03c0.55-0.01,1.08-0.01,1.62-0.01
	h0.55c1.63,0.01,3.21,0.04,4.72,0.07c0.2,0.01,0.41,0.01,0.61,0.02c2.69,0.08,5.13,0.2,7.11,0.32c3.399,0.189,5.54,0.4,5.54,0.4
	s0.59-0.1,1.76-0.27c1.35-0.18,3.46-0.45,6.32-0.74c5.52-0.57,13.77-1.22,24.569-1.55v-0.08l0.01-0.18l3.44,0.17h0.05
	c1.16-0.03,2.34-0.05,3.561-0.07c4.85-0.07,10.121-0.07,15.8,0.02c0.77,0.02,1.529,0.02,2.311,0.04h0.09
	c0.25,0.01,0.512,0.01,0.762,0.02c3.77,0.09,7.72,0.22,11.81,0.4c1.892-0.15,3.853-0.29,5.853-0.4c1.64-0.1,3.31-0.18,5.01-0.24
	c2.5-0.09,5.04-0.14,7.6-0.15c1.03,0,2.051,0.01,3.09,0.02h0.07c2.51,0.03,5.01,0.12,7.471,0.25c0.08,0,0.17,0.01,0.239,0.01h0.011
	c0.039,0.01,0.08,0.01,0.119,0.01c0.521,0.03,1.041,0.06,1.562,0.1c2.791,0.18,5.528,0.45,8.141,0.8
	c0.12,0.01,0.261,0.03,0.392,0.05c1.91,0.25,3.75,0.56,5.5,0.91c8.5,1.72,15.021,4.6,17.181,9.13c0.3,0.63,0.51,1.28,0.64,1.98
	c0.33,1.81,0.631,5.18,0.9,9.67c0.408,6.74,0.75,15.97,0.979,26.28c0.051,1.96,0.09,3.97,0.131,6v0.07
	c0.08,5.26,0.16,10.71,0.199,16.18c0.01,0.96,0.021,1.92,0.03,2.88C214.23,170.343,214.242,175.443,214.223,180.383z"/>
<linearGradient id="SVGID_2_" gradientUnits="userSpaceOnUse" x1="447.0498" y1="550.3643" x2="445.6656" y2="686.7097" gradientTransform="matrix(1 0 0 1 -326.3203 -456.9199)">
	<stop  offset="0" style="stop-color:#B1E1E9"/>
	<stop  offset="1" style="stop-color:#E8F6FE"/>
</linearGradient>
<path fill="url(#SVGID_2_)" d="M214.223,180.383v0.01c-0.011,1.86-0.021,3.68-0.029,5.49c-0.012,0.7-0.012,1.4-0.021,2.1v0.27
	c-0.028,1.26-0.04,2.51-0.05,3.73c-0.05,3.26-0.109,6.39-0.189,9.319v0.011c-0.039,1.621-0.091,3.182-0.141,4.682
	c0,0.09-0.021,0.189-0.021,0.279h-0.021c-0.11,3.149-0.22,6.011-0.37,8.511c-0.01,0.08-0.02,0.17-0.02,0.271
	c-0.03,0.352-0.051,0.689-0.07,1.041v0.049c-0.05,0.592-0.09,1.149-0.13,1.689c-0.021,0.221-0.04,0.439-0.062,0.648
	c-0.021,0.19-0.021,0.382-0.039,0.552c-0.021,0.18-0.029,0.35-0.052,0.51c-0.239,2.511-0.51,4.301-0.829,5.2
	c-0.011,0.011-0.011,0.011-0.011,0.021c-0.358,0.358-0.739,0.721-1.12,1.049c-0.81,0.729-1.658,1.41-2.529,2.062
	c-6.408,4.771-14.479,7.59-22.688,9.25c-0.12,0.021-0.24,0.051-0.36,0.069c-2.24,0.431-4.5,0.779-6.729,1.062
	c-1.66,0.209-3.301,0.379-4.92,0.511c-12.57,1.061-23.711,0.108-27.58,0.108c-1.561,0-5.08-0.021-9.73-0.04
	c-3.38-0.021-7.35-0.05-11.6-0.068c-2.41-0.021-4.91-0.041-7.44-0.062c-2.7-0.021-5.43-0.04-8.14-0.05c-0.311,0-0.62,0-0.94-0.021
	l-0.08,0.811l-2.109-0.729v-0.08c-1.99-0.021-3.94-0.027-5.83-0.039c-11.9-0.101-21.391-0.17-21.391-0.17s-7.029,0.709-15.85,0.42
	c-0.27-0.011-0.55-0.021-0.83-0.029c-0.68-0.029-1.359-0.069-2.06-0.109c-0.75-0.051-1.521-0.09-2.28-0.16
	c-3.35-0.27-6.81-0.74-10.11-1.46c-0.56-0.12-1.12-0.25-1.67-0.39c-2.38-0.602-4.649-1.34-6.72-2.26
	c-2.48-1.103-4.67-2.461-6.42-4.143c-0.26-0.25-0.53-0.527-0.78-0.8c-1.62-1.78-2.74-3.899-3.22-6.399
	c-0.2-1.029-0.38-2.238-0.55-3.609c-0.05-0.439-0.101-0.899-0.15-1.379l-3.28-0.521c0,0,0.16-2.17,0.391-5.271
	c0.12-1.68,0.27-3.618,0.43-5.639c0.39-5.011,0.84-10.471,1.15-13.331c0.029-0.3,0.06-0.56,0.09-0.8v-0.04
	c-0.04-1.95-0.07-3.94-0.08-5.97c-0.01-0.58-0.01-1.16-0.021-1.75c-0.279-4.11-0.72-8.59-0.529-11.9c0.02-0.37,0.05-0.73,0.09-1.07
	c0.11-0.94,0.25-1.76,0.47-2.46v-0.54c0.101-12.13,0.391-24.51,0.811-35.35c0.01-0.46,0.029-0.92,0.05-1.37v-0.01
	c0.04-1.01,0.08-2,0.13-2.98v-0.03c0.17-4.06,0.37-7.85,0.58-11.271c0.13-2.24,0.27-4.33,0.43-6.22c0.12-1.71,0.26-3.27,0.4-4.66
	c0.029-0.31,0.069-0.63,0.1-0.92c0-0.03,0-0.07,0.01-0.11c0.23-2.3,0.49-4.03,0.74-5.08c0.71-2.79,4.07-4.62,8.73-5.8
	c1.449-0.36,3.029-0.65,4.689-0.9c1.49-0.22,3.061-0.4,4.66-0.54c2.1-0.18,4.25-0.31,6.41-0.38h0.06c0.61-0.021,1.23-0.03,1.83-0.04
	c0.601-0.02,1.19-0.03,1.78-0.03c0.55-0.01,1.08-0.01,1.62-0.01h0.55c1.63,0.01,3.21,0.04,4.72,0.07c0.2,0.01,0.41,0.01,0.61,0.02
	c2.69,0.08,5.13,0.2,7.11,0.32c3.399,0.19,5.54,0.4,5.54,0.4s0.59-0.1,1.76-0.27c1.35-0.18,3.46-0.45,6.32-0.74
	c5.52-0.57,13.77-1.22,24.569-1.55v-0.08h68.851c2.789,0.18,5.529,0.45,8.14,0.8c0.12,0.01,0.261,0.03,0.39,0.05
	c1.91,0.25,3.75,0.56,5.5,0.91c8.5,1.72,15.021,4.6,17.183,9.13c0.3,0.63,0.51,1.28,0.64,1.98c0.33,1.81,0.631,5.18,0.899,9.67
	c0.409,6.74,0.75,15.97,0.979,26.28c0.05,1.96,0.091,3.97,0.13,6v0.07c0.08,5.26,0.16,10.71,0.2,16.18
	c0.011,0.96,0.021,1.92,0.03,2.88C214.23,170.343,214.242,175.443,214.223,180.383z"/>
<linearGradient id="SVGID_3_" gradientUnits="userSpaceOnUse" x1="446.6465" y1="590.1016" x2="445.8202" y2="671.4976" gradientTransform="matrix(1 0 0 1 -326.3203 -456.9199)">
	<stop  offset="0" style="stop-color:#86C54A"/>
	<stop  offset="1" style="stop-color:#0C743B"/>
</linearGradient>
<path fill="url(#SVGID_3_)" d="M214.223,180.383v0.01c-0.011,1.86-0.021,3.68-0.029,5.49c-0.012,0.7-0.012,1.4-0.021,2.1v0.27
	c-0.028,1.26-0.04,2.51-0.05,3.73c-0.05,3.26-0.109,6.39-0.189,9.319v0.011c-0.039,1.621-0.091,3.182-0.141,4.682
	c0,0.09-0.021,0.189-0.021,0.279h-0.021c-0.11,3.149-0.22,6.011-0.37,8.511c-0.01,0.08-0.02,0.17-0.02,0.271
	c-0.03,0.352-0.051,0.689-0.07,1.041v0.049c-0.05,0.592-0.09,1.149-0.13,1.689l-64.91,0.58l-7.56,0.068h-0.012l-29.688,0.262h-0.021
	l-0.34,0.011l-72.57,0.64l-1.58,0.021l-7.989,0.069c-0.05-0.439-0.101-0.899-0.15-1.381l-3.28-0.521c0,0,0.16-2.17,0.391-5.271
	c0.12-1.682,0.27-3.619,0.43-5.641c0.39-5.011,0.84-10.471,1.15-13.331c0.029-0.3,0.06-0.56,0.09-0.8v-0.04
	c-0.04-1.95-0.07-3.94-0.08-5.97c-0.01-0.58-0.01-1.16-0.021-1.75c-0.279-4.11-0.72-8.59-0.529-11.9c0.02-0.37,0.05-0.73,0.09-1.07
	c0.11-0.94,0.25-1.76,0.47-2.46v-0.54c0.101-12.13,0.391-24.51,0.811-35.35c13.39-0.39,25.979-0.75,37.479-1.04
	c11.15-0.28,21.29-0.5,30.16-0.66c0.28,0,0.56-0.01,0.83-0.01c8.43-0.14,15.68-0.22,21.53-0.22c5.779,0,11.479,0.1,17.07,0.29
	c30.189,1.02,57.5,4.55,78.909,8.28c0.05,1.96,0.091,3.97,0.13,6v0.07c0.08,5.26,0.16,10.71,0.2,16.18
	c0.011,0.96,0.021,1.92,0.03,2.88C214.23,170.343,214.242,175.443,214.223,180.383z"/>
<linearGradient id="SVGID_4_" gradientUnits="userSpaceOnUse" x1="445.5596" y1="667.7129" x2="445.287" y2="694.55" gradientTransform="matrix(1 0 0 1 -326.3203 -456.9199)">
	<stop  offset="0" style="stop-color:#FFE8A1"/>
	<stop  offset="1" style="stop-color:#FFC95E"/>
</linearGradient>
<path fill="url(#SVGID_4_)" d="M213.292,216.143c-0.05,0.59-0.09,1.149-0.13,1.689c-0.021,0.22-0.04,0.439-0.061,0.65
	c-0.021,0.188-0.021,0.379-0.041,0.55c-0.021,0.18-0.028,0.35-0.049,0.51c-0.24,2.51-0.512,4.301-0.83,5.2
	c-0.012,0.011-0.012,0.011-0.012,0.021c-0.359,0.357-0.738,0.719-1.12,1.049c-0.81,0.729-1.659,1.41-2.528,2.061
	c-6.41,4.77-14.479,7.59-22.689,9.25c-0.12,0.02-0.24,0.051-0.359,0.07c-2.24,0.43-4.5,0.779-6.729,1.061
	c-1.66,0.209-3.301,0.379-4.92,0.51c-12.57,1.062-23.71,0.109-27.58,0.109c-1.563,0-5.08-0.02-9.729-0.04
	c-3.382-0.021-7.352-0.05-11.602-0.069c-2.41-0.021-4.91-0.041-7.44-0.061c-2.7-0.02-5.43-0.04-8.14-0.051
	c-0.311,0-0.62,0-0.94-0.021l-0.08,0.813l-2.109-0.73v-0.08c-1.99-0.02-3.94-0.029-5.83-0.039c-11.9-0.101-21.391-0.17-21.391-0.17
	s-7.029,0.709-15.85,0.42c-0.27-0.011-0.55-0.021-0.83-0.031c-0.68-0.027-1.359-0.067-2.06-0.107c-0.75-0.051-1.521-0.09-2.28-0.16
	c-3.35-0.271-6.81-0.738-10.11-1.46c-0.56-0.12-1.12-0.25-1.67-0.392c-2.38-0.6-4.649-1.34-6.72-2.26
	c-2.48-1.101-4.67-2.461-6.42-4.141c-0.26-0.25-0.53-0.529-0.78-0.8c-1.62-1.78-2.74-3.899-3.22-6.399
	c-0.2-1.031-0.38-2.24-0.55-3.609c-0.05-0.439-0.101-0.899-0.15-1.381l-3.28-0.521c0,0,0.16-2.17,0.391-5.271
	c0.8-0.012,1.6-0.021,2.399-0.039c3.92-0.051,7.79-0.11,11.62-0.17c25.771-0.381,49.46-0.78,70.24-1.17h0.01
	c3.95-0.07,7.8-0.15,11.54-0.223c3.03-0.061,5.98-0.119,8.86-0.18c1.819-0.04,3.642-0.063,5.47-0.07
	c4.73-0.027,9.461,0.041,14.16,0.17C174.652,211.354,198.412,214.093,213.292,216.143z"/>
<linearGradient id="SVGID_5_" gradientUnits="userSpaceOnUse" x1="435.5918" y1="614.0664" x2="434.2578" y2="639.4002" gradientTransform="matrix(1 0 0 1 -326.3203 -456.9199)">
	<stop  offset="0" style="stop-color:#FEE146"/>
	<stop  offset="0.0545" style="stop-color:#F5831F"/>
	<stop  offset="0.1636" style="stop-color:#FEE146"/>
	<stop  offset="0.2727" style="stop-color:#F9A01E"/>
	<stop  offset="0.4" style="stop-color:#FFCF38"/>
	<stop  offset="0.5152" style="stop-color:#F99D1E"/>
</linearGradient>
<polygon fill="url(#SVGID_5_)" points="134.962,154.866 60.962,155.2 30.295,174.533 174.629,194.2 187.295,157.866 "/>
<linearGradient id="SVGID_6_" gradientUnits="userSpaceOnUse" x1="360.8213" y1="623.5303" x2="360.3192" y2="672.9907" gradientTransform="matrix(1 0 0 1 -326.3203 -456.9199)">
	<stop  offset="0" style="stop-color:#8B281B"/>
	<stop  offset="1" style="stop-color:#E65725"/>
</linearGradient>
<path fill="url(#SVGID_6_)" d="M43.182,189.973c-0.01,0.42-0.069,1.07-0.18,1.91c-0.42,3.26-1.49,9.32-2.54,14.95
	c-0.34,1.841-0.68,3.63-0.99,5.271c-0.689,3.609-1.24,6.449-1.41,7.289c-0.029,0.17-0.05,0.262-0.05,0.262l-1.53-0.239l-8.14-1.312
	l-3.28-0.521c0,0,0.16-2.17,0.391-5.271c0.12-1.682,0.27-3.619,0.43-5.641c0.39-5.011,0.84-10.471,1.15-13.331
	c0.029-0.3,0.06-0.56,0.09-0.8v-0.04c0.189-1.6,0.149-3.68,0.01-5.96c-0.03-0.57-0.06-1.16-0.11-1.76
	c-0.279-4.11-0.72-8.59-0.529-11.9c0.02-0.37,0.05-0.73,0.09-1.07c0.11-0.94,0.25-1.76,0.47-2.46c1.03-3.46,3.62-4.22,10.66-3.51
	c0,0,1.05,1.46,1.76,2.91c0.37,0.75,0.641,1.5,0.63,2.03c0,0.15,0.03,0.43,0.08,0.8c0.141,0.95,0.44,2.54,0.811,4.41
	c0.63,3.22,1.43,7.27,1.87,10.36C43.072,187.853,43.202,189.133,43.182,189.973z"/>
<linearGradient id="SVGID_7_" gradientUnits="userSpaceOnUse" x1="1107.7969" y1="780.7822" x2="1107.6345" y2="796.7632" gradientTransform="matrix(-0.0099 0.4444 0.8237 0.0184 -524.2983 -314.8961)">
	<stop  offset="0" style="stop-color:#8B281B"/>
	<stop  offset="1" style="stop-color:#E65725"/>
</linearGradient>
<path fill="url(#SVGID_7_)" d="M113.079,165.039c7.015-0.511,8.633,0.86,8.92,6.424c0.289,5.565-1.582,15.529-1.283,20.649
	c0.297,5.12,0.676,25.138,0.676,25.138l-10.748,1.539c0,0-3.131-25.86-3.043-29.86c0.09-4,3.274-17.492,3.31-19.047
	C110.944,168.326,113.079,165.039,113.079,165.039z"/>
<linearGradient id="SVGID_8_" gradientUnits="userSpaceOnUse" x1="406.5674" y1="626.9111" x2="406.4051" y2="642.8922" gradientTransform="matrix(1 0 0 1 -326.3203 -456.9199)">
	<stop  offset="0" style="stop-color:#8B281B"/>
	<stop  offset="1" style="stop-color:#E65725"/>
</linearGradient>
<path fill="url(#SVGID_8_)" d="M133.962,174.033l-3.68,11.94l-0.32,1.06c0,0-3.63-0.08-9.08-0.2c-0.13-0.01-0.27-0.01-0.4-0.01
	c-0.01,0-0.01,0-0.02,0c-3.62-0.09-7.99-0.19-12.63-0.3c-13.13-0.33-28.351-0.73-34.37-0.99c-7.47-0.32-19.6,0.41-30.6,0.82
	c-5.851,0.22-11.381,0.35-15.73,0.19c-0.03,0-0.06-0.01-0.09-0.01c-0.01-0.58-0.01-1.16-0.021-1.75
	c-0.279-4.11-0.72-8.59-0.529-11.9c0.17-0.02,0.35-0.03,0.529-0.05c1.801-0.15,4.221-0.38,6.99-0.65h0.01
	c1.921-0.18,3.99-0.38,6.16-0.6c9.99-0.96,21.75-2.05,26.78-2.05c5.15,0,26.36,1.47,43.56,2.73c4.16,0.31,8.091,0.61,11.5,0.86
	c2.94,0.22,5.491,0.42,7.471,0.57C132.302,173.903,133.962,174.033,133.962,174.033z"/>
<linearGradient id="SVGID_9_" gradientUnits="userSpaceOnUse" x1="407.5107" y1="647.2275" x2="407.3485" y2="663.2067" gradientTransform="matrix(1 0 0 1 -326.3203 -456.9199)">
	<stop  offset="0" style="stop-color:#E65725"/>
	<stop  offset="1" style="stop-color:#8B281B"/>
</linearGradient>
<path fill="url(#SVGID_9_)" d="M136.292,194.363l-3.681,11.939l-0.319,1.063c0,0-4.55-0.101-11.12-0.261
	c-3.52-0.08-7.62-0.17-11.92-0.279c-12.91-0.319-27.57-0.7-33.46-0.96c-8.57-0.37-23.24,0.641-35.33,0.97
	c-4.14,0.12-7.98,0.16-11.17,0.03c-0.61-0.021-1.19-0.052-1.75-0.08c-0.58-0.04-1.13-0.07-1.66-0.109
	c0.39-5.011,0.84-10.471,1.15-13.331c0.029-0.01,0.069-0.01,0.1-0.01c2.51-0.15,8.79-0.77,15.87-1.45
	c9.88-0.96,21.34-2.02,26.29-2.02c4.66,0,22.42,1.2,38.479,2.36c4.591,0.34,9.03,0.66,13,0.96c4.471,0.33,8.331,0.63,11.081,0.84
	C134.643,194.233,136.292,194.363,136.292,194.363z"/>
<linearGradient id="SVGID_10_" gradientUnits="userSpaceOnUse" x1="437.9375" y1="682.9785" x2="437.3448" y2="694.2331" gradientTransform="matrix(1 0 0 1 -326.3203 -456.9199)">
	<stop  offset="0" style="stop-color:#F89421"/>
	<stop  offset="1" style="stop-color:#FFD475"/>
</linearGradient>
<path fill="url(#SVGID_10_)" d="M166.372,237.593c-11.899-0.101-79.391,0.83-79.391,0.83s-7.029,0.709-15.85,0.42
	c-0.27-0.011-0.55-0.021-0.83-0.03c-0.68-0.028-1.359-0.068-2.06-0.108c-0.75-0.052-1.521-0.09-2.28-0.16
	c-3.35-0.271-6.81-0.739-10.11-1.46c0,0-0.384-8.915,1.73-10.55c5.847-4.519,58.872-3.261,72.293,0.313
	C140.159,229.587,158.676,233.688,166.372,237.593z"/>
<linearGradient id="SVGID_11_" gradientUnits="userSpaceOnUse" x1="1107.9219" y1="-424.9111" x2="1107.7595" y2="-408.9324" gradientTransform="matrix(-0.0099 0.4444 -0.9998 -0.0223 -261.1284 -309.0325)">
	<stop  offset="0" style="stop-color:#8B281B"/>
	<stop  offset="1" style="stop-color:#E65725"/>
</linearGradient>
<path fill="url(#SVGID_11_)" d="M147.714,165.839c-8.481-0.856-10.512,0.433-11.135,5.977c-0.624,5.544,1.151,15.589,0.539,20.689
	c-0.613,5.1-2.06,25.078-2.06,25.078l12.957,2.067c0,0,5.071-25.678,5.162-29.678c0.09-4-3.107-17.634-3.074-19.189
	C150.141,169.229,147.714,165.839,147.714,165.839z"/>
<linearGradient id="SVGID_12_" gradientUnits="userSpaceOnUse" x1="390.9111" y1="607.9531" x2="423.1025" y2="607.9531" gradientTransform="matrix(1 0 0 1 -326.3203 -456.9199)">
	<stop  offset="0" style="stop-color:#CF2B27"/>
	<stop  offset="1" style="stop-color:#F26834"/>
</linearGradient>
<path fill="url(#SVGID_12_)" d="M63.295,136.033c0,0,2,3,2,14s-2,16-2,16h35c0,0-1-8-1-16s1-14,1-14H63.295z"/>
<linearGradient id="SVGID_13_" gradientUnits="userSpaceOnUse" x1="424.2393" y1="607.2031" x2="462.7244" y2="607.2031" gradientTransform="matrix(1 0 0 1 -326.3203 -456.9199)">
	<stop  offset="0" style="stop-color:#CF2B27"/>
	<stop  offset="1" style="stop-color:#F26834"/>
</linearGradient>
<path fill="url(#SVGID_13_)" d="M138.212,159.533c0,0-2.25-5.5-2.259-11c-0.01-5.255,0.759-14,0.759-14l-38.5,1.5
	c0,0-1.999,9.167-1.833,15.167s1.166,14.833,1.166,14.833L138.212,159.533z"/>
<linearGradient id="SVGID_14_" gradientUnits="userSpaceOnUse" x1="407.8242" y1="564.1826" x2="407.5499" y2="591.1994" gradientTransform="matrix(1 0 0 1 -326.3203 -456.9199)">
	<stop  offset="0" style="stop-color:#A12121"/>
	<stop  offset="1" style="stop-color:#722213"/>
</linearGradient>
<polygon fill="url(#SVGID_14_)" points="99.129,136.033 79.962,106.699 63.295,136.033 "/>
<linearGradient id="SVGID_15_" gradientUnits="userSpaceOnUse" x1="417.5791" y1="578.2939" x2="450.6766" y2="578.0433" gradientTransform="matrix(1 0 0 1 -326.3203 -456.9199)">
	<stop  offset="0" style="stop-color:#A12121"/>
	<stop  offset="1" style="stop-color:#722213"/>
</linearGradient>
<polygon fill="url(#SVGID_15_)" points="79.295,106.949 98.295,136.033 136.879,134.95 119.136,106.449 "/>
<linearGradient id="SVGID_16_" gradientUnits="userSpaceOnUse" x1="407.2383" y1="599.5273" x2="407.0145" y2="621.5662" gradientTransform="matrix(1 0 0 1 -326.3203 -456.9199)">
	<stop  offset="0" style="stop-color:#A12121"/>
	<stop  offset="1" style="stop-color:#722213"/>
</linearGradient>
<path fill="url(#SVGID_16_)" d="M67.962,166.095c0,0,1.563-10.938,1.625-13.625s-1.313-10.125-1.313-10.125l24.688-0.063
	c0,0-1.188,6.938-1.188,11.063s1.625,12.625,1.625,12.625L67.962,166.095z"/>
<linearGradient id="SVGID_17_" gradientUnits="userSpaceOnUse" x1="1104.5322" y1="-484.8706" x2="1104.3688" y2="-468.7832" gradientTransform="matrix(-0.0099 0.4444 -0.9998 -0.0223 -261.1284 -309.0325)">
	<stop  offset="0" style="stop-color:#8B281B"/>
	<stop  offset="1" style="stop-color:#E65725"/>
</linearGradient>
<path fill="url(#SVGID_17_)" d="M207.714,161.537c-8.481-0.988-10.512,0.5-11.135,6.899c-0.624,6.399,1.151,17.994,0.539,23.88
	c-0.613,5.888-2.06,28.947-2.06,28.947l12.957,2.387c0,0,5.071-29.639,5.162-34.257c0.09-4.617-3.107-20.354-3.074-22.149
	C210.141,165.45,207.714,161.537,207.714,161.537z"/>
<linearGradient id="SVGID_18_" gradientUnits="userSpaceOnUse" x1="494.8828" y1="622.0996" x2="494.677" y2="642.3637" gradientTransform="matrix(1 0 0 1 -326.3203 -456.9199)">
	<stop  offset="0" style="stop-color:#8B281B"/>
	<stop  offset="1" style="stop-color:#E65725"/>
</linearGradient>
<path fill="url(#SVGID_18_)" d="M214.223,180.383v0.01c-12.201,2.78-25.279,5.38-30.761,5.14c-1.71-0.07-3.66-0.09-5.78-0.07h-0.01
	c-7.17,0.06-16.32,0.57-24.811,0.89c-5.85,0.22-11.381,0.35-15.729,0.19c-0.06-0.01-0.11-0.01-0.17-0.01
	c-2.63-0.1-4.84-0.28-6.68-0.56c-6.88-1.07-8.5-3.73-7.32-10.44c0,0,3.29-1.1,6.53-1.84c1.648-0.38,3.29-0.66,4.47-0.66
	c0.44,0,1.32-0.06,2.53-0.15c3.01-0.25,8.068-0.75,13.689-1.3c9.988-0.96,21.75-2.05,26.778-2.05c1.271,0,3.5-0.17,6.42-0.46h0.011
	c7.5-0.75,19.479-2.3,30.812-3.84C214.23,170.343,214.242,175.443,214.223,180.383z"/>
<linearGradient id="SVGID_19_" gradientUnits="userSpaceOnUse" x1="495.9551" y1="642.7549" x2="495.7526" y2="662.7028" gradientTransform="matrix(1 0 0 1 -326.3203 -456.9199)">
	<stop  offset="0" style="stop-color:#E65725"/>
	<stop  offset="1" style="stop-color:#8B281B"/>
</linearGradient>
<path fill="url(#SVGID_19_)" d="M214.191,185.883c-0.01,0.7-0.01,1.4-0.021,2.1v0.27c-0.029,1.26-0.04,2.51-0.05,3.73
	c-0.052,3.26-0.108,6.39-0.188,9.319v0.011c-11.41,2.552-23.052,4.771-28.142,4.552c-8.569-0.37-23.24,0.641-35.33,0.97
	c-4.142,0.12-7.979,0.16-11.17,0.03c-1.229-0.052-2.358-0.109-3.41-0.189c-1.198-0.101-2.29-0.221-3.271-0.37
	c-6.881-1.068-8.5-3.729-7.319-10.438c0,0,3.312-1.1,6.562-1.84c1.641-0.38,3.271-0.66,4.438-0.66c0.18,0,0.43-0.01,0.739-0.021
	c2.449-0.14,8.789-0.77,15.971-1.46c0.88-0.09,1.771-0.18,2.67-0.26c0.012,0,0.012,0,0.021,0c7.41-0.71,15.289-1.42,20.42-1.66
	c1.229-0.07,2.311-0.1,3.181-0.1C183.602,189.863,199.162,187.903,214.191,185.883z"/>
</svg>
