<?xml version="1.0" encoding="utf-8"?>
<!-- Generator: Adobe Illustrator 15.0.0, SVG Export Plug-In . SVG Version: 6.00 Build 0)  -->
<!DOCTYPE svg PUBLIC "-//W3C//DTD SVG 1.1//EN" "http://www.w3.org/Graphics/SVG/1.1/DTD/svg11.dtd">
<svg version="1.1" id="Layer_1" xmlns="http://www.w3.org/2000/svg" xmlns:xlink="http://www.w3.org/1999/xlink" x="0px" y="0px"
	 width="250px" height="400px" viewBox="0 0 250 400" enable-background="new 0 0 250 400" xml:space="preserve">
<g>
	<linearGradient id="SVGID_1_" gradientUnits="userSpaceOnUse" x1="74.7988" y1="175.9551" x2="99.5415" y2="175.9551">
		<stop  offset="0" style="stop-color:#F9EC31"/>
		<stop  offset="1" style="stop-color:#F6921E"/>
	</linearGradient>
	<path fill="url(#SVGID_1_)" stroke="#F05A28" stroke-width="0.25" stroke-miterlimit="10" d="M99.499,174.191
		c0,1.187,0.413,3.644-1.321,5.145c-2.193,1.897-5.893,3.236-10.44,3.236c-4.383,0-8.875-1.5-11.027-3.382
		c-1.154-1.011-1.911-3.575-1.911-4.851c0-3.654,6.2-5,12.938-5C94.477,169.339,99.499,170.537,99.499,174.191z"/>
	<linearGradient id="SVGID_2_" gradientUnits="userSpaceOnUse" x1="75.0923" y1="173.0156" x2="99.4985" y2="173.0156">
		<stop  offset="0" style="stop-color:#F9EC31"/>
		<stop  offset="1" style="stop-color:#F6921E"/>
	</linearGradient>
	
		<ellipse fill="url(#SVGID_2_)" stroke="#F05A28" stroke-width="0.25" stroke-miterlimit="10" cx="87.295" cy="173.015" rx="12.203" ry="6.617"/>
	<linearGradient id="SVGID_3_" gradientUnits="userSpaceOnUse" x1="76.8574" y1="172.8682" x2="97.7349" y2="172.8682">
		<stop  offset="0" style="stop-color:#FFF690"/>
		<stop  offset="1" style="stop-color:#FFDD15"/>
	</linearGradient>
	
		<ellipse fill="url(#SVGID_3_)" stroke="#F05A28" stroke-width="0.25" stroke-miterlimit="10" cx="87.296" cy="172.868" rx="10.439" ry="4.999"/>
	
		<linearGradient id="SVGID_4_" gradientUnits="userSpaceOnUse" x1="-259.2881" y1="180.041" x2="-234.5454" y2="180.041" gradientTransform="matrix(-1 0 0 1 -131.3398 0)">
		<stop  offset="0" style="stop-color:#F9EC31"/>
		<stop  offset="1" style="stop-color:#F6921E"/>
	</linearGradient>
	<path fill="url(#SVGID_4_)" stroke="#F05A28" stroke-width="0.25" stroke-miterlimit="10" d="M103.249,178.277
		c0,1.187-0.414,3.644,1.323,5.146c2.191,1.896,5.891,3.234,10.438,3.234c4.384,0,8.875-1.499,11.025-3.382
		c1.157-1.01,1.913-3.574,1.913-4.852c0-3.654-6.198-4.999-12.938-4.999C108.27,173.425,103.249,174.623,103.249,178.277z"/>
	
		<linearGradient id="SVGID_5_" gradientUnits="userSpaceOnUse" x1="-259.2881" y1="177.2969" x2="-234.5454" y2="177.2969" gradientTransform="matrix(-1 0 0 1 -131.3398 0)">
		<stop  offset="0" style="stop-color:#F9EC31"/>
		<stop  offset="1" style="stop-color:#F6921E"/>
	</linearGradient>
	<path fill="url(#SVGID_5_)" stroke="#F05A28" stroke-width="0.25" stroke-miterlimit="10" d="M103.249,175.533
		c0,1.187-0.414,3.643,1.323,5.147c2.191,1.896,5.891,3.232,10.438,3.232c4.383,0,8.875-1.498,11.025-3.379
		c1.157-1.013,1.913-3.577,1.913-4.853c0-3.653-6.198-5-12.938-5C108.27,170.681,103.249,171.879,103.249,175.533z"/>
	
		<linearGradient id="SVGID_6_" gradientUnits="userSpaceOnUse" x1="-259.2881" y1="174.1602" x2="-234.5454" y2="174.1602" gradientTransform="matrix(-1 0 0 1 -131.3398 0)">
		<stop  offset="0" style="stop-color:#F9EC31"/>
		<stop  offset="1" style="stop-color:#F6921E"/>
	</linearGradient>
	<path fill="url(#SVGID_6_)" stroke="#F05A28" stroke-width="0.25" stroke-miterlimit="10" d="M103.249,172.396
		c0,1.187-0.414,3.642,1.323,5.146c2.191,1.897,5.891,3.233,10.438,3.233c4.384,0,8.875-1.498,11.025-3.38
		c1.157-1.011,1.913-3.575,1.913-4.853c0-3.654-6.198-4.999-12.938-4.999C108.27,167.544,103.249,168.742,103.249,172.396z"/>
	
		<linearGradient id="SVGID_7_" gradientUnits="userSpaceOnUse" x1="-259.4844" y1="170.8281" x2="-234.7412" y2="170.8281" gradientTransform="matrix(-1 0 0 1 -131.3398 0)">
		<stop  offset="0" style="stop-color:#F9EC31"/>
		<stop  offset="1" style="stop-color:#F6921E"/>
	</linearGradient>
	<path fill="url(#SVGID_7_)" stroke="#F05A28" stroke-width="0.25" stroke-miterlimit="10" d="M103.445,169.063
		c0,1.187-0.415,3.644,1.322,5.147c2.192,1.896,5.891,3.233,10.44,3.233c4.383,0,8.875-1.5,11.026-3.382
		c1.157-1.012,1.912-3.573,1.912-4.851c0-3.654-6.197-4.999-12.938-4.999C108.466,164.212,103.445,165.41,103.445,169.063z"/>
	
		<linearGradient id="SVGID_8_" gradientUnits="userSpaceOnUse" x1="-259.6807" y1="167.6914" x2="-234.9375" y2="167.6914" gradientTransform="matrix(-1 0 0 1 -131.3398 0)">
		<stop  offset="0" style="stop-color:#F9EC31"/>
		<stop  offset="1" style="stop-color:#F6921E"/>
	</linearGradient>
	<path fill="url(#SVGID_8_)" stroke="#F05A28" stroke-width="0.25" stroke-miterlimit="10" d="M103.64,165.928
		c0,1.187-0.411,3.642,1.323,5.145c2.192,1.898,5.891,3.234,10.44,3.234c4.382,0,8.876-1.499,11.026-3.38
		c1.156-1.011,1.911-3.575,1.911-4.852c0-3.654-6.198-4.999-12.938-4.999C108.663,161.076,103.64,162.274,103.64,165.928z"/>
	
		<linearGradient id="SVGID_9_" gradientUnits="userSpaceOnUse" x1="-259.3857" y1="164.751" x2="-234.98" y2="164.751" gradientTransform="matrix(-1 0 0 1 -131.3398 0)">
		<stop  offset="0" style="stop-color:#F9EC31"/>
		<stop  offset="1" style="stop-color:#F6921E"/>
	</linearGradient>
	
		<ellipse fill="url(#SVGID_9_)" stroke="#F05A28" stroke-width="0.25" stroke-miterlimit="10" cx="115.843" cy="164.75" rx="12.203" ry="6.617"/>
	
		<linearGradient id="SVGID_10_" gradientUnits="userSpaceOnUse" x1="-257.623" y1="164.603" x2="-236.7446" y2="164.603" gradientTransform="matrix(-1 0 0 1 -131.3398 0)">
		<stop  offset="0" style="stop-color:#FFF690"/>
		<stop  offset="1" style="stop-color:#FFDD15"/>
	</linearGradient>
	
		<ellipse fill="url(#SVGID_10_)" stroke="#F05A28" stroke-width="0.25" stroke-miterlimit="10" cx="115.844" cy="164.604" rx="10.439" ry="4.998"/>
	
		<linearGradient id="SVGID_11_" gradientUnits="userSpaceOnUse" x1="-261.0742" y1="161.957" x2="-236.3301" y2="161.957" gradientTransform="matrix(-1 0 0 1 -131.3398 0)">
		<stop  offset="0" style="stop-color:#F9EC31"/>
		<stop  offset="1" style="stop-color:#F6921E"/>
	</linearGradient>
	<path fill="url(#SVGID_11_)" stroke="#F05A28" stroke-width="0.25" stroke-miterlimit="10" d="M105.033,160.193
		c0,1.187-0.413,3.643,1.325,5.147c2.19,1.897,5.89,3.232,10.438,3.232c4.384,0,8.875-1.498,11.028-3.38
		c1.156-1.01,1.91-3.576,1.91-4.852c0-3.654-6.198-4.999-12.938-4.999C110.056,155.341,105.033,156.539,105.033,160.193z"/>
	
		<linearGradient id="SVGID_12_" gradientUnits="userSpaceOnUse" x1="-261.2979" y1="159.3599" x2="-236.5552" y2="159.3599" gradientTransform="matrix(-1 0 0 1 -131.3398 0)">
		<stop  offset="0" style="stop-color:#F9EC31"/>
		<stop  offset="1" style="stop-color:#F6921E"/>
	</linearGradient>
	<path fill="url(#SVGID_12_)" stroke="#F05A28" stroke-width="0.25" stroke-miterlimit="10" d="M105.258,157.596
		c0,1.188-0.413,3.644,1.322,5.146c2.192,1.896,5.89,3.235,10.439,3.235c4.385,0,8.875-1.502,11.026-3.384
		c1.156-1.009,1.912-3.572,1.912-4.85c0-3.654-6.2-5-12.938-5C110.28,152.743,105.258,153.941,105.258,157.596z"/>
	
		<linearGradient id="SVGID_13_" gradientUnits="userSpaceOnUse" x1="-261.2471" y1="156.7129" x2="-236.5049" y2="156.7129" gradientTransform="matrix(-1 0 0 1 -131.3398 0)">
		<stop  offset="0" style="stop-color:#F9EC31"/>
		<stop  offset="1" style="stop-color:#F6921E"/>
	</linearGradient>
	<path fill="url(#SVGID_13_)" stroke="#F05A28" stroke-width="0.25" stroke-miterlimit="10" d="M105.208,154.951
		c0,1.185-0.413,3.642,1.324,5.144c2.192,1.899,5.89,3.235,10.438,3.235c4.384,0,8.875-1.5,11.028-3.382
		c1.154-1.01,1.909-3.574,1.909-4.849c0-3.656-6.195-5.001-12.937-5.001C110.231,150.096,105.208,151.294,105.208,154.951z"/>
	
		<linearGradient id="SVGID_14_" gradientUnits="userSpaceOnUse" x1="-260.9541" y1="153.7725" x2="-236.5479" y2="153.7725" gradientTransform="matrix(-1 0 0 1 -131.3398 0)">
		<stop  offset="0" style="stop-color:#F9EC31"/>
		<stop  offset="1" style="stop-color:#F6921E"/>
	</linearGradient>
	
		<ellipse fill="url(#SVGID_14_)" stroke="#F05A28" stroke-width="0.25" stroke-miterlimit="10" cx="117.411" cy="153.771" rx="12.203" ry="6.617"/>
	
		<linearGradient id="SVGID_15_" gradientUnits="userSpaceOnUse" x1="-259.1895" y1="153.626" x2="-238.313" y2="153.626" gradientTransform="matrix(-1 0 0 1 -131.3398 0)">
		<stop  offset="0" style="stop-color:#FFF690"/>
		<stop  offset="1" style="stop-color:#FFDD15"/>
	</linearGradient>
	
		<ellipse fill="url(#SVGID_15_)" stroke="#F05A28" stroke-width="0.25" stroke-miterlimit="10" cx="117.411" cy="153.625" rx="10.438" ry="5"/>
	
		<linearGradient id="SVGID_16_" gradientUnits="userSpaceOnUse" x1="-259.6807" y1="151.6162" x2="-234.9375" y2="151.6162" gradientTransform="matrix(-1 0 0 1 -131.3398 0)">
		<stop  offset="0" style="stop-color:#F9EC31"/>
		<stop  offset="1" style="stop-color:#F6921E"/>
	</linearGradient>
	<path fill="url(#SVGID_16_)" stroke="#F05A28" stroke-width="0.25" stroke-miterlimit="10" d="M103.64,149.852
		c0,1.187-0.411,3.644,1.323,5.146c2.192,1.896,5.891,3.234,10.44,3.234c4.382,0,8.876-1.5,11.026-3.381
		c1.156-1.012,1.911-3.577,1.911-4.853c0-3.653-6.198-4.999-12.938-4.999C108.663,145,103.64,146.199,103.64,149.852z"/>
	
		<linearGradient id="SVGID_17_" gradientUnits="userSpaceOnUse" x1="-259.876" y1="148.8726" x2="-235.1333" y2="148.8726" gradientTransform="matrix(-1 0 0 1 -131.3398 0)">
		<stop  offset="0" style="stop-color:#F9EC31"/>
		<stop  offset="1" style="stop-color:#F6921E"/>
	</linearGradient>
	<path fill="url(#SVGID_17_)" stroke="#F05A28" stroke-width="0.25" stroke-miterlimit="10" d="M103.836,147.106
		c0,1.189-0.413,3.644,1.324,5.147c2.19,1.896,5.889,3.234,10.438,3.234c4.384,0,8.877-1.498,11.027-3.381
		c1.155-1.011,1.91-3.573,1.91-4.853c0-3.654-6.197-4.997-12.938-4.997C108.86,142.257,103.836,143.452,103.836,147.106z"/>
	
		<linearGradient id="SVGID_18_" gradientUnits="userSpaceOnUse" x1="-260.0723" y1="145.5391" x2="-235.3291" y2="145.5391" gradientTransform="matrix(-1 0 0 1 -131.3398 0)">
		<stop  offset="0" style="stop-color:#F9EC31"/>
		<stop  offset="1" style="stop-color:#F6921E"/>
	</linearGradient>
	<path fill="url(#SVGID_18_)" stroke="#F05A28" stroke-width="0.25" stroke-miterlimit="10" d="M104.032,143.774
		c0,1.188-0.411,3.646,1.323,5.146c2.192,1.898,5.891,3.236,10.441,3.236c4.381,0,8.875-1.5,11.026-3.382
		c1.154-1.01,1.911-3.575,1.911-4.85c0-3.654-6.199-5-12.937-5C109.053,138.923,104.032,140.122,104.032,143.774z"/>
	
		<linearGradient id="SVGID_19_" gradientUnits="userSpaceOnUse" x1="-259.7783" y1="142.5986" x2="-235.3716" y2="142.5986" gradientTransform="matrix(-1 0 0 1 -131.3398 0)">
		<stop  offset="0" style="stop-color:#F9EC31"/>
		<stop  offset="1" style="stop-color:#F6921E"/>
	</linearGradient>
	
		<ellipse fill="url(#SVGID_19_)" stroke="#F05A28" stroke-width="0.25" stroke-miterlimit="10" cx="116.235" cy="142.6" rx="12.203" ry="6.615"/>
	
		<linearGradient id="SVGID_20_" gradientUnits="userSpaceOnUse" x1="-258.0127" y1="142.4521" x2="-237.1367" y2="142.4521" gradientTransform="matrix(-1 0 0 1 -131.3398 0)">
		<stop  offset="0" style="stop-color:#FFF690"/>
		<stop  offset="1" style="stop-color:#FFDD15"/>
	</linearGradient>
	
		<ellipse fill="url(#SVGID_20_)" stroke="#F05A28" stroke-width="0.25" stroke-miterlimit="10" cx="116.235" cy="142.452" rx="10.438" ry="5"/>
	
		<linearGradient id="SVGID_21_" gradientUnits="userSpaceOnUse" x1="-300.3271" y1="189.9619" x2="-275.584" y2="189.9619" gradientTransform="matrix(-1 0 0 1 -131.3398 0)">
		<stop  offset="0" style="stop-color:#F9EC31"/>
		<stop  offset="1" style="stop-color:#F6921E"/>
	</linearGradient>
	<path fill="url(#SVGID_21_)" stroke="#F05A28" stroke-width="0.25" stroke-miterlimit="10" d="M144.287,188.197
		c0,1.188-0.412,3.645,1.323,5.147c2.192,1.896,5.889,3.234,10.44,3.234c4.383,0,8.875-1.5,11.024-3.381
		c1.157-1.012,1.912-3.575,1.912-4.852c0-3.654-6.198-5-12.937-5C149.311,183.346,144.287,184.543,144.287,188.197z"/>
	
		<linearGradient id="SVGID_22_" gradientUnits="userSpaceOnUse" x1="-300.0342" y1="187.022" x2="-275.627" y2="187.022" gradientTransform="matrix(-1 0 0 1 -131.3398 0)">
		<stop  offset="0" style="stop-color:#F9EC31"/>
		<stop  offset="1" style="stop-color:#F6921E"/>
	</linearGradient>
	
		<ellipse fill="url(#SVGID_22_)" stroke="#F05A28" stroke-width="0.25" stroke-miterlimit="10" cx="156.491" cy="187.022" rx="12.204" ry="6.616"/>
	
		<linearGradient id="SVGID_23_" gradientUnits="userSpaceOnUse" x1="-298.2686" y1="186.8755" x2="-277.3926" y2="186.8755" gradientTransform="matrix(-1 0 0 1 -131.3398 0)">
		<stop  offset="0" style="stop-color:#FFF690"/>
		<stop  offset="1" style="stop-color:#FFDD15"/>
	</linearGradient>
	
		<ellipse fill="url(#SVGID_23_)" stroke="#F05A28" stroke-width="0.25" stroke-miterlimit="10" cx="156.491" cy="186.876" rx="10.438" ry="4.998"/>
	
		<linearGradient id="SVGID_24_" gradientUnits="userSpaceOnUse" x1="-215.0068" y1="184.4023" x2="-190.2642" y2="184.4023" gradientTransform="matrix(-1 0 0 1 -131.3398 0)">
		<stop  offset="0" style="stop-color:#F9EC31"/>
		<stop  offset="1" style="stop-color:#F6921E"/>
	</linearGradient>
	<path fill="url(#SVGID_24_)" stroke="#F05A28" stroke-width="0.25" stroke-miterlimit="10" d="M58.967,182.639
		c0,1.188-0.413,3.643,1.321,5.146c2.193,1.897,5.893,3.233,10.44,3.233c4.385,0,8.875-1.498,11.027-3.38
		c1.155-1.011,1.912-3.576,1.912-4.853c0-3.654-6.2-4.998-12.938-4.998C63.988,177.787,58.967,178.984,58.967,182.639z"/>
	
		<linearGradient id="SVGID_25_" gradientUnits="userSpaceOnUse" x1="-214.7119" y1="181.4619" x2="-190.3071" y2="181.4619" gradientTransform="matrix(-1 0 0 1 -131.3398 0)">
		<stop  offset="0" style="stop-color:#F9EC31"/>
		<stop  offset="1" style="stop-color:#F6921E"/>
	</linearGradient>
	
		<ellipse fill="url(#SVGID_25_)" stroke="#F05A28" stroke-width="0.25" stroke-miterlimit="10" cx="71.17" cy="181.463" rx="12.202" ry="6.615"/>
	
		<linearGradient id="SVGID_26_" gradientUnits="userSpaceOnUse" x1="-212.9482" y1="181.3164" x2="-192.0698" y2="181.3164" gradientTransform="matrix(-1 0 0 1 -131.3398 0)">
		<stop  offset="0" style="stop-color:#FFF690"/>
		<stop  offset="1" style="stop-color:#FFDD15"/>
	</linearGradient>
	
		<ellipse fill="url(#SVGID_26_)" stroke="#F05A28" stroke-width="0.25" stroke-miterlimit="10" cx="71.169" cy="181.316" rx="10.439" ry="4.999"/>
	<linearGradient id="SVGID_27_" gradientUnits="userSpaceOnUse" x1="115.6948" y1="185.1387" x2="140.1006" y2="185.1387">
		<stop  offset="0" style="stop-color:#F9EC31"/>
		<stop  offset="1" style="stop-color:#F6921E"/>
	</linearGradient>
	
		<ellipse fill="url(#SVGID_27_)" stroke="#F05A28" stroke-width="0.25" stroke-miterlimit="10" cx="127.898" cy="185.138" rx="12.203" ry="6.617"/>
	<linearGradient id="SVGID_28_" gradientUnits="userSpaceOnUse" x1="114.0083" y1="182.3452" x2="138.752" y2="182.3452">
		<stop  offset="0" style="stop-color:#F9EC31"/>
		<stop  offset="1" style="stop-color:#F6921E"/>
	</linearGradient>
	<path fill="url(#SVGID_28_)" stroke="#F05A28" stroke-width="0.25" stroke-miterlimit="10" d="M138.71,180.579
		c0,1.189,0.411,3.645-1.325,5.148c-2.19,1.897-5.889,3.236-10.438,3.236c-4.385,0-8.875-1.502-11.028-3.384
		c-1.156-1.01-1.91-3.572-1.91-4.852c0-3.653,6.198-5,12.938-5S138.71,176.927,138.71,180.579z"/>
	<linearGradient id="SVGID_29_" gradientUnits="userSpaceOnUse" x1="113.7847" y1="179.7476" x2="138.5273" y2="179.7476">
		<stop  offset="0" style="stop-color:#F9EC31"/>
		<stop  offset="1" style="stop-color:#F6921E"/>
	</linearGradient>
	<path fill="url(#SVGID_29_)" stroke="#F05A28" stroke-width="0.25" stroke-miterlimit="10" d="M138.484,177.982
		c0,1.189,0.413,3.646-1.322,5.147c-2.191,1.899-5.891,3.236-10.439,3.236c-4.384,0-8.875-1.5-11.025-3.382
		c-1.158-1.012-1.913-3.575-1.913-4.853c0-3.653,6.198-5,12.938-5S138.484,174.33,138.484,177.982z"/>
	<linearGradient id="SVGID_30_" gradientUnits="userSpaceOnUse" x1="113.833" y1="177.1006" x2="138.5762" y2="177.1006">
		<stop  offset="0" style="stop-color:#F9EC31"/>
		<stop  offset="1" style="stop-color:#F6921E"/>
	</linearGradient>
	<path fill="url(#SVGID_30_)" stroke="#F05A28" stroke-width="0.25" stroke-miterlimit="10" d="M138.533,175.337
		c0,1.188,0.412,3.644-1.322,5.147c-2.194,1.896-5.89,3.232-10.439,3.232c-4.386,0-8.875-1.497-11.027-3.379
		c-1.156-1.013-1.911-3.575-1.911-4.853c0-3.654,6.198-5,12.938-5S138.533,171.684,138.533,175.337z"/>
	<linearGradient id="SVGID_31_" gradientUnits="userSpaceOnUse" x1="114.126" y1="174.1611" x2="138.5332" y2="174.1611">
		<stop  offset="0" style="stop-color:#F9EC31"/>
		<stop  offset="1" style="stop-color:#F6921E"/>
	</linearGradient>
	<path fill="url(#SVGID_31_)" stroke="#F05A28" stroke-width="0.25" stroke-miterlimit="10" d="M138.533,174.162
		c0,3.653-5.464,6.615-12.202,6.615c-6.741,0-12.205-2.961-12.205-6.615c0-3.656,5.464-6.617,12.205-6.617
		C133.069,167.545,138.533,170.506,138.533,174.162z"/>
	<linearGradient id="SVGID_32_" gradientUnits="userSpaceOnUse" x1="115.4014" y1="172.0049" x2="140.1445" y2="172.0049">
		<stop  offset="0" style="stop-color:#F9EC31"/>
		<stop  offset="1" style="stop-color:#F6921E"/>
	</linearGradient>
	<path fill="url(#SVGID_32_)" stroke="#F05A28" stroke-width="0.25" stroke-miterlimit="10" d="M140.101,170.239
		c0,1.187,0.416,3.643-1.323,5.146c-2.19,1.898-5.889,3.237-10.438,3.237c-4.385,0-8.875-1.501-11.026-3.384
		c-1.157-1.01-1.911-3.576-1.911-4.851c0-3.654,6.199-5,12.938-5C135.079,165.388,140.101,166.586,140.101,170.239z"/>
	<linearGradient id="SVGID_33_" gradientUnits="userSpaceOnUse" x1="115.2065" y1="169.2617" x2="139.9482" y2="169.2617">
		<stop  offset="0" style="stop-color:#F9EC31"/>
		<stop  offset="1" style="stop-color:#F6921E"/>
	</linearGradient>
	<path fill="url(#SVGID_33_)" stroke="#F05A28" stroke-width="0.25" stroke-miterlimit="10" d="M139.905,167.496
		c0,1.189,0.414,3.645-1.325,5.146c-2.19,1.899-5.887,3.236-10.437,3.236c-4.384,0-8.876-1.5-11.028-3.382
		c-1.155-1.012-1.909-3.575-1.909-4.852c0-3.655,6.198-4.998,12.937-4.998S139.905,163.841,139.905,167.496z"/>
	<linearGradient id="SVGID_34_" gradientUnits="userSpaceOnUse" x1="115.0098" y1="165.9268" x2="139.7529" y2="165.9268">
		<stop  offset="0" style="stop-color:#F9EC31"/>
		<stop  offset="1" style="stop-color:#F6921E"/>
	</linearGradient>
	<path fill="url(#SVGID_34_)" stroke="#F05A28" stroke-width="0.25" stroke-miterlimit="10" d="M139.71,164.164
		c0,1.188,0.412,3.643-1.322,5.146c-2.195,1.897-5.891,3.233-10.439,3.233c-4.386,0-8.876-1.499-11.027-3.381
		c-1.157-1.01-1.911-3.575-1.911-4.851c0-3.654,6.199-5,12.938-5S139.71,160.509,139.71,164.164z"/>
	<linearGradient id="SVGID_35_" gradientUnits="userSpaceOnUse" x1="115.3032" y1="162.9873" x2="139.71" y2="162.9873">
		<stop  offset="0" style="stop-color:#F9EC31"/>
		<stop  offset="1" style="stop-color:#F6921E"/>
	</linearGradient>
	<path fill="url(#SVGID_35_)" stroke="#F05A28" stroke-width="0.25" stroke-miterlimit="10" d="M139.71,162.988
		c0,3.653-5.464,6.615-12.204,6.615c-6.738,0-12.203-2.961-12.203-6.615c0-3.657,5.464-6.616,12.203-6.616
		C134.246,156.372,139.71,159.331,139.71,162.988z"/>
	<linearGradient id="SVGID_36_" gradientUnits="userSpaceOnUse" x1="117.6216" y1="161.2207" x2="138.5" y2="161.2207">
		<stop  offset="0" style="stop-color:#FFF690"/>
		<stop  offset="1" style="stop-color:#FFDD15"/>
	</linearGradient>
	<path fill="url(#SVGID_36_)" stroke="#F05A28" stroke-width="0.25" stroke-miterlimit="10" d="M138.5,161.22
		c0,2.762-4.675,4.999-10.437,4.999c-5.768,0-10.442-2.237-10.442-4.999c0-2.76,4.674-4.997,10.442-4.997
		C133.825,156.223,138.5,158.459,138.5,161.22z"/>
	<polygon fill="#FFFFFF" stroke="#FFFFFF" stroke-miterlimit="10" points="128.101,178.961 129.611,177.172 132.314,177.886 
		130.228,176.469 132.56,174.514 129.876,175.733 128.5,173.5 128.79,175.912 125.745,176.251 128.758,176.688 	"/>
	<polygon fill="#FFFFFF" stroke="#FFFFFF" stroke-miterlimit="10" points="111.974,154.098 113.484,152.309 116.187,153.022 
		114.101,151.607 116.433,149.649 113.748,150.869 112.374,148.637 112.663,151.049 109.618,151.39 112.633,151.826 	"/>
	<polygon fill="#FFFFFF" stroke="#FFFFFF" stroke-miterlimit="10" points="89.965,173.14 91.474,171.351 94.176,172.065 
		92.091,170.65 94.423,168.692 91.739,169.912 90.366,167.679 90.654,170.092 87.608,170.43 90.624,170.867 	"/>
</g>
</svg>
