<?xml version="1.0" encoding="utf-8"?>
<!-- Generator: Adobe Illustrator 15.0.0, SVG Export Plug-In . SVG Version: 6.00 Build 0)  -->
<!DOCTYPE svg PUBLIC "-//W3C//DTD SVG 1.1//EN" "http://www.w3.org/Graphics/SVG/1.1/DTD/svg11.dtd">
<svg version="1.1" id="Layer_1" xmlns="http://www.w3.org/2000/svg" xmlns:xlink="http://www.w3.org/1999/xlink" x="0px" y="0px"
	 width="250px" height="400px" viewBox="0 0 250 400" enable-background="new 0 0 250 400" xml:space="preserve">
<g>
	
		<linearGradient id="SVGID_1_" gradientUnits="userSpaceOnUse" x1="293.3848" y1="86.5215" x2="292.0229" y2="-59.1904" gradientTransform="matrix(1 0 0 -1 -172.6602 180.04)">
		<stop  offset="0" style="stop-color:#FFFFFF"/>
		<stop  offset="1" style="stop-color:#D8E47F"/>
	</linearGradient>
	<path fill="url(#SVGID_1_)" d="M211.356,163.781c-0.039-5.339-0.113-10.669-0.201-15.808v-0.066
		c-0.229-12.401-0.602-23.711-1.08-31.548c-0.27-4.392-0.557-7.683-0.881-9.452c-0.125-0.681-0.334-1.322-0.621-1.935
		c-2.115-4.43-8.488-7.242-16.793-8.927c-1.713-0.345-3.512-0.641-5.379-0.89c-0.123-0.02-0.258-0.039-0.383-0.048
		c-3.014-0.402-6.219-0.699-9.473-0.88c-0.037,0-0.076,0-0.115-0.01h-0.01c-0.076,0-0.162-0.01-0.238-0.01
		c-2.402-0.124-4.852-0.21-7.301-0.239h-0.066c-1.016-0.01-2.021-0.02-3.023-0.02c-2.496,0.01-4.986,0.058-7.426,0.144
		c-3.703,0.135-7.252,0.354-10.61,0.622c-4.278-0.182-8.383-0.315-12.286-0.402h-0.087c-0.766-0.021-1.512-0.029-2.259-0.048
		c-5.549-0.086-10.707-0.086-15.442-0.009c-1.188,0.02-2.347,0.038-3.475,0.067h-0.057l-3.359-0.172l-0.01,0.258
		c-10.553,0.317-18.619,0.957-24.008,1.513c-2.793,0.287-4.86,0.546-6.181,0.727c-1.14,0.162-1.723,0.259-1.723,0.259
		s-2.084-0.202-5.406-0.393c-1.94-0.115-4.325-0.23-6.955-0.307c-0.192-0.01-0.394-0.01-0.595-0.019
		c-1.473-0.029-3.023-0.058-4.611-0.068h-0.535c-0.525,0-1.053,0-1.588,0.01c-0.574,0-1.148,0.009-1.732,0.028
		c-0.594,0.009-1.195,0.019-1.789,0.038h-0.067c-2.103,0.066-4.21,0.191-6.258,0.364c-1.567,0.144-3.099,0.316-4.556,0.536
		c-1.625,0.239-3.166,0.526-4.582,0.88c-4.555,1.15-7.848,2.94-8.535,5.667c-0.249,1.024-0.498,2.718-0.729,4.965
		c-0.01,0.038-0.01,0.077-0.01,0.106c-0.027,0.286-0.066,0.593-0.095,0.9c-0.134,1.358-0.269,2.879-0.394,4.554
		c-0.152,1.848-0.287,3.886-0.422,6.077c-0.199,3.339-0.392,7.042-0.563,11.014v0.028c-0.049,0.956-0.086,1.932-0.123,2.919v0.01
		c-0.441,10.906-0.749,23.528-0.844,35.879c-0.135,14.496,0.029,28.631,0.574,39.174c0.334,5.951,0.766,10.766,1.368,13.875
		c0.47,2.449,1.568,4.516,3.146,6.258c0.25,0.268,0.509,0.535,0.767,0.785c1.705,1.635,3.849,2.965,6.269,4.037
		c2.027,0.898,4.25,1.627,6.574,2.211c3.713,0.928,7.684,1.492,11.51,1.809c0.746,0.066,1.494,0.115,2.23,0.162
		c0.68,0.037,1.348,0.076,2.01,0.105c0.276,0.01,0.545,0.018,0.813,0.027c8.621,0.287,15.49-0.41,15.49-0.41
		s12.451,0.096,26.603,0.201v0.086l2.065,0.707l0.078-0.785c0.307,0.01,0.611,0.01,0.918,0.01c2.643,0.02,5.311,0.039,7.951,0.059
		c2.479,0.02,4.918,0.037,7.271,0.059c4.152,0.02,8.038,0.049,11.339,0.064c4.545,0.021,7.98,0.041,9.512,0.041
		c3.779,0,14.668,0.926,26.955-0.105c1.578-0.135,3.186-0.299,4.803-0.498c2.184-0.277,4.395-0.621,6.584-1.043
		c0.113-0.02,0.23-0.049,0.344-0.066c8.029-1.619,15.914-4.373,22.182-9.043c0.852-0.633,1.674-1.301,2.469-2.01
		c0.373-0.324,0.746-0.67,1.1-1.023c0-0.01,0-0.01,0.01-0.02c0.309-0.879,0.574-2.629,0.805-5.08
		c0.02-0.164,0.029-0.324,0.049-0.498c0.02-0.172,0.025-0.354,0.047-0.545c0.068-0.729,0.125-1.502,0.182-2.336
		c0.02-0.334,0.039-0.668,0.066-1.016c0-0.094,0.01-0.182,0.02-0.268c0.145-2.439,0.26-5.232,0.363-8.314h0.02
		c0-0.086,0.021-0.182,0.021-0.268c0.143-4.113,0.248-8.746,0.324-13.691c0.01-1.197,0.02-2.412,0.049-3.646v-0.269
		C211.435,180.917,211.435,172.326,211.356,163.781z"/>
	
		<linearGradient id="SVGID_2_" gradientUnits="userSpaceOnUse" x1="336.999" y1="13.335" x2="364.5244" y2="13.335" gradientTransform="matrix(1 0 0 -1 -172.6602 180.04)">
		<stop  offset="0" style="stop-color:#7FC142"/>
		<stop  offset="1" style="stop-color:#CDCC65"/>
	</linearGradient>
	<path fill="url(#SVGID_2_)" stroke="#DCE67F" stroke-miterlimit="10" d="M191.864,95.649l-0.084,1.529l-0.039,0.55l-1.838,31.686
		l-2.172,37.314l-1.225,21.045l-0.096,1.72l-0.689,11.81v0.025l-0.324,5.631l-0.25,4.166l-0.879,15.217l-0.02,0.248l-0.564,9.729
		l-0.029,0.551c-0.113,0.02-0.229,0.047-0.344,0.066c-2.189,0.418-4.4,0.76-6.584,1.035c-1.617,0.197-3.225,0.359-4.803,0.492
		c-0.029-0.18-0.049-0.352-0.078-0.541c-0.104-0.871-0.238-1.852-0.371-2.943c-0.145-1.1-0.299-2.297-0.461-3.586
		c-0.84-6.57-1.939-15.398-3.004-24.436c-0.221-1.869-0.439-3.75-0.65-5.617c-0.459-4.055-0.898-8.068-1.293-11.848
		c-0.229-2.251-0.447-4.416-0.641-6.456c-0.41-4.452-0.717-8.343-0.861-11.269c-0.037-0.889-0.074-1.858-0.104-2.904
		c-0.184-6.236-0.145-15.083,0-24.489c0.143-9.492,0.4-19.575,0.641-28.127c0.059-1.709,0.105-3.351,0.154-4.917v-0.037
		c0.057-1.785,0.104-3.475,0.154-5.041c0.17-5.249,0.313-9.094,0.361-10.604c0.01-0.246,0.02-0.436,0.02-0.55
		c0.01-0.104,0.01-0.151,0.01-0.151l3.014,0.17h0.068l3.127,0.181c0,0,0,0.152-0.02,0.436c-0.02,0.893-0.084,3.095-0.172,6.217
		c-0.02,0.694-0.037,1.435-0.066,2.213c-0.02,0.921-0.049,1.898-0.066,2.923c-0.076,2.582-0.145,5.477-0.211,8.573
		c-0.182,7.669-0.354,16.545-0.449,24.851c-0.096,9.454-0.088,18.179,0.152,23.542c0.059,1.225,0.145,2.619,0.25,4.177
		c0.324,4.518,0.85,10.309,1.482,16.487c0.152,1.566,0.314,3.172,0.479,4.775c0.574,5.43,1.188,10.982,1.76,16.137
		c0.059,0.445,0.107,0.893,0.154,1.328c1.35,11.885,2.496,21.281,2.496,21.281l1.273-20.455l0.049-0.826l1.09-17.465l0.191-3.087
		l1.195-19.117l2.123-34.239l2.26-36.25l0.037-0.551l0.059-0.949L191.864,95.649z"/>
	
		<linearGradient id="SVGID_3_" gradientUnits="userSpaceOnUse" x1="213.2656" y1="13.7422" x2="230.1289" y2="13.7422" gradientTransform="matrix(1 0 0 -1 -172.6602 180.04)">
		<stop  offset="0" style="stop-color:#7FC142"/>
		<stop  offset="1" style="stop-color:#CDCC65"/>
	</linearGradient>
	<path fill="url(#SVGID_3_)" stroke="#CDCC65" stroke-miterlimit="10" d="M57.391,130.032c-0.011,2.249-0.029,4.525-0.058,6.805
		c-0.028,2.908-0.069,5.816-0.116,8.667c-0.152,9.101-0.383,17.675-0.736,24.009c-0.02,0.363-0.037,0.718-0.065,1.063
		c-0.06,1.128-0.136,2.182-0.211,3.139c-0.029,0.354-0.058,0.727-0.097,1.117c-0.037,0.385-0.076,0.786-0.114,1.197
		c-0.048,0.536-0.114,1.102-0.173,1.684c-0.028,0.25-0.047,0.498-0.076,0.748c-0.027,0.258-0.059,0.506-0.086,0.773
		c-0.229,1.98-0.497,4.162-0.795,6.479c-0.047,0.362-0.096,0.736-0.143,1.11c-0.096,0.746-0.201,1.501-0.308,2.276
		c-0.431,3.176-0.908,6.553-1.405,10.01c-0.363,2.506-0.748,5.061-1.13,7.596c-1.724,11.377-3.521,22.564-4.603,29.176
		c-0.037,0.191-0.066,0.373-0.096,0.555c-2.324-0.582-4.547-1.311-6.574-2.211c0.027-0.18,0.047-0.361,0.076-0.545
		c0.93-6.803,2.221-16.381,3.578-26.975c0.182-1.395,0.364-2.813,0.547-4.248c0.555-4.361,1.108-8.852,1.654-13.355
		c0.768-6.334,1.512-12.698,2.172-18.764c1.34-12.308,2.354-23.388,2.604-30.574c0.058-1.77,0.058-4.086-0.01-6.734
		c-0.027-1.445-0.076-2.996-0.125-4.604c-0.19-5.357-0.506-11.443-0.82-16.975c-0.241-4.134-0.479-7.97-0.682-10.966
		c-0.086-1.292-0.162-2.431-0.218-3.368c-0.021-0.201-0.03-0.383-0.05-0.555c2.049-0.172,4.154-0.297,6.258-0.364h0.066
		c0.596-0.02,1.197-0.029,1.789-0.038v0.555c0.011,0.88,0.011,1.942,0.011,3.158C57.477,106.541,57.484,117.919,57.391,130.032z"/>
	
		<linearGradient id="SVGID_4_" gradientUnits="userSpaceOnUse" x1="289.249" y1="13.8081" x2="310.751" y2="13.8081" gradientTransform="matrix(1 0 0 -1 -172.6602 180.04)">
		<stop  offset="0" style="stop-color:#7FC142"/>
		<stop  offset="1" style="stop-color:#CDCC65"/>
	</linearGradient>
	<path fill="url(#SVGID_4_)" stroke="#CDCC65" stroke-miterlimit="10" d="M138.091,94.5c0,0-0.01,0.142-0.029,0.427
		c-0.037,0.558-0.113,1.638-0.221,3.152c-0.447,6.599-1.482,21.42-2.592,36.447c-0.029,0.455-0.068,0.9-0.096,1.354
		c-0.088,1.166-0.174,2.331-0.269,3.485c-0.25,3.381-0.508,6.734-0.757,9.952c-0.027,0.427-0.066,0.853-0.095,1.278
		c-0.021,0.172-0.029,0.33-0.038,0.492c-0.115,1.393-0.223,2.748-0.325,4.071c-0.011,0.144-0.029,0.284-0.039,0.418
		c-0.049,0.644-0.097,1.269-0.152,1.894c-0.012,0.16-0.028,0.332-0.039,0.492c0,0.026,0,0.058-0.008,0.084
		c-0.098,1.176-0.191,2.319-0.289,3.42c-0.037,0.463-0.076,0.908-0.115,1.354c-0.248,2.935-0.487,5.528-0.697,7.669
		c-0.01,0.096-0.02,0.198-0.029,0.293c-0.076,0.758-0.162,1.582-0.258,2.473c-0.027,0.293-0.059,0.596-0.096,0.907
		c-0.057,0.53-0.115,1.071-0.182,1.64c-0.02,0.188-0.039,0.379-0.068,0.578c-0.122,1.184-0.268,2.433-0.43,3.75
		c-0.201,1.836-0.432,3.777-0.68,5.813c-0.086,0.71-0.172,1.433-0.259,2.169c-0.535,4.385-1.108,9.092-1.702,13.777
		c-0.154,1.221-0.309,2.434-0.459,3.645c-0.191,1.563-0.395,3.113-0.585,4.641c-0.009,0.096-0.028,0.197-0.038,0.295v0.008
		c-0.641,5.039-1.264,9.83-1.799,13.938c0,0.049-0.01,0.096-0.01,0.143c-0.383,2.906-0.717,5.475-0.985,7.549
		c-0.237,1.883-0.438,3.359-0.563,4.307c-0.021,0.209-0.049,0.398-0.067,0.551c-0.058,0.426-0.086,0.654-0.086,0.654l-7.445,0.699
		c0,0,0.097-0.494,0.261-1.41c0.027-0.17,0.065-0.352,0.104-0.549c0.183-1.004,0.432-2.357,0.729-3.998
		c0.373-2.082,0.832-4.621,1.35-7.5c0.01-0.018,0.01-0.037,0.01-0.055c0.307-1.668,0.621-3.457,0.956-5.332
		c0.534-2.992,1.101-6.193,1.692-9.518c0.222-1.344,0.461-2.709,0.709-4.09c0.02-0.113,0.039-0.219,0.059-0.332
		c0.354-2.037,0.697-4.092,1.053-6.145c0.076-0.465,0.163-0.93,0.238-1.395c0.564-3.342,1.12-6.674,1.646-9.885
		c0.373-2.293,0.736-4.518,1.063-6.656c0.027-0.15,0.057-0.313,0.074-0.464c0.029-0.171,0.059-0.342,0.076-0.512
		c0.154-0.908,0.289-1.8,0.422-2.661c0-0.01,0-0.01,0-0.02c0.059-0.389,0.115-0.776,0.173-1.154c0.184-1.193,0.354-2.34,0.508-3.438
		c0.114-0.806,0.22-1.583,0.324-2.329c0.221-1.582,0.403-3.021,0.546-4.291c0.076-0.623,0.145-1.296,0.221-2.006
		c0.02-0.201,0.037-0.398,0.059-0.599c0.029-0.313,0.064-0.644,0.096-0.976c0.037-0.426,0.085-0.861,0.124-1.307
		c0.114-1.229,0.229-2.547,0.335-3.93c0.01-0.028,0.01-0.059,0.01-0.094c0.01-0.145,0.028-0.293,0.038-0.444
		c0.162-2.011,0.325-4.148,0.479-6.394c0.01-0.074,0.02-0.16,0.02-0.246c0.048-0.664,0.096-1.334,0.15-2.018
		c0.185-2.699,0.365-5.521,0.548-8.39c0.181-2.897,0.362-5.862,0.534-8.797c0.059-1.005,0.115-2.008,0.162-3.002
		c0.738-12.622,1.322-24.563,1.601-30.434c0.065-1.438,0.124-2.51,0.151-3.144c0.01-0.256,0.02-0.435,0.02-0.549
		c0.01-0.076,0.01-0.113,0.01-0.113l2.249,0.16h0.086L138.091,94.5z"/>
	
		<linearGradient id="SVGID_5_" gradientUnits="userSpaceOnUse" x1="278.4961" y1="14.9028" x2="290.4844" y2="14.9028" gradientTransform="matrix(1 0 0 -1 -172.6602 180.04)">
		<stop  offset="0" style="stop-color:#7FC142"/>
		<stop  offset="1" style="stop-color:#CDCC65"/>
	</linearGradient>
	<polygon fill="url(#SVGID_5_)" stroke="#CDCC65" stroke-miterlimit="10" points="117.824,94.497 117.814,94.797 117.671,97.899 
		117.605,99.332 117.596,99.464 117.395,103.99 117.355,104.917 117.355,104.927 117.346,105.123 117.25,107.12 117.25,107.128 
		115.316,149.745 115.309,149.999 115.309,150.01 115.05,155.727 115.031,156.164 115.031,156.184 114.753,162.406 114.667,164.271 
		114.57,166.398 114.57,166.407 114.516,167.559 113.088,182.383 112.953,183.742 112.629,187.135 111.854,195.174 111.441,199.4 
		110.963,204.377 110.553,208.611 109.605,218.469 109.146,223.27 109.117,223.512 108.409,230.934 108.293,232.096 
		108.025,234.813 107.979,235.355 107.9,236.123 105.836,235.432 105.836,235.348 105.863,234.803 106.007,232.086 106.074,230.857 
		106.074,230.848 106.457,223.484 106.475,223.063 106.764,217.625 107.241,208.631 107.463,204.377 107.691,199.99 
		107.835,197.328 107.835,197.32 108.197,190.463 108.197,190.451 108.371,187.135 108.628,182.271 108.801,178.916 
		108.801,178.907 109.031,174.514 109.242,170.538 109.251,170.315 109.309,167.69 109.414,162.227 109.5,157.815 109.5,157.805 
		109.537,156.344 109.537,156.297 109.547,155.911 109.663,150.01 109.663,149.867 110.208,122.965 110.208,122.955 
		110.408,113.246 110.408,113.238 110.457,110.878 110.457,110.727 110.771,94.947 110.781,94.404 110.791,94.151 114.15,94.319 
		114.207,94.319 	"/>
	
		<linearGradient id="SVGID_6_" gradientUnits="userSpaceOnUse" x1="212.8555" y1="13.0488" x2="259.4336" y2="13.0488" gradientTransform="matrix(1 0 0 -1 -172.6602 180.04)">
		<stop  offset="0" style="stop-color:#7FC142"/>
		<stop  offset="1" style="stop-color:#CDCC65"/>
	</linearGradient>
	<path fill="url(#SVGID_6_)" stroke="#CDCC65" stroke-miterlimit="10" d="M86.773,95.921l-0.01,0.555l-0.123,7.491l-0.068,4.221
		v0.01l-0.19,10.926l-0.394,23.242l-0.075,4.593v0.01l-0.095,5.291v0.117l-0.039,2.198l-0.059,3.444l-0.01,0.326v0.037l-0.048,2.604
		l-0.097,6.01l-0.258,4.438l-0.718,12.421l-0.087,1.368l-0.018,0.354l-0.039,0.679l-0.163,2.844l-0.736,12.506l-0.297,5.1
		l-0.335,5.77l-0.047,0.766l-0.518,8.824l-0.115,2.037l-0.362,6.295l-0.03,0.451l-0.066,1.119l-0.161,2.842l-0.162,2.773
		l-0.03,0.479h-8.679c0,0,0.01-0.039,0.021-0.096c0.028-0.297,0.152-1.271,0.324-2.729c0.191-1.645,0.46-3.902,0.737-6.523
		c0.151-1.475,0.315-3.064,0.479-4.719c0.055-0.592,0.112-1.197,0.172-1.799c0.057-0.641,0.104-1.291,0.172-1.941
		c0.183-2.145,0.354-4.326,0.486-6.471c0.163-2.469,0.277-4.879,0.325-7.08c0.011-0.486,0.021-0.965,0.021-1.434
		c0.02-1.705-0.021-3.246-0.114-4.564c-0.028-0.557-0.087-1.07-0.146-1.541c-0.296-2.211-0.957-5.1-1.854-8.382
		c-0.153-0.556-0.315-1.11-0.487-1.685c-0.277-0.985-0.584-2-0.908-3.051c0.008-0.011,0-0.021,0-0.021
		c-0.472-1.532-0.978-3.119-1.502-4.729c0,0,0-0.009,0-0.019c-1.121-3.416-2.354-6.937-3.59-10.401
		c-4.64-12.924-9.443-24.75-9.443-24.75l-0.221-0.623l-0.65-1.798l-3.387-9.455v-0.009l-2.076-5.817l-9.426-26.323l-1.301-3.617
		l-0.182-0.506c1.416-0.354,2.955-0.641,4.582-0.88l0.201,0.515l1.293,3.369l4.01,10.468l6.189,16.181l0.92,2.401l3.442,8.985
		l5.292,13.826l5.195,18.17l0.461,1.608v0.009l1.443,5.024l2.736,9.588h0.01l0.526,1.856l0.104,0.363l0.066,0.229l2.555,8.918
		l0.775,2.717l0.191,0.67v-0.781l0.02-3.867l0.02-4.412l0.01-2.534l0.01-1.302v-1.131l0.01-1.895l0.047-14.791l0.038-11.167
		l0.011-1.562v-0.354l0.02-5.462l0.01-1.531l0.02-4.66l0.104-26.649l0.029-8.573l0.01-2.307l0.048-11.816v-0.555
		C81.913,96.467,83.98,96.208,86.773,95.921z"/>
	
		<linearGradient id="SVGID_7_" gradientUnits="userSpaceOnUse" x1="433.3662" y1="753.2363" x2="454.875" y2="753.2363" gradientTransform="matrix(1 0 0 1 -345.3203 -635.9248)">
		<stop  offset="0" style="stop-color:#7FC142"/>
		<stop  offset="1" style="stop-color:#CDCC65"/>
	</linearGradient>
	<polygon fill="url(#SVGID_7_)" stroke="#CDCC65" stroke-miterlimit="10" points="88.046,105.822 88.46,100.162 109.555,134.461 	
		"/>
	
		<linearGradient id="SVGID_8_" gradientUnits="userSpaceOnUse" x1="233.5771" y1="12.6182" x2="269.2695" y2="12.6182" gradientTransform="matrix(1 0 0 -1 -172.6602 180.04)">
		<stop  offset="0" style="stop-color:#7FC142"/>
		<stop  offset="1" style="stop-color:#CDCC65"/>
	</linearGradient>
	<path fill="url(#SVGID_8_)" stroke="#CDCC65" stroke-miterlimit="10" d="M96.609,99.432l-0.478,4.497l-3.35-4.497
		c0,0-1.08,1.407-2.603,3.531c-0.632,0.87-1.34,1.866-2.078,2.938c-0.496,0.736-1.004,1.502-1.529,2.287v0.01
		c-1.168,1.789-2.346,3.674-3.34,5.473c-1.312,2.345-2.346,4.544-2.728,6.229c-0.086,0.364-0.144,0.708-0.163,1.016
		c-0.439,6.583-1.576,16.496-3.072,27.825c-0.018,0.162-0.037,0.325-0.064,0.487c-0.163,1.234-0.325,2.486-0.498,3.751
		c-0.229,1.761-0.479,3.55-0.729,5.368c-0.008,0.096-0.027,0.182-0.037,0.277c0,0.027-0.01,0.047-0.01,0.076
		c-0.027,0.209-0.057,0.41-0.088,0.623c-0.533,3.855-1.1,7.798-1.674,11.775c-0.305,2.185-0.63,4.365-0.945,6.557
		c-0.412,2.805-0.834,5.598-1.254,8.372c0,0,0.01,0.011,0,0.021c-0.154,1.022-0.308,2.037-0.451,3.053
		c-0.133,0.869-0.267,1.74-0.393,2.602c-0.793,5.205-1.568,10.26-2.305,15.004c-0.536,3.406-1.043,6.658-1.531,9.703
		c-0.086,0.592-0.182,1.166-0.27,1.74c-0.019,0.105-0.037,0.211-0.047,0.316c-0.172,1.092-0.345,2.152-0.508,3.166
		c-1.242,7.875-2.211,13.76-2.631,16.354c-0.039,0.201-0.066,0.393-0.098,0.555c-0.266-0.01-0.534-0.02-0.813-0.027
		c-0.66-0.029-1.33-0.068-2.009-0.105c0.028-0.162,0.065-0.344,0.104-0.545c0.736-4.172,2.86-16.123,5.358-31.156
		c0.736-4.439,1.513-9.139,2.287-14c0.192-1.193,0.383-2.391,0.574-3.604c0.411-2.574,0.821-5.178,1.226-7.801c0,0,0-0.008,0-0.019
		c0.439-2.871,0.881-5.759,1.311-8.649v-0.01c0.086-0.525,0.162-1.063,0.238-1.589c0.612-4.065,1.196-8.133,1.742-12.104
		c0-0.047,0.01-0.104,0.02-0.152c0-0.029,0.009-0.059,0.009-0.086c0.01-0.085,0.028-0.182,0.039-0.27
		c0.249-1.789,0.487-3.549,0.718-5.291c0.124-0.929,0.249-1.854,0.363-2.774c0.105-0.794,0.212-1.589,0.306-2.363v-0.011
		c1.638-12.955,2.737-24.229,2.737-31.223c0-1.33,1.1-3.339,2.584-5.436c0.238-0.344,0.486-0.678,0.744-1.022
		c1.83-2.44,4.002-4.86,5.359-6.336c0.822-0.879,1.358-1.426,1.358-1.426l0.354-0.984l0.01-0.02v-0.038l0.326-0.957v-0.009
		l0.267-0.757l2.87-3.473l3.828,0.354L96.609,99.432z"/>
	
		<linearGradient id="SVGID_9_" gradientUnits="userSpaceOnUse" x1="231.7529" y1="72.5264" x2="247.4971" y2="72.5264" gradientTransform="matrix(1 0 0 -1 -172.6602 180.04)">
		<stop  offset="0" style="stop-color:#7FC142"/>
		<stop  offset="1" style="stop-color:#CDCC65"/>
	</linearGradient>
	<path fill="url(#SVGID_9_)" stroke="#CDCC65" stroke-miterlimit="10" d="M74.814,100.513c-0.364,1.569-2.861,4.144-4.135,5.302
		c-0.718,0.649-3.312,2.125-3.312,2.125l1.655,2.831c0,0,1.809,3.129,1.656,4.24c-0.174,1.147-2.898,3.894-2.898,3.894l-1.243-4.249
		l-2.479-4.594l-1.654,4.24l-2.067,3.894c0,0-1.291-5.818-1.243-7.779c0.059-1.98,1.655-7.78,1.655-7.78l-0.832-2.831l-0.412-1.407
		c0,0-0.162-0.774-0.269-1.712c-0.02-0.183-0.037-0.364-0.057-0.555c0.535-0.01,1.063-0.01,1.588-0.01c0,0.22,0,0.412-0.01,0.555
		c0,0.192-0.01,0.306-0.01,0.306l0.201-0.306l0.354-0.555c1.588,0.01,3.139,0.039,4.611,0.068c0.01,0.191,0.02,0.373,0.02,0.564
		c0.01,0.803-0.037,1.569-0.22,1.99c-0.114,0.269-0.448,0.641-0.842,1.033c-0.728,0.718-1.646,1.445-1.646,1.445l1.244,6.362
		l7.922-7.605l2.01-1.932c0,0,0.383,1.282,0.422,2.057C74.843,100.275,74.843,100.407,74.814,100.513z"/>
	
		<linearGradient id="SVGID_10_" gradientUnits="userSpaceOnUse" x1="504.5088" y1="763.4922" x2="508.2295" y2="763.4922" gradientTransform="matrix(1 0 0 1 -345.3203 -635.9248)">
		<stop  offset="0" style="stop-color:#7FC142"/>
		<stop  offset="1" style="stop-color:#CDCC65"/>
	</linearGradient>
	<polygon fill="url(#SVGID_10_)" stroke="#CDCC65" stroke-miterlimit="10" points="162.497,94.506 159.601,116.427 159.188,150.729 
		162.909,160.627 162.497,148.959 160.429,139.765 161.255,116.781 	"/>
	
		<linearGradient id="SVGID_11_" gradientUnits="userSpaceOnUse" x1="509.1084" y1="746.3184" x2="523.5342" y2="746.3184" gradientTransform="matrix(1 0 0 1 -345.3203 -635.9248)">
		<stop  offset="0" style="stop-color:#7FC142"/>
		<stop  offset="1" style="stop-color:#CDCC65"/>
	</linearGradient>
	<path fill="url(#SVGID_11_)" stroke="#D8E47F" stroke-miterlimit="10" d="M164.149,105.822c1.74-1.942,9.314,0.26,11.168,2.121
		c1.551,1.552,2.896,7.779,2.896,7.779s-7.088-0.758-9.102-1.769C166.804,112.789,162.519,107.64,164.149,105.822z"/>
	
		<linearGradient id="SVGID_12_" gradientUnits="userSpaceOnUse" x1="495.3994" y1="734.7148" x2="504.7852" y2="734.7148" gradientTransform="matrix(1 0 0 1 -345.3203 -635.9248)">
		<stop  offset="0" style="stop-color:#7FC142"/>
		<stop  offset="1" style="stop-color:#CDCC65"/>
	</linearGradient>
	<path fill="url(#SVGID_12_)" stroke="#D8E47F" stroke-miterlimit="10" d="M158.772,94.859c1.459,0.858,0.336,4.871-0.826,6.011
		c-0.852,0.834-4.551,2.121-4.551,2.121s-3.498-2.979-3.309-4.243C150.399,96.671,156.755,93.672,158.772,94.859z"/>
	
		<linearGradient id="SVGID_13_" gradientUnits="userSpaceOnUse" x1="249.9805" y1="13.8291" x2="349.6182" y2="13.8291" gradientTransform="matrix(1 0 0 -1 -172.6602 180.04)">
		<stop  offset="0" style="stop-color:#7FC142"/>
		<stop  offset="1" style="stop-color:#CDCC65"/>
	</linearGradient>
	<path fill="url(#SVGID_13_)" stroke="#D9E47B" stroke-width="3" stroke-miterlimit="10" d="M176.958,95.461
		c-0.039,0.066-0.172,0.321-0.41,0.756c-0.086,0.16-0.184,0.338-0.297,0.547c-0.854,1.556-2.42,4.434-4.498,8.19
		c-0.432,0.801-0.9,1.642-1.379,2.51c-1.09,1.98-2.285,4.132-3.549,6.425c-0.564,1-1.129,2.029-1.723,3.075
		c-1.291,2.331-2.65,4.766-4.057,7.274c-0.518,0.905-1.035,1.831-1.551,2.757c-3.752,6.641-7.732,13.622-11.569,20.2
		c-0.727,1.254-1.454,2.499-2.171,3.717c-0.527,0.889-1.044,1.764-1.551,2.622c-0.01,0.021-0.021,0.038-0.028,0.048
		c-1.005,1.688-1.981,3.33-2.938,4.906c-0.238,0.396-0.479,0.783-0.707,1.17c-0.114,0.18-0.221,0.359-0.336,0.537
		c0,0.02-0.019,0.039-0.028,0.059c-0.842,1.377-1.653,2.698-2.438,3.953c-1.953,3.133-3.723,5.85-5.204,7.981
		c-0.078,0.104-0.145,0.207-0.223,0.312c-0.64,0.915-1.367,1.906-2.15,2.963c-0.433,0.574-0.883,1.16-1.351,1.766
		c-0.563,0.734-1.147,1.488-1.762,2.273l-0.009,0.01c-0.584,0.744-1.188,1.5-1.809,2.281c-0.621,0.784-1.271,1.577-1.934,2.396
		c-0.153,0.188-0.307,0.377-0.46,0.564c-0.153,0.183-0.296,0.359-0.449,0.549c-0.718,0.877-1.444,1.765-2.201,2.67
		c-0.487,0.595-0.976,1.188-1.481,1.793c-1.303,1.564-2.651,3.16-4.028,4.783c-0.162,0.197-0.325,0.389-0.498,0.584
		c-0.755,0.906-1.53,1.813-2.315,2.729c-0.822,0.963-1.654,1.943-2.498,2.914c-0.555,0.643-1.108,1.293-1.664,1.936
		c-0.344,0.387-0.68,0.783-1.015,1.17c-0.938,1.086-1.885,2.17-2.821,3.246c-0.201,0.234-0.412,0.473-0.623,0.707
		c-0.076,0.094-0.162,0.199-0.248,0.293c-0.689,0.793-1.389,1.586-2.066,2.367c-0.314,0.369-0.632,0.729-0.938,1.076
		c-0.324,0.357-0.642,0.717-0.957,1.076c-3.453,3.943-6.765,7.68-9.711,10.992c-0.461,0.508-0.92,1.02-1.351,1.51
		c-2.01,2.244-3.81,4.254-5.34,5.953c-0.286,0.32-0.573,0.633-0.843,0.934c-1.051,1.168-1.95,2.17-2.657,2.953
		c-1.024,1.131-1.657,1.82-1.802,1.973l1.369-1.943l2.908-4.133l0.278-0.396l3.962-5.623l1.156-1.65l6.631-9.406l1.416-2.021
		l1.904-2.697l1.379-1.961l0.314-0.443l3.329-4.729l2.087-2.963l2.479-3.527l1.663-2.35v-0.01l2.354-3.34l2.4-3.415l0.957-1.361
		l0.757-1.073l1.063-1.502l1.914-2.726l2.438-3.463l0.269-0.388l1.569-2.217l0.345-0.501l4.248-6.028l1.637-2.32l0.929-1.321
		l2.649-3.754l0.058-0.085l0.325-0.463l1.562-2.219l0.975-1.387l1.771-2.51l0.153-0.218l5.215-7.406l1.091-1.548l16.696-23.719
		l1.734-2.454l3.951-5.614l0.01-0.019l3.492-4.954l3.061-4.35l4.23-6l0.373-0.547h0.01L176.958,95.461z"/>
	
		<linearGradient id="SVGID_14_" gradientUnits="userSpaceOnUse" x1="431.0215" y1="792.1582" x2="455.2168" y2="792.1582" gradientTransform="matrix(1 0 0 1 -345.3203 -635.9248)">
		<stop  offset="0" style="stop-color:#7FC142"/>
		<stop  offset="1" style="stop-color:#CDCC65"/>
	</linearGradient>
	<path fill="url(#SVGID_14_)" stroke="#CDCC65" stroke-miterlimit="10" d="M109.896,136.19c0,0-2.33,3.267-3.604,4.044
		c-1.971,1.204-7.169,2.229-9.268,3.311c-2.51,1.292-8.752,6.251-8.752,6.251l9.783-1.838l4.633-4.045v2.941
		c0,0-5.856,2.976-7.724,4.045c-1.562,0.896-4.551,2.855-5.664,4.045c-1.312,1.406-3.601,6.251-3.601,6.251l8.753-5.147
		c0,0-0.729,6.133-1.545,8.09c-0.856,2.049-5.149,7.725-5.149,7.725l0.518,4.413c0,0,2.56-1.815,3.09-2.575
		c1.068-1.538,1.543-5.066,2.574-6.62c0.643-0.969,2.629-2.655,3.088-3.678c0.951-2.106,1.031-8.827,1.031-8.827l4.119-5.148v4.045
		l-1.546,4.045c0,0,0.005,3.099,0.517,4.045c0.692,1.287,4.634,4.414,4.634,4.414s0.401-4.989,0-6.62
		c-0.263-1.062-2.06-4.044-2.06-4.044l2.06-4.415l2.062,3.678l1.028-7.723l-0.517-5.149L109.896,136.19z"/>
	
		<linearGradient id="SVGID_15_" gradientUnits="userSpaceOnUse" x1="403.9434" y1="769.6221" x2="419.0176" y2="769.6221" gradientTransform="matrix(1 0 0 1 -345.3203 -635.9248)">
		<stop  offset="0" style="stop-color:#7FC142"/>
		<stop  offset="1" style="stop-color:#CDCC65"/>
	</linearGradient>
	<path fill="url(#SVGID_15_)" stroke="#D8E47F" stroke-miterlimit="10" d="M59.001,129.704c1.819-1.694,9.729,0.228,11.671,1.853
		c1.619,1.355,3.025,6.792,3.025,6.792s-7.408-0.66-9.51-1.544C61.773,135.788,57.295,131.293,59.001,129.704z"/>
</g>
<linearGradient id="SVGID_16_" gradientUnits="userSpaceOnUse" x1="533.8574" y1="771.5801" x2="554.1719" y2="771.5801" gradientTransform="matrix(1 0 0 1 -345.3203 -635.9248)">
	<stop  offset="0" style="stop-color:#7FC142"/>
	<stop  offset="1" style="stop-color:#CDCC65"/>
</linearGradient>
<path fill="url(#SVGID_16_)" stroke="#CDCC65" stroke-miterlimit="10" d="M188.537,118.827c0,0,1.955,2.743,3.025,3.396
	c1.652,1.01,6.018,1.871,7.779,2.779c2.107,1.085,7.35,5.249,7.35,5.249l-8.213-1.543l-3.893-3.396v2.47
	c0,0,4.918,2.498,6.484,3.396c1.311,0.752,3.822,2.398,4.756,3.396c1.102,1.181,3.025,5.249,3.025,5.249L201.5,135.5
	c0,0,0.609,5.151,1.297,6.793c0.721,1.72,4.322,6.484,4.322,6.484l-0.434,3.705c0,0-2.148-1.524-2.596-2.161
	c-0.896-1.292-1.295-4.255-2.158-5.559c-0.541-0.813-2.207-2.229-2.596-3.088c-0.799-1.769-0.863-7.41-0.863-7.41l-3.457-4.323
	v3.396l1.297,3.396c0,0-0.004,2.601-0.436,3.396c-0.582,1.081-3.891,3.705-3.891,3.705s-0.336-4.188,0-5.557
	c0.221-0.891,1.729-3.396,1.729-3.396l-1.729-3.706l-1.729,3.088l-0.861-6.484l0.432-4.323L188.537,118.827z"/>
</svg>
