<?xml version="1.0" encoding="utf-8"?>
<!-- Generator: Adobe Illustrator 15.0.0, SVG Export Plug-In . SVG Version: 6.00 Build 0)  -->
<!DOCTYPE svg PUBLIC "-//W3C//DTD SVG 1.1//EN" "http://www.w3.org/Graphics/SVG/1.1/DTD/svg11.dtd">
<svg version="1.1" id="Layer_1" xmlns="http://www.w3.org/2000/svg" xmlns:xlink="http://www.w3.org/1999/xlink" x="0px" y="0px"
	 width="250px" height="400px" viewBox="0 0 250 400" enable-background="new 0 0 250 400" xml:space="preserve">
<g>
	
		<radialGradient id="SVGID_1_" cx="819.8281" cy="-72.7168" r="96.3435" gradientTransform="matrix(0.5205 0.8539 0.8539 -0.5205 -208.9252 -561.7554)" gradientUnits="userSpaceOnUse">
		<stop  offset="0" style="stop-color:#FFFFFF"/>
		<stop  offset="1" style="stop-color:#7BCAE7"/>
	</radialGradient>
	<polygon fill="url(#SVGID_1_)" stroke="#3DC5F2" stroke-width="0.5" stroke-miterlimit="10" points="156.863,164.082 
		167.389,149.782 162.427,133.885 171.916,130.309 175.029,140.08 178.189,135.945 186.082,142.17 182.979,146.904 193.926,147.797 
		192.334,157.599 175.65,156.099 164.568,169.475 175.088,168.11 176.582,177.29 166.947,179.069 180.551,190.008 195.852,185.098 
		198.688,194.407 190.119,197.423 193.141,200.312 187.693,207.414 182.961,204.311 181.379,215.684 172.967,214.814 
		173.955,197.815 160.064,186.411 159.9,195.974 151.313,195.847 150.02,189.069 141.008,201.182 145.956,215.511 137.298,218.898 
		133.771,210.008 130.063,214.793 122.308,208.799 126.105,203.645 116.216,202.419 118.087,193.075 133.063,194.358 
		142.534,181.964 135.707,182.655 134.118,173.844 141.5,172.5 129.422,162.517 115.045,166.866 111.099,157.289 118.517,154.973 
		115.354,151.857 121.16,143.271 126.684,147.157 127.497,138.146 137.336,138.773 135.275,154.534 146.516,163.137 
		146.165,153.258 154.76,153.381 	"/>
	
		<radialGradient id="SVGID_2_" cx="580.5244" cy="-430.4893" r="69.1834" gradientTransform="matrix(1 0 0 -1 -498.9805 -244.8799)" gradientUnits="userSpaceOnUse">
		<stop  offset="0" style="stop-color:#FFFFFF"/>
		<stop  offset="1" style="stop-color:#7BCAE7"/>
	</radialGradient>
	<polygon fill="url(#SVGID_2_)" stroke="#3DC5F2" stroke-width="0.5" stroke-miterlimit="10" points="74.582,180.388 
		69.747,168.589 58.143,165.69 59.497,158.534 66.652,160.276 65.299,156.794 72.066,154.28 73.809,157.953 78.449,151.574 
		83.863,156.214 76.709,165.883 80.77,177.679 83.863,170.718 90.053,173.233 87.541,179.807 99.334,175.553 102.043,164.336 
		108.811,166.076 107.457,172.458 110.359,171.685 112.678,177.679 109.006,179.421 115.389,184.643 111.713,189.476 
		101.656,182.515 89.471,186.771 95.273,190.446 91.986,195.666 87.346,193.927 91.406,203.98 102.043,206.301 100.883,212.877 
		94.113,211.719 95.661,215.779 89.087,218.295 87.346,214.039 82.897,219.645 77.867,215.006 84.25,206.301 80.191,195.86 
		78.063,200.306 72.066,197.985 74.002,192.956 63.364,196.631 60.658,207.074 53.31,205.914 54.662,200.499 51.569,201.275 
		48.474,194.505 52.921,192.57 47.7,188.703 51.762,182.903 60.658,190.058 70.135,186.382 63.945,182.903 67.233,177.679 	"/>
	
		<radialGradient id="SVGID_3_" cx="578.1504" cy="294.1836" r="52.9366" gradientTransform="matrix(-0.428 0.9038 0.9038 0.428 79.4403 -519.1508)" gradientUnits="userSpaceOnUse">
		<stop  offset="0" style="stop-color:#FFFFFF"/>
		<stop  offset="1" style="stop-color:#7BCAE7"/>
	</radialGradient>
	<polygon fill="url(#SVGID_3_)" stroke="#3DC5F2" stroke-width="0.5" stroke-miterlimit="10" points="103.764,126.189 
		113.506,126.709 119.309,119.634 123.814,122.913 120.267,127.291 123.118,127.495 122.64,132.997 119.53,133 122.422,138.298 
		117.439,140.522 113.098,132.408 103.611,131.354 107.411,135.773 103.646,139.229 99.921,135.338 99.002,144.887 105.873,150.431 
		102.452,154.543 98.481,151.517 98.067,153.775 93.162,153.418 93.16,150.307 87.46,153.011 85.322,148.886 93.428,144.212 
		94.476,134.394 90.034,137.202 87.501,133.219 90.224,130.582 81.943,130.097 76.856,136.69 72.689,133.735 75.707,129.434 
		72.391,129.175 72.805,123.807 76.317,123.996 73.898,119.084 78.752,117.125 82.682,124.388 91.228,125.001 88.852,122.073 
		92.42,118.687 95.263,121.671 96.206,113.113 89.872,107.823 93.08,103.121 96.381,105.829 96.858,103.437 102.552,103.513 
		102.434,107.222 106.817,104.878 109.498,109.586 101.637,113.394 101.076,121.15 105.508,118.01 108.043,121.994 	"/>
</g>
</svg>
