<?xml version="1.0" encoding="utf-8"?>
<!-- Generator: Adobe Illustrator 15.0.0, SVG Export Plug-In  -->
<!DOCTYPE svg PUBLIC "-//W3C//DTD SVG 1.1//EN" "http://www.w3.org/Graphics/SVG/1.1/DTD/svg11.dtd" [
	<!ENTITY ns_flows "http://ns.adobe.com/Flows/1.0/">
]>
<svg version="1.1"
	 xmlns="http://www.w3.org/2000/svg" xmlns:xlink="http://www.w3.org/1999/xlink" xmlns:a="http://ns.adobe.com/AdobeSVGViewerExtensions/3.0/"
	 x="0px" y="0px" width="250px" height="400px" viewBox="-3.5 -5.5 250 400" enable-background="new -3.5 -5.5 250 400"
	 xml:space="preserve">
<defs>
</defs>
<linearGradient id="SVGID_1_" gradientUnits="userSpaceOnUse" x1="198.8203" y1="534.061" x2="434.4238" y2="534.061" gradientTransform="matrix(1 0 0 1 -195.3203 -328.9199)">
	<stop  offset="0" style="stop-color:#A2C1E6"/>
	<stop  offset="0.2021" style="stop-color:#9FC1E3"/>
	<stop  offset="0.3632" style="stop-color:#95BFE0"/>
	<stop  offset="0.5104" style="stop-color:#85BDDC"/>
	<stop  offset="0.6491" style="stop-color:#69B9D6"/>
	<stop  offset="0.782" style="stop-color:#38B5CE"/>
	<stop  offset="0.9087" style="stop-color:#00B0C6"/>
	<stop  offset="1" style="stop-color:#00AEC0"/>
</linearGradient>
<path display="none" fill="url(#SVGID_1_)" stroke="#2075BC" stroke-width="7" stroke-miterlimit="10" d="M239.104,370.506
	c0,9.163-7.429,16.592-16.592,16.592H20.092c-9.163,0-16.592-7.429-16.592-16.592c0,0,6.633-123.594,6.637-164.813
	C10.141,164.201,3.5,39.776,3.5,39.776c0-9.164,7.429-16.592,16.592-16.592h202.42c9.163,0,16.592,7.428,16.592,16.592
	c0,0-7.724,122.734-7.742,163.707C231.341,245.285,239.104,370.506,239.104,370.506z"/>
<path display="none" fill="#2075BC" d="M190.023,366.487c3.365,4.838,19.914,3.006,24.342-2.409
	c4.428-5.414-1.193-118.478-2.215-154.015c-1.106-38.503,15.488-158.227,3.32-163.645c-12.169-5.412-12.169-16.845-21.023,7.823
	c-8.852,24.667-4.356,141.393-5.527,157.625C186.705,242.55,174.534,344.225,190.023,366.487z"/>
<path display="none" fill="#D1EEFC" d="M54.034,212.973c-1.172-16.229,3.322-132.958-5.529-157.625
	c-8.855-24.667-8.855-13.234-21.023-7.823c-12.168,5.418,4.427,125.14,3.319,163.643c-1.021,35.537-6.641,148.602-2.214,154.016
	c4.428,5.414,20.976,7.246,24.342,2.407C68.42,345.331,56.248,243.658,54.034,212.973z"/>
<path display="none" fill="#7C7F81" stroke="#595A5C" stroke-width="5" stroke-miterlimit="10" d="M215.816,192.984
	c-0.235,16.659-0.844,29.81-1.926,32.875c-0.015,0.011-0.015,0.011-0.015,0.021c-8.644,8.483-21.709,12.224-34.142,13.782
	c-14.813,1.857-28.735,0.631-33.19,0.631c-1.599,0-5.192-0.021-9.942-0.044c-7.488-0.044-17.833-0.122-27.762-0.188
	c-16.057-0.121-31.003-0.23-31.003-0.23s-7.636,0.783-17.033,0.396c-13.896-0.599-31.64-3.806-33.977-16.062
	c-0.623-3.241-1.081-8.274-1.422-14.491c-0.577-11.027-0.74-25.793-0.605-40.948c0.147-18.937,0.769-38.482,1.598-52.098
	c0.503-8.264,1.08-14.347,1.687-16.769c2.234-8.927,31.209-8.186,43.684-7.445c3.465,0.199,5.654,0.41,5.654,0.41
	s14.25-2.39,40.547-2.776c9.071-0.144,19.578-0.033,31.43,0.486c3.508-0.288,7.236-0.509,11.099-0.652
	c23.44-0.83,50.966,1.625,53.112,13.385c0.34,1.858,0.646,5.298,0.932,9.888c0.71,11.593,1.186,30.485,1.332,49.554
	C215.966,173.129,215.95,183.617,215.816,192.984z"/>
<path display="none" fill="#B4B6B8" d="M120.906,171.134l90.476,20.505c-0.229,15.905-0.807,28.462-1.839,31.386l-90.05-49.928
	l57.44,63.108c-14.145,1.773-27.438,0.604-31.69,0.604c-1.527,0-4.958-0.021-9.495-0.043l-18.947-62.764l-7.558,62.583
	c-15.331-0.116-29.6-0.222-29.6-0.222s-7.291,0.751-16.262,0.38l50.794-63.747l-84.592,34.578
	c-0.55-10.529-0.708-24.627-0.58-39.097l85.374,2.556l-83.846-52.297c0.48-7.89,1.031-13.699,1.608-16.011
	c2.135-8.522,29.8-7.816,41.709-7.107l42.953,74.359l1.16-76.619c8.661-0.136,18.691-0.032,30.008,0.464
	c3.35-0.274,6.909-0.486,10.596-0.623l-39.002,75.922l90.602-53.702c0.678,11.067,1.131,29.105,1.273,47.313L120.906,171.134z"/>
<path display="none" fill="#7C7F81" stroke="#595A5C" stroke-width="3" stroke-miterlimit="10" d="M90.723,3.25
	c0,0-34.257-5.016-37.108,1.934c-2.852,6.947-1.157,38.214,0.917,42.074c2.073,3.859,35.892-1.735,35.892-1.735
	s36.809-1.545,52.362,0.772c15.551,2.316,44.903,4.445,46.718-0.189c1.814-4.629,2.295-40.142,0.198-41.501
	c-5.179-3.356-43.03-0.387-48.99-0.387C134.748,4.218,90.723,3.25,90.723,3.25z"/>
<path display="none" fill="#656769" d="M56.799,29.001c-1.924,1.76-1.195,10.408,0.958,12.722c2.153,2.314,47.102-0.623,61.23-1.157
	c15.309-0.579,62.904,8.094,65.059,1.735c2.151-6.359,6.697-6.359-3.108-10.987c-9.809-4.625-56.213-2.277-62.667-2.89
	C106.072,27.269,65.649,20.907,56.799,29.001z"/>
<path display="none" fill="#B4B6B8" d="M56.586,12c0,0,47.354,2.601,62.423,2.601c15.067,0,67.804,2.601,66.369-3.469
	c-1.435-6.072-62.422-3.471-66.011-2.603C115.781,9.396,56.945,1.591,56.586,12z"/>
<path display="none" fill="#7C7F81" stroke="#595A5C" stroke-width="3" stroke-miterlimit="10" d="M75.297,35.329
	c0,0-50.095-5.016-54.265,1.933c-4.169,6.947-1.692,38.214,1.341,42.074c3.031,3.86,52.485-1.735,52.485-1.735
	s53.826-1.544,76.569,0.772c22.742,2.316,65.663,4.445,68.317-0.189c2.654-4.63,3.355-40.142,0.29-41.501
	c-7.572-3.356-62.923-0.387-71.64-0.387C139.677,36.296,75.297,35.329,75.297,35.329z"/>
<path display="none" fill="#555557" d="M25.69,61.08c-2.813,1.76-1.748,10.408,1.4,12.722c3.148,2.313,68.879-0.624,89.539-1.157
	c22.385-0.579,91.986,8.094,95.137,1.735c3.146-6.359,9.793-6.359-4.549-10.986c-14.34-4.625-82.199-2.277-91.637-2.89
	C97.742,59.346,38.632,52.984,25.69,61.08z"/>
<path display="none" fill="#B4B6B8" d="M25.378,44.077c0,0,69.248,2.602,91.283,2.602c22.034,0,99.151,2.601,97.055-3.469
	c-2.099-6.072-91.283-3.471-96.531-2.603C111.94,41.474,25.902,33.669,25.378,44.077z"/>
<radialGradient id="SVGID_2_" cx="262.1641" cy="27.1958" r="96.3341" gradientTransform="matrix(1 0 0 -1 -153.6602 186.041)" gradientUnits="userSpaceOnUse">
	<stop  offset="0" style="stop-color:#FFFFFF"/>
	<stop  offset="1" style="stop-color:#7BCAE7"/>
</radialGradient>
<polygon fill="url(#SVGID_2_)" stroke="#3DC5F2" stroke-width="0.5" stroke-miterlimit="10" points="98.808,151.576 92.076,135.147 
	75.919,131.11 77.804,121.145 87.768,123.571 85.883,118.721 95.305,115.222 97.732,120.336 104.193,111.453 111.733,117.915 
	101.77,131.379 107.424,147.803 111.733,138.111 120.35,141.613 116.853,150.766 133.276,144.843 137.045,129.224 146.47,131.648 
	144.586,140.533 148.625,139.458 151.855,147.803 146.741,150.23 155.629,157.5 150.51,164.231 136.508,154.538 119.541,160.463 
	127.62,165.581 123.043,172.848 116.582,170.426 122.234,184.425 137.045,187.657 135.432,196.813 126.004,195.199 128.16,200.854 
	119.006,204.356 116.582,198.43 110.387,206.238 103.383,199.776 112.271,187.657 106.619,173.119 103.656,179.308 95.305,176.079 
	98,169.077 83.189,174.194 79.42,188.734 69.188,187.119 71.072,179.58 66.764,180.658 62.455,171.232 68.647,168.539 
	61.377,163.154 67.033,155.078 79.42,165.041 92.615,159.921 83.997,155.078 88.576,147.803 "/>
<radialGradient id="SVGID_3_" cx="97.4702" cy="350.311" r="27.3453" gradientTransform="matrix(0.843 -0.5379 0.5379 0.843 -129.5615 -62.8825)" gradientUnits="userSpaceOnUse">
	<stop  offset="0" style="stop-color:#72CDDD"/>
	<stop  offset="0.4427" style="stop-color:#62B1D6"/>
	<stop  offset="1" style="stop-color:#4E93CF"/>
</radialGradient>
<circle fill="url(#SVGID_3_)" cx="161.288" cy="187.064" r="18.505"/>
<radialGradient id="SVGID_4_" cx="129.5107" cy="393.1235" r="46.2304" fx="128.3427" fy="393.3644" gradientTransform="matrix(0.843 -0.5379 0.5379 0.843 -129.5615 -62.8825)" gradientUnits="userSpaceOnUse">
	<stop  offset="0" style="stop-color:#999A9A"/>
	<stop  offset="0.1081" style="stop-color:#B6B7B7"/>
	<stop  offset="0.5863" style="stop-color:#FFFFFF"/>
</radialGradient>
<circle fill="url(#SVGID_4_)" cx="161.437" cy="187.297" r="16.849"/>
<line fill="none" stroke="#231F20" stroke-width="3" stroke-miterlimit="10" x1="160.517" y1="186.561" x2="154.036" y2="174.995"/>
<line fill="none" stroke="#231F20" stroke-width="3" stroke-miterlimit="10" x1="162.274" y1="186.809" x2="171.585" y2="181.209"/>
<circle fill="#050303" stroke="#231F20" stroke-width="5" stroke-miterlimit="10" cx="161.288" cy="187.065" r="0.665"/>
</svg>
