<?xml version="1.0" encoding="utf-8"?>
<!-- Generator: Adobe Illustrator 15.0.0, SVG Export Plug-In . SVG Version: 6.00 Build 0)  -->
<!DOCTYPE svg PUBLIC "-//W3C//DTD SVG 1.1//EN" "http://www.w3.org/Graphics/SVG/1.1/DTD/svg11.dtd">
<svg version="1.1" id="Layer_1" xmlns="http://www.w3.org/2000/svg" xmlns:xlink="http://www.w3.org/1999/xlink" x="0px" y="0px"
	 width="250px" height="400px" viewBox="0 0 250 400" enable-background="new 0 0 250 400" xml:space="preserve">
<linearGradient id="SVGID_1_" gradientUnits="userSpaceOnUse" x1="290.6973" y1="-24.8418" x2="291.2517" y2="18.9608" gradientTransform="matrix(1 0 0 -1 -172.6602 180.04)">
	<stop  offset="0" style="stop-color:#000000"/>
	<stop  offset="0.0851" style="stop-color:#1F0000"/>
	<stop  offset="0.2206" style="stop-color:#430000"/>
	<stop  offset="0.3893" style="stop-color:#620000"/>
	<stop  offset="0.5848" style="stop-color:#870102"/>
	<stop  offset="0.7998" style="stop-color:#B71319"/>
	<stop  offset="1" style="stop-color:#ED1C24"/>
</linearGradient>
<ellipse fill="url(#SVGID_1_)" cx="118.34" cy="180.9" rx="59.188" ry="25.921"/>
<linearGradient id="SVGID_2_" gradientUnits="userSpaceOnUse" x1="289.9092" y1="-25.1177" x2="290.3777" y2="11.8912" gradientTransform="matrix(1 0 0 -1 -172.6602 180.04)">
	<stop  offset="0" style="stop-color:#000000"/>
	<stop  offset="0.1326" style="stop-color:#1B0000"/>
	<stop  offset="0.322" style="stop-color:#3E0000"/>
	<stop  offset="0.5456" style="stop-color:#580000"/>
	<stop  offset="0.7933" style="stop-color:#770000"/>
	<stop  offset="1" style="stop-color:#94070A"/>
</linearGradient>
<path fill="url(#SVGID_2_)" d="M174.477,185.198c0,12.096-27.439,21.624-55.059,21.624c-27.62,0-58.879-10.64-58.879-22.733
	c0-12.097,31.259-21.069,58.879-21.069C147.036,163.02,174.477,173.103,174.477,185.198z"/>
<radialGradient id="SVGID_3_" cx="290.8027" cy="0.248" r="35.8342" gradientTransform="matrix(1 0 0 -1 -172.6602 180.04)" gradientUnits="userSpaceOnUse">
	<stop  offset="0.0242" style="stop-color:#A76635"/>
	<stop  offset="0.1607" style="stop-color:#A06132"/>
	<stop  offset="0.3906" style="stop-color:#93592B"/>
	<stop  offset="0.6839" style="stop-color:#7B4A21"/>
	<stop  offset="0.9758" style="stop-color:#603913"/>
</radialGradient>
<path fill="url(#SVGID_3_)" d="M77.785,199c10.279,4.799,24.21,7.837,39.632,8.08c0.671,0.011,1.347,0.018,2.025,0.018
	c14.654,0,28.065-2.521,38.431-6.697c1.928-4.018,2.961-8.44,2.961-12.921c-0.01-4.415-1.014-8.636-2.836-12.523
	c-1.82-3.889-4.462-7.443-7.752-10.521c-7.823-7.326-19.305-11.95-32.102-11.95c-12.799,0-24.283,4.624-32.106,11.95
	c-3.16,2.957-5.723,6.357-7.535,10.068c-1.813,3.711-2.874,7.738-3.031,11.95C75.31,190.754,76.125,195.055,77.785,199z"/>
<radialGradient id="SVGID_4_" cx="258.1582" cy="46.9937" r="13.8289" gradientTransform="matrix(1 0 0 -1 -172.6602 180.04)" gradientUnits="userSpaceOnUse">
	<stop  offset="0.0242" style="stop-color:#A76635"/>
	<stop  offset="0.1607" style="stop-color:#A06132"/>
	<stop  offset="0.3906" style="stop-color:#93592B"/>
	<stop  offset="0.6839" style="stop-color:#7B4A21"/>
	<stop  offset="0.9758" style="stop-color:#603913"/>
</radialGradient>
<path fill="url(#SVGID_4_)" d="M77.41,146.83c3.661-3.161,7.32-6.325,10.981-9.485c3.662-3.164,7.32-6.325,10.981-9.488
	c0,0-1.952-1.648-4.858-3.503c-2.904-1.852-6.759-3.912-10.569-4.729c-3.362-0.721-6.688-0.475-9.284,1.74
	c-2.597,2.211-3.223,5.695-2.993,8.945c0.277,3.872,1.714,8.001,3.079,11.166C76.115,144.635,77.41,146.83,77.41,146.83z"/>
<radialGradient id="SVGID_5_" cx="322.4746" cy="46.7173" r="13.8277" gradientTransform="matrix(1 0 0 -1 -172.6602 180.04)" gradientUnits="userSpaceOnUse">
	<stop  offset="0.0242" style="stop-color:#A76635"/>
	<stop  offset="0.1607" style="stop-color:#A06132"/>
	<stop  offset="0.3906" style="stop-color:#93592B"/>
	<stop  offset="0.6839" style="stop-color:#7B4A21"/>
	<stop  offset="0.9758" style="stop-color:#603913"/>
</radialGradient>
<path fill="url(#SVGID_5_)" d="M157.902,147.106c-3.661-3.16-7.323-6.324-10.981-9.484c-3.661-3.164-7.321-6.325-10.979-9.488
	c0,0,1.955-1.648,4.857-3.503c2.902-1.852,6.758-3.912,10.564-4.729c3.365-0.722,6.689-0.474,9.285,1.74
	c2.597,2.211,3.226,5.695,2.994,8.944c-0.276,3.873-1.713,8.002-3.076,11.166C159.198,144.912,157.902,147.106,157.902,147.106z"/>
<radialGradient id="SVGID_6_" cx="289.7695" cy="27.5659" r="38.2914" gradientTransform="matrix(1 0 0 -1 -172.6602 180.04)" gradientUnits="userSpaceOnUse">
	<stop  offset="0.0242" style="stop-color:#A76635"/>
	<stop  offset="0.1607" style="stop-color:#A06132"/>
	<stop  offset="0.3906" style="stop-color:#93592B"/>
	<stop  offset="0.6839" style="stop-color:#7B4A21"/>
	<stop  offset="0.9758" style="stop-color:#603913"/>
</radialGradient>
<path fill="url(#SVGID_6_)" d="M85.065,181.339c7.917,7.392,19.171,1.348,31.872,1.348c12.706,0,24.303,6.041,32.217-1.352
	c4.654-4.347,8.1-9.646,9.875-15.509c0.891-2.93,1.365-6.004,1.365-9.175c0-3.203-0.484-6.311-1.396-9.274
	c-1.785-5.82-5.213-11.08-9.838-15.404c-7.919-7.396-19.349-12.039-32.053-12.039c-12.705,0-24.127,4.64-32.046,12.036
	c-4.627,4.32-8.058,9.58-9.844,15.404c-0.91,2.963-1.395,6.074-1.395,9.277c0,3.17,0.472,6.245,1.361,9.175
	C76.965,171.692,80.408,176.992,85.065,181.339z"/>
<linearGradient id="SVGID_7_" gradientUnits="userSpaceOnUse" x1="273.9336" y1="64.7163" x2="273.9336" y2="28.6782" gradientTransform="matrix(1 0 0 -1 -172.6602 180.04)">
	<stop  offset="0.0242" style="stop-color:#FEFBE8"/>
	<stop  offset="0.0421" style="stop-color:#FEFBE5"/>
	<stop  offset="0.371" style="stop-color:#FCF6B9"/>
	<stop  offset="0.6517" style="stop-color:#FBF397"/>
	<stop  offset="0.8703" style="stop-color:#FBF183"/>
	<stop  offset="1" style="stop-color:#FAF17A"/>
</linearGradient>
<path fill="url(#SVGID_7_)" d="M90.306,148.211c2.913,3.167,6.756,5.091,10.971,5.091c4.212,0,8.055-1.924,10.971-5.091
	c2.257-2.452,3.958-5.655,4.841-9.284c0.445-1.813,0.679-3.733,0.679-5.725c0-1.951-0.228-3.836-0.653-5.623
	c-0.876-3.668-2.587-6.907-4.871-9.386c-2.913-3.164-6.756-5.088-10.968-5.088c-4.215,0-8.058,1.925-10.971,5.088
	c-2.281,2.479-3.995,5.718-4.871,9.386c-0.425,1.787-0.653,3.671-0.653,5.623c0,1.991,0.237,3.912,0.679,5.725
	C86.344,142.556,88.044,145.759,90.306,148.211z"/>
<path fill="#3C2415" stroke="#3C2415" stroke-miterlimit="10" d="M109.038,136.946c0,1.76-1.552,3.187-3.467,3.187
	c-1.911,0-3.463-1.427-3.463-3.187c0-1.763,1.552-3.19,3.463-3.19C107.486,133.756,109.038,135.183,109.038,136.946z"/>
<ellipse fill="#3C2415" stroke="#3C2415" stroke-width="2" stroke-miterlimit="10" cx="117.078" cy="160.648" rx="10.396" ry="5.128"/>
<radialGradient id="SVGID_8_" cx="284.666" cy="3.7305" r="6.3772" gradientTransform="matrix(1 0 0 -1 -172.6602 180.04)" gradientUnits="userSpaceOnUse">
	<stop  offset="0.0242" style="stop-color:#FEFBE8"/>
	<stop  offset="0.0421" style="stop-color:#FEFBE5"/>
	<stop  offset="0.371" style="stop-color:#FCF6B9"/>
	<stop  offset="0.6517" style="stop-color:#FBF397"/>
	<stop  offset="0.8703" style="stop-color:#FBF183"/>
	<stop  offset="1" style="stop-color:#FAF17A"/>
</radialGradient>
<path fill="url(#SVGID_8_)" d="M107.65,189.555c0.544,0.725,2.762,1.002,4.967,0.959c2.201-0.042,4.39-0.405,4.874-0.959
	c0.432-0.495,0.577-2.57,0.577-5.118c0-2.544-0.145-5.563-0.287-7.942c-0.145-2.383-0.29-4.13-0.29-4.13c-1.638,0-3.279,0-4.92,0
	c-1.641,0-3.279,0-4.92,0c0,0-0.092,1.79-0.185,4.212c-0.092,2.423-0.185,5.481-0.185,8.028S107.374,189.186,107.65,189.555z"/>
<radialGradient id="SVGID_9_" cx="295.7559" cy="4.0088" r="8.6118" gradientTransform="matrix(1 0 0 -1 -172.6602 180.04)" gradientUnits="userSpaceOnUse">
	<stop  offset="0.0242" style="stop-color:#FEFBE8"/>
	<stop  offset="0.0421" style="stop-color:#FEFBE5"/>
	<stop  offset="0.371" style="stop-color:#FCF6B9"/>
	<stop  offset="0.6517" style="stop-color:#FBF397"/>
	<stop  offset="0.8703" style="stop-color:#FBF183"/>
	<stop  offset="1" style="stop-color:#FAF17A"/>
</radialGradient>
<path fill="url(#SVGID_9_)" d="M128.327,189.555c-0.548,0.725-2.763,1.002-4.966,0.959c-2.202-0.042-4.391-0.405-4.878-0.959
	c-0.432-0.495-0.577-2.57-0.577-5.118c0-2.544,0.145-5.563,0.29-7.942c0.145-2.383,0.287-4.13,0.287-4.13c1.641,0,3.282,0,4.924,0
	c1.638,0,3.278,0,4.92,0c0,0,0.09,1.79,0.185,4.212c0.094,2.423,0.187,5.481,0.187,8.028S128.604,189.186,128.327,189.555z"/>
<path fill="none" stroke="#3C2415" stroke-width="2" stroke-miterlimit="10" d="M95.592,168.548c0,0,8.595,4.149,21.346,4.426
	c16.958,0.369,22.685-3.685,22.457-3.596"/>
<linearGradient id="SVGID_10_" gradientUnits="userSpaceOnUse" x1="307.7559" y1="64.7168" x2="307.7559" y2="30.618" gradientTransform="matrix(1 0 0 -1 -172.6602 180.04)">
	<stop  offset="0.0242" style="stop-color:#FEFBE8"/>
	<stop  offset="0.0421" style="stop-color:#FEFBE5"/>
	<stop  offset="0.371" style="stop-color:#FCF6B9"/>
	<stop  offset="0.6517" style="stop-color:#FBF397"/>
	<stop  offset="0.8703" style="stop-color:#FBF183"/>
	<stop  offset="1" style="stop-color:#FAF17A"/>
</linearGradient>
<path fill="url(#SVGID_10_)" d="M146.066,147.934c-2.916,3.167-6.758,5.092-10.969,5.092c-4.214,0-8.061-1.925-10.974-5.092
	c-2.261-2.456-3.961-5.656-4.844-9.284c-0.442-1.813-0.679-3.734-0.679-5.725c0-1.951,0.228-3.836,0.652-5.622
	c0.877-3.672,2.59-6.908,4.871-9.386c2.913-3.167,6.76-5.088,10.974-5.088c4.211,0,8.053,1.921,10.969,5.088
	c2.283,2.478,3.992,5.714,4.869,9.386c0.426,1.786,0.655,3.671,0.655,5.622c0,1.991-0.237,3.912-0.679,5.725
	C150.029,142.278,148.325,145.479,146.066,147.934z"/>
<ellipse fill="#3C2415" stroke="#3C2415" stroke-miterlimit="10" cx="128.859" cy="137.223" rx="3.466" ry="3.187"/>
<radialGradient id="SVGID_11_" cx="262.6934" cy="-21.2949" r="9.482" gradientTransform="matrix(1 0 0 -1 -172.6602 180.04)" gradientUnits="userSpaceOnUse">
	<stop  offset="0.0242" style="stop-color:#A76635"/>
	<stop  offset="0.1607" style="stop-color:#A06132"/>
	<stop  offset="0.3906" style="stop-color:#93592B"/>
	<stop  offset="0.6839" style="stop-color:#7B4A21"/>
	<stop  offset="0.9758" style="stop-color:#603913"/>
</radialGradient>
<path fill="url(#SVGID_11_)" d="M82.462,207.167c1.87,1.747,4.569,2.843,7.572,2.843c3,0,5.7-1.096,7.57-2.845
	c1.1-1.026,1.913-2.276,2.334-3.663c0.208-0.691,0.321-1.418,0.321-2.168c0-0.757-0.115-1.49-0.33-2.189
	c-0.422-1.376-1.231-2.619-2.323-3.641c-1.871-1.747-4.571-2.844-7.572-2.844c-3.002,0-5.702,1.098-7.572,2.844
	c-1.094,1.021-1.903,2.265-2.327,3.639c-0.214,0.701-0.328,1.435-0.328,2.191c0,0.75,0.11,1.477,0.321,2.168
	C80.549,204.887,81.362,206.139,82.462,207.167z"/>
<radialGradient id="SVGID_12_" cx="319.2461" cy="-23.2349" r="8.3976" gradientTransform="matrix(1 0 0 -1 -172.6602 180.04)" gradientUnits="userSpaceOnUse">
	<stop  offset="0.0242" style="stop-color:#A76635"/>
	<stop  offset="0.1607" style="stop-color:#A06132"/>
	<stop  offset="0.3906" style="stop-color:#93592B"/>
	<stop  offset="0.6839" style="stop-color:#7B4A21"/>
	<stop  offset="0.9758" style="stop-color:#603913"/>
</radialGradient>
<path fill="url(#SVGID_12_)" d="M139.883,208.438c1.656,1.549,4.047,2.52,6.704,2.52c2.658,0,5.048-0.971,6.704-2.52
	c0.977-0.908,1.693-2.016,2.064-3.244c0.188-0.612,0.287-1.256,0.287-1.92c0-0.668-0.102-1.317-0.293-1.938
	c-0.371-1.219-1.092-2.32-2.059-3.223c-1.657-1.549-4.047-2.52-6.705-2.52s-5.048,0.971-6.704,2.516
	c-0.968,0.906-1.687,2.006-2.062,3.224c-0.19,0.621-0.291,1.272-0.291,1.94c0,0.662,0.1,1.307,0.287,1.922
	C138.188,206.422,138.908,207.529,139.883,208.438z"/>
<path fill="none" stroke="#000000" stroke-width="3" stroke-miterlimit="10" d="M80.014,125.796
	c-2.912,5.336-1.414,19.026,2.136,24.073c3.881,5.582,16.117,6.749,22.051,3.684c5.4-2.734,9.313-12.675,10.801-18.168
	c0.821-3.458,1.702-9.46-1.348-12.011c-2.437-2.041-8.646-2.055-11.775-2.34c-6.256-0.574-17.018-1.029-21.001,4.966"/>
<path fill="none" stroke="#000000" stroke-width="3" stroke-miterlimit="10" d="M114.799,127.76
	c2.349-0.469,5.163-0.469,7.981-0.469"/>
<g>
	<g>
		<path d="M113.843,124.435c1.107,1.115,2.051,2.039,3.661,2.293c0.431,0.068,1.013-0.127,1.366-0.366
			c0.335-0.226,0.225-0.415-0.126-0.47c-1.326-0.21-2.19-1.232-3.085-2.133C115.285,123.383,113.5,124.089,113.843,124.435
			L113.843,124.435z"/>
	</g>
</g>
<g>
	<g>
		<path d="M112.962,123.851c1.14-0.093,1.671,1.231,2.276,1.965c0.8,0.971,2.191,0.661,3.219,0.289
			c0.083-0.03,0.871-0.353,0.577-0.544c-0.316-0.205-0.934,0-1.243,0.112c-0.453,0.164-1.27-1.292-1.564-1.667
			c-0.625-0.796-1.445-1.007-2.426-0.927c-0.424,0.035-0.97,0.163-1.293,0.46C112.181,123.84,112.795,123.864,112.962,123.851
			L112.962,123.851z"/>
	</g>
</g>
<g>
	<g>
		<path d="M116.825,127.416c1.273-0.064,2.535,0.161,3.808,0.181c0.42,0.006,1.005-0.162,1.283-0.5
			c0.292-0.357-0.25-0.458-0.496-0.462c-1.273-0.02-2.531-0.245-3.808-0.181c-0.431,0.022-0.993,0.146-1.283,0.5
			C116.044,127.301,116.571,127.429,116.825,127.416L116.825,127.416z"/>
	</g>
</g>
<path fill="none" stroke="#000000" stroke-width="3" stroke-miterlimit="10" d="M90.137,120.242
	c-1.926-0.251-3.894,0.24-5.877,0.521c-1.462,0.236-4.562-0.124-5.756,0.723c-1.796,1.218-1.191,4.444-1.13,6.342
	c-0.005,2.328,0.507,4.504,1.035,6.891"/>
<path fill="none" stroke="#000000" stroke-width="3" stroke-miterlimit="10" d="M79.276,126.602
	c-0.183,0.334,1.451-0.34,1.861-0.483c-0.286,0.344-0.565,0.791-0.842,1.24c0.287-0.343,0.487-0.467,0.689-0.591
	c-0.816,1.553-1.811,3.44-2.397,5.185"/>
<path fill="none" stroke="#000000" stroke-width="3" stroke-miterlimit="10" d="M82.731,121.429
	c-2.958,0.051-3.781,1.499-3.319,4.314c0.774-0.81,1.11-1.791,1.437-2.878"/>
<path fill="none" stroke="#000000" stroke-width="3" stroke-miterlimit="10" d="M158.157,126.636
	c2.692,5.551,0.512,19.354-3.333,24.296c-4.202,5.468-16.661,6.062-22.525,2.667c-5.342-3.036-8.826-13.299-10.069-18.937
	c-0.666-3.546-1.264-9.672,1.95-12.109c2.566-1.952,8.861-1.665,12.046-1.803c6.369-0.277,17.299-0.218,21.045,6.052"/>
<path fill="none" stroke="#000000" stroke-width="3" stroke-miterlimit="10" d="M148.167,120.517
	c1.964-0.163,3.935,0.432,5.931,0.813c1.471,0.309,4.631,0.096,5.799,1.011c1.764,1.321,0.996,4.561,0.84,6.483
	c-0.107,2.36-0.73,4.541-1.383,6.933"/>
<path fill="none" stroke="#000000" stroke-width="3" stroke-miterlimit="10" d="M159.107,125.313c0.17,0.347-1.453-0.416-1.864-0.58
	c0.274,0.361,0.534,0.829,0.796,1.296c-0.273-0.361-0.473-0.497-0.669-0.633c0.751,1.615,1.667,3.577,2.176,5.373"/>
<path fill="none" stroke="#000000" stroke-width="3" stroke-miterlimit="10" d="M155.616,122.079
	c2.995,0.193,3.761,1.702,3.155,4.533c-0.746-0.857-1.039-1.87-1.318-2.988"/>
</svg>
