<?xml version="1.0" encoding="utf-8"?>
<!-- Generator: Adobe Illustrator 15.0.0, SVG Export Plug-In . SVG Version: 6.00 Build 0)  -->
<!DOCTYPE svg PUBLIC "-//W3C//DTD SVG 1.1//EN" "http://www.w3.org/Graphics/SVG/1.1/DTD/svg11.dtd">
<svg version="1.1" id="Layer_1" xmlns="http://www.w3.org/2000/svg" xmlns:xlink="http://www.w3.org/1999/xlink" x="0px" y="0px"
	 width="250px" height="400px" viewBox="0 0 250 400" enable-background="new 0 0 250 400" xml:space="preserve">
<radialGradient id="SVGID_1_" cx="158.3555" cy="-145.4316" r="16.8372" gradientTransform="matrix(0.6084 -0.9953 -1.0906 -0.6666 -172.9438 193.3901)" gradientUnits="userSpaceOnUse">
	<stop  offset="0" style="stop-color:#726658"/>
	<stop  offset="0.1665" style="stop-color:#6C5E50"/>
	<stop  offset="0.472" style="stop-color:#5C4A3C"/>
	<stop  offset="0.6443" style="stop-color:#523E30"/>
	<stop  offset="0.9818" style="stop-color:#3C2415"/>
</radialGradient>
<path fill="url(#SVGID_1_)" d="M64.671,139.09c-1.224-4.818-0.511-10.267,2.395-15.025c2.912-4.759,7.435-7.875,12.282-8.986
	c2.846-0.653,5.814-0.615,8.627,0.193c1.402,0.4,2.777,0.994,4.076,1.789c1.315,0.807,2.479,1.768,3.491,2.85
	c1.978,2.128,3.354,4.73,4.064,7.549c1.226,4.823,0.514,10.272-2.396,15.031c-2.908,4.755-7.431,7.876-12.276,8.986
	c-2.838,0.649-5.78,0.614-8.578-0.175c-1.427-0.402-2.812-1.003-4.131-1.808c-1.296-0.795-2.454-1.744-3.453-2.81
	C66.776,144.544,65.391,141.927,64.671,139.09z"/>
<radialGradient id="SVGID_2_" cx="-126.6357" cy="280.6992" r="16.838" gradientTransform="matrix(-0.6084 -0.9953 1.0906 -0.6666 -225.4508 193.3901)" gradientUnits="userSpaceOnUse">
	<stop  offset="0" style="stop-color:#726658"/>
	<stop  offset="0.1665" style="stop-color:#6C5E50"/>
	<stop  offset="0.472" style="stop-color:#5C4A3C"/>
	<stop  offset="0.6443" style="stop-color:#523E30"/>
	<stop  offset="0.9818" style="stop-color:#3C2415"/>
</radialGradient>
<path fill="url(#SVGID_2_)" d="M175.07,138.684c1.222-4.818,0.508-10.268-2.396-15.025c-2.912-4.759-7.436-7.875-12.283-8.986
	c-2.847-0.653-5.813-0.615-8.627,0.193c-1.402,0.4-2.777,0.994-4.076,1.789c-1.313,0.807-2.479,1.768-3.489,2.85
	c-1.979,2.128-3.354,4.73-4.064,7.55c-1.227,4.822-0.514,10.272,2.396,15.031c2.908,4.756,7.433,7.876,12.275,8.985
	c2.838,0.65,5.781,0.614,8.579-0.174c1.427-0.402,2.813-1.003,4.13-1.808c1.297-0.796,2.454-1.744,3.453-2.81
	C172.963,144.139,174.348,141.521,175.07,138.684z"/>
<linearGradient id="SVGID_3_" gradientUnits="userSpaceOnUse" x1="464.415" y1="657.9336" x2="464.9482" y2="615.8099" gradientTransform="matrix(1 0 0 1 -345.3203 -440.9199)">
	<stop  offset="0" style="stop-color:#000000"/>
	<stop  offset="0.0851" style="stop-color:#1F0000"/>
	<stop  offset="0.2206" style="stop-color:#430000"/>
	<stop  offset="0.3893" style="stop-color:#620000"/>
	<stop  offset="0.5848" style="stop-color:#870102"/>
	<stop  offset="0.7998" style="stop-color:#B71319"/>
	<stop  offset="1" style="stop-color:#ED1C24"/>
</linearGradient>
<ellipse fill="url(#SVGID_3_)" cx="119.388" cy="193.951" rx="56.92" ry="24.928"/>
<linearGradient id="SVGID_4_" gradientUnits="userSpaceOnUse" x1="463.6602" y1="658.1992" x2="464.1107" y2="622.6086" gradientTransform="matrix(1 0 0 1 -345.3203 -440.9199)">
	<stop  offset="0" style="stop-color:#000000"/>
	<stop  offset="0.1326" style="stop-color:#1B0000"/>
	<stop  offset="0.322" style="stop-color:#3E0000"/>
	<stop  offset="0.5456" style="stop-color:#580000"/>
	<stop  offset="0.7933" style="stop-color:#770000"/>
	<stop  offset="1" style="stop-color:#94070A"/>
</linearGradient>
<path fill="url(#SVGID_4_)" d="M173.377,198.084c0,11.631-26.391,20.795-52.952,20.795c-26.561,0-56.623-10.23-56.623-21.862
	c0-11.633,30.063-20.262,56.623-20.262C146.988,176.756,173.377,186.452,173.377,198.084z"/>
<radialGradient id="SVGID_5_" cx="464.5186" cy="633.8037" r="34.4614" gradientTransform="matrix(1 0 0 1 -345.3203 -440.9199)" gradientUnits="userSpaceOnUse">
	<stop  offset="0" style="stop-color:#726658"/>
	<stop  offset="0.1667" style="stop-color:#6C5E50"/>
	<stop  offset="0.4738" style="stop-color:#5C4A3C"/>
	<stop  offset="0.8845" style="stop-color:#432C1D"/>
	<stop  offset="0.9818" style="stop-color:#3C2415"/>
</radialGradient>
<path fill="url(#SVGID_5_)" d="M80.386,211.355c9.888,4.617,23.285,7.539,38.114,7.772c0.646,0.009,1.296,0.015,1.948,0.015
	c14.092,0,26.993-2.424,36.96-6.438c1.854-3.864,2.847-8.117,2.847-12.425c-0.011-4.245-0.974-8.306-2.728-12.044
	c-1.752-3.74-4.291-7.158-7.453-10.119c-7.523-7.045-18.568-11.492-30.875-11.492c-12.31,0-23.352,4.447-30.876,11.492
	c-3.039,2.844-5.505,6.114-7.248,9.683c-1.743,3.569-2.764,7.442-2.915,11.493C78.008,203.428,78.79,207.563,80.386,211.355z"/>
<radialGradient id="SVGID_6_" cx="465.2158" cy="600.3496" r="36.8252" gradientTransform="matrix(1 0 0 1 -345.3203 -440.9199)" gradientUnits="userSpaceOnUse">
	<stop  offset="0" style="stop-color:#726658"/>
	<stop  offset="0.1667" style="stop-color:#6C5E50"/>
	<stop  offset="0.4738" style="stop-color:#5C4A3C"/>
	<stop  offset="0.8845" style="stop-color:#432C1D"/>
	<stop  offset="0.9818" style="stop-color:#3C2415"/>
</radialGradient>
<path fill="url(#SVGID_6_)" d="M89.078,187.188c7.616,7.111,18.437,1.298,30.655,1.298c12.214,0,23.369,5.812,30.985-1.301
	c4.476-4.179,7.785-9.273,9.496-14.912c0.854-2.821,1.31-5.776,1.31-8.824c0-3.081-0.465-6.069-1.338-8.918
	c-1.72-5.6-5.016-10.659-9.463-14.814c-7.617-7.113-18.606-11.581-30.828-11.581c-12.215,0-23.205,4.466-30.818,11.575
	c-4.45,4.155-7.751,9.217-9.469,14.816c-0.875,2.85-1.341,5.84-1.341,8.922c0,3.048,0.457,6.003,1.311,8.824
	C81.29,177.914,84.602,183.008,89.078,187.188z"/>
<linearGradient id="SVGID_7_" gradientUnits="userSpaceOnUse" x1="449.9893" y1="564.6201" x2="449.9893" y2="599.2788" gradientTransform="matrix(1 0 0 1 -345.3203 -440.9199)">
	<stop  offset="0.0242" style="stop-color:#FEFBE8"/>
	<stop  offset="0.0421" style="stop-color:#FEFBE5"/>
	<stop  offset="0.371" style="stop-color:#FCF6B9"/>
	<stop  offset="0.6517" style="stop-color:#FBF397"/>
	<stop  offset="0.8703" style="stop-color:#FBF183"/>
	<stop  offset="1" style="stop-color:#FAF17A"/>
</linearGradient>
<path fill="url(#SVGID_7_)" d="M94.118,155.331c2.803,3.044,6.5,4.895,10.551,4.895c4.051,0,7.748-1.851,10.55-4.895
	c2.174-2.36,3.811-5.438,4.66-8.927c0.426-1.745,0.653-3.594,0.653-5.506c0-1.875-0.219-3.691-0.63-5.407
	c-0.84-3.531-2.489-6.644-4.683-9.027c-2.804-3.046-6.499-4.896-10.55-4.896c-4.051,0-7.749,1.851-10.551,4.896
	c-2.193,2.383-3.842,5.496-4.682,9.027c-0.412,1.716-0.631,3.531-0.631,5.407c0,1.912,0.229,3.761,0.655,5.506
	C90.308,149.893,91.943,152.971,94.118,155.331z"/>
<ellipse fill="#00001A" stroke="#00001A" stroke-miterlimit="10" cx="110.8" cy="144.495" rx="3.333" ry="3.068"/>
<linearGradient id="SVGID_8_" gradientUnits="userSpaceOnUse" x1="482.5137" y1="564.6201" x2="482.5137" y2="597.4126" gradientTransform="matrix(1 0 0 1 -345.3203 -440.9199)">
	<stop  offset="0.0242" style="stop-color:#FEFBE8"/>
	<stop  offset="0.0421" style="stop-color:#FEFBE5"/>
	<stop  offset="0.371" style="stop-color:#FCF6B9"/>
	<stop  offset="0.6517" style="stop-color:#FBF397"/>
	<stop  offset="0.8703" style="stop-color:#FBF183"/>
	<stop  offset="1" style="stop-color:#FAF17A"/>
</linearGradient>
<path fill="url(#SVGID_8_)" d="M147.744,155.065c-2.803,3.045-6.498,4.894-10.551,4.894c-4.051,0-7.746-1.849-10.553-4.894
	c-2.174-2.361-3.811-5.438-4.659-8.928c-0.423-1.745-0.652-3.594-0.652-5.505c0-1.878,0.22-3.692,0.628-5.407
	c0.843-3.531,2.49-6.645,4.683-9.026c2.807-3.046,6.502-4.897,10.553-4.897c4.053,0,7.746,1.851,10.551,4.897
	c2.193,2.382,3.842,5.496,4.686,9.026c0.408,1.715,0.627,3.529,0.627,5.407c0,1.911-0.229,3.76-0.652,5.505
	C151.557,149.627,149.92,152.704,147.744,155.065z"/>
<ellipse fill="#00001A" stroke="#00001A" stroke-miterlimit="10" cx="132.195" cy="144.763" rx="3.334" ry="3.066"/>
<radialGradient id="SVGID_9_" cx="428.0293" cy="552.2129" r="14.1961" gradientTransform="matrix(0.9653 0 0 1.0784 -340.6276 -453.8931)" gradientUnits="userSpaceOnUse">
	<stop  offset="0" style="stop-color:#FFFFFF"/>
	<stop  offset="0.1531" style="stop-color:#F0ECE9"/>
	<stop  offset="0.4353" style="stop-color:#D3C8C2"/>
	<stop  offset="0.8125" style="stop-color:#AC998E"/>
	<stop  offset="0.9818" style="stop-color:#9B8579"/>
</radialGradient>
<path fill="url(#SVGID_9_)" d="M79.021,156.914l3.235-8.83c0,0-5.618-1.828-7.763-3.646c-1.63-1.379-3.755-5.472-4.537-7.582
	c-0.839-2.265-2.575-13.98-2.575-13.98s-5.49,13.021-4.057,14.402c1.891,1.824,0.699-0.625,1.014-0.203
	c0.826,1.111-2.14,2.853-1.368,4.008c0.341,0.512,1.693,0.531,2.179,0.86c1.816,1.229-1.687,6.659,0.04,8.037
	c0.885,0.705,3.655-2.625,3.655-2.625s-1.735,7.617,0,8.458c1.315,0.636,4.177-4.375,4.177-4.375s-1.355,6.995,0.263,7.438
	c1.532,0.42,3.133-6.125,3.133-6.125s-1.899,7.076-0.263,7.583c1.112,0.343,2.22-4.521,2.22-4.521"/>
<radialGradient id="SVGID_10_" cx="-116.6152" cy="552.0254" r="14.1959" gradientTransform="matrix(-0.9653 0 0 1.0784 54.9103 -453.8931)" gradientUnits="userSpaceOnUse">
	<stop  offset="0" style="stop-color:#FFFFFF"/>
	<stop  offset="0.1531" style="stop-color:#F0ECE9"/>
	<stop  offset="0.4353" style="stop-color:#D3C8C2"/>
	<stop  offset="0.8125" style="stop-color:#AC998E"/>
	<stop  offset="0.9818" style="stop-color:#9B8579"/>
</radialGradient>
<path fill="url(#SVGID_10_)" d="M161.005,156.711l-3.233-8.83c0,0,5.617-1.827,7.763-3.646c1.632-1.379,3.758-5.472,4.536-7.581
	c0.843-2.266,2.576-13.981,2.576-13.981s5.49,13.021,4.06,14.402c-1.892,1.824-0.699-0.625-1.015-0.203
	c-0.825,1.111,2.14,2.853,1.367,4.008c-0.343,0.512-1.692,0.531-2.18,0.861c-1.816,1.228,1.688,6.659-0.04,8.036
	c-0.884,0.705-3.653-2.624-3.653-2.624s1.734,7.616,0,8.458c-1.315,0.634-4.177-4.375-4.177-4.375s1.354,6.995-0.265,7.436
	c-1.533,0.42-3.133-6.125-3.133-6.125s1.896,7.076,0.263,7.583c-1.11,0.344-2.222-4.519-2.222-4.519"/>
<radialGradient id="SVGID_11_" cx="464.4111" cy="825.0664" r="19.2688" gradientTransform="matrix(1 0 0 0.7059 -345.3203 -374.0066)" gradientUnits="userSpaceOnUse">
	<stop  offset="0" style="stop-color:#FFFFFF"/>
	<stop  offset="0.1531" style="stop-color:#F0ECE9"/>
	<stop  offset="0.4353" style="stop-color:#D3C8C2"/>
	<stop  offset="0.8125" style="stop-color:#AC998E"/>
	<stop  offset="0.9818" style="stop-color:#9B8579"/>
</radialGradient>
<path fill="url(#SVGID_11_)" d="M122.418,197.681c-3.06-0.047-11.71-0.095-15.213,0.857c-1.582,0.431-7.648,1.546-7.1,2.578
	c0.375,0.704,6.289,0,6.289,0s-3.729,1.612-3.855,2.723c-0.088,0.79,2.13,1.172,3.449,2.291c0.178,0.149-4.573,0.663-4.427,0.835
	c1.183,1.407-5.071,3.149-5.071,3.149s8.456,1.608,8.013,2.649c-0.17,0.396-7.141,0.223-7.811,1.144
	c-1.104,1.52,3.957,4.228,3.957,4.228s11.226,0.756,14.468,0.881c12.511,0.479,17.445-0.429,17.445-0.429s7.394-1.469,6.629-3.032
	c-0.778-1.584-9.698-3.265-7.391-3.361c18.646-0.789,0.457-1.408,0.896-2.076c0.971-1.475,7.129-2.412,7.709-3.366
	c0.668-1.099-7.576,0.534-6.448-0.187c2.979-1.904,6.719-2.582,6.719-2.582l-2.231-2.436l3.246-0.145l-3.246-2.289
	C138.443,199.113,127.17,197.75,122.418,197.681z"/>
<radialGradient id="SVGID_12_" cx="437.4795" cy="650.0586" r="15.1072" gradientTransform="matrix(1 0 0 1 -345.3203 -440.9199)" gradientUnits="userSpaceOnUse">
	<stop  offset="0" style="stop-color:#726658"/>
	<stop  offset="0.1667" style="stop-color:#6C5E50"/>
	<stop  offset="0.4738" style="stop-color:#5C4A3C"/>
	<stop  offset="0.8845" style="stop-color:#432C1D"/>
	<stop  offset="0.9818" style="stop-color:#3C2415"/>
</radialGradient>
<path fill="url(#SVGID_12_)" d="M80.099,218.434c2.979,2.779,7.281,4.526,12.063,4.526c4.781,0,9.08-1.747,12.063-4.53
	c1.751-1.638,3.045-3.63,3.714-5.835c0.335-1.106,0.512-2.262,0.512-3.456c0-1.205-0.182-2.373-0.524-3.488
	c-0.672-2.189-1.961-4.174-3.703-5.797c-2.98-2.786-7.281-4.534-12.063-4.534c-4.782,0-9.084,1.748-12.063,4.53
	c-1.744,1.627-3.033,3.608-3.705,5.799c-0.342,1.115-0.526,2.285-0.526,3.49c0,1.194,0.177,2.351,0.513,3.456
	C77.05,214.801,78.346,216.795,80.099,218.434z"/>
<radialGradient id="SVGID_13_" cx="492.2148" cy="652.2354" r="16.8379" gradientTransform="matrix(1 0 0 1 -345.3203 -440.9199)" gradientUnits="userSpaceOnUse">
	<stop  offset="0" style="stop-color:#726658"/>
	<stop  offset="0.1665" style="stop-color:#6C5E50"/>
	<stop  offset="0.472" style="stop-color:#5C4A3C"/>
	<stop  offset="0.6443" style="stop-color:#523E30"/>
	<stop  offset="0.9818" style="stop-color:#3C2415"/>
</radialGradient>
<path fill="url(#SVGID_13_)" d="M134.488,220.297c2.979,2.783,7.277,4.531,12.06,4.531c4.78,0,9.082-1.748,12.063-4.531
	c1.752-1.635,3.049-3.63,3.717-5.838c0.334-1.104,0.513-2.262,0.513-3.452c0-1.205-0.185-2.374-0.524-3.489
	c-0.67-2.19-1.963-4.174-3.703-5.799c-2.979-2.784-7.282-4.531-12.063-4.531c-4.779,0-9.08,1.748-12.06,4.529
	c-1.744,1.626-3.035,3.607-3.712,5.799c-0.342,1.113-0.521,2.286-0.521,3.491c0,1.19,0.179,2.351,0.515,3.454
	C131.439,216.667,132.734,218.662,134.488,220.297z"/>
<radialGradient id="SVGID_14_" cx="463.6895" cy="397.6592" r="5.9998" fx="463.5923" fy="397.6486" gradientTransform="matrix(1 0 0 1.5899 -345.3203 -466.7486)" gradientUnits="userSpaceOnUse">
	<stop  offset="0" style="stop-color:#48484A"/>
	<stop  offset="0.462" style="stop-color:#383839"/>
	<stop  offset="1" style="stop-color:#000000"/>
</radialGradient>
<ellipse fill="url(#SVGID_14_)" cx="121.134" cy="168.903" rx="10.548" ry="14.693"/>
</svg>
