<?xml version="1.0" encoding="utf-8"?>
<!-- Generator: Adobe Illustrator 15.0.0, SVG Export Plug-In . SVG Version: 6.00 Build 0)  -->
<!DOCTYPE svg PUBLIC "-//W3C//DTD SVG 1.1//EN" "http://www.w3.org/Graphics/SVG/1.1/DTD/svg11.dtd">
<svg version="1.1" id="Layer_1" xmlns="http://www.w3.org/2000/svg" xmlns:xlink="http://www.w3.org/1999/xlink" x="0px" y="0px"
	 width="250px" height="400px" viewBox="0 0 250 400" enable-background="new 0 0 250 400" xml:space="preserve">
<g>
	
		<radialGradient id="SVGID_1_" cx="154.1143" cy="76.9863" r="18.451" gradientTransform="matrix(0.6084 -0.9953 -1.0906 -0.6666 72.4664 340.6245)" gradientUnits="userSpaceOnUse">
		<stop  offset="0" style="stop-color:#726659"/>
		<stop  offset="0.2559" style="stop-color:#68594C"/>
		<stop  offset="0.6443" style="stop-color:#533E31"/>
		<stop  offset="0.9818" style="stop-color:#3B2416"/>
	</radialGradient>
	<path fill="url(#SVGID_1_)" d="M63.263,142.892c-1.338-5.28-0.559-11.252,2.626-16.465c3.19-5.215,8.146-8.629,13.46-9.847
		c3.118-0.716,6.372-0.673,9.453,0.212c1.538,0.437,3.045,1.089,4.467,1.96c1.441,0.883,2.719,1.936,3.826,3.123
		c2.167,2.332,3.675,5.184,4.455,8.273c1.342,5.285,0.562,11.258-2.626,16.473c-3.187,5.212-8.144,8.631-13.454,9.847
		c-3.111,0.711-6.333,0.673-9.401-0.191c-1.562-0.441-3.079-1.1-4.525-1.983c-1.42-0.871-2.69-1.912-3.784-3.078
		C65.572,148.87,64.053,146.002,63.263,142.892z"/>
	
		<radialGradient id="SVGID_2_" cx="189.0967" cy="24.7539" r="18.4527" gradientTransform="matrix(0.6084 -0.9953 -1.0906 -0.6666 72.4664 340.6245)" gradientUnits="userSpaceOnUse">
		<stop  offset="0" style="stop-color:#726659"/>
		<stop  offset="0.2559" style="stop-color:#68594C"/>
		<stop  offset="0.6443" style="stop-color:#533E31"/>
		<stop  offset="0.9818" style="stop-color:#3B2416"/>
	</radialGradient>
	<path fill="url(#SVGID_2_)" d="M141.51,142.892c-1.34-5.28-0.558-11.252,2.629-16.465c3.19-5.215,8.146-8.629,13.457-9.847
		c3.121-0.716,6.375-0.673,9.457,0.212c1.536,0.437,3.043,1.089,4.469,1.96c1.437,0.883,2.715,1.936,3.822,3.123
		c2.168,2.332,3.676,5.184,4.454,8.273c1.345,5.285,0.563,11.258-2.627,16.473c-3.187,5.212-8.141,8.631-13.452,9.847
		c-3.111,0.711-6.336,0.673-9.402-0.191c-1.563-0.441-3.08-1.1-4.523-1.983c-1.42-0.871-2.691-1.912-3.783-3.078
		C143.82,148.87,142.301,146.002,141.51,142.892z"/>
	
		<radialGradient id="SVGID_3_" cx="153.8213" cy="76.2148" r="13.9546" gradientTransform="matrix(0.6084 -0.9953 -1.0906 -0.6666 72.4664 340.6245)" gradientUnits="userSpaceOnUse">
		<stop  offset="0" style="stop-color:#FFFFFF"/>
		<stop  offset="0.1471" style="stop-color:#FEF2F7"/>
		<stop  offset="0.4182" style="stop-color:#FAD1E3"/>
		<stop  offset="0.7805" style="stop-color:#F39AC2"/>
		<stop  offset="0.9818" style="stop-color:#EF79AD"/>
	</radialGradient>
	<path fill="url(#SVGID_3_)" d="M68.559,141.995c-1.013-3.993-0.423-8.509,1.986-12.452c2.413-3.944,6.162-6.526,10.18-7.447
		c2.358-0.542,4.818-0.51,7.15,0.16c1.162,0.33,2.302,0.823,3.377,1.483c1.091,0.669,2.055,1.463,2.893,2.36
		c1.641,1.764,2.78,3.921,3.369,6.257c1.015,3.998,0.425,8.514-1.986,12.459c-2.41,3.94-6.159,6.526-10.175,7.446
		c-2.353,0.539-4.79,0.508-7.109-0.146c-1.181-0.333-2.33-0.83-3.423-1.497c-1.074-0.661-2.034-1.446-2.862-2.329
		C70.306,146.515,69.159,144.347,68.559,141.995z"/>
	
		<radialGradient id="SVGID_4_" cx="-292.9741" cy="744.6924" r="13.9545" gradientTransform="matrix(-0.6084 -0.9953 1.0906 -0.6666 -830.4302 340.6245)" gradientUnits="userSpaceOnUse">
		<stop  offset="0" style="stop-color:#FFFFFF"/>
		<stop  offset="0.1471" style="stop-color:#FEF2F7"/>
		<stop  offset="0.4182" style="stop-color:#FAD1E3"/>
		<stop  offset="0.7805" style="stop-color:#F39AC2"/>
		<stop  offset="0.9818" style="stop-color:#EF79AD"/>
	</radialGradient>
	<path fill="url(#SVGID_4_)" d="M174.352,141.083c1.015-3.993,0.424-8.51-1.988-12.452c-2.409-3.944-6.159-6.526-10.178-7.448
		c-2.356-0.542-4.818-0.511-7.148,0.161c-1.163,0.33-2.305,0.822-3.377,1.482c-1.092,0.669-2.055,1.464-2.895,2.36
		c-1.641,1.764-2.779,3.921-3.371,6.258c-1.015,3.997-0.424,8.513,1.987,12.459c2.41,3.938,6.158,6.526,10.177,7.446
		c2.352,0.538,4.789,0.509,7.107-0.146c1.184-0.334,2.331-0.831,3.422-1.498c1.076-0.66,2.035-1.446,2.863-2.329
		C172.605,145.604,173.755,143.435,174.352,141.083z"/>
	
		<linearGradient id="SVGID_5_" gradientUnits="userSpaceOnUse" x1="464.7314" y1="887.71" x2="465.3158" y2="841.5447" gradientTransform="matrix(1 0 0 1 -345.3203 -669.8604)">
		<stop  offset="0" style="stop-color:#250D0E"/>
		<stop  offset="0.1011" style="stop-color:#2B1010"/>
		<stop  offset="0.2618" style="stop-color:#3D1313"/>
		<stop  offset="0.462" style="stop-color:#671012"/>
		<stop  offset="0.6938" style="stop-color:#9D1D20"/>
		<stop  offset="0.9495" style="stop-color:#DD1F26"/>
		<stop  offset="1" style="stop-color:#EB2227"/>
	</linearGradient>
	<ellipse fill="url(#SVGID_5_)" cx="119.73" cy="192.573" rx="62.379" ry="27.319"/>
	
		<linearGradient id="SVGID_6_" gradientUnits="userSpaceOnUse" x1="463.8975" y1="888.002" x2="464.3911" y2="848.9985" gradientTransform="matrix(1 0 0 1 -345.3203 -669.8604)">
		<stop  offset="0" style="stop-color:#250D0E"/>
		<stop  offset="0.1539" style="stop-color:#2A0F10"/>
		<stop  offset="0.3739" style="stop-color:#371312"/>
		<stop  offset="0.6335" style="stop-color:#590E0F"/>
		<stop  offset="0.9213" style="stop-color:#861719"/>
		<stop  offset="1" style="stop-color:#931A1D"/>
	</linearGradient>
	<path fill="url(#SVGID_6_)" d="M178.893,197.102c0,12.748-28.918,22.791-58.027,22.791c-29.106,0-62.055-11.209-62.055-23.958
		c0-12.748,32.949-22.205,62.055-22.205C149.975,173.73,178.893,184.354,178.893,197.102z"/>
	
		<radialGradient id="SVGID_7_" cx="464.4004" cy="866.6699" r="35.7557" gradientTransform="matrix(1 0 0 1 -345.3203 -669.8604)" gradientUnits="userSpaceOnUse">
		<stop  offset="0" style="stop-color:#726659"/>
		<stop  offset="0.2541" style="stop-color:#685A4C"/>
		<stop  offset="0.7204" style="stop-color:#4D392B"/>
		<stop  offset="0.9818" style="stop-color:#3B2416"/>
	</radialGradient>
	<path fill="url(#SVGID_7_)" d="M163.891,211.663c0.114-1.08,0.183-2.167,0.183-3.263c-0.013-4.648-1.066-9.104-2.989-13.197
		c-1.919-4.099-4.706-7.847-8.168-11.091c-4.061-3.8-9.057-6.905-14.688-9.082c-5.758-0.837-11.776-1.299-17.807-1.299
		c-6.996,0-14.207,0.552-21.133,1.559c-5.371,2.164-10.146,5.168-14.05,8.822c-3.328,3.119-6.03,6.7-7.94,10.612
		c-1.91,3.915-3.029,8.16-3.195,12.599c-0.045,1.219-0.003,2.438,0.098,3.649c12.119,5.314,29.455,8.838,45.671,8.914
		C137.122,219.816,152.691,216.684,163.891,211.663z"/>
	
		<radialGradient id="SVGID_8_" cx="465.1602" cy="833.4961" r="40.3558" gradientTransform="matrix(1 0 0 1 -345.3203 -669.8604)" gradientUnits="userSpaceOnUse">
		<stop  offset="0" style="stop-color:#726659"/>
		<stop  offset="0.2541" style="stop-color:#685A4C"/>
		<stop  offset="0.7204" style="stop-color:#4D392B"/>
		<stop  offset="0.9818" style="stop-color:#3B2416"/>
	</radialGradient>
	<path fill="url(#SVGID_8_)" d="M86.069,194.056c8.343,7.792,20.205,1.421,33.591,1.421c13.391,0,25.613,6.369,33.956-1.424
		c4.903-4.582,8.532-10.167,10.405-16.346c0.938-3.087,1.438-6.329,1.438-9.67c0-3.375-0.51-6.651-1.469-9.773
		c-1.881-6.135-5.494-11.678-10.367-16.234c-8.348-7.795-20.395-12.688-33.783-12.688c-13.39,0-25.429,4.891-33.775,12.684
		c-4.876,4.554-8.492,10.098-10.375,16.234c-0.959,3.121-1.469,6.401-1.469,9.776c0,3.342,0.496,6.583,1.434,9.67
		C77.531,183.89,81.161,189.475,86.069,194.056z"/>
	
		<linearGradient id="SVGID_9_" gradientUnits="userSpaceOnUse" x1="448.4746" y1="796.1191" x2="448.4746" y2="834.101" gradientTransform="matrix(1 0 0 1 -345.3203 -669.8604)">
		<stop  offset="0.0242" style="stop-color:#FDF9E8"/>
		<stop  offset="0.2385" style="stop-color:#FCF7C9"/>
		<stop  offset="0.5771" style="stop-color:#FAF4A0"/>
		<stop  offset="0.8425" style="stop-color:#F9F187"/>
		<stop  offset="1" style="stop-color:#F9F07C"/>
	</linearGradient>
	<path fill="url(#SVGID_9_)" d="M91.592,160.921c3.07,3.337,7.12,5.365,11.562,5.365c4.439,0,8.49-2.028,11.564-5.365
		c2.378-2.584,4.171-5.961,5.102-9.785c0.47-1.91,0.717-3.936,0.717-6.034c0-2.056-0.242-4.044-0.688-5.926
		c-0.925-3.866-2.728-7.281-5.134-9.893c-3.07-3.334-7.122-5.362-11.561-5.362c-4.441,0-8.492,2.029-11.562,5.362
		c-2.404,2.612-4.21,6.026-5.133,9.893c-0.449,1.882-0.688,3.87-0.688,5.926c0,2.098,0.25,4.124,0.714,6.034
		C87.416,154.96,89.209,158.336,91.592,160.921z"/>
	<path fill="#3B2416" stroke="#3B2416" stroke-miterlimit="10" d="M111.335,147.27c0,1.854-1.636,3.358-3.653,3.358
		c-2.015,0-3.651-1.503-3.651-3.358c0-1.858,1.636-3.363,3.651-3.363C109.699,143.908,111.335,145.412,111.335,147.27z"/>
	
		<linearGradient id="SVGID_10_" gradientUnits="userSpaceOnUse" x1="483.5576" y1="795.0283" x2="483.5576" y2="830.9661" gradientTransform="matrix(1 0 0 1 -345.3203 -669.8604)">
		<stop  offset="0.0242" style="stop-color:#FDF9E8"/>
		<stop  offset="0.2385" style="stop-color:#FCF7C9"/>
		<stop  offset="0.5771" style="stop-color:#FAF4A0"/>
		<stop  offset="0.8425" style="stop-color:#F9F187"/>
		<stop  offset="1" style="stop-color:#F9F07C"/>
	</linearGradient>
	<path fill="url(#SVGID_10_)" d="M149.799,159.538c-3.072,3.338-7.123,5.366-11.563,5.366c-4.438,0-8.493-2.029-11.563-5.366
		c-2.381-2.588-4.174-5.96-5.104-9.785c-0.465-1.91-0.717-3.935-0.717-6.032c0-2.056,0.24-4.043,0.688-5.926
		c0.924-3.87,2.73-7.28,5.134-9.892c3.069-3.338,7.124-5.364,11.563-5.364c4.439,0,8.492,2.026,11.564,5.364
		c2.404,2.612,4.205,6.021,5.131,9.892c0.446,1.882,0.69,3.87,0.69,5.926c0,2.097-0.249,4.122-0.715,6.032
		C153.977,153.577,152.18,156.949,149.799,159.538z"/>
	<ellipse fill="#3B2416" stroke="#3B2416" stroke-miterlimit="10" cx="132.227" cy="147.56" rx="3.652" ry="3.359"/>
	
		<radialGradient id="SVGID_11_" cx="456.2764" cy="852.7363" r="11.5528" gradientTransform="matrix(1 0 0 1 -345.3203 -669.8604)" gradientUnits="userSpaceOnUse">
		<stop  offset="0" style="stop-color:#FFFFFF"/>
		<stop  offset="0.1471" style="stop-color:#F5F3F2"/>
		<stop  offset="0.4182" style="stop-color:#DDD5D0"/>
		<stop  offset="0.7805" style="stop-color:#B3A29A"/>
		<stop  offset="0.9818" style="stop-color:#9A857A"/>
	</radialGradient>
	<path fill="url(#SVGID_11_)" d="M120.342,182.257c0,6.325-4.653,11.452-10.391,11.452c-5.74,0-8.801-5.022-8.801-11.346
		c0-6.326,8.2-10.817,13.94-10.817C120.83,171.546,120.342,175.933,120.342,182.257z"/>
	
		<radialGradient id="SVGID_12_" cx="-422.6147" cy="853.0332" r="11.5535" gradientTransform="matrix(-1 0 0 1 -292.6162 -669.8604)" gradientUnits="userSpaceOnUse">
		<stop  offset="0" style="stop-color:#FFFFFF"/>
		<stop  offset="0.1471" style="stop-color:#F5F3F2"/>
		<stop  offset="0.4182" style="stop-color:#DDD5D0"/>
		<stop  offset="0.7805" style="stop-color:#B3A29A"/>
		<stop  offset="0.9818" style="stop-color:#9A857A"/>
	</radialGradient>
	<path fill="url(#SVGID_12_)" d="M120.612,182.555c0,6.325,4.655,11.454,10.394,11.454c5.735,0,8.799-5.022,8.799-11.348
		c0-6.326-8.201-10.817-13.94-10.817C120.127,171.844,120.612,176.229,120.612,182.555z"/>
	<path fill="#3B2416" stroke="#3B2416" stroke-width="2" stroke-miterlimit="10" d="M131.051,168.046
		c0,3.939-4.908,7.133-10.959,7.133c-6.05,0-10.955-3.194-10.955-7.133c0-3.943,4.904-7.133,10.955-7.133
		C126.143,160.914,131.051,164.103,131.051,168.046z"/>
	<path fill="none" stroke="#C2B59B" stroke-width="0.5" d="M135.623,177.033c0,0-1.534-4.267,11.66-6.226
		c3.957-0.59,8.684,0.954,8.684,0.954"/>
	<path fill="none" stroke="#C2B59B" stroke-width="0.5" d="M136.174,181.824c0,0-0.26-4.598,15.326-4.324
		c4.682,0.082,9.492,2.464,9.492,2.464"/>
	<path fill="none" stroke="#C2B59B" stroke-width="0.5" d="M134.902,184.984c0,0,1.926-4.182,15.603,3.364
		c4.101,2.263,7.242,6.622,7.242,6.622"/>
	<path fill="none" stroke="#C2B59B" stroke-width="0.5" d="M105.138,177.033c0,0,1.532-4.267-11.661-6.226
		c-3.957-0.59-8.685,0.954-8.685,0.954"/>
	<path fill="none" stroke="#C2B59B" stroke-width="0.5" d="M102.809,183.601c0,0,0.26-4.596-15.329-4.322
		c-4.678,0.081-9.488,2.464-9.488,2.464"/>
	<path fill="none" stroke="#C2B59B" stroke-width="0.5" d="M105.858,186.762c0,0-1.927-4.182-15.603,3.364
		c-4.101,2.264-7.243,6.622-7.243,6.622"/>
	
		<radialGradient id="SVGID_13_" cx="329.6748" cy="744.9941" r="6.8118" gradientTransform="matrix(1.3543 0 0 1.3291 -354.1697 -774.7882)" gradientUnits="userSpaceOnUse">
		<stop  offset="0" style="stop-color:#726658"/>
		<stop  offset="0.1667" style="stop-color:#6C5E50"/>
		<stop  offset="0.4738" style="stop-color:#5C4A3C"/>
		<stop  offset="0.8845" style="stop-color:#432C1D"/>
		<stop  offset="0.9818" style="stop-color:#3C2415"/>
	</radialGradient>
	<path fill="url(#SVGID_13_)" d="M84.942,220.952c1.82,1.668,4.445,2.715,7.367,2.715c2.918,0,5.545-1.047,7.365-2.717
		c1.069-0.979,1.861-2.175,2.27-3.497c0.203-0.661,0.313-1.354,0.313-2.071c0-0.722-0.111-1.422-0.32-2.09
		c-0.41-1.313-1.197-2.5-2.26-3.476c-1.82-1.668-4.449-2.717-7.367-2.717c-2.922,0-5.547,1.049-7.367,2.717
		c-1.064,0.974-1.852,2.162-2.264,3.474c-0.209,0.67-0.319,1.37-0.319,2.092c0,0.718,0.106,1.41,0.313,2.071
		C83.08,218.775,83.872,219.969,84.942,220.952z"/>
	
		<radialGradient id="SVGID_14_" cx="371.7813" cy="745.2598" r="6.7188" gradientTransform="matrix(1.3543 0 0 1.3291 -354.1697 -774.7882)" gradientUnits="userSpaceOnUse">
		<stop  offset="0" style="stop-color:#726658"/>
		<stop  offset="0.1667" style="stop-color:#6C5E50"/>
		<stop  offset="0.4738" style="stop-color:#5C4A3C"/>
		<stop  offset="0.8845" style="stop-color:#432C1D"/>
		<stop  offset="0.9818" style="stop-color:#3C2415"/>
	</radialGradient>
	<path fill="url(#SVGID_14_)" d="M142.07,221.229c1.793,1.646,4.384,2.678,7.264,2.678c2.879,0,5.469-1.033,7.262-2.678
		c1.059-0.969,1.836-2.146,2.239-3.45c0.202-0.651,0.312-1.339,0.312-2.042c0-0.711-0.11-1.4-0.317-2.061
		c-0.403-1.297-1.183-2.47-2.229-3.429c-1.795-1.647-4.387-2.679-7.265-2.679c-2.881,0-5.471,1.031-7.264,2.675
		c-1.05,0.963-1.83,2.133-2.234,3.428c-0.207,0.661-0.315,1.354-0.315,2.063c0,0.705,0.108,1.392,0.313,2.045
		C140.234,219.083,141.014,220.26,142.07,221.229z"/>
</g>
</svg>
