<?xml version="1.0" encoding="utf-8"?>
<!-- Generator: Adobe Illustrator 15.0.0, SVG Export Plug-In . SVG Version: 6.00 Build 0)  -->
<!DOCTYPE svg PUBLIC "-//W3C//DTD SVG 1.1//EN" "http://www.w3.org/Graphics/SVG/1.1/DTD/svg11.dtd">
<svg version="1.1" id="Layer_1" xmlns="http://www.w3.org/2000/svg" xmlns:xlink="http://www.w3.org/1999/xlink" x="0px" y="0px"
	 width="250px" height="400px" viewBox="0 0 250 400" enable-background="new 0 0 250 400" xml:space="preserve">
<g>
	
		<linearGradient id="SVGID_1_" gradientUnits="userSpaceOnUse" x1="291.543" y1="-32.0757" x2="292.0975" y2="11.7277" gradientTransform="matrix(1 0 0 -1 -172.6602 180.04)">
		<stop  offset="0" style="stop-color:#000000"/>
		<stop  offset="0.0851" style="stop-color:#1F0000"/>
		<stop  offset="0.2206" style="stop-color:#430000"/>
		<stop  offset="0.3893" style="stop-color:#620000"/>
		<stop  offset="0.5848" style="stop-color:#870102"/>
		<stop  offset="0.7998" style="stop-color:#B71319"/>
		<stop  offset="1" style="stop-color:#ED1C24"/>
	</linearGradient>
	<ellipse fill="url(#SVGID_1_)" cx="119.187" cy="188.134" rx="59.187" ry="25.921"/>
	
		<linearGradient id="SVGID_2_" gradientUnits="userSpaceOnUse" x1="290.7539" y1="-32.3525" x2="291.2224" y2="4.6564" gradientTransform="matrix(1 0 0 -1 -172.6602 180.04)">
		<stop  offset="0" style="stop-color:#000000"/>
		<stop  offset="0.1326" style="stop-color:#1B0000"/>
		<stop  offset="0.322" style="stop-color:#3E0000"/>
		<stop  offset="0.5456" style="stop-color:#580000"/>
		<stop  offset="0.7933" style="stop-color:#770000"/>
		<stop  offset="1" style="stop-color:#94070A"/>
	</linearGradient>
	<path fill="url(#SVGID_2_)" d="M175.323,192.431c0,12.096-27.44,21.624-55.059,21.624c-27.62,0-58.879-10.64-58.879-22.732
		c0-12.097,31.259-21.069,58.879-21.069C147.883,170.253,175.323,180.336,175.323,192.431z"/>
	
		<radialGradient id="SVGID_3_" cx="291.6504" cy="-6.9854" r="35.834" gradientTransform="matrix(1 0 0 -1 -172.6602 180.04)" gradientUnits="userSpaceOnUse">
		<stop  offset="0.0242" style="stop-color:#A76635"/>
		<stop  offset="0.1607" style="stop-color:#A06132"/>
		<stop  offset="0.3906" style="stop-color:#93592B"/>
		<stop  offset="0.6839" style="stop-color:#7B4A21"/>
		<stop  offset="0.9758" style="stop-color:#603913"/>
	</radialGradient>
	<path fill="url(#SVGID_3_)" d="M78.632,206.234c10.279,4.799,24.21,7.836,39.632,8.08c0.671,0.011,1.347,0.017,2.025,0.017
		c14.652,0,28.064-2.521,38.432-6.696c1.928-4.018,2.961-8.44,2.961-12.921c-0.011-4.415-1.014-8.636-2.836-12.523
		c-1.82-3.889-4.463-7.443-7.753-10.521c-7.823-7.326-19.305-11.95-32.102-11.95c-12.799,0-24.283,4.624-32.106,11.95
		c-3.16,2.957-5.723,6.357-7.535,10.068c-1.813,3.711-2.874,7.738-3.031,11.95C76.157,197.988,76.971,202.289,78.632,206.234z"/>
	
		<radialGradient id="SVGID_4_" cx="259.0039" cy="39.7607" r="13.8289" gradientTransform="matrix(1 0 0 -1 -172.6602 180.04)" gradientUnits="userSpaceOnUse">
		<stop  offset="0.0242" style="stop-color:#A76635"/>
		<stop  offset="0.1607" style="stop-color:#A06132"/>
		<stop  offset="0.3906" style="stop-color:#93592B"/>
		<stop  offset="0.6839" style="stop-color:#7B4A21"/>
		<stop  offset="0.9758" style="stop-color:#603913"/>
	</radialGradient>
	<path fill="url(#SVGID_4_)" d="M78.256,154.063c3.661-3.161,7.32-6.325,10.981-9.485c3.662-3.164,7.32-6.325,10.981-9.488
		c0,0-1.952-1.648-4.858-3.503c-2.904-1.852-6.759-3.912-10.569-4.729c-3.362-0.721-6.688-0.475-9.284,1.74
		c-2.597,2.211-3.223,5.695-2.993,8.945c0.277,3.872,1.714,8.001,3.079,11.166C76.961,151.869,78.256,154.063,78.256,154.063z"/>
	
		<radialGradient id="SVGID_5_" cx="323.3223" cy="39.4834" r="13.8277" gradientTransform="matrix(1 0 0 -1 -172.6602 180.04)" gradientUnits="userSpaceOnUse">
		<stop  offset="0.0242" style="stop-color:#A76635"/>
		<stop  offset="0.1607" style="stop-color:#A06132"/>
		<stop  offset="0.3906" style="stop-color:#93592B"/>
		<stop  offset="0.6839" style="stop-color:#7B4A21"/>
		<stop  offset="0.9758" style="stop-color:#603913"/>
	</radialGradient>
	<path fill="url(#SVGID_5_)" d="M158.749,154.34c-3.661-3.16-7.323-6.324-10.981-9.484c-3.66-3.164-7.322-6.325-10.979-9.488
		c0,0,1.954-1.648,4.857-3.503c2.901-1.852,6.758-3.912,10.564-4.729c3.365-0.722,6.689-0.474,9.284,1.74
		c2.597,2.211,3.226,5.695,2.995,8.944c-0.277,3.873-1.715,8.002-3.077,11.166C160.045,152.145,158.749,154.34,158.749,154.34z"/>
	
		<radialGradient id="SVGID_6_" cx="290.6152" cy="20.333" r="38.2919" gradientTransform="matrix(1 0 0 -1 -172.6602 180.04)" gradientUnits="userSpaceOnUse">
		<stop  offset="0.0242" style="stop-color:#A76635"/>
		<stop  offset="0.1607" style="stop-color:#A06132"/>
		<stop  offset="0.3906" style="stop-color:#93592B"/>
		<stop  offset="0.6839" style="stop-color:#7B4A21"/>
		<stop  offset="0.9758" style="stop-color:#603913"/>
	</radialGradient>
	<path fill="url(#SVGID_6_)" d="M85.912,188.572c7.917,7.392,19.171,1.348,31.872,1.348c12.704,0,24.303,6.041,32.218-1.352
		c4.654-4.347,8.1-9.646,9.874-15.509c0.892-2.93,1.365-6.004,1.365-9.175c0-3.203-0.484-6.311-1.396-9.274
		c-1.785-5.82-5.213-11.08-9.838-15.404c-7.919-7.396-19.348-12.039-32.053-12.039s-24.127,4.64-32.046,12.036
		c-4.627,4.32-8.058,9.58-9.844,15.404c-0.91,2.963-1.395,6.074-1.395,9.277c0,3.17,0.472,6.245,1.361,9.175
		C77.812,178.925,81.255,184.225,85.912,188.572z"/>
	
		<linearGradient id="SVGID_7_" gradientUnits="userSpaceOnUse" x1="274.7803" y1="57.4834" x2="274.7803" y2="21.4449" gradientTransform="matrix(1 0 0 -1 -172.6602 180.04)">
		<stop  offset="0.0242" style="stop-color:#FEFBE8"/>
		<stop  offset="0.0421" style="stop-color:#FEFBE5"/>
		<stop  offset="0.371" style="stop-color:#FCF6B9"/>
		<stop  offset="0.6517" style="stop-color:#FBF397"/>
		<stop  offset="0.8703" style="stop-color:#FBF183"/>
		<stop  offset="1" style="stop-color:#FAF17A"/>
	</linearGradient>
	<path fill="url(#SVGID_7_)" d="M91.152,155.444c2.913,3.167,6.756,5.091,10.971,5.091c4.212,0,8.055-1.924,10.971-5.091
		c2.257-2.452,3.958-5.655,4.841-9.284c0.445-1.813,0.679-3.733,0.679-5.725c0-1.951-0.228-3.836-0.653-5.623
		c-0.876-3.668-2.587-6.907-4.871-9.386c-2.913-3.164-6.756-5.088-10.968-5.088c-4.215,0-8.058,1.925-10.971,5.088
		c-2.281,2.479-3.995,5.718-4.871,9.386c-0.425,1.787-0.653,3.671-0.653,5.623c0,1.991,0.237,3.912,0.679,5.725
		C87.191,149.789,88.891,152.992,91.152,155.444z"/>
	<path fill="#3C2415" stroke="#3C2415" stroke-miterlimit="10" d="M109.885,144.18c0,1.76-1.552,3.187-3.467,3.187
		c-1.911,0-3.463-1.427-3.463-3.187c0-1.763,1.552-3.19,3.463-3.19C108.333,140.989,109.885,142.417,109.885,144.18z"/>
	
		<ellipse fill="#3C2415" stroke="#3C2415" stroke-width="2" stroke-miterlimit="10" cx="117.924" cy="167.882" rx="10.396" ry="5.128"/>
	
		<radialGradient id="SVGID_8_" cx="285.5137" cy="-3.5039" r="6.3764" gradientTransform="matrix(1 0 0 -1 -172.6602 180.04)" gradientUnits="userSpaceOnUse">
		<stop  offset="0.0242" style="stop-color:#FEFBE8"/>
		<stop  offset="0.0421" style="stop-color:#FEFBE5"/>
		<stop  offset="0.371" style="stop-color:#FCF6B9"/>
		<stop  offset="0.6517" style="stop-color:#FBF397"/>
		<stop  offset="0.8703" style="stop-color:#FBF183"/>
		<stop  offset="1" style="stop-color:#FAF17A"/>
	</radialGradient>
	<path fill="url(#SVGID_8_)" d="M108.497,196.788c0.544,0.725,2.762,1.002,4.967,0.959c2.201-0.042,4.39-0.405,4.874-0.959
		c0.432-0.495,0.577-2.57,0.577-5.118c0-2.544-0.145-5.563-0.287-7.942c-0.145-2.383-0.29-4.13-0.29-4.13c-1.638,0-3.279,0-4.92,0
		s-3.279,0-4.92,0c0,0-0.092,1.79-0.185,4.212c-0.092,2.423-0.185,5.481-0.185,8.028S108.221,196.419,108.497,196.788z"/>
	
		<radialGradient id="SVGID_9_" cx="296.6016" cy="-3.2256" r="8.6132" gradientTransform="matrix(1 0 0 -1 -172.6602 180.04)" gradientUnits="userSpaceOnUse">
		<stop  offset="0.0242" style="stop-color:#FEFBE8"/>
		<stop  offset="0.0421" style="stop-color:#FEFBE5"/>
		<stop  offset="0.371" style="stop-color:#FCF6B9"/>
		<stop  offset="0.6517" style="stop-color:#FBF397"/>
		<stop  offset="0.8703" style="stop-color:#FBF183"/>
		<stop  offset="1" style="stop-color:#FAF17A"/>
	</radialGradient>
	<path fill="url(#SVGID_9_)" d="M129.174,196.788c-0.547,0.725-2.762,1.002-4.966,0.959c-2.202-0.042-4.391-0.405-4.878-0.959
		c-0.432-0.495-0.577-2.57-0.577-5.118c0-2.544,0.145-5.563,0.29-7.942c0.145-2.383,0.287-4.13,0.287-4.13c1.641,0,3.282,0,4.924,0
		c1.639,0,3.279,0,4.92,0c0,0,0.09,1.79,0.186,4.212c0.093,2.423,0.186,5.481,0.186,8.028S129.451,196.419,129.174,196.788z"/>
	<path fill="none" stroke="#3C2415" stroke-width="2" stroke-miterlimit="10" d="M96.438,175.782c0,0,8.595,4.149,21.346,4.426
		c16.959,0.369,22.685-3.685,22.457-3.596"/>
	
		<linearGradient id="SVGID_10_" gradientUnits="userSpaceOnUse" x1="308.6035" y1="57.4829" x2="308.6035" y2="23.3849" gradientTransform="matrix(1 0 0 -1 -172.6602 180.04)">
		<stop  offset="0.0242" style="stop-color:#FEFBE8"/>
		<stop  offset="0.0421" style="stop-color:#FEFBE5"/>
		<stop  offset="0.371" style="stop-color:#FCF6B9"/>
		<stop  offset="0.6517" style="stop-color:#FBF397"/>
		<stop  offset="0.8703" style="stop-color:#FBF183"/>
		<stop  offset="1" style="stop-color:#FAF17A"/>
	</linearGradient>
	<path fill="url(#SVGID_10_)" d="M146.914,155.167c-2.916,3.167-6.76,5.092-10.971,5.092c-4.213,0-8.06-1.925-10.972-5.092
		c-2.261-2.456-3.961-5.656-4.844-9.284c-0.442-1.813-0.679-3.734-0.679-5.725c0-1.951,0.228-3.836,0.652-5.622
		c0.877-3.672,2.59-6.908,4.871-9.386c2.913-3.167,6.759-5.088,10.972-5.088c4.211,0,8.055,1.921,10.971,5.088
		c2.281,2.478,3.99,5.714,4.868,9.386c0.426,1.786,0.655,3.671,0.655,5.622c0,1.991-0.236,3.912-0.679,5.725
		C150.877,149.512,149.172,152.712,146.914,155.167z"/>
	<ellipse fill="#3C2415" stroke="#3C2415" stroke-miterlimit="10" cx="129.707" cy="144.456" rx="3.465" ry="3.187"/>
	
		<radialGradient id="SVGID_11_" cx="263.54" cy="-28.5283" r="9.4822" gradientTransform="matrix(1 0 0 -1 -172.6602 180.04)" gradientUnits="userSpaceOnUse">
		<stop  offset="0.0242" style="stop-color:#A76635"/>
		<stop  offset="0.1607" style="stop-color:#A06132"/>
		<stop  offset="0.3906" style="stop-color:#93592B"/>
		<stop  offset="0.6839" style="stop-color:#7B4A21"/>
		<stop  offset="0.9758" style="stop-color:#603913"/>
	</radialGradient>
	<path fill="url(#SVGID_11_)" d="M83.309,214.4c1.87,1.746,4.569,2.843,7.572,2.843c3,0,5.7-1.097,7.57-2.845
		c1.1-1.026,1.913-2.277,2.334-3.664c0.208-0.691,0.321-1.418,0.321-2.168c0-0.756-0.115-1.489-0.33-2.188
		c-0.422-1.376-1.231-2.619-2.323-3.642c-1.871-1.746-4.571-2.843-7.572-2.843c-3.002,0-5.702,1.098-7.572,2.843
		c-1.094,1.021-1.903,2.266-2.327,3.64c-0.214,0.701-0.328,1.435-0.328,2.19c0,0.75,0.11,1.477,0.321,2.168
		C81.396,212.121,82.209,213.372,83.309,214.4z"/>
	
		<radialGradient id="SVGID_12_" cx="320.0918" cy="-30.4678" r="8.3973" gradientTransform="matrix(1 0 0 -1 -172.6602 180.04)" gradientUnits="userSpaceOnUse">
		<stop  offset="0.0242" style="stop-color:#A76635"/>
		<stop  offset="0.1607" style="stop-color:#A06132"/>
		<stop  offset="0.3906" style="stop-color:#93592B"/>
		<stop  offset="0.6839" style="stop-color:#7B4A21"/>
		<stop  offset="0.9758" style="stop-color:#603913"/>
	</radialGradient>
	<path fill="url(#SVGID_12_)" d="M140.729,215.671c1.656,1.548,4.047,2.519,6.705,2.519c2.657,0,5.047-0.971,6.703-2.519
		c0.977-0.909,1.693-2.016,2.065-3.244c0.187-0.612,0.286-1.257,0.286-1.92c0-0.668-0.102-1.317-0.293-1.938
		c-0.371-1.219-1.092-2.319-2.059-3.223c-1.656-1.549-4.047-2.52-6.705-2.52s-5.048,0.971-6.703,2.516
		c-0.969,0.906-1.688,2.006-2.062,3.225c-0.19,0.621-0.291,1.271-0.291,1.939c0,0.663,0.099,1.307,0.286,1.922
		C139.034,213.656,139.755,214.762,140.729,215.671z"/>
	
		<radialGradient id="SVGID_13_" cx="291.3711" cy="47.1377" r="31.8614" gradientTransform="matrix(1 0 0 -1 -172.6602 180.04)" gradientUnits="userSpaceOnUse">
		<stop  offset="0.0242" style="stop-color:#F57F21"/>
		<stop  offset="0.3246" style="stop-color:#F58221"/>
		<stop  offset="0.5851" style="stop-color:#F68920"/>
		<stop  offset="0.8299" style="stop-color:#F8951E"/>
		<stop  offset="1" style="stop-color:#FAA21B"/>
	</radialGradient>
	<path fill="url(#SVGID_13_)" d="M159.613,151.804c0,0-3.672-38.713-41.534-37.788c-39.894,0.975-40.271,37.789-40.271,37.789
		s10.186-24.02,43.222-22.324C152.045,131.072,159.613,151.804,159.613,151.804z"/>
	
		<linearGradient id="SVGID_14_" gradientUnits="userSpaceOnUse" x1="289.709" y1="36.8154" x2="327.5977" y2="36.8154" gradientTransform="matrix(1 0 0 -1 -172.6602 180.04)">
		<stop  offset="0.0242" style="stop-color:#414042"/>
		<stop  offset="0.4078" style="stop-color:#3A3A3B"/>
		<stop  offset="0.8093" style="stop-color:#1F1E1F"/>
		<stop  offset="1" style="stop-color:#000000"/>
	</linearGradient>
	<path fill="url(#SVGID_14_)" d="M122.88,127.078c-3.437,1.614-5.851,2.889-5.831,12.838c0.039,17.963,13.098,20.931,18.283,20.914
		c3.186-0.01,9.742-2.758,11.574-5.372c5.787-8.26,10.183-14.677,6.917-18.42c-7.206-8.266,2.967,0.848-6.993-6.782
		C139.872,124.929,128,124.67,122.88,127.078z"/>
	
		<linearGradient id="SVGID_15_" gradientUnits="userSpaceOnUse" x1="255.5547" y1="49.8398" x2="292.7852" y2="49.8398" gradientTransform="matrix(1 0 0 -1 -172.6602 180.04)">
		<stop  offset="0.0242" style="stop-color:#414042"/>
		<stop  offset="0.4078" style="stop-color:#3A3A3B"/>
		<stop  offset="0.8093" style="stop-color:#1F1E1F"/>
		<stop  offset="1" style="stop-color:#000000"/>
	</linearGradient>
	<path fill="url(#SVGID_15_)" d="M120.125,129.197c0,0-1.546,2.577-2.331,5.722c-0.212,0.848-0.284,3.039-0.284,3.039l-34.616-9.325
		l7.723-6.19L120.125,129.197z"/>
	<path d="M151.279,139.37c0,0,1.939,2.908,2.084,3.956c0.207,1.537-2.084,5.087-2.084,5.087l8.922,4.776l-0.45-9.016L151.279,139.37
		z"/>
	
		<linearGradient id="SVGID_16_" gradientUnits="userSpaceOnUse" x1="356.1172" y1="137.2881" x2="368.6143" y2="137.2881" gradientTransform="matrix(0.9164 0.4003 0.4003 -0.9164 -250.6275 117.7156)">
		<stop  offset="0" style="stop-color:#F1F2F2"/>
		<stop  offset="0.7939" style="stop-color:#F4F3B0"/>
	</linearGradient>
	<path fill="url(#SVGID_16_)" d="M132.48,130.668c1.295-1.076,5.237-1.194,6.726-0.405c1.53,0.809,4.56,3.468,4.56,5.197
		c-0.002,0.83-1.222,2.235-1.891,2.728c-0.245,0.182-0.923,0.31-1.082,0.572c-0.271,0.438,0.075,2.055,0.075,2.055
		s-0.194,0.97-0.394,1.22c-0.17,0.212-0.742,0.445-1.011,0.395c-0.396-0.074-1-0.93-1.385-0.813
		c-0.72,0.215-1.063,2.162-1.763,2.435c-1.276,0.501-4.553-0.912-5.029-2.197c-0.262-0.701,1.066-2.246,0.706-2.897
		c-0.187-0.334-1.106-0.372-1.404-0.613c-0.331-0.271-0.805-1.146-0.709-1.564c0.073-0.319,0.759-0.637,1.043-0.796
		c0.302-0.17,1.063-0.417,1.162-0.748c0.097-0.313-0.387-0.91-0.435-1.235C131.533,133.152,131.816,131.217,132.48,130.668z"/>
	
		<linearGradient id="SVGID_17_" gradientUnits="userSpaceOnUse" x1="358.0449" y1="136.7207" x2="361.3975" y2="136.7207" gradientTransform="matrix(0.9164 0.4003 0.4003 -0.9164 -250.6275 117.7156)">
		<stop  offset="0" style="stop-color:#726658"/>
		<stop  offset="0.1667" style="stop-color:#6C5E50"/>
		<stop  offset="0.4738" style="stop-color:#5C4A3C"/>
		<stop  offset="0.8845" style="stop-color:#432C1D"/>
		<stop  offset="0.9818" style="stop-color:#3C2415"/>
	</linearGradient>
	<path fill="url(#SVGID_17_)" d="M135.468,135.946c-0.298-0.601-2.507-0.955-2.507-0.955s-0.568,0.353-0.654,0.548
		c-0.168,0.371-0.25,1.354,0.053,1.626c0.502,0.453,2.139,0.584,2.697,0.203C135.361,137.16,135.633,136.277,135.468,135.946z"/>
	
		<linearGradient id="SVGID_18_" gradientUnits="userSpaceOnUse" x1="363.2773" y1="136.7197" x2="366.6328" y2="136.7197" gradientTransform="matrix(0.9164 0.4003 0.4003 -0.9164 -250.6275 117.7156)">
		<stop  offset="0" style="stop-color:#726658"/>
		<stop  offset="0.1667" style="stop-color:#6C5E50"/>
		<stop  offset="0.4738" style="stop-color:#5C4A3C"/>
		<stop  offset="0.8845" style="stop-color:#432C1D"/>
		<stop  offset="0.9818" style="stop-color:#3C2415"/>
	</linearGradient>
	<path fill="url(#SVGID_18_)" d="M137.727,136.935c0.646-0.191,2.406,1.189,2.406,1.189s0.129,0.657,0.043,0.854
		c-0.158,0.374-0.822,1.101-1.23,1.065c-0.672-0.06-1.881-1.172-1.98-1.842C136.908,137.836,137.372,137.037,137.727,136.935z"/>
	
		<linearGradient id="SVGID_19_" gradientUnits="userSpaceOnUse" x1="361.2979" y1="134.4922" x2="363.3398" y2="134.4922" gradientTransform="matrix(0.9164 0.4003 0.4003 -0.9164 -250.6275 117.7156)">
		<stop  offset="0" style="stop-color:#726658"/>
		<stop  offset="0.1667" style="stop-color:#6C5E50"/>
		<stop  offset="0.4738" style="stop-color:#5C4A3C"/>
		<stop  offset="0.8845" style="stop-color:#432C1D"/>
		<stop  offset="0.9818" style="stop-color:#3C2415"/>
	</linearGradient>
	<path fill="url(#SVGID_19_)" d="M135.957,140.41c-0.089,0.194-0.579,0.427-0.781,0.356c-0.119-0.042-0.222-0.446-0.222-0.446
		s-0.483,0.222-0.622,0.146c-0.189-0.105-0.361-0.619-0.271-0.816c0.226-0.497,1.309-1.48,1.795-1.235
		C136.302,138.639,136.173,139.958,135.957,140.41z"/>
	
		<linearGradient id="SVGID_20_" gradientUnits="userSpaceOnUse" x1="358.1055" y1="130.5625" x2="366.8877" y2="130.5625" gradientTransform="matrix(0.9164 0.4003 0.4003 -0.9164 -250.6275 117.7156)">
		<stop  offset="0" style="stop-color:#F1F2F2"/>
		<stop  offset="0.7939" style="stop-color:#F4F3B0"/>
	</linearGradient>
	<path fill="url(#SVGID_20_)" d="M138.648,142.702c-0.024-0.232-0.719-0.592-0.719-0.592s-0.808,1.748-1.287,2.153
		c-0.154,0.131-0.754,0.298-0.754,0.298s-1.644-0.287-2.145-0.521c-0.787-0.365-2.529-1.232-2.794-2.057
		c-0.183-0.569,0.596-2.318,0.596-2.318s-0.103-0.593-0.267-0.672c-0.111-0.055-0.477,0.14-0.477,0.14s-1.139,2.923-0.859,3.875
		c0.277,0.936,1.851,2.426,2.773,2.746c0.824,0.283,2.684,0.459,3.494,0.133C137.145,145.514,138.766,143.697,138.648,142.702z"/>
	
		<linearGradient id="SVGID_21_" gradientUnits="userSpaceOnUse" x1="352.5459" y1="125.4956" x2="373.3711" y2="125.4956" gradientTransform="matrix(0.9164 0.4003 0.4003 -0.9164 -250.6275 117.7156)">
		<stop  offset="0" style="stop-color:#F1F2F2"/>
		<stop  offset="0.7939" style="stop-color:#F4F3B0"/>
	</linearGradient>
	<path fill="url(#SVGID_21_)" d="M138.004,152.313l-10.67-10.026c0,0-0.27-2.285-0.854-2.672c-0.332-0.222-1.335-0.165-1.594,0.139
		c-0.248,0.292,0.03,1.2-0.178,1.525c-0.156,0.246-0.938,0.177-1.093,0.428c-0.238,0.387,0.102,1.513,0.49,1.746
		c0.387,0.235,1.805,0.021,1.805,0.021l10.682,10.314c0,0-0.132,1.672,0.223,2.047c0.306,0.323,1.389,0.529,1.759,0.28
		c0.278-0.189,0.312-0.979,0.536-1.227c0.309-0.347,1.474-0.255,1.738-0.635c0.238-0.342,0.073-1.389-0.255-1.646
		C140.077,152.207,138.004,152.313,138.004,152.313z"/>
	
		<linearGradient id="SVGID_22_" gradientUnits="userSpaceOnUse" x1="351.333" y1="125.4609" x2="372.0869" y2="125.4609" gradientTransform="matrix(0.9164 0.4003 0.4003 -0.9164 -250.6275 117.7156)">
		<stop  offset="0" style="stop-color:#F1F2F2"/>
		<stop  offset="0.7939" style="stop-color:#F4F3B0"/>
	</linearGradient>
	<path fill="url(#SVGID_22_)" d="M141.369,146.048c-0.717-0.308-2.95,1.012-2.95,1.012s-10.959,0.873-14.107-0.727
		c-0.637-0.326-1.467-1.81-2.183-1.861c-0.423-0.03-1.341,0.49-1.437,0.905c-0.099,0.418,0.586,1.17,0.626,1.599
		c0.033,0.378-0.623,1.049-0.557,1.427c0.073,0.428,0.884,1.157,1.314,1.132c0.536-0.028,1.738-1.261,1.738-1.261l15.028,0.853
		c0,0,0.752,1.19,1.179,1.281c0.364,0.078,1.224-0.243,1.371-0.586c0.133-0.296-0.268-0.957-0.209-1.274
		c0.063-0.328,0.76-0.7,0.865-1.017C142.174,147.143,141.742,146.21,141.369,146.048z"/>
</g>
</svg>
