<?xml version="1.0" encoding="utf-8"?>
<!-- Generator: Adobe Illustrator 15.0.0, SVG Export Plug-In . SVG Version: 6.00 Build 0)  -->
<!DOCTYPE svg PUBLIC "-//W3C//DTD SVG 1.1//EN" "http://www.w3.org/Graphics/SVG/1.1/DTD/svg11.dtd">
<svg version="1.1" id="Layer_1" xmlns="http://www.w3.org/2000/svg" xmlns:xlink="http://www.w3.org/1999/xlink" x="0px" y="0px"
	 width="250px" height="400px" viewBox="0 0 250 400" enable-background="new 0 0 250 400" xml:space="preserve">
<g>
	
		<linearGradient id="SVGID_1_" gradientUnits="userSpaceOnUse" x1="132.5244" y1="66.9111" x2="158.8398" y2="66.9111" gradientTransform="matrix(1 0 0 -1 -41.6602 236.04)">
		<stop  offset="0" style="stop-color:#F9EC31"/>
		<stop  offset="1" style="stop-color:#F6921E"/>
	</linearGradient>
	<path fill="url(#SVGID_1_)" stroke="#F05A28" stroke-width="0.25" stroke-miterlimit="10" d="M117.134,167.253
		c0,1.263,0.438,3.875-1.407,5.474c-2.332,2.017-6.265,3.438-11.102,3.438c-4.664,0-9.44-1.592-11.729-3.595
		c-1.229-1.077-2.032-3.801-2.032-5.16c0-3.888,6.592-5.317,13.761-5.317C111.792,162.093,117.134,163.366,117.134,167.253z"/>
	
		<linearGradient id="SVGID_2_" gradientUnits="userSpaceOnUse" x1="132.5244" y1="69.8301" x2="158.8398" y2="69.8301" gradientTransform="matrix(1 0 0 -1 -41.6602 236.04)">
		<stop  offset="0" style="stop-color:#F9EC31"/>
		<stop  offset="1" style="stop-color:#F6921E"/>
	</linearGradient>
	<path fill="url(#SVGID_2_)" stroke="#F05A28" stroke-width="0.25" stroke-miterlimit="10" d="M117.134,164.335
		c0,1.265,0.438,3.875-1.407,5.471c-2.333,2.019-6.264,3.441-11.102,3.441c-4.663,0-9.44-1.596-11.728-3.596
		c-1.231-1.076-2.033-3.802-2.033-5.159c0-3.887,6.592-5.319,13.761-5.319C111.792,159.172,117.134,160.45,117.134,164.335z"/>
	
		<linearGradient id="SVGID_3_" gradientUnits="userSpaceOnUse" x1="132.5244" y1="73.166" x2="158.8398" y2="73.166" gradientTransform="matrix(1 0 0 -1 -41.6602 236.04)">
		<stop  offset="0" style="stop-color:#F9EC31"/>
		<stop  offset="1" style="stop-color:#F6921E"/>
	</linearGradient>
	<path fill="url(#SVGID_3_)" stroke="#F05A28" stroke-width="0.25" stroke-miterlimit="10" d="M117.134,160.998
		c0,1.264,0.438,3.876-1.407,5.473c-2.332,2.018-6.265,3.439-11.102,3.439c-4.664,0-9.44-1.593-11.729-3.595
		c-1.229-1.076-2.032-3.802-2.032-5.162c0-3.885,6.592-5.315,13.761-5.315C111.792,155.839,117.134,157.113,117.134,160.998z"/>
	
		<linearGradient id="SVGID_4_" gradientUnits="userSpaceOnUse" x1="132.3145" y1="76.7095" x2="158.6309" y2="76.7095" gradientTransform="matrix(1 0 0 -1 -41.6602 236.04)">
		<stop  offset="0" style="stop-color:#F9EC31"/>
		<stop  offset="1" style="stop-color:#F6921E"/>
	</linearGradient>
	<path fill="url(#SVGID_4_)" stroke="#F05A28" stroke-width="0.25" stroke-miterlimit="10" d="M116.925,157.454
		c0,1.264,0.439,3.874-1.407,5.475c-2.332,2.016-6.264,3.438-11.103,3.438c-4.662,0-9.439-1.596-11.727-3.595
		c-1.229-1.077-2.033-3.802-2.033-5.163c0-3.885,6.593-5.315,13.76-5.315C111.584,152.294,116.925,153.568,116.925,157.454z"/>
	
		<linearGradient id="SVGID_5_" gradientUnits="userSpaceOnUse" x1="132.1055" y1="80.0449" x2="158.4219" y2="80.0449" gradientTransform="matrix(1 0 0 -1 -41.6602 236.04)">
		<stop  offset="0" style="stop-color:#F9EC31"/>
		<stop  offset="1" style="stop-color:#F6921E"/>
	</linearGradient>
	<path fill="url(#SVGID_5_)" stroke="#F05A28" stroke-width="0.25" stroke-miterlimit="10" d="M116.717,154.119
		c0,1.263,0.438,3.874-1.408,5.473c-2.331,2.018-6.264,3.439-11.101,3.439c-4.663,0-9.44-1.593-11.729-3.595
		c-1.229-1.075-2.033-3.802-2.033-5.16c0-3.886,6.593-5.317,13.761-5.317S116.717,150.233,116.717,154.119z"/>
	
		<linearGradient id="SVGID_6_" gradientUnits="userSpaceOnUse" x1="132.4189" y1="83.1719" x2="158.377" y2="83.1719" gradientTransform="matrix(1 0 0 -1 -41.6602 236.04)">
		<stop  offset="0" style="stop-color:#F9EC31"/>
		<stop  offset="1" style="stop-color:#F6921E"/>
	</linearGradient>
	<path fill="url(#SVGID_6_)" stroke="#F05A28" stroke-width="0.25" stroke-miterlimit="10" d="M116.717,152.866
		c0,3.886-5.812,7.039-12.979,7.039c-7.168,0-12.979-3.153-12.979-7.039c0-3.885,5.81-7.035,12.979-7.035
		C110.905,145.831,116.717,148.981,116.717,152.866z"/>
	
		<linearGradient id="SVGID_7_" gradientUnits="userSpaceOnUse" x1="134.2969" y1="83.3311" x2="156.5" y2="83.3311" gradientTransform="matrix(1 0 0 -1 -41.6602 236.04)">
		<stop  offset="0" style="stop-color:#FFF690"/>
		<stop  offset="1" style="stop-color:#FFDD15"/>
	</linearGradient>
	
		<ellipse fill="url(#SVGID_7_)" stroke="#F05A28" stroke-width="0.25" stroke-miterlimit="10" cx="103.738" cy="152.709" rx="11.102" ry="5.319"/>
	
		<linearGradient id="SVGID_8_" gradientUnits="userSpaceOnUse" x1="130.625" y1="86.1436" x2="156.9404" y2="86.1436" gradientTransform="matrix(1 0 0 -1 -41.6602 236.04)">
		<stop  offset="0" style="stop-color:#F9EC31"/>
		<stop  offset="1" style="stop-color:#F6921E"/>
	</linearGradient>
	<path fill="url(#SVGID_8_)" stroke="#F05A28" stroke-width="0.25" stroke-miterlimit="10" d="M115.235,148.021
		c0,1.262,0.439,3.875-1.408,5.472c-2.331,2.018-6.264,3.44-11.102,3.44c-4.663,0-9.439-1.595-11.728-3.596
		c-1.229-1.076-2.032-3.801-2.032-5.16c0-3.885,6.593-5.317,13.76-5.317C109.894,142.86,115.235,144.135,115.235,148.021z"/>
	
		<linearGradient id="SVGID_9_" gradientUnits="userSpaceOnUse" x1="130.3867" y1="88.9063" x2="156.7031" y2="88.9063" gradientTransform="matrix(1 0 0 -1 -41.6602 236.04)">
		<stop  offset="0" style="stop-color:#F9EC31"/>
		<stop  offset="1" style="stop-color:#F6921E"/>
	</linearGradient>
	<path fill="url(#SVGID_9_)" stroke="#F05A28" stroke-width="0.25" stroke-miterlimit="10" d="M114.997,145.257
		c0,1.263,0.438,3.874-1.407,5.475c-2.333,2.016-6.265,3.439-11.103,3.439c-4.663,0-9.439-1.595-11.728-3.596
		c-1.229-1.076-2.032-3.803-2.032-5.163c0-3.887,6.593-5.316,13.76-5.316C109.656,140.097,114.997,141.371,114.997,145.257z"/>
	
		<linearGradient id="SVGID_10_" gradientUnits="userSpaceOnUse" x1="130.4395" y1="91.7197" x2="156.7539" y2="91.7197" gradientTransform="matrix(1 0 0 -1 -41.6602 236.04)">
		<stop  offset="0" style="stop-color:#F9EC31"/>
		<stop  offset="1" style="stop-color:#F6921E"/>
	</linearGradient>
	<path fill="url(#SVGID_10_)" stroke="#F05A28" stroke-width="0.25" stroke-miterlimit="10" d="M115.048,142.443
		c0,1.263,0.439,3.874-1.407,5.473c-2.331,2.018-6.264,3.44-11.101,3.44c-4.664,0-9.44-1.596-11.728-3.597
		c-1.23-1.076-2.033-3.803-2.033-5.16c0-3.886,6.591-5.314,13.761-5.314C109.707,137.285,115.048,138.557,115.048,142.443z"/>
	
		<linearGradient id="SVGID_11_" gradientUnits="userSpaceOnUse" x1="130.752" y1="94.8477" x2="156.708" y2="94.8477" gradientTransform="matrix(1 0 0 -1 -41.6602 236.04)">
		<stop  offset="0" style="stop-color:#F9EC31"/>
		<stop  offset="1" style="stop-color:#F6921E"/>
	</linearGradient>
	
		<ellipse fill="url(#SVGID_11_)" stroke="#F05A28" stroke-width="0.25" stroke-miterlimit="10" cx="102.07" cy="141.192" rx="12.978" ry="7.036"/>
	
		<linearGradient id="SVGID_12_" gradientUnits="userSpaceOnUse" x1="132.6279" y1="95.0039" x2="154.832" y2="95.0039" gradientTransform="matrix(1 0 0 -1 -41.6602 236.04)">
		<stop  offset="0" style="stop-color:#FFF690"/>
		<stop  offset="1" style="stop-color:#FFDD15"/>
	</linearGradient>
	
		<ellipse fill="url(#SVGID_12_)" stroke="#F05A28" stroke-width="0.25" stroke-miterlimit="10" cx="102.07" cy="141.036" rx="11.102" ry="5.315"/>
	
		<linearGradient id="SVGID_13_" gradientUnits="userSpaceOnUse" x1="132.1055" y1="97.1416" x2="158.4219" y2="97.1416" gradientTransform="matrix(1 0 0 -1 -41.6602 236.04)">
		<stop  offset="0" style="stop-color:#F9EC31"/>
		<stop  offset="1" style="stop-color:#F6921E"/>
	</linearGradient>
	<path fill="url(#SVGID_13_)" stroke="#F05A28" stroke-width="0.25" stroke-miterlimit="10" d="M116.717,137.021
		c0,1.266,0.438,3.875-1.408,5.475c-2.331,2.017-6.264,3.439-11.101,3.439c-4.663,0-9.44-1.595-11.729-3.596
		c-1.229-1.075-2.033-3.801-2.033-5.161c0-3.886,6.593-5.316,13.761-5.316S116.717,133.135,116.717,137.021z"/>
	
		<linearGradient id="SVGID_14_" gradientUnits="userSpaceOnUse" x1="131.8965" y1="100.0601" x2="158.2139" y2="100.0601" gradientTransform="matrix(1 0 0 -1 -41.6602 236.04)">
		<stop  offset="0" style="stop-color:#F9EC31"/>
		<stop  offset="1" style="stop-color:#F6921E"/>
	</linearGradient>
	<path fill="url(#SVGID_14_)" stroke="#F05A28" stroke-width="0.25" stroke-miterlimit="10" d="M116.508,134.103
		c0,1.263,0.44,3.876-1.407,5.474c-2.332,2.017-6.265,3.44-11.103,3.44c-4.662,0-9.439-1.596-11.728-3.597
		c-1.229-1.075-2.033-3.802-2.033-5.16c0-3.885,6.592-5.317,13.76-5.317S116.508,130.216,116.508,134.103z"/>
	
		<linearGradient id="SVGID_15_" gradientUnits="userSpaceOnUse" x1="131.6914" y1="103.605" x2="158.0059" y2="103.605" gradientTransform="matrix(1 0 0 -1 -41.6602 236.04)">
		<stop  offset="0" style="stop-color:#F9EC31"/>
		<stop  offset="1" style="stop-color:#F6921E"/>
	</linearGradient>
	<path fill="url(#SVGID_15_)" stroke="#F05A28" stroke-width="0.25" stroke-miterlimit="10" d="M116.3,130.559
		c0,1.264,0.438,3.874-1.408,5.472c-2.331,2.017-6.264,3.44-11.102,3.44c-4.662,0-9.439-1.595-11.727-3.597
		c-1.229-1.076-2.032-3.8-2.032-5.16c0-3.884,6.592-5.315,13.759-5.315C110.958,125.399,116.3,126.674,116.3,130.559z"/>
	
		<linearGradient id="SVGID_16_" gradientUnits="userSpaceOnUse" x1="132.0029" y1="106.7324" x2="157.9609" y2="106.7324" gradientTransform="matrix(1 0 0 -1 -41.6602 236.04)">
		<stop  offset="0" style="stop-color:#F9EC31"/>
		<stop  offset="1" style="stop-color:#F6921E"/>
	</linearGradient>
	
		<ellipse fill="url(#SVGID_16_)" stroke="#F05A28" stroke-width="0.25" stroke-miterlimit="10" cx="103.322" cy="129.308" rx="12.979" ry="7.037"/>
	
		<linearGradient id="SVGID_17_" gradientUnits="userSpaceOnUse" x1="133.8789" y1="106.8892" x2="156.083" y2="106.8892" gradientTransform="matrix(1 0 0 -1 -41.6602 236.04)">
		<stop  offset="0" style="stop-color:#FFF690"/>
		<stop  offset="1" style="stop-color:#FFDD15"/>
	</linearGradient>
	
		<ellipse fill="url(#SVGID_17_)" stroke="#F05A28" stroke-width="0.25" stroke-miterlimit="10" cx="103.321" cy="129.151" rx="11.102" ry="5.317"/>
	
		<linearGradient id="SVGID_18_" gradientUnits="userSpaceOnUse" x1="151.0566" y1="51.8467" x2="177.373" y2="51.8467" gradientTransform="matrix(1 0 0 -1 -41.6602 236.04)">
		<stop  offset="0" style="stop-color:#F9EC31"/>
		<stop  offset="1" style="stop-color:#F6921E"/>
	</linearGradient>
	<path fill="url(#SVGID_18_)" stroke="#F05A28" stroke-width="0.25" stroke-miterlimit="10" d="M135.667,182.316
		c0,1.262,0.438,3.875-1.408,5.474c-2.331,2.017-6.265,3.44-11.102,3.44c-4.663,0-9.439-1.596-11.728-3.597
		c-1.23-1.075-2.032-3.803-2.032-5.162c0-3.886,6.592-5.314,13.76-5.314S135.667,178.43,135.667,182.316z"/>
	
		<linearGradient id="SVGID_19_" gradientUnits="userSpaceOnUse" x1="151.0566" y1="54.7671" x2="177.373" y2="54.7671" gradientTransform="matrix(1 0 0 -1 -41.6602 236.04)">
		<stop  offset="0" style="stop-color:#F9EC31"/>
		<stop  offset="1" style="stop-color:#F6921E"/>
	</linearGradient>
	<path fill="url(#SVGID_19_)" stroke="#F05A28" stroke-width="0.25" stroke-miterlimit="10" d="M135.667,179.397
		c0,1.264,0.438,3.876-1.407,5.473c-2.332,2.018-6.264,3.439-11.103,3.439c-4.663,0-9.439-1.593-11.728-3.595
		c-1.229-1.077-2.033-3.802-2.033-5.161c0-3.887,6.592-5.316,13.76-5.316C130.326,174.238,135.667,175.512,135.667,179.397z"/>
	
		<linearGradient id="SVGID_20_" gradientUnits="userSpaceOnUse" x1="151.0566" y1="58.1011" x2="177.373" y2="58.1011" gradientTransform="matrix(1 0 0 -1 -41.6602 236.04)">
		<stop  offset="0" style="stop-color:#F9EC31"/>
		<stop  offset="1" style="stop-color:#F6921E"/>
	</linearGradient>
	<path fill="url(#SVGID_20_)" stroke="#F05A28" stroke-width="0.25" stroke-miterlimit="10" d="M135.667,176.062
		c0,1.263,0.438,3.874-1.408,5.474c-2.331,2.016-6.265,3.44-11.102,3.44c-4.663,0-9.439-1.596-11.728-3.597
		c-1.23-1.075-2.032-3.801-2.032-5.16c0-3.888,6.592-5.317,13.76-5.317S135.667,172.176,135.667,176.062z"/>
	
		<linearGradient id="SVGID_21_" gradientUnits="userSpaceOnUse" x1="150.8477" y1="61.6475" x2="177.1641" y2="61.6475" gradientTransform="matrix(1 0 0 -1 -41.6602 236.04)">
		<stop  offset="0" style="stop-color:#F9EC31"/>
		<stop  offset="1" style="stop-color:#F6921E"/>
	</linearGradient>
	<path fill="url(#SVGID_21_)" stroke="#F05A28" stroke-width="0.25" stroke-miterlimit="10" d="M135.458,172.517
		c0,1.263,0.438,3.875-1.407,5.473c-2.332,2.019-6.264,3.439-11.103,3.439c-4.662,0-9.439-1.593-11.728-3.595
		c-1.229-1.076-2.032-3.802-2.032-5.161c0-3.887,6.592-5.317,13.76-5.317C130.117,167.357,135.458,168.631,135.458,172.517z"/>
	
		<linearGradient id="SVGID_22_" gradientUnits="userSpaceOnUse" x1="150.6387" y1="64.9824" x2="176.9551" y2="64.9824" gradientTransform="matrix(1 0 0 -1 -41.6602 236.04)">
		<stop  offset="0" style="stop-color:#F9EC31"/>
		<stop  offset="1" style="stop-color:#F6921E"/>
	</linearGradient>
	<path fill="url(#SVGID_22_)" stroke="#F05A28" stroke-width="0.25" stroke-miterlimit="10" d="M135.249,169.182
		c0,1.263,0.438,3.874-1.407,5.472c-2.33,2.019-6.264,3.44-11.102,3.44c-4.663,0-9.44-1.596-11.729-3.597
		c-1.228-1.075-2.032-3.801-2.032-5.159c0-3.888,6.592-5.317,13.76-5.317C129.908,164.022,135.249,165.296,135.249,169.182z"/>
	
		<linearGradient id="SVGID_23_" gradientUnits="userSpaceOnUse" x1="150.9531" y1="68.1094" x2="176.9092" y2="68.1094" gradientTransform="matrix(1 0 0 -1 -41.6602 236.04)">
		<stop  offset="0" style="stop-color:#F9EC31"/>
		<stop  offset="1" style="stop-color:#F6921E"/>
	</linearGradient>
	
		<ellipse fill="url(#SVGID_23_)" stroke="#F05A28" stroke-width="0.25" stroke-miterlimit="10" cx="122.271" cy="167.931" rx="12.978" ry="7.035"/>
	
		<linearGradient id="SVGID_24_" gradientUnits="userSpaceOnUse" x1="152.8281" y1="68.2661" x2="175.0322" y2="68.2661" gradientTransform="matrix(1 0 0 -1 -41.6602 236.04)">
		<stop  offset="0" style="stop-color:#FFF690"/>
		<stop  offset="1" style="stop-color:#FFDD15"/>
	</linearGradient>
	
		<ellipse fill="url(#SVGID_24_)" stroke="#F05A28" stroke-width="0.25" stroke-miterlimit="10" cx="122.27" cy="167.774" rx="11.102" ry="5.316"/>
	
		<linearGradient id="SVGID_25_" gradientUnits="userSpaceOnUse" x1="149.1582" y1="71.0811" x2="175.4736" y2="71.0811" gradientTransform="matrix(1 0 0 -1 -41.6602 236.04)">
		<stop  offset="0" style="stop-color:#F9EC31"/>
		<stop  offset="1" style="stop-color:#F6921E"/>
	</linearGradient>
	<path fill="url(#SVGID_25_)" stroke="#F05A28" stroke-width="0.25" stroke-miterlimit="10" d="M133.768,163.083
		c0,1.263,0.438,3.874-1.406,5.474c-2.332,2.017-6.266,3.439-11.104,3.439c-4.663,0-9.439-1.595-11.727-3.596
		c-1.23-1.075-2.033-3.802-2.033-5.162c0-3.885,6.592-5.316,13.76-5.316C128.427,157.922,133.768,159.198,133.768,163.083z"/>
	
		<linearGradient id="SVGID_26_" gradientUnits="userSpaceOnUse" x1="148.9189" y1="73.8428" x2="175.2354" y2="73.8428" gradientTransform="matrix(1 0 0 -1 -41.6602 236.04)">
		<stop  offset="0" style="stop-color:#F9EC31"/>
		<stop  offset="1" style="stop-color:#F6921E"/>
	</linearGradient>
	<path fill="url(#SVGID_26_)" stroke="#F05A28" stroke-width="0.25" stroke-miterlimit="10" d="M133.529,160.32
		c0,1.264,0.439,3.874-1.406,5.474c-2.333,2.017-6.266,3.439-11.104,3.439c-4.662,0-9.439-1.594-11.727-3.596
		c-1.23-1.076-2.033-3.803-2.033-5.16c0-3.885,6.593-5.316,13.76-5.316C128.188,155.161,133.529,156.435,133.529,160.32z"/>
	
		<linearGradient id="SVGID_27_" gradientUnits="userSpaceOnUse" x1="148.9707" y1="76.6587" x2="175.2871" y2="76.6587" gradientTransform="matrix(1 0 0 -1 -41.6602 236.04)">
		<stop  offset="0" style="stop-color:#F9EC31"/>
		<stop  offset="1" style="stop-color:#F6921E"/>
	</linearGradient>
	<path fill="url(#SVGID_27_)" stroke="#F05A28" stroke-width="0.25" stroke-miterlimit="10" d="M133.581,157.506
		c0,1.263,0.438,3.876-1.406,5.471c-2.332,2.02-6.266,3.441-11.103,3.441c-4.663,0-9.439-1.596-11.727-3.598
		c-1.23-1.074-2.034-3.801-2.034-5.158c0-3.886,6.593-5.317,13.761-5.317C128.24,152.346,133.581,153.62,133.581,157.506z"/>
	
		<linearGradient id="SVGID_28_" gradientUnits="userSpaceOnUse" x1="149.2852" y1="79.7852" x2="175.2412" y2="79.7852" gradientTransform="matrix(1 0 0 -1 -41.6602 236.04)">
		<stop  offset="0" style="stop-color:#F9EC31"/>
		<stop  offset="1" style="stop-color:#F6921E"/>
	</linearGradient>
	
		<ellipse fill="url(#SVGID_28_)" stroke="#F05A28" stroke-width="0.25" stroke-miterlimit="10" cx="120.603" cy="156.255" rx="12.978" ry="7.037"/>
	
		<linearGradient id="SVGID_29_" gradientUnits="userSpaceOnUse" x1="151.1602" y1="79.9409" x2="173.3662" y2="79.9409" gradientTransform="matrix(1 0 0 -1 -41.6602 236.04)">
		<stop  offset="0" style="stop-color:#FFF690"/>
		<stop  offset="1" style="stop-color:#FFDD15"/>
	</linearGradient>
	
		<ellipse fill="url(#SVGID_29_)" stroke="#F05A28" stroke-width="0.25" stroke-miterlimit="10" cx="120.603" cy="156.099" rx="11.103" ry="5.316"/>
	
		<linearGradient id="SVGID_30_" gradientUnits="userSpaceOnUse" x1="145.0098" y1="82.0786" x2="171.3252" y2="82.0786" gradientTransform="matrix(1 0 0 -1 -41.6602 236.04)">
		<stop  offset="0" style="stop-color:#F9EC31"/>
		<stop  offset="1" style="stop-color:#F6921E"/>
	</linearGradient>
	<path fill="url(#SVGID_30_)" stroke="#F05A28" stroke-width="0.25" stroke-miterlimit="10" d="M129.619,152.085
		c0,1.263,0.439,3.875-1.406,5.472c-2.332,2.018-6.265,3.441-11.103,3.441c-4.663,0-9.439-1.595-11.727-3.596
		c-1.229-1.075-2.033-3.801-2.033-5.16c0-3.886,6.593-5.317,13.76-5.317C124.278,146.925,129.619,148.199,129.619,152.085z"/>
	
		<linearGradient id="SVGID_31_" gradientUnits="userSpaceOnUse" x1="144.8008" y1="84.9976" x2="171.1182" y2="84.9976" gradientTransform="matrix(1 0 0 -1 -41.6602 236.04)">
		<stop  offset="0" style="stop-color:#F9EC31"/>
		<stop  offset="1" style="stop-color:#F6921E"/>
	</linearGradient>
	<path fill="url(#SVGID_31_)" stroke="#F05A28" stroke-width="0.25" stroke-miterlimit="10" d="M129.413,149.167
		c0,1.263,0.437,3.875-1.409,5.474c-2.331,2.017-6.265,3.438-11.102,3.438c-4.663,0-9.439-1.593-11.728-3.595
		c-1.23-1.075-2.033-3.802-2.033-5.16c0-3.886,6.592-5.318,13.76-5.318S129.413,145.28,129.413,149.167z"/>
	
		<linearGradient id="SVGID_32_" gradientUnits="userSpaceOnUse" x1="144.5938" y1="88.5415" x2="170.9092" y2="88.5415" gradientTransform="matrix(1 0 0 -1 -41.6602 236.04)">
		<stop  offset="0" style="stop-color:#F9EC31"/>
		<stop  offset="1" style="stop-color:#F6921E"/>
	</linearGradient>
	<path fill="url(#SVGID_32_)" stroke="#F05A28" stroke-width="0.25" stroke-miterlimit="10" d="M129.204,145.622
		c0,1.264,0.437,3.875-1.407,5.473c-2.333,2.019-6.265,3.44-11.103,3.44c-4.663,0-9.44-1.595-11.728-3.596
		c-1.229-1.075-2.032-3.801-2.032-5.16c0-3.886,6.592-5.317,13.76-5.317S129.204,141.735,129.204,145.622z"/>
	
		<linearGradient id="SVGID_33_" gradientUnits="userSpaceOnUse" x1="144.9063" y1="91.6689" x2="170.8643" y2="91.6689" gradientTransform="matrix(1 0 0 -1 -41.6602 236.04)">
		<stop  offset="0" style="stop-color:#F9EC31"/>
		<stop  offset="1" style="stop-color:#F6921E"/>
	</linearGradient>
	
		<ellipse fill="url(#SVGID_33_)" stroke="#F05A28" stroke-width="0.25" stroke-miterlimit="10" cx="116.225" cy="144.371" rx="12.979" ry="7.036"/>
	
		<linearGradient id="SVGID_34_" gradientUnits="userSpaceOnUse" x1="146.7822" y1="91.8262" x2="168.9863" y2="91.8262" gradientTransform="matrix(1 0 0 -1 -41.6602 236.04)">
		<stop  offset="0" style="stop-color:#FFF690"/>
		<stop  offset="1" style="stop-color:#FFDD15"/>
	</linearGradient>
	
		<ellipse fill="url(#SVGID_34_)" stroke="#F05A28" stroke-width="0.25" stroke-miterlimit="10" cx="116.224" cy="144.214" rx="11.102" ry="5.317"/>
	
		<linearGradient id="SVGID_35_" gradientUnits="userSpaceOnUse" x1="119.313" y1="56.6431" x2="145.2715" y2="56.6431" gradientTransform="matrix(1 0 0 -1 -41.6602 236.04)">
		<stop  offset="0" style="stop-color:#F9EC31"/>
		<stop  offset="1" style="stop-color:#F6921E"/>
	</linearGradient>
	
		<ellipse fill="url(#SVGID_35_)" stroke="#F05A28" stroke-width="0.25" stroke-miterlimit="10" cx="90.632" cy="179.397" rx="12.979" ry="7.038"/>
	
		<linearGradient id="SVGID_36_" gradientUnits="userSpaceOnUse" x1="117.5171" y1="59.6133" x2="143.834" y2="59.6133" gradientTransform="matrix(1 0 0 -1 -41.6602 236.04)">
		<stop  offset="0" style="stop-color:#F9EC31"/>
		<stop  offset="1" style="stop-color:#F6921E"/>
	</linearGradient>
	<path fill="url(#SVGID_36_)" stroke="#F05A28" stroke-width="0.25" stroke-miterlimit="10" d="M102.128,174.55
		c0,1.263,0.44,3.875-1.407,5.473c-2.331,2.02-6.264,3.44-11.103,3.44c-4.662,0-9.438-1.595-11.727-3.596
		c-1.229-1.075-2.034-3.801-2.034-5.161c0-3.886,6.594-5.316,13.76-5.316C96.787,169.39,102.128,170.664,102.128,174.55z"/>
	
		<linearGradient id="SVGID_37_" gradientUnits="userSpaceOnUse" x1="117.2813" y1="62.376" x2="143.5986" y2="62.376" gradientTransform="matrix(1 0 0 -1 -41.6602 236.04)">
		<stop  offset="0" style="stop-color:#F9EC31"/>
		<stop  offset="1" style="stop-color:#F6921E"/>
	</linearGradient>
	<path fill="url(#SVGID_37_)" stroke="#F05A28" stroke-width="0.25" stroke-miterlimit="10" d="M101.892,171.788
		c0,1.262,0.439,3.874-1.408,5.473c-2.331,2.018-6.265,3.44-11.102,3.44c-4.663,0-9.44-1.596-11.728-3.597
		c-1.23-1.075-2.033-3.801-2.033-5.16c0-3.886,6.592-5.317,13.76-5.317S101.892,167.902,101.892,171.788z"/>
	
		<linearGradient id="SVGID_38_" gradientUnits="userSpaceOnUse" x1="117.334" y1="65.1904" x2="143.6484" y2="65.1904" gradientTransform="matrix(1 0 0 -1 -41.6602 236.04)">
		<stop  offset="0" style="stop-color:#F9EC31"/>
		<stop  offset="1" style="stop-color:#F6921E"/>
	</linearGradient>
	<path fill="url(#SVGID_38_)" stroke="#F05A28" stroke-width="0.25" stroke-miterlimit="10" d="M101.943,168.975
		c0,1.263,0.438,3.873-1.406,5.472c-2.333,2.017-6.265,3.438-11.103,3.438c-4.663,0-9.439-1.595-11.727-3.596
		c-1.231-1.076-2.033-3.802-2.033-5.16c0-3.886,6.592-5.317,13.76-5.317S101.943,165.088,101.943,168.975z"/>
	
		<linearGradient id="SVGID_39_" gradientUnits="userSpaceOnUse" x1="117.646" y1="68.3174" x2="143.6035" y2="68.3174" gradientTransform="matrix(1 0 0 -1 -41.6602 236.04)">
		<stop  offset="0" style="stop-color:#F9EC31"/>
		<stop  offset="1" style="stop-color:#F6921E"/>
	</linearGradient>
	<path fill="url(#SVGID_39_)" stroke="#F05A28" stroke-width="0.25" stroke-miterlimit="10" d="M101.943,167.724
		c0,3.886-5.812,7.035-12.978,7.035c-7.169,0-12.979-3.149-12.979-7.035c0-3.889,5.81-7.038,12.979-7.038
		C96.131,160.686,101.943,163.835,101.943,167.724z"/>
	
		<linearGradient id="SVGID_40_" gradientUnits="userSpaceOnUse" x1="119.5229" y1="68.4731" x2="141.7266" y2="68.4731" gradientTransform="matrix(1 0 0 -1 -41.6602 236.04)">
		<stop  offset="0" style="stop-color:#FFF690"/>
		<stop  offset="1" style="stop-color:#FFDD15"/>
	</linearGradient>
	
		<ellipse fill="url(#SVGID_40_)" stroke="#F05A28" stroke-width="0.25" stroke-miterlimit="10" cx="88.965" cy="167.567" rx="11.102" ry="5.314"/>
	
		<linearGradient id="SVGID_41_" gradientUnits="userSpaceOnUse" x1="119" y1="70.6113" x2="145.3154" y2="70.6113" gradientTransform="matrix(1 0 0 -1 -41.6602 236.04)">
		<stop  offset="0" style="stop-color:#F9EC31"/>
		<stop  offset="1" style="stop-color:#F6921E"/>
	</linearGradient>
	<path fill="url(#SVGID_41_)" stroke="#F05A28" stroke-width="0.25" stroke-miterlimit="10" d="M103.61,163.552
		c0,1.264,0.44,3.874-1.407,5.474c-2.331,2.019-6.264,3.44-11.102,3.44c-4.663,0-9.439-1.596-11.728-3.597
		c-1.229-1.075-2.033-3.802-2.033-5.16c0-3.886,6.593-5.317,13.76-5.317C98.27,158.392,103.61,159.667,103.61,163.552z"/>
	
		<linearGradient id="SVGID_42_" gradientUnits="userSpaceOnUse" x1="118.791" y1="73.5283" x2="145.1084" y2="73.5283" gradientTransform="matrix(1 0 0 -1 -41.6602 236.04)">
		<stop  offset="0" style="stop-color:#F9EC31"/>
		<stop  offset="1" style="stop-color:#F6921E"/>
	</linearGradient>
	<path fill="url(#SVGID_42_)" stroke="#F05A28" stroke-width="0.25" stroke-miterlimit="10" d="M103.402,160.634
		c0,1.264,0.439,3.874-1.408,5.473c-2.331,2.017-6.264,3.441-11.102,3.441c-4.663,0-9.439-1.596-11.728-3.598
		c-1.229-1.075-2.033-3.802-2.033-5.161c0-3.885,6.593-5.314,13.76-5.314C98.061,155.475,103.402,156.747,103.402,160.634z"/>
	
		<linearGradient id="SVGID_43_" gradientUnits="userSpaceOnUse" x1="118.584" y1="77.0752" x2="144.8994" y2="77.0752" gradientTransform="matrix(1 0 0 -1 -41.6602 236.04)">
		<stop  offset="0" style="stop-color:#F9EC31"/>
		<stop  offset="1" style="stop-color:#F6921E"/>
	</linearGradient>
	<path fill="url(#SVGID_43_)" stroke="#F05A28" stroke-width="0.25" stroke-miterlimit="10" d="M103.194,157.09
		c0,1.263,0.439,3.874-1.407,5.472c-2.332,2.017-6.265,3.439-11.102,3.439c-4.664,0-9.44-1.595-11.728-3.596
		c-1.23-1.075-2.033-3.801-2.033-5.159c0-3.886,6.592-5.317,13.761-5.317C97.853,151.93,103.194,153.204,103.194,157.09z"/>
	
		<linearGradient id="SVGID_44_" gradientUnits="userSpaceOnUse" x1="118.896" y1="80.2012" x2="144.8535" y2="80.2012" gradientTransform="matrix(1 0 0 -1 -41.6602 236.04)">
		<stop  offset="0" style="stop-color:#F9EC31"/>
		<stop  offset="1" style="stop-color:#F6921E"/>
	</linearGradient>
	
		<ellipse fill="url(#SVGID_44_)" stroke="#F05A28" stroke-width="0.25" stroke-miterlimit="10" cx="90.215" cy="155.839" rx="12.979" ry="7.037"/>
	
		<linearGradient id="SVGID_45_" gradientUnits="userSpaceOnUse" x1="120.7739" y1="80.3579" x2="142.9785" y2="80.3579" gradientTransform="matrix(1 0 0 -1 -41.6602 236.04)">
		<stop  offset="0" style="stop-color:#FFF690"/>
		<stop  offset="1" style="stop-color:#FFDD15"/>
	</linearGradient>
	
		<ellipse fill="url(#SVGID_45_)" stroke="#F05A28" stroke-width="0.25" stroke-miterlimit="10" cx="90.216" cy="155.682" rx="11.102" ry="5.316"/>
	
		<linearGradient id="SVGID_46_" gradientUnits="userSpaceOnUse" x1="141.2578" y1="44.9678" x2="167.5732" y2="44.9678" gradientTransform="matrix(1 0 0 -1 -41.6602 236.04)">
		<stop  offset="0" style="stop-color:#F9EC31"/>
		<stop  offset="1" style="stop-color:#F6921E"/>
	</linearGradient>
	<path fill="url(#SVGID_46_)" stroke="#F05A28" stroke-width="0.25" stroke-miterlimit="10" d="M125.867,189.197
		c0,1.262,0.439,3.874-1.407,5.473c-2.332,2.018-6.265,3.439-11.102,3.439c-4.663,0-9.44-1.595-11.728-3.596
		c-1.229-1.075-2.032-3.803-2.032-5.162c0-3.885,6.592-5.315,13.76-5.315C120.525,184.036,125.867,185.311,125.867,189.197z"/>
	
		<linearGradient id="SVGID_47_" gradientUnits="userSpaceOnUse" x1="141.5713" y1="48.0947" x2="167.5273" y2="48.0947" gradientTransform="matrix(1 0 0 -1 -41.6602 236.04)">
		<stop  offset="0" style="stop-color:#F9EC31"/>
		<stop  offset="1" style="stop-color:#F6921E"/>
	</linearGradient>
	
		<ellipse fill="url(#SVGID_47_)" stroke="#F05A28" stroke-width="0.25" stroke-miterlimit="10" cx="112.889" cy="187.945" rx="12.978" ry="7.037"/>
	
		<linearGradient id="SVGID_48_" gradientUnits="userSpaceOnUse" x1="144.0732" y1="48.25" x2="166.2773" y2="48.25" gradientTransform="matrix(1 0 0 -1 -41.6602 236.04)">
		<stop  offset="0" style="stop-color:#FFF690"/>
		<stop  offset="1" style="stop-color:#FFDD15"/>
	</linearGradient>
	
		<ellipse fill="url(#SVGID_48_)" stroke="#F05A28" stroke-width="0.25" stroke-miterlimit="10" cx="113.515" cy="187.79" rx="11.102" ry="5.315"/>
	
		<linearGradient id="SVGID_49_" gradientUnits="userSpaceOnUse" x1="139.7988" y1="50.3877" x2="166.1133" y2="50.3877" gradientTransform="matrix(1 0 0 -1 -41.6602 236.04)">
		<stop  offset="0" style="stop-color:#F9EC31"/>
		<stop  offset="1" style="stop-color:#F6921E"/>
	</linearGradient>
	<path fill="url(#SVGID_49_)" stroke="#F05A28" stroke-width="0.25" stroke-miterlimit="10" d="M124.407,183.775
		c0,1.266,0.439,3.875-1.407,5.474c-2.332,2.018-6.265,3.44-11.102,3.44c-4.663,0-9.44-1.596-11.727-3.597
		c-1.23-1.075-2.033-3.803-2.033-5.159c0-3.887,6.593-5.318,13.76-5.318C119.067,178.615,124.407,179.889,124.407,183.775z"/>
	
		<linearGradient id="SVGID_50_" gradientUnits="userSpaceOnUse" x1="139.5898" y1="53.3071" x2="165.9063" y2="53.3071" gradientTransform="matrix(1 0 0 -1 -41.6602 236.04)">
		<stop  offset="0" style="stop-color:#F9EC31"/>
		<stop  offset="1" style="stop-color:#F6921E"/>
	</linearGradient>
	<path fill="url(#SVGID_50_)" stroke="#F05A28" stroke-width="0.25" stroke-miterlimit="10" d="M124.2,180.856
		c0,1.263,0.439,3.875-1.408,5.474c-2.331,2.017-6.264,3.44-11.101,3.44c-4.663,0-9.44-1.596-11.729-3.597
		c-1.229-1.075-2.033-3.802-2.033-5.161c0-3.886,6.593-5.316,13.761-5.316S124.2,176.97,124.2,180.856z"/>
	
		<linearGradient id="SVGID_51_" gradientUnits="userSpaceOnUse" x1="139.3828" y1="56.8511" x2="165.6973" y2="56.8511" gradientTransform="matrix(1 0 0 -1 -41.6602 236.04)">
		<stop  offset="0" style="stop-color:#F9EC31"/>
		<stop  offset="1" style="stop-color:#F6921E"/>
	</linearGradient>
	<path fill="url(#SVGID_51_)" stroke="#F05A28" stroke-width="0.25" stroke-miterlimit="10" d="M123.991,177.312
		c0,1.264,0.44,3.875-1.407,5.474c-2.332,2.02-6.265,3.44-11.102,3.44c-4.664,0-9.439-1.596-11.727-3.597
		c-1.23-1.075-2.033-3.802-2.033-5.16c0-3.886,6.592-5.317,13.76-5.317C118.65,172.151,123.991,173.425,123.991,177.312z"/>
	
		<linearGradient id="SVGID_52_" gradientUnits="userSpaceOnUse" x1="139.6943" y1="59.978" x2="165.6504" y2="59.978" gradientTransform="matrix(1 0 0 -1 -41.6602 236.04)">
		<stop  offset="0" style="stop-color:#F9EC31"/>
		<stop  offset="1" style="stop-color:#F6921E"/>
	</linearGradient>
	
		<ellipse fill="url(#SVGID_52_)" stroke="#F05A28" stroke-width="0.25" stroke-miterlimit="10" cx="111.012" cy="176.062" rx="12.978" ry="7.037"/>
	
		<linearGradient id="SVGID_53_" gradientUnits="userSpaceOnUse" x1="141.5713" y1="60.1348" x2="163.7754" y2="60.1348" gradientTransform="matrix(1 0 0 -1 -41.6602 236.04)">
		<stop  offset="0" style="stop-color:#FFF690"/>
		<stop  offset="1" style="stop-color:#FFDD15"/>
	</linearGradient>
	
		<ellipse fill="url(#SVGID_53_)" stroke="#F05A28" stroke-width="0.25" stroke-miterlimit="10" cx="111.013" cy="175.905" rx="11.102" ry="5.317"/>
	
		<linearGradient id="SVGID_54_" gradientUnits="userSpaceOnUse" x1="154.8623" y1="35.793" x2="181.1768" y2="35.793" gradientTransform="matrix(1 0 0 -1 -41.6602 236.04)">
		<stop  offset="0" style="stop-color:#F9EC31"/>
		<stop  offset="1" style="stop-color:#F6921E"/>
	</linearGradient>
	<path fill="url(#SVGID_54_)" stroke="#F05A28" stroke-width="0.25" stroke-miterlimit="10" d="M139.471,198.37
		c0,1.265,0.439,3.874-1.406,5.474c-2.332,2.018-6.264,3.44-11.102,3.44c-4.664,0-9.44-1.597-11.728-3.599
		c-1.23-1.076-2.033-3.803-2.033-5.16c0-3.886,6.592-5.316,13.761-5.316C134.13,193.21,139.471,194.484,139.471,198.37z"/>
	
		<linearGradient id="SVGID_55_" gradientUnits="userSpaceOnUse" x1="155.1738" y1="38.9209" x2="181.1309" y2="38.9209" gradientTransform="matrix(1 0 0 -1 -41.6602 236.04)">
		<stop  offset="0" style="stop-color:#F9EC31"/>
		<stop  offset="1" style="stop-color:#F6921E"/>
	</linearGradient>
	
		<ellipse fill="url(#SVGID_55_)" stroke="#F05A28" stroke-width="0.25" stroke-miterlimit="10" cx="126.492" cy="197.119" rx="12.979" ry="7.037"/>
	
		<linearGradient id="SVGID_56_" gradientUnits="userSpaceOnUse" x1="157.0508" y1="39.0781" x2="179.2559" y2="39.0781" gradientTransform="matrix(1 0 0 -1 -41.6602 236.04)">
		<stop  offset="0" style="stop-color:#FFF690"/>
		<stop  offset="1" style="stop-color:#FFDD15"/>
	</linearGradient>
	
		<ellipse fill="url(#SVGID_56_)" stroke="#F05A28" stroke-width="0.25" stroke-miterlimit="10" cx="126.493" cy="196.962" rx="11.103" ry="5.317"/>
	
		<linearGradient id="SVGID_57_" gradientUnits="userSpaceOnUse" x1="116.2393" y1="28.9126" x2="142.5547" y2="28.9126" gradientTransform="matrix(1 0 0 -1 -41.6602 236.04)">
		<stop  offset="0" style="stop-color:#F9EC31"/>
		<stop  offset="1" style="stop-color:#F6921E"/>
	</linearGradient>
	<path fill="url(#SVGID_57_)" stroke="#F05A28" stroke-width="0.25" stroke-miterlimit="10" d="M100.849,205.251
		c0,1.265,0.438,3.874-1.407,5.474c-2.332,2.019-6.265,3.439-11.103,3.439c-4.663,0-9.44-1.598-11.727-3.6
		c-1.23-1.072-2.033-3.801-2.033-5.156c0-3.889,6.593-5.317,13.76-5.317C95.508,200.091,100.849,201.364,100.849,205.251z"/>
	
		<linearGradient id="SVGID_58_" gradientUnits="userSpaceOnUse" x1="116.5513" y1="32.041" x2="142.5098" y2="32.041" gradientTransform="matrix(1 0 0 -1 -41.6602 236.04)">
		<stop  offset="0" style="stop-color:#F9EC31"/>
		<stop  offset="1" style="stop-color:#F6921E"/>
	</linearGradient>
	
		<ellipse fill="url(#SVGID_58_)" stroke="#F05A28" stroke-width="0.25" stroke-miterlimit="10" cx="87.87" cy="203.999" rx="12.979" ry="7.038"/>
	
		<linearGradient id="SVGID_59_" gradientUnits="userSpaceOnUse" x1="118.4292" y1="32.1963" x2="140.6328" y2="32.1963" gradientTransform="matrix(1 0 0 -1 -41.6602 236.04)">
		<stop  offset="0" style="stop-color:#FFF690"/>
		<stop  offset="1" style="stop-color:#FFDD15"/>
	</linearGradient>
	
		<ellipse fill="url(#SVGID_59_)" stroke="#F05A28" stroke-width="0.25" stroke-miterlimit="10" cx="87.871" cy="203.844" rx="11.102" ry="5.315"/>
	
		<linearGradient id="SVGID_60_" gradientUnits="userSpaceOnUse" x1="-591.7358" y1="44.7939" x2="-565.7773" y2="44.7939" gradientTransform="matrix(-0.9996 0.0268 -0.0268 -0.9996 -425.3899 240.9638)">
		<stop  offset="0" style="stop-color:#F9EC31"/>
		<stop  offset="1" style="stop-color:#F6921E"/>
	</linearGradient>
	<path fill="url(#SVGID_60_)" stroke="#F05A28" stroke-width="0.25" stroke-miterlimit="10" d="M138.961,181.025
		c0.104,3.885,5.997,6.878,13.162,6.686s12.891-3.499,12.786-7.381c-0.104-3.885-5.999-6.88-13.163-6.688
		C144.58,173.833,138.855,177.143,138.961,181.025z"/>
	
		<linearGradient id="SVGID_61_" gradientUnits="userSpaceOnUse" x1="-589.8574" y1="44.9497" x2="-567.6533" y2="44.9497" gradientTransform="matrix(-0.9996 0.0268 -0.0268 -0.9996 -425.3899 240.9638)">
		<stop  offset="0" style="stop-color:#FFF690"/>
		<stop  offset="1" style="stop-color:#FFDD15"/>
	</linearGradient>
	<path fill="url(#SVGID_61_)" stroke="#F05A28" stroke-width="0.25" stroke-miterlimit="10" d="M140.832,180.819
		c0.079,2.937,5.111,5.181,11.24,5.016c6.13-0.164,11.033-2.676,10.955-5.611c-0.079-2.937-5.11-5.181-11.239-5.017
		S140.753,177.884,140.832,180.819z"/>
	
		<linearGradient id="SVGID_62_" gradientUnits="userSpaceOnUse" x1="-593.5303" y1="47.7637" x2="-567.2134" y2="47.7637" gradientTransform="matrix(-0.9996 0.0268 -0.0268 -0.9996 -425.3899 240.9638)">
		<stop  offset="0" style="stop-color:#F9EC31"/>
		<stop  offset="1" style="stop-color:#F6921E"/>
	</linearGradient>
	<path fill="url(#SVGID_62_)" stroke="#F05A28" stroke-width="0.25" stroke-miterlimit="10" d="M140.313,176.14
		c0.033,1.263-0.336,3.885,1.555,5.434c2.384,1.957,6.354,3.271,11.189,3.141c4.66-0.126,9.394-1.847,11.627-3.91
		c1.199-1.107,1.93-3.856,1.894-5.213c-0.104-3.885-6.734-5.139-13.897-4.945C145.512,170.837,140.207,172.254,140.313,176.14z"/>
	
		<linearGradient id="SVGID_63_" gradientUnits="userSpaceOnUse" x1="-593.7686" y1="50.5273" x2="-567.4507" y2="50.5273" gradientTransform="matrix(-0.9996 0.0268 -0.0268 -0.9996 -425.3899 240.9638)">
		<stop  offset="0" style="stop-color:#F9EC31"/>
		<stop  offset="1" style="stop-color:#F6921E"/>
	</linearGradient>
	<path fill="url(#SVGID_63_)" stroke="#F05A28" stroke-width="0.25" stroke-miterlimit="10" d="M140.475,173.375
		c0.034,1.259-0.332,3.884,1.555,5.43c2.386,1.955,6.354,3.271,11.191,3.142c4.659-0.125,9.393-1.847,11.625-3.911
		c1.2-1.108,1.932-3.853,1.896-5.212c-0.104-3.884-6.733-5.136-13.898-4.946C145.677,168.071,140.371,169.488,140.475,173.375z"/>
	
		<linearGradient id="SVGID_64_" gradientUnits="userSpaceOnUse" x1="-593.7163" y1="53.3438" x2="-567.3989" y2="53.3438" gradientTransform="matrix(-0.9996 0.0268 -0.0268 -0.9996 -425.3899 240.9638)">
		<stop  offset="0" style="stop-color:#F9EC31"/>
		<stop  offset="1" style="stop-color:#F6921E"/>
	</linearGradient>
	<path fill="url(#SVGID_64_)" stroke="#F05A28" stroke-width="0.25" stroke-miterlimit="10" d="M140.348,170.561
		c0.034,1.261-0.334,3.885,1.555,5.431c2.385,1.956,6.354,3.271,11.189,3.14c4.661-0.125,9.393-1.846,11.629-3.908
		c1.198-1.109,1.928-3.855,1.893-5.212c-0.104-3.886-6.732-5.14-13.899-4.947C145.551,165.258,140.243,166.674,140.348,170.561z"/>
	
		<linearGradient id="SVGID_65_" gradientUnits="userSpaceOnUse" x1="-593.4023" y1="56.4688" x2="-567.4424" y2="56.4688" gradientTransform="matrix(-0.9996 0.0268 -0.0268 -0.9996 -425.3899 240.9638)">
		<stop  offset="0" style="stop-color:#F9EC31"/>
		<stop  offset="1" style="stop-color:#F6921E"/>
	</linearGradient>
	<path fill="url(#SVGID_65_)" stroke="#F05A28" stroke-width="0.25" stroke-miterlimit="10" d="M140.313,169.31
		c0.104,3.885,6,6.879,13.162,6.686c7.168-0.194,12.892-3.495,12.787-7.381c-0.105-3.886-5.998-6.879-13.162-6.688
		C145.936,162.12,140.21,165.425,140.313,169.31z"/>
	
		<linearGradient id="SVGID_66_" gradientUnits="userSpaceOnUse" x1="-591.5269" y1="56.627" x2="-569.3228" y2="56.627" gradientTransform="matrix(-0.9996 0.0268 -0.0268 -0.9996 -425.3899 240.9638)">
		<stop  offset="0" style="stop-color:#FFF690"/>
		<stop  offset="1" style="stop-color:#FFDD15"/>
	</linearGradient>
	<path fill="url(#SVGID_66_)" stroke="#F05A28" stroke-width="0.25" stroke-miterlimit="10" d="M142.188,169.101
		c0.076,2.938,5.109,5.182,11.238,5.018c6.131-0.165,11.035-2.678,10.957-5.612c-0.078-2.936-5.113-5.181-11.242-5.018
		C147.014,163.654,142.105,166.168,142.188,169.101z"/>
	
		<linearGradient id="SVGID_67_" gradientUnits="userSpaceOnUse" x1="-592.0474" y1="58.7637" x2="-565.7305" y2="58.7637" gradientTransform="matrix(-0.9996 0.0268 -0.0268 -0.9996 -425.3899 240.9638)">
		<stop  offset="0" style="stop-color:#F9EC31"/>
		<stop  offset="1" style="stop-color:#F6921E"/>
	</linearGradient>
	<path fill="url(#SVGID_67_)" stroke="#F05A28" stroke-width="0.25" stroke-miterlimit="10" d="M138.536,165.186
		c0.032,1.263-0.336,3.886,1.552,5.432c2.387,1.954,6.355,3.271,11.191,3.141c4.66-0.124,9.394-1.847,11.625-3.91
		c1.201-1.107,1.932-3.855,1.896-5.211c-0.104-3.885-6.733-5.139-13.897-4.947C143.736,159.884,138.432,161.301,138.536,165.186z"/>
	
		<linearGradient id="SVGID_68_" gradientUnits="userSpaceOnUse" x1="-592.2573" y1="61.6826" x2="-565.938" y2="61.6826" gradientTransform="matrix(-0.9996 0.0268 -0.0268 -0.9996 -425.3899 240.9638)">
		<stop  offset="0" style="stop-color:#F9EC31"/>
		<stop  offset="1" style="stop-color:#F6921E"/>
	</linearGradient>
	<path fill="url(#SVGID_68_)" stroke="#F05A28" stroke-width="0.25" stroke-miterlimit="10" d="M138.664,162.262
		c0.034,1.264-0.335,3.885,1.555,5.433c2.385,1.953,6.354,3.271,11.19,3.14c4.661-0.124,9.393-1.845,11.627-3.908
		c1.2-1.107,1.931-3.856,1.896-5.215c-0.104-3.885-6.733-5.136-13.9-4.944C143.866,156.96,138.561,158.377,138.664,162.262z"/>
	
		<linearGradient id="SVGID_69_" gradientUnits="userSpaceOnUse" x1="-592.4629" y1="65.2266" x2="-566.147" y2="65.2266" gradientTransform="matrix(-0.9996 0.0268 -0.0268 -0.9996 -425.3899 240.9638)">
		<stop  offset="0" style="stop-color:#F9EC31"/>
		<stop  offset="1" style="stop-color:#F6921E"/>
	</linearGradient>
	<path fill="url(#SVGID_69_)" stroke="#F05A28" stroke-width="0.25" stroke-miterlimit="10" d="M138.777,158.715
		c0.035,1.262-0.334,3.886,1.554,5.431c2.385,1.956,6.356,3.273,11.192,3.142c4.66-0.126,9.393-1.849,11.625-3.911
		c1.201-1.106,1.931-3.856,1.894-5.212c-0.104-3.884-6.731-5.138-13.897-4.946C143.979,153.411,138.674,154.83,138.777,158.715z"/>
	
		<linearGradient id="SVGID_70_" gradientUnits="userSpaceOnUse" x1="-592.1499" y1="68.3545" x2="-566.1924" y2="68.3545" gradientTransform="matrix(-0.9996 0.0268 -0.0268 -0.9996 -425.3899 240.9638)">
		<stop  offset="0" style="stop-color:#F9EC31"/>
		<stop  offset="1" style="stop-color:#F6921E"/>
	</linearGradient>
	<path fill="url(#SVGID_70_)" stroke="#F05A28" stroke-width="0.25" stroke-miterlimit="10" d="M138.744,157.464
		c0.104,3.885,5.997,6.877,13.163,6.684c7.165-0.192,12.89-3.496,12.784-7.38c-0.104-3.886-5.996-6.88-13.162-6.687
		C144.365,150.272,138.641,153.578,138.744,157.464z"/>
	
		<linearGradient id="SVGID_71_" gradientUnits="userSpaceOnUse" x1="-590.2744" y1="68.5107" x2="-568.0703" y2="68.5107" gradientTransform="matrix(-0.9996 0.0268 -0.0268 -0.9996 -425.3899 240.9638)">
		<stop  offset="0" style="stop-color:#FFF690"/>
		<stop  offset="1" style="stop-color:#FFDD15"/>
	</linearGradient>
	<path fill="url(#SVGID_71_)" stroke="#F05A28" stroke-width="0.25" stroke-miterlimit="10" d="M140.617,157.256
		c0.078,2.934,5.109,5.181,11.238,5.017c6.131-0.164,11.035-2.677,10.957-5.612c-0.08-2.936-5.112-5.182-11.242-5.018
		C145.443,151.808,140.537,154.322,140.617,157.256z"/>
	
		<linearGradient id="SVGID_72_" gradientUnits="userSpaceOnUse" x1="186.1855" y1="44.1602" x2="212.502" y2="44.1602" gradientTransform="matrix(0.9996 -0.0268 -0.0268 -0.9996 -33.8456 231.0828)">
		<stop  offset="0" style="stop-color:#F9EC31"/>
		<stop  offset="1" style="stop-color:#F6921E"/>
	</linearGradient>
	<path fill="url(#SVGID_72_)" stroke="#F05A28" stroke-width="0.25" stroke-miterlimit="10" d="M177.291,179.371
		c0.034,1.263,0.544,3.862-1.262,5.509c-2.274,2.078-6.168,3.604-11.004,3.736c-4.662,0.126-9.479-1.339-11.819-3.28
		c-1.258-1.041-2.136-3.747-2.171-5.103c-0.104-3.885,6.447-5.491,13.613-5.685C171.814,174.355,177.188,175.486,177.291,179.371z"
		/>
	
		<linearGradient id="SVGID_73_" gradientUnits="userSpaceOnUse" x1="186.498" y1="47.2876" x2="212.4551" y2="47.2876" gradientTransform="matrix(0.9996 -0.0268 -0.0268 -0.9996 -33.8456 231.0828)">
		<stop  offset="0" style="stop-color:#F9EC31"/>
		<stop  offset="1" style="stop-color:#F6921E"/>
	</linearGradient>
	<path fill="url(#SVGID_73_)" stroke="#F05A28" stroke-width="0.25" stroke-miterlimit="10" d="M177.257,178.122
		c0.104,3.884-5.616,7.189-12.784,7.38c-7.164,0.194-13.059-2.799-13.162-6.685c-0.104-3.886,5.619-7.189,12.785-7.382
		C171.262,171.243,177.152,174.235,177.257,178.122z"/>
	
		<linearGradient id="SVGID_74_" gradientUnits="userSpaceOnUse" x1="188.9639" y1="49.166" x2="211.1689" y2="49.166" gradientTransform="matrix(0.9996 -0.0268 -0.0268 -0.9996 -33.8456 231.0828)">
		<stop  offset="0" style="stop-color:#FFF690"/>
		<stop  offset="1" style="stop-color:#FFDD15"/>
	</linearGradient>
	<path fill="url(#SVGID_74_)" stroke="#F05A28" stroke-width="0.25" stroke-miterlimit="10" d="M175.921,176.277
		c0.078,2.936-4.825,5.447-10.954,5.612c-6.13,0.164-11.162-2.08-11.242-5.016c-0.078-2.937,4.827-5.447,10.959-5.612
		C170.811,171.096,175.843,173.342,175.921,176.277z"/>
	<polygon fill="#FFFFFF" stroke="#FFFFFF" stroke-miterlimit="10" points="124.761,187.237 126.367,185.335 129.243,186.095 
		127.023,184.59 129.503,182.507 126.648,183.804 125.187,181.43 125.494,183.996 122.256,184.355 125.461,184.82 	"/>
	<polygon fill="#FFFFFF" stroke="#FFFFFF" stroke-miterlimit="10" points="91.696,163.356 93.85,160.894 97.775,161.936 
		94.731,159.925 98.07,157.243 94.207,158.893 92.176,155.759 92.639,159.124 88.238,159.541 92.609,160.204 	"/>
	<polygon fill="#FFFFFF" stroke="#FFFFFF" stroke-miterlimit="10" points="152.691,166.544 154.297,164.643 157.173,165.401 
		154.955,163.896 157.434,161.814 154.578,163.111 153.116,160.737 153.424,163.302 150.186,163.663 153.391,164.127 	"/>
</g>
</svg>
