<?xml version="1.0" encoding="utf-8"?>
<!-- Generator: Adobe Illustrator 15.0.0, SVG Export Plug-In . SVG Version: 6.00 Build 0)  -->
<!DOCTYPE svg PUBLIC "-//W3C//DTD SVG 1.1//EN" "http://www.w3.org/Graphics/SVG/1.1/DTD/svg11.dtd">
<svg version="1.1" id="Layer_1" xmlns="http://www.w3.org/2000/svg" xmlns:xlink="http://www.w3.org/1999/xlink" x="0px" y="0px"
	 width="250px" height="400px" viewBox="0 0 250 400" enable-background="new 0 0 250 400" xml:space="preserve">
<linearGradient id="SVGID_1_" gradientUnits="userSpaceOnUse" x1="419.54" y1="-740.8032" x2="441.0752" y2="-740.8032" gradientTransform="matrix(0.9994 0.0328 0.0328 -0.9994 -228.5398 -543.9766)">
	<stop  offset="0" style="stop-color:#FBED21"/>
	<stop  offset="0.4283" style="stop-color:#FDED0F"/>
	<stop  offset="0.5826" style="stop-color:#FDE700"/>
	<stop  offset="0.6926" style="stop-color:#FFE100"/>
	<stop  offset="0.7815" style="stop-color:#FDD400"/>
	<stop  offset="0.8576" style="stop-color:#FFC512"/>
	<stop  offset="0.925" style="stop-color:#FBB017"/>
	<stop  offset="0.9845" style="stop-color:#F7991F"/>
	<stop  offset="1" style="stop-color:#F79420"/>
</linearGradient>
<polygon fill="url(#SVGID_1_)" points="177.547,200.261 180.65,207.107 188.052,208.432 182.5,213.5 183.527,220.948 
	176.99,217.232 170.227,220.514 171.738,213.148 166.529,207.727 174.001,206.891 "/>
<linearGradient id="SVGID_2_" gradientUnits="userSpaceOnUse" x1="315.5879" y1="-731.7686" x2="327.1172" y2="-731.7686" gradientTransform="matrix(0.9994 0.0328 0.0328 -0.9994 -228.5398 -543.9766)">
	<stop  offset="0" style="stop-color:#FBED21"/>
	<stop  offset="0.4283" style="stop-color:#FDED0F"/>
	<stop  offset="0.5826" style="stop-color:#FDE700"/>
	<stop  offset="0.6926" style="stop-color:#FFE100"/>
	<stop  offset="0.7815" style="stop-color:#FDD400"/>
	<stop  offset="0.8576" style="stop-color:#FFC512"/>
	<stop  offset="0.925" style="stop-color:#FBB017"/>
	<stop  offset="0.9845" style="stop-color:#F7991F"/>
	<stop  offset="1" style="stop-color:#F79420"/>
</linearGradient>
<polygon fill="url(#SVGID_2_)" points="68.798,192.414 70.46,196.08 74.422,196.788 71.45,199.501 72,203.489 68.5,201.5 
	64.878,203.256 65.688,199.313 62.899,196.411 66.899,195.963 "/>
<linearGradient id="SVGID_3_" gradientUnits="userSpaceOnUse" x1="311.8857" y1="-753.3418" x2="333.4219" y2="-753.3418" gradientTransform="matrix(0.9994 0.0328 0.0328 -0.9994 -228.5398 -543.9766)">
	<stop  offset="0" style="stop-color:#FBED21"/>
	<stop  offset="0.4283" style="stop-color:#FDED0F"/>
	<stop  offset="0.5826" style="stop-color:#FDE700"/>
	<stop  offset="0.6926" style="stop-color:#FFE100"/>
	<stop  offset="0.7815" style="stop-color:#FDD400"/>
	<stop  offset="0.8576" style="stop-color:#FFC512"/>
	<stop  offset="0.925" style="stop-color:#FBB017"/>
	<stop  offset="0.9845" style="stop-color:#F7991F"/>
	<stop  offset="1" style="stop-color:#F79420"/>
</linearGradient>
<polygon fill="url(#SVGID_3_)" points="69.547,209.261 72.651,216.107 80.052,217.432 74.5,222.5 75.527,229.948 68.99,226.232 
	62.226,229.514 63.738,222.148 58.529,216.727 66.001,215.891 "/>
<linearGradient id="SVGID_4_" gradientUnits="userSpaceOnUse" x1="305.2393" y1="-646.8867" x2="326.7744" y2="-646.8867" gradientTransform="matrix(0.9994 0.0328 0.0328 -0.9994 -228.5398 -543.9766)">
	<stop  offset="0" style="stop-color:#FBED21"/>
	<stop  offset="0.4283" style="stop-color:#FDED0F"/>
	<stop  offset="0.5826" style="stop-color:#FDE700"/>
	<stop  offset="0.6926" style="stop-color:#FFE100"/>
	<stop  offset="0.7815" style="stop-color:#FDD400"/>
	<stop  offset="0.8576" style="stop-color:#FFC512"/>
	<stop  offset="0.925" style="stop-color:#FBB017"/>
	<stop  offset="0.9845" style="stop-color:#F7991F"/>
	<stop  offset="1" style="stop-color:#F79420"/>
</linearGradient>
<polygon fill="url(#SVGID_4_)" points="66.396,102.652 69.5,109.5 76.9,110.823 71.349,115.892 72.376,123.34 65.839,119.625 
	59.074,122.904 60.587,115.54 55.378,110.118 62.85,109.282 "/>
<linearGradient id="SVGID_5_" gradientUnits="userSpaceOnUse" x1="295.1885" y1="-705.9404" x2="311.6865" y2="-705.9404" gradientTransform="matrix(0.9994 0.0328 0.0328 -0.9994 -228.5398 -543.9766)">
	<stop  offset="0" style="stop-color:#FBED21"/>
	<stop  offset="0.4283" style="stop-color:#FDED0F"/>
	<stop  offset="0.5826" style="stop-color:#FDE700"/>
	<stop  offset="0.6926" style="stop-color:#FFE100"/>
	<stop  offset="0.7815" style="stop-color:#FDD400"/>
	<stop  offset="0.8576" style="stop-color:#FFC512"/>
	<stop  offset="0.925" style="stop-color:#FBB017"/>
	<stop  offset="0.9845" style="stop-color:#F7991F"/>
	<stop  offset="1" style="stop-color:#F79420"/>
</linearGradient>
<polygon fill="url(#SVGID_5_)" points="51.818,163.652 54.196,168.898 59.865,169.912 55.612,173.794 56.399,179.5 51.392,176.654 
	46.209,179.167 47.368,173.525 43.378,169.372 49.102,168.731 "/>
<linearGradient id="SVGID_6_" gradientUnits="userSpaceOnUse" x1="317.418" y1="-677.1855" x2="329.5859" y2="-677.1855" gradientTransform="matrix(0.9994 0.0328 0.0328 -0.9994 -228.5398 -543.9766)">
	<stop  offset="0" style="stop-color:#FBED21"/>
	<stop  offset="0.4283" style="stop-color:#FDED0F"/>
	<stop  offset="0.5826" style="stop-color:#FDE700"/>
	<stop  offset="0.6926" style="stop-color:#FFE100"/>
	<stop  offset="0.7815" style="stop-color:#FDD400"/>
	<stop  offset="0.8576" style="stop-color:#FFC512"/>
	<stop  offset="0.925" style="stop-color:#FBB017"/>
	<stop  offset="0.9845" style="stop-color:#F7991F"/>
	<stop  offset="1" style="stop-color:#F79420"/>
</linearGradient>
<polygon fill="url(#SVGID_6_)" points="72.746,137.631 74.5,141.5 78.681,142.248 75.544,145.111 76.125,149.319 72.432,147.22 
	68.61,149.073 69.464,144.912 66.521,141.849 70.743,141.377 "/>
<linearGradient id="SVGID_7_" gradientUnits="userSpaceOnUse" x1="426.9277" y1="-691.5313" x2="448.4639" y2="-691.5313" gradientTransform="matrix(0.9994 0.0328 0.0328 -0.9994 -228.5398 -543.9766)">
	<stop  offset="0" style="stop-color:#FBED21"/>
	<stop  offset="0.4283" style="stop-color:#FDED0F"/>
	<stop  offset="0.5826" style="stop-color:#FDE700"/>
	<stop  offset="0.6926" style="stop-color:#FFE100"/>
	<stop  offset="0.7815" style="stop-color:#FDD400"/>
	<stop  offset="0.8576" style="stop-color:#FFC512"/>
	<stop  offset="0.925" style="stop-color:#FBB017"/>
	<stop  offset="0.9845" style="stop-color:#F7991F"/>
	<stop  offset="1" style="stop-color:#F79420"/>
</linearGradient>
<polygon fill="url(#SVGID_7_)" points="186.547,151.261 189.65,158.108 197.052,159.432 191.5,164.5 192.527,171.948 
	185.99,168.233 179.227,171.513 180.738,164.148 175.529,158.727 183.001,157.891 "/>
<linearGradient id="SVGID_8_" gradientUnits="userSpaceOnUse" x1="421.2422" y1="-638.3447" x2="433.4092" y2="-638.3447" gradientTransform="matrix(0.9994 0.0328 0.0328 -0.9994 -228.5398 -543.9766)">
	<stop  offset="0" style="stop-color:#FBED21"/>
	<stop  offset="0.4283" style="stop-color:#FDED0F"/>
	<stop  offset="0.5826" style="stop-color:#FDE700"/>
	<stop  offset="0.6926" style="stop-color:#FFE100"/>
	<stop  offset="0.7815" style="stop-color:#FDD400"/>
	<stop  offset="0.8576" style="stop-color:#FFC512"/>
	<stop  offset="0.925" style="stop-color:#FBB017"/>
	<stop  offset="0.9845" style="stop-color:#F7991F"/>
	<stop  offset="1" style="stop-color:#F79420"/>
</linearGradient>
<polygon fill="url(#SVGID_8_)" points="177.781,102.219 179.535,106.088 183.717,106.835 180.58,109.699 181.16,113.907 
	177.467,111.808 173.646,113.661 174.5,109.5 171.557,106.437 175.777,105.965 "/>
<linearGradient id="SVGID_9_" gradientUnits="userSpaceOnUse" x1="431.3574" y1="-646.9043" x2="444.9834" y2="-646.9043" gradientTransform="matrix(0.9994 0.0328 0.0328 -0.9994 -228.5398 -543.9766)">
	<stop  offset="0" style="stop-color:#FBED21"/>
	<stop  offset="0.4283" style="stop-color:#FDED0F"/>
	<stop  offset="0.5826" style="stop-color:#FDE700"/>
	<stop  offset="0.6926" style="stop-color:#FFE100"/>
	<stop  offset="0.7815" style="stop-color:#FDD400"/>
	<stop  offset="0.8576" style="stop-color:#FFC512"/>
	<stop  offset="0.925" style="stop-color:#FBB017"/>
	<stop  offset="0.9845" style="stop-color:#F7991F"/>
	<stop  offset="1" style="stop-color:#F79420"/>
</linearGradient>
<polygon fill="url(#SVGID_9_)" points="188.361,110.435 190.326,114.768 195.009,115.605 191.496,118.813 192.146,123.526 
	188.01,121.175 183.729,123.25 184.688,118.59 181.391,115.159 186.118,114.63 "/>
<linearGradient id="SVGID_10_" gradientUnits="userSpaceOnUse" x1="441.0508" y1="-754.9736" x2="453.5811" y2="-754.9736" gradientTransform="matrix(0.9994 0.0328 0.0328 -0.9994 -228.5398 -543.9766)">
	<stop  offset="0" style="stop-color:#FBED21"/>
	<stop  offset="0.4283" style="stop-color:#FDED0F"/>
	<stop  offset="0.5826" style="stop-color:#FDE700"/>
	<stop  offset="0.6926" style="stop-color:#FFE100"/>
	<stop  offset="0.7815" style="stop-color:#FDD400"/>
	<stop  offset="0.8576" style="stop-color:#FFC512"/>
	<stop  offset="0.925" style="stop-color:#FBB017"/>
	<stop  offset="0.9845" style="stop-color:#F7991F"/>
	<stop  offset="1" style="stop-color:#F79420"/>
</linearGradient>
<polygon fill="url(#SVGID_10_)" points="193.939,219.261 195.746,223.245 200.052,224.016 196.82,226.964 197.419,231.298 
	193.616,229.136 189.68,231.044 190.561,226.759 187.529,223.604 191.877,223.118 "/>
<linearGradient id="SVGID_11_" gradientUnits="userSpaceOnUse" x1="89.6333" y1="167.0132" x2="164.0723" y2="167.0132">
	<stop  offset="0.0044" style="stop-color:#00D600"/>
	<stop  offset="1" style="stop-color:#037500"/>
</linearGradient>
<polygon fill="url(#SVGID_11_)" points="108.368,106.192 145.834,106.192 145.834,170.331 164.072,170.331 127.931,227.834 
	89.633,169.594 108.864,169.594 "/>
</svg>
